<?xml version="1.0"?>
<svg xmlns="http://www.w3.org/2000/svg" version="1.2" baseProfile="tiny" width="800" height="537" viewBox="0 0 800 537" stroke-linecap="round" stroke-linejoin="round">
<g id="광주광역시_시군구_경계">
<path d="M 404.26 79.12 406.15 82.7 409.92 90.02 410.24 90.81 410.52 91.47 410.79 91.62 410.84 91.6 412.17 91.16 415.09 90.21 417.94 89.27 418.35 89.13 418.75 88.99 419.14 88.84 419.54 88.69 424.67 86.65 427.04 92.59 427.09 92.71 427.17 92.95 427.25 93.19 427.32 93.44 427.38 93.69 427.43 93.94 427.47 94.19 427.51 94.44 427.53 94.7 427.54 94.8 427.54 94.84 427.55 94.95 427.55 95.21 427.55 95.33 427.53 96.61 427.7 96.77 428.45 96.78 432.69 96.83 436.92 96.88 441.31 96.94 442.18 96.95 442.1 102.97 446.01 107.2 446.29 107.21 446.58 107.22 446.86 107.25 447.14 107.29 447.42 107.33 447.7 107.39 447.97 107.45 448.25 107.52 448.52 107.6 448.87 107.71 449.32 107.89 449.71 108.06 450.47 108.45 450.26 108.73 450.08 108.87 449.35 109.45 442.18 118.31 442.64 128.24 443.33 129.16 444.15 130.54 444.51 131.49 444.74 132.09 444.9 132.51 444.97 132.72 445.1 133.18 445.52 134.93 445.68 135.66 445.78 136.12 445.96 137.02 446.02 137.29 446.15 138.01 446.23 138.53 446.28 139.09 446.29 139.18 446.64 148.46 446.64 149.92 446.36 151.05 446.35 151.1 446.19 151.73 446.18 151.78 446.17 151.8 445.46 153.22 444.27 154.78 444.25 154.81 442.98 155.89 442.49 156.11 442.37 156.17 441.94 156.38 439.5 157.72 439.81 160.46 439.91 160.74 439.98 160.92 441.18 162.06 441.66 162.34 441.92 162.49 442.29 162.7 442.65 162.86 442.81 162.93 443.76 163.32 444.9 163.51 446.01 163.36 446.81 163.45 450.71 165.28 453.12 166.58 453.58 167.05 453.73 167.27 454.11 167.83 454.74 169.33 454.76 169.41 455 170.16 455.01 170.17 455.51 175.04 457 188.73 457.11 190.32 453.49 196.8 452.16 197.71 451.61 198.06 450.07 199.01 447.81 199.74 447.61 199.73 447.45 199.72 446.5 199.65 445.06 199.23 443.69 198.73 441.95 198.66 441.15 198.93 440.55 199.13 439.16 200.23 438.09 201.79 437.86 203.75 437.25 204.73 436.85 205.33 435.54 205.76 433.62 205.95 428.92 205.87 428.79 205.8 427.6 205.1 426.79 204.11 426.71 204.01 426.19 203.1 425.77 202.31 425.35 201.53 424.89 200.66 424.16 199.33 424.01 199.08 416.85 199.93 416.77 200.03 411.17 208.69 409.62 211.59 409.41 212.09 408.97 213.2 408.26 222.47 408.22 223.03 408.23 223.52 408.25 223.94 408.48 224.8 408.74 226.5 408.66 227.26 408.2 228.3 407.86 228.59 407.11 229.22 406.58 229.55 405.61 230.11 405.6 230.11 401.08 230.6 401 230.61 398.95 230.58 398.47 230.58 398.15 230.68 397.93 230.74 394.84 231.68 393.16 232.51 388.17 235.34 386.12 237.12 385.42 237.78 382.23 240.89 381.64 242.16 381.45 242.58 380.93 243.72 380.83 244.03 380.82 248.88 381.16 250.18 382.28 252.38 382.74 252.76 383.05 253 383.06 253 383.85 253.97 384.17 254.74 383.23 259.45 382.29 261.46 382.25 270 382.27 270.59 382.29 271.21 382.32 272.25 384.08 274.6 386.1 276.7 388.38 279.8 388.99 280.78 389.13 281.2 389.25 281.62 389.77 283.46 389.96 283.64 390.16 284.12 390.38 285.23 390.64 288.97 391.45 303.61 391.36 303.89 390.92 305.23 390.9 305.28 388.97 307.82 385.66 311.76 379.83 318.56 378.8 319.52 378.73 319.58 376.89 320.03 375.71 320.24 375.67 320.25 373.93 321.04 372.15 322.03 371.45 322.59 370.33 323.47 369.6 324.31 369.1 324.96 368.85 325.43 368.7 325.73 368.4 326.99 368.38 327.08 368.15 328.31 368.1 328.61 368.07 328.97 367.98 329.98 368.01 330.27 368.14 331.59 368.41 332.82 368.69 333.58 369.36 334.77 370.26 335.72 371.56 336.55 371.8 336.7 372.64 337.22 374.02 338.57 375.02 340.47 375.13 340.77 375.44 341.61 375.4 341.74 375.31 342.02 375.02 342.87 373.86 345.75 373.16 347.07 372.81 347.71 372.81 347.73 371.54 348.74 371.1 348.99 371.04 349.02 370.96 349.07 370.66 349.23 370.43 349.36 369.72 349.77 368.89 350.3 368.36 350.65 367.67 351.14 366.7 352.12 366.57 352.28 365.7 353.33 365.69 353.36 364.74 354.89 364.13 356.78 363.92 361.38 363.91 362.46 356.63 366.34 349.25 367.04 349.12 367.19 349.01 367.4 348.77 367.99 348.43 369.36 348.33 370.09 348.22 371.03 348.19 371.58 348.24 373.86 348.3 373.92 348.41 374.08 348.43 374.14 348.54 374.5 348.56 374.7 348.49 375.28 348.03 377.52 347.59 378.27 341.02 379.3 340.67 379.33 340.41 379.28 336.92 377.66 336.33 377.25 334.07 378.37 334.16 380.34 334.39 381.37 334.44 381.6 338.48 395.03 338.76 395.94 340.31 399.95 335.13 402.69 331.37 405.51 329.89 407.59 329.3 413.27 329.19 416.86 329.5 418.41 329.55 418.54 330.16 420.02 333.15 426.69 333.45 428.62 333.21 429.74 333.14 430.03 332.46 431.49 330.43 433.54 327.38 435.84 323.98 437.97 323.32 437.89 322.13 438.01 319.19 440.72 314.37 450.45 310.59 454.5 309.41 455.81 309.39 455.84 305.79 460.81 302.23 466.79 301.49 468.81 298 474.25 297.55 474.7 297.2 475.05 296.2 476.02 295.8 476.36 294.71 477.27 294.05 477.74 293.28 478.28 292.58 478.75 290.39 480.22 289.86 480.5 289.46 480.68 289.1 480.84 288.33 481.18 287.37 481.53 285.69 482.06 284.68 482.35 283.23 482.77 282.85 482.82 280.75 483.11 280.48 483.14 279.58 483.25 276.84 483.37 275.94 483.41 275.19 483.45 275.07 483.47 273.28 483.75 271.9 484.07 270.86 484.33 269.85 484.7 268.81 485.1 266.74 486.16 265.14 482.43 261.32 476.98 261.08 476.7 260.68 476.24 258.2 473.31 258.08 473.18 257.59 472.51 253.05 464.01 253.95 461.75 254.95 459.08 255.07 457.1 255.11 456.09 254.91 453.81 254.65 452.66 254.51 452.04 254.29 451.33 253.83 451.12 249.57 444.71 247.48 435.93 247.43 435.03 247.15 432.55 247.09 432.38 242.49 431.19 240.4 430.72 239.53 430.65 234.05 430.78 232.64 431.12 231.04 430.6 230.3 429.56 225.52 418.37 221.78 410.95 215.25 403.27 210.84 398.65 207.81 396.31 198.12 389.71 193.61 387.74 191.2 384.96 189.55 382.05 185.94 375.99 185.71 375.77 185.25 375.57 184.91 375.79 184.45 376.12 181.86 377.98 181.37 379.43 180.96 382.22 181.09 382.6 181.12 382.67 181.54 383.78 181.6 383.84 182.59 384.87 182.7 387.96 181.58 388.89 178.58 389.44 176.57 389.71 175.89 389.69 159.2 387.29 157.79 386.96 156.96 386.58 156.06 385.81 154.91 384.61 154.11 383.82 151.77 381.76 150.39 381.04 150.12 380.94 149.9 380.91 149.35 380.93 147.72 381.42 146.19 382.05 144.93 382.59 143.51 383.01 137.63 384.05 135.88 384.16 135.86 384.16 135.24 384.08 134.8 383.92 134.79 383.91 134.75 383.86 130.87 379.01 128.32 375.29 128.07 374.91 122.3 375.66 122.22 375.67 121.93 375.73 121.86 375.75 121.57 375.85 121.53 375.86 120.07 376.62 117.08 382.54 116.92 382.85 116.84 383.17 116.7 384.01 116.64 384.64 116.63 384.91 116.48 385.06 113.14 387.74 112.97 387.84 111.31 388.73 108.01 388.97 102.53 385.16 97.77 381 96.44 380.05 95.82 379.62 95.2 379.25 86.18 377.17 85.5 377.14 85.43 377.14 84.68 377.12 82.52 377.93 81.61 378.33 81.47 378.42 81.25 378.55 81.11 378.65 81.86 379.5 81.86 379.38 82.52 380.5 83.98 383.79 84.92 386.1 83.61 388.39 83.19 388.49 81.53 388.82 80.67 388.98 80.03 388.97 79.92 388.97 79.26 388.94 78.24 388.88 77.58 388.76 75.27 388.64 74.15 388.69 72.95 389.81 70.44 392.51 67.93 394.41 66.4 395.32 51.78 395.93 50.15 395.44 50.06 395.4 47.67 394.55 46.7 391.16 46.64 390.83 48.6 390.49 50.88 387.44 50.96 386.87 51.06 385.97 51.13 385.38 51.16 385.16 51.22 384.56 51.26 378.8 43.43 371.98 43.39 371.95 43.29 371.86 39.24 369.59 38.57 369.69 37.58 369.86 37.12 370.17 37.01 370.24 36.04 370.87 35.27 371.35 33.88 372.09 31.89 372.81 26.83 373.46 25.89 373.39 21.92 369.3 22.38 365.44 22.36 363.81 21.88 362.64 21.75 362.33 21.48 361.68 20.05 360.71 18.81 359.99 17.59 359.65 16.75 359.42 15.68 357.84 15.11 356.9 14.55 354.94 14.78 344.02 14.83 343.9 15.26 342.89 15.75 341.74 16.86 340.59 17.79 339.18 18.18 336.01 19.03 329.02 18.85 324.87 19.43 323.74 20.04 322.71 20.94 321.31 21.07 320.07 21.74 312.83 21.25 312.01 20.25 311.4 18.37 305.91 18.36 305.87 17.47 302.22 17.69 298.64 17.89 296.45 18.11 295.87 18.11 295.85 18.57 294.39 12.68 293.29 12.45 293.34 10.24 293.83 8.66 294.19 7.12 294.23 6.41 294.09 5.87 293.59 1 287.56 1.4 287.22 3.84 286.96 7.23 286.57 8.74 286.31 9.24 286.17 9.74 286.04 11.97 284.83 12.08 284.73 12.82 284.06 13.53 283.13 14 281.49 14.36 277.14 16.77 275.1 18.76 272.37 19.17 271.7 19.18 271.65 19.28 271.11 18 269.84 17.37 269.42 16.62 268.92 15.98 268.43 15.51 268.06 14.8 266.42 15.47 264.58 16.58 263.16 19.65 259.67 21.66 257.39 21.1 252.83 20.67 252.31 20.1 250.92 19.68 249.86 20.41 242.34 20.75 241.75 20.94 241.43 22.37 239.87 24.32 238.08 27.02 236.17 27.81 236.02 29.78 235.66 34.65 236.2 35.73 236.33 39.32 234.05 42.29 231.61 44.96 230.73 45.26 230.64 45.67 230.53 45.93 230.46 45.99 230.45 52.09 229 55.93 228.12 56.11 227.89 56.68 226.97 57.46 225.58 58.83 221.83 58.86 221.6 58.95 219.78 57.28 216.4 56.41 215.33 55.67 214.79 55.16 214.73 54.8 214.68 53.77 214.89 50.94 214.34 47.36 209.4 38.95 200.68 38.78 199.46 39.14 198.52 39.41 197.89 40.04 197.65 40.43 197.32 41.32 196.15 37.31 189.69 36.21 188.34 34.21 187.41 34.01 187.33 32.45 186.81 30.5 186.19 30.36 186.12 29.23 185.59 28.81 185.08 25.06 180.25 24 178.71 23.97 178.65 24.08 177.86 23.95 177.19 22.5 174.49 22.17 173.89 19.5 169.65 19.4 169.47 20.06 168.84 21.18 167.99 22.18 167.32 25.86 165.46 26.75 166.29 27.38 167.2 31.79 170.23 42.57 170.05 50.71 169.33 51.05 169.21 51.32 169.01 51.44 168.9 51.49 168.87 52.79 167.09 53.12 166.57 53.41 166.1 59.28 165.33 60.27 166.2 61.85 168.39 63.47 171.29 64.23 173.29 67.47 174.5 68.28 174.27 69.9 173.68 70.21 172.52 71.49 166.7 70.51 164.25 70.51 157.2 70.65 147.11 71.13 144.11 71.46 143.3 72.17 142.5 73.69 141.19 74.21 141.04 74.51 141.06 74.94 141.08 75.52 140.97 75.8 140.71 76.22 140.3 81.78 128.61 86.3 122.27 88.5 115.74 89.42 114.19 90.5 112.76 91.4 111.73 91.5 111.7 91.55 111.68 92.77 112.08 93.23 112.27 93.35 112.86 98.53 112.29 98.81 113.01 100.28 116.13 100.74 117.06 100.76 117.1 100.79 117.17 111.58 125.83 123.99 131.62 124.02 131.61 124.85 131.32 134.06 124.88 139.67 120.61 141.29 119.64 146.06 119.99 150.43 120.31 150.79 120.28 150.92 120.27 151.8 120.17 155.99 119.45 156.08 119.46 156.16 119.39 157.87 117.42 161.48 110.16 162.6 102.94 159.43 96.57 159.39 96.5 160.98 82.51 162.64 81.35 165.24 80.13 166.67 78.99 168.21 77.54 170.02 73.83 170.03 73.79 168.89 72.53 168.94 72.27 171.75 64.84 172.34 63.35 173.39 61.53 174.75 59.36 176.19 57.55 176.36 57.58 178.13 57.9 178.15 57.88 180.65 55.56 182.47 50.94 183.5 46.94 183.41 46.62 183.33 46.41 183.05 45.11 182.48 40.14 182.48 39.91 182.6 39.38 182.86 38.94 187.63 31.98 188.91 30.17 191.89 26.6 193.87 24.35 194.07 24.1 196.04 21.23 197.84 18.2 197.97 17.92 198.03 17.66 198.18 16.28 198.17 15.6 201.15 18.29 204.89 20.08 206.7 20.57 207.91 20.54 219.67 15.78 220.71 15.32 221.72 14.63 222.99 12.22 223.25 11.33 223.55 10.28 223.85 8.99 223.98 8.26 224.02 8.08 226.31 6.73 228.22 6.16 229.28 5.89 230.88 5.61 232.05 5.92 233.99 6.38 235.85 6.69 237.16 5.6 238.1 4.57 241.9 1.83 246.95 1 253.44 6.67 254.49 10.85 254.41 12.32 254.37 13.08 254.06 14.78 247.84 29.98 247.44 30.73 244.74 34.55 243.97 35.28 239.21 39.69 235.91 46.12 235.36 47.83 232.93 56.51 232.97 57.17 232.97 57.22 234.25 60.99 234.43 61.28 235.86 63.55 236.56 64.1 236.8 64.24 239.64 65.2 241.73 65.39 244.1 65.61 245.53 65.02 246.51 64.62 250.43 65.51 255.45 67.63 260.68 69.58 263.41 69.16 277.21 73.84 281.88 79.36 283.81 81.66 287.36 85.33 287.76 85.74 287.99 85.97 288.23 86.18 291.11 88.45 291.39 88.6 291.6 88.66 297 90.07 300.21 90.67 304.04 92.5 305.95 90.47 306.7 90.57 308.05 91 308.88 91.44 315.26 96.81 316.05 98.38 316.1 98.48 317.43 99.68 318.26 100.42 318.53 100.62 319.34 101.24 319.54 101.34 319.7 101.43 319.75 101.46 320.09 101.63 320.32 101.68 334.63 98.87 336.24 98.4 336.65 98.29 336.96 98.23 339.4 97.86 339.66 98.78 339.72 99.01 339.82 99.62 339.83 100.21 339.84 100.97 339.83 101.32 339.84 101.36 339.87 101.65 340 102.23 340.05 102.43 340.59 104.12 341.14 105.31 341.29 105.5 341.44 105.7 348.12 99.87 351.96 98.37 353.93 96.21 363.25 89.31 371.83 85.88 380.14 86.74 380.63 86.69 380.76 86.66 381 86.41 382.92 83.58 383.06 82.49 382.5 77.98 382.2 76.63 381.59 73.93 382.32 72.07 383.21 71.1 383.82 70.89 383.89 70.92 384.32 71.13 384.35 71.16 384.47 71.26 385.73 71.97 387.35 72.37 393.32 74.68 393.96 75.07 396.94 77.18 398.83 78.64 404.26 79.12 Z" id="광산구"/>
<path d="M 560.79 284.85 560.8 284.84 569.37 296.61 573.76 300.89 576.37 304.22 577.06 305.26 582.98 313.85 583.89 314.6 585.94 320.44 593.49 328.13 597.96 336.12 602.44 343.74 591.21 348.03 591.06 350.95 587.8 357.66 580.67 365.94 579.48 366.79 576.71 367.86 568.32 369.95 564.71 371.17 566.42 373.23 567.2 377.57 567.06 377.78 565.94 379.55 565.79 379.87 565.75 381.16 566.04 384.25 569.07 395.3 570.32 398.18 571.08 399.26 571.93 400.12 577.61 407.46 584.6 418.64 584.3 419.08 583.22 422.06 581.06 428.43 580.39 431.38 580.41 433.24 578.62 433.13 577.47 433.3 577.43 433.31 574.65 434 567.71 438.52 561.92 443.72 561.92 443.74 551.47 457.52 548.76 459.2 541.79 460.49 538.93 460.88 537.25 459.67 537.22 459.65 534.13 459.51 532.96 459.78 528.8 460.82 527.81 461.78 526.39 463.21 522.16 467.88 521.08 467.19 520.18 466.79 517.89 465.7 514.15 462.66 509.75 459.42 508.72 458.73 508.43 458.53 508.28 458.44 494.85 466.86 490.88 469.59 489 472.61 486.03 474.13 479.77 476.68 479.18 476.9 479.12 476.92 465.79 474.24 464.16 473.52 459.46 470.58 459.06 470.01 458.64 468.49 456.88 464.93 454.2 464.91 448.72 465.72 446.69 466.05 445.19 466.35 444.09 468.7 443.81 470.84 443.71 472.06 442 475.74 441.32 476.8 440.4 478.04 437.31 479.55 432.67 481.23 429.91 482.04 429.69 482.32 429.52 482.55 429.37 482.75 424.96 491.78 424.4 493.79 424.39 495.25 423.86 495.88 420.59 499.47 420.36 499.58 420.22 499.62 419.85 499.68 418.21 499.55 417.25 499.31 411.81 498.57 407.62 498.24 405.24 498.74 405.21 498.88 404.88 499.93 403.74 502.67 403.5 503.24 403.38 503.39 400.01 504.68 390.38 508.17 389.91 508.15 386.26 507.55 384.82 507.23 382.16 508.1 374.5 512.45 373.74 513 373.54 513.16 373.45 513.24 371.19 516.77 371.08 517.05 370.72 518.14 370.6 518.66 366.88 530.44 366.46 531.56 366.39 531.67 366.28 531.74 366.2 531.77 365.54 531.86 365.34 531.86 359.34 530.2 357.75 530.05 357.59 530.05 351.09 530.77 347.13 532.77 343.48 535.48 342.51 536 339.76 535.38 337.36 534.52 334.62 532.34 334.59 532.21 334.52 531.78 334.31 529.82 334.29 529.59 334.27 529.26 334.16 527.61 333.6 525.31 333.59 525.27 329.71 517.43 329.26 517 326.67 514.96 326.4 514.8 325.51 514.28 323.99 514.56 323.18 514.95 321.89 515.42 321.47 515.41 320.69 515.19 320.07 514.45 319.47 513.6 319.15 512.82 318.92 511.76 318.85 511.42 318.65 510.87 318.62 510.77 318.24 510.34 317.69 509.98 317.11 509.83 316.73 509.83 316.41 509.83 310.17 512.12 304.7 515.24 299.74 519.29 298.52 520.34 297.03 521.66 292.81 524.98 288.11 528.35 287.58 528.2 286.71 527.96 286.26 527.73 285.89 527.54 284.29 527.24 282.63 527.29 282.39 527.29 280.6 527.93 277.7 530.05 277.63 530.11 272.91 531.13 270.72 530.82 269.48 530.63 268.01 530.15 261.91 527.83 260.08 526.32 258.28 523.36 258.13 522.67 258.01 521.66 258.08 520.82 258.09 520.75 258.44 518.54 258.94 516.05 259.16 515.19 260.05 513.07 260.26 512.72 260.8 511.81 260.81 510.92 260.81 510.62 260.4 508.68 259.61 507.05 259.07 506.03 258.39 504.91 258.24 504.71 257.1 503.25 255.91 502.29 253.43 501.04 252.11 501.27 250.13 501.66 248.56 501.97 246.06 503.03 245.45 503.35 244.15 504.21 243 505.02 241.8 505.87 241.66 506.1 240.77 507.52 240.7 507.82 240.36 509.17 239.93 510.78 239.51 511.81 239.36 512.18 238.57 513.55 237.7 514.71 235.59 516.65 234.57 515.45 233.73 514.45 233.66 513.72 233.66 513.55 233.66 512.83 233.68 511.58 233.72 510.24 229.16 501.17 228.51 500.63 228.29 500.11 228.18 499.84 228.13 499.06 228.11 498.6 229.07 496.04 229.64 495.28 230.26 494.46 236.3 490.59 238.99 489.92 240.21 489.87 241.88 489.81 244.06 489.82 246.69 490.15 247.3 490.27 248.56 490.52 249.22 490.67 249.69 490.77 250.68 491 251.06 491.06 253.75 491.23 255.13 491.26 257.5 491.24 259.08 490.79 259.29 490.72 260.58 490.25 260.86 490.14 262.09 489.54 262.48 489.34 266.74 486.16 268.81 485.1 269.85 484.7 270.86 484.33 271.9 484.07 273.28 483.75 275.07 483.47 275.19 483.45 275.94 483.41 276.84 483.37 279.58 483.25 280.48 483.14 280.75 483.11 282.85 482.82 283.23 482.77 284.68 482.35 285.69 482.06 287.37 481.53 288.33 481.18 289.1 480.84 289.46 480.68 289.86 480.5 290.39 480.22 292.58 478.75 293.28 478.28 294.05 477.74 294.71 477.27 295.8 476.36 296.2 476.02 297.2 475.05 297.55 474.7 298 474.25 301.49 468.81 302.23 466.79 305.79 460.81 309.39 455.84 309.41 455.81 310.59 454.5 314.37 450.45 319.19 440.72 322.13 438.01 323.32 437.89 323.98 437.97 327.38 435.84 330.43 433.54 332.46 431.49 333.14 430.03 333.21 429.74 333.45 428.62 333.15 426.69 334.51 426.5 335.63 425.86 337.15 424.51 338.39 423.11 338.72 422.72 339.11 421.81 345.53 426.55 348.1 430.12 351.22 433.34 351.23 433.34 351.71 433.07 351.74 433.05 352.29 432.73 355.77 430.13 357.2 428.64 357.44 428.34 363.8 428.25 366.25 430.7 370.23 433.51 382.09 427.95 383.97 426.55 389.92 421.4 391.73 419.16 393.02 416.71 393.39 416.34 394.28 415.51 394.33 415.46 397.13 415.61 398.62 415.85 398.89 415.9 398.95 415.91 399.82 415.9 400.31 415.9 402.23 415.61 402.29 415.57 403.74 414.87 405.28 413.89 405.31 413.86 405.82 412.42 406.63 409.45 409.01 405.25 411.48 406.94 414.83 407.77 417.12 406.01 417.68 405.27 420.49 401.47 426.89 396.96 428.98 395.7 430.75 395.64 431.62 396.31 432.88 396.31 433.31 396.32 441.19 394.26 443.54 393.12 443.93 392.56 444.98 392.17 446.3 392.55 446.44 392.71 446.96 393.34 447.17 393.65 447.38 393.96 447.51 394.15 456.27 394.4 457.03 393.36 457.71 392.06 457.62 391.46 457.56 391.24 456.77 390.04 454.96 389.68 454.46 389.58 453.88 389.33 454.37 388.72 455.06 387.99 455.34 387.71 455.42 387.65 455.9 387.39 456.17 387.26 461.7 386.12 461.87 386.29 462.77 387.23 463.25 387.29 463.94 387.28 466.57 386.67 467.1 385.36 467.62 383.79 467.7 383.54 471.99 384.69 473.19 384.98 477.3 384.59 477.34 384.58 477.33 384.57 476.43 383.04 475.94 382.7 473.82 380.59 473.75 380.52 471.99 377.39 471.99 377.28 473.99 375.62 475.54 374.83 476.54 373.24 478.44 368.65 483.91 360.98 485.89 360.09 490.94 363.53 493.5 365.37 499.69 367.86 504.68 369.41 506.96 367.82 509.47 366.91 509.66 366.93 511.09 367.12 513.6 367.53 515.39 356.32 515.05 350.4 514.17 345.83 513.1 344.75 513.03 344.67 512.53 342.45 511.11 333.74 511.6 333.09 513.7 328.97 513.61 323.8 513.27 322.83 513.19 322.63 509.76 316.87 506.94 314.45 506.48 314.33 505.66 314.23 505.42 314.29 504.48 312.29 504.63 311.14 504.64 311.06 509.63 305.17 509.97 304.97 514.34 302.88 513.57 298.12 510.26 292.78 509.36 291.26 511.5 289.94 517.01 286.54 519.5 285 526.23 281.3 528.75 280.29 528.21 278.81 532.82 277.01 542.55 276.63 546.21 282.94 546.47 283.31 547.04 284.02 547.14 284.13 547.3 284.31 547.48 284.5 547.84 284.89 548.04 285.05 548.36 285.31 548.96 285.73 549.17 285.86 549.91 286.27 551.53 287.13 560.79 284.85 Z" id="남구"/>
<path d="M 760.31 358.18 759.61 361.83 751.49 369.49 750.41 370.37 748.83 371.58 748.53 371.81 748.42 371.89 748.98 373.03 751.03 376.29 746.51 378.98 739.3 382.15 736.8 382.93 733.8 383.67 728.29 386.91 722.2 396.99 725.18 411.03 727.11 419.96 727.32 420.8 727.52 422.25 727.59 423.35 727.56 425.15 727.56 425.21 724.8 427.86 707.77 433.12 706.28 433.37 705.94 433.43 705.9 433.44 691.99 436.57 680.01 439.37 672.65 444.62 670.48 446.97 667.55 450.3 663.18 456.77 663.17 456.81 663.1 457.08 663.07 457.97 663.27 458.52 662.48 466.78 655.42 476.65 653.11 478.55 650.2 480.26 648.83 480.96 645.73 481.64 643.68 482.03 638.82 482.17 637.95 482.07 637.02 481.6 635.4 481.03 634.96 480.87 631.72 479.94 621.73 478.45 617.74 477.98 611.5 477.42 607.77 477.45 607.52 474.11 607.49 472.45 602.78 465.7 601.13 464.55 597.74 461.93 594.39 456.89 592.14 448.45 591.46 442.46 586.34 435.81 583.85 433.48 582.86 432.91 580.41 433.24 580.39 431.38 581.06 428.43 583.22 422.06 584.3 419.08 584.6 418.64 577.61 407.46 571.93 400.12 571.08 399.26 570.32 398.18 569.07 395.3 566.04 384.25 565.75 381.16 565.79 379.87 565.94 379.55 567.06 377.78 567.2 377.57 566.42 373.23 564.71 371.17 568.32 369.95 576.71 367.86 579.48 366.79 580.67 365.94 587.8 357.66 591.06 350.95 591.21 348.03 602.44 343.74 597.96 336.12 593.49 328.13 585.94 320.44 583.89 314.6 582.98 313.85 577.06 305.26 576.37 304.22 573.76 300.89 569.37 296.61 560.8 284.84 560.79 284.85 555.38 279.01 559.92 274.71 563.95 270.85 566.83 268.09 567.78 264.69 567.78 264.67 574.97 243 581.88 244.92 581.89 244.93 585.33 245.93 587.31 246.51 587.57 246.59 588.47 246.85 590.93 247.7 591.12 247.77 599.95 250.85 600.02 250.87 600.05 250.88 600.29 251.01 600.64 251.19 601 251.37 601.59 251.73 602.18 252.16 602.95 252.83 603.3 253.19 603.77 253.75 604.21 254.36 605.31 256.59 606.99 256.11 614.63 253.07 615.49 252.76 616.67 252.77 618.32 252.77 622.56 252.8 622.56 253.03 622.56 254.41 622.56 256.51 621.67 257.44 621.59 257.96 621.49 258.97 621.49 258.99 622.51 259.88 624.76 261.04 624.8 261.05 625.34 261.18 627.96 261.18 634.17 260.75 636.92 268.79 641.37 271.88 644.48 271.99 648.92 272.65 657.01 277.67 657.35 278.24 657.68 279.22 657.83 279.68 657.85 279.75 657.85 279.81 657.88 280.97 653.81 294.33 653.05 295.78 652.39 296.2 649.5 297.47 649.02 297.4 648.81 297.34 649.11 299.62 649.32 300.65 656.89 307.64 656.91 307.66 661.77 308.72 662.5 308.8 662.67 308.82 662.71 308.75 663.1 308.08 663.16 307.98 663.79 307.63 664.22 307.41 668.98 307.94 670.88 308.25 673.46 309.46 677.4 311.75 678.55 312.45 679.86 313.91 683.31 317.08 683.86 317.35 684.72 317.58 689.67 318 689.96 318.01 690.18 318.01 695.99 314.46 705.27 313.31 712.44 315.02 714.28 315.54 716.57 317.11 720.12 323.96 720.71 325.25 723.68 331.89 725.47 337.51 725.57 339.63 725.78 339.84 727.71 341.81 728.54 342.37 728.64 342.44 729.4 343.2 731.69 346.52 734.09 350.14 735.67 354.07 739.41 352.93 741.14 352.46 745.27 353.37 753.86 356.28 760.31 358.18 Z" id="동구"/>
<path d="M 760.31 358.18 753.86 356.28 745.27 353.37 741.14 352.46 739.41 352.93 735.67 354.07 734.09 350.14 731.69 346.52 729.4 343.2 728.64 342.44 728.54 342.37 727.71 341.81 725.78 339.84 725.57 339.63 725.47 337.51 723.68 331.89 720.71 325.25 720.12 323.96 716.57 317.11 714.28 315.54 712.44 315.02 705.27 313.31 695.99 314.46 690.18 318.01 689.96 318.01 689.67 318 684.72 317.58 683.86 317.35 683.31 317.08 679.86 313.91 678.55 312.45 677.4 311.75 673.46 309.46 670.88 308.25 668.98 307.94 664.22 307.41 663.79 307.63 663.16 307.98 663.1 308.08 662.71 308.75 662.67 308.82 662.5 308.8 661.77 308.72 656.91 307.66 656.89 307.64 649.32 300.65 649.11 299.62 648.81 297.34 649.02 297.4 649.5 297.47 652.39 296.2 653.05 295.78 653.81 294.33 657.88 280.97 657.85 279.81 657.85 279.75 657.83 279.68 657.68 279.22 657.35 278.24 657.01 277.67 648.92 272.65 644.48 271.99 641.37 271.88 636.92 268.79 634.17 260.75 627.96 261.18 625.34 261.18 624.8 261.05 624.76 261.04 622.51 259.88 621.49 258.99 621.49 258.97 621.59 257.96 621.67 257.44 622.56 256.51 622.56 254.41 622.56 253.03 622.56 252.8 618.32 252.77 616.67 252.77 615.49 252.76 614.63 253.07 606.99 256.11 605.31 256.59 604.21 254.36 603.77 253.75 603.3 253.19 602.95 252.83 602.18 252.16 601.59 251.73 601 251.37 600.64 251.19 600.29 251.01 600.05 250.88 600.02 250.87 599.95 250.85 591.12 247.77 590.93 247.7 588.47 246.85 587.57 246.59 587.31 246.51 585.33 245.93 581.89 244.93 581.88 244.92 574.97 243 567.78 264.67 567.78 264.69 566.83 268.09 563.95 270.85 559.92 274.71 555.38 279.01 546 270.55 541.94 265.76 541.19 264.9 541.22 264.86 540.9 264.51 540.6 264.23 540.26 263.93 539.44 263.2 539.39 263.16 539.14 262.94 538.62 262.5 537.76 261.79 537.02 261.29 536.86 261.18 536.57 260.99 526.92 255.84 525.16 254.96 524.11 254.82 520.43 254.84 515.99 253.08 514.58 253.15 513.6 250.73 509.75 240.22 506.74 234.8 507.07 231.69 496.17 228.53 489.01 229.44 489.09 227.35 477.72 226.42 462.1 225.3 458.7 225.05 457.58 224.97 456.92 224.88 455.74 224.71 455.48 224.64 452.44 223.81 441.27 220.57 430.63 217.47 430.46 217.43 429.65 217.2 420.04 214.55 414.77 208.56 411.17 208.69 416.77 200.03 416.85 199.93 424.01 199.08 424.16 199.33 424.89 200.66 425.35 201.53 425.77 202.31 426.19 203.1 426.71 204.01 426.79 204.11 427.6 205.1 428.79 205.8 428.92 205.87 433.62 205.95 435.54 205.76 436.85 205.33 437.25 204.73 437.86 203.75 438.09 201.79 439.16 200.23 440.55 199.13 441.15 198.93 441.95 198.66 443.69 198.73 445.06 199.23 446.5 199.65 447.45 199.72 447.61 199.73 447.81 199.74 450.07 199.01 451.61 198.06 452.16 197.71 453.49 196.8 457.11 190.32 457 188.73 455.51 175.04 455.01 170.17 455 170.16 454.76 169.41 454.74 169.33 454.11 167.83 453.73 167.27 453.58 167.05 453.12 166.58 450.71 165.28 446.81 163.45 446.01 163.36 444.9 163.51 443.76 163.32 442.81 162.93 442.65 162.86 442.29 162.7 441.92 162.49 441.66 162.34 441.18 162.06 439.98 160.92 439.91 160.74 439.81 160.46 439.5 157.72 441.94 156.38 442.37 156.17 442.49 156.11 442.98 155.89 444.25 154.81 444.27 154.78 445.46 153.22 446.17 151.8 446.18 151.78 446.19 151.73 446.35 151.1 446.36 151.05 446.64 149.92 446.64 148.46 446.29 139.18 446.28 139.09 446.23 138.53 446.15 138.01 446.02 137.29 445.96 137.02 445.78 136.12 445.68 135.66 445.52 134.93 445.1 133.18 444.97 132.72 444.9 132.51 444.74 132.09 444.51 131.49 444.15 130.54 443.33 129.16 442.64 128.24 442.18 118.31 449.35 109.45 450.08 108.87 450.26 108.73 450.47 108.45 449.71 108.06 449.32 107.89 448.87 107.71 448.52 107.6 448.25 107.52 447.97 107.45 447.7 107.39 447.42 107.33 447.14 107.29 446.86 107.25 446.58 107.22 446.29 107.21 446.01 107.2 442.1 102.97 442.18 96.95 441.31 96.94 436.92 96.88 432.69 96.83 428.45 96.78 427.7 96.77 427.53 96.61 427.55 95.33 427.55 95.21 427.55 94.95 427.54 94.84 427.54 94.8 427.53 94.7 427.51 94.44 427.47 94.19 427.43 93.94 427.38 93.69 427.32 93.44 427.25 93.19 427.17 92.95 427.09 92.71 427.04 92.59 424.67 86.65 419.54 88.69 419.14 88.84 418.75 88.99 418.35 89.13 417.94 89.27 415.09 90.21 412.17 91.16 410.84 91.6 410.79 91.62 410.52 91.47 410.24 90.81 409.92 90.02 406.15 82.7 404.26 79.12 403.87 78.43 403.88 78.26 403.93 78.05 404.27 77.27 404.57 76.6 404.64 76.48 404.81 76.22 404.89 76.16 404.9 76.15 408.11 76.07 408.95 76.07 414.05 71.12 414.06 70.76 415.48 65.81 416.48 64.78 416.53 64.74 423.95 58.1 428.96 57.09 430.23 57.53 430.34 57.82 430.59 58.41 431.9 61.37 432.51 61.06 434.35 59.98 436.39 57.75 438.3 55.69 439.33 54.82 442.85 53.92 442.95 53.9 443.52 53.95 444.57 54.42 444.6 54.45 446.22 54.28 447.13 54.14 448.5 53.89 455.91 50.56 457.21 49.7 457.25 49.65 457.65 49.19 459.52 46.67 459.58 46.51 459.72 45.44 459.72 45.19 459.72 44.69 459.71 43.89 459.64 43.73 459.6 43.7 459.58 43.68 459.51 43.63 459.47 43.45 459.46 43.42 459.47 43.17 459.58 42.34 459.82 41.28 459.94 40.86 460.09 40.46 460.14 40.32 460.28 40.03 460.56 39.7 462.84 37.12 464.48 35.91 465.52 35.7 471.57 34.8 473.38 34.9 473.97 34.91 475.66 34.93 476.56 34.81 476.62 34.77 477.33 34.36 480.19 32.05 481.21 31.18 483.75 28.48 483.77 28.45 489.95 24.63 496.77 21.68 498.69 21.2 496.71 26.46 496.68 26.76 496.64 27.44 496.72 27.96 497.06 29.19 497.17 29.41 497.62 29.91 497.85 30.15 499.4 30.93 499.82 31.15 500.16 31.31 512.84 34.92 513.09 34.94 514.45 34.8 514.85 34.75 517.69 33.62 520.21 32.18 520.83 30.75 522.68 26.72 523.61 25.6 523.63 25.58 525.69 24.24 527.02 23.48 535.47 18.97 536.49 18.67 537.35 18.42 538.29 18.06 539.11 17.75 542.19 15.55 543.92 13.51 544.89 12.21 545.91 10.86 546.37 10.1 546.53 9.83 547.74 8.03 547.8 7.95 549.15 6.34 550.49 5.39 550.54 5.35 552.05 4.64 552.09 4.63 553.45 4.25 561.8 3.78 564.44 3.76 565.38 3.75 572.76 4.44 574.09 7.06 586.28 16.91 587.02 17.35 587.34 17.46 589.27 17.99 598.7 19.92 601.66 20.25 601.87 20.13 603.84 19.53 607.78 23.68 610.34 27.68 610.9 28.66 610.92 28.7 612.66 32.54 612.99 33.68 613.04 33.98 613.05 34.09 612.53 40.01 611.22 43.76 610.74 46.45 610.56 47.5 615.32 53.99 618.31 54.55 622.77 57.17 624.62 58.41 625.28 58.87 628.82 61.7 631.83 64.51 632.33 67.17 633.44 72.89 634.1 73.43 634.82 74.01 636.09 75.02 636.13 75.02 636.35 75.02 639.27 75.03 641.96 75.43 644.52 79.59 650.89 91.38 648.41 94.8 647.92 95.41 646.52 97.31 646.25 97.82 645.63 99.01 645.38 99.51 644.75 100.83 644.67 101.55 644.59 102.35 644.52 103.07 644.6 105.52 647.46 112.36 650.58 116.62 655.36 123.8 659.74 132.02 668.66 142.05 670.07 143.36 673.5 145.51 674.06 145.8 674.38 145.94 674.47 145.95 676.06 145.98 676.29 145.99 677.1 146.01 677.99 145.36 678.09 145.35 678.63 145.32 678.72 145.31 679.37 145.95 679.52 146.16 680.69 149.69 681.05 152.07 681.05 152.1 680.88 152.46 680.79 152.67 679.94 153.42 678.38 154.13 677.3 154.13 673.03 160.12 671.4 163.52 668.67 167.69 666.84 168.38 666.09 168.96 664.82 172.23 664.77 172.5 665.98 177.13 666.23 177.88 666.69 179.15 666.9 179.48 667.52 180.38 677.73 193.3 679.54 194.56 680.36 195.06 681.03 195.24 682.56 199.82 683.01 200.69 683.02 200.72 683.51 201.52 684.73 203.34 685.19 203.74 686.34 204.66 689.94 206.36 692.21 206.74 692.55 204.96 693.76 197.21 693.82 195.95 693.82 195.88 693.7 195.08 693.44 194.64 693.18 193.59 693.67 192.83 695.01 191.72 697.11 190.57 703.41 191.42 706.57 192.3 708.96 194.84 709.84 195.4 714.02 196.34 715.66 196.11 715.71 196.08 716 195.82 716.12 195.71 716.74 195.08 719.87 190.83 719.05 189.36 718.07 188.32 720.42 185.95 721.44 184.95 722.15 184.27 725.1 183.68 726.41 184.78 726.68 185.11 726.72 185.2 726.98 185.75 727.46 186.47 728.75 188.22 729.43 188.6 729.89 188.87 731.17 189.46 732.25 189.88 733.33 190.1 736.5 190.04 737.14 190 737.62 189.91 739.41 188.91 739.63 188.79 739.9 188.65 740.98 187.04 741.28 186.52 741.75 185.96 743.28 184.59 743.28 184.58 743.31 184.56 743.86 184.11 744.38 183.7 745.13 183.43 745.16 183.43 745.99 183.37 748.26 183.46 752.08 183.95 753.02 184.46 753.52 184.72 766.89 193.26 768.51 194.92 776.95 204.23 786.32 218.91 787.27 219.98 788.1 220.89 788.42 221.2 791.11 223.04 796.05 224.44 797.21 224.76 799 229.09 798.36 231.37 795.98 239.63 787.38 244.54 787.31 244.53 784.28 244 783.09 243.8 782.92 243.71 782.02 243.24 781.51 242.96 781.19 242.69 781.09 242.61 778.3 242.16 777.95 242.18 775.86 242.33 775.3 243.19 772.95 248.72 773.6 252.21 773.79 252.45 775.16 253.71 776.58 254.82 776.01 257.69 775.27 260.95 775.15 261.22 772.83 264.7 770.17 267.4 768.3 268.51 768.09 268.64 768.86 274.39 769.53 277.91 767.96 291.4 767.84 292.09 766.75 299.65 770.34 309.79 770.11 323.54 770.05 325.02 769.86 325.71 769.79 326.36 770.21 328.62 770.33 329.13 770.77 330.76 771.14 331.76 771.77 333.32 772.86 335.18 773.47 335.94 774.7 337.61 776.38 341 776.05 343.31 775.79 345 775.22 346.81 773.75 350 771.44 350.56 770.63 350.62 767.95 350.81 760.98 356.5 760.4 357.71 760.31 358.18 Z" id="북구"/>
<path d="M 555.38 279.01 560.79 284.85 551.53 287.13 549.91 286.27 549.17 285.86 548.96 285.73 548.36 285.31 548.04 285.05 547.84 284.89 547.48 284.5 547.3 284.31 547.14 284.13 547.04 284.02 546.47 283.31 546.21 282.94 542.55 276.63 532.82 277.01 528.21 278.81 528.75 280.29 526.23 281.3 519.5 285 517.01 286.54 511.5 289.94 509.36 291.26 510.26 292.78 513.57 298.12 514.34 302.88 509.97 304.97 509.63 305.17 504.64 311.06 504.63 311.14 504.48 312.29 505.42 314.29 505.66 314.23 506.48 314.33 506.94 314.45 509.76 316.87 513.19 322.63 513.27 322.83 513.61 323.8 513.7 328.97 511.6 333.09 511.11 333.74 512.53 342.45 513.03 344.67 513.1 344.75 514.17 345.83 515.05 350.4 515.39 356.32 513.6 367.53 511.09 367.12 509.66 366.93 509.47 366.91 506.96 367.82 504.68 369.41 499.69 367.86 493.5 365.37 490.94 363.53 485.89 360.09 483.91 360.98 478.44 368.65 476.54 373.24 475.54 374.83 473.99 375.62 471.99 377.28 471.99 377.39 473.75 380.52 473.82 380.59 475.94 382.7 476.43 383.04 477.33 384.57 477.34 384.58 477.3 384.59 473.19 384.98 471.99 384.69 467.7 383.54 467.62 383.79 467.1 385.36 466.57 386.67 463.94 387.28 463.25 387.29 462.77 387.23 461.87 386.29 461.7 386.12 456.17 387.26 455.9 387.39 455.42 387.65 455.34 387.71 455.06 387.99 454.37 388.72 453.88 389.33 454.46 389.58 454.96 389.68 456.77 390.04 457.56 391.24 457.62 391.46 457.71 392.06 457.03 393.36 456.27 394.4 447.51 394.15 447.38 393.96 447.17 393.65 446.96 393.34 446.44 392.71 446.3 392.55 444.98 392.17 443.93 392.56 443.54 393.12 441.19 394.26 433.31 396.32 432.88 396.31 431.62 396.31 430.75 395.64 428.98 395.7 426.89 396.96 420.49 401.47 417.68 405.27 417.12 406.01 414.83 407.77 411.48 406.94 409.01 405.25 406.63 409.45 405.82 412.42 405.31 413.86 405.28 413.89 403.74 414.87 402.29 415.57 402.23 415.61 400.31 415.9 399.82 415.9 398.95 415.91 398.89 415.9 398.62 415.85 397.13 415.61 394.33 415.46 394.28 415.51 393.39 416.34 393.02 416.71 391.73 419.16 389.92 421.4 383.97 426.55 382.09 427.95 370.23 433.51 366.25 430.7 363.8 428.25 357.44 428.34 357.2 428.64 355.77 430.13 352.29 432.73 351.74 433.05 351.71 433.07 351.23 433.34 351.22 433.34 348.1 430.12 345.53 426.55 339.11 421.81 338.72 422.72 338.39 423.11 337.15 424.51 335.63 425.86 334.51 426.5 333.15 426.69 330.16 420.02 329.55 418.54 329.5 418.41 329.19 416.86 329.3 413.27 329.89 407.59 331.37 405.51 335.13 402.69 340.31 399.95 338.76 395.94 338.48 395.03 334.44 381.6 334.39 381.37 334.16 380.34 334.07 378.37 336.33 377.25 336.92 377.66 340.41 379.28 340.67 379.33 341.02 379.3 347.59 378.27 348.03 377.52 348.49 375.28 348.56 374.7 348.54 374.5 348.43 374.14 348.41 374.08 348.3 373.92 348.24 373.86 348.19 371.58 348.22 371.03 348.33 370.09 348.43 369.36 348.77 367.99 349.01 367.4 349.12 367.19 349.25 367.04 356.63 366.34 363.91 362.46 363.92 361.38 364.13 356.78 364.74 354.89 365.69 353.36 365.7 353.33 366.57 352.28 366.7 352.12 367.67 351.14 368.36 350.65 368.89 350.3 369.72 349.77 370.43 349.36 370.66 349.23 370.96 349.07 371.04 349.02 371.1 348.99 371.54 348.74 372.81 347.73 372.81 347.71 373.16 347.07 373.86 345.75 375.02 342.87 375.31 342.02 375.4 341.74 375.44 341.61 375.13 340.77 375.02 340.47 374.02 338.57 372.64 337.22 371.8 336.7 371.56 336.55 370.26 335.72 369.36 334.77 368.69 333.58 368.41 332.82 368.14 331.59 368.01 330.27 367.98 329.98 368.07 328.97 368.1 328.61 368.15 328.31 368.38 327.08 368.4 326.99 368.7 325.73 368.85 325.43 369.1 324.96 369.6 324.31 370.33 323.47 371.45 322.59 372.15 322.03 373.93 321.04 375.67 320.25 375.71 320.24 376.89 320.03 378.73 319.58 378.8 319.52 379.83 318.56 385.66 311.76 388.97 307.82 390.9 305.28 390.92 305.23 391.36 303.89 391.45 303.61 390.64 288.97 390.38 285.23 390.16 284.12 389.96 283.64 389.77 283.46 389.25 281.62 389.13 281.2 388.99 280.78 388.38 279.8 386.1 276.7 384.08 274.6 382.32 272.25 382.29 271.21 382.27 270.59 382.25 270 382.29 261.46 383.23 259.45 384.17 254.74 383.85 253.97 383.06 253 383.05 253 382.74 252.76 382.28 252.38 381.16 250.18 380.82 248.88 380.83 244.03 380.93 243.72 381.45 242.58 381.64 242.16 382.23 240.89 385.42 237.78 386.12 237.12 388.17 235.34 393.16 232.51 394.84 231.68 397.93 230.74 398.15 230.68 398.47 230.58 398.95 230.58 401 230.61 401.08 230.6 405.6 230.11 405.61 230.11 406.58 229.55 407.11 229.22 407.86 228.59 408.2 228.3 408.66 227.26 408.74 226.5 408.48 224.8 408.25 223.94 408.23 223.52 408.22 223.03 408.26 222.47 408.97 213.2 409.41 212.09 409.62 211.59 411.17 208.69 414.77 208.56 420.04 214.55 429.65 217.2 430.46 217.43 430.63 217.47 441.27 220.57 452.44 223.81 455.48 224.64 455.74 224.71 456.92 224.88 457.58 224.97 458.7 225.05 462.1 225.3 477.72 226.42 489.09 227.35 489.01 229.44 496.17 228.53 507.07 231.69 506.74 234.8 509.75 240.22 513.6 250.73 514.58 253.15 515.99 253.08 520.43 254.84 524.11 254.82 525.16 254.96 526.92 255.84 536.57 260.99 536.86 261.18 537.02 261.29 537.76 261.79 538.62 262.5 539.14 262.94 539.39 263.16 539.44 263.2 540.26 263.93 540.6 264.23 540.9 264.51 541.22 264.86 541.19 264.9 541.94 265.76 546 270.55 555.38 279.01 Z" id="서구"/>
</g>
</svg>