<?xml version="1.0"?>
<svg xmlns="http://www.w3.org/2000/svg" version="1.2" baseProfile="tiny" width="800" height="993" viewBox="0 0 800 993" stroke-linecap="round" stroke-linejoin="round">
<g id="대구광역시_시군구_경계">
<path d="M 500.32 390.6 501.09 392.14 501.2 392.78 501.27 393.15 501.34 393.51 501.37 393.71 501.37 393.86 501.39 394.5 501.39 394.74 501.38 395.73 501.37 396.52 501.37 396.59 500.36 404.38 500.15 415.03 499.3 419.2 499.26 419.47 499.14 420.35 499.15 421.84 499.18 422.34 499.22 422.91 499.18 423.42 499.17 423.61 499.14 424.09 498.97 426.03 498.94 426.39 498.9 426.6 498.7 427.56 498.43 428.13 498.17 428.55 497.01 429.74 495.78 437.63 496.7 444.52 496.88 445.5 498.19 449.86 499.65 455.34 499.8 457.43 498.2 457.34 496.8 457.28 495.56 457.36 494.52 458.22 493.9 461.74 493.22 465.92 493 468.27 486.45 485 484.82 487.2 481.58 488.42 479.56 489.1 479.24 489.2 478.33 489.49 474.03 491.4 470.2 495.83 468.62 500.65 461.45 504.58 454.36 505.8 453.68 505.42 452.71 501.06 450.38 496.05 449.27 494.23 445.89 494.95 444.79 494.3 440.85 489.35 437.57 484.18 427.81 476.73 428.38 473.73 428.22 471.3 428.16 470.43 427.19 468.59 424.91 465 423.43 463.5 420.89 467 413.3 465.34 412.68 465.07 411.01 462.21 409.01 457.78 408.79 457.28 408.23 455.9 408.15 455.61 408.53 455.53 408.2 454.34 406.9 451.51 406.05 450.02 402.65 444.58 401.6 443.44 401.25 443.16 401 442.96 400.87 442.86 399.99 442.26 399.71 442.07 397.51 441 401.79 433.17 401.36 433.22 407.94 422.52 409.03 420.73 409.24 420.39 409.7 419.63 409.98 419.18 410.2 418.91 410.26 418.84 413.18 415.92 413.57 415.53 414.11 415 414.18 414.93 415.19 413.94 416 413.15 427.52 404.27 429.16 403.02 432.07 400.83 432.51 400.22 433.94 378.93 434.16 379.05 450.48 387.71 453.16 387.4 460.13 386.58 473.59 386.9 473.77 386.92 476.26 387.24 480.29 389.34 485.18 389.68 488.06 389.87 489.49 389.92 500.32 390.6 Z" id="남구"/>
<path d="M 255.51 487.84 255.51 487.89 255.48 487.87 255.51 487.84 Z M 255.51 487.84 255.58 486.88 255.88 482.46 255.91 481.9 255.97 479.72 256.06 475.89 256.07 474.37 256.02 473.48 255.82 469.89 255.61 468.2 255.43 466.67 254.76 462.69 253.87 460.1 253.77 459.78 252.73 456.11 251.96 452.79 240.56 448.06 238.78 447.32 238.34 447.14 236.43 445.63 235.64 444.99 235.17 444.61 227.51 433.01 227.85 430.29 228.79 424.89 229.23 422.84 230.39 418.75 231.41 415.19 231.86 412.65 232.13 410.28 233.28 399.77 233.8 394.66 234.37 391.8 235.53 385.9 237.47 385.62 240.19 382.93 241.61 380.72 242.38 377.49 242.41 377.37 242.7 376.6 242.82 376.29 248.09 366.23 248.53 365.7 252.34 361.1 254.9 362.41 256.31 362.2 256.39 362.19 257.54 361.95 258.74 361.68 260.7 361.43 260.97 361.41 262.12 361.43 262.96 361.79 263.22 361.9 264.06 362.46 264.13 362.53 269.25 365.91 275.19 369.63 278.11 369.64 284.88 370.84 285.04 370.88 287.95 371.79 289.28 372.36 290.26 372.42 290.28 372.42 290.51 372.18 291.81 370.81 292.29 369.92 292.24 369.05 295 366.86 301 366 303 366.33 303.32 366.18 304.12 365.45 304.39 364.89 304.61 364.44 305.86 361.79 306.12 359.6 306.35 358.13 306.49 357.45 312.09 360.9 318.98 361.71 325.45 357.61 330.94 362.56 333.35 362.4 333.85 362.47 336.64 363.03 341.73 368.4 342.33 369.12 340.02 372.39 340.08 372.65 341.73 375.73 341.79 375.77 342.21 376.12 344.35 376.17 345.45 376.2 347.58 376.23 348.29 376.24 349.25 376.24 349.55 376.24 352.52 376.17 353.95 378.83 353.39 382.95 366.48 382.89 367.19 387.03 370.54 388.63 373.66 389.89 373.68 389.89 376.52 389.16 382.42 392.99 382.5 393.34 393.99 387.77 400.61 384.64 402.76 383.7 402.98 383.62 403.31 383.49 418.88 377.54 420.91 376.99 433.33 372.85 433.74 376.26 433.94 378.93 432.51 400.22 432.07 400.83 429.16 403.02 427.52 404.27 416 413.15 415.19 413.94 414.18 414.93 414.11 415 413.57 415.53 413.18 415.92 410.26 418.84 410.2 418.91 409.98 419.18 409.7 419.63 409.24 420.39 409.03 420.73 407.94 422.52 401.36 433.22 401.79 433.17 397.51 441 399.71 442.07 399.99 442.26 400.87 442.86 401 442.96 401.25 443.16 401.6 443.44 402.65 444.58 406.05 450.02 406.9 451.51 408.2 454.34 408.53 455.53 408.15 455.61 408.23 455.9 408.79 457.28 409.01 457.78 411.01 462.21 412.68 465.07 413.3 465.34 420.89 467 423.43 463.5 424.91 465 427.19 468.59 428.16 470.43 428.22 471.3 428.38 473.73 427.81 476.73 437.57 484.18 440.85 489.35 444.79 494.3 445.89 494.95 449.27 494.23 450.38 496.05 452.71 501.06 453.68 505.42 454.36 505.8 461.45 504.58 459.24 510.96 458.52 512.24 457.05 516.13 457.72 518.39 458.95 520.78 458.86 521.46 458.72 522.64 458.64 523.24 457.4 524.72 456.66 525.6 448.21 527.87 447.01 529.56 445 531.44 443.62 532.4 439.53 533.05 436.59 532.83 433.13 531.69 431.21 530.88 425.6 529.67 421.49 534.76 420.99 535.39 420.97 535.43 423.57 542.3 424.55 547.14 425.8 556.23 425.68 563.52 425.75 564.54 426.82 566.75 427.68 568.42 427.85 571.7 418.11 584.62 417.76 584.91 415.14 586.34 413.81 585.76 412.89 585.36 411.63 585.28 407.04 586.07 404.97 586.88 403.48 587.92 402.84 588.37 402.66 588.5 400.39 588.63 397.1 588.75 397 588.6 396.67 588.07 396.19 585.48 394.82 577.76 392.19 573.52 391.52 573.35 388.44 572.55 386.02 571.08 385.23 570.06 381.79 564.3 381.53 563.77 381.25 563.15 381.01 562.38 380.16 559.39 377.28 556.62 375 555.65 372.23 553.83 371.22 552.46 371.12 550.64 371.02 548.42 368.71 552.22 364.45 555.47 362.72 555.93 360.71 556.02 355.05 556.26 350.14 554.58 346.43 552.75 345.04 547.11 343.97 541.97 343.45 541.27 343.04 541.27 340.84 541.26 334.56 539.13 326.3 531.02 325.38 530.03 324.74 529.32 323.81 528.25 322.32 525.94 319.93 520.28 318.52 515.81 318.02 510.63 317.47 510.66 316.18 510.74 314.47 511.05 314.43 511.07 310.95 511.21 306.04 510.9 305.02 509.79 306.03 505.83 306.32 505.54 306.77 505.34 307.09 505.2 307.61 505.05 307.7 505.02 307.8 504.99 309.78 504.16 311.31 503.49 311.61 503.36 315.68 500.8 314.19 497.89 311.6 496.3 311.09 496.03 309.43 495.21 308.07 494.63 307.4 494.52 302.73 491.07 301.38 488.89 294.54 484.33 293.91 483.92 292.7 483.21 292.49 483.08 292.34 483.01 291.73 482.7 290.57 482.15 289.35 481.65 286.15 480.75 278.41 479.01 274.81 478.29 269.74 476.89 262.99 481.76 257.72 485.94 255.51 487.84 Z" fill-rule="evenodd" id="달서구"/>
<path d="M 461.45 504.58 468.62 500.65 470.34 501.26 479.73 506.63 480.6 508.41 486.6 508.12 488.28 507.78 490.08 507.55 491.98 508.09 492.21 508.16 494.59 508.96 502.67 511.22 517.54 513.77 526.73 508.37 530.59 508.13 535.02 509.36 535.91 509.62 536.98 510.05 537.34 510.28 537.77 510.57 539.89 513.02 541.9 515.31 542.54 515.98 546.19 514.41 546.19 514.4 547.42 513.75 550.66 513.26 553.04 513.1 559.29 513.42 564.35 515.01 565.6 516.34 569.11 516.69 573.03 516.39 576.78 515.74 582.48 514.57 585.91 514.8 587.15 520.1 588.38 521.99 590.31 523.32 596.57 524.87 604.2 524.91 605.42 524.94 608.03 525.19 611.88 526.34 619.69 528.76 620.59 530 621.02 530.63 628.13 532.46 632.36 532.66 635.74 535.92 639.77 537.69 645.1 542.97 647.38 544.58 645.35 554.86 645.37 556.88 645.51 558.01 645.72 559.43 646.26 561.37 646.32 561.57 648.58 566.53 650.52 569.93 652.48 573.11 653.6 573.55 654.07 573.62 654.62 573.55 655.5 575.04 656.59 579.15 657.02 583.66 656.8 585.17 656.77 585.33 656.62 585.98 655.63 588.25 654.96 589.93 655.06 593.47 655.54 595.94 655.75 596.41 656.51 597.06 656.94 597.36 656.95 597.35 657.06 597.24 660 597.57 660.84 598.6 661.55 599.69 665.38 606.47 665.64 607.3 665.71 608.8 665.73 609.46 665.75 610.2 668.01 618.5 669.24 619.42 671.23 621.18 672.44 622.65 672.85 623.25 673.26 624.21 673.82 626.92 673.03 627.96 672.38 628.51 672.28 628.9 671.62 631.93 671.56 636.3 671.4 639.43 671.25 640.96 670.68 642.57 670.38 643.24 669.72 643.68 668.85 644.25 668.7 644.35 668.11 648.71 668.72 651.69 670.59 656.02 667.59 659.33 663.77 663.2 662.12 664.44 661.82 665.45 661.78 669.44 664.16 672.07 666.36 674.09 667.48 676.13 667.64 681.03 666.06 685.66 665.68 686.76 664.9 687.77 664.13 688.53 659.71 692.29 655.82 694.58 654.1 696.06 650.5 699.71 650.4 700.35 650.47 701.75 650.81 705.37 651.15 706.58 651.35 707.42 651.38 707.67 651.37 708.81 650.82 709.62 643.68 710.95 643.52 710.94 641.1 710.77 640.37 710.57 634.86 710.39 631.46 710.94 628.36 712.12 628.22 712.45 626.84 715.9 626.8 715.98 626.77 716.06 626.26 716.14 617.68 715.27 612.2 712.37 605.78 715.06 598.72 718.88 596.84 722.45 596.41 723.49 595.84 725.15 593.79 727.32 592.65 728.52 580.6 734.4 579.67 739.06 579.6 739.43 578.61 742.4 573.32 745.29 567.02 747.27 563.07 748.31 560.85 748.35 560.07 747.55 556.77 747.1 548.69 746.07 547.86 746.37 540.44 751.15 536.18 754.47 535.23 757.03 526.94 755.79 526.91 751.81 524.79 750.11 523.87 749.5 522.3 748.21 515.26 739.12 515.1 738.36 515.07 730.72 515.21 728.71 515.77 727.87 515.85 727.76 516.42 727.23 517.31 726.41 518.45 725.35 520.47 723.35 520.88 722.29 520.94 720.32 519.4 715.68 518.72 714.26 517.55 712.59 515.2 709.62 512.53 708.74 512.44 708.71 507.04 703.08 507 702.3 506.99 701.99 507.34 699.86 510.81 695.5 512.32 693.97 514.49 692.68 515.95 691.58 516.69 689.88 516.55 689.12 516.41 688.39 515.95 687.5 515.27 686.49 514.3 684.83 514.99 681.21 514.47 674.11 512.02 670.83 511.75 670.48 511.57 670.23 505.21 669.35 505.17 669.35 505.02 669.34 501.88 669.19 499.23 671.42 497.27 672.72 492.52 674.76 489.23 675.04 486.26 675.18 482.99 674.69 478.66 673.74 477.83 673.75 475.96 674.1 475.17 675.75 475.75 677.78 472 684.77 470.4 685.75 467.01 687.59 466.71 687.4 466.1 687 458.2 680.38 457.36 678.65 457.19 678.3 455.85 675.97 454.34 673.56 452.75 671.33 449.02 670.57 441.12 675.13 435.95 678.2 431.9 680.6 430.16 680.72 424.6 678.25 423.88 676.87 421.88 675.01 418.2 675.49 416.42 677 415.84 677.65 415.47 679.42 414.85 682.51 412.02 690.29 410.98 692.51 408.45 694.49 403.15 697.43 401.99 697.88 398.83 698 395.28 700.01 394.1 700.77 384.82 707.83 382.99 709.62 380.78 713.55 378.12 717.57 376.88 717.95 375.43 718.38 373.93 718.75 366.87 721.13 357.07 724.92 346.57 733.99 346.85 734.51 347.83 736.3 348.24 737.02 348.76 737.5 349.43 738.12 350.67 739.81 350.81 740 351.86 741.97 353.04 746.36 357.61 755.2 358.54 756.65 356.11 762.81 354.74 772.66 359.38 776.94 361.34 778.85 358.67 784.93 356.7 788.31 353.89 793.72 354.03 796.86 354.15 799.5 354.22 799.94 354.71 803.08 354.95 804.59 351.13 805.39 347.35 805.1 340.05 808.38 335.39 810.62 328.31 814.25 324.43 819.65 324.38 820.27 321.81 823.96 319.08 824.84 314.45 825.93 311.52 825.78 311.34 825.76 310.01 826.67 309.04 827.89 308.23 829.15 307.65 830.26 307.6 830.61 307.43 831.65 307.83 832.72 308.18 833.63 309.35 835.31 310.3 836.67 310.52 836.98 310.66 837.64 310.94 839.41 310.97 848.02 309.4 851.06 308.81 852.21 309.01 856.32 308.79 864.78 308.52 866.76 307.33 872.23 306.78 879.88 306.77 884.45 306.77 884.85 309.06 886.53 309.66 886.97 311.39 889.29 314.3 893.37 314.44 893.91 314.52 895.48 314.46 896.31 312.97 901.96 312.85 902.14 312.06 903.17 309.76 905.97 307.89 908.15 305.9 910.32 304.87 911.01 303.78 911.5 303.18 911.74 301.13 912.23 299.07 912.36 297.95 912.3 294.89 911.87 292.94 911.71 285.22 911.78 285.05 911.97 284.78 912.45 277.28 916.55 270.63 919.39 260.45 921.64 259.84 921.76 259.07 921.77 258.78 921.71 258.26 921.53 257.15 921.12 256.44 918.89 255.83 916.63 255.83 915.93 255.82 915.7 255.78 914.68 255.59 912.94 255.51 912.28 254.64 910.44 253.45 909.33 253.34 909.24 252.29 908.84 251.44 908.53 249.01 908.58 248.5 908.7 247.5 909.06 246.92 909.35 245.88 910.49 245.58 910.82 243.37 913.28 236.95 917.69 236.22 918.09 233.8 918.1 227.53 917.86 226.5 917.2 225.88 916.79 221.63 913.89 220.75 913.25 215.83 908.75 215.66 908.77 214.83 908.96 214.28 909.1 212.79 909.62 212.07 910.04 210.29 911.1 210.22 911.17 210.17 911.26 210.13 911.34 210.12 911.57 210.27 912.31 210.27 912.69 210.1 913.46 209.97 913.85 208.32 916.44 201.9 917.75 200.45 917.59 196.35 915.89 192.39 915.86 190.41 914.55 190.01 914.36 189.61 914.22 189.34 914.18 189.09 914.16 188.67 914.23 188.56 914.4 188.46 914.55 187.32 918.36 178.27 925.48 178.69 927.75 178.66 928.42 177.03 933.14 175.86 933.53 175.33 933.7 173.89 933.83 173.46 933.6 171.94 932.79 171.63 932.92 171.46 932.99 170.4 934.29 162.35 947.04 160.28 951.13 160.05 952.16 158.67 954.82 158.65 954.83 156.29 954.06 154.4 952.36 152.37 950.59 148.36 947.09 147.56 946.46 147.25 946.28 146.2 945.88 143.11 946.42 142.8 946.48 142.46 946.66 142.31 946.77 141.93 947.2 141.46 947.81 140.77 948.83 140.42 949.4 140.01 950.19 138.54 953.25 134.5 956.33 128.8 959.09 127.89 961.7 125.26 965.74 123.47 967.38 111.7 972.22 107.41 968.58 106.1 966.37 106.04 966.31 104.9 965.53 104.8 965.5 96.59 969.16 91.03 971.96 89.72 973.51 89.47 973.32 88.69 972.71 88.57 972.62 78.68 977.83 76.55 980.09 75.29 981.72 74.06 983.23 71.06 983.4 68.52 983.47 67.54 983.85 67.5 983.87 66.61 984.62 66.24 986.54 63.68 991.96 63.63 992 54.65 991.42 53.37 991.08 53.18 991.04 44.63 987.58 42.26 985.59 41.91 985.28 41.68 984.86 41.47 983.32 42.63 981.75 43.79 980.19 45.87 977.87 49.55 976.78 51.22 976.3 55.65 974.99 75.12 964.53 76.06 963.34 76.97 962.19 77.59 961.4 84.68 951.65 85.86 949.73 86.72 948.29 88.46 945.39 89.49 943.22 90.65 940.75 100.06 928.73 100.18 928.09 100.37 927.02 101.18 922.53 101.37 921.47 101.2 920.04 100.88 917.59 100.68 916.13 100.33 913.61 97.39 897.92 96.09 895.52 93.15 890.14 83.87 881.01 81.12 878.54 69.31 869.96 64.57 866.55 47.34 851.78 45.85 850.44 44.53 849.24 42.94 847.78 22.76 826.44 20.28 822.68 19.1 820.9 18.02 819.24 15.07 814.64 14.63 813.97 14.11 813.13 12.56 810.62 12.35 810.17 12.05 809.55 11.63 808.65 10.09 805.34 8.74 801.59 8.16 799.96 7.31 797.53 5.49 791.97 5.04 790.56 4.75 789.71 3.04 783.16 2.71 781.88 2.56 781.13 2.22 779.41 1.18 774.03 1 769.29 1.42 760.46 1.53 758.27 2.51 757.11 8.42 750.23 11.16 748.47 13.41 747.29 15.32 746.88 21 747.96 24.37 748.94 27.32 749.81 41.28 755.31 46.64 758.01 50.82 760.12 53.25 761.01 58.1 762.73 62.21 763.74 67.25 763.99 70.22 764.14 71.09 764.18 79.56 764.88 82.75 765.34 90.36 766.59 108.21 772.49 120.14 776.85 124.72 776.48 126.42 776.33 133.68 775.39 136.31 774.46 139.76 773.23 140.62 772.74 141.18 772.41 141.54 772.19 141.67 772.09 146.05 768.46 159.04 754.72 160.28 753.17 160.82 752.5 160.94 752.34 161.05 752.17 161.44 751.49 162.58 749.46 163.72 744.15 164.15 741.11 164.18 738.85 164.19 736.67 164.19 730.97 163.66 727.37 162.02 715.26 161.73 713.75 161.57 712.92 161.51 712.74 161.05 711.37 160.78 710.62 160.69 710.38 159.34 707.44 158.6 706.16 157.92 704.97 155.38 703 153.25 701.35 151.21 699.74 142.26 692.07 141.47 691.19 141.12 690.79 139.91 689.42 139.49 688.93 126.86 679.91 120.01 675.64 93.55 660.92 89.25 658.89 87.92 658.25 87.36 657.87 81.85 654.04 79.86 652.52 77.91 651.02 76.21 648.49 75.18 646.31 70.91 638.53 66.89 633.24 63.82 629.41 63.65 629.22 62.87 628.2 62.37 627.34 62.1 626.57 62.05 625.58 62.09 625.29 62.24 624.21 62.41 622.96 64.18 619.28 70.55 607.01 74.27 599.06 74.91 597.96 75.73 596.56 76.64 595.03 78.02 592.78 79.08 591.07 79.26 590.85 79.97 590.03 81.06 588.76 82.88 586.71 84.03 585.42 84.63 584.76 85.77 583.51 86.22 583.03 87.26 581.76 88.34 580.43 89.66 578.1 90.61 575.98 91.02 575.04 91.7 573.26 92.01 572.43 92.57 570.37 92.76 569.66 92.91 568.57 93.09 567.12 95.55 559.18 97.11 555.56 99.29 550.63 106.31 535.31 109.83 528.5 113.35 528.21 114.58 528.11 114.63 527.43 114.91 523.93 115.64 523 117.12 521.12 117.77 520.28 118.21 519.73 119.29 519.72 120.56 519.71 120.68 519.71 124.74 519.69 124.7 512.48 124.69 511.81 125.4 511.81 130.55 511.78 133.51 511.76 134.08 511.48 134.53 511.21 134.52 509.4 134.5 504.47 134.49 503.88 134.93 503.88 173.88 503.65 173.9 507.33 173.92 511.47 174.12 511.52 191.08 511.43 214.92 511.52 231.69 511.19 232.82 510.85 234.71 509.97 235.28 509.69 238.03 508.2 237.74 506.76 239.13 501.59 245.85 495.87 246.15 495.6 249.9 490.87 251.54 488.81 252.07 488.14 252.07 488.13 252.15 488.03 253.19 486.72 255.48 487.87 257.72 485.94 262.99 481.76 269.74 476.89 274.81 478.29 278.41 479.01 286.15 480.75 289.35 481.65 290.57 482.15 291.73 482.7 292.34 483.01 292.49 483.08 292.7 483.21 293.91 483.92 294.54 484.33 301.38 488.89 302.73 491.07 307.4 494.52 308.07 494.63 309.43 495.21 311.09 496.03 311.6 496.3 314.19 497.89 315.68 500.8 311.61 503.36 311.31 503.49 309.78 504.16 307.8 504.99 307.7 505.02 307.61 505.05 307.09 505.2 306.77 505.34 306.32 505.54 306.03 505.83 305.02 509.79 306.04 510.9 310.95 511.21 314.43 511.07 314.47 511.05 316.18 510.74 317.47 510.66 318.02 510.63 318.52 515.81 319.93 520.28 322.32 525.94 323.81 528.25 324.74 529.32 325.38 530.03 326.3 531.02 334.56 539.13 340.84 541.26 343.04 541.27 343.45 541.27 343.97 541.97 345.04 547.11 346.43 552.75 350.14 554.58 355.05 556.26 360.71 556.02 362.72 555.93 364.45 555.47 368.71 552.22 371.02 548.42 371.12 550.64 371.22 552.46 372.23 553.83 375 555.65 377.28 556.62 380.16 559.39 381.01 562.38 381.25 563.15 381.53 563.77 381.79 564.3 385.23 570.06 386.02 571.08 388.44 572.55 391.52 573.35 392.19 573.52 394.82 577.76 396.19 585.48 396.67 588.07 397 588.6 397.1 588.75 400.39 588.63 402.66 588.5 402.84 588.37 403.48 587.92 404.97 586.88 407.04 586.07 411.63 585.28 412.89 585.36 413.81 585.76 415.14 586.34 417.76 584.91 418.11 584.62 427.85 571.7 427.68 568.42 426.82 566.75 425.75 564.54 425.68 563.52 425.8 556.23 424.55 547.14 423.57 542.3 420.97 535.43 420.99 535.39 421.49 534.76 425.6 529.67 431.21 530.88 433.13 531.69 436.59 532.83 439.53 533.05 443.62 532.4 445 531.44 447.01 529.56 448.21 527.87 456.66 525.6 457.4 524.72 458.64 523.24 458.72 522.64 458.86 521.46 458.95 520.78 457.72 518.39 457.05 516.13 458.52 512.24 459.24 510.96 461.45 504.58 Z M 296.92 304.96 301.06 301.34 302.6 300.61 303.45 300.48 304.72 300.34 311 300.23 312.17 300.3 312.89 300.4 313.42 300.48 324.9 304.22 328.7 306.17 332.51 308.35 333.07 308.74 335.18 310.04 336.24 310.59 338.45 311.73 338.52 311.76 339.12 311.99 338.02 314.95 338 314.97 336.69 316.12 336.13 316.61 329.8 318.27 322.17 321.01 320.57 322.59 320.17 323.08 319.66 324.85 319.78 325.07 322.91 331.16 323.32 331.42 324.52 332.76 326.17 336.44 326.45 337.09 326.99 338.6 327.32 339.57 327.67 340.78 329.33 349.8 329 350.63 328.9 350.84 328.4 351.94 327.5 353.89 325.45 357.61 318.98 361.71 312.09 360.9 306.49 357.45 306.35 358.13 306.12 359.6 305.86 361.79 304.61 364.44 304.39 364.89 304.12 365.45 303.32 366.18 303 366.33 301 366 295 366.86 292.24 369.05 292.29 369.92 291.81 370.81 290.51 372.18 290.28 372.42 290.26 372.42 289.28 372.36 287.95 371.79 285.04 370.88 284.88 370.84 278.11 369.64 275.19 369.63 269.25 365.91 264.13 362.53 264.06 362.46 263.22 361.9 262.96 361.79 262.12 361.43 260.97 361.41 260.7 361.43 258.74 361.68 257.54 361.95 256.39 362.19 256.31 362.2 254.9 362.41 252.34 361.1 248.53 365.7 248.09 366.23 242.82 376.29 242.7 376.6 242.41 377.37 242.38 377.49 241.61 380.72 240.19 382.93 237.47 385.62 235.53 385.9 234.37 391.8 233.8 394.66 233.28 399.77 232.13 410.28 231.86 412.65 231.41 415.19 230.39 418.75 229.23 422.84 228.79 424.89 227.85 430.29 227.59 430.4 223.39 430 221.61 429.37 211.12 425.62 209.31 424.5 208.16 423.78 206.46 422.72 201.42 419.57 200.16 418.88 190.74 413.68 189.13 413.22 180.37 410.74 176.43 410.54 172.76 410.36 168.43 410.15 163.65 409.91 160.7 409.01 158.29 408.28 154.28 407.06 137.03 405.42 130.33 404.89 125.61 402.76 124.05 402.06 114.21 401.84 86.28 401.8 74.74 401.87 71.47 401.73 66.45 403.67 60.48 400.05 60.38 398.51 60.33 396.91 60.26 386.7 60.24 380.66 60.44 376.69 61.57 369.23 62.93 365.58 63.75 363.59 64.52 362.19 65.21 361.37 66.02 360.4 66.22 360.15 66.96 359.11 67.27 358.65 69.4 355.15 69.73 354.48 70.52 352.32 71.55 348.66 71.85 347.54 73.9 337.17 81.74 316.85 84.1 310.84 84.86 309.34 84.9 309.26 85.61 308.14 86.04 307.58 86.41 307.08 87.11 306.1 87.45 305.38 88.09 303.96 89.69 297.53 89.78 297.09 90.09 295.26 89.74 289.11 89.71 286.6 95.31 285.45 96.53 285.21 99.81 285.08 105.63 284.53 109.09 278.6 109.71 275.65 110.33 273.25 110.51 272.65 110.54 272.55 111.44 270.48 118.88 258.89 119.74 257.88 121.66 256.33 123.64 253.16 125.65 247.39 126.53 243.29 126.46 242.22 126.38 240.05 126.55 235.39 126.61 234.9 131.46 233 137.08 231.19 137.69 230.41 139.17 226.71 139.49 225.7 139.33 221.25 139.77 218.55 142.47 220.2 142.91 220.45 143.17 220.51 144.95 220.2 145.06 220.05 145.27 219.61 145.28 219.51 145.29 219.42 145.29 219.41 145.14 219.04 144.98 218.82 145.84 216.36 147.02 215.2 151.57 212.09 155.2 210.98 165.03 209.62 165.94 209.9 166.02 209.9 166.75 209.93 168.84 208.1 169.43 207.48 169.94 205.89 170.4 204.42 170.56 203.91 171.29 201.66 172.17 201.02 173.77 200.82 179.06 201.09 185.45 201.89 187.2 201.68 189.33 201.25 190.09 200.63 191.5 199.49 192.73 198.49 194.06 197.42 194.71 194.1 195.34 189.12 196 183.65 196.6 181.69 199.07 182.43 200.37 184.02 202.37 184.95 203.85 185.51 207.8 185.67 209.61 186.83 212.44 189.19 215.25 192.16 223.6 192.54 227.4 193.14 232.49 195.23 236.18 197.25 238.12 198.59 238.97 199.5 239.17 199.72 240.33 202.19 240.41 203.06 240.65 205.72 240.82 207.93 240 217.16 239.02 219.89 238.44 221.5 236.63 224.72 235.09 227.61 234.79 228.35 234.44 229.47 234.55 232.55 235.01 241.77 235.95 243.15 235.57 244.49 235.33 245.32 233.65 250.34 233.33 250.75 232.39 251.96 230.15 254.55 225.84 259.05 224.22 259.44 221.75 260.66 220.48 262.32 219.4 264.53 220.31 266.17 222.05 268.07 223.25 269.71 223.27 269.81 223.79 272.41 223.75 277.86 224.21 284.61 225.44 286.39 226.2 286.97 226.48 287.19 226.86 287.48 230.17 290.17 231.58 292.05 232.63 293.44 235.15 295.85 237.72 297.49 238.29 297.85 239.04 298.31 239.85 297.76 241.94 296.1 243.19 294.41 245.26 292.56 246.61 293.05 253.34 296.37 256 297.99 257.07 298.41 257.82 295.57 258.28 294.73 259.82 293.28 263.58 290.63 263.82 290.47 264.76 290.11 265.68 289.89 267.59 290.15 268.98 290.51 271.73 293.48 272.73 296.44 274.05 299.32 276.81 305.02 280.41 310.46 281.04 310.25 285.5 308.76 285.83 308.67 286.28 308.84 286.74 309.57 287.81 312.29 288.11 313.79 288.12 314.47 288.14 315.55 288.26 317.06 288.39 317.02 289.34 316.69 289.66 316.58 290.26 316.37 290.52 316.28 291.35 315.86 291.99 315.53 293.4 314.1 295.15 312.23 295.55 311.79 296.51 310.48 295.67 309.44 296.92 304.96 Z" fill-rule="evenodd" id="달성군"/>
<path d="M 729.75 381.08 730.35 380.55 726.78 375.79 712.68 373.91 710.15 372.91 709.09 373.8 708.15 373.98 705.89 374.01 705.54 374.01 705.23 374.01 705.08 374.01 704.51 373.98 701.94 373.99 701.43 374.25 701.36 374.28 699.82 375.3 691.15 380.58 686.99 381.94 678.92 381.6 675.52 379.69 668.79 379.34 662.43 379.17 653.68 378.93 652.54 379.03 652.27 379.05 651.24 378.71 650.97 378.61 644.31 375.77 643.34 375.05 641.96 373.74 641.18 372.74 640.44 371.56 640.34 370.12 640.82 368.51 640.05 360.62 638.54 357.46 637.18 354.35 636.82 353.53 636.56 352.57 635.66 350.64 635.31 350.07 635.09 349.74 634.25 348.48 632.81 346.32 626.57 343.63 626.17 345.09 625.09 345.6 624.39 345.93 615.37 347.14 615.26 347.11 613.1 346.66 612.86 346.61 610.64 346.22 608.58 345.59 608.57 345.58 605.38 344.01 604.44 343.32 602.5 341.89 599.67 336.79 598.97 337.34 593.85 338.77 592.81 338.7 592.62 338.69 592.54 338.68 592.38 338.65 591.53 338.45 591.16 338.32 590.75 338.16 590.47 338.02 590.18 337.85 589.94 337.7 589.51 337.37 588.23 336.24 586.92 335.15 585.96 334.42 585.25 333.9 585.09 333.83 584.19 333.45 583.73 333.32 583.36 333.34 578.91 334.64 571.67 338.05 571.47 337.7 571.42 337.61 570.84 338 569.04 339.33 567.97 340.13 567.54 340.45 565.37 342.06 562.5 344.21 561.01 345.32 560.82 345.46 560.09 346 559.85 346.18 556.17 347.5 554.67 348.05 552.62 348.78 552.31 348.9 549.55 351.24 543.81 359.38 542.91 360.61 542.48 361.2 542.06 361.75 536.77 361.29 536.71 361.28 519.8 359.45 519.72 359.44 512.74 358.7 512.39 358.66 511.71 356.67 510.1 350.17 509.48 348.48 508.23 345.08 504.62 342.52 504.29 342.32 499.3 339.38 496.82 337.67 497.16 336.13 497.52 335.91 497.85 335.71 499.49 334.75 500.6 334.11 501.64 333.52 503.45 331.69 505 329.45 506.29 327.3 506.75 325.86 511.45 317.93 511.52 317.92 511.78 317.86 512.81 317.4 513.12 317.1 513.34 316.33 513.62 315.15 513.75 314.33 513.82 313.94 514.19 312.92 514.47 312.24 515.39 310.43 516.22 309.11 516.36 308.9 521.97 303.72 526.38 300.09 532.86 303.57 537.8 307.09 544.92 298.24 543.54 294.11 538.86 284.25 537.55 281.15 537.35 279.07 536.67 274.97 536.45 273.98 536.1 273.11 535.86 272.65 535.59 272.12 535.4 271.73 535.42 271.4 535.45 271.06 535.58 269.84 536.33 267.52 536.8 265.8 537.28 264.72 537.61 264 537.85 263.65 538.08 263.31 538.84 262.34 540.31 260.55 540.51 260.33 542.64 257.59 545.23 253.12 545.61 251.84 545.82 250.11 546 248.02 546.14 243.53 546.13 241.41 545.49 232.01 545.2 230.84 545.1 230.42 544.99 229.94 544.79 228 544.64 225.41 544.53 223.17 544.51 222.38 544.44 219.3 544.29 218.18 543.66 216.5 543.25 215.56 539.1 210.56 538.1 210.47 536.95 210.41 536.93 210.41 535.87 210.59 536.66 210.2 537.13 209.95 537.83 208.96 537.85 208.93 537.8 207.07 537.2 205.09 532.5 198.13 531.25 196.07 531.54 193.38 533.53 187.11 533.77 186.83 534.03 183.28 533.56 172.76 532.6 171.96 532.11 171.55 530.63 170.88 529.45 170.69 528.92 170.83 527.51 171.19 527.28 170.99 527.16 170.87 526.79 165.46 527.25 156.2 528.83 150.53 530.7 148.06 532.73 146.31 533.18 145.94 533.22 145.87 533.45 142.31 533.44 142.08 530.42 136.05 530.36 135.96 528.76 134.7 528.49 134.55 527.79 134.19 525.18 132.47 524.41 129.47 525.6 127.28 526.11 125.74 526.52 124.5 526.13 123.77 525.94 123.41 525.9 123.34 521.75 117.61 517.9 113.79 517.85 113.73 517.27 113.13 516.68 112.37 516.85 108.93 517.15 108.37 518.03 106.77 519.56 104.28 519.66 104.05 519.68 103.99 519.42 102.31 518.38 99.39 517.91 98.49 517.72 98.14 517.37 97.87 515.98 96.93 514.85 96.28 507.68 87.94 507 85.62 505.86 83.73 505.21 83.06 504.87 82.71 504.06 81.87 499.82 77.87 498.94 77.09 492.72 72.92 490.2 71.74 487.42 71.3 487.06 71.24 488.63 68.84 495.35 58.43 500.15 50.77 508.44 41.79 510.8 39.35 511.62 36.54 512.56 32.93 513.26 29.52 513.96 26.16 516.42 26.23 520.05 27.13 522.71 27.07 526.05 26.16 526.36 25.4 526.87 23.57 527.69 23.1 528.86 22.86 530.89 22.6 539.66 24.25 540.17 23.9 543.71 21.63 547.84 19.63 549 19.49 552.12 19.21 553.7 19.22 555.02 19.05 555.68 18.97 557.91 18.15 559.37 15.87 559.35 15.83 560.59 16.08 563.55 16.33 566.45 15.73 566.47 15.73 567.18 15.87 571.64 18.05 574.6 19.78 575.53 20.79 578.21 22.56 579.32 23.2 579.56 23.34 583.6 21.47 585.01 19.22 585.71 18.1 593.46 17.02 598.26 16.88 598.28 16.88 605.2 16.29 607.64 15.3 607.84 14.99 610.11 11.35 611.88 10.1 615.54 8.59 622.01 8.74 631.03 8.45 634.86 5.73 635.16 5.52 636.13 4.61 648.67 5.25 663.8 1.79 666.38 1 667.26 2.41 668.82 8.16 677.12 12.99 680.38 14.27 683.79 15.42 687.73 16.16 689.39 16.22 698.68 17.63 706.24 18.93 716.04 22.34 716.91 23.1 717.53 24.15 719.53 24.46 726.83 30.33 727.86 31.34 729.72 33.72 731.31 37.32 734.9 43.86 737.79 44.91 738.12 45.25 739.26 46.4 741.64 49.92 741.99 50.77 742.43 51.86 743.45 55.54 743.75 55.83 742.42 58.61 740.52 61.32 740.41 61.39 740.3 61.47 738.38 62.74 738.03 63.44 737.48 64.5 736.75 69 736.4 74.18 738.92 78.01 739.95 78.86 740.29 79.13 740.8 79.55 745.14 81.63 746.24 82.71 747.72 84.16 748.42 86.34 748.91 88.91 750.42 92.86 752 94.55 754.9 96.89 757.32 98.17 760.38 99.09 761.69 99.55 764.8 101.05 765.8 102.31 766.3 103.33 766.55 103.83 765.07 112.62 762.92 119.1 761.25 128.68 760.66 134.97 760.5 135.27 760.27 135.7 759.68 136.61 758.52 137.67 757.1 138.24 757.04 138.27 755.47 139.36 752.75 141.58 752.11 142.6 751.69 143.32 751.55 143.56 751.1 144.32 750.95 144.71 751.27 144.95 753.28 146.44 754.6 147.42 756.32 150.98 759.89 159.84 759.63 161.14 759.57 164.19 762.51 171.05 762.71 171.64 763.29 173.37 763.19 173.81 762.78 175.73 757.26 184.97 755 189.06 757.1 190.49 753.62 195.59 752.14 199.69 752.62 204.35 752.46 205.81 751.24 208.11 749.3 208.12 751.18 211.63 753.34 214.37 753.73 214.85 754.58 215.78 756.04 217.44 758.11 221.62 760.96 227.54 760.98 227.63 761.17 228.46 761.56 230.3 763.92 232.43 767.01 234.26 772.7 235.94 773.48 236.89 777.39 238.5 777.71 238.51 778.27 238.53 779.98 238.59 785.16 241.97 785.24 242.03 785.8 242.45 785.99 242.6 786.09 242.67 788.28 246.01 789.37 248.21 790.34 250.44 793.89 258.69 795.15 262.2 794.19 262.72 791.5 264.18 789.79 266.36 789.22 267.49 789.13 268.24 789.02 269.23 788.91 270.14 790.19 280.74 790.88 285.88 791.64 289.93 796.46 300.58 798.75 308.58 798.21 318.22 797.59 320.61 796.54 323.18 794.12 328.2 791.52 331.55 793.02 336.03 798.58 339.23 798.7 339.32 798.71 339.33 798.8 339.44 799 340.11 798.94 340.31 798.84 340.54 795.61 347.47 795.44 347.77 795.34 347.94 795.28 348.04 794.4 349.3 794.2 349.55 794.07 349.65 793.24 350.21 796.43 358.46 796.43 358.72 796.41 359.61 796.4 360.16 795.37 360.98 794.5 361.49 793.59 362.03 792.83 362.46 792.4 362.71 792.06 362.92 791.7 363.13 790.56 363.83 789.99 364.18 789.76 364.32 789.71 364.35 788.89 364.87 787.77 365.79 787.29 366.28 787.24 366.36 787.19 366.44 786.79 367.05 783.5 372.57 782.47 374.38 781.83 375.83 779.22 380.64 778.97 380.98 778.64 381.15 772.98 383.45 769.41 384.84 768.73 385.06 768.3 385.35 768.12 385.47 760.38 392.33 758.44 394.17 756.61 395.38 756.07 395.73 755.48 396.11 755.33 396.21 753.83 396.46 753.39 396.53 753.15 396.57 752.72 396.52 752.29 396.47 750.85 396.3 748.37 395.95 747.22 395.16 746.08 394.37 745.91 394.25 745.77 394.16 745.31 393.83 742.26 390.87 737.77 387.35 731.76 383.14 729.75 381.08 Z" id="동구"/>
<path d="M 504.29 342.32 500.81 343.66 499.97 343.98 497.88 344.72 497.8 344.74 496.5 344.98 496.13 345.04 496.03 345.06 495.23 345.19 493.01 345.32 492.95 345.32 492.15 345.29 491.1 345.11 490.26 344.83 486.22 343.41 476.87 341.41 473.71 341.9 473.44 340.46 472.96 340.09 470.57 339.52 462.88 337.73 462.12 337.62 460.56 337.25 460.61 336.78 452.28 334.91 444.28 332.99 447.73 318.6 443.77 316.52 443.08 316.15 442.96 316.09 436.63 312.99 436.09 312.74 433.78 312.24 432.45 311.99 432.1 312.04 421.54 310.1 419.83 310.05 410.7 308.27 408.19 307.86 398.63 306.23 396.08 305.79 395.75 305.7 395.45 305.6 395.24 305.52 394.94 305.38 394.78 305.3 394.64 305.22 394.6 305.2 394.47 305.1 394.43 305.07 394.39 305.05 394.36 305.02 394.21 304.9 393.82 304.55 393.56 304.23 393.35 303.96 392.88 303.35 388.77 297.94 388.75 297.91 388.7 297.85 389.66 296.46 391.15 294.68 391.52 294.38 388.83 290.12 378.13 295.59 375.8 296.13 374.62 296.4 373.06 296.76 372.83 296.86 371.15 297.59 370.77 297.76 369.63 298.26 367.39 299.25 367.12 299.58 365.69 301.28 363.31 304.12 363 304.84 362.96 305.24 362.95 305.4 362.95 305.48 362.9 306.02 362.75 306.98 362.43 308.13 360.62 312.08 360.32 312.68 359.29 314.6 358.78 315.55 358.34 316.32 355.49 317.88 355.02 318.01 354.6 318.11 354 318.25 343.24 316.84 339.12 311.99 338.52 311.76 338.45 311.73 336.24 310.59 335.18 310.04 333.07 308.74 332.51 308.35 328.7 306.17 324.9 304.22 313.42 300.48 312.89 300.4 312.17 300.3 311 300.23 304.72 300.34 303.45 300.48 302.6 300.61 301.06 301.34 296.92 304.96 297.16 304.37 298.79 292.36 298.77 283.63 298.2 279.25 300.64 269.69 306.82 260.42 313.3 256.54 313.64 256.52 314.51 256.47 321.31 252.94 330.53 244.24 332.12 241.81 332.1 238.94 331.88 237.74 332.3 236.92 336.77 231.08 338.94 229.32 340.76 228.15 342.12 227.36 342.69 227.03 344.3 227.13 345.28 220.61 345.43 218.35 345.67 216.84 345.83 216.09 346.36 214.51 346.51 214.08 352.4 200.19 353.6 198.88 353.38 197.24 353.49 195.61 353.59 194.88 354.97 191.29 354.22 183.24 353.24 182.09 351.35 174.41 352.63 173.05 352.16 167.66 351.82 165.61 350.57 164.79 349.71 162.59 349.64 162.36 350.46 156.83 350.79 155.22 350.87 154.79 351.24 153.81 352 151.57 352.5 150.08 353.29 146.99 353.49 145.81 353.83 143.89 353.86 143.48 351.2 137.51 349.9 136.61 345.15 133.82 344.17 128.4 344.02 127.6 342.86 121.77 340.86 114.65 339.72 112.1 338.28 103.29 340.69 90.81 341.54 90.72 351.04 92.58 359.51 98.58 361.95 99.67 365.51 101.07 369.09 102.78 370.4 103.89 370.89 104.69 375.93 117.83 376.31 121.21 376.19 124.12 376.86 125.72 381.8 132.41 384.55 133.34 387.24 135.27 389.99 137.32 391.29 131.69 394.91 117.9 395.52 111.6 395.64 110.92 396.99 109.72 399.82 108.44 403.33 108.1 405.97 108.9 411.91 107.86 413.78 105.93 413.78 105.7 413.74 103.07 427.65 94.77 438.83 94.36 444.08 95.23 447.96 97.02 461.46 92.18 467.06 88.25 466.76 82.2 472.98 79.27 477.4 77.99 481.63 76.92 486.13 75.88 487.06 71.24 487.42 71.3 490.2 71.74 492.72 72.92 498.94 77.09 499.82 77.87 504.06 81.87 504.87 82.71 505.21 83.06 505.86 83.73 507 85.62 507.68 87.94 514.85 96.28 515.98 96.93 517.37 97.87 517.72 98.14 517.91 98.49 518.38 99.39 519.42 102.31 519.68 103.99 519.66 104.05 519.56 104.28 518.03 106.77 517.15 108.37 516.85 108.93 516.68 112.37 517.27 113.13 517.85 113.73 517.9 113.79 521.75 117.61 525.9 123.34 525.94 123.41 526.13 123.77 526.52 124.5 526.11 125.74 525.6 127.28 524.41 129.47 525.18 132.47 527.79 134.19 528.49 134.55 528.76 134.7 530.36 135.96 530.42 136.05 533.44 142.08 533.45 142.31 533.22 145.87 533.18 145.94 532.73 146.31 530.7 148.06 528.83 150.53 527.25 156.2 526.79 165.46 527.16 170.87 527.28 170.99 527.51 171.19 528.92 170.83 529.45 170.69 530.63 170.88 532.11 171.55 532.6 171.96 533.56 172.76 534.03 183.28 533.77 186.83 533.53 187.11 531.54 193.38 531.25 196.07 532.5 198.13 537.2 205.09 537.8 207.07 537.85 208.93 537.83 208.96 537.13 209.95 536.66 210.2 535.87 210.59 536.93 210.41 536.95 210.41 538.1 210.47 539.1 210.56 543.25 215.56 543.66 216.5 544.29 218.18 544.44 219.3 544.51 222.38 544.53 223.17 544.64 225.41 544.79 228 544.99 229.94 545.1 230.42 545.2 230.84 545.49 232.01 546.13 241.41 546.14 243.53 546 248.02 545.82 250.11 545.61 251.84 545.23 253.12 542.64 257.59 540.51 260.33 540.31 260.55 538.84 262.34 538.08 263.31 537.85 263.65 537.61 264 537.28 264.72 536.8 265.8 536.33 267.52 535.58 269.84 535.45 271.06 535.42 271.4 535.4 271.73 535.59 272.12 535.86 272.65 536.1 273.11 536.45 273.98 536.67 274.97 537.35 279.07 537.55 281.15 538.86 284.25 543.54 294.11 544.92 298.24 537.8 307.09 532.86 303.57 526.38 300.09 521.97 303.72 516.36 308.9 516.22 309.11 515.39 310.43 514.47 312.24 514.19 312.92 513.82 313.94 513.75 314.33 513.62 315.15 513.34 316.33 513.12 317.1 512.81 317.4 511.78 317.86 511.52 317.92 511.45 317.93 506.75 325.86 506.29 327.3 505 329.45 503.45 331.69 501.64 333.52 500.6 334.11 499.49 334.75 497.85 335.71 497.52 335.91 497.16 336.13 496.82 337.67 499.3 339.38 504.29 342.32 Z" id="북구"/>
<path d="M 444.28 332.99 439.84 331.97 440.26 333.03 440.33 333.27 440.35 333.4 440.35 339.11 438.31 340.01 438.05 340.1 437.94 340.15 437.89 340.19 437.88 340.2 437.66 340.41 437.57 340.56 437.55 340.6 437.54 340.62 435.74 345.22 435.62 345.65 435.6 345.76 435.6 345.92 435.7 346.83 435.8 347.59 438.15 350.48 439.19 350.38 440.36 350.21 442.23 349.33 442.47 349.14 442.75 348.91 442.91 348.73 443.27 348.21 443.75 354.15 443 355.58 442.8 356.08 442.77 356.14 442.24 356.85 441.45 357.9 439.92 359.46 439.56 359.82 439.3 360.09 439.26 360.13 438.29 360.91 438.16 361.01 438.12 361.04 437.85 361.26 436.15 362.7 434.85 363.85 434.35 364.3 434.32 364.33 432.46 366.19 432.58 367.42 432.62 367.7 432.74 368.59 433.32 372.81 433.33 372.85 420.91 376.99 418.88 377.54 403.31 383.49 402.98 383.62 402.76 383.7 400.61 384.64 393.99 387.77 382.5 393.34 382.42 392.99 376.52 389.16 373.68 389.89 373.66 389.89 370.54 388.63 367.19 387.03 366.48 382.89 353.39 382.95 353.95 378.83 352.52 376.17 349.55 376.24 349.25 376.24 348.29 376.24 347.58 376.23 345.45 376.2 344.35 376.17 342.21 376.12 341.79 375.77 341.73 375.73 340.08 372.65 340.02 372.39 342.33 369.12 341.73 368.4 336.64 363.03 333.85 362.47 333.35 362.4 330.94 362.56 325.45 357.61 327.5 353.89 328.4 351.94 328.9 350.84 329 350.63 329.33 349.8 327.67 340.78 327.32 339.57 326.99 338.6 326.45 337.09 326.17 336.44 324.52 332.76 323.32 331.42 322.91 331.16 319.78 325.07 319.66 324.85 320.17 323.08 320.57 322.59 322.17 321.01 329.8 318.27 336.13 316.61 336.69 316.12 338 314.97 338.02 314.95 339.12 311.99 343.24 316.84 354 318.25 354.6 318.11 355.02 318.01 355.49 317.88 358.34 316.32 358.78 315.55 359.29 314.6 360.32 312.68 360.62 312.08 362.43 308.13 362.75 306.98 362.9 306.02 362.95 305.48 362.95 305.4 362.96 305.24 363 304.84 363.31 304.12 365.69 301.28 367.12 299.58 367.39 299.25 369.63 298.26 370.77 297.76 371.15 297.59 372.83 296.86 373.06 296.76 374.62 296.4 375.8 296.13 378.13 295.59 388.83 290.12 391.52 294.38 391.15 294.68 389.66 296.46 388.7 297.85 388.75 297.91 388.77 297.94 392.88 303.35 393.35 303.96 393.56 304.23 393.82 304.55 394.21 304.9 394.36 305.02 394.39 305.05 394.43 305.07 394.47 305.1 394.6 305.2 394.64 305.22 394.78 305.3 394.94 305.38 395.24 305.52 395.45 305.6 395.75 305.7 396.08 305.79 398.63 306.23 408.19 307.86 410.7 308.27 419.83 310.05 421.54 310.1 432.1 312.04 432.45 311.99 433.78 312.24 436.09 312.74 436.63 312.99 442.96 316.09 443.08 316.15 443.77 316.52 447.73 318.6 444.28 332.99 Z" id="서구"/>
<path d="M 729.75 381.08 728.78 380.87 728.17 380.59 727.3 380.45 726.9 380.5 724.76 380.8 724.65 380.86 722.48 383.04 724.23 386.63 726.15 387.74 727.02 388.12 727.51 388.55 729.53 390.49 729.57 390.6 729.57 390.62 729.54 390.76 730.01 397.48 731.87 404.42 732.56 406.32 732.76 408.03 732.4 412.66 732.36 413.01 731.59 417.63 730.61 418.99 727.9 423.21 727.35 425.07 727.34 427.41 727.37 427.58 727.44 427.74 727.68 428.21 727.94 428.59 728.2 428.98 728.37 429.27 729.61 432.08 729.56 432.29 729.54 432.36 729.38 432.93 729.25 433.31 727.63 434.23 723.39 436.46 723.24 436.51 723.01 436.58 722.84 436.57 722.81 436.57 722.53 436.08 722.33 435.68 721.61 434.32 721.44 434.18 721.4 434.15 721.34 434.1 721.27 434.06 720.26 433.38 719.88 433.35 718.99 433.3 717.86 433.8 715.63 436.15 710.7 440.33 709.36 441.43 703.24 448.4 702.58 449.17 701.85 450.22 701.49 450.74 700.83 451.87 700.81 452.01 700.79 452.18 700.76 452.46 700.75 452.61 699.74 453.35 698 455.56 697.48 456.38 697.46 456.83 697.45 464.06 697.55 464.65 697.65 465.25 698.47 468.31 699.24 469.19 699.52 469.51 701.7 471.06 704.55 473.56 706.69 476.29 707.43 477.26 708.03 478.03 708.45 479.6 708.54 481.23 708.56 483.14 708.59 483.32 710.06 489.66 712.1 497.59 713.56 499.07 715.46 503.56 714.16 504.07 701.29 509.88 701.13 509.99 696.54 514.2 696.5 514.26 696.42 514.51 693.17 520.45 692 520.83 688.96 522 688.42 522.39 686.55 523.74 686.44 523.83 682.68 527.76 682.64 527.83 682.42 528.22 682.26 528.54 682.15 529.49 682.14 530.65 682.09 531.4 681.95 531.6 681.13 532.35 676.57 534.08 674.73 533.56 672.77 531.85 671.61 530.2 670.81 528.31 668.35 528.32 667.09 528.84 664.37 531.02 664.06 531.77 663.93 532.55 663.83 534.06 663.7 534.62 662.84 536.49 662.4 537.19 661.54 538.09 660.5 538.44 658.7 539.03 658.14 539.21 656.67 539.26 647.4 544.54 647.38 544.58 645.1 542.97 639.77 537.69 635.74 535.92 632.36 532.66 628.13 532.46 621.02 530.63 620.59 530 619.69 528.76 611.88 526.34 608.03 525.19 605.42 524.94 604.2 524.91 596.57 524.87 590.31 523.32 588.38 521.99 587.15 520.1 585.91 514.8 582.48 514.57 576.78 515.74 573.03 516.39 569.11 516.69 565.6 516.34 564.35 515.01 559.29 513.42 553.04 513.1 550.66 513.26 547.42 513.75 546.19 514.4 546.19 514.41 542.54 515.98 541.9 515.31 539.89 513.02 537.77 510.57 537.34 510.28 536.98 510.05 535.91 509.62 535.02 509.36 530.59 508.13 526.73 508.37 517.54 513.77 502.67 511.22 494.59 508.96 492.21 508.16 491.98 508.09 490.08 507.55 488.28 507.78 486.6 508.12 480.6 508.41 479.73 506.63 470.34 501.26 468.62 500.65 470.2 495.83 474.03 491.4 478.33 489.49 479.24 489.2 479.56 489.1 481.58 488.42 484.82 487.2 486.45 485 493 468.27 493.22 465.92 493.9 461.74 494.52 458.22 495.56 457.36 496.8 457.28 498.2 457.34 499.8 457.43 499.65 455.34 498.19 449.86 496.88 445.5 496.7 444.52 495.78 437.63 497.01 429.74 498.17 428.55 498.43 428.13 498.7 427.56 498.9 426.6 498.94 426.39 498.97 426.03 499.14 424.09 499.17 423.61 499.18 423.42 499.22 422.91 499.18 422.34 499.15 421.84 499.14 420.35 499.26 419.47 499.3 419.2 500.15 415.03 500.36 404.38 501.37 396.59 501.37 396.52 501.38 395.73 501.39 394.74 501.39 394.5 501.37 393.86 501.37 393.71 501.34 393.51 501.27 393.15 501.2 392.78 501.09 392.14 500.32 390.6 500.19 390.33 499.94 388.86 499.94 388.75 499.91 388.45 499.87 387.84 499.86 387.78 499.69 385.5 499.65 384.9 499.62 384.54 499.61 382.49 499.61 382.46 499.66 381.76 499.68 381.62 499.7 381.33 499.87 379.69 500.02 378.82 500.86 376.44 502.24 375.56 502.48 374.07 505.81 370.75 508.07 369.39 508.65 368.99 509.05 368.47 509.4 367.78 509.58 367.41 509.8 366.97 510.25 365.98 510.39 365.63 510.52 365.31 512.39 358.66 512.74 358.7 519.72 359.44 519.8 359.45 536.71 361.28 536.77 361.29 542.06 361.75 542.48 361.2 542.91 360.61 543.81 359.38 549.55 351.24 552.31 348.9 552.62 348.78 554.67 348.05 556.17 347.5 559.85 346.18 560.09 346 560.82 345.46 561.01 345.32 562.5 344.21 565.37 342.06 567.54 340.45 567.97 340.13 569.04 339.33 570.84 338 571.42 337.61 571.47 337.7 571.67 338.05 578.91 334.64 583.36 333.34 583.73 333.32 584.19 333.45 585.09 333.83 585.25 333.9 585.96 334.42 586.92 335.15 588.23 336.24 589.51 337.37 589.94 337.7 590.18 337.85 590.47 338.02 590.75 338.16 591.16 338.32 591.53 338.45 592.38 338.65 592.54 338.68 592.62 338.69 592.81 338.7 593.85 338.77 598.97 337.34 599.67 336.79 602.5 341.89 604.44 343.32 605.38 344.01 608.57 345.58 608.58 345.59 610.64 346.22 612.86 346.61 613.1 346.66 615.26 347.11 615.37 347.14 624.39 345.93 625.09 345.6 626.17 345.09 626.57 343.63 632.81 346.32 634.25 348.48 635.09 349.74 635.31 350.07 635.66 350.64 636.56 352.57 636.82 353.53 637.18 354.35 638.54 357.46 640.05 360.62 640.82 368.51 640.34 370.12 640.44 371.56 641.18 372.74 641.96 373.74 643.34 375.05 644.31 375.77 650.97 378.61 651.24 378.71 652.27 379.05 652.54 379.03 653.68 378.93 662.43 379.17 668.79 379.34 675.52 379.69 678.92 381.6 686.99 381.94 691.15 380.58 699.82 375.3 701.36 374.28 701.43 374.25 701.94 373.99 704.51 373.98 705.08 374.01 705.23 374.01 705.54 374.01 705.89 374.01 708.15 373.98 709.09 373.8 710.15 372.91 712.68 373.91 726.78 375.79 730.35 380.55 729.75 381.08 Z" id="수성구"/>
<path d="M 504.29 342.32 504.62 342.52 508.23 345.08 509.48 348.48 510.1 350.17 511.71 356.67 512.39 358.66 510.52 365.31 510.39 365.63 510.25 365.98 509.8 366.97 509.58 367.41 509.4 367.78 509.05 368.47 508.65 368.99 508.07 369.39 505.81 370.75 502.48 374.07 502.24 375.56 500.86 376.44 500.02 378.82 499.87 379.69 499.7 381.33 499.68 381.62 499.66 381.76 499.61 382.46 499.61 382.49 499.62 384.54 499.65 384.9 499.69 385.5 499.86 387.78 499.87 387.84 499.91 388.45 499.94 388.75 499.94 388.86 500.19 390.33 500.32 390.6 489.49 389.92 488.06 389.87 485.18 389.68 480.29 389.34 476.26 387.24 473.77 386.92 473.59 386.9 460.13 386.58 453.16 387.4 450.48 387.71 434.16 379.05 433.94 378.93 433.74 376.26 433.33 372.85 433.32 372.81 432.74 368.59 432.62 367.7 432.58 367.42 432.46 366.19 434.32 364.33 434.35 364.3 434.85 363.85 436.15 362.7 437.85 361.26 438.12 361.04 438.16 361.01 438.29 360.91 439.26 360.13 439.3 360.09 439.56 359.82 439.92 359.46 441.45 357.9 442.24 356.85 442.77 356.14 442.8 356.08 443 355.58 443.75 354.15 443.27 348.21 442.91 348.73 442.75 348.91 442.47 349.14 442.23 349.33 440.36 350.21 439.19 350.38 438.15 350.48 435.8 347.59 435.7 346.83 435.6 345.92 435.6 345.76 435.62 345.65 435.74 345.22 437.54 340.62 437.55 340.6 437.57 340.56 437.66 340.41 437.88 340.2 437.89 340.19 437.94 340.15 438.05 340.1 438.31 340.01 440.35 339.11 440.35 333.4 440.33 333.27 440.26 333.03 439.84 331.97 444.28 332.99 452.28 334.91 460.61 336.78 460.56 337.25 462.12 337.62 462.88 337.73 470.57 339.52 472.96 340.09 473.44 340.46 473.71 341.9 476.87 341.41 486.22 343.41 490.26 344.83 491.1 345.11 492.15 345.29 492.95 345.32 493.01 345.32 495.23 345.19 496.03 345.06 496.13 345.04 496.5 344.98 497.8 344.74 497.88 344.72 499.97 343.98 500.81 343.66 504.29 342.32 Z" id="중구"/>
</g>
</svg>