<?xml version="1.0"?>
<svg xmlns="http://www.w3.org/2000/svg" version="1.2" baseProfile="tiny" width="800" height="1001" viewBox="0 0 800 1001" stroke-linecap="round" stroke-linejoin="round">
<g id="대전광역시_시군구_경계">
<path d="M 627.76 192.93 624.41 191.49 623.29 191.57 617.25 194.17 616.08 195.14 615.62 195.69 602.04 217.69 598.76 223.87 598.5 225.15 598.41 227.42 599.14 228.68 599.11 228.92 586.57 254.83 582.65 255.68 581.61 260.16 577.47 268.85 577.2 269.29 576.82 269.91 576.73 270.05 573.89 274.11 571.83 277.01 561.87 289.87 559.66 291.92 543.83 303.72 539 307.26 539.01 307.32 539.14 309.22 537.21 312.28 535.78 313.61 533.25 316.85 530.37 335.05 530.26 344.65 530.29 348.28 533.14 352.08 533.17 352.16 528.09 368.99 527.32 370.66 526.18 372.62 524.98 374.39 522.71 376.75 524.94 384.38 529.74 389.25 534.37 396.48 538.33 406.05 539.05 410.02 539.53 411.71 540.56 414.07 540.92 414.5 542.09 414.55 543.2 414.6 543.49 414.62 543.62 414.62 543.89 414.9 544.23 415.25 544.83 415.88 546.83 419.32 546.9 419.71 547.18 421.59 549.83 427.64 553.64 436.75 554.07 437.25 555 438.34 556.4 438.63 556.42 438.64 558.97 439.79 560.28 440.39 560.54 440.52 560.59 448.78 559.13 452.71 557.03 458.38 557.01 458.68 557.01 458.79 556.83 462.63 556.83 462.74 556.81 463.47 556.8 463.61 556.89 464.26 557.02 465.15 557.22 466.51 557.88 467.07 557.95 469.63 557.54 470.3 556.88 471.34 556.29 471.65 555.99 471.78 555.51 472.01 555.44 472.04 555.25 472.08 554.48 472.19 554.36 472.16 554.02 472.08 542.03 466.59 532.67 464.99 529.93 463.8 531.08 461.25 531.43 460.47 531.02 460.48 530.64 460.5 511.98 461.85 509.37 462.97 509.17 463.08 508.68 464.31 508.67 464.34 508.46 466.92 509.68 466.8 507.38 471.84 507.32 471.97 506.07 471.37 503.01 469.9 501.21 469.03 497.67 467.1 497.92 463.26 497.85 463.17 496.1 461.38 495.02 460.27 493.36 458.55 493.28 458.45 491.4 452.4 491.53 450.83 491.56 450.47 491.58 450.37 491.69 449.79 491.76 449.41 491.82 449.18 491.87 449.01 492.21 448.3 490.64 444.1 490.2 443.54 489.77 443.01 487.03 442.39 482.45 440.37 482.25 440.35 481.63 440.61 481.6 440.62 481.45 440.72 466.27 453.11 462.42 458.62 463.35 466.28 461.66 466.55 457.12 475.22 456.81 476.04 456.5 476.86 455.94 477.74 455.79 477.97 455.65 478.09 454.02 479.04 453.77 479.14 453.68 479.18 453.46 479.21 453.16 479.24 451.25 479.17 449.61 479.02 447.38 478.94 446.25 479.03 442.11 479.75 439.19 485.9 439.2 485.92 439.4 486.1 439.82 486.49 439.88 486.55 439.94 486.61 446.09 492.22 445.66 492.09 444.95 491.89 443.8 491.61 443.16 491.47 442.64 491.38 441.51 491.21 439.53 491.04 439.43 491.04 437.58 491.07 435.51 491.27 435.18 491.32 434.86 491.39 434.83 491.39 434.64 491.44 427.02 493.59 429.36 500.58 429.66 501.46 429.74 501.71 429.75 501.74 430.16 502.65 430.39 502.99 430.16 502.9 429.99 502.77 429.16 502.13 428.81 501.7 428.27 501.05 427.64 500.09 427.26 499.52 425.51 496.7 422.07 487.51 421.91 486.68 421.14 485.36 420.74 484.84 419.98 483.85 418.03 481.88 417.7 481.58 417.54 481.45 415.42 480.82 402.18 475.57 402.83 470.78 402.86 461.39 402.43 460.36 402.39 460.25 402.17 459.73 402.05 459.41 400.95 456.34 399.54 451.46 395.16 438.57 386.11 427.76 385.74 424.63 385.48 423.5 385.11 422.09 383.58 418.87 381.37 414.98 381.01 414.45 380.65 413.92 374.67 407.12 374.36 406.02 374.08 404.51 374.34 403.17 374.98 401.76 379.71 400.8 383.09 400.12 383.77 400.07 384.99 399.99 385.98 399.81 387.17 399.51 389.42 398.44 390.4 397.97 391.43 397.47 391.93 397.23 392.28 397.05 394.74 395.79 394.58 395.56 394.68 395.49 395.5 394.97 395.9 394.76 398.8 393.64 404.51 391.85 405.15 391.67 405.39 391.72 408.7 390.47 410.41 389.76 411.57 389.18 414.09 387.21 417.53 384.28 420.59 379.31 420.86 378.73 420.9 378.64 421.67 376.76 421.97 375.82 422.29 374.23 422.34 372.81 422.47 363.05 422.21 356.68 422.04 355.83 421.93 355.31 421.42 352.18 421.26 350.95 420.97 348.56 420.94 348.3 420.82 346.94 420.81 344.99 420.81 343.79 420.81 343.72 420.85 343.1 420.92 342.17 421.6 333.96 422.24 329.98 424.54 325.16 426.98 308.82 427.11 307.85 427.18 307.52 427.31 307.19 427.6 306.51 429.32 303.3 431.26 299.94 431.44 299.66 431.46 299.63 431.83 299.21 432.16 298.92 432.24 298.85 432.37 298.74 432.4 298.72 433.27 298.03 434.43 297.27 435.35 296.48 436.67 294.31 437.08 293.47 437.1 293.42 437.12 293.36 436.74 292.93 437.08 292.24 438.23 289.89 439.98 286.31 442.41 281.29 442.91 280.15 443.1 279.64 443.29 279.1 444.02 276.93 444.04 275.15 444.04 274.92 444.01 273.76 443.61 272.21 442.67 268.68 442.37 268.1 441.63 266.94 440.91 265.98 438.99 261.81 437.1 257.75 437.09 257.73 436.6 256.92 436.27 256.38 435.79 255.61 431.2 248.54 430.51 247.48 430.2 247.04 429.87 246.57 426.21 241.8 421.71 239.42 411.68 233.46 399.39 224.87 382.45 207.34 381.48 206.02 380.04 203.81 379.32 202.65 378.66 201.39 378.38 200.37 378.37 200.32 378.22 198.7 376.87 198.85 370.65 194.99 370.16 194.63 368.5 191.84 368.32 191.45 365.78 184.9 365.66 184.34 365.46 182.74 365.38 182.1 365.31 177.81 365.45 176.82 365.67 175.32 365.82 174.67 365.83 174.63 365.86 174.54 366.16 173.89 371.64 163.31 372.07 162.56 372.32 162.19 372.71 161.61 373.88 160.33 374.23 159.98 375.57 158.66 376.08 158.16 377.23 157.49 378.85 156.76 380.45 156.33 381.72 156.03 381.95 156.01 382.39 155.98 382.89 155.94 384.39 155.81 384.76 155.76 387.81 152.05 388.1 151.69 388.44 151.27 389.01 150.57 393.72 144.95 397.88 140.29 411.54 144.19 425.7 144.19 428.62 144.51 430.65 144.52 432.54 144.36 433.68 144.24 434.01 144.2 434.02 144.2 435.76 143.89 438.84 143.29 455.43 139.9 455.43 139.62 459.19 138.6 459.5 138.52 462.42 137.73 483.82 139.08 487.84 141.23 487.99 141.38 492.24 145.75 496.15 150 498.1 152.15 498.42 152.64 498.68 153 498.85 153.25 499.34 153.91 499.57 154.22 500.48 155.37 500.49 155.38 501.91 156.42 504.33 157.88 504.78 158.15 512.57 161.94 523.17 161.77 526.29 160.63 530.08 159.23 531.91 158.55 536.43 155.45 541.18 152.18 541.62 151.72 544.14 149.06 547.69 145.31 549.21 143.38 551.61 140.31 551.75 140.12 551.81 140.01 554.19 126.98 554.19 126.93 554.39 120.63 554.37 118.86 554.38 117.57 554.39 117.21 554.51 115.9 554.64 114.89 554.88 113.7 560.61 100.13 562.59 95.83 571.1 85.26 571.44 84.87 572.66 83.72 573.91 82.65 574.6 82.13 575.27 81.63 575.36 81.57 576.88 80.6 581.4 78.54 582.44 78.07 583.37 77.68 586.3 76.47 595.81 74.16 597.3 73.8 599.69 74.11 606.41 75.57 607.03 78.7 607.61 81.67 607.69 82.11 607.42 83.35 607.12 84.69 604.51 96.4 604.17 97.45 603.46 99.6 600.23 107.74 599.55 109.05 598.88 110.14 598.43 110.84 598.13 111.29 598.09 111.35 597.51 112.22 597.41 112.29 597.25 112.41 596.42 113.28 595.42 114.66 594.62 116.13 591.31 123.32 590.93 124.18 590.6 125.05 590.25 126.29 590.02 127.63 589.93 128.21 589.84 128.83 589.78 129.22 589.68 130.68 589.73 131.28 589.98 132.89 589.99 132.92 590.37 133.88 590.77 134.7 591.49 136.06 591.76 136.5 593.03 138.36 593.48 138.96 594.06 139.6 594.88 140.51 601.5 147.2 604.14 148.5 607.69 150.21 611.79 150.53 613.7 150.67 616.88 150.2 619.74 149.78 625.7 148.89 626.86 148.41 631.7 146.48 634.52 145.37 638.89 143.65 641.68 142.56 643.85 141.71 648.53 139.9 654.06 142.05 654.12 142.09 654.13 142.1 655.27 144.64 656.69 147.83 658.37 153.47 658.38 153.52 658.41 153.68 655.87 161.47 654.52 162.76 650.4 166.65 649.83 167.17 648.09 168.8 645.42 171.26 645.36 171.32 645.21 171.45 643.71 172.74 643.16 173.21 640.95 175.1 639.76 176.09 637.56 178.7 634.41 182.46 631.47 185.98 630.48 187.19 630.42 187.28 630.19 187.66 629.26 189.67 628.05 192.27 627.76 192.93 Z" id="대덕구"/>
<path d="M 448.78 921.63 449.02 921.22 450.25 919.08 451.87 916.3 453.72 915.32 455.02 914.03 458.5 910.46 456.72 906.19 454.79 900.62 457.54 892.62 458.06 883.23 458.4 876.81 457.25 867.38 453.23 864.81 452.91 863.57 453.37 859.58 455.05 857.72 458.12 855.62 458.2 855.57 460.21 855.16 460.88 855.33 462.65 855.77 464.24 856.17 464.44 856.28 465.93 857.08 467.21 858.6 467.45 858.89 471.05 861.22 471.29 861.37 474.75 860.78 475.09 860.72 478.15 859.45 478.27 858.8 479.04 854.77 479.56 854.17 482.14 852.21 487.9 845.14 488.39 843.75 487.94 839.52 487.48 837.4 487.31 836.62 488.07 831.65 489.91 830.51 490.29 830.27 490.64 830.05 492.14 829.42 493.94 828.68 494.15 828.61 497.04 827.82 498.38 828.38 501.37 824.95 499.51 807.05 499.32 807.02 497.54 806.66 494.85 806.13 493.88 805.22 493.82 805.15 493.32 804.63 491.71 802.96 483.2 789.84 482.34 782.61 482.9 781.23 483.01 780.95 482.95 780.86 477.44 776.98 474.97 776.75 473.93 776.96 471.6 777.34 468.15 777.27 460.89 775.38 460.89 775.33 462.58 771.65 464.44 768.89 466.52 759.19 466.35 754.87 466.68 753.17 473.94 746.73 484.37 737.29 486.98 734.52 489.1 732.02 492.81 725.7 492.26 723.63 486.29 714.91 482.22 710.12 477.77 708.71 474.19 698.29 474.36 697.35 474.39 697.18 476.72 695.18 478.5 694.15 480.28 692.44 480.41 692.27 482.23 689.74 481.9 689.2 481.28 688.2 480.71 687.3 478.4 686.27 476.82 686.08 474.86 684.32 461.65 667.62 461.22 665.42 461.19 665.26 461.86 660.24 462.94 657.25 469.38 659.18 475.31 660.87 476.18 660.72 478.34 660.16 486.67 655.57 496.06 647.21 499.97 644.94 509.6 643.14 512.81 648.55 518.26 655.25 528.09 652.72 540.33 651.77 534.52 629.68 533.59 627.85 533.21 627.66 532.41 627.23 530.77 626.33 528.35 625 524.11 620.64 516.55 608.91 516.38 608.65 516.24 608.42 516.06 608.14 515.96 607.61 515.82 606.87 515.69 603.82 515.99 603.81 516.34 603.8 516.2 603.4 516.06 603.18 516.02 603.12 515.53 602.33 515.42 602.19 515.27 602.01 515.2 601.92 514.57 601.16 514.39 600.94 514.24 600.78 513.98 600.48 513.44 599.89 512.67 599.4 512.22 599.12 512.19 599.1 512.14 599.07 511.99 598.98 511.1 598.51 510.92 598.42 510.85 598.39 509.84 597.95 506.16 597.28 502.45 596.77 494.7 592.04 494.28 591.29 493.71 590 491.51 583.99 491.02 582.42 490.74 581.16 490.57 580.02 490.45 579.32 490.39 578.97 490.19 577.9 489.96 577.02 489.71 576.16 489.61 575.97 489.21 575.13 488.13 573.9 488 573.04 487.95 572.81 486.6 569.61 485.66 567.95 484.95 566.72 484.68 566.27 478.37 556.03 477.38 554.33 475.31 550.79 470.84 544.28 469.13 541.6 468.44 540.53 467.51 539.1 467.21 538.63 466.88 538.13 466.47 537.54 466.29 537.28 457.11 528.44 453.05 520.8 452.59 520.23 452.13 519.67 451.6 519.08 451.03 518.47 441.08 509.06 433.94 506.46 432.8 505.73 430.39 502.99 430.16 502.65 429.75 501.74 429.74 501.71 429.66 501.46 429.36 500.58 427.02 493.59 434.64 491.44 434.83 491.39 434.86 491.39 435.18 491.32 435.51 491.27 437.58 491.07 439.43 491.04 439.53 491.04 441.51 491.21 442.64 491.38 443.16 491.47 443.8 491.61 444.95 491.89 445.66 492.09 446.09 492.22 439.94 486.61 439.88 486.55 439.82 486.49 439.4 486.1 439.2 485.92 439.19 485.9 442.11 479.75 446.25 479.03 447.38 478.94 449.61 479.02 451.25 479.17 453.16 479.24 453.46 479.21 453.68 479.18 453.77 479.14 454.02 479.04 455.65 478.09 455.79 477.97 455.94 477.74 456.5 476.86 456.81 476.04 457.12 475.22 461.66 466.55 463.35 466.28 462.42 458.62 466.27 453.11 481.45 440.72 481.6 440.62 481.63 440.61 482.25 440.35 482.45 440.37 487.03 442.39 489.77 443.01 490.2 443.54 490.64 444.1 492.21 448.3 491.87 449.01 491.82 449.18 491.76 449.41 491.69 449.79 491.58 450.37 491.56 450.47 491.53 450.83 491.4 452.4 493.28 458.45 493.36 458.55 495.02 460.27 496.1 461.38 497.85 463.17 497.92 463.26 497.67 467.1 501.21 469.03 503.01 469.9 506.07 471.37 507.32 471.97 507.38 471.84 509.68 466.8 508.46 466.92 508.67 464.34 508.68 464.31 509.17 463.08 509.37 462.97 511.98 461.85 530.64 460.5 531.02 460.48 531.43 460.47 531.08 461.25 529.93 463.8 532.67 464.99 542.03 466.59 554.02 472.08 554.36 472.16 554.48 472.19 555.25 472.08 555.44 472.04 555.51 472.01 555.99 471.78 556.29 471.65 556.88 471.34 557.54 470.3 557.95 469.63 557.88 467.07 557.22 466.51 557.02 465.15 556.89 464.26 556.8 463.61 556.81 463.47 556.83 462.74 556.83 462.63 557.01 458.79 557.01 458.68 557.03 458.38 559.13 452.71 560.59 448.78 560.54 440.52 560.28 440.39 558.97 439.79 556.42 438.64 556.4 438.63 555 438.34 554.07 437.25 553.64 436.75 549.83 427.64 547.18 421.59 546.9 419.71 546.83 419.32 544.83 415.88 544.23 415.25 543.89 414.9 543.62 414.62 543.49 414.62 543.2 414.6 542.09 414.55 540.92 414.5 540.56 414.07 539.53 411.71 539.05 410.02 538.33 406.05 534.37 396.48 529.74 389.25 524.94 384.38 522.71 376.75 524.98 374.39 526.18 372.62 527.32 370.66 528.09 368.99 533.17 352.16 533.14 352.08 530.29 348.28 530.26 344.65 530.37 335.05 533.25 316.85 535.78 313.61 537.21 312.28 539.14 309.22 539.01 307.32 539 307.26 543.83 303.72 559.66 291.92 561.87 289.87 571.83 277.01 573.89 274.11 576.73 270.05 576.82 269.91 577.2 269.29 577.47 268.85 581.61 260.16 582.65 255.68 586.57 254.83 599.11 228.92 599.14 228.68 598.41 227.42 598.5 225.15 598.76 223.87 602.04 217.69 615.62 195.69 616.08 195.14 617.25 194.17 623.29 191.57 624.41 191.49 627.76 192.93 623.18 203.81 622.42 205.66 620.87 209.46 621 211.76 621.11 212.65 621.38 214.81 621.66 215.83 624.28 222.58 624.84 223.94 630.09 235.69 630.78 236.88 631.66 238.2 632.4 239.19 636.01 245.55 639.25 255.58 639.37 256.76 639.46 259.51 639.52 261.88 639.54 262.68 639.55 263.44 639.62 264.77 639.65 265.01 639.7 265.39 639.75 265.83 639.79 266.12 639.83 266.37 639.84 266.43 639.92 266.94 640.24 267.91 640.46 268.59 641.32 269.99 648.62 283.43 650.99 289.72 652.91 290.11 653.17 290.16 658.44 291.13 667.55 290.94 671.21 289.82 672.65 287.94 673.68 286.61 674.24 285.83 674.72 285.08 674.82 284.93 675.08 284.51 675.24 284.09 675.67 282.97 676.01 281.89 676.63 278.49 677.28 275.57 678.74 269.01 681.62 256.14 681.7 255.8 683.96 246.18 683.97 246.17 688.12 246.12 688.93 246.63 691.04 248.69 691.36 249.02 691.83 249.51 692.03 250.33 695.57 253.84 697.77 254.53 698.63 252.79 702.42 248.4 706.15 244.19 707.91 243.14 708.94 243.15 710.17 244.1 715.78 250.24 721.83 256.41 723.72 256.71 735.6 256.06 747.89 252.01 752.77 255.04 754.67 256.21 754.62 256.72 753.6 266.99 753.55 267.53 756.23 278.9 759.32 283.54 763.07 289.17 764.33 289.71 765.8 289.31 770.83 291.92 774.59 294.52 778.58 299.53 778.67 299.66 779.06 301.12 779.22 301.73 781 308 782.49 313.11 785.83 315.64 787.18 316.61 788.42 317.31 790.44 317.99 792.46 318.37 794.53 318.05 794.57 318.05 795.14 317.96 796.11 317.61 796.71 317.39 797.76 319.62 799 322.55 797.68 323.81 787.29 332.11 784.61 333.1 783.75 332.82 781.07 331.94 774.9 327.62 769.58 327.17 766.39 328.21 760.76 329.06 758.09 329.24 756.82 326.38 752.01 325.81 746.75 325.81 733.41 337.08 712.4 356.92 711.57 378.13 712.98 399.66 714.73 411.28 714.58 413.19 713.22 417.75 712.74 418.18 711.87 418.62 710.64 419.65 708.88 423.19 708.74 423.53 708.59 423.91 708.4 424.38 709.42 432.34 707.11 441.73 703.32 448.91 703.19 449.33 703.08 449.68 704.47 452.16 704.72 452.43 704.94 452.66 705.03 452.75 705.3 453.07 705.5 453.56 705.87 454.51 705.77 455.66 705.41 457.12 704.09 460.88 699.12 470.01 696.38 473.4 685.52 480.08 679.27 483.28 673.28 485.15 667.27 490.74 667.48 491.76 667.56 493.24 667.6 495.81 656.8 503.33 652.58 504.79 650.45 505.8 650.07 506.15 649.6 506.58 649.17 506.97 648.45 508.25 648.44 509.09 648.41 513.05 648.84 513.77 649.79 515.39 651.02 517.92 649.96 525.4 649.37 528.31 651.13 540.13 652.18 545.4 654.02 548.4 654.32 548.92 654.57 551.34 654.07 552.58 651.07 559.69 646.96 566.62 643.88 567.47 642.04 567.98 639.17 568.76 636.77 569.41 638.98 573.38 641.49 580.34 641.13 582.66 639.18 586.7 634.33 595.1 639.62 605.26 642.42 607.09 643.9 610.75 644.02 611.48 644.11 612.1 644.37 613.85 644.42 614.18 641.5 617.35 641.24 618.73 640.24 624.42 639.89 627.09 637.3 630.34 633.75 629.59 632.12 628.77 630.67 629.02 627.88 631.49 627.67 632.22 625.63 634.26 624.53 641.43 624.58 642.74 624.58 642.8 625.11 643.28 625.91 643.95 626.23 644.16 627.37 645.89 628.37 647.81 634.61 662.24 640.99 677.24 642.87 682.73 643.99 686.2 643.28 690.9 638.82 697.49 628.21 709.33 623.3 714.19 620.51 727.55 617.26 735.34 617.23 735.43 611.44 754.14 611.59 758.93 611.75 759.41 612.12 760.54 615.12 763.6 615.67 763.82 618.78 763.26 618.81 763.26 620.87 764.42 620.94 764.62 620.97 764.72 621.04 764.91 621.48 766.47 621.77 775.1 617.79 781.45 617.67 781.62 616.38 783.47 616.25 783.65 615.55 784.82 615.41 785.05 620.02 802.15 621.56 804.4 622.2 805.33 624.23 805.32 626.01 804.81 627.43 807.29 627.86 809.06 628.42 811.45 629.72 817.74 629.82 819.45 629.52 821.01 628.95 821.63 628.26 822.71 628.09 827.54 623.05 829.35 621.44 830.24 619.95 834.54 620.82 836.43 621.58 838.1 621.43 841.63 617.6 844.61 615.81 844.13 614.6 843.6 612.61 844.62 609.52 846.46 607.18 849.31 605.04 851.47 602.75 851.41 600.39 851.3 594.83 852.21 590.52 853.63 590.82 856.34 591.36 857.96 590.84 862.46 590.43 863.05 587.9 865.19 581.75 868.51 571.38 873.05 568.79 873.31 566.37 873.96 565.16 874.52 564.59 875.13 564.15 875.61 563.58 876.7 563.61 878.99 564.02 888.48 564.92 893.38 565.76 894.45 566.04 894.64 567.42 895.59 568.94 896.67 569.5 899.08 568.25 900.58 567.69 901.24 565.6 901.72 560.66 902.83 559.01 902.15 558.51 901.95 554.46 902.94 545.65 906.39 545.17 907.43 544.81 909.29 544.94 910.4 544.86 910.89 544.75 911.58 542.99 916.39 542.54 916.79 538.91 919.1 537.47 919.42 532.7 921.78 530.02 925.04 529.84 926.34 531.07 928.57 533.36 932.74 534.95 934.48 535.69 935.76 535.38 938.25 534.38 943.67 533.66 944.57 531.65 944.63 526.24 947.64 521.21 950.82 521.19 950.84 520.16 951.93 519.36 953.48 514.35 957.46 503.27 963.61 501.28 963.55 500.86 963.63 496.66 963.5 496.14 963.08 495.98 960.82 495.78 957.78 495.63 957.69 495.45 957.57 492.35 955.57 485.53 951.73 481.78 951.42 480.16 952.14 478.28 952.01 477.84 951.89 477.33 951.55 474.13 943.25 470.75 934.51 470.68 934.06 466.73 930.65 459.31 928.36 455.67 928.01 452.89 928.09 452.15 927.66 450.41 925.02 449.79 924.07 448.78 921.63 Z" id="동구"/>
<path d="M 374.67 407.12 380.65 413.92 381.01 414.45 381.37 414.98 383.58 418.87 385.11 422.09 385.48 423.5 385.74 424.63 386.11 427.76 395.16 438.57 399.54 451.46 400.95 456.34 402.05 459.41 402.17 459.73 402.39 460.25 402.43 460.36 402.86 461.39 402.83 470.78 402.18 475.57 402.01 477.95 398.89 486.33 399.8 491.17 400.15 492.85 400.4 493.85 400.49 494.21 400.75 495.09 401.08 496.14 401.84 498.54 401.97 499.03 401.59 501.88 401.52 502.4 401.48 502.59 401.13 504.43 400.77 506.12 400.52 507.23 400.26 508.35 400.22 508.53 399.7 510.38 398.52 511.05 397.26 511.02 396.75 511.05 394.53 513.14 393.46 514.17 393.08 514.53 392.18 515.52 392.08 515.67 391.59 517.17 387.34 523.75 385.91 522.47 373.85 532.84 373.28 534.94 372.8 535.81 371.86 537.19 371.21 538.13 370.68 538.32 369.21 538.85 368.21 539.25 366.85 540.4 366.7 540.56 365.87 541.47 365.47 542.02 364.94 542.75 364.79 542.96 364.48 543.63 364.43 543.72 364.18 544.28 363.08 547.16 356.82 565.82 356.22 567.1 355.92 567.96 355.63 569.04 355.61 569.14 355.35 570.67 355.22 571.82 355.24 572.26 355.3 573.78 355.54 574.88 356.19 577.84 357.53 582.64 359.16 591.76 352.74 604.09 351.26 606.17 349.96 607.92 348.94 609.17 346.35 611.63 343.4 614.52 341.69 616.21 341.84 617.43 343.68 622.43 344.66 624.67 345.55 626.63 345.75 627.07 346.34 629.31 346.75 632.25 346.77 633.81 346.48 637.38 346.25 638.89 346.15 639.22 345.96 639.87 345.85 640.22 342.8 646.2 342.42 646.8 342.39 646.86 342.28 647.03 341.19 648.45 336.73 654.03 330.69 653.84 327.62 653.55 323.92 652.92 322.37 657.12 315.84 665.91 316.16 668.32 316 672.21 315.45 674.17 314.87 674.9 313.02 676.3 310.54 676.13 310.37 676.12 309.07 679.32 309.36 680.09 310.8 682.82 317.17 694.18 319.29 696.47 323.17 711.87 321.73 719.49 319.95 725.59 318.59 726.69 315.1 727.88 312.02 728.81 306.95 730.31 301.96 728.79 297.39 729.11 298.16 730.56 297.49 732.83 294.89 738.54 291.64 744.92 290.41 750.85 290.9 756.53 292.07 763.98 292.08 764.49 291.98 768.94 291.96 769.58 290.79 773.03 289.19 773.85 288.96 774.27 288.84 774.47 289.44 776.57 289.92 777.32 293.58 779.49 300.46 784.43 300.59 789.71 301.07 794.74 302.92 809.4 297.87 825.25 294.72 839.11 295.63 840.07 298.45 845.1 294.79 855.33 292.62 860.03 290.02 862.8 290.12 863.9 290.64 866.56 293.24 868.92 294.2 869.68 295.11 870.27 297.36 872.41 297.38 872.45 298.05 873.3 298.77 874.71 300.04 878.42 301.34 883.78 301.27 884.45 300.42 887.32 298.58 888.09 294.01 889.03 293.35 888.94 293.3 888.92 292.37 888.51 291.88 888.6 291.33 888.71 290.9 889.26 290.71 889.5 289.21 894.39 288.83 897.09 288.82 897.17 288.24 902.97 286.02 903.49 277.39 906.36 277.22 906.42 276.45 906.72 271.72 909.53 262.97 921.5 256.11 933.81 255.56 936.55 255.95 938.98 256.09 939.84 257.47 940.31 257.69 940.7 258.2 943.65 258.7 952.21 257.92 954.48 256.74 955.11 253.18 956.61 248.39 960.96 244.01 967.53 242.97 970.39 239.48 981.78 227.01 999.15 223.91 999.87 223.23 1000 219.79 998.67 218.21 997.69 217.28 996.98 217.8 995.41 217.88 995.05 217.94 989.75 217.95 984.67 217.34 969.78 217.16 968.83 217.09 959.35 221.79 947.64 221.99 947.45 222.14 947.3 222.1 944.64 208.31 933.87 208.27 933.87 208.08 933.87 202.94 935.18 200.52 935.96 197.59 936.76 195.27 934.96 194.7 933.47 195.17 931.62 195.42 931 195.65 929.87 195.42 928.44 194.76 926.4 192.43 921.42 191.22 919.81 190.3 911.63 191.53 905.9 191.49 904.39 190.04 902.05 186.56 898.11 184.43 897.56 183.95 897.54 183.77 897.4 182.68 896.49 179.53 888.91 178.41 885.21 176.5 881.09 175.53 879.6 175.26 879.27 173.17 877.53 170.31 875.27 169.28 874.48 161.11 869.23 160.04 868.74 158.92 868.69 158.27 868.28 158.18 868.22 157.6 867.85 155.68 866.38 152.92 864.2 151.23 860.5 147.49 853.25 145.74 852.92 145.16 854.97 143.75 861.03 144.1 863.1 145.12 867.74 145.73 869.63 146 871.57 146.02 872.83 146.03 873.36 144.87 875.29 144.31 876.12 143.86 876.72 143.1 877.68 141.45 878.44 140.65 878.8 139.37 879.3 133.67 879.54 132.13 879.42 129.75 878.76 122.03 873.99 120.02 871.13 117.8 864.57 119.08 857.8 119.11 857.14 119.09 857.02 118.73 855.4 118.69 855.31 116.98 852.67 101.19 838.08 100.55 837.87 95.84 836.12 93.69 835.3 90.58 834.03 90.33 833.69 90.28 833.52 90.28 833.27 93.53 829.85 92.73 823.8 90.29 816 87.54 810.55 86.47 806.75 89.25 802.91 88.06 799.32 84.9 782.27 91.88 770.77 92.03 770.06 92.23 768.61 92.08 767.59 91.62 767.03 91.38 766.05 91.41 764.57 91.55 763.84 91.84 763.22 91.99 762.92 92.06 762.81 92.43 762.27 93.39 761.22 93.86 760.77 94.32 760.32 97.42 757.8 102.78 754.93 109.41 751.35 109.76 751.14 110.74 750.58 111.65 749.97 114.75 747.52 116.13 746.32 116.29 744.14 121.57 739.54 125.81 734.22 126.01 733.98 134.03 728.01 138.82 725.02 154.01 718.77 154.62 718.68 155.72 718.53 156.94 718.35 156.99 718.34 157.8 719.11 162.51 716.74 162.18 709.52 160.88 702.94 164.37 695.25 168.65 686.76 171.61 686.68 172.82 681.17 173.77 677.99 178.25 676.73 179.19 676.66 179.55 676.58 181.09 676.2 182.12 675.75 182.3 675.64 183.52 674.83 185.44 673.27 185.87 672.7 187.66 669.43 187.85 668.59 187.94 668.15 188.01 667.57 188.07 666.88 188.12 666.2 188.13 666.07 188.16 665.5 188.17 664.95 188.18 664.12 188.16 663.43 188.14 662.73 188.03 661.42 187.95 660.68 187.92 660.3 187.91 659.67 187.93 658.98 187.99 658.3 188.09 657.62 188.18 657.13 189.09 653.42 189.87 650.86 190.35 649.33 193.19 641.58 193.5 640.91 193.52 640.85 193.69 640.56 193.99 640.08 194.52 639.36 197.7 635.19 197.91 634.94 198.24 634.57 198.37 634.41 198.9 633.89 199.48 633.4 200.16 632.94 200.99 632.56 204.05 631.16 207.7 629.56 211.72 627.9 212.06 627.75 214.34 626.96 215.15 626.74 219.92 625.95 219.96 616.29 220.27 607.88 222.18 603.19 232.73 589.32 233.4 589.32 236.71 589.97 237.53 586.56 238.06 577.83 233.45 575.61 232.96 573.43 232.89 573.12 232.62 571.89 230.63 560.23 228.76 545.26 228.76 545.24 228.8 536.72 232.51 536.75 234.49 536.76 234.49 536.57 234.5 533.67 234.51 531.03 234.51 530.23 248.32 530.31 271.66 530.45 274.37 530.01 275.29 527.63 275.29 527.62 275.31 527.58 275.87 525.07 276.05 524.09 276.07 523.96 276.21 523.16 276.41 521.52 276.03 520.12 270.56 501.91 263.76 480.79 262.52 475.06 262.52 475.01 262.52 475 262.71 473.43 263.02 471.64 263.4 470.44 264.36 467.63 264.95 466.07 265.6 464.9 266.56 463.41 267.36 462.85 271.7 460.69 272.8 460.67 274.23 460.76 274.26 460.76 274.56 460.78 274.59 460.79 274.6 460.79 274.78 460.74 274.8 460.72 277.26 458.69 279.68 456.69 285.42 451.79 287.36 445.38 297.48 432.1 305.77 429.17 308.31 427.36 308.4 427.26 308.87 426.79 309.71 425.79 310.58 424.52 310.75 424.25 311.65 422.55 312.05 421.8 312.28 421.21 312.62 420.33 313.33 418.62 314.12 417.08 315.14 415.72 315.86 415.05 316.12 414.8 316.36 414.58 327.87 406.56 329.63 406 329.72 405.98 330.97 405.64 331.98 405.42 332.14 405.39 333.96 405.12 335.74 404.97 335.82 404.97 336.54 404.96 337.41 404.96 338.86 404.98 341.51 406.55 364 407.68 366.56 407.76 374.67 407.12 Z" id="서구"/>
<path d="M 397.88 140.29 393.72 144.95 389.01 150.57 388.44 151.27 388.1 151.69 387.81 152.05 384.76 155.76 384.39 155.81 382.89 155.94 382.39 155.98 381.95 156.01 381.72 156.03 380.45 156.33 378.85 156.76 377.23 157.49 376.08 158.16 375.57 158.66 374.23 159.98 373.88 160.33 372.71 161.61 372.32 162.19 372.07 162.56 371.64 163.31 366.16 173.89 365.86 174.54 365.83 174.63 365.82 174.67 365.67 175.32 365.45 176.82 365.31 177.81 365.38 182.1 365.46 182.74 365.66 184.34 365.78 184.9 368.32 191.45 368.5 191.84 370.16 194.63 370.65 194.99 376.87 198.85 378.22 198.7 378.37 200.32 378.38 200.37 378.66 201.39 379.32 202.65 380.04 203.81 381.48 206.02 382.45 207.34 399.39 224.87 411.68 233.46 421.71 239.42 426.21 241.8 429.87 246.57 430.2 247.04 430.51 247.48 431.2 248.54 435.79 255.61 436.27 256.38 436.6 256.92 437.09 257.73 437.1 257.75 438.99 261.81 440.91 265.98 441.63 266.94 442.37 268.1 442.67 268.68 443.61 272.21 444.01 273.76 444.04 274.92 444.04 275.15 444.02 276.93 443.29 279.1 443.1 279.64 442.91 280.15 442.41 281.29 439.98 286.31 438.23 289.89 437.08 292.24 436.74 292.93 437.12 293.36 437.1 293.42 437.08 293.47 436.67 294.31 435.35 296.48 434.43 297.27 433.27 298.03 432.4 298.72 432.37 298.74 432.24 298.85 432.16 298.92 431.83 299.21 431.46 299.63 431.44 299.66 431.26 299.94 429.32 303.3 427.6 306.51 427.31 307.19 427.18 307.52 427.11 307.85 426.98 308.82 424.54 325.16 422.24 329.98 421.6 333.96 420.92 342.17 420.85 343.1 420.81 343.72 420.81 343.79 420.81 344.99 420.82 346.94 420.94 348.3 420.97 348.56 421.26 350.95 421.42 352.18 421.93 355.31 422.04 355.83 422.21 356.68 422.47 363.05 422.34 372.81 422.29 374.23 421.97 375.82 421.67 376.76 420.9 378.64 420.86 378.73 420.59 379.31 417.53 384.28 414.09 387.21 411.57 389.18 410.41 389.76 408.7 390.47 405.39 391.72 405.15 391.67 404.51 391.85 398.8 393.64 395.9 394.76 395.5 394.97 394.68 395.49 394.58 395.56 394.74 395.79 392.28 397.05 391.93 397.23 391.43 397.47 390.4 397.97 389.42 398.44 387.17 399.51 385.98 399.81 384.99 399.99 383.77 400.07 383.09 400.12 379.71 400.8 374.98 401.76 374.34 403.17 374.08 404.51 374.36 406.02 374.67 407.12 366.56 407.76 364 407.68 341.51 406.55 338.86 404.98 337.41 404.96 336.54 404.96 335.82 404.97 335.74 404.97 333.96 405.12 332.14 405.39 331.98 405.42 330.97 405.64 329.72 405.98 329.63 406 327.87 406.56 316.36 414.58 316.12 414.8 315.86 415.05 315.14 415.72 314.12 417.08 313.33 418.62 312.62 420.33 312.28 421.21 312.05 421.8 311.65 422.55 310.75 424.25 310.58 424.52 309.71 425.79 308.87 426.79 308.4 427.26 308.31 427.36 305.77 429.17 297.48 432.1 287.36 445.38 285.42 451.79 279.68 456.69 277.26 458.69 274.8 460.72 274.78 460.74 274.6 460.79 274.59 460.79 274.56 460.78 274.26 460.76 274.23 460.76 272.8 460.67 271.7 460.69 267.36 462.85 266.56 463.41 265.6 464.9 264.95 466.07 264.36 467.63 263.4 470.44 263.02 471.64 262.71 473.43 262.52 475 262.52 475.01 262.52 475.06 263.76 480.79 270.56 501.91 276.03 520.12 276.41 521.52 276.21 523.16 276.07 523.96 276.05 524.09 275.87 525.07 275.31 527.58 275.29 527.62 275.29 527.63 274.37 530.01 271.66 530.45 248.32 530.31 234.51 530.23 234.51 531.03 234.5 533.67 234.49 536.57 234.49 536.76 232.51 536.75 228.8 536.72 228.76 545.24 228.76 545.26 230.63 560.23 232.62 571.89 232.89 573.12 232.96 573.43 233.45 575.61 238.06 577.83 237.53 586.56 236.71 589.97 233.4 589.32 232.73 589.32 222.18 603.19 220.27 607.88 219.96 616.29 219.92 625.95 215.15 626.74 214.34 626.96 212.06 627.75 211.72 627.9 207.7 629.56 204.05 631.16 200.99 632.56 200.16 632.94 199.48 633.4 198.9 633.89 198.37 634.41 198.24 634.57 197.91 634.94 197.7 635.19 194.52 639.36 193.99 640.08 193.69 640.56 193.52 640.85 193.5 640.91 193.19 641.58 190.35 649.33 189.87 650.86 189.09 653.42 188.18 657.13 188.09 657.62 187.99 658.3 187.93 658.98 187.91 659.67 187.92 660.3 187.95 660.68 188.03 661.42 188.14 662.73 188.16 663.43 188.18 664.12 188.17 664.95 188.16 665.5 188.13 666.07 188.12 666.2 188.07 666.88 188.01 667.57 187.94 668.15 187.85 668.59 187.66 669.43 185.87 672.7 185.44 673.27 183.52 674.83 182.3 675.64 182.12 675.75 181.09 676.2 179.55 676.58 179.19 676.66 178.25 676.73 173.77 677.99 172.82 681.17 171.61 686.68 168.65 686.76 164.37 695.25 160.88 702.94 162.18 709.52 162.51 716.74 157.8 719.11 156.99 718.34 156.94 718.35 155.72 718.53 154.62 718.68 154.01 718.77 138.82 725.02 134.03 728.01 126.01 733.98 125.81 734.22 121.57 739.54 116.29 744.14 115.82 742.74 115.41 742.11 115.25 741.87 114.23 740.45 113.25 739.65 112.95 739.48 112.82 739.41 112.54 739.24 112.4 739.18 111.89 738.95 111.71 738.87 111.64 738.88 110.82 738.94 109.67 739.17 109.35 739.24 106.99 739.85 105.66 740.2 104.91 740.57 104.79 740.65 103.9 741.19 103.33 741.46 102.53 741.84 102.45 741.88 101.15 742.22 100.8 742.31 99.69 742.38 99.64 742.38 98.04 742.43 96.18 742.44 94.67 742.37 93.47 742.26 92.38 742.13 92.35 742.12 91.42 741.97 91.19 741.93 89.03 741.11 85.99 739.49 85.49 739.2 84.95 738.88 76.53 732.81 63.1 724.32 59.89 722.31 58.79 721.49 58.75 721.47 55.04 718.22 53.79 716.96 53.09 716.08 52.27 715.14 49.66 712.98 48.56 712.11 47.26 711.38 43.06 709.6 40.9 708.88 39.36 708.54 34.85 707.59 32.62 707 31.79 706.74 29.48 704.76 28.58 703.75 26.16 700.68 24.55 698.56 20.21 692.76 20.2 692.65 20.05 690.94 19.17 687.63 18.74 686.82 10.9 676.2 5.13 666.17 1 659.69 3.59 658.15 8.72 652.56 9.83 650.51 9.96 650.28 10.15 649.2 10.15 649.19 11.36 647.07 11.57 646.71 12.53 645.46 14.16 644.38 17.02 642.63 19.75 641.21 19.93 641.12 20.63 641.74 21.19 642.52 21.29 642.78 21.45 643.24 28.71 645.1 30.22 645.17 32.28 645.25 33.59 645.11 34.47 645.01 34.69 644.98 33.48 643.27 33.4 642.22 33.24 640.31 36.29 626.64 36.81 625.46 33.88 621.54 33.2 621.23 31.11 620.24 30.11 599.98 30.64 584.68 31.21 575.71 31.89 574.39 33.04 572.16 33.87 570.54 33.89 570.52 34.45 570.31 35.52 569.91 36.36 567.58 37.26 562.94 37.3 558.36 37.06 556.26 36.58 554.03 35.5 548.97 34.72 545.44 34.99 545.47 37.18 545.75 37.56 545.8 43.09 545.44 48 543.03 48.29 542.88 50.91 541.43 50.88 541.29 50.8 540.85 50.59 539.77 51.09 538.02 54.96 532.76 55.62 532.53 55.85 532.45 56.05 532.38 55.74 531.2 55.36 529.74 52.37 522.19 51.67 520.45 49.64 518.48 49.22 514.03 49.59 512.82 50.01 511.47 57.46 502.16 67.11 496.02 75.45 493.15 82.65 491.21 83.4 490.71 84.17 490.19 82.78 488.69 81.51 486.73 80.01 482.92 80.15 481.62 80.47 478.83 81.06 476.99 79.04 473.71 77.58 471.5 71.97 464.89 70.65 463.96 67.42 457.85 65.33 453.66 63.81 450.44 63.17 446.41 63.8 438.08 67.06 434.07 69.93 432.57 72.05 431.51 75.24 429.94 76.49 429.3 78.04 428.28 80.56 425.79 80.56 425.78 80.64 425.69 80.05 415.09 84.96 406.89 89.28 395.55 88.48 389.38 87.44 383.47 86.87 382.62 86.52 382.44 86.06 382.21 85.73 381.96 84.2 380.79 83.75 379.63 83.8 378.63 83.83 378.08 84.04 374.69 84.15 372.87 83.09 370.46 81.77 358.19 82.8 354.74 83.64 352.38 84.06 348.92 84.63 343.27 84.63 343.18 83.84 334.32 83.34 327.04 82.95 326.43 83.7 320.47 84.57 318.35 85.13 317.08 88.38 306.74 89.34 301.57 92.75 278.58 92.33 270.32 95.49 269.1 98.63 268.48 99.39 268.36 100.17 268.26 101.5 268.64 101.52 268.64 104.28 268.15 114.33 265.74 115.16 265.51 125.94 254.14 125.61 250.72 125.14 250.14 124.1 249.06 123.25 246.4 128.78 243.31 133.36 243.56 136.21 244.36 142.77 243.72 144.56 240.36 145.1 239.95 146.82 238.72 150.72 238.36 154.15 238.25 163.21 238.42 165.78 238.72 167.48 240.65 173.84 244.3 175.58 245.63 178.66 248.63 179.25 249.62 179.56 250.15 179.56 251.8 179.56 251.96 179.74 252.07 179.75 252.07 180.54 251.84 183.93 250.42 186.61 248.89 193.88 242.79 197.41 244.94 204.84 246.97 212.1 243.12 213.75 241.79 213.8 241.75 214.93 240.83 214.94 240.82 220.01 236.11 220.18 235.69 220.27 235.49 221.23 233.1 228.3 229.73 233.46 227.35 233.57 227.31 239.3 222.22 240.96 220.52 242.22 219.18 242.32 219.07 241.95 217.77 241.28 215.1 240.99 211.67 240.65 204.07 247.93 189.85 250.72 180.26 252.29 176.72 256.9 172.1 258.64 170.47 264.65 165.49 268.84 165.62 270.25 166.1 271.92 166.66 272.74 166.57 273.53 166.13 273.99 165.87 280.07 158.31 287.28 140.6 287.27 140.59 287.25 140.48 286.66 138.18 284.04 133.03 281.95 117.12 287.16 111.73 289.68 107.01 290.32 96.7 292.82 94.72 293.91 94.28 294.72 93.95 296.18 92.4 300.42 83.04 300.67 82.44 300.72 82.24 301.01 81.01 301.02 80.74 301.02 80.66 301.01 80.64 300.93 80.33 300.76 79.76 300.75 79.73 300.67 79.66 298.07 77.46 298.05 77.46 297.8 77.54 297.15 77.27 296.73 76.77 294.91 74.05 292.39 69.09 292.19 68.31 292.02 67.61 292.01 67.16 292.08 66.64 292.44 65.81 292.86 64.84 292.99 62.79 291.56 59.59 288.56 57.36 286.11 56.68 285.22 54.62 285.69 51.71 291.52 33.98 295.95 32.21 298.08 33.46 299.43 34.22 299.52 34.27 299.74 34.38 302.53 35.45 311.07 38.57 311.63 38.77 311.76 38.75 311.91 38.72 311.96 38.7 312.38 38.56 314.22 37.65 313.61 34.56 318.46 32.7 320.02 31.49 321.34 30.42 323.25 28.85 324.55 27.63 327.11 25.21 327.16 25.15 327.24 25.05 335.71 15.51 335.71 15.5 338.68 10.14 339.26 9.11 339.61 8.46 340.29 7.22 340.33 7.16 341.63 4.92 342.19 3.97 342.56 3.39 342.7 3.17 351.66 1 355.54 3.48 356.79 4.29 359.09 5.78 359.47 6.03 365.68 11.81 372.99 18.66 374.1 20.02 375.78 22.04 375.96 22.19 376.99 23.04 380.01 25.54 381.9 27.11 382.24 27.38 382.82 27.85 389.94 36.1 400.33 47.52 402.24 56.7 402.72 58.99 403.19 61.29 403.24 61.69 403.24 64.98 403.24 65.34 403.23 72.65 403.23 73.51 403.22 75.61 401.36 80.24 401.06 80.98 401.04 81.04 399.85 83.99 399.58 84.63 399.33 85.25 398.39 87.57 397.8 89.05 396.78 95.33 396.38 97.79 395.27 104.66 395.75 106.68 396.02 107.97 396.1 109.1 396.12 110.34 396.14 119.41 391.77 122.02 392.41 131.25 396.23 138.19 397.38 139.69 397.88 140.29 Z" id="유성구"/>
<path d="M 448.78 921.63 448.75 921.51 445.77 921.54 444.98 921.7 443.93 921.92 443.55 921.99 442.26 923.61 441.38 924.35 433.62 919.64 416.76 909.22 412.2 906.38 414.53 900.91 417.32 896.87 418.95 894.05 418.92 891.71 413.17 882.1 410.99 879.58 410.96 879.57 410.8 879.52 410.13 879.33 409.67 879.2 408.43 879.32 406.72 879.05 406.4 879 404.01 876.84 403.66 876.5 403.47 876.32 397.33 861.96 394.15 852.09 392.48 843.4 390 844.45 383.21 845.77 376.85 844.47 365.79 841.79 359.55 839.35 358.81 836.17 359.34 829.47 361.19 828.38 363.86 826.82 367.29 822.43 367.8 820 368.01 819 368.62 811.64 367.28 810.07 365.38 808.46 363.29 805.92 362.15 804.48 360.99 802.37 358.22 789.48 357.72 786.4 357.61 781.51 358.46 779.24 359.48 777.86 360.23 776.86 361.03 776.28 361.22 776.22 362.94 773.73 366.64 758.99 367.57 754.9 367.27 751.96 367.09 750.76 365.6 748.17 364.41 748.89 354.4 739.18 352.15 736.91 350.45 734.6 334.91 721.69 331.62 721.18 327.05 720.31 323.81 719.46 321.73 719.49 323.17 711.87 319.29 696.47 317.17 694.18 310.8 682.82 309.36 680.09 309.07 679.32 310.37 676.12 310.54 676.13 313.02 676.3 314.87 674.9 315.45 674.17 316 672.21 316.16 668.32 315.84 665.91 322.37 657.12 323.92 652.92 327.62 653.55 330.69 653.84 336.73 654.03 341.19 648.45 342.28 647.03 342.39 646.86 342.42 646.8 342.8 646.2 345.85 640.22 345.96 639.87 346.15 639.22 346.25 638.89 346.48 637.38 346.77 633.81 346.75 632.25 346.34 629.31 345.75 627.07 345.55 626.63 344.66 624.67 343.68 622.43 341.84 617.43 341.69 616.21 343.4 614.52 346.35 611.63 348.94 609.17 349.96 607.92 351.26 606.17 352.74 604.09 359.16 591.76 357.53 582.64 356.19 577.84 355.54 574.88 355.3 573.78 355.24 572.26 355.22 571.82 355.35 570.67 355.61 569.14 355.63 569.04 355.92 567.96 356.22 567.1 356.82 565.82 363.08 547.16 364.18 544.28 364.43 543.72 364.48 543.63 364.79 542.96 364.94 542.75 365.47 542.02 365.87 541.47 366.7 540.56 366.85 540.4 368.21 539.25 369.21 538.85 370.68 538.32 371.21 538.13 371.86 537.19 372.8 535.81 373.28 534.94 373.85 532.84 385.91 522.47 387.34 523.75 391.59 517.17 392.08 515.67 392.18 515.52 393.08 514.53 393.46 514.17 394.53 513.14 396.75 511.05 397.26 511.02 398.52 511.05 399.7 510.38 400.22 508.53 400.26 508.35 400.52 507.23 400.77 506.12 401.13 504.43 401.48 502.59 401.52 502.4 401.59 501.88 401.97 499.03 401.84 498.54 401.08 496.14 400.75 495.09 400.49 494.21 400.4 493.85 400.15 492.85 399.8 491.17 398.89 486.33 402.01 477.95 402.18 475.57 415.42 480.82 417.54 481.45 417.7 481.58 418.03 481.88 419.98 483.85 420.74 484.84 421.14 485.36 421.91 486.68 422.07 487.51 425.51 496.7 427.26 499.52 427.64 500.09 428.27 501.05 428.81 501.7 429.16 502.13 429.99 502.77 430.16 502.9 430.39 502.99 432.8 505.73 433.94 506.46 441.08 509.06 451.03 518.47 451.6 519.08 452.13 519.67 452.59 520.23 453.05 520.8 457.11 528.44 466.29 537.28 466.47 537.54 466.88 538.13 467.21 538.63 467.51 539.1 468.44 540.53 469.13 541.6 470.84 544.28 475.31 550.79 477.38 554.33 478.37 556.03 484.68 566.27 484.95 566.72 485.66 567.95 486.6 569.61 487.95 572.81 488 573.04 488.13 573.9 489.21 575.13 489.61 575.97 489.71 576.16 489.96 577.02 490.19 577.9 490.39 578.97 490.45 579.32 490.57 580.02 490.74 581.16 491.02 582.42 491.51 583.99 493.71 590 494.28 591.29 494.7 592.04 502.45 596.77 506.16 597.28 509.84 597.95 510.85 598.39 510.92 598.42 511.1 598.51 511.99 598.98 512.14 599.07 512.19 599.1 512.22 599.12 512.67 599.4 513.44 599.89 513.98 600.48 514.24 600.78 514.39 600.94 514.57 601.16 515.2 601.92 515.27 602.01 515.42 602.19 515.53 602.33 516.02 603.12 516.06 603.18 516.2 603.4 516.34 603.8 515.99 603.81 515.69 603.82 515.82 606.87 515.96 607.61 516.06 608.14 516.24 608.42 516.38 608.65 516.55 608.91 524.11 620.64 528.35 625 530.77 626.33 532.41 627.23 533.21 627.66 533.59 627.85 534.52 629.68 540.33 651.77 528.09 652.72 518.26 655.25 512.81 648.55 509.6 643.14 499.97 644.94 496.06 647.21 486.67 655.57 478.34 660.16 476.18 660.72 475.31 660.87 469.38 659.18 462.94 657.25 461.86 660.24 461.19 665.26 461.22 665.42 461.65 667.62 474.86 684.32 476.82 686.08 478.4 686.27 480.71 687.3 481.28 688.2 481.9 689.2 482.23 689.74 480.41 692.27 480.28 692.44 478.5 694.15 476.72 695.18 474.39 697.18 474.36 697.35 474.19 698.29 477.77 708.71 482.22 710.12 486.29 714.91 492.26 723.63 492.81 725.7 489.1 732.02 486.98 734.52 484.37 737.29 473.94 746.73 466.68 753.17 466.35 754.87 466.52 759.19 464.44 768.89 462.58 771.65 460.89 775.33 460.89 775.38 468.15 777.27 471.6 777.34 473.93 776.96 474.97 776.75 477.44 776.98 482.95 780.86 483.01 780.95 482.9 781.23 482.34 782.61 483.2 789.84 491.71 802.96 493.32 804.63 493.82 805.15 493.88 805.22 494.85 806.13 497.54 806.66 499.32 807.02 499.51 807.05 501.37 824.95 498.38 828.38 497.04 827.82 494.15 828.61 493.94 828.68 492.14 829.42 490.64 830.05 490.29 830.27 489.91 830.51 488.07 831.65 487.31 836.62 487.48 837.4 487.94 839.52 488.39 843.75 487.9 845.14 482.14 852.21 479.56 854.17 479.04 854.77 478.27 858.8 478.15 859.45 475.09 860.72 474.75 860.78 471.29 861.37 471.05 861.22 467.45 858.89 467.21 858.6 465.93 857.08 464.44 856.28 464.24 856.17 462.65 855.77 460.88 855.33 460.21 855.16 458.2 855.57 458.12 855.62 455.05 857.72 453.37 859.58 452.91 863.57 453.23 864.81 457.25 867.38 458.4 876.81 458.06 883.23 457.54 892.62 454.79 900.62 456.72 906.19 458.5 910.46 455.02 914.03 453.72 915.32 451.87 916.3 450.25 919.08 449.02 921.22 448.78 921.63 Z" id="중구"/>
</g>
</svg>