<?xml version="1.0"?>
<svg xmlns="http://www.w3.org/2000/svg" version="1.2" baseProfile="tiny" width="800" height="655" viewBox="0 0 800 655" stroke-linecap="round" stroke-linejoin="round">
<g id="서울특별시_시군구_경계">
<path d="M 556.3 415.8 571.46 422.58 573.84 423.73 577.71 424.87 577.84 431.93 578.44 439.62 579.39 449.54 579.73 453.62 579.98 456.56 580.12 458.17 580.2 459.07 580.68 464.18 580.77 465.06 580.92 466.8 580.99 467.49 581.03 467.94 581.12 468.99 581.13 469.12 581.28 470.86 581.49 473.17 581.51 473.43 581.68 475.43 581.74 475.83 581.78 476.13 581.91 477.09 581.92 477.18 586.4 477.75 589.01 478.06 589.11 478.07 589.76 478.14 591.59 478.36 593.84 478.63 595.58 478.84 597.17 479.5 605.33 482.97 607.75 484 622.52 489.41 631.51 492.82 642.59 499.43 645.78 501.31 654.35 510.27 661.47 522.87 662.04 524.04 662.65 525.29 663.31 526.61 663.98 527.89 666.4 532.04 668.88 536.26 669.76 537.74 670.79 539.45 672.4 542.11 676.71 549.35 678.86 553.12 683.67 561.55 685.24 564.32 685.12 564.38 684.4 564.76 683.32 565.61 680.75 567.62 672.36 574.61 672.35 574.62 671.71 575.79 671.68 575.86 671.43 576.32 671.33 577.72 671.26 578.74 671.25 579.19 671.22 583.12 670.94 583.15 670.84 583.16 669.97 583.23 669.75 583.23 669.31 583.23 668.55 582.98 668.51 582.96 665.62 581 665.01 580.49 664.83 580.32 664.6 580.08 663.36 578.57 663.64 578.3 664.16 578.03 664.37 577.84 664.45 577.68 664.45 577.37 664.45 577.24 662.35 576.23 661.57 575.9 655.6 574.64 652.16 574.12 651.76 574.02 651.37 573.99 650.8 574.03 647.32 574.57 647.32 574.59 647.48 575.25 647.55 577.31 646.53 579.65 646.28 579.94 637.66 587.68 635.62 588.41 629.87 588.33 630.14 584.88 629.26 577.35 628.26 577.35 625.85 576.62 623.61 574.15 623.84 570.97 623.93 570.38 623.9 568.55 623.89 567.9 623.71 567.16 623.18 566.15 623.09 565.98 620.84 562.55 613.88 554.01 613.58 553.66 612.33 552.85 611.4 552.67 610.75 552.59 610.56 552.56 609.71 550.49 608.9 548.49 609.54 543.36 610.46 542.13 609.15 541.97 604.4 542.62 599.12 543.86 597.15 544 595.15 543.12 587.48 550.37 587.07 550.79 583.36 552.16 581.27 552.9 579.24 552.99 575.19 555.1 574.18 555.89 573.35 556.65 572.15 557.08 569.03 557.69 566.95 557.59 561.14 557.46 557.47 557.96 553.21 558.78 550.08 559.88 547.51 560.78 545.57 561.16 545.9 558.88 545.78 556.9 544.63 556.01 542.87 555.75 541.61 555.61 545.52 551.04 541.63 546.29 537.64 541.4 535.1 538.3 535.02 538.2 534.93 538.08 534.85 537.96 534.77 537.84 534.7 537.72 534.64 537.59 534.58 537.46 534.53 537.33 532.55 531.75 532.47 531.52 527.96 518.81 528.23 518.34 513.61 520.83 508.96 508.39 501.41 488.25 496.73 475.74 495.55 472.6 489.61 456.72 486.24 444.7 485.78 442.73 483.33 432.17 483.07 431.04 483.06 431.02 482.43 429.93 481.42 428.16 481.4 428.13 478.16 423.76 477.64 424.42 476.82 425.54 476.51 425.99 475.54 427.36 474.25 429.15 472.22 427.49 465.5 421.9 472.26 413.07 477.62 406.13 482.49 401.86 489.63 397.55 493.68 397.62 517.5 397.66 521.1 397.68 521.62 397.69 523.89 397.7 524.75 397.71 526.23 397.72 535.63 401.07 536.27 401.31 536.42 401.36 536.98 401.56 537.99 402.33 542.44 405.71 546.44 408.72 547.28 409.36 547.72 409.69 548.42 410.25 551.05 412.41 554.03 414.86 554.2 415 554.9 415.28 555.47 415.5 556.02 415.72 556.2 415.79 556.29 415.83 556.3 415.8 Z" id="강남구"/>
<path d="M 725.51 444.04 720.59 442.15 717.38 440.34 713.11 437.96 712.84 438.05 704.17 432.95 694.35 427.45 676.46 417.42 680.57 405.03 680.58 405.03 684.47 391.67 671.33 383.68 667.39 382.21 665.27 381.42 664.71 381.21 664.7 381.2 664.82 380.8 664.82 380.76 662.1 380.75 657.66 380.74 657.46 380.74 661.75 371.75 661.79 369.79 661.84 367.72 661.88 365.58 661.93 363.48 661.93 363.17 665.78 356.4 666.67 354.86 668.21 350.49 668.99 348.24 669.8 346 670.74 344.78 672.98 341.88 673.1 341.75 683.78 332.19 693.55 326.44 694.57 325.84 698.89 324.14 704.38 321.97 705.36 321.59 706.27 321.43 711.84 320.49 726.95 320.53 727.91 320.54 733.32 320.55 734.84 319.43 737.7 317.31 741.43 314.51 744.84 311.95 746.41 311.03 748.5 309.79 756.04 303.36 757.23 302.42 758.26 301.61 758.95 301.07 759.3 300.79 767.3 295.44 770.92 295.4 773.97 295.37 777 294.79 781.77 292.97 782.2 292.81 783.17 292.43 783.23 292.41 784.28 291.7 784.65 291.45 784.97 291.23 785.66 290.76 785.92 290.58 787.14 290.19 787.1 293.4 786.94 294.15 786.8 294.45 786.7 294.64 786.6 294.82 786.33 295.17 786.23 295.28 784.14 296.75 783.85 296.97 783.8 297.12 783.78 297.34 783.7 298.17 783.65 298.79 783.61 299.36 783.62 299.51 783.62 299.66 784.28 305.26 784.32 305.42 784.36 305.52 785.01 306.79 785.82 307.89 786.67 309.11 788.16 311.76 788.33 312.07 790.8 319.11 790.83 319.2 790.96 319.6 791.18 321.2 791.26 321.83 791.37 322.75 791.41 325.19 793.6 331.57 794.66 333.74 794.84 334.18 796.03 337.97 796.19 338.59 796.27 339.99 796.23 341.09 796.16 341.79 795.77 343.77 795.68 345.01 794.9 357.1 794.9 357.13 794.89 357.43 794.88 357.8 795.03 358.3 795.36 358.69 795.56 358.9 797.74 368.03 797.38 369.99 797.34 370.83 797.53 373.29 797.59 373.55 799 376.47 794.66 373.08 792.1 373.09 791 373.1 787.47 374.43 786.36 374.87 784.15 376.13 780.65 375.38 776.21 375.88 767.01 377.2 764 377.64 760.19 376.77 754.32 385.07 753.33 386.23 747.54 394.75 746.54 395.03 742.68 401.78 741.81 403.81 742.13 408.75 741.73 411.54 741.13 414.41 741.05 414.59 741 414.71 733.94 424.47 730.72 431.33 730.62 431.35 728.32 431.64 727.16 431.78 726.87 431.82 724.98 437.92 725.51 444.04 Z" id="강동구"/>
<path d="M 531.49 170.94 533.9 173.78 534.02 173.91 534.8 174.71 534.96 174.87 535.85 175.52 535.96 175.6 536.3 175.85 536.6 176.03 536.65 176.06 537.19 176.39 538.17 176.98 538.58 177.21 538.68 177.27 539.59 177.89 540.11 178.25 540.19 178.33 541.03 179.24 542.27 181.2 543.71 183.51 545.06 186.08 541.44 188.66 541.2 188.84 541.05 188.95 539.57 190.06 539.18 190.45 539.16 190.47 538.99 190.65 538.92 190.72 538.1 191.75 538.04 191.83 537.38 192.95 537.34 193.02 536.42 195.15 536.4 195.2 535.48 197.35 535.37 197.6 534.11 199.31 533.9 199.57 530.89 202.22 526.12 206.77 521.03 213.65 508.13 222.29 507.69 214.42 501.1 213.57 492.56 216.67 491.91 214.4 489.6 213.96 489.34 213.86 489.15 213.79 489.13 213.78 489.08 213.76 487.41 211.99 483.66 208.89 482.86 208.51 482.8 208.51 482.7 208.59 477.9 208.61 466.67 199.32 465.09 196.78 464.05 194.69 464.03 193.85 464.42 192.57 464.9 190.43 465.22 188.86 465.44 186.91 465.43 186.41 465.42 186.36 465.42 186.27 460.29 186.29 450.82 181.89 449.06 180.98 444.34 175.07 443.84 174.05 441.73 171.25 439.28 169.15 437.71 167.9 430.48 162.22 423.75 157.87 422.75 157.45 420.51 156.55 423.72 146.35 420.69 143.86 419.88 142.65 418.79 138.97 419.23 138.35 420.05 137.58 420.61 136.77 421.47 135.02 422.03 133.28 421.63 130.44 421.43 129.57 420.19 124.79 417.09 120.83 414.73 117.33 413.57 114.75 413.1 113.48 412.66 112.28 412.13 109.35 415.06 108.29 418.22 108.4 424.27 102.47 425.21 101.28 425.27 101.18 426.68 98.51 426.59 97.92 426.7 97.15 426.86 96.08 427.72 91.35 428.16 90.41 428.62 89.45 429.66 89.27 430.87 89.13 431.02 89.14 431.91 89.21 436.15 87.48 437.15 86.76 439.58 83.78 439.8 83.19 440.25 76.54 439.62 64.34 438.26 57.74 437.71 55.21 437.66 54.95 436.29 53.02 438.79 52 439.87 51.37 444.95 46.45 445.4 45.84 458.29 40.98 459.92 40.11 467.65 41.64 467.17 44.55 467.99 50.86 468.93 53.3 469.51 53.45 470.26 53.64 472.82 54.29 477.62 62.31 481.89 66.91 483.36 70.09 485.09 74.52 485.68 74.76 486.48 74.32 486.56 74.27 486.63 75.23 486.22 77.59 485.97 79 484.37 80.53 483.53 80.97 482.55 81.38 481.7 82.43 480.93 83.49 480.36 85.69 480.24 86.27 480.12 86.94 480.05 90.57 480.05 91.54 481.22 93.62 481.63 94.19 481.67 94.24 482.52 95.04 483.01 95.05 482.28 96.24 481.71 96.83 481.37 96.98 481.09 97.07 480.46 97.04 479.92 96.94 479.86 96.93 479.25 96.43 479.21 96.39 479.03 96.97 478.12 100.14 477.47 102.53 474.9 115.94 474.68 117.23 474.45 118.97 474.57 119.72 475.29 122.36 475.34 122.43 475.74 123.01 479.44 125.88 480.28 126.24 480.34 126.26 482.05 126.93 483.01 127.22 483.08 127.24 483.66 127.42 484.55 127.48 484.87 127.48 485.31 127.47 486.04 127.32 486.4 127.24 486.5 127.22 486.58 127.2 486.95 127.1 487.32 126.98 488.03 126.76 488.04 126.76 488.22 126.7 489.16 126.41 489.97 126.43 489.97 126.43 490.44 126.53 490.5 126.54 490.97 126.64 491.52 126.92 497.66 130.62 498.56 132.38 498.89 132.91 509.34 141.39 509.35 141.4 509.92 141.85 510.85 142.61 511.05 142.77 511.41 143.07 512.26 143.84 512.44 144.06 513.09 144.91 513.1 144.93 513.52 145.82 513.77 146.34 514.02 146.94 514.06 147.03 514.19 147.33 515.03 149.8 515.53 151.26 515.56 151.34 516.03 152.7 516.17 153.09 516.34 153.6 516.74 154.12 517.35 154.73 517.45 154.83 517.61 154.9 517.82 154.99 517.95 155.05 518.77 155.42 519.03 155.53 519.19 155.6 519.86 155.82 522.06 157.29 523.93 163.46 529.94 170.39 531.26 171.18 531.49 170.94 Z" id="강북구"/>
<path d="M 171.05 309.53 177.8 316.94 188.86 325.91 190.34 327.14 191.91 328.31 195.02 330.61 195.5 330.87 195.93 331.1 201.84 334.22 207.82 337.89 221.9 347.03 219.64 350.49 219.54 350.66 217.22 354.75 217.23 355.39 217.23 355.57 217.23 355.95 217.25 356.5 217.28 357.94 222.15 366.36 221.37 367.45 216.98 368.95 213.81 369.11 213.06 369.14 211.37 369.23 210.4 369.28 210.19 369.29 209.77 369.29 209.53 369.29 209.35 369.29 209.05 369.27 208.93 369.26 208.85 369.26 208.51 369.23 208.1 369.18 207.79 369.13 207.68 369.11 207.27 369.04 206.86 368.95 206.74 368.92 206.45 368.84 206.15 368.75 206.05 368.72 205.65 368.59 205.26 368.44 204.87 368.29 204.48 368.11 204.11 367.93 203.73 367.73 203.37 367.52 203.26 367.46 203.2 367.42 192.41 359.47 191.34 358.86 190.87 359.07 190.85 359.08 190.78 359.32 190.11 361.94 189.4 364.68 188.08 369.87 186.77 375.01 186.75 375.31 186.76 375.82 186.8 376.08 186.84 376.35 187.05 376.99 188.01 379.25 188.15 379.56 188.17 379.6 188.22 379.72 188.33 379.9 188.59 380.33 188.9 380.83 189.39 381.64 189.81 383.69 189.84 383.87 189.87 384.06 189.88 384.25 189.89 384.44 189.89 384.59 189.89 384.63 189.88 384.81 189.86 385.11 189.82 385.67 189.69 387.43 189.68 387.48 189.21 396.29 190.07 410.19 190.06 410.21 179.6 411.79 167.16 413.65 161.3 414.53 161.26 414.54 145.32 417.8 145.2 417.7 139.17 405.09 135.6 397.54 135.44 397.21 134.05 394.26 133.87 393.87 135.29 392.78 132.61 385.7 131.49 381.08 131.45 380.93 129.66 381 126.58 381.11 125.58 379.28 125.04 376.39 125.04 376.22 125.06 375.84 125.12 375.05 125.86 370.48 125.32 367.99 125.26 367.13 124.83 366.85 121.12 366.86 120.95 367.1 120.76 367.45 117.9 373.62 117.7 374.07 117.7 374.09 117.68 374.12 117.35 375.13 117.25 375.92 117.75 376.7 117.94 377.33 118.08 378.18 116.83 381.16 116.04 381.49 115.03 381.9 114.97 381.92 114.92 381.94 114.86 381.93 110.51 383.58 109.97 383.52 109.44 383.47 108.26 383.39 107.86 383.38 106.83 383.37 106.08 383.38 105.18 383.39 102.48 383.56 100.42 383.72 100.18 383.76 99.94 383.79 99.45 383.81 97.61 383.74 94.12 383.57 93.75 383.55 93.24 383.5 91.87 383.31 83.51 377.19 83.1 376.81 82.72 376.52 82.51 376.43 82.32 376.4 82.22 376.4 82.13 376.4 82.01 376.39 81.39 376.39 76.83 377.19 74.32 377.8 71.94 378.42 71.61 378.67 71.11 379.1 69.29 380.67 66.99 383.37 66.49 384.31 66.19 384.9 66.08 385.82 66.25 386.33 67.01 387.58 67.33 390.23 67.3 390.33 66.59 390.71 62.61 391.89 58.38 394.48 57.89 394.71 57.68 394.8 57.67 394.8 57.57 394.5 56.82 391.13 56.56 384.82 57.61 381.35 50.46 375.37 43.61 370.39 40.82 370.32 37.9 370.28 36.39 370.18 26.4 368.62 24.35 365.16 24.22 364.92 22.35 363.56 22.07 363.38 21.95 363.32 21.67 363.17 21.47 363.07 20.6 363.06 19.14 363.19 18.86 363.21 18.2 363.28 17.85 363.32 17.03 363.43 16.3 363.55 16.17 363.65 15.89 363.95 15.69 364.13 15.1 364.44 14.84 364.55 14.59 364.6 14.33 364.57 14.22 364.48 6.61 355.82 6.45 352.99 4.55 351.46 4.26 350.31 1.2 348.05 1.02 347.82 1 347.59 1.14 347.41 6.37 344.63 9.73 343.48 9.75 343.47 9.82 343.46 9.84 343.45 9.92 343.43 11.51 343.24 12.21 343.24 12.87 343.28 17.66 338.34 22.17 332.29 22.36 332.13 22.59 332.02 23.26 332.22 24.54 334.08 25.59 335.94 25.68 336.03 26.42 336.79 26.52 336.86 26.66 336.56 26.71 336.33 26.7 336.17 26.7 336.02 26.52 334.84 25.95 332 25.07 327.83 21.86 322.76 21.41 321.8 20.78 319.16 20.8 318.21 21.99 317.01 22.28 316.89 22.29 317.84 22.18 318.58 22.01 319.15 25.02 321.44 31.66 317.7 32.87 315.7 33.33 312.4 34.95 305.24 35.02 305.09 35.37 304.37 35.47 304.2 40.9 301.23 44.41 299.91 44.79 299.77 45.31 299.59 47.49 296.07 51.98 287.15 52.59 286.1 53.17 286.11 54.24 288.61 57.1 285.24 57.2 281.78 56.67 278.23 65.02 273.04 69.98 270.29 70.3 270.38 70.63 270.39 71.01 269.61 71.46 266.67 69.84 260.33 66.77 256.41 66.39 255.97 66.12 255.64 65.94 255.41 65.84 255.27 65.68 255.03 65.18 254.19 65 253.87 64.88 253.67 64.79 253.49 64.69 253.27 64.62 253.1 64.57 252.95 64.54 252.82 64.5 252.6 64.03 248.45 64.02 248.3 63.86 246.83 63.84 246.64 65.48 241.21 65.54 241.1 65.73 240.75 69.37 235.18 70.21 234.19 71.5 232.69 74.44 229.26 86.62 239.86 87.21 240.41 87.27 240.46 89.49 242.49 91.06 243.92 92.98 245.18 95.95 247.17 102.71 252.7 104.29 255.51 104.89 256.58 107.47 259.74 111.42 262.94 112.42 263.75 114.28 265.26 117.25 267.66 121.87 271.33 129.96 275.88 135 279.8 138.91 282.8 139.85 283.52 149.81 291.5 159.83 300.13 161.11 301.4 166.72 305.79 171.05 309.53 Z" id="강서구"/>
<path d="M 413.64 539.07 413.66 539.64 413.72 540.51 413.86 542 413.91 542.55 414.46 545.58 414.47 545.65 414.51 545.8 414.76 546.48 414.95 547.01 415.27 547.86 415.49 548.44 415.78 549.2 416 549.77 416.47 550.95 417.46 552.67 418.64 554.7 419.26 555.08 420.8 556.69 423.51 559.67 424.08 560.32 424.21 560.47 425.39 564.49 425.6 565.5 425.71 566.25 426.15 569.13 426.12 569.43 426.07 569.93 425.99 570.46 425.47 572.79 424.77 575.91 424.65 576.52 424.54 577.32 424.55 577.89 424.58 578.34 424.7 579.02 424.77 579.3 424.92 579.8 425.19 580.44 425.37 580.77 426.63 583.1 424 584.44 420.19 585.42 418.52 585.59 415.65 586.24 414.02 586.63 399.78 591.93 394.35 598.31 392.06 603.77 390.2 604.61 388.41 605.42 386.5 606.3 380.04 611.32 379.36 613.76 379.35 613.84 380.06 618.04 380.17 620.16 379.04 624.43 377.72 625.41 377.47 625.59 377.39 625.64 369.85 628.36 364.83 629.22 351.31 630.35 349.16 629.42 344.42 632.57 343.3 633.08 333.99 636.32 332.36 635.56 330.86 634.62 329.29 632.29 328.4 629.3 328.38 628.59 328.37 628.02 328.36 627.91 328.66 627.52 329.22 626.78 329.26 626.7 329.56 625.56 329.33 625.18 328.59 623.94 327.33 621.96 327.26 621.84 323.94 618.31 323.09 618.19 315.69 612.86 315.67 612.82 315.62 612.66 315.39 612.02 315.26 611.66 314.96 610.68 315.34 608.39 311.65 601.48 311.83 600.81 311.86 600.68 311.76 600.04 311.6 599.56 306.45 594.94 306.32 594.88 306.01 594.75 305.9 594.78 305.16 595.02 305.03 595.06 304.84 595.12 304.78 595.13 302 591.81 301.57 591.08 299.89 586.06 290.29 584.13 285.73 584.12 284.36 582.89 284.27 573.09 282.42 569.2 282.41 569.13 282.34 568.61 282.3 568.27 282.31 568.17 282.35 567.94 282.39 567.72 283.89 564.78 283.58 564.82 281.4 563.76 279.96 561.5 274.57 549.62 273.46 547.44 278.33 545.24 278.86 544.53 279.51 543.12 280.4 537.51 280.47 535.2 280.03 534.48 277.88 533.9 277.1 534.12 276.64 534.24 276.26 534.48 276.06 534.6 275.82 534.39 274.86 532.86 274.57 532.39 274.42 532.14 274.5 531.37 275.12 529.9 276.6 528.12 272.01 529.15 268.27 529.82 268.18 529.75 267.93 529.63 265.39 530.2 265.25 530.23 259.61 531.49 259.58 531.5 257.99 531.87 255.91 532.36 256 531.86 256.04 531.69 256.08 531.52 256.12 531.36 256.2 531.03 256.25 530.86 256.3 530.7 256.35 530.54 256.4 530.38 256.46 530.22 256.52 530.05 256.58 529.89 256.64 529.74 256.7 529.58 256.77 529.42 256.84 529.26 256.91 529.11 256.92 529.08 257.05 528.8 257.18 528.54 257.22 528.47 257.29 528.35 257.37 528.2 257.46 528.05 257.54 527.9 257.63 527.76 258.08 527.03 260.01 524.11 264.11 517.9 268.55 518.14 268.97 518.14 269.64 518.04 278.27 515.46 279.53 514.97 280.77 514.38 281.51 513.77 282.92 512.37 288.5 507.96 292.13 506.3 292.15 506.3 292.51 506.17 293.43 505.9 293.6 505.9 298.16 504.63 304.13 506.24 304.15 505.68 304.17 505.36 304.19 505.31 309.19 496.06 310.58 494.27 311.37 494.08 315.07 496.67 317.87 498.46 319.92 499.41 327.76 501.62 329.14 501.76 330.77 500.93 331.06 500.69 333.96 499.62 335.43 499.5 341.45 500.67 347.67 496.57 349.79 497.52 351.2 498.86 352.61 499.83 353.36 500.23 361.37 504.27 365.09 502.96 366.19 502.74 366.2 502.74 367 502.36 367.68 501.83 369.99 499.92 370.02 499.6 370.34 498.48 370.48 498 371.3 497.48 371.95 497.51 372.05 497.52 373.06 497.63 373.62 498.07 374.51 498.81 375.13 499.73 375.05 500.68 374.79 503.54 375.53 508.85 375.95 513.47 376.08 517.82 374.43 521.68 374.42 521.77 374.41 522.03 376.26 524.73 378.26 526.81 379.85 528.19 381.46 531.75 381.78 531.89 383.08 532.43 384.37 533.09 387.09 535.7 388 537.11 389.24 538.84 391.5 539 391.73 539.01 391.89 539.02 392.32 541.71 393.15 541.47 395.06 540.91 395.64 540.74 396.17 540.61 399.51 539.78 407.25 538.77 413.64 539.07 Z" id="관악구"/>
<path d="M 668.99 348.24 668.21 350.49 666.67 354.86 665.78 356.4 661.93 363.17 661.93 363.48 661.88 365.58 661.84 367.72 661.79 369.79 661.75 371.75 657.46 380.74 656.87 382.09 656.13 383.76 655.62 384.94 647.61 392.87 643.66 396.77 628.82 411.41 623.14 416.99 620.29 419.64 615.86 422.39 613.98 423.56 613.17 424.06 612.3 424.6 601.5 428.89 597.87 429.53 595.74 429.91 595.72 429.91 595.41 429.85 592.72 429.39 590.72 429.04 590.27 428.9 587.87 428.16 587.07 427.91 577.71 424.87 573.84 423.73 571.46 422.58 556.3 415.8 558.34 411.22 558.76 410.29 559.46 408.72 559.55 408.52 560.84 405.63 562.19 402.62 562.65 401.67 562.72 401.52 562.88 401.18 563.51 399.8 563.76 399.25 566.41 393.4 569.07 387.5 571.3 382.6 577.95 368.03 587.24 347.61 590.01 341.55 587.44 340.23 589.56 333.16 591.8 327.62 594.03 324.28 598.65 311.77 603.25 312.35 613.77 314.31 617.63 314.31 617.76 314.81 617.83 315.04 618.04 315.9 618.15 315.93 622.03 317.08 628.26 315.01 630.99 314.7 639.09 309.87 641.5 307.83 641.86 307.43 643.33 310.7 646.12 311 647.12 311.87 647.15 311.89 648.2 313.14 647.58 314.97 647.48 315.28 645.79 321.25 643.16 332.5 642.34 336.6 642.26 337.23 642.18 337.86 642.19 337.93 642.2 337.98 642.47 339.26 642.7 339.78 642.96 340.37 642.97 340.38 643.26 341 643.46 341.42 643.57 341.59 644.15 342.11 649.38 348.97 650.29 349.18 651.15 349.13 651.5 349.11 652.18 348.89 653.61 347.35 653.98 346.74 654.33 346.16 654.58 345.91 656.28 344.64 658.16 343.9 663.44 342.86 663.64 342.93 664.09 343.09 664.29 343.16 664.7 343.36 668.99 348.24 Z" id="광진구"/>
<path d="M 210.24 455.99 210.3 455.94 210.47 455.78 210.59 455.56 210.71 454.95 210.24 455.99 210.14 456.07 209.86 456.2 209.45 456.23 209.22 456.14 208.93 455.86 208.87 455.77 208.86 454.6 208.88 454.58 210.82 452.14 210.98 451.93 211.14 451.86 211.35 452.24 211.41 452.35 211.63 452.48 211.93 452.54 212.19 452.48 212.36 452.37 212.9 451.96 213.09 451.73 215.82 447.98 215.71 447.04 218.76 438.96 219.51 439.06 225.04 443.52 225.57 443.98 225.57 444.36 225.56 445.16 225.56 445.43 228.79 448.62 228.92 448.71 229.14 448.86 232.23 449.64 235.84 451.33 238.81 453.3 243.29 459.27 243.79 460.11 243.68 460.17 246.39 468.48 246.84 469.89 246.83 469.96 246.83 469.98 246.75 470.35 245.43 472.65 245.25 472.91 244.59 473.59 247.01 487.73 247.19 488.95 249.36 500.97 249.39 501.12 249.65 502.52 251.23 508.24 254.51 513.21 255.36 513.85 255.47 513.92 257.63 515.29 258.2 515.63 258.32 515.7 260.42 516.7 260.61 516.78 261.11 516.98 263.28 517.86 263.35 517.87 263.6 517.88 263.79 517.89 264.02 517.9 264.11 517.9 260.01 524.11 258.08 527.03 257.63 527.76 257.54 527.9 257.46 528.05 257.37 528.2 257.29 528.35 257.22 528.47 257.18 528.54 257.05 528.8 256.92 529.08 256.91 529.11 256.84 529.26 256.77 529.42 256.7 529.58 256.64 529.74 256.58 529.89 256.52 530.05 256.46 530.22 256.4 530.38 256.35 530.54 256.3 530.7 256.25 530.86 256.2 531.03 256.12 531.36 256.08 531.52 256.04 531.69 256 531.86 250.7 533.3 250.04 533.76 239.93 531.47 238.64 531.17 238.58 531.15 236.55 530.2 236.53 530.18 236.3 530.01 235.75 529.59 235.54 529.43 235.47 529.37 235.06 529.04 234.77 528.8 234.55 528.63 234.5 528.55 234.43 528.44 234.21 528.09 234.03 527.82 233.93 527.67 233.88 527.59 233.49 526.97 233.32 526.71 232.97 526.15 232.25 525.04 232.06 524.75 231.74 524.28 231.58 524.04 231.48 523.94 231.06 523.52 230.79 523.25 225.2 518.37 224.93 518.15 224.51 517.83 224.05 517.47 222.72 516.47 222.48 516.29 221.75 515.97 221.59 515.89 218.75 514.61 209.52 516.67 210.19 516 212.8 512.21 213.62 510.75 213.76 510.12 213.84 509.55 213.83 509.03 213.6 508.65 213.06 508.14 212.41 507.88 212.32 507.89 212.28 507.9 211.98 507.93 209.87 508.99 206.75 509.75 206.51 509.63 201.54 506.62 201.34 506.5 201.23 506.33 201.16 506.2 200.68 504.82 199.73 500.69 199.75 499.01 199.76 498.88 200.03 495.16 196.39 493.97 196.43 494.27 193.69 499.4 190.48 502.58 187.63 503.34 187.43 503.39 187.22 503.45 187.07 503.51 186.79 503.61 186.41 503.8 186 504.04 185.84 504.15 185.57 504.35 185.34 504.54 185.22 504.64 184.94 504.93 184.67 505.26 184.48 505.49 184.44 505.55 184 506.16 183.97 506.21 183.94 506.26 183.79 506.47 183.78 506.49 183.14 507.4 182.7 508.02 182.18 508.76 181.47 509.77 180.39 511.3 179.02 513.23 178.4 514.09 178.19 514.38 177.91 514.74 177.65 514.98 177.26 515.26 176.98 515.4 176.91 515.43 176.61 515.51 176.47 515.52 176.22 515.55 175.62 515.6 175.37 515.62 175.2 515.63 175.18 515.63 169.33 522.97 167.8 524.89 167.64 524.96 167.58 524.98 166.59 525.25 165.99 525.39 165.82 525.42 165.72 525.43 164.53 525.56 164.25 525.57 163.98 525.56 163.74 525.53 163.44 525.46 161.38 524.78 156.9 524.63 156.17 525.16 156.08 525.25 156.01 525.33 155.82 525.55 155.8 525.58 155.52 526.04 155.43 526.19 155.1 526.94 155.02 527.24 155 527.39 154.98 527.49 154.97 527.58 154.96 527.61 154.87 528.4 153.82 542.4 153.68 543.84 153.67 543.95 153.04 544.56 151.45 543.45 151.01 542.33 149.4 541.39 149.34 541.36 149.1 541.26 148.77 541.14 140.46 540.14 140.16 540.11 136.05 541.76 133.24 542.35 130.26 535.57 127.78 534.58 123.72 536.36 117.31 537.98 111.42 538.12 107.56 537.67 104.56 537.52 104.26 537.58 104.04 537.67 104.02 537.68 103.73 537.87 103.6 538.04 102.32 540.92 102.72 542.95 100.81 545.07 99.96 544.88 99.74 544.83 96.69 542.98 95.09 541.53 95.29 540.56 95.76 538.64 96.25 537.71 96.39 537.44 98.54 534.65 99.79 533.49 100.08 533.23 100.29 533.22 102.07 533.17 102.3 532.8 103.08 531.51 103.5 530.79 104.22 529.12 104.56 528.02 105.43 524.86 105.43 524.75 108 514.03 110.28 512.27 112.4 510.32 112.35 510.24 111.37 508.78 107.11 503.6 107.35 503.16 106.26 503.12 106.01 503.07 105.9 503.04 105.7 502.98 101.6 501.16 95.31 497.14 92.39 489.45 94.57 485.33 94.68 485.19 94.85 484.99 96.48 485.62 96.73 485.81 96.83 485.88 97.67 486.51 98.29 486.51 98.53 486.43 99.09 486.2 103.68 483.91 105.07 482.81 108.79 475.79 110.73 467.35 110.67 466.6 110.63 466.35 110.36 465.82 114.86 461.07 119.03 460.64 119.24 460.61 120.67 460.12 121.47 460.03 125.59 461.32 126.21 461.52 126.9 461.98 126.9 462.34 126.26 464.52 126.21 464.62 126.11 465.96 128.06 468.92 128.84 470.03 132.48 473.08 134.99 474.39 136.69 474.01 137.11 473.92 143.16 470.52 152.41 467.71 152.91 467.48 152.31 465.61 153.23 463.55 153.85 462.63 154.18 462.57 154.09 462.19 155.97 459.81 157.35 458.82 157.9 458.49 168.67 455.89 170.84 457.08 178.79 457.88 180.48 460.91 186.28 464.07 187.21 465.29 187.64 465.69 187.17 466.05 187.31 467 187.4 467.3 187.43 467.38 187.52 467.6 188.07 468.55 188.12 468.63 188.27 468.88 188.41 469.1 188.47 469.18 188.55 469.26 188.81 469.42 190.95 469.87 199.26 469.95 199.53 469.93 199.63 469.84 200.05 469.4 200.73 468.68 201.67 467.64 201.68 467.63 202.25 467.75 202.31 467.77 202.39 467.82 203.45 469.32 203.88 469.99 204.61 471.46 204.7 471.73 207.93 473.12 207.95 473.11 210.14 465.78 209.75 463.96 208.44 460.53 208.43 460.37 208.42 460.29 208.43 460.04 208.55 459.71 210.24 455.99 Z" id="구로구"/>
<path d="M 209.52 516.67 218.75 514.61 221.59 515.89 221.75 515.97 222.48 516.29 222.72 516.47 224.05 517.47 224.51 517.83 224.93 518.15 225.2 518.37 230.79 523.25 231.06 523.52 231.48 523.94 231.58 524.04 231.74 524.28 232.06 524.75 232.25 525.04 232.97 526.15 233.32 526.71 233.49 526.97 233.88 527.59 233.93 527.67 234.03 527.82 234.21 528.09 234.43 528.44 234.5 528.55 234.55 528.63 234.77 528.8 235.06 529.04 235.47 529.37 235.54 529.43 235.75 529.59 236.3 530.01 236.53 530.18 236.55 530.2 238.58 531.15 238.64 531.17 239.93 531.47 250.04 533.76 250.7 533.3 256 531.86 255.91 532.36 257.99 531.87 259.58 531.5 259.61 531.49 265.25 530.23 265.39 530.2 267.93 529.63 268.18 529.75 268.27 529.82 272.01 529.15 276.6 528.12 275.12 529.9 274.5 531.37 274.42 532.14 274.57 532.39 274.86 532.86 275.82 534.39 276.06 534.6 276.26 534.48 276.64 534.24 277.1 534.12 277.88 533.9 280.03 534.48 280.47 535.2 280.4 537.51 279.51 543.12 278.86 544.53 278.33 545.24 273.46 547.44 274.57 549.62 279.96 561.5 281.4 563.76 283.58 564.82 283.89 564.78 282.39 567.72 282.35 567.94 282.31 568.17 282.3 568.27 282.34 568.61 282.41 569.13 282.42 569.2 284.27 573.09 284.36 582.89 285.73 584.12 290.29 584.13 299.89 586.06 301.57 591.08 302 591.81 304.78 595.13 304.84 595.12 305.03 595.06 305.16 595.02 305.9 594.78 306.01 594.75 306.32 594.88 306.45 594.94 311.6 599.56 311.76 600.04 311.86 600.68 311.83 600.81 311.65 601.48 311.56 602.23 311.5 602.75 311.46 603.06 311.41 603.53 303.19 611.01 301.77 612.04 301.08 613.47 301.17 614.19 301.08 614.67 300.81 616.18 299.35 618.07 296.83 622.19 291.98 625.59 285.69 627.2 283.82 627.41 282.47 627.91 280.79 629.13 279.1 631.41 278.66 632.42 278.65 632.45 278.52 635.35 276.37 639.29 276.13 639.52 275.7 639.92 275.18 640.38 275.16 640.39 273.47 640.8 271.07 641.19 269.83 640.99 263.86 639.6 260.82 634.23 255.68 628.76 255.36 628.68 256.54 624.7 254.49 619.11 249.37 612.05 249.14 605.68 247.21 598.81 246.05 595.07 241.92 596.08 240.45 596.17 238.03 596.08 237.76 595.98 237.61 595.7 237.59 595.57 237.54 595.25 237.51 595.05 237.57 594.47 237.69 594 237.79 593.58 237.83 593.13 237.83 593.09 237.8 592.91 237.77 592.82 237.69 592.66 236.35 590.19 235.22 589.13 231.48 586.43 231.39 586.25 231.24 585.86 230.67 583.5 229.7 578.64 229.67 578.4 229.69 577.97 229.7 577.86 229.79 577.51 229.88 577.23 230.02 576.92 230.28 576.5 231.09 575.48 231.2 575.39 231.34 575.35 231.44 575.32 233.76 575.01 233.81 575.01 234.16 575.08 234.39 575.14 234.5 575.17 234.68 575.28 235.4 575.7 235.97 575.68 236.23 575.58 236.39 575.37 236.44 575.31 235.79 574.38 234.99 573.24 233.12 570.6 232.97 570.6 232.74 570.63 232.21 570.68 231.45 570.84 231 570.97 230.67 571.07 229.3 571.61 225.01 567.3 228.31 564 226.91 561.45 222.56 555.24 220.06 551.29 219.44 550.12 219.27 549.84 219.01 549.41 218.84 549.14 217.72 547.31 217.29 546.61 216.75 545.72 215.92 544.34 213.19 538.71 212.41 537.09 212.11 536.47 210.86 533.43 210.77 533.2 210.19 531.75 208.92 528.61 208.46 527.16 207.23 523.68 206.02 523.69 206.09 522.81 206.12 521.15 204.25 517.52 204.24 517.42 204.19 516.87 205.51 514.87 205.94 514.61 206.06 514.56 206.37 514.54 206.65 514.67 206.83 514.78 209.52 516.67 Z" id="금천구"/>
<path d="M 651.22 195.9 650.06 196.68 650 196.72 643.82 198.02 642.29 198.18 638.4 195.79 630.1 199.07 630.07 199.08 624.24 199.16 621.08 197.81 614.14 195.93 605.75 198.57 594.55 203.12 589.61 204.51 587.25 204.79 587.03 204.84 586.62 204.97 586.16 205.11 585.81 205.31 585.76 205.33 583.87 207.39 583.62 207.43 575.53 208.49 570.64 210.15 568.86 210.03 568.45 209.91 568.32 209.85 568.2 209.79 567.81 209.6 567.33 209.31 567.24 209.26 566.68 208.8 559.59 202.41 553.92 196.88 553.85 196.81 553.63 196.56 553.27 196.15 553.18 196.03 552.9 195.64 552.69 195.37 552.57 195.19 545.06 186.08 543.71 183.51 542.27 181.2 541.03 179.24 540.19 178.33 540.11 178.25 539.59 177.89 538.68 177.27 538.58 177.21 538.17 176.98 537.19 176.39 536.65 176.06 536.6 176.03 536.3 175.85 535.96 175.6 535.85 175.52 534.96 174.87 534.8 174.71 534.02 173.91 533.9 173.78 531.49 170.94 529.76 168.79 531.74 166.03 531.95 165.85 532.24 165.68 532.56 165.49 533.31 164.91 534.1 164 534.12 163.97 534.24 163.76 534.62 162.82 536.11 158.78 536.27 157.86 536.28 157.36 536.23 156.76 538.98 150.56 539.61 149.12 541.51 145.04 546.7 136.89 547.9 136.69 548.37 136.92 549.57 140.51 549.95 141.59 550.19 142.2 550.36 142.57 551.18 144.14 551.31 144.33 551.4 144.46 551.5 144.58 552.11 145.32 552.2 145.43 552.7 146.02 554.59 148.01 554.73 148.16 554.81 148.12 556.73 146.99 556.18 146.25 556.13 146.18 555.5 145.32 555.48 145.14 555.39 144.21 555.33 143.6 555.26 142.85 555.57 140.23 555.57 140.2 555.66 139.94 555.82 139.48 556.39 137.86 556.52 137.5 556.52 137.48 556.58 136.93 556.72 135.56 556.85 134.23 556.9 133.69 556.94 133.25 556.94 133.22 556.98 132.7 556.98 132.61 556.96 132.46 556.89 131.62 556.8 131.21 556.72 130.89 556.2 128.84 556.17 128.76 555.77 127.9 555.62 127.59 554.9 126.08 554.41 125.17 554.23 124.87 553.87 124.26 553.82 124.18 553.54 123.6 553.37 123.24 553.37 123.23 553.36 123.21 553.13 121.84 553.12 121.8 552.97 119.64 552.97 119.61 553.48 115.63 553.61 113.78 553.6 113.54 553.53 111.85 552.42 106.57 552.41 106.54 549.36 99.14 549.2 96.02 549.16 92.76 549.15 92.54 549.12 91.14 549.12 91.05 549.03 91.05 548.41 91.05 548.22 91.05 544.09 82.59 543.77 81.25 543.24 78.58 542.59 73.76 542.88 71.24 542.91 71 543.72 65.84 544.48 63.07 547.11 54.27 550.28 45.65 550.31 45.42 550.44 44.48 550.51 43.95 550.63 43.03 550.72 42.34 550.68 42.13 550.61 41.73 550.43 40.81 550.42 40.77 550.32 40.48 550.14 39.97 549.89 39.29 549.68 38.78 549.7 35.79 550.19 35.27 550.35 35.11 550.51 34.94 555.09 31.94 558.04 30.71 562.25 29.58 564.67 28.04 569.55 22.14 569.85 21.62 569.86 21.36 569.91 20.37 570.31 18.7 570.56 17.67 571.18 17.38 571.81 17.09 577.36 18.26 581.61 19.34 582.75 20.09 586.04 20.08 589.42 19.86 590.33 19.44 590.83 19.14 591.57 18.2 591.85 17.85 592.91 16.98 593.71 16.48 599.97 14.67 605.5 14.33 610.7 19.79 613.18 28.13 615.75 29.28 619.41 29.32 619.84 29.41 621.05 29.65 623.49 30.11 626.88 29.28 628.12 29.2 632.03 30.61 633.74 31.37 633.96 34.47 634.29 35.93 634.52 38.09 634.52 38.6 634.51 39.6 633.34 41.98 633.3 42.02 632.13 43.19 630.43 44.89 627.81 49.35 625.93 54.99 625.92 56.18 626.38 57.77 626.93 58.7 627.19 59.1 628.92 60.87 629.73 63.56 633.08 75.54 631.4 83.55 630.81 86.17 630.98 89.17 632.36 91.65 629.94 93.05 629.1 94.63 628.25 96.21 626.17 99.03 624.32 102.51 624.17 105.13 625 106.26 626.46 111.72 629.41 117.79 629.58 118.35 629.64 118.8 629.63 119.09 629.56 119.39 628.15 123.4 627.18 124.76 626.62 125.56 627.04 128.27 630.21 136.96 630.56 137.88 636.24 139.36 638.81 139.2 643.92 137.46 646.23 136.43 651.01 135.98 651.78 136 652.4 136.02 653.41 136.05 654.6 136.6 655.53 137.04 655.75 137.49 656.92 139.44 658.55 142.1 659.7 142.99 662.29 143.27 662.6 143.97 664.56 157.37 663.99 166.58 662.89 169.3 662.39 169.96 661.35 171.02 657.64 174.55 654.09 177.54 653.87 177.65 652.06 179.24 648.91 188.95 648.4 192.81 648.4 192.82 648.41 192.82 650 193.03 650.89 194.63 651.04 194.94 651.42 195.79 651.22 195.9 Z" id="노원구"/>
<path d="M 549.68 38.78 549.89 39.29 550.14 39.97 550.32 40.48 550.42 40.77 550.43 40.81 550.61 41.73 550.68 42.13 550.72 42.34 550.63 43.03 550.51 43.95 550.44 44.48 550.31 45.42 550.28 45.65 547.11 54.27 544.48 63.07 543.72 65.84 542.91 71 542.88 71.24 542.59 73.76 543.24 78.58 543.77 81.25 544.09 82.59 548.22 91.05 548.41 91.05 549.03 91.05 549.12 91.05 549.12 91.14 549.15 92.54 549.16 92.76 549.2 96.02 549.36 99.14 552.41 106.54 552.42 106.57 553.53 111.85 553.6 113.54 553.61 113.78 553.48 115.63 552.97 119.61 552.97 119.64 553.12 121.8 553.13 121.84 553.36 123.21 553.37 123.23 553.37 123.24 553.54 123.6 553.82 124.18 553.87 124.26 554.23 124.87 554.41 125.17 554.9 126.08 555.62 127.59 555.77 127.9 556.17 128.76 556.2 128.84 556.72 130.89 556.8 131.21 556.89 131.62 556.96 132.46 556.98 132.61 556.98 132.7 556.94 133.22 556.94 133.25 556.9 133.69 556.85 134.23 556.72 135.56 556.58 136.93 556.52 137.48 556.52 137.5 556.39 137.86 555.82 139.48 555.66 139.94 555.57 140.2 555.57 140.23 555.26 142.85 555.33 143.6 555.39 144.21 555.48 145.14 555.5 145.32 556.13 146.18 556.18 146.25 556.73 146.99 554.81 148.12 554.73 148.16 554.59 148.01 552.7 146.02 552.2 145.43 552.11 145.32 551.5 144.58 551.4 144.46 551.31 144.33 551.18 144.14 550.36 142.57 550.19 142.2 549.95 141.59 549.57 140.51 548.37 136.92 547.9 136.69 546.7 136.89 541.51 145.04 539.61 149.12 538.98 150.56 536.23 156.76 536.28 157.36 536.27 157.86 536.11 158.78 534.62 162.82 534.24 163.76 534.12 163.97 534.1 164 533.31 164.91 532.56 165.49 532.24 165.68 531.95 165.85 531.74 166.03 529.76 168.79 531.49 170.94 531.26 171.18 529.94 170.39 523.93 163.46 522.06 157.29 519.86 155.82 519.19 155.6 519.03 155.53 518.77 155.42 517.95 155.05 517.82 154.99 517.61 154.9 517.45 154.83 517.35 154.73 516.74 154.12 516.34 153.6 516.17 153.09 516.03 152.7 515.56 151.34 515.53 151.26 515.03 149.8 514.19 147.33 514.06 147.03 514.02 146.94 513.77 146.34 513.52 145.82 513.1 144.93 513.09 144.91 512.44 144.06 512.26 143.84 511.41 143.07 511.05 142.77 510.85 142.61 509.92 141.85 509.35 141.4 509.34 141.39 498.89 132.91 498.56 132.38 497.66 130.62 491.52 126.92 490.97 126.64 490.5 126.54 490.44 126.53 489.97 126.43 489.97 126.43 489.16 126.41 488.22 126.7 488.04 126.76 488.03 126.76 487.32 126.98 486.95 127.1 486.58 127.2 486.5 127.22 486.4 127.24 486.04 127.32 485.31 127.47 484.87 127.48 484.55 127.48 483.66 127.42 483.08 127.24 483.01 127.22 482.05 126.93 480.34 126.26 480.28 126.24 479.44 125.88 475.74 123.01 475.34 122.43 475.29 122.36 474.57 119.72 474.45 118.97 474.68 117.23 474.9 115.94 477.47 102.53 478.12 100.14 479.03 96.97 479.21 96.39 479.25 96.43 479.86 96.93 479.92 96.94 480.46 97.04 481.09 97.07 481.37 96.98 481.71 96.83 482.28 96.24 483.01 95.05 482.52 95.04 481.67 94.24 481.63 94.19 481.22 93.62 480.05 91.54 480.05 90.57 480.12 86.94 480.24 86.27 480.36 85.69 480.93 83.49 481.7 82.43 482.55 81.38 483.53 80.97 484.37 80.53 485.97 79 486.22 77.59 486.63 75.23 486.56 74.27 486.48 74.32 485.68 74.76 485.09 74.52 483.36 70.09 481.89 66.91 477.62 62.31 472.82 54.29 470.26 53.64 469.51 53.45 468.93 53.3 467.99 50.86 467.17 44.55 467.65 41.64 467.3 39.77 467.24 39.29 466.6 26.8 469.76 20.23 471.53 11.71 474.39 10.73 476.44 8.66 477.75 7.34 479.82 3.45 479.92 3.22 480.7 1 489.08 2.09 493.48 5.22 499.49 5.58 500.44 5.08 502.51 3.99 502.54 3.79 502.76 1.93 504.02 2.36 506.48 5.43 507.04 6.31 507.52 8.51 507.62 8.99 507.72 9.87 507.73 10.05 507.85 13.55 510.27 21.21 512.9 24.18 515.15 23.76 519.01 22.65 521.63 21.58 523.35 20.81 525.07 19.96 526.53 18.97 527.26 18.2 527.34 17.44 529.46 15.98 530.8 15.79 533.2 16.16 536.49 21.67 537.01 23 543.75 19.01 544.08 20.88 545.82 30.65 545.94 33.59 546.22 34.39 546.25 34.47 547.49 37.12 547.91 37.79 548.01 37.95 548.32 38.2 548.86 38.53 548.87 38.53 549.64 38.77 549.68 38.78 Z" id="도봉구"/>
<path d="M 598.65 311.77 594.03 324.28 591.8 327.62 589.56 333.16 587.44 340.23 586.72 339.9 582.54 338.36 576.11 337.17 562.86 334.72 562.73 334.7 561.52 334.48 559.98 333.01 559.7 332.74 554.3 327.63 549.29 322.88 542.3 316.25 542.18 316.14 542.05 316.01 541.88 315.86 541.44 315.44 541.03 315.06 535.26 311.89 532.29 310.28 530.78 309.48 525.96 308.74 522.35 310.47 521.67 310.46 521.3 310.46 520.43 310.46 520.2 310.46 519.78 310.51 519.54 310.54 519.51 310.54 518.93 310.65 518.93 310.65 518.82 310.67 518.63 310.72 518.56 310.74 518.24 310.85 518.17 310.87 518.15 310.88 517.84 310.99 517.73 311.04 517.71 311.04 517.64 311.07 517.51 311.13 517.31 311.22 517.28 311.23 517.06 311.35 516.96 311.4 516.62 311.58 516.53 311.62 515.74 312.04 514.84 312.53 510.97 315.63 510.65 315.78 510.5 315.85 509.83 316.15 509.76 316.17 509.55 316.23 509.37 316.27 509.25 316.3 509.24 316.3 509.11 316.31 508.74 316.34 508.68 316.34 508.51 316.34 508.06 316.33 507.65 316.3 507.42 316.28 507.39 316.27 497.73 313.74 494.29 311.19 494.23 311.17 493.88 296.55 496.31 293.77 506.12 285.45 509.02 281.41 516.99 271.29 517.15 271.1 517.63 270.5 517.79 270.21 518.34 269.18 519.14 267.66 519.08 266.94 518.96 265.32 518.95 265.18 523.78 264.97 528.23 254.68 531.93 251.39 540.15 253.41 540.34 252.62 545.93 242.73 547.22 241.39 547.57 241.27 547.79 241.52 549.27 243.86 553.87 242.15 559.01 240.68 564.45 239.28 565.91 235.83 567.68 233.08 568.55 232.01 568.75 231.94 568.84 231.92 569.02 231.88 572.25 231.18 574.62 231.13 579.34 225.57 581.25 222.79 582.21 222.77 582.24 222.77 582.24 224.55 585.44 226.14 585.47 226.75 585.47 226.85 585.53 227.45 585.54 227.56 585.64 228.37 586.03 231.47 586.31 233.27 586.54 233.94 586.59 234.09 586.81 234.71 586.92 235.02 587.02 235.31 587.06 235.39 588 237.71 588.81 241.2 588.82 241.37 588.82 241.82 588.76 242.07 588.71 242.26 588.68 242.38 588.57 242.65 588.39 243.06 588.11 243.71 588.07 243.81 587.13 245.28 587.1 245.33 586.91 245.58 586.73 245.83 586.19 246.54 585.66 247.08 585.52 247.22 584.63 247.87 582.19 255.55 584.3 262.25 584.3 262.27 584.32 266.22 586.29 273.12 587.33 280.22 593.13 289.86 594.2 290.02 594.31 290.25 594.37 290.37 594.47 290.57 594.59 290.83 594.71 291.1 594.77 291.25 594.81 291.38 594.89 291.6 594.91 291.66 595 291.94 595.09 292.22 595.16 292.5 595.23 292.79 595.29 293.08 595.34 293.37 595.38 293.66 595.41 293.89 596.17 301.45 597.72 310.5 598.61 311.73 598.65 311.77 Z" id="동대문구"/>
<path d="M 413.64 539.07 407.25 538.77 399.51 539.78 396.17 540.61 395.64 540.74 395.06 540.91 393.15 541.47 392.32 541.71 391.89 539.02 391.73 539.01 391.5 539 389.24 538.84 388 537.11 387.09 535.7 384.37 533.09 383.08 532.43 381.78 531.89 381.46 531.75 379.85 528.19 378.26 526.81 376.26 524.73 374.41 522.03 374.42 521.77 374.43 521.68 376.08 517.82 375.95 513.47 375.53 508.85 374.79 503.54 375.05 500.68 375.13 499.73 374.51 498.81 373.62 498.07 373.06 497.63 372.05 497.52 371.95 497.51 371.3 497.48 370.48 498 370.34 498.48 370.02 499.6 369.99 499.92 367.68 501.83 367 502.36 366.2 502.74 366.19 502.74 365.09 502.96 361.37 504.27 353.36 500.23 352.61 499.83 351.2 498.86 349.79 497.52 347.67 496.57 341.45 500.67 335.43 499.5 333.96 499.62 331.06 500.69 330.77 500.93 329.14 501.76 327.76 501.62 319.92 499.41 317.87 498.46 315.07 496.67 311.37 494.08 310.58 494.27 309.19 496.06 304.19 505.31 304.17 505.36 304.15 505.68 304.13 506.24 298.16 504.63 292.13 506.3 288.5 507.96 282.92 512.37 281.51 513.77 280.77 514.38 279.53 514.97 278.27 515.46 269.64 518.04 268.97 518.14 268.55 518.14 264.11 517.9 265.65 515.58 270.24 508.62 276.24 499.64 276.29 499.69 276.6 499.27 276.81 498.97 277.65 497.69 278.11 496.88 279.23 494.7 279.63 493.93 279.69 493.8 280.19 492.81 280.23 492.74 280.3 492.6 280.6 492.09 280.64 492.01 280.66 491.98 280.98 491.58 281.09 491.48 281.19 491.4 281.35 491.26 281.63 491.07 281.75 490.99 281.83 490.95 281.87 490.92 282.06 490.84 282.77 490.69 282.88 490.68 283.4 490.62 284.04 490.54 284.29 490.51 285.34 490.39 286.5 490.26 287.32 490.05 291.79 488.86 293.22 488.48 295.2 487.94 295.82 487.56 295.88 487.53 295.98 487.47 296.75 486.19 296.75 486.18 296.79 485.88 296.8 485.78 298.07 478.91 305.05 457.68 309.26 451.69 309.49 451.64 309.84 450.64 309.97 449.6 309.97 449.46 309.95 449.07 309.62 445.89 309.68 445.08 320.19 445.06 332.14 443.98 332.71 443.96 333.45 443.92 335.35 443.6 338.6 443.03 339.78 442.82 340.99 442.59 342.29 442.35 342.78 442.25 344.96 441.84 348.27 441.24 351.83 440.58 352.95 440.38 353.1 440.44 353.2 440.48 353.57 440.61 367.04 446.42 376.42 451.28 378.71 453.42 382.24 456.8 382.3 456.85 383.68 457.71 385.73 458.98 385.92 459.09 386.25 459.2 386.79 459.39 389.71 460.4 389.78 460.43 391.95 461.18 391.96 461.19 392.29 461.35 392.44 461.42 399.48 464.91 408.28 467.17 411.58 467.23 410.99 472.27 415.51 478.63 417.28 479.93 418.89 481.21 420.68 482.95 420.98 483.26 416.77 489.19 416.45 489.72 416.38 489.85 416.26 490.1 416.22 491.13 416.22 491.25 416.17 493.03 415.86 501.29 415.66 504.7 414.58 517.84 414.57 517.86 414.48 519.81 413.64 539.07 Z" id="동작구"/>
<path d="M 263.37 300.05 263.38 300.06 270.64 306.23 277.97 312.15 291.19 319.83 291.22 319.84 291.24 319.85 291.87 320.14 294.38 321.53 294.94 321.73 297.49 322.61 297.87 322.71 298.16 322.74 298.71 322.85 298.94 322.89 299.76 323.06 299.9 323.08 300.13 323.13 300.31 323.17 304.15 324.26 305.43 324.72 305.45 324.72 306.33 325.04 306.34 325.05 307.43 325.59 307.69 325.75 308.27 326.12 308.38 326.19 308.6 326.32 308.77 326.43 308.99 326.64 309.3 326.95 309.82 327.46 310.21 327.84 311.02 328.65 311.05 328.68 313.07 330.7 313.01 331.39 312.79 331.79 312.4 332.5 311.28 334.4 310.96 334.38 309.96 337.04 309.81 339.97 309.79 341.25 309.79 341.41 315.99 344.31 321.63 346.95 328.47 350.13 329.29 350.5 329.84 350.27 330.67 349.93 333.61 348.72 336.75 347.44 337.17 347.27 337.9 347.09 347.7 346.43 352.31 346.12 352.32 346.12 362.46 345.45 371.73 345.62 372.09 345.3 372.78 344.56 373.16 344.72 376.55 341.23 376.61 341.38 376.42 342.83 376.88 342.77 377.06 342.74 377.35 342.76 379.24 343.58 379.91 346.34 379.91 346.36 379.93 346.61 377.54 355.2 377.89 359.19 379.63 366.27 378.81 365.91 375.98 368.86 369.26 373.73 369.03 374.38 368.45 377.3 368.24 378.77 368.29 379.3 368.29 379.3 368.56 379.7 368.66 379.77 368.91 379.81 369.05 379.83 369.25 379.86 369.53 379.9 369.56 379.93 370 380.26 370.02 380.27 370.04 380.28 369.89 380.6 369.82 380.76 369.13 381.86 366.65 385.05 366.79 385.45 365.01 388.13 364.12 388.74 363.96 388.81 362.92 389.08 360.46 392.83 360.33 392.79 359.94 393.2 356.49 395.7 355.83 395.98 348.79 397.93 347.78 397.44 347.21 396.96 347.19 396.96 346.94 397.07 346.4 397.45 344.68 398.8 344.23 399.7 344.15 399.85 343.71 401.61 336.95 395.62 326.17 388.17 316.66 383.31 311.54 388.75 311.51 388.76 310.46 388.85 309.96 388.72 309.77 388.64 308.71 388.24 306.06 387.08 302.82 385.4 302.36 385 301.95 384 301.65 383.24 301.57 383.06 300.4 383.05 291.52 383.01 268.08 382.88 266.87 381.08 263.09 376.36 262.82 375.51 262.75 375.26 262.67 375.02 262.57 374.71 262.41 374.22 262.4 374.2 262.39 374.19 256.96 367.03 250.86 364.52 236.42 356.64 233.96 354.72 221.9 347.03 207.82 337.89 201.84 334.22 195.93 331.1 195.5 330.87 195.02 330.61 191.91 328.31 190.34 327.14 188.86 325.91 177.8 316.94 171.05 309.53 171.08 304.87 171.08 304.72 173.38 304.17 175.16 303.74 178.16 303.02 181.89 301.35 189.76 297.5 194.35 296.06 203.46 294.87 205.07 294.68 205.31 294.65 208.19 294.39 209.78 294.26 212.21 294.29 214.24 294.51 215.8 292.81 216.48 291.71 216.52 291.62 216.66 291.35 216.79 291.08 216.88 290.79 216.56 288.99 216.48 288.65 215.85 284.45 215.92 278.63 216.27 276.85 216.81 275.23 222.2 267.47 222.68 266.97 222.81 266.84 225.47 264.41 230.8 271.12 231.69 272.22 232.42 273.11 233.15 273.94 233.21 274.02 234.29 275.12 235.89 276.74 236.94 277.78 238.38 279.2 238.99 279.7 239.28 279.93 239.45 280.07 240.45 280.89 248.76 287.66 250.48 289.08 254.03 291.99 255.2 292.98 260.56 297.59 262.27 299.06 263.37 300.05 Z" id="마포구"/>
<path d="M 386.26 325.17 391.47 334.41 387.61 335.5 386.45 336.06 386.33 336.17 386.14 336.34 385.58 336.84 385.28 337.11 385.1 337.27 384.73 337.61 384.05 338.22 383.14 338.86 382.9 339.04 381.84 339.78 381.06 340.33 381 340.36 380.96 340.38 379.7 340.95 377.38 341.28 376.84 341.35 376.61 341.38 376.55 341.23 373.16 344.72 372.78 344.56 372.09 345.3 371.73 345.62 362.46 345.45 352.32 346.12 352.31 346.12 347.7 346.43 337.9 347.09 337.17 347.27 336.75 347.44 333.61 348.72 330.67 349.93 329.84 350.27 329.29 350.5 328.47 350.13 321.63 346.95 315.99 344.31 309.79 341.41 309.79 341.25 309.81 339.97 309.96 337.04 310.96 334.38 311.28 334.4 312.4 332.5 312.79 331.79 313.01 331.39 313.07 330.7 311.05 328.68 311.02 328.65 310.21 327.84 309.82 327.46 309.3 326.95 308.99 326.64 308.77 326.43 308.6 326.32 308.38 326.19 308.27 326.12 307.69 325.75 307.43 325.59 306.34 325.05 306.33 325.04 305.45 324.72 305.43 324.72 304.15 324.26 300.31 323.17 300.13 323.13 299.9 323.08 299.76 323.06 298.94 322.89 298.71 322.85 298.16 322.74 297.87 322.71 297.49 322.61 294.94 321.73 294.38 321.53 291.87 320.14 291.24 319.85 291.22 319.84 291.19 319.83 277.97 312.15 270.64 306.23 263.38 300.06 263.37 300.05 263.01 298.62 270.96 289.84 273.99 286.3 281.73 277.27 281.77 277.22 282.04 276.9 282.23 276.67 282.5 276.32 282.86 275.78 283.03 275.5 283.25 275.12 283.32 274.98 283.4 274.82 283.61 274.36 283.72 274.13 283.89 273.73 284.03 273.33 288.81 277.48 289.46 282.4 289.85 283.25 290.59 283.1 295.63 282.55 295.96 282.62 297.1 282.88 297.49 282.99 299.22 283.68 303.03 277.86 303.02 277.31 312.42 269.44 312.19 268.32 312.27 265.63 312.49 263.1 313.43 262.12 315.11 259.37 317.23 256.03 322.14 251.84 329.73 248.65 330.89 248.24 331.2 248.14 331.31 248.18 331.59 248.3 333.27 249.02 333.44 249.02 335.26 247.96 337.15 246.51 337.44 246.29 337.57 246.19 338.59 241.51 338 240.39 337.98 240.38 336.72 239.37 335.64 238.59 335.59 236.4 335.73 236.05 335.76 235.99 335.9 235.65 340.04 231.22 343.05 228.17 343.25 227.99 349.34 223.66 349.35 223.65 351.57 222.48 355.78 217.75 355.71 221.41 356.13 223.17 360.01 227.73 362.4 231.72 362.17 231.99 361.79 232.49 359.49 237.27 359.73 239.45 359.9 240.26 361.37 244.33 362.92 245.41 366.99 245.83 367.37 246.05 368.83 246.77 369.6 247.17 370.22 247.68 370.65 248.56 372.06 255.1 372.04 255.73 371.09 257.19 369.68 261.04 369.06 267.01 368.85 269.43 368.79 274.19 368.97 276.66 369.63 279.01 369.67 279.12 369.63 279.52 368.38 291.45 361.53 293.94 361.42 294.08 363.98 297.93 372.46 307.79 384.39 322.88 386.26 325.17 Z" id="서대문구"/>
<path d="M 629.87 588.33 628.13 588.73 627.1 589.08 626.65 589.53 621.7 596.94 617.59 604.18 616.84 605.98 616.64 606.86 616.7 610.18 616.29 614.62 615.7 615.8 615.55 615.84 607.96 619.3 606.81 621.32 606.23 622.27 605.32 623.68 604.68 624.23 603.43 624.51 601 624.93 598.93 624.33 597.21 623.71 596.11 623.33 593.08 622.29 590.69 622.09 590.19 622.05 585.69 621.96 584.86 623.3 584.79 623.47 584.71 623.72 585.8 628.85 588.74 632.68 588.8 633 588.89 633.6 588.35 634.66 587.32 635.98 583.25 643.89 580.75 649.83 573.26 653.27 564.59 651.25 561.98 652.19 549.91 654 544.01 651.55 542.53 650.47 538.32 649.41 538.06 646.21 536.57 643.93 535.56 642.75 532.29 638.96 526.42 632.44 526.02 632.17 525.26 631.68 524.45 631.31 523.52 631.4 522.86 631.47 522.5 631.5 518.75 631.19 518.58 631.14 515.91 629.43 515.44 627.12 515.39 626.87 515.23 625.99 515.16 625.59 515.17 624.79 515.38 624.57 516.89 623.34 516.92 623.31 517.58 622.67 518.01 622.08 519.6 619.24 520.48 617.07 520.67 616.26 520.96 615.06 521.05 614.67 521.01 613.05 520.3 605.71 520.23 605.04 520.18 604.52 518.71 601.48 517.65 599.53 516.46 597.85 517.42 592.91 519.07 590.66 519.01 590.35 518.96 590.02 518.34 587.7 514.92 578.75 513.49 578.5 513.1 577.88 512.7 576.32 513.04 574.11 513.57 572.62 514.21 571.18 514.47 569.65 514.49 569.38 514.36 569.18 511.58 567.14 510.85 566.72 509.26 565.93 507.88 565.66 506.66 565.93 506.35 565.99 505.46 566.31 504.79 568.85 503.14 574.25 498.54 583.62 498.27 583.9 497.87 584.31 496.8 584.91 489.28 588.07 485.82 589.11 477.96 591.15 476.99 591.35 476.62 591.32 475.93 591.27 471.86 589.6 468.46 588.1 465.9 585.57 465.6 585.21 464.91 584.26 457.84 571.25 456.9 569.12 457.47 567.09 457.75 564.89 457.03 562.62 456.51 561.77 455.43 560.38 453.63 561.8 452.16 561.88 448.02 561.75 443.51 561.46 443.02 561.53 442.79 561.58 442.67 561.61 442.22 561.86 441.32 562.87 443.03 568.78 443.14 569.18 443.36 569.97 442.19 574.31 437.45 575.36 431.8 578.41 429.09 580.38 426.63 583.1 425.37 580.77 425.19 580.44 424.92 579.8 424.77 579.3 424.7 579.02 424.58 578.34 424.55 577.89 424.54 577.32 424.65 576.52 424.77 575.91 425.47 572.79 425.99 570.46 426.07 569.93 426.12 569.43 426.15 569.13 425.71 566.25 425.6 565.5 425.39 564.49 424.21 560.47 424.08 560.32 423.51 559.67 420.8 556.69 419.26 555.08 418.64 554.7 417.46 552.67 416.47 550.95 416 549.77 415.78 549.2 415.49 548.44 415.27 547.86 414.95 547.01 414.76 546.48 414.51 545.8 414.47 545.65 414.46 545.58 413.91 542.55 413.86 542 413.72 540.51 413.66 539.64 413.64 539.07 414.48 519.81 414.57 517.86 414.58 517.84 415.66 504.7 415.86 501.29 416.17 493.03 416.22 491.25 416.22 491.13 416.26 490.1 416.38 489.85 416.45 489.72 416.77 489.19 420.98 483.26 420.68 482.95 418.89 481.21 417.28 479.93 415.51 478.63 410.99 472.27 411.58 467.23 415.4 467.26 416.83 467.3 417.73 467.3 418.09 467.3 420.24 467.28 421.34 467.27 421.37 467.27 426.37 459.3 429.57 454.31 430.51 452.85 431.28 451.65 436.27 447.71 440.83 444.1 441.13 443.87 443.54 441.98 444.15 441.5 453.85 433.62 455.18 432.46 463.74 424.14 465.5 421.9 472.22 427.49 474.25 429.15 475.54 427.36 476.51 425.99 476.82 425.54 477.64 424.42 478.16 423.76 481.4 428.13 481.42 428.16 482.43 429.93 483.06 431.02 483.07 431.04 483.33 432.17 485.78 442.73 486.24 444.7 489.61 456.72 495.55 472.6 496.73 475.74 501.41 488.25 508.96 508.39 513.61 520.83 528.23 518.34 527.96 518.81 532.47 531.52 532.55 531.75 534.53 537.33 534.58 537.46 534.64 537.59 534.7 537.72 534.77 537.84 534.85 537.96 534.93 538.08 535.02 538.2 535.1 538.3 537.64 541.4 541.63 546.29 545.52 551.04 541.61 555.61 542.87 555.75 544.63 556.01 545.78 556.9 545.9 558.88 545.57 561.16 547.51 560.78 550.08 559.88 553.21 558.78 557.47 557.96 561.14 557.46 566.95 557.59 569.03 557.69 572.15 557.08 573.35 556.65 574.18 555.89 575.19 555.1 579.24 552.99 581.27 552.9 583.36 552.16 587.07 550.79 587.48 550.37 595.15 543.12 597.15 544 599.12 543.86 604.4 542.62 609.15 541.97 610.46 542.13 609.54 543.36 608.9 548.49 609.71 550.49 610.56 552.56 610.75 552.59 611.4 552.67 612.33 552.85 613.58 553.66 613.88 554.01 620.84 562.55 623.09 565.98 623.18 566.15 623.71 567.16 623.89 567.9 623.9 568.55 623.93 570.38 623.84 570.97 623.61 574.15 625.85 576.62 628.26 577.35 629.26 577.35 630.14 584.88 629.87 588.33 Z" id="서초구"/>
<path d="M 587.44 340.23 590.01 341.55 587.24 347.61 577.95 368.03 571.3 382.6 569.07 387.5 566.41 393.4 563.76 399.25 563.51 399.8 562.88 401.18 562.72 401.52 562.65 401.67 562.19 402.62 560.84 405.63 559.55 408.52 559.46 408.72 558.76 410.29 558.34 411.22 556.3 415.8 556.29 415.83 556.2 415.79 556.02 415.72 555.47 415.5 554.9 415.28 554.2 415 554.03 414.86 551.05 412.41 548.42 410.25 547.72 409.69 547.28 409.36 546.44 408.72 542.44 405.71 537.99 402.33 536.98 401.56 536.42 401.36 536.27 401.31 535.63 401.07 526.23 397.72 524.75 397.71 523.89 397.7 521.62 397.69 521.1 397.68 517.5 397.66 493.68 397.62 489.63 397.55 482.49 401.86 482.52 400.78 482.55 399.22 482.59 397.81 482.68 394.15 482.71 393.12 482.25 392.91 477.94 390.97 474.53 390.13 471.2 389.78 468.28 388.88 468.09 388.73 467.92 388.57 467.6 388.29 467.21 387.63 467.14 387.5 466.14 383.63 465.99 382.91 465.94 382.65 466.51 377.52 464.93 375.38 466.74 370.53 466.97 369.99 467.16 369.56 467.86 368.54 468.92 368.19 470.26 367.85 470.81 367.54 471.53 367.13 474.49 363.4 480.56 356.34 481.99 352.46 482.56 349.56 483.14 348.26 483.22 348.06 483.38 347.8 483.97 347.08 486.53 345.79 486.94 346.13 493.21 344.8 494.15 337.94 499.01 333.48 499.43 332.81 499.75 332.28 500.15 331.6 500.33 331.14 500.39 330.92 500.49 330.49 500.61 329.49 500.63 327.86 494.57 327.24 494.29 311.19 497.73 313.74 507.39 316.27 507.42 316.28 507.65 316.3 508.06 316.33 508.51 316.34 508.68 316.34 508.74 316.34 509.11 316.31 509.24 316.3 509.25 316.3 509.37 316.27 509.55 316.23 509.76 316.17 509.83 316.15 510.5 315.85 510.65 315.78 510.97 315.63 514.84 312.53 515.74 312.04 516.53 311.62 516.62 311.58 516.96 311.4 517.06 311.35 517.28 311.23 517.31 311.22 517.51 311.13 517.64 311.07 517.71 311.04 517.73 311.04 517.84 310.99 518.15 310.88 518.17 310.87 518.24 310.85 518.56 310.74 518.63 310.72 518.82 310.67 518.93 310.65 518.93 310.65 519.51 310.54 519.54 310.54 519.78 310.51 520.2 310.46 520.43 310.46 521.3 310.46 521.67 310.46 522.35 310.47 525.96 308.74 530.78 309.48 532.29 310.28 535.26 311.89 541.03 315.06 541.44 315.44 541.88 315.86 542.05 316.01 542.18 316.14 542.3 316.25 549.29 322.88 554.3 327.63 559.7 332.74 559.98 333.01 561.52 334.48 562.73 334.7 562.86 334.72 576.11 337.17 582.54 338.36 586.72 339.9 587.44 340.23 Z" id="성동구"/>
<path d="M 545.06 186.08 552.57 195.19 552.69 195.37 552.9 195.64 553.18 196.03 553.27 196.15 553.63 196.56 553.85 196.81 553.92 196.88 559.59 202.41 566.68 208.8 567.24 209.26 567.33 209.31 567.81 209.6 568.2 209.79 568.32 209.85 568.45 209.91 568.86 210.03 570.64 210.15 575.53 208.49 583.62 207.43 586.74 212.03 585.44 226.14 582.24 224.55 582.24 222.77 582.21 222.77 581.25 222.79 579.34 225.57 574.62 231.13 572.25 231.18 569.02 231.88 568.84 231.92 568.75 231.94 568.55 232.01 567.68 233.08 565.91 235.83 564.45 239.28 559.01 240.68 553.87 242.15 549.27 243.86 547.79 241.52 547.57 241.27 547.22 241.39 545.93 242.73 540.34 252.62 540.15 253.41 531.93 251.39 528.23 254.68 523.78 264.97 518.95 265.18 518.96 265.32 519.08 266.94 519.14 267.66 518.34 269.18 517.79 270.21 517.63 270.5 517.15 271.1 516.99 271.29 509.02 281.41 506.12 285.45 496.31 293.77 493.88 296.55 491.38 294.52 485.57 297.71 483.68 292.68 481.9 288.84 480.78 287.18 478.28 286.36 478.12 286.15 477.95 286.21 469.87 291.07 466.3 290.57 462.41 278.4 457.72 273.11 454.43 269.96 454.19 269.65 452.77 267.3 452.77 266.34 452.92 265.99 452.94 265.94 453.07 265.67 453.09 265.64 453.11 265.6 448.64 262.09 447.07 261.71 443.62 262.46 437.81 263.52 430.38 264.13 429.22 264.16 429.2 264.13 429.16 264.07 428.81 263.59 428.14 262.88 422.96 257.31 422.3 256.84 421.77 256.71 421.25 256.8 421.08 256.83 421 256.87 420.94 256.9 420.84 256.94 420.8 256.96 420.79 256.97 420.75 256.98 420.61 257 420.54 257.01 420.19 257 419.28 256.86 417.53 256.03 414.81 254.68 410.3 252.12 409.6 251.54 406.56 249.01 405.77 248.49 406.69 246.7 407.26 244.31 407.63 242.9 408.83 241.49 409.04 241.29 409.24 241.11 411.17 240.58 417.01 238.16 423.31 234.87 424.78 233.94 424.99 232.59 424.98 229 424.01 225.04 423.33 220.89 423.18 217.45 423.13 215.51 423.95 212.4 424.74 210.12 423.28 208.28 420.88 205.29 419.34 201.03 418.31 197.49 418.36 195.22 419.09 193.36 419.27 192.91 418.25 190.62 415.88 185.32 415.58 184.88 414.09 182.73 411.74 180.48 412.5 175.8 412.36 175.38 412.29 175.15 411.52 174.33 409.42 173.37 405.18 173.83 402.84 173.97 402.4 172.4 402.31 172.1 402.7 170.48 403.1 168.8 403.65 167.57 406.78 164.55 417.3 157.86 420.05 156.32 420.51 156.55 422.75 157.45 423.75 157.87 430.48 162.22 437.71 167.9 439.28 169.15 441.73 171.25 443.84 174.05 444.34 175.07 449.06 180.98 450.82 181.89 460.29 186.29 465.42 186.27 465.42 186.36 465.43 186.41 465.44 186.91 465.22 188.86 464.9 190.43 464.42 192.57 464.03 193.85 464.05 194.69 465.09 196.78 466.67 199.32 477.9 208.61 482.7 208.59 482.8 208.51 482.86 208.51 483.66 208.89 487.41 211.99 489.08 213.76 489.13 213.78 489.15 213.79 489.34 213.86 489.6 213.96 491.91 214.4 492.56 216.67 501.1 213.57 507.69 214.42 508.13 222.29 521.03 213.65 526.12 206.77 530.89 202.22 533.9 199.57 534.11 199.31 535.37 197.6 535.48 197.35 536.4 195.2 536.42 195.15 537.34 193.02 537.38 192.95 538.04 191.83 538.1 191.75 538.92 190.72 538.99 190.65 539.16 190.47 539.18 190.45 539.57 190.06 541.05 188.95 541.2 188.84 541.44 188.66 545.06 186.08 Z" id="성북구"/>
<path d="M 725.51 444.04 724.6 446.96 719.69 446.88 718.03 448.16 718.2 455.22 716.2 460.71 715.76 463.32 715.76 463.89 716.34 464.48 718.3 467.68 718.54 468.08 718.61 468.25 718.6 468.27 718.13 468.94 717.96 469.18 717.92 469.22 717.61 469.55 717.26 469.99 717.67 470.94 717.82 471.28 719.96 472.62 722.22 473.76 723.18 473.79 723.52 473.8 726.23 476.32 732.93 474.79 735.73 473.9 737.98 476.36 738.41 476.86 738.76 477.27 740.9 477.98 747 479.96 747.03 479.95 747.22 479.88 749.3 477.05 749.47 476.81 751.63 478.71 754.74 481.82 755.99 483.36 756.1 483.5 756.43 483.97 756.5 484.4 756.48 485.15 756.35 485.56 756.15 485.91 755.88 486.18 753.48 494.71 753.67 495.74 753.76 497.11 753.78 497.9 753.23 499.67 753.17 499.85 753.05 500.15 752.8 500.53 752.42 500.86 749.21 507.92 748.73 510.54 745 512.99 735.4 519.68 735 520.02 734.43 520.5 732.06 522.56 731.86 522.92 731.18 524.17 730.31 525.95 730.12 526.42 730 526.79 729.96 526.91 729.84 527.4 729.75 527.91 729.75 527.98 729.71 528.42 729.63 529.87 729.47 532.87 729.34 535.24 729.1 538.7 729.08 538.81 729.07 538.87 727.36 538.78 726.5 538.74 726.42 538.73 725.87 538.7 723.78 538.59 722.38 543.55 722.33 543.76 722.3 543.97 722.28 544.18 722.24 544.84 722.14 546.73 714.58 546.32 714.44 546.31 712.24 546.2 710.97 546.16 709.4 546.14 709.28 546.14 708.55 546.1 706.78 545.92 706.44 545.88 702.31 545.09 701.8 544.98 701.58 545.15 701.48 545.79 701.41 547.15 701.33 548.56 701.28 549.36 701.3 549.89 701.3 550 701.63 557.02 701.69 557.98 701.64 559.9 697.96 561.41 697.88 561.44 697.79 561.46 697.7 561.47 697.61 561.48 697.51 561.48 697.42 561.47 697.33 561.45 696.66 561.29 695.04 560.91 694.97 560.9 689.97 559.31 689.53 559 688.73 558.14 688.11 557.63 687.76 557.36 687.49 557.15 687.38 557.07 687.17 556.91 686.97 556.92 686.67 556.95 686.55 556.96 686.49 557.14 686.58 557.47 686.86 558.44 687.09 558.99 687.11 559.94 687.14 561.18 686.73 562.58 686.42 563.17 686.41 563.19 686.29 563.38 685.77 564.03 685.24 564.33 685.24 564.32 683.67 561.55 678.86 553.12 676.71 549.35 672.4 542.11 670.79 539.45 669.76 537.74 668.88 536.26 666.4 532.04 663.98 527.89 663.31 526.61 662.65 525.29 662.04 524.04 661.47 522.87 654.35 510.27 645.78 501.31 642.59 499.43 631.51 492.82 622.52 489.41 607.75 484 605.33 482.97 597.17 479.5 595.58 478.84 593.84 478.63 591.59 478.36 589.76 478.14 589.11 478.07 589.01 478.06 586.4 477.75 581.92 477.18 581.91 477.09 581.78 476.13 581.74 475.83 581.68 475.43 581.51 473.43 581.49 473.17 581.28 470.86 581.13 469.12 581.12 468.99 581.03 467.94 580.99 467.49 580.92 466.8 580.77 465.06 580.68 464.18 580.2 459.07 580.12 458.17 579.98 456.56 579.73 453.62 579.39 449.54 578.44 439.62 577.84 431.93 577.71 424.87 587.07 427.91 587.87 428.16 590.27 428.9 590.72 429.04 592.72 429.39 595.41 429.85 595.72 429.91 595.74 429.91 597.87 429.53 601.5 428.89 612.3 424.6 613.17 424.06 613.98 423.56 615.86 422.39 620.29 419.64 623.14 416.99 628.82 411.41 643.66 396.77 647.61 392.87 655.62 384.94 656.13 383.76 656.87 382.09 657.46 380.74 657.66 380.74 662.1 380.75 664.82 380.76 664.82 380.8 664.7 381.2 664.71 381.21 665.27 381.42 667.39 382.21 671.33 383.68 684.47 391.67 680.58 405.03 680.57 405.03 676.46 417.42 694.35 427.45 704.17 432.95 712.84 438.05 713.11 437.96 717.38 440.34 720.59 442.15 725.51 444.04 Z" id="송파구"/>
<path d="M 210.24 455.99 210.71 454.95 210.59 455.56 210.47 455.78 210.3 455.94 210.24 455.99 Z M 210.24 455.99 208.55 459.71 208.43 460.04 208.42 460.29 208.43 460.37 208.44 460.53 209.75 463.96 210.14 465.78 207.95 473.11 207.93 473.12 204.7 471.73 204.61 471.46 203.88 469.99 203.45 469.32 202.39 467.82 202.31 467.77 202.25 467.75 201.68 467.63 201.67 467.64 200.73 468.68 200.05 469.4 199.63 469.84 199.53 469.93 199.26 469.95 190.95 469.87 188.81 469.42 188.55 469.26 188.47 469.18 188.41 469.1 188.27 468.88 188.12 468.63 188.07 468.55 187.52 467.6 187.43 467.38 187.4 467.3 187.31 467 187.17 466.05 187.64 465.69 187.21 465.29 186.28 464.07 180.48 460.91 178.79 457.88 170.84 457.08 168.67 455.89 157.9 458.49 157.35 458.82 155.97 459.81 154.09 462.19 154.18 462.57 153.85 462.63 153.23 463.55 152.31 465.61 152.91 467.48 152.41 467.71 143.16 470.52 137.11 473.92 136.69 474.01 134.99 474.39 132.48 473.08 128.84 470.03 128.06 468.92 126.11 465.96 126.21 464.62 126.26 464.52 126.9 462.34 126.9 461.98 126.21 461.52 125.59 461.32 121.47 460.03 120.67 460.12 119.24 460.61 119.03 460.64 114.86 461.07 113.7 459.74 113.37 459.21 112.65 445.31 114.83 437.79 115.89 435.34 116.43 433.96 116.59 433.54 116.64 433.42 116.78 433.04 116.82 432.95 116.82 432.94 116.91 430.66 116.74 428.43 116.49 427.07 116.65 425.08 117.87 422.85 121.38 419.54 121.74 419.2 122.15 418 122.29 417.12 121.92 411.55 119.75 409.91 118.76 409.69 118.44 409.65 118.19 409.62 117.13 409.57 116.88 409.56 116.41 409.29 115.93 408.62 115.32 407.74 112.87 402.9 110.06 397.05 110.17 387.87 110.51 383.58 114.86 381.93 114.92 381.94 114.97 381.92 115.03 381.9 116.04 381.49 116.83 381.16 118.08 378.18 117.94 377.33 117.75 376.7 117.25 375.92 117.35 375.13 117.68 374.12 117.7 374.09 117.7 374.07 117.9 373.62 120.76 367.45 120.95 367.1 121.12 366.86 124.83 366.85 125.26 367.13 125.32 367.99 125.86 370.48 125.12 375.05 125.06 375.84 125.04 376.22 125.04 376.39 125.58 379.28 126.58 381.11 129.66 381 131.45 380.93 131.49 381.08 132.61 385.7 135.29 392.78 133.87 393.87 134.05 394.26 135.44 397.21 135.6 397.54 139.17 405.09 145.2 417.7 145.32 417.8 161.26 414.54 161.3 414.53 167.16 413.65 179.6 411.79 190.06 410.21 190.07 410.19 189.21 396.29 189.68 387.48 189.69 387.43 189.82 385.67 189.86 385.11 189.88 384.81 189.89 384.63 189.89 384.59 189.89 384.44 189.88 384.25 189.87 384.06 189.84 383.87 189.81 383.69 189.39 381.64 188.9 380.83 188.59 380.33 188.33 379.9 188.22 379.72 188.17 379.6 188.15 379.56 188.01 379.25 187.05 376.99 186.84 376.35 186.8 376.08 186.76 375.82 186.75 375.31 186.77 375.01 188.08 369.87 189.4 364.68 190.11 361.94 190.78 359.32 190.85 359.08 190.87 359.07 191.34 358.86 192.41 359.47 203.2 367.42 203.26 367.46 203.37 367.52 203.73 367.73 204.11 367.93 204.48 368.11 204.87 368.29 205.26 368.44 205.65 368.59 206.05 368.72 206.15 368.75 206.45 368.84 206.74 368.92 206.86 368.95 207.27 369.04 207.68 369.11 207.79 369.13 208.1 369.18 208.51 369.23 208.85 369.26 208.93 369.26 209.05 369.27 209.35 369.29 209.53 369.29 209.77 369.29 210.19 369.29 210.4 369.28 211.37 369.23 213.06 369.14 213.81 369.11 216.98 368.95 221.37 367.45 222.15 366.36 224.3 369.15 228.91 376.62 229.77 378.07 232.59 386.22 233.17 387.57 233.54 388.39 233.75 388.85 235.27 391.89 235.73 392.75 235.87 392.99 236.4 393.98 236.87 394.75 236.98 394.93 237 394.95 237.02 394.97 237.56 395.55 238.62 396.86 238.81 397.12 239 397.4 239.53 398.45 239.57 398.55 239.67 398.83 239.84 399.33 239.91 399.57 239.96 399.91 240.66 405.94 240.26 407.23 239.16 409.17 236.74 408.98 236.38 408.98 236.09 408.97 235.69 409.01 235.25 409.1 234.22 409.56 222.48 415.34 222.09 415.58 221.85 415.81 218.15 421.01 218.11 421.11 217.87 421.69 217.87 421.7 217.87 421.74 217.87 422.05 217.87 422.19 217.88 422.61 217.89 422.71 218.44 426.84 218.53 427.18 218.58 427.37 218.64 427.58 218.64 427.86 218.86 428.66 218.92 428.89 219.09 429.86 219.14 430.28 219.33 431.85 219.38 432.4 219.37 432.48 219.36 432.63 219.35 432.73 219.33 432.86 219.3 432.96 218.73 433.77 218.69 433.81 218.6 433.88 217.91 434.38 217.71 434.52 217.58 434.65 217.29 435.05 217.23 435.18 217.17 435.4 217.02 435.89 217 435.98 216.99 436.08 216.98 436.53 216.98 436.58 216.98 436.74 217 436.81 217.32 437.75 217.41 438.02 217.46 438.11 217.78 438.51 217.9 438.64 218.01 438.75 218.07 438.8 218.13 438.83 218.76 438.96 215.71 447.04 215.82 447.98 213.09 451.73 212.9 451.96 212.36 452.37 212.19 452.48 211.93 452.54 211.63 452.48 211.41 452.35 211.35 452.24 211.14 451.86 210.98 451.93 210.82 452.14 208.88 454.58 208.86 454.6 208.87 455.77 208.93 455.86 209.22 456.14 209.45 456.23 209.86 456.2 210.14 456.07 210.24 455.99 Z" fill-rule="evenodd" id="양천구"/>
<path d="M 343.71 401.61 348.58 409.19 349.04 410.32 350.53 412.74 350.72 413.04 351.66 414.57 352.49 415.92 352.86 416.51 353.68 417.84 353.66 421.77 353.64 426.47 353.57 440.61 353.2 440.48 353.1 440.44 352.95 440.38 351.83 440.58 348.27 441.24 344.96 441.84 342.78 442.25 342.29 442.35 340.99 442.59 339.78 442.82 338.6 443.03 335.35 443.6 333.45 443.92 332.71 443.96 332.14 443.98 320.19 445.06 309.68 445.08 309.62 445.89 309.95 449.07 309.97 449.46 309.97 449.6 309.84 450.64 309.49 451.64 309.26 451.69 305.05 457.68 298.07 478.91 296.8 485.78 296.79 485.88 296.75 486.18 296.75 486.19 295.98 487.47 295.88 487.53 295.82 487.56 295.2 487.94 293.22 488.48 291.79 488.86 287.32 490.05 286.5 490.26 285.34 490.39 284.29 490.51 284.04 490.54 283.4 490.62 282.88 490.68 282.77 490.69 282.06 490.84 281.87 490.92 281.83 490.95 281.75 490.99 281.63 491.07 281.35 491.26 281.19 491.4 281.09 491.48 280.98 491.58 280.66 491.98 280.64 492.01 280.6 492.09 280.3 492.6 280.23 492.74 280.19 492.81 279.69 493.8 279.63 493.93 279.23 494.7 278.11 496.88 277.65 497.69 276.81 498.97 276.6 499.27 276.29 499.69 276.24 499.64 270.24 508.62 265.65 515.58 264.11 517.9 264.02 517.9 263.79 517.89 263.6 517.88 263.35 517.87 263.28 517.86 261.11 516.98 260.61 516.78 260.42 516.7 258.32 515.7 258.2 515.63 257.63 515.29 255.47 513.92 255.36 513.85 254.51 513.21 251.23 508.24 249.65 502.52 249.39 501.12 249.36 500.97 247.19 488.95 247.01 487.73 244.59 473.59 245.25 472.91 245.43 472.65 246.75 470.35 246.83 469.98 246.83 469.96 246.84 469.89 246.39 468.48 243.68 460.17 243.79 460.11 243.29 459.27 238.81 453.3 235.84 451.33 232.23 449.64 229.14 448.86 228.92 448.71 228.79 448.62 225.56 445.43 225.56 445.16 225.57 444.36 225.57 443.98 225.04 443.52 219.51 439.06 218.76 438.96 218.13 438.83 218.07 438.8 218.01 438.75 217.9 438.64 217.78 438.51 217.46 438.11 217.41 438.02 217.32 437.75 217 436.81 216.98 436.74 216.98 436.58 216.98 436.53 216.99 436.08 217 435.98 217.02 435.89 217.17 435.4 217.23 435.18 217.29 435.05 217.58 434.65 217.71 434.52 217.91 434.38 218.6 433.88 218.69 433.81 218.73 433.77 219.3 432.96 219.33 432.86 219.35 432.73 219.36 432.63 219.37 432.48 219.38 432.4 219.33 431.85 219.14 430.28 219.09 429.86 218.92 428.89 218.86 428.66 218.64 427.86 218.64 427.58 218.58 427.37 218.53 427.18 218.44 426.84 217.89 422.71 217.88 422.61 217.87 422.19 217.87 422.05 217.87 421.74 217.87 421.7 217.87 421.69 218.11 421.11 218.15 421.01 221.85 415.81 222.09 415.58 222.48 415.34 234.22 409.56 235.25 409.1 235.69 409.01 236.09 408.97 236.38 408.98 236.74 408.98 239.16 409.17 240.26 407.23 240.66 405.94 239.96 399.91 239.91 399.57 239.84 399.33 239.67 398.83 239.57 398.55 239.53 398.45 239 397.4 238.81 397.12 238.62 396.86 237.56 395.55 237.02 394.97 237 394.95 236.98 394.93 236.87 394.75 236.4 393.98 235.87 392.99 235.73 392.75 235.27 391.89 233.75 388.85 233.54 388.39 233.17 387.57 232.59 386.22 229.77 378.07 228.91 376.62 224.3 369.15 222.15 366.36 217.28 357.94 217.25 356.5 217.23 355.95 217.23 355.57 217.23 355.39 217.22 354.75 219.54 350.66 219.64 350.49 221.9 347.03 233.96 354.72 236.42 356.64 250.86 364.52 256.96 367.03 262.39 374.19 262.4 374.2 262.41 374.22 262.57 374.71 262.67 375.02 262.75 375.26 262.82 375.51 263.09 376.36 266.87 381.08 268.08 382.88 291.52 383.01 300.4 383.05 301.57 383.06 301.65 383.24 301.95 384 302.36 385 302.82 385.4 306.06 387.08 308.71 388.24 309.77 388.64 309.96 388.72 310.46 388.85 311.51 388.76 311.54 388.75 316.66 383.31 326.17 388.17 336.95 395.62 343.71 401.61 Z" id="영등포구"/>
<path d="M 466.51 377.52 465.94 382.65 465.99 382.91 466.14 383.63 467.14 387.5 467.21 387.63 467.6 388.29 467.92 388.57 468.09 388.73 468.28 388.88 471.2 389.78 474.53 390.13 477.94 390.97 482.25 392.91 482.71 393.12 482.68 394.15 482.59 397.81 482.55 399.22 482.52 400.78 482.49 401.86 477.62 406.13 472.26 413.07 465.5 421.9 463.74 424.14 455.18 432.46 453.85 433.62 444.15 441.5 443.54 441.98 441.13 443.87 440.83 444.1 436.27 447.71 431.28 451.65 430.51 452.85 429.57 454.31 426.37 459.3 421.37 467.27 421.34 467.27 420.24 467.28 418.09 467.3 417.73 467.3 416.83 467.3 415.4 467.26 411.58 467.23 408.28 467.17 399.48 464.91 392.44 461.42 392.29 461.35 391.96 461.19 391.95 461.18 389.78 460.43 389.71 460.4 386.79 459.39 386.25 459.2 385.92 459.09 385.73 458.98 383.68 457.71 382.3 456.85 382.24 456.8 378.71 453.42 376.42 451.28 367.04 446.42 353.57 440.61 353.64 426.47 353.66 421.77 353.68 417.84 352.86 416.51 352.49 415.92 351.66 414.57 350.72 413.04 350.53 412.74 349.04 410.32 348.58 409.19 343.71 401.61 344.15 399.85 344.23 399.7 344.68 398.8 346.4 397.45 346.94 397.07 347.19 396.96 347.21 396.96 347.78 397.44 348.79 397.93 355.83 395.98 356.49 395.7 359.94 393.2 360.33 392.79 360.46 392.83 362.92 389.08 363.96 388.81 364.12 388.74 365.01 388.13 366.79 385.45 366.65 385.05 369.13 381.86 369.82 380.76 369.89 380.6 370.04 380.28 370.02 380.27 370 380.26 369.56 379.93 369.53 379.9 369.25 379.86 369.05 379.83 368.91 379.81 368.66 379.77 368.56 379.7 368.29 379.3 368.29 379.3 368.24 378.77 368.45 377.3 369.03 374.38 369.26 373.73 375.98 368.86 378.81 365.91 379.63 366.27 377.89 359.19 381.93 355.21 386.4 352.27 390.86 349.52 390.82 351.39 391.13 352.78 391.76 353.26 391.98 353.39 392.18 353.48 392.47 353.6 392.85 353.71 393.22 353.79 393.5 353.81 393.9 353.8 394.26 353.75 394.52 353.7 394.77 353.61 395.12 353.47 395.4 353.32 395.61 353.19 395.79 353.06 395.79 353.06 395.8 353.05 395.8 353.04 398 352.71 403.48 355.03 403.62 355.12 403.83 355.25 404.46 355.66 404.62 355.76 404.87 350.66 406.22 351.16 406.23 351.17 409.14 353.39 409.14 353.4 409.14 353.4 409 355.43 411.81 355.12 418.97 355.92 421.73 354.38 426.1 359.79 428.06 359.63 434.89 363.15 436.74 366.04 440.34 369.97 440.36 369.97 440.5 369.93 441.02 369.81 442.49 369.46 443.15 368.59 443.25 368.22 443.27 367.57 443.26 366.9 444.56 365.38 445 364.9 446.27 364.1 446.32 364.09 447.39 363.87 451.01 363.75 454.47 364.28 457.7 362.95 458.18 363.92 460.28 368.95 459.59 369.79 458.96 372.49 458.97 372.54 458.98 372.6 458.98 372.61 460.23 374.28 460.87 375.15 463.23 378.17 463.28 378.16 464.29 377.97 465.34 377.77 465.84 377.66 466.51 377.52 Z" id="용산구"/>
<path d="M 371.37 172.72 365.92 175.53 356.17 179.94 354.94 182.14 354.75 182.5 353.38 184.91 353.17 187.48 354.88 196.95 356.53 205.99 356.65 210.03 356.59 210.39 356.52 210.8 356.03 212.37 355.17 214.35 354.85 215.09 354.78 215.27 355.78 217.75 351.57 222.48 349.35 223.65 349.34 223.66 343.25 227.99 343.05 228.17 340.04 231.22 335.9 235.65 335.76 235.99 335.73 236.05 335.59 236.4 335.64 238.59 336.72 239.37 337.98 240.38 338 240.39 338.59 241.51 337.57 246.19 337.44 246.29 337.15 246.51 335.26 247.96 333.44 249.02 333.27 249.02 331.59 248.3 331.31 248.18 331.2 248.14 330.89 248.24 329.73 248.65 322.14 251.84 317.23 256.03 315.11 259.37 313.43 262.12 312.49 263.1 312.27 265.63 312.19 268.32 312.42 269.44 303.02 277.31 303.03 277.86 299.22 283.68 297.49 282.99 297.1 282.88 295.96 282.62 295.63 282.55 290.59 283.1 289.85 283.25 289.46 282.4 288.81 277.48 284.03 273.33 283.89 273.73 283.72 274.13 283.61 274.36 283.4 274.82 283.32 274.98 283.25 275.12 283.03 275.5 282.86 275.78 282.5 276.32 282.23 276.67 282.04 276.9 281.77 277.22 281.73 277.27 273.99 286.3 270.96 289.84 263.01 298.62 263.37 300.05 262.27 299.06 260.56 297.59 255.2 292.98 254.03 291.99 250.48 289.08 248.76 287.66 240.45 280.89 239.45 280.07 239.28 279.93 238.99 279.7 238.38 279.2 236.94 277.78 235.89 276.74 234.29 275.12 233.21 274.02 233.15 273.94 232.42 273.11 231.69 272.22 230.8 271.12 225.47 264.41 225.57 264.11 227.95 262.04 230.95 257.87 234.33 257.2 235.51 256.98 235.58 256.99 235.54 257.06 235.54 257.08 235.41 257.32 233.84 260.22 232.56 262.17 232.23 262.76 232.22 262.76 232.11 263.03 232.02 263.45 231.97 263.7 232.01 264.03 232.63 267.48 234.36 268.82 236.01 269.57 243.31 270.1 253.62 269.92 258.94 266.96 258.82 262.49 260.36 256.45 262.02 251.46 262.03 246.69 262.15 246.22 262.28 244.12 261.7 242.18 260.79 240.49 260.35 239.64 259.82 237.89 259.77 237.71 260.11 235.13 261.29 234.53 263.84 233.66 263.19 228.93 262.56 227.79 262.25 226.38 261.38 222.4 261.19 221.19 261.06 220.29 260.52 215.8 261.6 213.45 261.87 211.79 264.11 203.43 266.46 197.53 267.15 197.64 268.19 197.56 270.02 196.99 270 195.09 270.66 193.29 270.77 193.1 271.9 191.73 272.04 191.55 273.1 190.64 273.66 186.55 273.46 185.38 274.31 182.61 276.14 180.47 276.56 179.82 276.83 178.46 277.13 176.97 276.99 173.82 276.97 173.16 276.96 173.07 274.12 168.79 272.08 163.14 273.78 162.73 275.72 161.71 277.65 160.52 280.96 158.18 281.65 156.78 281.62 144.61 283.81 136.66 272.83 128.48 269.67 125.05 270.01 125.16 271.06 125.63 271.98 126.19 276.88 129.22 280.08 131.68 280.33 131.91 280.33 131.92 281.14 132.58 283.19 134.14 283.33 134.23 283.56 134.37 283.91 134.6 286.56 135.62 303.96 133.04 304.98 132.89 305.52 132.75 306.28 132.53 306.36 132.51 306.59 132.33 306.89 132.1 307.64 131.5 308.96 130.41 311.67 128.15 312.05 127.83 320.54 122.53 321.8 122.4 325.01 121.57 327.63 120.78 328.47 120.45 328.81 120.17 329.29 119.77 329.57 119.54 329.9 119.22 330.29 118.83 330.5 118.62 331.06 118.02 331.26 117.8 331.53 117.31 331.76 116.9 331.98 116.27 332.72 114.44 333.76 111.93 334.43 110.73 334.86 110.11 335.56 109.14 336.07 108.43 336.53 107.94 336.96 107.49 337.07 107.4 337.35 107.18 340.72 104.91 341.86 104.45 351.03 101.47 351.9 102.62 351.96 102.94 351.84 103.4 351.48 106.03 351.71 106.4 355.33 109.33 358.33 111.65 358.34 111.66 358.98 111.8 359.25 111.86 361.81 111.71 363.39 111.61 365.66 113.22 365.76 113.31 369.2 116.77 369.85 119.09 371.54 129.2 372.51 136.13 372.71 138.24 373.16 142.42 374.38 143.9 379.3 157.57 380.01 160.38 380.76 163.74 374.04 172.04 371.37 172.72 Z" id="은평구"/>
<path d="M 493.88 296.55 494.23 311.17 493.8 311.05 485.95 313.28 482.73 315.51 468.83 316.17 468.45 316.18 462.43 316.47 456.04 316.44 452.89 316.61 449.68 317.4 449.33 317.48 448.19 317.76 447.78 317.85 447.71 317.87 447.29 317.96 446.94 318.04 446.34 318.17 445.82 318.27 444.65 318.44 443.84 318.55 443.08 318.65 442.46 318.72 432.34 319.73 430.95 319.88 430.65 319.89 429.92 319.93 429.83 319.94 429.65 319.94 428.65 319.95 428.62 319.95 428.6 319.95 427.59 319.88 427.29 319.87 427.26 319.86 424.26 319.61 411.13 317.6 407.11 316.96 404.86 316.89 403.38 316.75 390.86 319.39 386.26 325.17 384.39 322.88 372.46 307.79 363.98 297.93 361.42 294.08 361.53 293.94 368.38 291.45 369.63 279.52 369.67 279.12 369.63 279.01 368.97 276.66 368.79 274.19 368.85 269.43 369.06 267.01 369.68 261.04 371.09 257.19 372.04 255.73 372.06 255.1 370.65 248.56 370.22 247.68 369.6 247.17 368.83 246.77 367.37 246.05 366.99 245.83 362.92 245.41 361.37 244.33 359.9 240.26 359.73 239.45 359.49 237.27 361.79 232.49 362.17 231.99 362.4 231.72 360.01 227.73 356.13 223.17 355.71 221.41 355.78 217.75 354.78 215.27 354.85 215.09 355.17 214.35 356.03 212.37 356.52 210.8 356.59 210.39 356.65 210.03 356.53 205.99 354.88 196.95 353.17 187.48 353.38 184.91 354.75 182.5 354.94 182.14 356.17 179.94 365.92 175.53 371.37 172.72 371.81 172.56 372.12 172.44 374.6 172.01 377.12 171.58 382.63 170.66 387.87 169.86 399.21 165.93 403.69 167.49 403.65 167.57 403.1 168.8 402.7 170.48 402.31 172.1 402.4 172.4 402.84 173.97 405.18 173.83 409.42 173.37 411.52 174.33 412.29 175.15 412.36 175.38 412.5 175.8 411.74 180.48 414.09 182.73 415.58 184.88 415.88 185.32 418.25 190.62 419.27 192.91 419.09 193.36 418.36 195.22 418.31 197.49 419.34 201.03 420.88 205.29 423.28 208.28 424.74 210.12 423.95 212.4 423.13 215.51 423.18 217.45 423.33 220.89 424.01 225.04 424.98 229 424.99 232.59 424.78 233.94 423.31 234.87 417.01 238.16 411.17 240.58 409.24 241.11 409.04 241.29 408.83 241.49 407.63 242.9 407.26 244.31 406.69 246.7 405.77 248.49 406.56 249.01 409.6 251.54 410.3 252.12 414.81 254.68 417.53 256.03 419.28 256.86 420.19 257 420.54 257.01 420.61 257 420.75 256.98 420.79 256.97 420.8 256.96 420.84 256.94 420.94 256.9 421 256.87 421.08 256.83 421.25 256.8 421.77 256.71 422.3 256.84 422.96 257.31 428.14 262.88 428.81 263.59 429.16 264.07 429.2 264.13 429.22 264.16 430.38 264.13 437.81 263.52 443.62 262.46 447.07 261.71 448.64 262.09 453.11 265.6 453.09 265.64 453.07 265.67 452.94 265.94 452.92 265.99 452.77 266.34 452.77 267.3 454.19 269.65 454.43 269.96 457.72 273.11 462.41 278.4 466.3 290.57 469.87 291.07 477.95 286.21 478.12 286.15 478.28 286.36 480.78 287.18 481.9 288.84 483.68 292.68 485.57 297.71 491.38 294.52 493.88 296.55 Z" id="종로구"/>
<path d="M 494.29 311.19 494.57 327.24 500.63 327.86 500.61 329.49 500.49 330.49 500.39 330.92 500.33 331.14 500.15 331.6 499.75 332.28 499.43 332.81 499.01 333.48 494.15 337.94 493.21 344.8 486.94 346.13 486.53 345.79 483.97 347.08 483.38 347.8 483.22 348.06 483.14 348.26 482.56 349.56 481.99 352.46 480.56 356.34 474.49 363.4 471.53 367.13 470.81 367.54 470.26 367.85 468.92 368.19 467.86 368.54 467.16 369.56 466.97 369.99 466.74 370.53 464.93 375.38 466.51 377.52 465.84 377.66 465.34 377.77 464.29 377.97 463.28 378.16 463.23 378.17 460.87 375.15 460.23 374.28 458.98 372.61 458.98 372.6 458.97 372.54 458.96 372.49 459.59 369.79 460.28 368.95 458.18 363.92 457.7 362.95 454.47 364.28 451.01 363.75 447.39 363.87 446.32 364.09 446.27 364.1 445 364.9 444.56 365.38 443.26 366.9 443.27 367.57 443.25 368.22 443.15 368.59 442.49 369.46 441.02 369.81 440.5 369.93 440.36 369.97 440.34 369.97 436.74 366.04 434.89 363.15 428.06 359.63 426.1 359.79 421.73 354.38 418.97 355.92 411.81 355.12 409 355.43 409.14 353.4 409.14 353.4 409.14 353.39 406.23 351.17 406.22 351.16 404.87 350.66 404.62 355.76 404.46 355.66 403.83 355.25 403.62 355.12 403.48 355.03 398 352.71 395.8 353.04 395.8 353.05 395.79 353.06 395.79 353.06 395.61 353.19 395.4 353.32 395.12 353.47 394.77 353.61 394.52 353.7 394.26 353.75 393.9 353.8 393.5 353.81 393.22 353.79 392.85 353.71 392.47 353.6 392.18 353.48 391.98 353.39 391.76 353.26 391.13 352.78 390.82 351.39 390.86 349.52 386.4 352.27 381.93 355.21 377.89 359.19 377.54 355.2 379.93 346.61 379.91 346.36 379.91 346.34 379.24 343.58 377.35 342.76 377.06 342.74 376.88 342.77 376.42 342.83 376.61 341.38 376.84 341.35 377.38 341.28 379.7 340.95 380.96 340.38 381 340.36 381.06 340.33 381.84 339.78 382.9 339.04 383.14 338.86 384.05 338.22 384.73 337.61 385.1 337.27 385.28 337.11 385.58 336.84 386.14 336.34 386.33 336.17 386.45 336.06 387.61 335.5 391.47 334.41 386.26 325.17 390.86 319.39 403.38 316.75 404.86 316.89 407.11 316.96 411.13 317.6 424.26 319.61 427.26 319.86 427.29 319.87 427.59 319.88 428.6 319.95 428.62 319.95 428.65 319.95 429.65 319.94 429.83 319.94 429.92 319.93 430.65 319.89 430.95 319.88 432.34 319.73 442.46 318.72 443.08 318.65 443.84 318.55 444.65 318.44 445.82 318.27 446.34 318.17 446.94 318.04 447.29 317.96 447.71 317.87 447.78 317.85 448.19 317.76 449.33 317.48 449.68 317.4 452.89 316.61 456.04 316.44 462.43 316.47 468.45 316.18 468.83 316.17 482.73 315.51 485.95 313.28 493.8 311.05 494.23 311.17 494.29 311.19 Z" id="중구"/>
<path d="M 641.86 307.43 641.5 307.83 639.09 309.87 630.99 314.7 628.26 315.01 622.03 317.08 618.15 315.93 618.04 315.9 617.83 315.04 617.76 314.81 617.63 314.31 613.77 314.31 603.25 312.35 598.65 311.77 598.61 311.73 597.72 310.5 596.17 301.45 595.41 293.89 595.38 293.66 595.34 293.37 595.29 293.08 595.23 292.79 595.16 292.5 595.09 292.22 595 291.94 594.91 291.66 594.89 291.6 594.81 291.38 594.77 291.25 594.71 291.1 594.59 290.83 594.47 290.57 594.37 290.37 594.31 290.25 594.2 290.02 593.13 289.86 587.33 280.22 586.29 273.12 584.32 266.22 584.3 262.27 584.3 262.25 582.19 255.55 584.63 247.87 585.52 247.22 585.66 247.08 586.19 246.54 586.73 245.83 586.91 245.58 587.1 245.33 587.13 245.28 588.07 243.81 588.11 243.71 588.39 243.06 588.57 242.65 588.68 242.38 588.71 242.26 588.76 242.07 588.82 241.82 588.82 241.37 588.81 241.2 588 237.71 587.06 235.39 587.02 235.31 586.92 235.02 586.81 234.71 586.59 234.09 586.54 233.94 586.31 233.27 586.03 231.47 585.64 228.37 585.54 227.56 585.53 227.45 585.47 226.85 585.47 226.75 585.44 226.14 586.74 212.03 583.62 207.43 583.87 207.39 585.76 205.33 585.81 205.31 586.16 205.11 586.62 204.97 587.03 204.84 587.25 204.79 589.61 204.51 594.55 203.12 605.75 198.57 614.14 195.93 621.08 197.81 624.24 199.16 630.07 199.08 630.1 199.07 638.4 195.79 642.29 198.18 643.82 198.02 650 196.72 650.06 196.68 651.22 195.9 662.16 195.18 663.75 196.11 669.22 197.97 671.45 199.39 673.44 204.68 672.94 205.36 672.72 205.68 672.33 206.41 672.38 207.12 672.55 208.95 672.96 210.73 673.63 215.44 673.45 217.99 672.66 221.94 672.31 223.57 674.93 231.66 674.93 231.73 674.88 232.94 674.83 233.75 670.05 240.75 667.28 244.42 667.97 247 669.9 250.36 670.35 251.17 671.7 253.86 672.52 255.53 672.1 259.07 671.21 259.52 670.24 260 669.93 260.16 669.85 260.18 669.76 260.21 669.71 260.23 668.98 260.32 665.29 261.82 663.98 264.21 659.64 274.79 659.23 278.31 658.82 280.02 658.13 282.77 657.34 284.48 654.37 286.58 650.26 288.79 646.79 291.1 646.21 292 645.74 292.74 645.77 293.03 645.98 295.13 644.63 297.2 643.94 298.37 642.37 301.91 641.93 306.37 641.86 307.43 Z" id="중랑구"/>
</g>
</svg>