<?xml version="1.0"?>
<svg xmlns="http://www.w3.org/2000/svg" version="1.2" baseProfile="tiny" width="800" height="784" viewBox="0 0 800 784" stroke-linecap="round" stroke-linejoin="round">
<g id="울산광역시_시군구_경계">
<path d="M 611.74 343.38 616.24 345.89 624.06 348.74 627.97 350.13 629.56 350.73 636.37 353.34 638.12 354.96 638.45 355.3 641.69 356.38 642.56 358.04 643.61 359.69 643.72 359.85 643.97 360.18 644.77 361.05 644.87 361.15 646.1 362.22 646.24 362.31 646.6 362.52 648.46 363.39 649.1 363.55 649.96 363.69 650.23 363.73 650.65 363.76 650.9 363.75 650.98 363.75 651.17 363.74 651.47 363.71 651.68 363.64 652.04 363.45 652.8 363.02 653.05 362.87 653.33 362.71 654.44 362.09 654.91 361.83 658.07 364.45 658.37 364.81 660.32 383.73 658.92 383.72 657.04 382.94 655.98 383.41 653.17 390.67 652.09 393.44 654.77 394.48 656.27 395.06 657.88 395.68 657.57 397.19 657.35 398.26 657.17 399.12 656.73 401.38 656.49 405.34 656.52 405.35 664.27 406.2 667.72 406.58 674.02 407.28 674.05 407.3 674.06 407.35 674.25 411 674.5 415.98 674.64 418.44 674.75 420.42 676.33 426.3 677.5 431.44 677.16 436.05 676.14 437.54 675.57 438.03 674.51 438.18 674.2 438.22 674.12 438.22 673.46 438.15 673.29 438.12 673.16 438.08 672.99 438.02 672.76 437.93 672.31 437.74 665.83 434.92 665.73 434.87 658.08 436.91 653.15 438.41 652.74 438.45 651.64 438.53 651.2 438.55 648.98 438.25 644.19 434.54 643.27 433.04 640.97 430.64 638.84 429.9 637.86 432.24 640.83 438.37 645.09 444.45 645.21 444.5 651.18 444.79 655.72 442.25 657.93 440.17 658.01 440.13 658.11 440.1 658.24 440.06 658.58 439.99 658.71 439.98 663.84 440.19 663.99 440.21 664.03 440.23 664.08 440.24 664.11 440.26 664.13 440.27 671.23 450.96 676.68 460.22 678.89 462.7 681 464.94 683.37 467.51 683.26 469.45 683.26 470.47 683.34 478.26 683.34 479.02 683.35 479.24 683.36 480 683.46 480.22 683.8 480.7 683.94 480.7 684.01 480.74 684.05 482.53 684.04 482.69 683.95 482.73 683.73 482.73 682.9 481.81 682.88 480.81 682.73 472.51 682.71 471.15 682.69 469.81 682.68 468.47 682.68 468.19 682.66 467.21 680.18 464.48 680 464.56 679.37 465.09 675.04 469.85 675.27 473.21 675.46 475.7 675.26 476.68 674.75 477.18 673.02 478.44 672.92 478.52 672.85 478.59 672.51 479.13 672.55 483.11 672.75 484.41 672.88 487.48 667.81 496.02 667.68 496.18 667.55 496.31 667.42 496.4 667.27 496.48 667 496.52 666.79 496.5 666.66 496.48 666.55 496.45 666.42 496.38 665.56 495.86 663.91 494.73 663.81 494.7 663.49 494.67 658.81 498.31 657.38 499.59 657.33 499.63 657.29 499.69 657.25 499.74 657.23 499.79 657.22 499.83 657.07 500.35 657.05 500.42 657.04 500.48 657 502.92 658.11 504.24 659.59 506.02 662.38 507.73 661.71 508.94 660.31 511.35 658.26 514.73 657.25 515.36 656.64 515.11 656.26 514.95 656.1 515.35 652.25 524.83 648.61 531.06 626.34 522.04 625.45 521.67 625.16 521.34 622.94 518.46 621.98 515.74 621.97 515.68 621.97 515.64 621.97 515.59 622 515.53 622.03 515.48 622.91 514.78 622.95 514.76 622.98 514.72 623 514.69 623 514.66 623.01 514.64 622.53 511.39 622.46 511.23 622.32 510.91 622.2 510.64 622.06 510.37 618.55 503.68 616.33 501.83 615.7 501.73 615.43 501.7 615.22 501.69 615.06 501.68 614.83 501.65 614.76 501.62 613.28 500.91 612.94 500.68 611.04 499.21 610.42 498.73 608.45 496.9 603.8 492.54 601.05 488.02 601.1 487.66 601.1 487.42 601.11 484.38 601.1 484.17 601.08 483.92 601.04 483.67 601.01 483.52 600.04 481.02 599.93 480.76 599.83 480.53 599.69 480.25 599.01 479.22 597.51 476.98 597.43 476.86 597.29 476.7 597.02 476.47 595.34 475.17 588.73 470.17 586.61 470.13 585.64 470.15 583.81 469.5 583.31 468.92 583.04 468.44 583.1 468.12 583.48 467.88 579.63 463 579.17 463.02 578.35 463.05 576.49 464.59 574.99 465.85 574.15 466.6 573.58 467.12 571.17 467.18 568.59 466.71 568.17 465.16 566.94 461.27 566.29 459.49 558.7 459.58 558.65 459.58 552.84 456.78 550.36 453.04 549.82 451.93 548.71 449.39 548.55 448.96 548.51 448.7 548.53 448.55 548.53 448.55 548.4 448.28 547.9 447.87 547.82 447.82 545.69 446.98 545.15 447.91 544.84 448.59 544.46 449.56 544.31 450.03 544.27 450.23 544.25 450.37 544.2 450.64 544.2 450.66 542.99 451.4 541.98 451.97 540.52 452.78 539.77 452.81 537.23 452.11 531.19 444.89 530.97 443.76 530.71 441.32 529.9 439.8 527.26 437.56 527.03 437.6 526.7 437.66 526.32 437.72 525.37 437.05 524.85 435.8 523.27 431.96 520.31 425.37 520.29 425.37 520.09 425.44 518.73 425.9 517.46 424.72 516.67 420.58 516.35 418.28 515.98 413.4 516.03 413.1 513.63 411.19 513.54 411.12 512.8 410.82 508.58 409.63 506.12 409.51 504.74 408.76 503.14 405.59 503.3 405.23 503.38 405.05 503.39 405.02 504.45 404.71 505.25 404.02 503.5 402 502.67 401.36 501.23 400.28 498.76 399.51 497.35 399.78 495.86 398.34 493.77 396.25 491.8 393.03 491.57 392.13 491.31 391.11 491.89 389.8 491.95 389.68 492.03 389.56 492.23 389.27 492.25 389.24 493.82 386.89 493.49 386.33 493.19 385.81 492.88 385.29 489.74 384.07 481.37 382.56 476.77 382.34 476.07 382.44 473.88 383.18 467.95 383.47 465.74 381.07 466.15 379.72 465.04 375.58 462.36 374.74 460.82 374.45 460.82 374.45 460.98 375.13 461.62 376.7 461.07 377.45 460.98 377.57 460.51 378.2 460.47 378.25 459.66 378.9 452.23 378.22 450.64 378.04 449.91 377.88 449.82 377.86 448.85 376.64 448.34 375.77 448.02 375.23 446.9 373.56 446.63 373.15 446.17 372.47 443.11 373.71 442.55 373.98 435.38 372.98 431.5 372.58 431.49 372.58 433.3 368.46 435.05 365.19 435.57 365.22 437.53 365.35 440.2 364.73 443.3 360.35 448.48 356.97 451.94 353.81 456.33 348.05 456.53 347.72 458.02 344.15 458.12 343.79 458.14 343.74 458.14 343.71 458.08 342.63 458.06 342.56 458.02 342.34 457.99 342.23 457.94 341.98 457.91 341.84 457.93 341.55 459.05 339.4 459.42 338.84 459.52 338.69 459.71 338.41 459.83 338.21 460.15 337.88 462.24 336 463.51 336.72 463.63 336.79 463.95 337 465.14 337.82 465.63 338.16 465.8 338.29 466.31 338.66 466.99 339.16 469.4 341.03 471.68 341.11 470.07 339.88 471.58 335.6 473.85 331.65 477.89 330.65 478.13 330.92 479.21 332.3 479.58 332.72 479.71 332.87 479.95 333.13 480.05 333.24 480.53 333.72 480.88 334.07 481.5 334.68 481.97 335.07 482.7 335.57 483.09 335.79 484.6 336.59 485.68 337.12 485.9 337.2 486.23 337.33 486.44 337.4 487.75 337.39 488.26 337.38 488.63 337.37 489.27 337.34 489.51 337.28 490.29 336.94 490.66 336.76 490.76 336.72 491.16 336.49 491.54 336.28 492.06 336.02 492.54 335.91 492.92 335.89 493.3 335.93 493.51 335.96 498.71 336.86 500.59 337.21 501.51 337.49 501.62 337.53 501.71 337.57 501.89 337.64 513.33 343.36 513.56 343.48 513.97 343.71 514.01 343.73 514.17 343.82 514.69 344.14 514.87 344.26 515.11 344.46 516.06 345.37 516.26 345.64 516.52 346.08 516.56 346.14 516.72 346.45 516.74 346.49 517.15 347.5 517.51 348 518.01 348.55 520.19 350.74 520.42 350.88 520.61 351 520.93 351.2 521.2 351.34 521.32 351.4 525.32 353 525.32 353.01 525.43 353.05 525.67 353.14 526.39 353.39 526.62 353.43 527.26 353.55 528.95 353.5 532.37 352.87 533.27 352.71 535.85 352.03 536.46 351.8 536.73 351.65 538.49 350.26 538.63 350.07 538.95 349.63 539.2 349.28 539.22 349.03 539.15 348.09 539.12 347.67 539.07 347.41 539.03 347.17 539.01 347.05 538.97 346.81 538.87 346.01 538.84 345.54 538.81 345.05 538.74 344.09 538.68 342.27 538.69 341.5 538.81 341.02 538.94 340.53 540.79 338.84 541.02 338.64 541.44 338.34 541.62 338.21 541.83 338.07 542.06 337.92 542.26 337.84 542.6 337.69 542.61 337.69 542.92 337.62 542.99 337.6 543.2 337.55 544.11 337.43 544.54 337.39 544.65 337.39 544.89 337.38 544.98 337.38 545.16 337.37 545.27 337.39 545.52 337.48 545.69 337.54 547.6 338.34 547.61 338.35 550.13 339.09 557.24 341.39 557.96 341.58 560.3 341.9 560.94 341.99 569.37 342.86 570.64 343 570.83 343.02 574.98 343.4 575.86 343.35 576.57 343.26 577.14 343.19 577.66 343.12 578.16 343.05 583.55 342.01 583.76 341.96 584.53 341.62 584.63 341.55 596.4 343.38 597.7 343.51 598.98 343.88 599.51 343.96 601.84 343.96 602.66 343.91 602.95 343.77 603.23 343.63 603.33 343.6 603.35 343.6 604.74 343.28 606.18 342.99 608.44 342.56 608.81 342.53 608.86 342.53 609.87 342.76 609.89 342.76 610.11 342.83 610.19 342.85 611.74 343.38 Z" id="남구"/>
<path d="M 698.92 505.81 698.81 505.86 698.76 505.85 698.64 505.54 702.76 503.78 705.9 502.44 709.35 500.98 709.48 501.26 708.29 501.78 706.65 502.48 698.92 505.81 Z M 676.55 385.47 676.7 385.54 677.7 386.27 678.73 387.08 678.93 387.25 679.31 387.6 679.54 387.84 680.01 388.33 680.83 389.29 683.03 393.11 683.25 393.49 683.6 394.11 683.85 394.42 683.91 394.49 684.05 394.65 684.18 394.78 684.26 394.86 684.46 395.04 684.53 395.11 684.72 395.26 685 395.48 685.21 395.61 685.55 395.79 685.77 395.9 685.97 395.98 686.16 396.05 686.32 396.11 686.74 396.22 686.9 396.26 687.02 396.29 687.05 396.29 687.21 396.32 687.35 396.34 687.52 396.36 687.65 396.37 689.72 396.23 690 396.21 690.09 396.21 690.21 396.21 690.27 396.21 690.36 396.22 690.61 396.25 690.75 396.27 690.89 396.29 690.94 396.3 691.19 396.35 691.34 396.39 702.31 399.32 702.99 399.87 705.29 402.17 705.85 402.8 705.67 403.49 705.64 403.79 705.65 404.06 705.84 404.49 707.66 406.14 707.95 406.32 710.6 407.32 711.58 406.22 711.83 405.47 712.61 401.3 712.11 396.62 713.34 395.58 713.7 394.94 713.84 393.67 713.86 393.43 713.88 393.26 713.52 391.37 712.77 390.71 711.08 389.23 710.37 389.22 708.22 387.76 706.94 386.27 700.47 383.88 699.7 383.51 698.48 381.07 700.84 376.54 702.6 373.48 702.89 373.4 703.47 373.25 704.31 372.2 705.37 370.47 706.95 364.94 706.88 363.92 706.84 363.46 706.82 363.25 706.5 362.18 706.17 361.9 705.66 361.45 704.82 358.6 705.1 356.65 708.82 350.13 709.57 348.95 708.83 347.32 707.19 342.97 707.32 340.37 707.98 338.04 708.76 336.72 709.14 336.36 710.15 335.81 710.96 335.45 711.88 335.35 713.96 334.25 714.29 333.99 714.77 333.62 717.06 330.57 717.35 330 717.99 327.4 716.95 322.42 719.21 320.33 719.66 320.04 721.76 318.74 725.86 315.06 726.42 313.98 727.25 312.76 727.69 312.39 727.72 312.37 741.96 306.57 742.81 305.72 742.9 305.66 745.82 305.34 748.8 305.69 754.1 305.3 756.19 303.81 756.7 303.45 760.59 302.53 761.03 302.57 763.56 303.04 763.78 303.26 763.93 303.72 764.15 303.86 764.34 303.93 764.62 304 764.8 304.04 767.62 304.17 772.35 300.82 772.36 300.68 774.9 298.42 779.1 296.18 780.57 295.79 780.72 296.18 780.75 296.31 780.76 296.32 780.76 296.33 780.77 296.35 780.77 296.36 780.78 296.37 780.79 296.41 780.79 296.42 780.8 296.43 780.8 296.44 780.8 296.45 780.81 296.46 780.81 296.46 780.81 296.47 780.82 296.48 780.83 296.5 780.83 296.52 780.84 296.53 780.84 296.53 780.85 296.55 780.85 296.56 780.87 296.59 780.87 296.6 781.5 298.3 781.83 299.14 781.83 299.16 781.84 299.17 781.84 299.17 781.84 299.18 781.85 299.2 781.86 299.22 781.86 299.23 781.87 299.23 781.87 299.24 781.87 299.25 781.88 299.27 781.89 299.28 781.89 299.28 781.89 299.29 781.9 299.3 781.9 299.31 781.91 299.32 781.92 299.34 781.93 299.35 781.94 299.37 781.94 299.37 781.95 299.39 781.96 299.4 781.96 299.41 781.97 299.42 781.98 299.42 781.98 299.43 782.08 299.57 782.1 299.59 782.11 299.6 782.2 299.71 782.2 299.72 782.21 299.73 782.22 299.74 782.23 299.75 782.28 299.81 782.29 299.82 782.29 299.82 782.3 299.83 782.32 299.84 782.32 299.85 782.33 299.85 782.33 299.86 782.34 299.86 782.34 299.86 782.35 299.87 782.51 300 782.52 300 782.52 300 782.66 300.34 782.66 300.34 782.62 300.4 782.61 300.41 782.61 300.42 782.61 300.42 782.61 300.43 782.6 300.43 782.6 300.44 782.6 300.44 782.6 300.45 782.6 300.45 782.6 300.46 782.6 300.47 782.59 300.47 782.59 300.48 782.59 300.5 782.59 300.5 782.59 300.51 782.59 300.58 782.59 300.59 782.59 300.61 782.59 300.62 782.59 300.68 782.59 300.71 782.59 300.72 782.59 300.74 782.59 300.75 782.65 301.31 782.68 301.52 782.68 301.52 782.68 301.53 782.68 301.54 782.68 301.55 782.69 301.57 782.69 301.58 782.69 301.59 782.69 301.59 782.69 301.6 782.69 301.61 782.7 301.62 782.7 301.62 782.7 301.63 782.83 302.02 782.83 302.03 782.84 302.05 782.86 302.11 782.87 302.13 782.88 302.14 782.88 302.15 782.89 302.16 783.02 302.41 783.02 302.42 783.02 302.43 783.03 302.44 783.04 302.46 783.05 302.47 783.05 302.48 783.06 302.49 783.06 302.49 783.08 302.53 783.08 302.53 783.09 302.54 783.09 302.55 783.1 302.57 783.11 302.58 783.11 302.58 783.12 302.59 783.12 302.6 783.16 302.65 783.17 302.66 783.18 302.68 783.19 302.69 783.2 302.71 783.23 302.74 783.23 302.75 783.24 302.76 783.24 302.77 783.25 302.77 783.25 302.78 783.26 302.79 783.27 302.79 783.27 302.8 783.28 302.81 783.28 302.81 783.29 302.82 783.3 302.83 783.3 302.83 783.31 302.84 783.32 302.85 783.34 302.87 783.35 302.88 783.35 302.89 783.36 302.89 783.37 302.9 783.38 302.91 783.38 302.92 783.4 302.93 783.41 302.94 783.42 302.95 783.42 302.95 783.43 302.96 783.44 302.97 784.73 306.06 785.09 306.71 785.18 306.86 785.51 307.32 786.18 308.15 786.19 308.16 786.19 308.17 786.21 308.18 786.21 308.19 786.22 308.2 786.23 308.21 786.23 308.22 786.5 308.48 786.61 308.59 786.62 308.6 786.62 308.61 786.63 308.61 786.64 308.62 786.64 308.62 786.65 308.63 786.66 308.63 786.66 308.64 786.67 308.64 786.67 308.65 786.68 308.65 786.69 308.66 786.69 308.66 786.7 308.67 786.71 308.67 786.71 308.68 786.73 308.68 786.73 308.69 786.74 308.69 786.75 308.7 786.75 308.7 786.76 308.71 786.82 308.75 787.41 309.12 787.42 309.13 787.43 309.14 787.45 309.15 787.46 309.15 787.46 309.16 787.47 309.16 787.48 309.17 787.49 309.17 787.5 309.18 787.51 309.18 787.52 309.19 787.53 309.19 787.54 309.2 788.32 309.58 788.33 309.59 788.34 309.59 788.34 309.59 788.35 309.6 788.36 309.6 788.36 309.6 788.37 309.6 788.38 309.6 788.38 309.61 788.39 309.61 788.4 309.61 788.4 309.61 788.41 309.61 788.41 309.61 788.42 309.61 788.43 309.61 788.43 309.61 788.44 309.61 788.45 309.61 788.45 309.61 788.46 309.61 788.46 309.61 788.47 309.61 788.48 309.61 788.48 309.61 788.49 309.61 788.49 309.61 788.5 309.61 788.5 309.6 788.5 309.6 788.59 309.57 788.6 309.57 788.6 309.57 788.61 309.56 788.61 309.56 788.62 309.56 788.62 309.56 788.62 309.55 788.63 309.55 788.63 309.55 788.64 309.55 788.64 309.54 788.64 309.54 788.65 309.53 788.65 309.53 788.66 309.52 788.67 309.51 788.67 309.5 788.68 309.5 788.68 309.49 788.69 309.49 788.69 309.49 788.69 309.48 788.7 309.48 788.7 309.48 788.7 309.47 788.71 309.47 788.72 309.47 788.72 309.46 788.73 309.46 788.74 309.46 788.75 309.47 788.75 309.47 788.89 309.54 788.9 309.54 788.91 309.54 788.91 309.55 788.92 309.55 788.93 309.56 788.93 309.56 788.94 309.57 788.94 309.57 788.95 309.58 788.95 309.58 788.96 309.59 788.96 309.59 788.96 309.6 788.97 309.61 788.97 309.61 789.01 309.77 789.27 310.44 789.27 310.44 789.27 310.45 789.27 310.45 789.26 310.46 789.26 310.46 789.1 310.94 789.1 310.94 789.09 310.95 789.09 310.95 789.08 310.96 789.08 310.96 789.07 310.97 789.07 310.97 788.9 311.11 788.89 311.11 788.88 311.12 788.87 311.12 788.87 311.12 788.86 311.13 788.85 311.13 788.85 311.13 788.84 311.12 788.83 311.12 788.82 311.12 788.81 311.12 788.81 311.12 788.8 311.11 788.79 311.11 788.79 311.11 788.78 311.11 788.78 311.11 788.77 311.11 788.77 311.11 788.76 311.12 788.76 311.12 788.75 311.12 788.74 311.13 788.74 311.13 788.73 311.14 788.73 311.14 788.72 311.15 788.71 311.16 788.71 311.16 788.71 311.16 788.7 311.17 788.69 311.18 788.67 311.21 788.66 311.21 788.65 311.22 788.64 311.24 788.58 311.31 788.58 311.32 788.57 311.32 788.57 311.32 788.57 311.33 788.56 311.34 788.56 311.34 788.55 311.35 788.55 311.36 788.55 311.37 788.54 311.37 788.43 311.63 788.01 313.19 788 313.19 787.94 313.24 787.93 313.24 787.92 313.25 787.92 313.25 787.91 313.26 787.91 313.27 787.9 313.28 787.9 313.28 787.89 313.29 787.89 313.3 787.89 313.31 787.89 313.32 787.89 313.33 787.89 313.33 787.9 313.34 787.98 313.45 787.99 313.46 787.99 313.47 788 313.48 788.1 313.56 788.1 313.57 788.11 313.57 788.12 313.58 788.12 313.58 788.13 313.59 788.14 313.59 788.15 313.6 788.15 313.6 788.16 313.61 788.17 313.61 788.17 313.62 788.2 313.64 788.21 313.64 788.21 313.64 788.23 313.65 788.24 313.66 788.25 313.67 788.26 313.68 788.29 313.69 788.3 313.7 788.75 313.96 789.2 314.21 789.32 314.25 789.33 314.25 789.34 314.25 789.35 314.26 789.35 314.27 789.66 315 789.7 315.1 789.97 315.83 789.98 315.84 789.98 315.85 789.98 315.86 790.01 316.12 790.01 316.13 790.01 316.14 790.02 316.3 790.03 316.31 790.03 316.32 790.02 316.33 790.02 316.34 790.02 316.36 790.02 316.37 790.02 316.38 790.02 316.39 790.02 316.41 790.02 316.42 790.01 316.43 790.01 316.44 790.01 316.45 790 316.46 790 316.47 790 316.48 789.99 316.49 789.99 316.49 789.98 316.5 789.97 316.51 789.96 316.52 789.95 316.53 789.94 316.53 789.94 316.54 789.93 316.55 789.92 316.56 789.91 316.56 789.9 316.56 789.89 316.57 789.88 316.57 789.86 316.57 789.85 316.57 789.84 316.57 789.83 316.56 789.82 316.56 789.81 316.56 789.81 316.55 789.8 316.54 789.56 316.32 789.55 316.31 789.54 316.3 789.54 316.3 789.53 316.29 789.52 316.28 789.52 316.27 789.51 316.27 789.51 316.26 789.51 316.26 789.5 316.25 789.5 316.24 789.49 316.23 789.49 316.22 789.48 316.21 789.48 316.2 789.48 316.2 789.47 316.19 789.47 316.19 789.47 316.18 789.46 316.17 789.46 316.16 789.46 316.15 789.46 316.15 789.44 316.1 789.44 316.09 789.43 316.09 789.43 316.08 789.43 316.08 789.43 316.07 789.43 316.06 789.43 316.06 789.43 316.05 789.43 316.04 789.42 316.03 789.42 316.02 789.42 316.01 789.42 316 789.42 315.99 789.42 315.98 789.43 315.97 789.43 315.96 789.43 315.96 789.43 315.95 789.44 315.95 789.44 315.94 789.44 315.94 789.45 315.93 789.45 315.93 789.46 315.92 789.46 315.91 789.46 315.9 789.46 315.89 789.46 315.88 789.46 315.87 789.45 315.86 789.3 315.4 789.25 315.26 789.25 315.26 788.81 314.53 788.81 314.52 788.8 314.52 788.8 314.52 788.79 314.51 787.99 314.07 787.98 314.07 787.95 314.06 787.94 314.05 787.94 314.05 787.93 314.05 787.92 314.04 787.92 314.04 787.91 314.04 787.91 314.04 787.9 314.03 787.89 314.03 787.89 314.03 787.88 314.03 787.88 314.03 787.86 314.02 787.86 314.02 787.85 314.02 787.85 314.03 787.81 314.08 787.81 314.09 787.8 314.1 787.79 314.11 787.79 314.12 787.77 314.14 787.73 314.22 787.72 314.23 787.71 314.25 787.71 314.25 787.7 314.26 787.7 314.27 787.7 314.27 787.54 314.59 787.51 315.42 787.51 315.45 787.51 315.46 787.51 315.47 787.51 315.48 787.51 315.49 787.58 316.18 787.58 316.19 787.58 316.19 787.58 316.2 787.58 316.21 787.58 316.21 787.58 316.22 787.58 316.22 787.59 316.23 787.59 316.23 787.59 316.24 787.59 316.24 787.59 316.25 787.6 316.27 787.6 316.28 787.6 316.28 787.6 316.29 787.6 316.3 787.6 316.3 787.61 316.31 787.61 316.32 787.61 316.33 787.62 316.33 787.62 316.34 787.64 316.39 787.66 316.43 787.68 316.49 787.69 316.5 787.69 316.5 787.69 316.51 787.77 316.67 787.78 316.68 787.78 316.69 787.79 316.7 787.79 316.71 787.89 316.89 787.89 316.89 787.9 316.9 787.9 316.91 788.06 317.06 788.07 317.07 788.07 317.07 788.09 317.08 788.09 317.09 788.09 317.09 788.1 317.09 788.12 317.11 788.13 317.11 788.13 317.11 788.14 317.11 788.14 317.11 788.15 317.11 788.16 317.11 788.16 317.11 788.17 317.11 788.31 317.28 788.31 317.28 788.3 317.28 788.3 317.29 788.29 317.29 788.28 317.3 788.28 317.31 788.27 317.31 788.27 317.32 788.27 317.33 788.26 317.33 788.26 317.34 788.26 317.34 788.26 317.35 788.21 317.5 788.21 317.51 788.21 317.52 788.2 317.64 788.2 317.64 788.2 317.65 788.2 317.66 788.99 319.46 788.99 319.47 789.01 319.86 789.01 319.87 789.01 319.89 789.02 319.97 789.02 319.99 789.02 320.01 789.03 320.02 789.03 320.04 789.04 320.06 789.04 320.07 789.05 320.09 789.05 320.1 789.06 320.12 789.51 321.04 789.51 321.05 789.51 321.05 789.8 321.32 789.81 321.33 789.82 321.33 789.82 321.34 789.83 321.34 789.84 321.35 789.85 321.35 789.86 321.35 789.86 321.36 789.87 321.36 789.88 321.36 790.03 321.58 790.01 321.67 790.01 321.68 790.01 321.69 790.01 321.69 790.01 321.7 790.01 321.71 790.01 321.72 790.02 321.73 790.15 322.06 790.15 322.07 790.26 322.22 790.26 322.23 790.27 322.23 790.27 322.24 790.28 322.24 790.29 322.25 790.3 322.25 790.3 322.25 790.31 322.25 790.32 322.25 790.33 322.25 790.33 322.25 790.34 322.25 790.35 322.25 790.35 322.26 790.36 322.26 790.36 322.27 790.36 322.28 790.36 322.28 790.36 322.29 790.35 322.29 790.35 322.3 790.34 322.3 790.17 322.41 790.16 322.41 790.15 322.41 790.15 322.42 790.14 322.42 790.13 322.42 790.13 322.42 790.12 322.42 790.11 322.42 790.11 322.42 790.1 322.41 790.1 322.41 790.09 322.41 790.09 322.4 790.08 322.4 790.08 322.4 790.07 322.39 789.94 322.2 789.93 322.2 789.93 322.19 789.92 322.18 789.92 322.17 789.92 322.17 789.91 322.16 789.91 322.15 789.91 322.14 789.9 322.13 789.9 322.12 789.9 322.11 789.89 322.1 789.89 322.09 789.89 322.09 789.89 322.08 789.89 322.08 789.88 322.07 789.88 322.07 789.84 321.9 789.84 321.9 789.84 321.89 789.84 321.89 789.83 321.88 789.83 321.87 789.83 321.86 789.83 321.86 789.82 321.83 789.82 321.82 789.82 321.81 789.81 321.71 789.8 321.71 789.8 321.7 789.8 321.7 789.8 321.69 789.8 321.68 789.8 321.67 789.8 321.66 789.8 321.66 789.8 321.65 789.8 321.64 789.8 321.64 789.8 321.63 789.79 321.6 789.79 321.6 789.79 321.59 789.78 321.59 789.78 321.59 789.77 321.59 789.71 321.59 789.7 321.59 789.7 321.59 789.69 321.59 789.59 321.59 789.41 321.61 789.4 321.61 789.4 321.61 789.4 321.61 789.36 321.86 789.33 322.26 789.33 322.27 789.33 322.27 789.33 322.28 789.33 322.28 789.33 322.29 789.33 322.3 789.35 322.64 789.35 322.65 789.35 322.65 789.35 322.65 789.36 322.66 789.39 322.67 789.4 322.68 789.41 322.68 789.41 322.68 789.42 322.68 789.42 322.67 789.54 322.58 789.54 322.57 789.55 322.57 789.56 322.56 789.6 322.53 789.61 322.52 789.65 322.48 789.65 322.48 789.93 322.8 789.93 322.8 790.24 322.78 790.25 322.78 790.25 322.78 790.26 322.78 790.27 322.78 790.28 322.78 790.28 322.78 790.29 322.78 790.3 322.78 790.3 322.79 790.31 322.79 790.31 322.79 790.32 322.8 790.32 322.8 790.33 322.8 790.33 322.8 790.34 322.81 790.34 322.81 790.35 322.82 790.35 322.82 790.36 322.82 790.36 322.83 790.36 322.83 790.37 322.83 790.37 322.84 790.37 322.84 790.38 322.84 790.38 322.85 790.38 322.85 790.39 322.86 790.39 322.87 790.39 322.87 790.39 322.88 790.39 322.89 790.39 322.89 790.39 322.91 790.39 322.92 790.39 322.93 790.39 322.94 790.38 322.94 790.38 322.95 790.38 322.95 790.38 322.96 790.37 322.96 790.37 322.97 790.36 322.97 790.36 322.97 790.35 322.98 790.34 322.98 790.34 322.98 790.33 322.98 790.33 322.98 790.32 322.98 790.32 322.98 790.31 322.99 790.31 322.99 790.3 322.99 790.3 322.99 790.29 322.99 790.28 322.99 790.01 322.98 789.88 322.96 789.87 322.95 789.87 322.95 789.86 322.95 789.84 322.95 789.84 322.95 789.84 322.95 789.83 322.95 789.83 322.95 789.82 322.95 789.82 322.96 789.66 322.99 789.65 322.99 789.64 322.99 789.64 322.99 789.63 322.99 789.62 323 789.62 323 789.61 323 789.61 323.01 789.6 323.01 789.6 323.01 789.6 323.02 789.59 323.03 789.59 323.03 789.59 323.04 789.59 323.05 789.59 323.05 789.58 323.06 789.58 323.06 789.58 323.07 789.58 323.07 789.57 323.11 789.57 323.12 789.57 323.15 789.57 323.16 789.56 323.16 789.46 323.85 789.52 324.77 789.42 324.92 789.28 325.17 789.28 325.18 789.27 325.19 789.27 325.2 789.27 325.2 789.27 325.21 789.27 325.21 789.27 325.22 789.28 325.22 789.28 325.23 789.28 325.23 789.28 325.24 789.28 325.24 789.28 325.25 789.29 325.25 789.29 325.25 789.29 325.26 789.29 325.26 789.29 325.27 789.3 325.27 789.3 325.28 789.3 325.28 789.31 325.29 789.31 325.29 789.31 325.29 789.32 325.3 789.32 325.3 789.32 325.31 789.33 325.31 789.33 325.32 789.34 325.32 789.35 325.33 789.35 325.33 789.35 325.34 789.36 325.34 789.36 325.34 789.37 325.35 789.37 325.35 789.37 325.35 789.38 325.36 789.38 325.36 789.6 325.5 789.58 325.66 789.56 326.1 789.56 326.11 789.56 326.11 789.55 326.12 789.55 326.13 789.55 326.14 789.55 326.14 789.54 326.15 789.54 326.16 789.54 326.16 789.54 326.17 789.54 326.18 789.54 326.18 789.53 326.19 789.53 326.2 789.53 326.2 789.53 326.21 789.53 326.21 789.53 326.22 789.53 326.23 789.53 326.23 789.53 326.24 789.53 326.24 789.53 326.29 789.53 326.32 789.53 326.33 789.53 326.34 789.53 326.36 789.53 326.36 789.53 326.38 789.53 326.38 789.53 326.39 789.53 326.4 789.53 326.4 789.53 326.41 789.53 326.42 789.53 326.43 789.53 326.43 789.53 326.44 789.53 326.45 789.53 326.45 789.53 326.46 789.53 326.47 789.53 326.48 789.53 326.48 789.54 326.53 789.54 326.54 789.55 326.54 789.55 326.56 789.55 326.56 789.55 326.57 789.55 326.58 789.56 326.58 789.56 326.59 789.58 326.65 789.58 326.66 789.58 326.67 789.74 327.17 789.74 327.18 789.74 327.18 789.75 327.19 789.75 327.19 789.81 327.28 789.81 327.29 789.81 327.29 789.82 327.29 789.82 327.3 790.25 327.62 790.4 328.7 790.07 328.56 790.04 328.07 790.03 327.91 790.03 327.9 790.03 327.9 790.03 327.89 790.03 327.88 790.03 327.88 789.81 327.88 789.67 327.87 789.65 327.87 789.64 327.88 789.64 327.88 789.59 327.98 789.57 328.01 789.49 328.2 789.48 328.21 789.41 329.78 789.41 329.79 789.41 329.79 789.41 329.8 789.41 329.81 789.41 329.81 789.41 329.82 789.41 329.82 789.42 329.83 789.42 329.83 789.42 329.84 789.42 329.84 789.42 329.86 789.42 329.86 789.42 329.87 789.43 329.88 789.43 329.88 789.43 329.89 789.43 329.89 789.43 329.9 789.44 329.91 789.44 329.92 789.44 329.92 789.44 329.93 789.45 329.94 789.45 329.94 789.45 329.95 789.45 329.96 789.46 329.96 789.46 329.97 789.46 329.97 789.46 329.98 789.55 330.17 789.56 330.18 789.56 330.18 789.57 330.2 789.57 330.2 789.67 330.37 789.85 330.59 789.85 330.6 789.86 330.61 789.86 330.61 789.87 330.62 789.88 330.62 789.88 330.63 789.89 330.63 789.9 330.63 789.9 330.63 789.91 330.63 789.96 330.64 790.12 331.68 790.12 331.68 790.18 331.76 790.18 331.77 790.19 331.77 790.19 331.78 790.19 331.78 790.19 331.79 790.2 331.81 790.21 331.81 790.21 331.81 790.21 331.82 790.21 331.82 790.22 331.83 790.22 331.83 790.22 331.83 790.22 331.84 790.22 331.84 790.23 331.85 790.23 331.85 790.23 331.86 790.23 331.86 790.23 331.87 790.23 331.87 790.23 331.88 790.23 331.88 790.24 331.89 790.24 331.89 790.24 331.9 790.24 331.91 790.24 331.91 790.24 331.92 790.24 331.92 790.24 331.93 790.24 331.93 790.24 331.94 790.23 331.94 790.23 331.95 790.23 331.95 790.23 331.96 790.23 331.97 790.23 331.97 790.23 331.98 790.14 332.25 790.14 332.26 790.13 332.26 790.13 332.27 790.13 332.27 790.13 332.28 790.13 332.28 790.13 332.29 790.12 332.3 790.12 332.31 790.11 332.31 790.11 332.33 790.1 332.34 790.1 332.35 790.1 332.35 790.09 332.37 790.09 332.37 790.08 332.38 790.08 332.39 790.06 332.41 790.05 332.42 790.05 332.42 790.04 332.43 790.04 332.43 790.03 332.43 790.03 332.44 790.01 332.44 790 332.45 789.99 332.46 789.97 332.46 789.95 332.47 789.94 332.47 789.92 332.48 789.91 332.48 789.9 332.48 789.89 332.49 789.88 332.49 789.86 332.5 789.78 332.54 789.76 332.55 789.75 332.56 789.74 332.56 789.71 332.57 789.69 332.58 789.68 332.6 789.66 332.61 789.64 332.62 789.62 332.64 789.56 332.68 789.54 332.69 789.52 332.71 789.5 332.72 789.49 332.73 789.47 332.75 789.47 332.76 789.46 332.77 789.45 332.77 789.45 332.78 789.44 332.79 789.4 332.85 789.39 332.86 789.13 333.26 789.12 333.27 789.11 333.28 788.67 334.05 788.66 334.05 788.64 334.04 787.57 334.03 787.53 334.03 787.46 334.04 787.46 334.04 787.45 334.04 787.44 334.04 787.44 334.05 787.43 334.05 787.42 334.05 787.41 334.05 787.41 334.06 787.14 334.18 787.13 334.18 787.12 334.18 787.11 334.19 787.01 334.24 786.97 334.26 786.92 334.29 786.88 334.31 786.82 334.35 786.82 334.35 786.74 334.4 786.74 334.4 786.73 334.41 786.55 334.54 786.55 334.55 786.54 334.55 786.42 334.66 786.41 334.66 786.41 334.67 786.4 334.67 786.39 334.68 786.38 334.69 786.24 334.84 786.23 334.86 786.23 334.87 786.22 334.87 786.21 334.88 786.18 334.91 786.13 334.97 786.12 334.98 786.03 335.08 785.9 335.25 785.89 335.25 785.89 335.26 785.88 335.26 785.88 335.27 785.84 335.33 785.84 335.33 785.83 335.34 785.83 335.35 785.82 335.35 785.82 335.36 785.82 335.36 785.79 335.41 785.78 335.42 785.78 335.43 785.77 335.44 785.77 335.45 785.76 335.47 785.75 335.48 785.75 335.48 785.75 335.49 785.65 335.7 785.45 336.12 785.45 336.13 785.44 336.14 785.44 336.15 785.44 336.16 785.43 336.16 785.37 336.31 785.37 336.32 785.36 336.33 785.36 336.34 785.35 336.35 785.35 336.36 785.35 336.37 785.34 336.38 785.34 336.39 785.34 336.4 785.33 336.42 785.33 336.43 785.3 336.54 785.3 336.55 785.22 336.88 785.1 337.4 785.07 337.57 785.04 337.98 785.04 337.99 785.04 338 785.01 338.83 785.01 338.84 785.01 338.85 785.01 338.85 785.01 338.86 785.01 338.86 785.01 338.87 785.01 338.87 785.01 338.88 785.01 338.89 785.01 338.89 785.02 338.9 785.02 338.92 785.02 338.93 785.03 338.93 785.03 338.94 785.03 338.94 785.03 338.95 785.03 338.96 785.04 338.96 785.04 338.97 785.04 338.98 785.04 338.98 785.05 338.99 785.06 339.02 785.06 339.02 785.07 339.03 785.07 339.04 785.07 339.04 785.08 339.05 785.08 339.05 785.08 339.06 785.09 339.07 785.1 339.08 785.1 339.08 785.1 339.09 785.11 339.09 785.11 339.1 785.11 339.1 785.12 339.11 785.12 339.11 785.13 339.12 785.16 339.15 785.17 339.16 785.17 339.16 785.18 339.16 785.18 339.17 785.18 339.17 785.2 339.18 785.2 339.19 785.21 339.19 785.21 339.19 785.21 339.2 785.22 339.2 785.22 339.2 785.23 339.2 785.23 339.21 785.23 339.21 785.24 339.21 785.25 339.21 785.27 339.22 785.27 339.23 785.3 339.24 785.3 339.24 785.31 339.24 785.31 339.24 785.32 339.24 785.32 339.24 785.33 339.24 785.34 339.24 785.34 339.24 785.35 339.24 785.35 339.24 785.35 339.23 785.35 339.23 785.35 339.22 785.35 339.22 785.35 339.21 785.34 339.2 785.34 339.2 785.34 339.19 785.34 339.18 785.35 339.18 785.35 339.17 785.35 339.16 785.39 339.12 785.39 339.11 785.4 339.11 785.41 339.1 785.41 339.1 785.42 339.1 785.42 339.09 785.43 339.09 785.51 339.08 785.52 339.08 785.53 339.08 785.53 339.08 785.54 339.09 785.55 339.09 785.55 339.09 785.56 339.1 785.56 339.1 785.57 339.11 785.57 339.11 785.58 339.12 785.58 339.12 785.59 339.13 785.6 339.13 785.6 339.14 785.61 339.15 785.68 339.27 785.69 339.28 785.69 339.28 785.69 339.29 785.69 339.3 785.68 339.31 785.55 339.66 785.55 339.66 785.54 339.67 785.54 339.67 785.53 339.68 785.53 339.68 785.52 339.68 785.51 339.69 785.5 339.69 785.5 339.69 785.49 339.69 785.48 339.7 785.47 339.7 785.47 339.7 785.46 339.7 785.46 339.7 785.45 339.69 785.45 339.69 785.44 339.69 785.44 339.69 785.43 339.69 785.43 339.69 785.43 339.68 785.42 339.68 785.42 339.68 785.42 339.67 785.41 339.67 785.41 339.67 785.41 339.66 785.41 339.66 785.22 339.71 785.23 339.71 785.23 339.72 785.23 339.72 785.23 339.73 785.23 339.73 785.48 340.4 785.48 340.4 785.49 340.4 785.5 340.4 785.51 340.4 785.51 340.41 785.51 340.41 785.55 340.52 785.56 340.53 785.56 340.53 785.56 340.54 785.56 340.56 785.56 340.56 785.56 340.57 785.42 341.13 785.48 342.01 785.53 342.61 785.55 342.69 785.59 342.87 785.65 342.88 785.65 342.88 785.65 342.87 785.65 342.87 785.67 342.84 785.67 342.83 785.67 342.83 785.67 342.82 785.68 342.82 785.68 342.82 785.68 342.81 785.69 342.81 785.69 342.8 785.7 342.8 785.71 342.8 785.84 342.9 785.84 342.9 785.87 342.96 785.87 342.97 785.87 342.98 785.87 343.17 785.87 343.17 785.87 343.18 785.87 343.18 785.71 343.55 785.71 343.56 785.71 343.57 785.7 343.57 785.7 343.58 785.69 343.59 785.69 343.59 785.68 343.6 785.67 343.6 785.67 343.6 785.63 343.62 785.63 343.62 785.62 343.62 785.61 343.63 785.6 343.63 785.59 343.63 785.58 343.64 785.57 343.64 785.56 343.64 785.55 343.64 785.54 343.64 785.53 343.64 785.52 343.64 785.52 343.64 785.51 343.63 785.5 343.63 785.49 343.62 785.46 343.59 785.45 343.59 785.44 343.58 785.43 343.57 785.43 343.56 785.43 343.56 785.42 343.56 785.42 343.55 785.42 343.54 785.42 343.53 785.34 342.6 785.34 342.59 785.34 342.58 785.34 342.58 785.34 342.57 785.35 342.45 785.35 342.44 785.35 342.43 785.36 342.42 785.36 342.42 785.37 342.41 785.37 342.4 785.42 342.32 785.43 342.31 785.43 342.3 785.44 342.3 785.44 342.29 785.45 342.29 785.45 342.28 785.47 342.26 785.48 342.25 785.48 342.24 785.44 342.14 785.3 341.9 785.3 341.89 785.29 341.89 785.29 341.89 785.28 341.89 785.28 341.89 785.27 341.89 785.27 341.9 785.26 341.9 785.26 341.9 785.25 341.91 785.18 341.96 785.17 341.97 785.16 341.98 785.15 341.98 785.15 341.99 785.14 341.99 785.14 342 785.12 342.02 785.12 342.02 785.12 342.03 785.03 343.11 784.02 343.42 783.94 343.64 783.27 344.15 782.82 344.56 782.81 344.57 782.81 344.57 782.8 344.58 782.8 344.59 782.69 344.8 782.26 346.26 782.2 346.67 781.97 348.34 782.05 348.34 782.06 348.34 782.06 348.34 782.07 348.34 782.07 348.35 782.08 348.35 782.09 348.36 782.09 348.36 782.1 348.37 782.1 348.38 782.11 348.38 782.23 348.71 782.28 348.85 782.29 348.86 782.29 348.86 782.28 348.87 782.22 349.03 782.22 349.04 782.21 349.04 782.21 349.05 782.21 349.05 781.52 350.09 781.52 350.1 781.52 350.1 781.52 350.11 781.52 350.12 781.52 350.12 781.52 350.13 781.51 350.13 781.51 350.14 781.51 350.14 781.5 350.15 781.49 350.16 781.48 350.16 781.48 350.17 781.48 350.17 781.46 350.19 781.46 350.19 781.45 350.2 781.45 350.2 781.44 350.2 781.44 350.21 781.43 350.21 781.43 350.21 781.42 350.21 781.18 350.28 780.86 350.34 780.9 351.61 781.02 351.73 781.38 352.01 781.39 352.02 781.4 352.03 781.41 352.03 781.42 352.04 781.44 352.05 781.45 352.06 781.46 352.06 781.48 352.07 781.49 352.08 781.75 352.21 781.75 352.22 781.76 352.22 781.77 352.22 781.77 352.22 781.9 352.28 781.97 352.31 782.01 352.32 782.02 352.33 782.1 352.37 782.11 352.37 782.11 352.37 782.38 352.51 782.39 352.51 782.4 352.52 782.44 352.54 782.44 352.54 782.45 352.54 782.46 352.55 782.48 352.56 782.48 352.56 782.49 352.57 782.5 352.57 782.5 352.57 782.51 352.58 782.52 352.58 782.53 352.59 782.53 352.59 782.54 352.6 782.55 352.6 782.55 352.6 782.56 352.61 782.56 352.61 782.57 352.62 782.58 352.62 782.58 352.63 782.59 352.63 782.59 352.64 782.6 352.64 782.61 352.64 782.61 352.65 782.81 352.83 782.82 352.84 782.83 352.84 782.84 352.85 782.84 352.86 782.85 352.87 782.86 352.88 782.86 352.89 783.31 353.94 783.18 354.54 783.18 354.54 783.17 354.55 783.17 354.56 783.17 354.57 783.17 354.57 783.16 354.58 783.16 354.59 783.05 354.89 782.93 355.11 782.73 355.47 782.36 356.22 782.3 356.33 782.3 356.34 782.26 356.42 782.26 356.43 782.26 356.43 782.25 356.44 782.25 356.45 782.24 356.46 782.24 356.47 782.24 356.48 782.23 356.49 782.22 356.51 782.22 356.52 782.22 356.53 782.15 356.74 781.75 357.75 781.33 358.69 781.14 359.15 780.47 360.63 780.37 360.91 780.15 361.57 780.14 361.59 780.14 361.61 780.13 361.62 780.13 361.64 780.13 361.65 780.12 361.67 780.12 361.68 780.12 361.7 780.03 362.19 779.44 364.3 779.34 365.53 779.36 365.92 779.44 366.34 779.84 367.97 780.05 368.65 780.35 369.75 780.47 370.51 780.5 370.78 780.5 370.78 780.51 370.79 780.51 370.8 780.51 370.81 780.51 370.82 780.51 370.82 780.51 370.83 780.51 370.85 780.51 370.86 780.51 370.87 780.51 370.88 780.51 370.89 780.51 370.9 780.51 370.9 780.5 370.91 780.5 370.92 780.49 370.97 780.48 371.03 780.48 371.04 780.48 371.05 780.48 371.05 780.47 371.06 780.47 371.07 780.47 371.07 780.47 371.08 780.47 371.09 780.47 371.09 780.47 371.1 780.47 371.11 780.47 371.33 780.47 371.34 780.47 371.35 780.47 371.36 780.47 371.4 780.47 371.41 780.47 371.41 780.47 371.42 780.47 371.43 780.47 371.43 780.52 372.03 780.56 372.21 780.56 372.21 780.57 372.22 780.57 372.22 780.57 372.23 780.57 372.24 780.57 372.24 780.57 372.25 780.59 372.5 780.61 372.75 780.66 373.02 780.66 373.03 780.66 373.03 780.66 373.04 780.66 373.05 780.67 373.06 780.67 373.07 780.67 373.08 780.84 373.64 780.93 373.94 781.35 375.6 781.59 376.6 782.06 378.07 782.4 379.18 782.74 380.28 783.25 382.04 784.08 384.49 784.59 385.85 784.61 385.99 784.59 386.11 784.53 386.24 784.44 386.35 784.35 386.43 784.28 386.46 784.23 386.47 784.15 386.46 784.11 386.42 783.36 385.67 783.3 385.56 783.08 385.32 782.11 384.44 780.9 383.35 780.58 383.07 780.35 382.87 780.1 382.68 779.77 382.48 779.4 382.32 773.46 380.07 772.27 379.74 759.31 381.51 759.52 390.06 759.76 398.51 760.33 398.81 760.99 398.92 761.25 398.97 761.38 397.38 761.48 396.15 761.9 393.98 762.66 393.94 764.36 393.88 771.23 393.61 772.39 390.02 771.98 389.05 773.77 386.18 774.66 386.28 774.74 386.3 774.8 386.32 774.85 386.36 777.59 388.63 777.63 390.88 774.71 398.41 774.44 399.13 774.24 399.65 773.56 402.01 773.53 402.17 771.11 414.92 771.11 414.95 771.21 415.46 771.22 415.51 771.38 416.16 771.44 416.36 771.46 416.42 771.5 416.46 771.83 416.79 772.12 417.06 774.57 420.12 766.92 419.28 764.45 416.27 761.66 416.05 753.76 416 750.99 416.04 750.41 416.61 749.92 421.9 749.33 427.76 750.54 428.71 752.14 429.96 755.26 427.19 757.83 424.88 759.95 424.28 765.66 424.09 767.71 426.37 767.87 426.62 767.88 426.64 767.9 426.67 767.9 426.68 767.99 427.29 768.06 428.08 768.07 428.44 768.12 432.64 768.12 432.71 768.12 432.81 768.11 432.93 768.11 432.98 768.09 433.15 768.09 433.23 768.07 433.31 767.29 435.02 767.13 435.34 767.1 435.38 766.79 435.69 766.69 435.76 766.44 435.9 766.28 435.96 766.24 435.98 765.83 436.05 765.79 436.06 765.05 436.07 765.01 436.07 764.98 436.06 764.75 435.99 764.4 435.9 764.34 435.88 764.29 435.88 763.98 435.84 763.92 435.84 763.85 435.84 762.56 435.97 762.5 435.98 762.16 436.04 762.13 436.05 762.1 436.06 761.7 436.38 761.68 436.41 761.64 436.45 761.62 436.49 761.61 436.51 761.53 436.77 761.52 436.79 761.51 436.83 761.5 437.12 757.37 438.3 757.36 438.31 757.35 438.31 757.34 438.32 757.31 438.33 757.3 438.34 757.05 438.45 757.04 438.46 756.99 438.48 756.98 438.48 756.95 438.5 756.94 438.5 756.93 438.5 754.96 439.07 754.22 439.23 754.1 438.82 754 438.55 753.98 438.5 753.93 438.38 753.86 438.25 753.78 438.14 753.73 438.07 753.63 437.98 753.52 437.88 753.41 437.82 753.27 437.73 753.04 437.61 752.97 437.58 752.85 437.54 752.82 437.54 752.02 438.03 751.98 438.06 751.29 438.87 749.82 440.8 749.64 441.06 748.63 442.73 748.6 442.77 748.55 442.87 748.5 443 748.32 443.49 748.15 444.05 748.09 444.31 748.07 444.45 748.06 444.51 748.05 444.59 748.03 444.74 748.03 444.85 748.03 445.44 748.11 446.61 748.12 446.7 748.14 446.79 748.3 447.59 748.38 447.93 749.03 449.62 749.5 450.59 749.84 451.27 749.95 451.48 750 451.55 750.31 452 750.73 452.46 750.91 452.65 751.11 452.82 751.41 453.08 751.59 453.2 751.68 453.26 751.99 453.43 752.49 453.68 753.27 453.83 753.35 453.82 753.43 453.8 760.89 451.12 761.22 451 761.61 450.7 761.78 450.52 762 450.24 762.26 449.76 762.3 449.7 762.32 449.63 762.37 449.33 762.32 448.97 762.27 448.91 762.06 448.76 762.04 448.44 762.06 448.23 762.15 447.98 762.2 447.87 762.62 447.4 763.33 446.88 764.47 446.44 764.6 446.41 764.63 446.41 765.18 446.49 766.24 447.1 769.61 450.49 770.66 453.06 770.7 453.18 770.71 453.24 770.74 453.38 770.77 453.56 770.77 453.59 770.22 454.89 770.21 454.9 769.75 455.28 769.72 455.3 769.69 455.31 769.67 455.31 769.64 455.3 769.62 455.29 769.52 455.22 769.4 455.07 769.33 454.97 769.32 454.94 769.36 454.75 768.97 454.17 768.53 453.93 768.48 453.91 768.39 453.9 768.3 453.89 768.22 453.88 768.08 453.9 766.75 454.09 766.64 454.11 765.81 454.34 765.53 454.46 764.92 454.83 764.67 455.05 763.34 456.28 763.02 456.68 762.67 457.35 762.57 457.6 762.49 457.92 762.41 458.25 762.4 458.45 762.41 460.82 762.41 461.03 762.43 461.28 762.46 461.45 762.48 461.51 762.52 461.54 762.56 461.58 762.58 461.63 762.64 461.83 762.66 461.92 762.64 463.04 762.63 463.27 762.62 463.29 760.34 467.39 758.59 468.63 758.31 468.7 758.24 468.74 758.12 468.81 758.04 468.87 757.97 468.94 757.55 469.33 750.71 476.9 750.68 476.94 750.49 477.25 750.47 477.29 750.44 477.36 750.42 477.41 750.18 477.2 750.18 477.16 749.86 475.64 748.11 470.99 747.19 470.08 746.5 469.4 745.75 468.98 745.06 468.59 743.71 468.13 743.36 468.11 742.64 468.1 739.03 468.3 738.74 468.52 738.67 468.56 738.1 469 737.73 469.3 737.19 469.94 738.5 474.53 738.87 475.53 738.63 475.94 736.84 476.51 736.57 476.56 734.96 476.85 734.86 476.85 732.71 476.49 731.62 475.89 731.25 475.54 732.73 475.77 732.83 475.71 732.87 475.39 732.87 475.25 732.87 475.16 732.86 475.1 732.85 474.98 732.84 474.94 732.83 474.88 732.82 474.85 732.81 474.82 732.76 474.71 732.71 474.63 732.64 474.56 732.5 474.43 732.19 474.22 730.33 473.58 730.31 473.57 730.27 473.58 728.33 474.03 728.27 474.06 728.13 474.14 728.13 474.14 728 474.24 723.31 478.63 723.24 478.71 722.86 479.33 722.77 479.57 722.65 480.09 722.64 480.15 722.63 480.23 722.63 480.26 722.65 482.55 722.66 482.58 722.66 482.61 722.67 482.64 722.68 482.68 722.7 482.7 722.72 482.73 722.74 482.76 723.29 483.43 723.45 483.6 723.57 483.74 723.78 483.97 724.07 484.34 724.3 484.63 724.31 484.64 724.35 484.72 724.4 484.82 724.44 484.93 724.54 485.2 724.84 486.4 724.85 486.42 724.85 486.48 724.85 486.5 724.84 486.54 724.82 486.58 724.77 486.66 724.74 486.71 724.68 486.79 724.52 486.98 720.44 491.79 719.76 492.55 719.2 493.18 718.01 494.47 717.8 494.69 717.74 494.75 717.61 494.87 717.55 494.91 717.48 494.95 716.69 495.46 716.54 495.55 716.49 495.58 716.44 495.59 716.39 495.61 716.14 495.69 716.06 495.72 715.99 495.73 715.03 495.94 714.99 495.95 714.92 495.95 714.61 495.96 714.56 495.96 714.42 495.95 714.33 495.94 713.77 495.9 713.72 495.89 713.55 495.85 713.27 495.79 712.45 495.58 708.71 494.6 710.19 492.17 709.54 491.13 706.47 486.31 705.42 484.43 705 464.35 705.48 464.35 707.05 461.59 711.57 452.49 702.87 439.65 699.35 438.89 695.74 438.12 695.15 438 693.79 437.72 692.86 437.52 690.72 437.05 692.62 428.03 693.37 424.46 692.51 415.93 692.37 415.3 691.27 412.84 685.96 402.01 685.93 401.95 678.83 389 677.91 387.39 677.27 386.28 677.18 386.16 677.03 385.98 676.87 385.8 676.55 385.47 Z" fill-rule="evenodd" id="동구"/>
<path d="M 780.57 295.79 779.1 296.18 774.9 298.42 772.36 300.68 772.35 300.82 767.62 304.17 764.8 304.04 764.62 304 764.34 303.93 764.15 303.86 763.93 303.72 763.78 303.26 763.56 303.04 761.03 302.57 760.59 302.53 756.7 303.45 756.19 303.81 754.1 305.3 748.8 305.69 745.82 305.34 742.9 305.66 742.81 305.72 741.96 306.57 727.72 312.37 727.69 312.39 727.25 312.76 726.42 313.98 725.86 315.06 721.76 318.74 719.66 320.04 719.21 320.33 716.95 322.42 717.99 327.4 717.35 330 717.06 330.57 714.77 333.62 714.29 333.99 713.96 334.25 711.88 335.35 710.96 335.45 710.15 335.81 709.14 336.36 708.76 336.72 707.98 338.04 707.32 340.37 707.19 342.97 708.83 347.32 709.57 348.95 708.82 350.13 705.1 356.65 704.82 358.6 705.66 361.45 706.17 361.9 706.5 362.18 706.82 363.25 706.84 363.46 706.88 363.92 706.95 364.94 705.37 370.47 704.31 372.2 703.47 373.25 702.89 373.4 702.6 373.48 700.84 376.54 698.48 381.07 699.7 383.51 700.47 383.88 706.94 386.27 708.22 387.76 710.37 389.22 711.08 389.23 712.77 390.71 713.52 391.37 713.88 393.26 713.86 393.43 713.84 393.67 713.7 394.94 713.34 395.58 712.11 396.62 712.61 401.3 711.83 405.47 711.58 406.22 710.6 407.32 707.95 406.32 707.66 406.14 705.84 404.49 705.65 404.06 705.64 403.79 705.67 403.49 705.85 402.8 705.29 402.17 702.99 399.87 702.31 399.32 691.34 396.39 691.19 396.35 690.94 396.3 690.89 396.29 690.75 396.27 690.61 396.25 690.36 396.22 690.27 396.21 690.21 396.21 690.09 396.21 690 396.21 689.72 396.23 687.65 396.37 687.52 396.36 687.35 396.34 687.21 396.32 687.05 396.29 687.02 396.29 686.9 396.26 686.74 396.22 686.32 396.11 686.16 396.05 685.97 395.98 685.77 395.9 685.55 395.79 685.21 395.61 685 395.48 684.72 395.26 684.53 395.11 684.46 395.04 684.26 394.86 684.18 394.78 684.05 394.65 683.91 394.49 683.85 394.42 683.6 394.11 683.25 393.49 683.03 393.11 680.83 389.29 680.01 388.33 679.54 387.84 679.31 387.6 678.93 387.25 678.73 387.08 677.7 386.27 676.7 385.54 676.55 385.47 676.4 385.36 676.05 385.08 675.77 384.84 675.51 384.6 675.29 384.39 674.82 383.88 670.85 379.46 670.8 379.39 670.28 378.73 668.75 376.77 667.96 375.7 667.63 375.21 662.12 368.55 658.37 364.81 658.07 364.45 654.91 361.83 654.44 362.09 653.33 362.71 653.05 362.87 652.8 363.02 652.04 363.45 651.68 363.64 651.47 363.71 651.17 363.74 650.98 363.75 650.9 363.75 650.65 363.76 650.23 363.73 649.96 363.69 649.1 363.55 648.46 363.39 646.6 362.52 646.24 362.31 646.1 362.22 644.87 361.15 644.77 361.05 643.97 360.18 643.72 359.85 643.61 359.69 642.56 358.04 641.69 356.38 638.45 355.3 638.12 354.96 636.37 353.34 629.56 350.73 627.97 350.13 624.06 348.74 616.24 345.89 611.74 343.38 611.74 343.09 611.81 342.6 611.86 342.23 614.75 342.78 616.31 340.84 615.56 333.95 615.48 333.36 615.48 333.34 615.45 333.09 615.35 332.48 615.24 331.77 615.03 331.05 613.74 327.05 613.34 326.1 613.68 325.31 613.78 325.09 614.15 324.67 614.34 324.5 614.58 324.3 614.73 324.17 615 324.02 615.68 323.69 616.14 323.48 616.37 323.41 616.61 323.32 616.88 323.2 618 322.63 618.33 322.38 619.59 321.39 619.71 320.66 620.02 318.95 620.15 318.09 620.24 316.65 619.21 311.29 619.15 310.99 619.09 310.71 618.48 309.43 617.93 308.26 617.92 308.24 617.81 307.89 617.65 307.34 617.62 307.22 617.32 305.94 617.3 305.72 617.27 305.46 617.25 305.2 617.24 305.1 617.37 300.5 617.63 296.49 615.37 287.53 612.42 282.23 611.83 280.35 611.73 279.92 611.66 279.64 611.52 279.05 611.42 278.48 611.16 277.05 610.49 271.4 610.47 270.05 610.41 266.01 610.39 265.05 610.6 265.05 611.03 265.04 611.1 262.64 611.13 261.34 611.12 259.83 611.07 258.79 610.54 252.12 606.12 250.7 605.48 250.64 604.18 250.56 603.23 250.52 602.45 250.49 601.24 250.46 600.43 250.44 599.77 250.48 598.75 250.68 598 250.85 595.76 251.37 595.55 251.43 594.83 251.76 594.12 252.12 591.86 253.45 591.55 253.68 591.38 253.83 590.51 254.61 589.89 255 589.2 255.29 588.75 255.4 588.11 255.49 588.03 255.49 587.79 255.5 587.35 255.41 586.21 254.9 585.85 254.71 584.91 254.06 584.68 253.88 584.26 253.55 583.41 252.81 582.63 252.13 582.31 251.75 582.12 251.08 582.45 250.02 583.65 247.8 583.74 247.46 583.68 247.18 583.39 245.75 583.26 245.54 582.9 245.15 582.55 245.06 582.25 245.06 570.83 246.2 570.16 246.45 569.02 247.1 568.5 247.84 568.3 248.26 568.27 248.35 568.23 248.84 568.26 249.28 568.28 249.53 568.34 250.39 568.34 250.74 568.33 251.01 568.16 251.99 568.09 252.19 568.01 252.36 567.85 252.61 566.98 253.76 566.5 254.34 566.32 254.54 566 254.75 563.89 255.77 563.61 255.79 562.79 255.75 562.17 255.6 561.66 255.45 561.08 255.13 560.59 255.02 560.28 255.05 556.14 258.03 556 258.14 555.74 258.35 552.39 261.27 551.95 261.69 551.59 262.15 551.51 262.26 551.23 262.77 551.15 262.91 550.83 263.5 550.13 264.41 549.3 265.06 548.96 265.26 548.53 265.48 548.14 265.63 547.96 265.67 547.87 265.69 544.35 265.67 544.21 265.65 541.88 263.38 541.67 263.14 540.33 260.76 540.3 260.57 540.31 260.49 540.31 260.39 540.35 260.27 540.44 258.52 538.31 255.96 538.18 255.84 538.02 255.78 537.21 255.71 533.59 255.56 533.09 255.55 531.38 255.53 530.87 255.54 528.83 255.59 528.57 255.61 528.29 255.72 526.13 256.78 525.99 256.88 525.87 257 525.01 258.02 524.94 258.14 524.9 258.3 524.87 258.52 524.8 258.68 524.45 259.05 524.35 259.15 524.35 259.15 524.3 259.18 523.81 259.4 522.77 259.73 522.05 259.62 518.43 258.96 518.31 258.88 516.75 257.88 516.18 255.12 517.05 249.03 519.46 241.75 525.42 231.49 528.13 227.7 528.94 227.15 529.24 226.95 530.45 225.09 530.79 223.17 531.74 215.94 531.15 214.6 531.07 214.43 529.18 211.9 528.57 211.22 528.05 210.77 525.87 209.5 524.7 209.05 523.95 208.87 522.73 208.07 522.64 207.91 522.45 207.43 521.7 204.47 521.52 203.56 522.29 192.81 522.43 192.41 522.57 192.03 523.99 190.6 524 190.59 525.07 189.75 526.05 188.28 526.87 186.57 527.82 182.01 527.83 181.7 527.84 180.84 527.8 180.55 527.73 180.06 527.53 179.2 527.47 178.95 527.16 178.41 527.1 178.31 526.74 177.93 526.68 177.85 526.35 177.37 526.07 176.95 525.83 176.3 525.48 175.07 525.1 173.53 524.42 169.2 524.63 166.36 525.2 161.38 524.61 158.09 524.3 156.87 524.28 156.75 524.28 156.71 524.28 156.36 524.29 155.66 525.42 152.23 527.61 149.84 532.9 148.88 532.97 148.87 535.01 144.56 536.51 131.84 536.81 131.11 537.16 130.77 546.72 124.61 547.26 124.27 547.8 123.93 550.2 124.43 556.47 126.09 556.62 126.14 557.91 126.56 558.01 126.6 558.87 127.05 559.03 127.14 559.16 127.23 560.77 128.83 560.79 128.85 565.82 128.35 574.83 126.78 576.17 123.64 575.97 119.35 576 119.18 576.01 119.12 577.86 115.69 578.14 115.21 578.69 114.34 579.77 113.36 582.19 111.39 583.03 108.5 584.15 105.66 584.56 104.94 584.69 104.92 587.26 106.13 589.05 105.95 591.66 105.48 594.22 105 594.94 104.45 597.06 102.81 598.84 101.27 604.36 95.64 604.44 95.54 605.1 94.71 606.18 93.2 606.84 91.62 607.28 90.64 607.38 90.44 608 89.79 608.76 89.2 609.73 88.6 611.95 87.28 612.24 87.12 613.26 86.64 615.48 85.65 618.62 85.25 619.62 85.18 620.35 85.42 628.12 86.18 631.24 86.47 632.4 85.97 632.71 85.84 632.93 90.1 632.96 90.19 634.41 92.23 635.55 92.54 637.11 93 637.12 93 637.13 93.01 643.44 97.61 644.7 98.76 645.13 99.17 647.1 102.98 647.11 103.03 646.95 104.82 648.07 104.45 649.92 103.84 659.99 101.06 661.74 100.66 663.93 101.02 668.18 102.33 669.12 102.18 669.14 102.19 669.16 102.19 670.95 102.93 671.37 103.1 672 103.39 672.54 103.64 673.01 104.15 678.19 105.69 680.96 106.49 681.21 106.5 681.79 106.51 683.66 106.52 685.79 106.6 688.52 106.83 689.62 106.99 691.14 107.27 692.37 107.9 692.42 107.94 692.43 107.96 693.15 109.26 693.46 109.99 693.59 110.38 693.62 110.52 693.84 111.12 693.85 111.16 694.57 112.67 694.61 112.76 696.24 115.62 696.42 115.93 696.57 116.08 696.83 116.22 696.93 116.27 697.1 116.32 697.46 116.37 701.31 116.56 701.51 116.56 702 116.53 702.21 116.51 702.49 116.46 703.65 115.38 704.12 114.92 707.82 114.28 707.89 114.27 707.98 114.26 709.11 114.33 713.36 115.88 714.25 116.27 714.36 116.32 714.64 116.47 722.99 121.19 725.97 122.88 733.27 127.06 737.62 130.12 737.96 130.1 738.5 130.06 740.33 129.55 741.92 128.64 742.28 128.39 742.86 128.12 743.01 128.06 743.61 127.99 744.69 127.87 744.7 127.87 745.27 130.95 745.25 132.42 745.27 132.5 746.03 133.77 746.16 133.98 746.57 134.49 747.5 135.67 748.53 136.12 748.55 136.12 748.84 135.9 749.91 135.05 750.3 134.74 750.77 134.36 750.82 133.7 751.31 132.67 751.38 132.51 752.2 131.86 752.66 131.64 755.21 130.44 759.25 131.49 763.36 132.89 763.54 132.97 764.19 133.28 765.1 133.85 766.59 135.29 768.91 137.29 769.11 137.45 769.34 137.63 770.15 138.13 770.47 138.28 770.57 138.31 771.55 138.49 771.89 138.5 772.13 138.49 772.39 138.38 771.02 142.92 771.01 142.94 770.88 143.27 770.61 143.96 770.47 144.26 770.27 144.58 767.47 147.32 761.41 149.17 760.97 149.32 760.73 149.45 760.69 149.48 760.63 149.54 760.6 149.57 760.52 149.65 760.16 150.05 760.07 150.16 760.03 150.2 760.01 150.23 759.97 150.27 759.94 150.31 759.51 151.06 759.44 151.22 759.41 151.34 759.39 151.42 759.29 152.03 759.16 153.19 759.09 154.4 759.08 154.52 759.09 154.92 759.11 156.1 759.12 156.4 759.15 156.81 759.17 157.1 759.24 158.25 759.29 158.75 759.3 158.79 759.77 162.71 759.85 163.27 759.95 164.02 759.96 164.08 759.98 164.22 760.1 164.8 758.79 175.29 758.79 175.45 758.82 175.6 758.85 175.76 759.01 176.61 759.73 179.76 759.83 180.09 759.88 180.28 763.19 189.12 763.52 189.79 764.15 191.12 764.16 191.13 764.16 191.15 764.18 191.18 764.19 191.19 764.22 191.24 764.23 191.25 764.62 191.9 764.63 191.91 764.64 191.92 764.67 191.96 765.64 193.2 766.33 194.07 766.95 194.73 768.22 196.08 769.71 197.58 769.73 197.59 769.74 197.61 769.76 197.62 769.78 197.63 769.89 197.73 770.09 197.9 770.84 198.49 770.86 198.51 770.89 198.53 770.89 198.54 770.92 198.55 770.94 198.57 770.97 198.59 770.99 198.61 771.02 198.62 771.05 198.64 771.07 198.65 771.1 198.66 771.13 198.68 771.19 198.7 771.23 198.72 771.47 198.82 771.5 198.83 771.53 198.84 771.59 198.86 771.62 198.88 771.65 198.89 771.68 198.9 772.74 199.57 772.74 199.58 772.74 199.58 772.74 199.59 772.74 199.6 772.74 199.6 772.75 199.61 772.75 199.62 772.75 199.62 772.76 199.64 772.77 199.66 772.78 199.68 772.79 199.69 772.79 199.71 772.8 199.73 772.83 199.78 772.84 199.79 772.85 199.81 772.86 199.84 772.88 199.87 772.89 199.88 773.31 200.58 773.35 200.63 773.36 200.65 773.37 200.67 773.38 200.69 773.53 200.91 773.54 200.92 773.55 200.93 773.55 200.94 773.56 200.94 773.57 200.95 773.57 200.95 773.58 200.96 773.6 200.97 773.61 200.98 773.62 200.99 773.63 200.99 773.64 201 773.65 201.01 773.66 201.01 773.67 201.01 773.68 201.02 773.69 201.02 774.14 201.2 774.16 201.2 774.17 201.21 774.19 201.21 774.21 201.22 774.22 201.22 774.24 201.22 775.55 202.27 775.56 202.28 775.58 202.29 776 202.49 776.34 202.66 776.82 202.79 776.83 202.79 776.85 202.8 776.87 202.8 776.9 202.81 776.92 202.81 776.93 202.81 776.95 202.81 777.46 202.82 777.48 202.82 777.55 202.82 777.56 202.82 777.58 202.82 777.59 202.82 777.6 202.82 777.61 202.82 777.62 202.82 777.63 202.81 777.64 202.81 777.65 202.81 777.66 202.8 777.67 202.8 777.68 202.78 777.69 202.78 777.7 202.77 777.71 202.77 777.72 202.76 777.72 202.76 777.73 202.75 777.74 202.75 777.75 202.75 777.78 202.75 777.79 202.75 777.79 202.75 777.8 202.75 777.82 202.76 777.83 202.76 777.84 202.77 777.85 202.77 777.86 202.78 777.87 202.79 777.88 202.8 777.89 202.8 777.9 202.81 777.91 202.82 777.92 202.83 777.97 202.88 777.98 202.89 777.99 202.9 778.01 202.92 778.01 202.93 778.91 203.95 779.3 204.55 780.58 206.34 780.6 206.36 780.61 206.37 780.61 206.38 780.62 206.39 780.63 206.4 780.64 206.41 780.64 206.42 780.65 206.43 780.83 206.7 780.84 206.71 780.91 206.82 780.92 206.83 780.93 206.85 780.93 206.86 780.94 206.86 780.94 206.87 780.95 206.88 780.95 206.89 780.96 206.89 780.96 206.9 780.97 206.93 780.97 206.93 780.98 206.94 780.98 206.95 780.98 206.96 780.99 206.97 780.99 206.98 780.99 206.99 781 207 781 207.01 781 207.01 781 207.02 781 207.03 781 207.04 781 207.05 781 207.05 781 207.06 781 207.07 781 207.08 781 207.09 781 207.1 780.99 207.12 780.99 207.13 780.99 207.14 780.98 207.15 780.98 207.16 780.97 207.17 780.96 207.18 780.96 207.19 780.95 207.2 780.94 207.21 780.93 207.22 780.92 207.23 780.79 207.35 780.77 207.36 780.76 207.38 780.74 207.39 780.73 207.4 780.72 207.4 780.7 207.41 780.69 207.42 780.67 207.43 780.66 207.43 780.65 207.44 780.63 207.45 780.62 207.45 780.61 207.46 780.59 207.46 780.58 207.46 780.57 207.46 780.54 207.46 780.53 207.46 780.52 207.46 780.5 207.46 780.49 207.45 780.47 207.45 780.46 207.45 780.45 207.44 780.43 207.44 780.42 207.43 780.41 207.42 780.39 207.42 780.38 207.41 780.37 207.41 780.35 207.4 780.34 207.39 780.34 207.39 780.33 207.39 780.32 207.38 780.22 207.3 780.21 207.29 780.2 207.28 780.19 207.27 780.18 207.26 780.17 207.25 780.16 207.24 780.16 207.23 780.16 207.23 780.15 207.22 780.15 207.21 780.1 207.14 780.1 207.14 780.09 207.13 780.09 207.13 780.09 207.12 780.09 207.12 780.08 207.11 780.08 207.11 780.08 207.09 780.06 207.05 780.06 207.04 780.06 207.04 780.05 207.03 780.05 207.03 780.05 207.02 780.05 207.02 780.05 207.01 780.05 207 780.05 206.99 780.05 206.98 780.05 206.97 780.05 206.97 780.05 206.96 780.05 206.94 780.05 206.93 780.05 206.93 780.05 206.92 780.05 206.92 780.05 206.91 780.05 206.91 780.05 206.9 780.05 206.89 780.05 206.88 780.06 206.88 780.06 206.87 780.06 206.87 780.06 206.86 780.06 206.86 780.07 206.85 780.07 206.84 780.07 206.83 780.08 206.82 780.08 206.82 780.09 206.81 780.09 206.8 780.09 206.79 780.1 206.79 780.1 206.78 780.1 206.77 780.11 206.77 780.11 206.76 780.11 206.75 780.11 206.74 780.11 206.73 780.11 206.72 780.1 206.71 780.1 206.7 780.09 206.68 780.08 206.67 780.08 206.66 780.07 206.64 779.4 205.68 779.39 205.67 778.96 205.07 778.64 204.63 777.95 203.7 777.94 203.7 777.94 203.69 777.93 203.69 777.93 203.68 777.92 203.68 777.92 203.68 777.91 203.68 777.81 203.67 777.78 203.67 775.55 203.7 775.54 203.7 775.53 203.7 775.19 203.71 775.19 203.71 775.18 203.71 775.17 203.71 775.16 203.71 775.15 203.71 775.15 203.71 775.14 203.71 775.13 203.71 775.13 203.72 775.12 203.72 775.12 203.72 775.12 203.72 775.11 203.73 775.11 203.73 775.1 203.74 775.09 203.75 775.09 203.76 775.08 203.77 775.08 203.77 775.07 203.77 775.07 203.78 775.07 203.78 775.06 203.79 775.06 203.8 775.05 203.81 774.93 204.01 774.53 204.72 773.5 206.55 773.46 206.63 773.45 206.63 773.45 206.64 773.45 206.65 773.44 206.65 773.44 206.66 773.44 206.67 773.44 206.68 773.44 206.68 773.44 206.69 773.45 206.7 773.45 206.74 773.45 206.75 774.28 210.15 774.28 210.17 774.29 210.19 774.31 210.21 775.35 210.95 775.37 210.96 778.03 211.9 778.05 211.91 778.13 211.9 780.97 211.75 784.17 211.3 786.29 211.48 786.31 211.49 786.53 211.62 786.85 211.81 786.92 211.86 786.98 211.91 787.17 212.08 788.15 212.98 788.16 212.99 788.16 213 788.16 213.01 788.28 214.13 788.22 215.12 788.22 215.15 788.22 215.17 788.21 215.19 788.05 215.55 788.05 215.56 787.62 216.23 787.62 216.24 787.36 216.55 786.02 220.66 785.97 220.78 785.96 220.81 785.94 220.89 785.93 220.98 785.92 221.16 785.92 221.24 785.92 221.29 785.94 221.52 785.96 221.63 785.96 221.66 785.98 221.69 785.98 221.7 786.01 221.77 787.2 223.9 787.23 223.93 787.58 224.24 787.59 224.25 787.68 224.32 787.7 224.33 787.72 224.33 788.07 224.31 788.15 224.3 788.18 224.3 788.35 224.83 788.34 224.83 788.11 225.07 788.1 225.08 788.1 225.08 788.09 225.08 788.09 225.09 788.09 225.1 788.09 225.11 788.09 225.12 788.09 225.12 788.09 225.13 788.09 225.13 788.09 225.14 788.09 225.14 788.09 225.15 788.09 225.15 788.09 225.16 788.1 225.16 788.1 225.17 788.1 225.17 788.13 225.21 788.14 225.22 788.14 225.24 788.15 225.24 788.15 225.25 788.16 225.26 788.16 225.27 788.38 225.57 788.44 225.64 788.44 225.65 788.45 225.66 788.47 225.69 789.18 226.42 789.19 226.42 789.19 226.42 789.2 226.42 789.21 226.42 789.22 226.42 789.22 226.42 789.23 226.42 789.6 226.39 789.83 226.36 790.24 226.32 790.24 226.32 790.25 226.32 790.26 226.32 790.26 226.32 790.27 226.32 790.27 226.32 790.28 226.31 790.28 226.31 790.36 226.26 790.36 226.26 790.37 226.25 790.37 226.25 790.37 226.24 790.37 226.24 790.38 226.23 790.38 226.22 790.38 226.22 791.2 223.33 791.2 223.31 791.2 223.3 791.2 223.29 791.2 223.27 791.2 223.26 791.2 223.25 791.2 223.24 791.2 223.22 791.2 223.21 791.2 223.2 791.2 223.19 791.2 223.18 791.2 223.18 791.19 223.17 791.19 223.16 791.19 223.16 791.18 223.15 791.17 223.14 791.17 223.13 791.16 223.13 791.16 223.13 791.15 223.12 791.01 223.04 791 223.03 790.99 223.03 790.98 223.02 790.96 223.01 790.59 222.82 790.32 222.69 790.41 222.46 791.11 222.86 792.06 223.47 792.46 223.76 793.04 224.32 793.26 224.66 793.42 225.35 793.41 225.35 793.4 225.36 793.4 225.37 793.39 225.39 793.39 225.4 793.38 225.41 793.38 225.42 793.37 225.44 793.37 225.45 793.37 225.47 793.36 225.48 793.36 225.5 793.36 225.51 793.36 225.58 793.35 225.59 793.35 225.61 793.35 225.64 793.35 225.66 793.35 225.68 793.35 225.69 793.36 225.71 793.41 226.5 793.42 226.51 793.42 226.51 793.42 226.52 793.42 226.52 793.42 226.53 793.42 226.53 793.42 226.54 793.43 226.54 793.44 226.55 793.44 226.55 793.45 226.56 793.46 226.56 793.47 226.56 793.47 226.56 793.57 226.57 793.58 226.57 793.59 226.57 793.61 226.57 793.62 226.57 793.63 226.57 793.78 226.54 793.79 226.54 793.81 226.54 793.82 226.53 794.53 226.02 794.86 225.68 794.86 225.67 794.85 225.67 794.85 225.67 794.85 225.66 794.85 225.66 794.86 225.44 794.86 225.44 794.86 225.43 794.86 225.43 794.87 225.42 794.87 225.42 794.87 225.41 794.88 225.41 794.88 225.4 794.89 225.4 794.89 225.39 794.9 225.39 794.91 225.38 794.91 225.38 794.92 225.38 794.93 225.38 794.94 225.38 794.94 225.39 794.95 225.39 794.96 225.39 794.96 225.4 795.13 225.49 795.13 225.5 795.14 225.5 795.14 225.51 795.15 225.52 795.15 225.52 795.16 225.53 795.16 225.54 795.16 225.55 795.16 225.55 795.15 226.02 795.15 226.03 795.13 226.14 795.13 226.15 795.13 226.15 795.13 226.16 795.12 226.17 795.12 226.19 795.12 226.2 795.11 226.21 794.97 226.66 794.97 226.67 794.97 226.68 794.88 226.88 794.85 226.95 794.85 226.95 794.85 226.96 794.58 227.7 794.57 227.7 794.52 227.83 794.51 227.84 794.51 227.84 794.5 227.85 794.49 227.85 794.49 227.86 794.49 227.86 794.48 227.86 794.47 227.86 794.47 227.87 794.39 227.89 794.38 227.89 794.37 227.9 794.36 227.9 794.35 227.9 794.33 227.91 794.32 227.91 794.31 227.91 794.31 227.92 794.3 227.92 794.29 227.93 794.28 227.94 794.27 227.94 794.27 227.95 794.26 227.96 794.25 227.97 794.25 227.98 794.24 227.99 794.23 228 794.23 228.02 794.22 228.03 794.22 228.05 794.21 228.06 794.21 228.08 794.21 228.09 794.2 228.1 794.14 228.49 794.14 228.49 794.14 228.5 794.14 228.51 794.14 228.51 794.14 228.52 794.14 228.63 794.14 228.64 794.14 228.65 794.15 228.66 794.15 228.66 794.15 228.67 794.15 228.67 794.15 228.68 794.16 228.68 794.16 228.69 794.16 228.69 794.17 228.7 794.17 228.71 794.25 228.88 794.26 228.88 794.26 228.89 794.27 228.9 794.27 228.9 794.28 228.9 794.29 228.9 794.3 228.89 794.31 228.89 794.32 228.88 794.33 228.87 794.34 228.86 794.35 228.84 794.36 228.83 794.37 228.82 794.38 228.81 794.4 228.81 794.41 228.8 794.63 228.7 794.64 228.7 794.64 228.69 794.65 228.69 794.66 228.69 794.67 228.69 794.68 228.69 794.69 228.69 794.7 228.69 794.71 228.69 794.72 228.7 794.73 228.7 794.73 228.7 794.74 228.7 794.75 228.71 794.76 228.71 794.76 228.71 794.77 228.71 794.78 228.72 794.79 228.72 794.82 228.74 794.83 228.74 794.83 228.74 794.84 228.75 794.85 228.75 794.85 228.75 794.86 228.76 794.86 228.76 794.87 228.76 794.87 228.77 794.88 228.77 794.88 228.78 794.89 228.78 794.89 228.79 794.89 228.79 794.9 228.8 794.95 228.89 794.96 228.9 795.1 229.16 795.18 229.36 795.18 229.37 795.19 229.37 795.19 229.38 795.19 229.38 795.19 229.38 795.19 229.39 795.19 229.39 795.2 229.56 795.2 229.57 795.2 229.57 795.2 229.58 795.2 229.58 795.2 229.59 795.2 229.59 795.2 229.6 795.2 229.6 795.19 229.61 795.19 229.61 795.67 230 795.68 229.99 795.69 229.99 795.69 229.98 795.7 229.98 795.71 229.97 795.71 229.96 795.72 229.96 795.73 229.95 795.74 229.95 795.74 229.94 795.75 229.94 795.76 229.93 795.77 229.93 795.77 229.92 795.78 229.92 795.79 229.91 795.79 229.91 795.8 229.91 795.81 229.9 795.82 229.9 795.83 229.9 795.83 229.89 795.84 229.89 795.85 229.89 795.86 229.89 795.86 229.89 795.87 229.89 795.88 229.89 795.89 229.89 795.89 229.89 795.9 229.89 796.18 229.94 796.19 229.94 796.19 229.94 796.2 229.94 796.21 229.94 796.21 229.95 796.22 229.95 796.23 229.95 796.23 229.95 796.24 229.96 796.25 229.96 796.25 229.97 796.26 229.97 796.26 229.97 796.27 229.98 796.28 229.98 796.28 229.99 796.29 230 796.29 230 796.3 230.01 796.3 230.02 796.3 230.02 796.45 230.34 796.45 230.34 796.45 230.35 796.56 230.83 796.63 231.48 796.63 231.49 796.63 231.5 796.63 231.51 796.62 231.51 796.62 231.52 796.61 231.53 796.43 231.77 796.33 231.88 796.33 231.88 796.33 231.89 796.32 231.89 796.32 231.89 796.31 231.89 796.31 231.9 796.3 231.9 796.29 231.9 796.28 231.9 796.28 231.89 796.27 231.89 796.27 231.88 796.27 231.88 796.27 231.87 796.27 231.86 796.27 231.86 796.28 231.85 796.28 231.85 796.28 231.84 796.28 231.84 796.28 231.83 796.28 231.83 796.28 231.82 796.28 231.82 796.28 231.82 796.27 231.81 796.27 231.81 796.27 231.8 796.26 231.8 796.21 231.74 796.21 231.73 796.2 231.72 796.2 231.72 796.19 231.72 796.19 231.72 796.19 231.71 796.18 231.71 796.17 231.71 796.16 231.72 796.16 231.72 796.15 231.72 796.15 231.73 796.15 231.73 796.14 231.73 796.14 231.74 796.13 231.74 795.87 232.14 795.87 232.15 795.87 232.16 795.86 232.16 795.86 232.17 795.86 232.18 795.85 232.2 795.72 232.79 795.68 233.21 795.68 233.22 795.68 233.22 795.68 233.23 795.68 233.23 795.68 233.25 795.68 233.25 795.68 233.26 795.72 233.65 795.72 233.66 795.72 233.67 795.72 233.68 795.72 233.68 795.73 233.69 795.73 233.7 795.74 233.71 795.87 233.81 795.87 233.82 795.88 233.82 795.88 233.83 795.89 233.83 795.9 233.84 795.91 233.84 795.91 233.84 795.92 233.84 795.93 233.84 795.94 233.84 795.95 233.84 795.95 233.84 795.96 233.84 795.97 233.84 795.98 233.83 795.98 233.83 795.99 233.83 796.03 233.8 796.34 233.74 796.35 233.74 796.35 233.74 796.36 233.74 796.36 233.74 796.37 233.74 796.38 233.74 796.38 233.75 796.38 233.76 796.38 233.76 796.38 233.77 796.38 233.77 796.38 233.78 796.38 233.78 796.38 233.79 796.37 233.8 796.37 233.8 796.37 233.81 796.36 233.82 796.36 233.82 796.35 233.83 796.35 233.84 796.34 233.84 796.33 233.85 796.33 233.86 796.32 233.86 796.32 233.87 796.31 233.88 796.31 233.89 796.3 233.89 796.3 233.9 796.29 233.91 796.29 233.91 796.28 233.92 796.28 233.93 796.28 233.93 796.27 233.94 796.27 233.95 796.27 233.96 796.26 233.97 796.26 233.98 796.25 233.98 796.25 233.99 796.25 234 796.25 234 796.25 234.01 796.24 234.02 796.17 234.37 796.16 234.38 796.16 234.38 796.16 234.39 796.16 234.4 796.16 234.4 796.16 234.41 796.15 234.45 796.15 234.47 796.15 234.48 796.14 234.48 796.14 234.49 796.14 234.49 796.14 234.51 796.14 234.54 796.14 234.55 796.13 234.62 796.13 234.62 796.13 234.64 796.13 234.65 796.13 234.68 796.13 234.69 796.13 234.69 796.13 234.7 796.14 234.7 796.14 234.71 796.14 234.72 796.14 234.72 796.14 234.73 796.15 234.73 796.15 234.74 796.39 234.79 796.39 234.8 796.39 234.8 796.39 234.81 796.39 234.81 796.39 234.82 796.39 234.82 796.39 234.83 796.39 234.83 796.39 234.84 796.5 235.01 796.5 235.02 796.51 235.02 796.51 235.03 796.52 235.03 796.52 235.03 796.52 235.04 796.53 235.04 796.53 235.04 796.54 235.05 796.54 235.05 796.55 235.05 796.55 235.06 796.56 235.06 796.56 235.06 796.57 235.06 796.81 235.12 796.81 235.12 796.82 235.12 796.82 235.11 797.04 235.01 797.05 235 797.05 235 797.06 234.99 797.07 234.99 797.07 234.98 797.08 234.98 797.08 234.97 797.09 234.97 797.09 234.96 797.1 234.95 797.1 234.94 797.11 234.94 797.11 234.93 797.12 234.92 797.12 234.91 797.13 234.9 797.13 234.89 797.14 234.88 797.14 234.88 797.18 234.8 797.18 234.79 797.18 234.79 797.19 234.78 797.19 234.77 797.2 234.76 797.2 234.75 797.29 234.51 797.35 234.37 797.36 234.36 797.36 234.35 797.36 234.34 797.36 234.33 797.37 234.32 797.37 234.32 797.37 234.31 797.38 234.3 797.38 234.29 797.38 234.29 797.39 234.28 797.39 234.27 797.39 234.27 797.4 234.26 797.4 234.26 797.4 234.25 797.41 234.25 797.41 234.24 797.41 234.24 797.42 234.23 797.42 234.23 797.42 234.23 797.43 234.22 797.43 234.22 797.44 234.22 797.44 234.21 797.45 234.21 797.46 234.21 797.46 234.22 797.47 234.22 797.47 234.23 797.47 234.24 797.47 234.24 797.47 234.25 797.38 235.18 797.29 235.64 797.18 235.99 797.02 236.16 797.02 236.16 796.78 236.57 796.77 236.58 796.77 236.58 796.77 236.59 796.76 236.59 796.76 236.6 796.76 236.6 796.76 236.61 796.75 236.61 796.75 236.62 796.75 236.62 796.75 236.63 796.75 236.63 796.75 236.64 796.75 236.64 796.75 236.64 796.75 236.65 796.75 236.65 796.75 236.66 796.75 236.66 796.75 236.67 796.75 236.68 796.75 236.68 796.75 236.69 796.75 236.69 796.76 236.74 796.76 236.75 796.76 236.75 796.76 236.76 796.76 236.76 796.76 236.77 796.76 236.77 796.77 236.78 796.77 236.78 796.77 236.79 796.77 236.8 796.78 236.81 796.78 236.81 796.78 236.82 796.78 236.82 796.78 236.83 796.79 236.83 796.79 236.84 796.79 236.84 796.79 236.85 796.8 236.85 796.8 236.85 796.8 236.86 796.81 236.86 796.81 236.87 796.81 236.87 796.82 236.87 796.82 236.88 796.83 236.88 796.83 236.88 796.84 236.89 796.9 236.93 796.91 236.93 796.91 236.94 796.92 236.94 796.92 236.94 796.93 236.94 796.93 236.94 796.94 236.94 796.95 236.94 796.95 236.94 796.96 236.93 796.97 236.93 796.97 236.92 796.98 236.92 796.98 236.92 796.99 236.91 796.99 236.91 796.99 236.91 797 236.9 797 236.9 797.01 236.9 797.02 236.89 797.03 236.89 797.03 236.89 797.04 236.89 797.05 236.89 797.06 236.9 797.06 236.9 797.07 236.9 797.07 236.9 797.08 236.9 797.08 236.9 797.09 236.91 797.09 236.91 797.09 236.91 797.1 236.91 797.1 236.91 797.11 236.92 797.12 236.93 797.13 236.93 797.14 236.93 797.14 236.94 797.14 236.94 797.15 236.94 797.15 236.95 797.16 236.95 797.17 236.96 797.19 236.98 797.2 236.98 797.2 236.99 797.21 236.99 797.21 236.99 797.21 237 797.22 237 797.22 237 797.22 237.01 797.23 237.01 797.23 237.02 797.23 237.02 797.23 237.03 797.23 237.04 797.23 237.04 797.23 237.05 797.23 237.05 797.23 237.06 797.23 237.24 797.39 237.96 797.5 238.44 797.49 238.45 797.49 238.45 797.49 238.46 797.49 238.46 797.49 238.47 797.48 238.47 797.48 238.48 797.48 238.49 797.48 238.5 797.48 238.5 797.48 238.51 797.48 238.51 797.48 238.52 797.48 238.53 797.47 238.53 797.47 238.54 797.47 238.57 797.47 238.58 797.48 238.58 797.48 238.59 797.48 238.59 797.48 238.6 797.48 238.6 797.48 238.61 797.48 238.62 797.48 238.62 797.48 238.63 797.48 238.63 797.62 239.14 797.73 239.36 797.84 239.61 797.85 239.64 797.87 239.7 798.02 240.29 798.05 240.44 798.06 240.71 797.11 244.55 797.15 246.03 797.15 246.05 796.3 249.8 795.81 251.57 796.61 253.35 797.8 261.34 798.99 265.7 799 265.72 799 265.74 799 266.07 799 266.1 798.99 266.12 798.98 266.14 798.73 266.63 797.87 268.21 797.59 268.54 797.52 268.62 797.5 268.65 796.61 269.29 796.18 269.46 792.89 270.71 792.86 270.72 792.84 270.72 791.73 270.54 790.06 269.47 787.07 273.53 785.66 276.46 784.83 278.09 784.35 277.91 782.77 277.61 782.75 277.6 782.71 277.6 782.5 277.63 782.48 277.63 782.04 277.79 782 277.81 781.78 277.93 781.73 277.96 781.68 278.01 781.59 278.09 781.56 278.12 781.43 278.28 781.39 278.32 781.35 278.37 781.14 278.72 780.87 279.26 780.65 279.72 780.52 280.01 780.4 280.32 780.24 280.79 780.21 280.92 780.13 281.27 779.93 282.37 779.92 282.42 779.92 282.45 779.92 282.51 779.93 282.61 779.94 282.67 779.96 282.77 779.99 282.84 780.04 282.95 780.12 283.15 780.15 283.21 780.34 283.51 780.61 283.89 780.52 285.36 780.24 290.76 780.24 290.78 780.24 290.8 780.24 290.82 780.24 290.84 780.24 290.86 780.24 290.88 780.25 290.91 780.25 290.93 780.25 290.95 780.26 290.97 780.26 290.99 780.27 291.01 780.27 291.03 780.28 291.05 780.37 291.36 780.38 291.38 780.38 291.39 780.39 291.41 780.4 291.42 780.43 291.5 780.43 291.51 780.43 291.51 780.43 291.52 780.44 291.53 780.44 291.54 780.45 291.56 780.46 291.58 780.46 291.58 780.46 291.59 780.47 291.59 780.47 291.6 780.47 291.6 780.34 294.82 780.34 294.83 780.34 294.84 780.34 294.85 780.37 295.08 780.37 295.08 780.37 295.09 780.38 295.11 780.38 295.12 780.38 295.13 780.38 295.13 780.39 295.15 780.39 295.16 780.39 295.17 780.39 295.18 780.39 295.19 780.4 295.19 780.4 295.21 780.42 295.27 780.42 295.28 780.42 295.29 780.57 295.79 Z" id="북구"/>
<path d="M 663.63 585.66 663.56 585.67 663.45 585.66 663.39 585.66 663.34 585.65 663.25 585.63 663.23 585.62 663.2 585.61 663.18 585.59 663.15 585.56 663.12 585.51 663.1 585.49 663.09 585.47 663.09 585.44 663.08 585.36 663.09 585.23 663.09 585.18 663.12 584.94 663.12 584.91 663.13 584.9 663.13 584.89 663.14 584.88 663.15 584.88 663.33 584.19 663.42 582.25 663.47 581.04 663.98 569.07 664.34 560.49 664.38 559.67 664.4 559.32 664.4 559.28 664.41 559.25 668.5 549.12 668.69 548.67 668.74 548.58 668.78 548.52 668.81 548.5 668.82 548.5 668.84 548.51 668.89 548.52 669.02 548.58 669.12 548.63 669.18 548.66 669.21 548.67 669.22 548.68 669.23 548.69 669.22 548.72 668.46 550.56 667.34 553.26 664.83 559.34 664.7 562.43 664.62 564.39 664.53 566.67 664.55 567.47 664.49 570.68 664.48 570.98 663.83 585.25 663.83 585.35 663.82 585.42 663.8 585.48 663.79 585.53 663.77 585.57 663.76 585.59 663.73 585.62 663.7 585.64 663.68 585.65 663.67 585.66 663.63 585.66 Z M 524.61 158.09 525.2 161.38 524.63 166.36 524.42 169.2 525.1 173.53 525.48 175.07 525.83 176.3 526.07 176.95 526.35 177.37 526.68 177.85 526.74 177.93 527.1 178.31 527.16 178.41 527.47 178.95 527.53 179.2 527.73 180.06 527.8 180.55 527.84 180.84 527.83 181.7 527.82 182.01 526.87 186.57 526.05 188.28 525.07 189.75 524 190.59 523.99 190.6 522.57 192.03 522.43 192.41 522.29 192.81 521.52 203.56 521.7 204.47 522.45 207.43 522.64 207.91 522.73 208.07 523.95 208.87 524.7 209.05 525.87 209.5 528.05 210.77 528.57 211.22 529.18 211.9 531.07 214.43 531.15 214.6 531.74 215.94 530.79 223.17 530.45 225.09 529.24 226.95 528.94 227.15 528.13 227.7 525.42 231.49 519.46 241.75 517.05 249.03 516.18 255.12 516.75 257.88 517.86 262.16 518.12 265.34 518.14 265.52 518.18 265.67 518.67 267.23 518.91 267.64 519.27 268.16 520.48 269.14 521.68 271.05 521.74 271.15 521.86 271.38 521.93 271.55 522.57 273.29 522.39 274.09 521.95 275.27 521.31 276.2 520.72 276.81 519.96 279.67 519.93 279.79 519.9 279.94 520.13 280.68 523.33 290.83 523.99 291.7 519.11 288.05 514.79 288.36 511.31 288.48 509.67 288.38 509.52 288.37 507.76 287.75 504.12 283.64 504.85 276.63 504.72 276.08 501.87 274.93 485.42 270.22 484.89 270.08 484.66 270.07 484.47 270.1 484.15 270.14 480.62 270.63 479.64 271.12 478.5 272.51 478.43 272.61 478.37 272.76 478.36 272.8 478.34 272.89 475.7 273.63 466.79 270.16 465.43 269.05 464.08 267.66 462.84 266.4 462.3 266.07 460.93 265.59 459.56 266.35 457.05 265.19 456.79 265.1 455.81 264.92 455.66 265.22 455.63 265.28 455.59 265.98 455.63 266.83 456.64 268.49 457.97 268.93 458.14 268.99 460.51 278.11 460 279.04 459.73 279.97 459.55 281.04 459.51 281.31 460.53 284.87 462.86 287.97 462.99 287.95 464.72 287.68 466.03 288.35 466.81 289.73 467.68 295.53 467.73 296.39 467.58 296.38 465.76 296.24 464.59 297.12 463.32 310.35 463.34 310.94 466.79 321.68 467.55 321.77 468.34 321.81 468.87 321.82 469.2 321.83 469.48 321.84 469.74 321.87 470.1 321.9 470.52 322 471.23 322.27 471.49 322.44 472.16 322.96 472.23 323.03 472.49 323.29 472.71 323.52 473.1 323.93 473.32 324.18 477.39 329.66 477.89 330.65 473.85 331.65 471.58 335.6 470.07 339.88 471.68 341.11 469.4 341.03 466.99 339.16 466.31 338.66 465.8 338.29 465.63 338.16 465.14 337.82 463.95 337 463.63 336.79 463.51 336.72 462.24 336 460.15 337.88 459.83 338.21 459.71 338.41 459.52 338.69 459.42 338.84 459.05 339.4 457.93 341.55 457.91 341.84 457.94 341.98 457.99 342.23 458.02 342.34 458.06 342.56 458.08 342.63 458.14 343.71 458.14 343.74 458.12 343.79 458.02 344.15 456.53 347.72 456.33 348.05 451.94 353.81 448.48 356.97 443.3 360.35 440.2 364.73 437.53 365.35 435.57 365.22 435.05 365.19 433.3 368.46 431.49 372.58 431.5 372.58 435.38 372.98 442.55 373.98 443.11 373.71 446.17 372.47 446.63 373.15 446.9 373.56 448.02 375.23 448.34 375.77 448.85 376.64 449.82 377.86 449.91 377.88 450.64 378.04 452.23 378.22 459.66 378.9 460.47 378.25 460.51 378.2 460.98 377.57 461.07 377.45 461.62 376.7 460.98 375.13 460.82 374.45 460.82 374.45 462.36 374.74 465.04 375.58 466.15 379.72 465.74 381.07 467.95 383.47 473.88 383.18 476.07 382.44 476.77 382.34 481.37 382.56 489.74 384.07 492.88 385.29 493.19 385.81 493.49 386.33 493.82 386.89 492.25 389.24 492.23 389.27 492.03 389.56 491.95 389.68 491.89 389.8 491.31 391.11 491.57 392.13 491.8 393.03 493.77 396.25 495.86 398.34 497.35 399.78 498.76 399.51 501.23 400.28 502.67 401.36 503.5 402 505.25 404.02 504.45 404.71 503.39 405.02 503.38 405.05 503.3 405.23 503.14 405.59 504.74 408.76 506.12 409.51 508.58 409.63 512.8 410.82 513.54 411.12 513.63 411.19 516.03 413.1 515.98 413.4 516.35 418.28 516.67 420.58 517.46 424.72 518.73 425.9 520.09 425.44 520.29 425.37 520.31 425.37 523.27 431.96 524.85 435.8 525.37 437.05 526.32 437.72 526.7 437.66 527.03 437.6 527.26 437.56 529.9 439.8 530.71 441.32 530.97 443.76 531.19 444.89 537.23 452.11 539.77 452.81 540.52 452.78 541.98 451.97 542.99 451.4 544.2 450.66 544.2 450.64 544.25 450.37 544.27 450.23 544.31 450.03 544.46 449.56 544.84 448.59 545.15 447.91 545.69 446.98 547.82 447.82 547.9 447.87 548.4 448.28 548.53 448.55 548.53 448.55 548.51 448.7 548.55 448.96 548.71 449.39 549.82 451.93 550.36 453.04 552.84 456.78 558.65 459.58 558.7 459.58 566.29 459.49 566.94 461.27 568.17 465.16 568.59 466.71 571.17 467.18 573.58 467.12 574.15 466.6 574.99 465.85 576.49 464.59 578.35 463.05 579.17 463.02 579.63 463 583.48 467.88 583.1 468.12 583.04 468.44 583.31 468.92 583.81 469.5 585.64 470.15 586.61 470.13 586.72 470.35 588.36 473.16 590.36 474.83 592.55 475.51 594.22 476.03 597.22 479.2 597.58 479.75 599.41 482.55 600.01 487.37 600.02 487.99 600.06 490.19 599.9 490.23 597.95 490.62 596.1 490.95 596.24 492.47 596.29 492.89 596.34 493.21 596.51 494.03 596.74 494.33 597.43 495.13 598.7 495.77 603.2 500.38 607.22 505.84 611.89 510.02 613.69 511.75 613.69 511.76 613.7 511.77 615.2 518.6 615.52 520.31 615.52 520.32 615.52 520.33 615.51 520.34 615.5 520.34 614.88 520.46 614.34 520.56 614.24 520.66 614.06 521.16 614.06 521.21 618.37 543.52 618.4 543.56 621.87 544.95 622.13 545.03 622.59 544.76 625.9 541.84 634.42 543.86 635 547.02 633.08 553.83 633.03 553.98 628.64 556.13 625.28 557.78 625.11 557.9 625.06 558.05 627.39 563.13 643.16 556.63 643.21 556.6 643.3 556.51 643.34 556.46 643.38 556.4 644.29 554.28 645.75 550.7 648.14 544.93 649.5 541.84 650.05 541.44 655.84 544.01 657.09 545.24 654.72 548.86 651.23 551.81 645.7 565.19 650.33 567.1 653.79 568.53 653.87 572.29 657.51 576.49 647.46 577.31 641.78 582.73 638.37 586.98 633.66 586.41 625.44 585.46 624.01 585.38 623.93 585.41 623.89 585.45 623.86 585.49 623.84 585.59 623.82 585.75 623.81 585.8 623.81 585.89 623.82 585.92 623.83 585.95 623.86 585.96 624.77 586.17 630.94 587.26 642.17 589.3 642.34 589.37 642.47 589.52 642.51 589.64 642.52 589.69 642.52 589.87 642.56 591.36 642.57 593.19 642.34 608.63 639.75 609.45 636.47 610.5 630.55 612.38 629.99 612.56 629.99 612.83 630.05 617.01 630.07 618.24 636.08 617.78 636.17 617.77 636.22 617.76 636.32 617.72 636.36 617.69 636.57 617.58 637.29 617.16 637.55 616.99 640.37 617.14 640.44 617.16 640.47 617.17 640.51 617.21 640.55 617.26 640.66 617.44 640.67 617.49 640.69 617.57 640.7 617.67 640.77 620.41 640.77 620.52 640.54 625.83 639.88 627.11 639.78 627.27 636.3 632.64 636.23 632.69 636.16 632.72 635.53 632.82 631.34 632.95 626.67 634.14 627.09 643.07 627.09 643.11 627.65 645.72 627.76 646.04 627.91 646.27 628.89 648.43 629.47 649.73 629.46 651.03 629.46 651.04 629.35 651.22 627.59 652.95 627.11 653.18 621.9 654.73 621.85 654.74 621.79 654.75 621.72 654.75 621.66 654.73 621.15 654.59 620.23 654.45 620.14 654.45 620.06 654.46 619.95 654.47 619.88 654.49 619.8 654.52 619.71 654.56 619.54 654.64 619.5 654.67 619.26 654.85 618.4 656.1 617.88 656.98 616.47 657.93 616.38 657.98 616.37 657.98 616.36 657.99 616.35 658 616.34 658 616.34 658.01 616.33 658.02 616.32 658.02 616.31 658.04 616.3 658.05 616.3 658.05 616.29 658.06 616.29 658.07 616.28 658.08 616.27 658.09 616.27 658.09 616.26 658.1 616.26 658.11 616.25 658.12 615.22 659.27 615.07 659.8 615.87 662.77 616.41 665.08 617.12 668.55 616.78 668.93 616.35 669.5 616.21 669.68 615.84 670.18 615.81 670.23 615.74 670.32 615.61 670.51 615.48 670.7 615.45 670.75 615.39 670.85 615.33 670.95 614.88 671.76 614.59 672.33 614.38 672.73 614.27 672.98 613.71 674.75 613.63 675.02 613.22 676.66 613.13 677.07 613.1 677.25 613.09 677.3 613.07 677.42 613.01 677.82 612.98 677.99 612.95 678.21 612.94 678.27 612.36 682.68 612.39 682.77 612.81 683.15 612.82 683.15 612.82 683.16 612.83 683.16 612.83 683.16 612.84 683.16 612.85 683.17 613.12 683.19 613.32 683.15 613.49 682.98 613.65 682.78 613.87 682.93 614.09 683.24 613.99 684.07 613.97 684.13 613.97 684.14 613.97 684.15 613.97 684.16 613.96 684.16 613.94 684.19 613.93 684.19 613.8 684.28 613.8 684.29 613.79 684.29 613.79 684.29 613.77 684.29 613.76 684.29 613.76 684.29 613.75 684.29 613.75 684.29 613.75 684.29 613.74 684.29 613.74 684.29 613.74 684.29 613.74 684.29 613.74 684.28 613.73 684.28 613.73 684.28 613.73 684.26 613.73 684.26 613.73 684.25 613.73 684.24 613.73 684.24 613.73 684.24 613.72 684.23 613.72 684.23 613.72 684.23 613.72 684.23 613.7 684.23 613.7 684.23 613.69 684.23 613.69 684.23 613.69 684.23 613.61 684.28 613.61 684.28 613.61 684.28 613.61 684.29 613.52 684.4 613.52 684.41 613.51 684.42 613.51 684.42 613.51 684.43 613.32 685.07 613.32 685.08 613.31 685.2 613.31 685.23 613.31 685.24 613.1 687.53 613.09 687.8 613.09 687.83 613.15 688.47 613.16 688.49 613.26 688.7 613.33 688.82 613.34 688.85 613.37 688.87 614.49 689.62 615.63 690.27 615.69 690.31 624.56 693.78 624.8 693.86 624.86 693.87 624.94 693.89 626.59 694.18 626.72 694.2 626.8 694.2 626.85 694.2 626.89 694.2 626.94 694.19 626.98 694.17 627.01 694.15 628.35 694.46 630.01 694.92 630.02 694.92 630.02 694.93 630.03 694.95 630.48 699.54 629.11 702.32 628.93 702.75 628.87 702.96 628.86 703.13 628.9 703.76 628.93 704.02 629.03 704.34 629.14 704.62 629.28 704.9 629.46 705.12 629.64 705.31 629.86 705.45 630.08 705.57 630.19 705.6 631.75 705.81 634.19 706.51 638.51 708.82 638.52 708.83 638.88 709.18 640.13 711.55 640.2 711.76 640.21 711.79 640.44 712.54 640.49 712.72 642.18 719.12 642.19 719.15 642.19 719.18 639.53 723.6 638.64 724.74 638.23 725.21 636.69 726.85 636.58 726.95 636.36 727.12 635.64 727.49 634.58 727.81 627.6 729.08 626.59 728.97 622.08 728.59 616.13 734.02 614.19 734.76 614.09 734.79 614.08 734.79 613.89 734.77 613.65 734.66 613.6 734.59 613.5 734.45 613.47 734.4 613.46 734.31 613.63 733.74 613.78 733.48 613.96 733.13 613.97 733.08 613.72 731.28 613.67 730.96 613.62 730.73 613.58 730.64 607.74 726.12 607.29 725.8 606.94 725.6 606.8 725.53 606.6 725.43 606.3 725.34 606.02 725.3 605.78 725.27 603.76 725.22 603.38 725.22 602.64 725.27 602.32 725.31 601.87 725.39 601.36 725.49 600.75 725.67 600.23 725.84 599.15 726.26 598.14 726.8 597.93 726.95 597.9 726.98 597.89 726.98 597.44 727.34 597.2 727.57 596.35 728.43 596.24 728.54 596.22 728.57 595.62 729.52 595.61 729.54 595.39 730.05 594.85 732.26 594.83 732.33 594.92 732.96 594.92 733 595.07 733.25 595.15 733.36 593.63 743.16 591.61 743.85 588.43 744.59 586.62 744.84 586.4 744 586.35 743.88 586.3 743.82 585.95 743.59 585.63 743.47 585.31 743.4 585.21 743.4 582.84 743.52 581.9 743.62 577.93 745.85 577.18 746.57 576.95 746.92 574.96 751.74 574.31 755.14 574.37 757.89 573.73 759.22 573.69 759.31 573.65 759.42 573.63 759.52 573.61 759.65 573.61 759.73 573.62 759.82 573.65 759.95 573.71 760.14 573.73 760.19 573.76 760.23 573.8 760.26 573.85 760.27 573.92 760.28 574.02 760.27 574.11 760.27 574.17 760.28 574.21 760.3 574.22 760.31 574.88 761.35 574.88 761.36 574.87 761.46 574.61 761.96 574.58 762 574.55 762.02 574.54 762.02 574.53 762.03 572.75 763.09 572.72 763.1 572.69 763.09 571.24 762.79 571.21 762.78 571.21 762.77 571.21 762.76 571.23 762.64 571.25 762.32 571.24 762.29 571.23 762.25 571.19 762.2 571.02 762 570.85 761.84 570.65 761.68 570.48 761.57 570.27 761.44 570.27 761.44 570.13 761.39 569.98 761.36 569.84 761.33 569.72 761.31 569.31 761.26 569.12 761.25 569.06 761.25 568.45 761.29 568.28 761.35 568.16 761.39 568.11 761.43 568.05 761.48 567.98 761.55 567.92 761.65 566.51 765.8 566.51 765.83 566.68 766.34 566.86 766.73 566.44 768.13 562.59 777.86 560.55 780 555.68 782.39 555.06 782.67 554.38 782.88 553.9 782.96 553.75 782.99 553.58 783 553.43 782.99 553.33 782.98 553.26 782.96 553.16 782.88 553.1 782.83 553.06 782.75 553.03 782.67 553.01 782.56 553.01 782.39 553.02 782.25 553.05 782.16 553.1 782.13 553.24 782.07 553.37 782.03 553.5 782.02 554.09 781.98 554.39 782.04 554.45 782.06 554.45 782.08 554.44 782.1 554.37 782.2 554.37 782.21 554.41 782.2 554.59 782.16 554.79 782.09 555 782.01 555.25 781.9 555.43 781.8 555.69 781.66 555.83 781.56 556.07 781.37 556.14 781.31 556.27 781.2 556.5 780.97 556.92 780.32 556.95 780.27 556.96 780.25 557.1 779.77 557.1 779.76 557.09 779.74 554.69 777.53 553.11 777.59 553.01 777.6 552.66 777.65 552.26 777.72 551.91 777.78 551.8 777.81 550.02 778.58 549.9 778.64 549.64 778.86 549.58 778.98 549.57 779.01 549.57 779.44 548.98 779.23 548.52 778.96 548.44 778.91 546.13 774.82 545.96 774.5 545.65 773.74 545.46 773.27 545.22 772.42 545.14 772.1 545.27 771.58 545.34 771.27 545.48 770.74 545.56 770.52 542.02 767.39 535.57 766.71 528.31 766.08 524.79 761.29 518.46 761.39 517.97 761.49 517.97 761.49 517.86 761.51 511.69 759.51 510.48 758.83 508.3 757.42 510.12 754.3 512.17 752.34 514.3 749.25 514.98 747.95 516.52 738.71 515.49 735.54 515.19 734.67 514.89 734.09 513.69 732.91 513.58 732.83 512.92 732.38 512.65 732.1 511.83 731.22 510.17 729.32 509.15 727.96 509.75 722.28 510.22 718.89 510.58 718.27 510.94 717.41 511.25 716.65 511.87 712.46 511.61 709.87 510.27 709.57 509.46 709.39 507.21 708.42 507.03 708.33 505.21 704.79 503.88 700.88 503.88 700.84 503.6 698.93 503.46 698.04 502.82 696.87 502.62 696.52 499.72 692.77 497.97 691.57 487.81 678.93 485.04 673.84 484.77 673.01 484.2 670.82 483.72 667.11 480.23 670.14 477.98 671.25 472.38 673.14 471.58 673.31 471.34 673.26 470.75 673.11 468.05 671.78 468.02 671.76 467.44 671.38 466.48 670.75 466.37 670.55 466.24 670.33 466.22 670.3 465.2 669.54 464.69 669.16 463.24 668.08 459.57 667.1 459.03 668.32 459.92 670.11 460.04 672.33 459.83 672.78 458.39 674.44 458.16 674.59 456.71 675.51 456.17 675.66 455.44 675.88 454.21 676.25 453.7 676.34 453.54 676.36 453.51 676.36 445.65 675.3 442.76 673.47 437.59 675.03 437.25 675.43 436.66 676.18 436.39 677.44 436.16 678.69 435.08 681.62 431.73 681.12 430.26 680.75 429.15 680.15 429.13 680.14 426.6 680.02 417.89 681.6 413.16 682.87 411.19 683.81 410.89 683.96 410.5 684.05 407.76 684.68 407.51 684.63 404.44 683.96 402.49 682.58 401.55 681.9 397.3 681.53 395.48 680.74 390.45 678.05 385.75 674.38 384.53 672.67 383.37 670.56 382.93 669.98 382.51 669.59 381.58 668.71 379.27 667.68 380.28 663.89 380.32 662.02 380.56 660.95 381.78 658.06 382.5 657.46 383.33 656.78 385.2 655.3 386.73 654.09 387.73 653.28 388.85 652.37 389.77 651.63 389.79 650.95 389.82 650.21 389.88 649.05 391.45 644.37 392.25 644.18 392.69 644.08 393.64 643.87 394.12 643.76 399.29 638.98 407.36 629.15 407.64 627.73 407.28 624.53 406.05 620.13 403.8 618.96 402.68 618.39 402.4 618.24 400.5 617.27 399.03 615.2 397.53 610.69 397.42 609.97 397.23 608.72 394.89 605.39 393.91 604.74 392.98 604.12 392.89 604.07 388.98 603.56 385.4 603.18 381.56 601.75 379.69 600.73 376.39 595.63 377.51 587.83 376.27 584 377.09 582.65 379.29 579.86 378.96 578.85 376.62 575.46 375.32 573.66 375.09 573.63 375.04 573.57 375.01 573.53 373.88 571.77 372.46 569.54 371.37 567.47 370.98 566.88 370.73 566.5 364.92 569.38 362.83 571.13 361.91 571.93 361.66 572.19 361.32 572.52 361.23 572.62 360.85 573.02 360.75 573.16 360.66 573.31 360.6 573.51 360.52 573.81 360.46 573.99 360.38 574.21 360.26 574.3 360.18 574.34 360.09 574.38 360.08 574.39 359.94 574.46 359.78 574.51 359.66 574.55 359.45 574.59 357.25 574.93 356.81 574.95 354.95 574.83 350.52 575.6 349.36 576.26 346.74 577.55 340.76 580.16 339.29 578.87 338.1 577.48 331.75 577.62 331.64 577.64 331.48 577.66 330.16 577.87 329 578.05 328.91 578.06 328.2 578.37 327.32 579.69 322.84 580.94 320.15 580.78 319.37 577.84 316.54 576.15 315.14 575.61 314.06 575.2 311.44 574.17 308.85 572.47 302.81 567.68 301.02 566.03 300.1 565.17 298.98 563.88 298.44 562.97 298.26 562.66 297.77 561.84 290.8 557.44 287.88 557.54 286.38 556.46 283.22 554.57 278.8 550.73 277.36 548.97 275.93 545.27 275.7 544.66 274.8 541.92 270.83 539.24 268.23 537.07 263.63 533.68 263.03 530.67 262.92 530.1 262.43 529.64 259.09 526.47 256.6 524.24 255.51 523.26 254.21 522.68 247.97 519.89 245.98 515.86 246.82 513.78 247.71 511.87 247.69 511.72 247.2 508.43 246.95 506.69 244.85 504.81 242.94 503.09 242.46 502.28 240.8 499.11 240.06 496.8 240.37 496.03 237.7 493.89 234.72 492.46 231.69 490.99 227.77 488.39 227.46 488.07 225.6 485.3 224.87 480.21 224.9 479.69 225.06 479.43 225.22 479.19 225.4 479.01 226.2 478.12 226.48 477.78 226.51 477.74 226.7 477.35 226.93 476.9 227 476.76 227.13 474.33 225.68 471.72 224.8 471.17 223.96 470.31 222.85 468.69 221.94 465.1 221.86 464.16 221.96 460.06 222.2 458.99 222.5 457.71 222.56 457.47 220.15 454.88 218.53 453.62 218.17 453.35 218.09 453.29 215.79 452.56 215.17 452.63 213.68 453.38 212.35 454.7 210.86 455 210.23 454.75 208.79 454.14 208.16 453.71 207.4 453.06 206.94 452.59 206.65 452.17 206.37 451.77 203.29 451.88 202.41 452.88 200.69 452.36 199.61 452.05 198.22 451.83 197.7 451.84 197.33 451.9 197.19 451.92 196.49 451.66 196.36 451.62 196.09 451.47 195.59 451.07 195.43 450.94 195.4 450.93 195.19 450.75 195.07 450.65 194.13 449.88 190.95 446.91 190.82 446.72 190.25 445.93 189.48 444.72 178.59 442.61 174.52 441.23 165.46 437.57 164.39 437.08 161.83 435.88 160.75 435.3 160.41 435.1 159.54 434.44 157.45 432.95 155.06 431.47 153.54 430.59 149 429.93 144.09 426.64 134.3 420.56 133.06 415.45 131.77 411.44 131.58 409.96 132.29 408.77 133.37 406.96 133.71 404.63 133.64 404.15 133.15 400.89 133.8 399.96 134.99 398.25 135.04 398.21 136.6 397.85 140.28 395.41 140.46 391.2 138.54 385.36 135.25 386.79 126.7 390.73 125.76 390.97 123.07 391.03 122.8 391.04 118.64 391.76 117.13 392.83 112.24 394.98 102.68 398.54 101.27 398.85 98.99 398.25 97.35 397.8 96.57 397.51 92.94 396.14 87.81 398.84 81.68 402.23 69.76 404.37 67.65 404.44 66.39 404.28 63.37 402.79 63.24 401 63.33 399.7 63.66 397.8 63.82 397.32 64.06 396.7 64.11 396.27 64.32 394.75 64.32 394.7 64.08 394.2 60.89 392.68 60.54 392.65 55.51 392.62 51.89 393.17 51.61 393.21 45.75 394.7 45.01 394.89 41.16 395.53 39.85 394.94 39.81 394.25 39.8 392.29 39.87 390.91 39.9 390.38 41.25 388.56 42.15 387.19 42.35 386.72 42.2 384.79 42.05 383.92 41.83 382.66 41.8 380.8 42.2 379.85 42.6 378.91 43.88 377.51 45.13 376 46.42 374.2 46.58 371.31 45.53 367.91 41.31 360.82 38.32 357.07 36.5 356.8 35.55 356.86 33.32 353.73 32.3 351.88 30.66 348.54 27.57 350.36 24.46 352.72 22.65 354.44 19.21 357.4 17.17 359.12 17.09 358.99 16.28 357.82 15.8 356.54 15.35 355.36 15.09 354.67 13.61 352.6 10.71 348.93 7.03 344.6 3.92 340.11 3 338.02 1 331.75 2.08 331.86 8.14 328.48 10.3 326.75 11.78 325.35 14.48 325.35 17.84 324.46 23.22 322.9 26.46 321.27 30.17 319.34 36.4 317.25 37.86 317.92 40.64 316.12 52.19 301.61 53.28 299.49 54.15 298.27 54.43 297.89 54.98 297.24 59.89 291.43 66.81 286.36 68.09 285.81 70.4 286.55 73.28 285.66 74.94 285.15 75.04 285.1 77.52 283.97 77.58 283.86 78 283.08 77.37 281.52 77.49 278.14 78.27 276.36 80 274.41 81.76 272.87 82.43 271.86 82.98 270.5 83.54 269.12 83.82 259.27 86.3 251.92 85.85 249.26 85.74 248.73 83.67 246.97 83.01 245.95 83.39 243.75 84.36 233.46 83.29 225.16 82.35 223.62 80.99 222.85 80.31 222.46 78.98 221.71 78.92 221.67 78.47 221.47 77.39 220.98 72.94 219.67 72.48 219.84 67.47 221.65 59.72 220.57 58.77 220.08 56.35 215.54 55.16 214.47 50.27 212.15 52.05 209.25 55.24 206.06 60.15 201.92 62.27 200.47 66.06 198.77 69.44 196.95 72.72 194.93 74.71 193.16 74.85 192.85 75.64 190.98 76.74 187.75 77.9 184.43 78.83 182.56 79.21 182.32 85.43 180.21 87.14 179.84 88.4 179.57 91.38 182.31 91.54 182.55 92.26 182.98 94.65 184.21 102.89 188.02 104.33 187.71 105.27 187.11 105.68 185.65 105.84 184.84 106.81 182.31 111.11 177.48 115.32 170.09 116.08 167.96 116.84 165.72 117.06 164.81 117.23 163.53 117.29 163.1 117.44 162.24 117.7 160.94 118 159.47 118.66 157.33 119.32 155.29 120.31 152.33 120.78 151.07 123.38 151.69 126.77 153.03 129.15 153.83 133.62 154.88 136.71 155.14 138.29 155.28 147.43 158.35 157.17 160.61 157.18 160.62 157.69 160.87 159.19 161.61 160.12 162.38 160.25 162.49 161.21 163.31 161.87 163.88 161.91 163.91 161.95 163.96 166.09 168.89 166.99 169.96 167.43 170.48 170.86 168.17 172.04 167.37 172.89 166.8 173.15 166.61 174.02 165.98 175.65 164.8 175.93 164.59 176.02 164.12 176.17 163.35 176.19 163.27 176.61 161.19 176.69 160.8 176.29 157.77 176.26 157.49 175.6 155.56 175.51 155.28 175.26 154.91 174.08 153.16 173.97 153.01 172.85 152.44 171.06 151.53 168.11 149.53 166.77 147.82 166.71 147.75 161.5 140.27 154.77 134.58 154.7 134.48 154.47 134.12 153.72 129.97 153.36 127.81 153.55 127.44 155.22 124.31 156 113.77 152.88 109.27 152.9 109.21 154.34 105.59 155.79 104.45 159.26 100.91 161.9 97.52 162.13 97.23 162.18 97.16 162.16 97.15 162.13 97.14 161.99 97.09 161.76 97.01 160.99 96.74 159.73 95.79 158.39 94.73 157.2 92.08 156.91 89.75 156.84 89.2 156.93 87.35 160.12 83.37 161.4 81.51 163.05 78.99 163.37 78.49 163.63 77.98 163.62 77.74 163.55 77.45 163.39 76.94 163.38 76.53 163.56 76.07 163.97 75.2 168.47 66.22 173.62 60.25 177.77 56.74 180.58 56.34 182.07 55.78 184.64 53.93 188.75 49.96 189.21 46.79 189.28 46.58 190.45 46.43 191.67 46.28 193.22 46.09 193.49 46.06 194.21 45.97 194.77 45.9 200.66 43.17 207.55 39.69 207.71 39.55 208.22 39.39 209.55 38.99 210.04 38.84 210.49 38.82 212.96 38.76 213.28 38.77 213.97 38.78 215.34 38.79 215.62 38.8 217.17 38.64 218.65 38.27 222.73 37.23 222.75 37.2 223.7 36.29 224.48 35.55 225.39 34.67 230.16 34.4 232.52 36.83 233.13 37.95 235.19 37.52 236.56 37.23 241.7 35.55 243.6 34.73 243.79 34.64 243.93 34.58 244.02 34.16 244.06 33.94 244.07 33.91 244.86 31.04 246.19 26.28 246.97 24.03 248.23 23.09 248.83 22.91 255.34 25.5 259.88 26.71 261.7 26.22 264.08 25.15 263.54 24.66 262.8 23.98 262.5 23.65 262.95 22.08 263.66 19.96 265.81 16.76 268.3 14.44 268.31 14.43 268.33 14.41 268.3 14.37 265.05 9.6 266.41 7.42 271.03 2.75 272.22 2.24 272.45 2.18 276.22 1.23 278.77 1 278.8 1 280.56 1.48 283.04 3.79 285.19 4.34 290.27 6.59 292.99 8.65 296.35 11.71 296.45 12.01 298.31 15.1 302.06 20.65 319.45 20.67 323.35 20.46 328.12 18.53 329.1 17.71 331.25 15.39 335.21 6.83 335.58 5.08 335.48 3.3 335.48 3.22 335.45 2.8 335.65 2.28 336.36 2.51 339.34 4.09 342.51 6.05 342.64 6.17 343.73 7.11 344.18 8.4 347.47 11.08 349.68 11.49 351.2 11.77 353.36 12.2 353.54 12.28 353.81 12.4 354.21 12.56 354.32 12.61 361.57 17.07 362.35 17.67 362.54 17.96 362.57 18.06 363.08 20.19 363.69 19.89 367.13 17.58 367.49 17.2 367.62 16.87 367.7 16.66 367.71 16.56 367.74 16.19 367.59 14.45 367.58 14.38 367.58 14.37 367.83 13.3 367.93 13.07 368.07 12.73 368.8 11.42 374.46 6.95 374.81 6.79 376.6 6.24 376.6 6.24 377.36 6.25 377.45 6.25 379.27 6.59 379.92 6.71 380.42 6.87 381.44 8.73 381.06 11.28 382.32 12.15 384.57 14.11 387.52 16.77 387.61 16.85 388.53 17.61 395.35 22.29 396.85 21.28 396.91 21.24 398.7 20.45 399.33 20.77 399.35 20.78 401.28 22.71 401.42 23.43 401.64 24.51 402.55 25.62 405.75 29.27 409.17 31.05 409.79 30.51 410.71 29.91 412.17 29.69 416.31 30.66 417.75 31.29 419.89 33.37 420.97 35.77 420.98 35.93 421.02 36.81 420.97 36.9 420.61 37.56 421.05 39.6 421.53 40.27 422.78 40.4 425.56 40.08 425.57 40.08 428.15 39.78 430.33 39.76 433.43 40.07 434.72 41.49 437.67 42.49 442.25 44.01 444.12 43.41 448.99 43.55 452.34 43.97 453.03 44.19 453.59 44.36 454.18 44.54 457.41 45.52 457.72 45.62 458.57 45.89 462.32 50.92 466.96 60.22 468.09 63.84 468.18 64.64 468.19 64.71 467.72 75.02 467.22 76.24 464.73 78.45 463.31 79.51 462.09 80.71 462.19 82.42 463.71 85.95 466.1 88.65 465.77 92.77 464.22 102.14 464 102.7 463.56 103.83 463.39 104.21 463.26 104.49 462.81 105.05 462.81 105.06 461.24 106.48 456.38 113.92 456.89 118.49 457.82 125.7 461.49 128.67 462.24 131.71 465.09 136.62 466.01 137.09 474.19 139.01 478.23 141.18 481.09 143.76 486.77 140.82 489.53 139.74 489.53 139.74 489.64 139.77 491.57 140.17 493.6 141.8 494.14 142.32 499.55 144.5 499.58 144.46 500.46 143.35 501.97 142.46 502.07 142.4 502.43 142.19 506.53 144.51 512.45 148.17 514.31 149.63 514.39 149.91 514.45 150.16 514.54 151.82 515.21 152.84 516.16 154.26 516.65 154.89 517.29 155.33 522.12 156.96 524.61 158.09 Z" fill-rule="evenodd" id="울주군"/>
<path d="M 611.74 343.38 610.19 342.85 610.11 342.83 609.89 342.76 609.87 342.76 608.86 342.53 608.81 342.53 608.44 342.56 606.18 342.99 604.74 343.28 603.35 343.6 603.33 343.6 603.23 343.63 602.95 343.77 602.66 343.91 601.84 343.96 599.51 343.96 598.98 343.88 597.7 343.51 596.4 343.38 584.63 341.55 584.53 341.62 583.76 341.96 583.55 342.01 578.16 343.05 577.66 343.12 577.14 343.19 576.57 343.26 575.86 343.35 574.98 343.4 570.83 343.02 570.64 343 569.37 342.86 560.94 341.99 560.3 341.9 557.96 341.58 557.24 341.39 550.13 339.09 547.61 338.35 547.6 338.34 545.69 337.54 545.52 337.48 545.27 337.39 545.16 337.37 544.98 337.38 544.89 337.38 544.65 337.39 544.54 337.39 544.11 337.43 543.2 337.55 542.99 337.6 542.92 337.62 542.61 337.69 542.6 337.69 542.26 337.84 542.06 337.92 541.83 338.07 541.62 338.21 541.44 338.34 541.02 338.64 540.79 338.84 538.94 340.53 538.81 341.02 538.69 341.5 538.68 342.27 538.74 344.09 538.81 345.05 538.84 345.54 538.87 346.01 538.97 346.81 539.01 347.05 539.03 347.17 539.07 347.41 539.12 347.67 539.15 348.09 539.22 349.03 539.2 349.28 538.95 349.63 538.63 350.07 538.49 350.26 536.73 351.65 536.46 351.8 535.85 352.03 533.27 352.71 532.37 352.87 528.95 353.5 527.26 353.55 526.62 353.43 526.39 353.39 525.67 353.14 525.43 353.05 525.32 353.01 525.32 353 521.32 351.4 521.2 351.34 520.93 351.2 520.61 351 520.42 350.88 520.19 350.74 518.01 348.55 517.51 348 517.15 347.5 516.74 346.49 516.72 346.45 516.56 346.14 516.52 346.08 516.26 345.64 516.06 345.37 515.11 344.46 514.87 344.26 514.69 344.14 514.17 343.82 514.01 343.73 513.97 343.71 513.56 343.48 513.33 343.36 501.89 337.64 501.71 337.57 501.62 337.53 501.51 337.49 500.59 337.21 498.71 336.86 493.51 335.96 493.3 335.93 492.92 335.89 492.54 335.91 492.06 336.02 491.54 336.28 491.16 336.49 490.76 336.72 490.66 336.76 490.29 336.94 489.51 337.28 489.27 337.34 488.63 337.37 488.26 337.38 487.75 337.39 486.44 337.4 486.23 337.33 485.9 337.2 485.68 337.12 484.6 336.59 483.09 335.79 482.7 335.57 481.97 335.07 481.5 334.68 480.88 334.07 480.53 333.72 480.05 333.24 479.95 333.13 479.71 332.87 479.58 332.72 479.21 332.3 478.13 330.92 477.89 330.65 477.39 329.66 473.32 324.18 473.1 323.93 472.71 323.52 472.49 323.29 472.23 323.03 472.16 322.96 471.49 322.44 471.23 322.27 470.52 322 470.1 321.9 469.74 321.87 469.48 321.84 469.2 321.83 468.87 321.82 468.34 321.81 467.55 321.77 466.79 321.68 463.34 310.94 463.32 310.35 464.59 297.12 465.76 296.24 467.58 296.38 467.73 296.39 467.68 295.53 466.81 289.73 466.03 288.35 464.72 287.68 462.99 287.95 462.86 287.97 460.53 284.87 459.51 281.31 459.55 281.04 459.73 279.97 460 279.04 460.51 278.11 458.14 268.99 457.97 268.93 456.64 268.49 455.63 266.83 455.59 265.98 455.63 265.28 455.66 265.22 455.81 264.92 456.79 265.1 457.05 265.19 459.56 266.35 460.93 265.59 462.3 266.07 462.84 266.4 464.08 267.66 465.43 269.05 466.79 270.16 475.7 273.63 478.34 272.89 478.36 272.8 478.37 272.76 478.43 272.61 478.5 272.51 479.64 271.12 480.62 270.63 484.15 270.14 484.47 270.1 484.66 270.07 484.89 270.08 485.42 270.22 501.87 274.93 504.72 276.08 504.85 276.63 504.12 283.64 507.76 287.75 509.52 288.37 509.67 288.38 511.31 288.48 514.79 288.36 519.11 288.05 523.99 291.7 523.33 290.83 520.13 280.68 519.9 279.94 519.93 279.79 519.96 279.67 520.72 276.81 521.31 276.2 521.95 275.27 522.39 274.09 522.57 273.29 521.93 271.55 521.86 271.38 521.74 271.15 521.68 271.05 520.48 269.14 519.27 268.16 518.91 267.64 518.67 267.23 518.18 265.67 518.14 265.52 518.12 265.34 517.86 262.16 516.75 257.88 518.31 258.88 518.43 258.96 522.05 259.62 522.77 259.73 523.81 259.4 524.3 259.18 524.35 259.15 524.35 259.15 524.45 259.05 524.8 258.68 524.87 258.52 524.9 258.3 524.94 258.14 525.01 258.02 525.87 257 525.99 256.88 526.13 256.78 528.29 255.72 528.57 255.61 528.83 255.59 530.87 255.54 531.38 255.53 533.09 255.55 533.59 255.56 537.21 255.71 538.02 255.78 538.18 255.84 538.31 255.96 540.44 258.52 540.35 260.27 540.31 260.39 540.31 260.49 540.3 260.57 540.33 260.76 541.67 263.14 541.88 263.38 544.21 265.65 544.35 265.67 547.87 265.69 547.96 265.67 548.14 265.63 548.53 265.48 548.96 265.26 549.3 265.06 550.13 264.41 550.83 263.5 551.15 262.91 551.23 262.77 551.51 262.26 551.59 262.15 551.95 261.69 552.39 261.27 555.74 258.35 556 258.14 556.14 258.03 560.28 255.05 560.59 255.02 561.08 255.13 561.66 255.45 562.17 255.6 562.79 255.75 563.61 255.79 563.89 255.77 566 254.75 566.32 254.54 566.5 254.34 566.98 253.76 567.85 252.61 568.01 252.36 568.09 252.19 568.16 251.99 568.33 251.01 568.34 250.74 568.34 250.39 568.28 249.53 568.26 249.28 568.23 248.84 568.27 248.35 568.3 248.26 568.5 247.84 569.02 247.1 570.16 246.45 570.83 246.2 582.25 245.06 582.55 245.06 582.9 245.15 583.26 245.54 583.39 245.75 583.68 247.18 583.74 247.46 583.65 247.8 582.45 250.02 582.12 251.08 582.31 251.75 582.63 252.13 583.41 252.81 584.26 253.55 584.68 253.88 584.91 254.06 585.85 254.71 586.21 254.9 587.35 255.41 587.79 255.5 588.03 255.49 588.11 255.49 588.75 255.4 589.2 255.29 589.89 255 590.51 254.61 591.38 253.83 591.55 253.68 591.86 253.45 594.12 252.12 594.83 251.76 595.55 251.43 595.76 251.37 598 250.85 598.75 250.68 599.77 250.48 600.43 250.44 601.24 250.46 602.45 250.49 603.23 250.52 604.18 250.56 605.48 250.64 606.12 250.7 610.54 252.12 611.07 258.79 611.12 259.83 611.13 261.34 611.1 262.64 611.03 265.04 610.6 265.05 610.39 265.05 610.41 266.01 610.47 270.05 610.49 271.4 611.16 277.05 611.42 278.48 611.52 279.05 611.66 279.64 611.73 279.92 611.83 280.35 612.42 282.23 615.37 287.53 617.63 296.49 617.37 300.5 617.24 305.1 617.25 305.2 617.27 305.46 617.3 305.72 617.32 305.94 617.62 307.22 617.65 307.34 617.81 307.89 617.92 308.24 617.93 308.26 618.48 309.43 619.09 310.71 619.15 310.99 619.21 311.29 620.24 316.65 620.15 318.09 620.02 318.95 619.71 320.66 619.59 321.39 618.33 322.38 618 322.63 616.88 323.2 616.61 323.32 616.37 323.41 616.14 323.48 615.68 323.69 615 324.02 614.73 324.17 614.58 324.3 614.34 324.5 614.15 324.67 613.78 325.09 613.68 325.31 613.34 326.1 613.74 327.05 615.03 331.05 615.24 331.77 615.35 332.48 615.45 333.09 615.48 333.34 615.48 333.36 615.56 333.95 616.31 340.84 614.75 342.78 611.86 342.23 611.81 342.6 611.74 343.09 611.74 343.38 Z" id="중구"/>
</g>
</svg>