<?xml version="1.0"?>
<svg xmlns="http://www.w3.org/2000/svg" version="1.2" baseProfile="tiny" width="800" height="699" viewBox="0 0 800 699" stroke-linecap="round" stroke-linejoin="round">
<g id="강원도_시군구_경계">
<path d="M 621.92 339.1 623.66 345.34 646.72 368.5 654.84 377.53 661.67 383.14 664.33 389.43 672.16 398.91 685.57 411.26 686.25 418.6 682.03 427.6 685.54 435.15 692.93 442.32 684.76 455.03 683.58 468.21 680.38 466.9 673.61 472.06 666.55 470.17 662.45 474.07 657.75 474.32 653.96 470.22 643.42 472.28 640.27 468.7 633.83 466.34 633.73 459.94 630.8 451.33 626.46 448.66 622.26 450.14 618.93 456.58 617.46 472.28 614.08 483 602.78 488.13 596.02 482 593.48 472.84 583.33 471.97 574.53 469.52 569.61 475.07 564.07 476.34 559.48 472.42 553.96 459.82 555.58 449.2 566.97 449.26 569.22 441.31 573.98 441.94 573.62 433.57 571.03 429.53 572.64 422.08 577.41 416.82 583.64 413.63 577.33 395.79 575.75 383.73 569.24 380.25 563.36 372.13 552.94 370.12 550.02 372.82 537.35 366.61 533.44 371.82 528.82 373.37 525.59 366.73 524.94 354.59 518.83 349.11 518.36 341.89 520.48 331.13 525.04 327.24 531.89 326.44 532.83 322.82 539.54 316.39 548.08 320.32 565.97 312.3 570.84 313.78 575.75 309.6 597.89 305.61 606.52 313.48 605.18 320.25 614.52 332 621.92 339.1 Z" id="강릉시"/>
<path d="M 517.49 168.23 511.71 173 499.71 175.04 495.69 178.74 487.76 181.19 483.19 187.28 476.88 183.31 467.91 180.73 466.27 176.17 466.45 165.08 459.07 158.47 454.34 163.7 448.29 161.77 441.08 164.16 437.49 153.25 430.98 154.83 424.22 151.74 425.04 138.48 420.84 129.33 422.02 125.1 413.4 120.98 408.85 123.04 405.38 115.96 408.12 109.71 407.05 105.1 399.74 107.53 393.32 105.04 391.9 99.26 398.63 88.22 411.68 78.07 416.87 63.08 418.67 49.12 421.69 44.79 420.72 33.85 420.38 10.63 429.62 5.25 431.44 1.48 437.16 1 441.02 8.82 449.48 19.61 452.27 21.36 453.44 30.28 458.29 39.53 458.27 44.69 465.99 60.58 475.36 71.79 470.94 77.19 478.78 91.61 491.69 107.61 489.87 111.06 491.77 117.05 497.4 123.51 497.57 128.65 503.84 135.13 504.62 143.94 508.74 156.32 517.49 168.23 Z" id="고성군"/>
<path d="M 705.98 452.37 709.65 463.64 706.48 466.6 710.53 480.03 723.78 498.85 715.31 508.77 701.37 504.68 693.74 507.96 684.63 507.82 673 516.11 669.43 521.39 659.33 518.8 652.8 512.88 655.16 508.02 662.18 502.23 663.82 495.98 662.23 492.22 653.53 483.73 657.75 474.32 662.45 474.07 666.55 470.17 673.61 472.06 680.38 466.9 683.58 468.21 684.76 455.03 692.93 442.32 705.98 452.37 Z" id="동해시"/>
<path d="M 723.78 498.85 733.24 506.79 734.51 516.35 737.6 525.08 746.4 533.59 757.65 541.2 756.77 547.94 762.63 556.65 764.16 566.45 770.73 571.51 774.82 578.62 785.28 585.48 784.76 591.57 792.26 598.7 789.8 609.93 792.16 614.09 790.72 619.29 792.48 629.78 798.55 643.06 791.72 643.31 777.46 651.44 774.29 657.63 766.01 656.89 764.15 663.22 758.32 665.98 750.13 676.04 752.95 689.03 743.16 688.87 739.55 690.85 727.65 678.6 711.97 668.31 704.01 665.09 701.2 659.25 703.62 648.26 701.07 639.56 695.93 638.98 695.07 634.49 687.8 634.6 675.44 629.72 669.9 620.14 669.33 613.69 670.98 606.07 666.81 606.07 670.99 593.19 674.01 588.46 670.2 582.55 675.24 575.78 667.96 566.45 672.97 561 671.35 557.26 664.72 561.9 658.3 562.39 648.7 575.3 648.09 586.87 643.93 592.13 646.32 601.92 640.25 604.36 639.98 610.78 636.83 614.8 631.57 598.2 626.6 593.57 627.32 590.5 623.73 582.36 618.78 576.32 622.8 569.73 621.51 560.93 614.3 558.67 618.38 542.06 622.49 533.81 629.16 531.51 631.97 527.13 631.85 520.42 642.2 512.2 652.8 512.88 659.33 518.8 669.43 521.39 673 516.11 684.63 507.82 693.74 507.96 701.37 504.68 715.31 508.77 723.78 498.85 Z" id="삼척시"/>
<path d="M 517.49 168.23 520.94 177.07 517.15 185.33 523.97 185.21 526.87 190.96 526.15 198.83 512.74 199.27 509.17 204.75 500.52 204.76 498.77 210.28 485.3 210.25 476.16 217.98 476.46 210.16 468.41 204.64 466.75 198.86 460.64 192.74 462.46 187.22 466.61 185.67 467.91 180.73 476.88 183.31 483.19 187.28 487.76 181.19 495.69 178.74 499.71 175.04 511.71 173 517.49 168.23 Z" id="속초시"/>
<path d="M 324.49 265.4 318.66 263.51 311.84 271.22 308.5 267.41 309.02 260.09 298.51 254.92 292.54 265.76 280.58 258.69 280.05 249.74 283.87 246.22 280.6 241.11 279.43 231.95 274.94 230.8 273.69 223.6 270.68 219.51 269.81 210.64 272.35 197.25 267.4 181.47 261.99 179.88 262.28 170.53 264.15 168.73 262.65 157.73 265.66 147.02 274.61 135.7 276.84 133.86 293.33 136.67 298.92 139.37 307.48 148.14 315.69 149.19 319.77 133.09 324.06 132.64 330.56 136.18 337.38 134.85 343.83 131.41 352.72 126.92 363.76 128.27 367.31 126.1 372.84 132.07 372.08 143.91 373.55 147.21 369.65 155.83 363.98 161.39 356.9 165.24 354.31 172.26 356 177.28 348.31 186.98 350.42 189.81 347.62 199.88 343.94 204.5 350.56 223.72 345.54 227.01 345.04 230.81 349.81 238.13 353.47 240.26 355.33 250.67 353.83 255.34 347.14 259.2 335.36 250.93 335.26 265.14 329.25 262.98 324.49 265.4 Z" id="양구군"/>
<path d="M 567.67 259.07 571.58 260.36 569.58 266.42 580.14 278.54 581.22 284.29 589.18 294.28 590.37 297.81 597.89 305.61 575.75 309.6 570.84 313.78 565.97 312.3 548.08 320.32 539.54 316.39 532.83 322.82 531.89 326.44 525.04 327.24 520.48 331.13 515.47 330.04 512.98 325.21 503.43 318.46 494 323.46 490.75 320.28 482.99 317.86 480.2 314.31 480.64 303.54 476.54 299.08 481.23 286.97 487.94 284.97 487.56 277.72 493.46 268.38 488.87 259.31 486.46 249.07 480.57 249.33 467.89 245.16 462.64 249.14 458.95 243.16 455.1 228.42 457.27 221.84 463.24 223.07 476.16 217.98 485.3 210.25 498.77 210.28 500.52 204.76 509.17 204.75 512.74 199.27 526.15 198.83 526.24 203.75 535.84 218.59 549.65 234.07 550 239.59 557.83 249.8 567.67 259.07 Z" id="양양군"/>
<path d="M 519.28 593.48 515.77 600.16 519.69 603.93 520.52 614.72 527.23 616.83 534.81 615.24 534.52 620.57 544.62 631.38 549.48 629.14 561.67 629.84 572.54 623.7 580.6 617.62 587.36 621.32 597.75 624.43 604.22 629.24 606.11 633.08 613.94 636.96 628.96 635.99 634.65 645.53 630.32 648.24 630.8 655.46 624.09 663.04 630.3 665.63 630.78 670.05 626.27 675.96 632.05 683.14 638.63 680.27 634.07 685.95 627.48 687.09 626.51 690.86 616.27 687.97 609.91 676.2 602.31 677.39 599.26 672.6 590.11 672.47 587.12 683.1 583.03 687.5 586.37 695.21 581.3 698 576.59 693.54 570.92 692.06 564.47 693.43 560.39 688.08 549.13 684.64 538.72 678.58 536.69 673.19 530.89 677.99 519.64 676.08 515.1 672.19 510.74 673.86 505.31 668.82 498.22 666.41 491.88 656.73 485.32 663.71 471.14 663.42 465.81 666.3 464.29 659.65 456.3 655.85 457.95 647.76 452.1 642.88 434.79 643.39 433.11 646.45 426.37 648.7 421.73 653.69 412.82 647.82 411.85 639.56 420.59 632.01 424.83 630.77 426.82 625.99 431.41 625.73 433.53 618.22 426.95 614.54 410.88 621.2 404.63 611.68 396.71 612.43 389.33 603.3 391.06 597.16 391.43 585.91 382.99 583.63 378.96 584.37 378.65 589.82 366.22 593.65 356.34 592.64 354.15 581.48 357.48 578.98 356.34 574.01 361.43 568.31 376.74 569.64 374.88 564.19 381.53 562.45 378.42 546.97 381.68 539.75 393.26 539.05 398.88 541.77 405.07 539.38 409.13 532.63 419.33 535.83 422.37 541.35 431.01 546.73 427.46 557.29 429.16 559.45 430.26 570.92 441.99 576.47 444.33 580.76 450.94 585.06 456 581.33 460.01 582.61 458.56 570.89 461.75 562.67 475.48 564.17 479.13 569.22 479.8 576.94 491.26 578.38 492.68 584.49 505.05 586.75 512.26 584.62 519.28 593.48 Z" id="영월군"/>
<path d="M 354.15 581.48 356.34 592.64 366.22 593.65 378.65 589.82 378.96 584.37 382.99 583.63 391.43 585.91 391.06 597.16 389.33 603.3 384.12 605.04 377.48 610.55 377.16 616.54 370.67 618.08 366.17 612.4 359.99 610.14 355.47 621.69 342.34 628.24 329.23 630 326.07 623.94 329.71 618.18 324.13 613.97 322.74 605.69 318.75 602.3 310.79 599.68 305.24 600.79 294.38 607.45 288.3 614.41 292.18 622.37 293.56 630.41 292.65 636.14 288.74 641.1 283.83 640.01 281.39 646.79 270.9 641.3 262.02 646.43 254.42 646.69 251.61 648.93 241.76 650.65 232.94 643.34 229.87 638.56 225.67 622.36 227.31 617.59 226.56 608.03 231.33 593.48 229.23 582.51 233.83 580.22 230.32 561.01 230.86 551.78 237.38 550.1 236.9 544.68 241.42 534.22 245.21 520.22 252.02 516.69 259.15 522.3 263.09 533.17 269.07 537.37 270.19 530.28 267.59 526.02 268.16 516.47 272.12 507.63 282.36 504.78 283.71 498.79 290.4 489.89 294.12 492.41 291.6 497.15 297.34 511.29 304.26 514.13 307.18 511.25 316.38 511.88 321.26 516.7 336.24 516.94 337.86 521 345.11 525.91 349.91 533.98 343.37 536.84 341.29 551.24 333.18 551.91 329.23 557.21 327.63 566.75 334.15 577.33 354.15 581.48 Z" id="원주시"/>
<path d="M 467.91 180.73 466.61 185.67 462.46 187.22 460.64 192.74 466.75 198.86 468.41 204.64 476.46 210.16 476.16 217.98 463.24 223.07 457.27 221.84 455.1 228.42 458.95 243.16 462.64 249.14 467.89 245.16 480.57 249.33 486.46 249.07 488.87 259.31 493.46 268.38 487.56 277.72 487.94 284.97 481.23 286.97 476.54 299.08 480.64 303.54 480.2 314.31 482.99 317.86 480.91 321.29 465.7 329.66 462.07 322.55 451.27 333.27 442.82 338.56 442.53 344.53 436.64 347.63 429.63 344.5 426.76 345.93 421.82 339.13 421.4 334.09 417.24 328.75 406.07 334.76 404.29 342.18 396.86 349.95 389.76 354.34 385.24 352.66 377.68 344.42 373.63 337.27 373.67 328.21 375.47 322.39 370.73 317.91 365.18 318.95 351.52 315.86 346.38 316.67 336.94 311.23 328.28 303.96 323.44 295.95 318.77 299.15 312.61 297.92 308.66 287.97 308.49 276.81 319.53 273.38 324.49 265.4 329.25 262.98 335.26 265.14 335.36 250.93 347.14 259.2 353.83 255.34 355.33 250.67 353.47 240.26 349.81 238.13 345.04 230.81 345.54 227.01 350.56 223.72 343.94 204.5 347.62 199.88 350.42 189.81 348.31 186.98 356 177.28 354.31 172.26 356.9 165.24 363.98 161.39 369.65 155.83 373.55 147.21 372.08 143.91 372.84 132.07 367.31 126.1 363.76 128.27 352.72 126.92 343.83 131.41 353.74 122.98 357.96 124.87 368.73 118.03 374.19 110.62 380.07 106.76 385.49 105.93 391.9 99.26 393.32 105.04 399.74 107.53 407.05 105.1 408.12 109.71 405.38 115.96 408.85 123.04 413.4 120.98 422.02 125.1 420.84 129.33 425.04 138.48 424.22 151.74 430.98 154.83 437.49 153.25 441.08 164.16 448.29 161.77 454.34 163.7 459.07 158.47 466.45 165.08 466.27 176.17 467.91 180.73 Z" id="인제군"/>
<path d="M 657.75 474.32 653.53 483.73 662.23 492.22 663.82 495.98 662.18 502.23 655.16 508.02 652.8 512.88 642.2 512.2 631.85 520.42 631.97 527.13 629.16 531.51 622.49 533.81 618.38 542.06 614.3 558.67 621.51 560.93 622.8 569.73 618.78 576.32 623.73 582.36 627.32 590.5 626.6 593.57 631.57 598.2 636.83 614.8 639.72 616.83 638.46 632.13 640.64 638.7 638.67 644.5 634.65 645.53 628.96 635.99 613.94 636.96 606.11 633.08 604.22 629.24 597.75 624.43 587.36 621.32 580.6 617.62 572.54 623.7 561.67 629.84 549.48 629.14 544.62 631.38 534.52 620.57 534.81 615.24 527.23 616.83 520.52 614.72 519.69 603.93 515.77 600.16 519.28 593.48 526.38 587.06 520.42 580.01 521.38 574.61 517.24 567.75 515.43 559.49 511.81 556.2 510.75 548.53 505.53 535.58 496.71 533.72 493.96 527.52 498.35 520.3 496.21 511.2 499.9 507.41 509.94 510.45 513.87 508.24 511.33 496.04 518.46 486.2 522.58 464.43 531.6 457.6 535.22 458.82 535.81 465.9 542.14 467.36 550.87 465.29 553.96 459.82 559.48 472.42 564.07 476.34 569.61 475.07 574.53 469.52 583.33 471.97 593.48 472.84 596.02 482 602.78 488.13 614.08 483 617.46 472.28 618.93 456.58 622.26 450.14 626.46 448.66 630.8 451.33 633.73 459.94 633.83 466.34 640.27 468.7 643.42 472.28 653.96 470.22 657.75 474.32 Z" id="정선군"/>
<path d="M 274.61 135.7 265.66 147.02 257.36 145.35 246.97 145.39 244.4 149.78 237.66 144.99 220.48 149.19 210.67 162.71 202.43 160.43 199.27 155.77 190.97 157.57 183.64 155.8 176.77 146.59 172.1 149.6 173.27 156.34 163.78 162.4 159.84 169.66 154.41 170.37 154.15 176.61 147.91 183.77 142.35 184.42 140.84 195.75 136.12 202.07 140.34 206.8 137.72 213.65 133.31 217.35 128.03 217.11 123.25 220.51 118.89 217.46 115.12 221.42 109.49 227.25 104.69 222.12 96.99 220.05 92.56 225.13 83.25 227.83 82.66 232.56 76.75 230.51 73.52 221.12 64.78 221.67 60.79 211.91 64.84 204.88 65.76 197.45 63.73 191.51 57.76 192.67 54.26 200.28 43.88 206.71 42.37 211.54 31.51 201.66 27.96 189.98 24.17 184.66 26.1 181.42 21.2 175.76 22.03 166.83 17.03 165.1 10.82 169.31 3.65 165.39 3.4 152.1 1 145.17 3.93 141.49 9.79 139.83 13.78 132.57 19.41 137.86 40.96 130.34 48.92 125.35 53.74 127.92 65.45 128.45 71.97 132.12 79.64 131.72 86.26 127.16 91.32 129.19 98.07 123.42 114.15 128.01 119.93 132.36 131.09 132.91 132.97 136.86 138.45 140.03 144.45 138.14 156.69 128.08 166.48 123.77 177.32 123.6 180.92 128.83 205.99 128.55 209.71 123.78 214.53 126.75 220.73 122.74 226.74 124.78 234.07 123.26 238.67 118.97 242.86 129.51 250.46 136.24 255.32 137.25 261.07 133.34 269.86 132.13 274.61 135.7 Z" id="철원군"/>
<path d="M 280.05 249.74 280.58 258.69 292.54 265.76 298.51 254.92 309.02 260.09 308.5 267.41 311.84 271.22 318.66 263.51 324.49 265.4 319.53 273.38 308.49 276.81 308.66 287.97 312.61 297.92 308.63 305.79 308.95 309.98 304.58 316.17 304.92 323.9 299.6 327.77 294.56 339.29 294.98 343.44 288.09 343.49 282.19 338.77 281.65 335.33 272.74 333.67 269.57 343.96 261.4 344.79 252.22 340.39 249.26 345.87 254.18 351.51 253.26 361.33 259.37 364.93 264.25 373.32 260.33 382.86 254.57 386.67 250.32 383.3 242.83 389.3 238.24 386.09 228.74 390.47 225.83 386.3 205.12 397.7 201.79 407.02 194.97 404.87 192.79 411.11 187.88 405.56 183.63 407.21 182.79 412.04 177.25 415.13 178.15 405.61 173.12 403.5 170.67 393.69 165.21 390.49 160.39 392.3 153.46 396.33 141.86 391.08 154.13 380.78 153.72 373.62 147.17 365.64 152.46 356.1 148.35 350.65 149.68 343.21 162.78 334.58 163.39 331.16 169.2 327.1 175.51 327.96 180.37 313.74 178.58 298.62 175.2 292.26 169.36 289.38 155.94 287.21 153.31 272.15 155.01 263.77 161.68 262.68 166.85 254.82 166.24 245.19 161.78 240.72 162.45 235.34 173.19 237.08 177.19 241.92 176.19 245.41 182.57 249.6 192.91 249.33 192.06 260.42 198.62 257.25 209.46 255.46 214 261.74 218.14 261.2 222.54 255.37 233.58 259.79 240.14 274.76 248.87 270.6 253.69 271.84 258.15 266.08 264.53 263.84 261.39 256.15 262.32 251.65 280.05 249.74 Z" id="춘천시"/>
<path d="M 704.01 665.09 695.16 670.58 691.44 680.8 678.93 675.21 664.66 672.63 655.9 675.91 650.97 668.83 643.07 669.68 638.63 680.27 632.05 683.14 626.27 675.96 630.78 670.05 630.3 665.63 624.09 663.04 630.8 655.46 630.32 648.24 634.65 645.53 638.67 644.5 640.64 638.7 638.46 632.13 639.72 616.83 636.83 614.8 639.98 610.78 640.25 604.36 646.32 601.92 643.93 592.13 648.09 586.87 648.7 575.3 658.3 562.39 664.72 561.9 671.35 557.26 672.97 561 667.96 566.45 675.24 575.78 670.2 582.55 674.01 588.46 670.99 593.19 666.81 606.07 670.98 606.07 669.33 613.69 669.9 620.14 675.44 629.72 687.8 634.6 695.07 634.49 695.93 638.98 701.07 639.56 703.62 648.26 701.2 659.25 704.01 665.09 Z" id="태백시"/>
<path d="M 424.56 402.29 428.44 408.06 441.23 403.83 447.17 407.25 460.79 408.67 467.71 406.66 470.73 402.94 471 395.46 475.46 389.6 482.77 387.82 498.07 389.85 499.67 379.62 498.51 374.69 504.9 363.87 505.28 358.61 509.66 354.48 514.12 355.29 518.83 349.11 524.94 354.59 525.59 366.73 528.82 373.37 533.44 371.82 537.35 366.61 550.02 372.82 552.94 370.12 563.36 372.13 569.24 380.25 575.75 383.73 577.33 395.79 583.64 413.63 577.41 416.82 572.64 422.08 571.03 429.53 573.62 433.57 573.98 441.94 569.22 441.31 566.97 449.26 555.58 449.2 553.96 459.82 550.87 465.29 542.14 467.36 535.81 465.9 535.22 458.82 531.6 457.6 522.58 464.43 518.46 486.2 511.33 496.04 513.87 508.24 509.94 510.45 499.9 507.41 496.21 511.2 498.35 520.3 493.96 527.52 496.71 533.72 505.53 535.58 510.75 548.53 511.81 556.2 515.43 559.49 517.24 567.75 521.38 574.61 520.42 580.01 526.38 587.06 519.28 593.48 512.26 584.62 505.05 586.75 492.68 584.49 491.26 578.38 479.8 576.94 479.13 569.22 475.48 564.17 461.75 562.67 458.56 570.89 460.01 582.61 456 581.33 450.94 585.06 444.33 580.76 441.99 576.47 430.26 570.92 429.16 559.45 427.46 557.29 431.01 546.73 422.37 541.35 419.33 535.83 409.13 532.63 406.89 528.92 406.31 519.54 403.09 518.28 401.15 501.21 408.64 498.63 412.78 491.04 420.05 486.87 421.61 475.31 418.63 472.22 418.59 462.01 413.33 451.56 414.77 439.58 404.27 435.95 411.65 430.2 412.09 417.55 421.79 407.61 424.56 402.29 Z" id="평창군"/>
<path d="M 482.99 317.86 490.75 320.28 494 323.46 503.43 318.46 512.98 325.21 515.47 330.04 520.48 331.13 518.36 341.89 518.83 349.11 514.12 355.29 509.66 354.48 505.28 358.61 504.9 363.87 498.51 374.69 499.67 379.62 498.07 389.85 482.77 387.82 475.46 389.6 471 395.46 470.73 402.94 467.71 406.66 460.79 408.67 447.17 407.25 441.23 403.83 428.44 408.06 424.56 402.29 421.79 407.61 412.09 417.55 411.65 430.2 404.27 435.95 397.93 436.95 390.16 428.24 385.1 425.36 380.26 426.3 373.26 422.09 368.22 421.67 362.65 412.94 356.63 413.66 354.47 419.74 348.67 425.12 342.95 426.75 337.74 432.86 326.01 438.76 322.16 442.78 319.33 437.02 307.77 434.61 300.72 437.39 297.95 443.81 291.62 444.42 282.62 449.49 278.23 449.56 277.82 455.41 270.34 465.56 261.8 469.95 256.24 465.88 249.84 464.76 243.91 456.02 239.38 458.62 233.09 456.63 228.7 452.49 223.35 454.5 217.81 453.16 212.74 454.99 209.97 450.75 198.24 441.43 191.9 438.18 184.21 430.29 175.26 426.32 167.7 434.34 159.21 435.86 152.69 430.78 157.92 421.92 157.15 410.65 160.39 392.3 165.21 390.49 170.67 393.69 173.12 403.5 178.15 405.61 177.25 415.13 182.79 412.04 183.63 407.21 187.88 405.56 192.79 411.11 194.97 404.87 201.79 407.02 205.12 397.7 225.83 386.3 228.74 390.47 238.24 386.09 242.83 389.3 250.32 383.3 254.57 386.67 260.33 382.86 264.25 373.32 259.37 364.93 253.26 361.33 254.18 351.51 249.26 345.87 252.22 340.39 261.4 344.79 269.57 343.96 272.74 333.67 281.65 335.33 282.19 338.77 288.09 343.49 294.98 343.44 294.56 339.29 299.6 327.77 304.92 323.9 304.58 316.17 308.95 309.98 308.63 305.79 312.61 297.92 318.77 299.15 323.44 295.95 328.28 303.96 336.94 311.23 346.38 316.67 351.52 315.86 365.18 318.95 370.73 317.91 375.47 322.39 373.67 328.21 373.63 337.27 377.68 344.42 385.24 352.66 389.76 354.34 396.86 349.95 404.29 342.18 406.07 334.76 417.24 328.75 421.4 334.09 421.82 339.13 426.76 345.93 429.63 344.5 436.64 347.63 442.53 344.53 442.82 338.56 451.27 333.27 462.07 322.55 465.7 329.66 480.91 321.29 482.99 317.86 Z" id="홍천군"/>
<path d="M 265.66 147.02 262.65 157.73 264.15 168.73 262.28 170.53 261.99 179.88 267.4 181.47 272.35 197.25 269.81 210.64 270.68 219.51 273.69 223.6 274.94 230.8 279.43 231.95 280.6 241.11 283.87 246.22 280.05 249.74 262.32 251.65 261.39 256.15 264.53 263.84 258.15 266.08 253.69 271.84 248.87 270.6 240.14 274.76 233.58 259.79 222.54 255.37 218.14 261.2 214 261.74 209.46 255.46 198.62 257.25 192.06 260.42 192.91 249.33 182.57 249.6 176.19 245.41 177.19 241.92 173.19 237.08 162.45 235.34 161.78 240.72 166.24 245.19 166.85 254.82 161.68 262.68 155.01 263.77 153.31 272.15 140.74 273.3 138.46 270.76 129.69 269.62 124.52 264.89 120.01 247.1 120.88 236.73 118.58 224.31 115.12 221.42 118.89 217.46 123.25 220.51 128.03 217.11 133.31 217.35 137.72 213.65 140.34 206.8 136.12 202.07 140.84 195.75 142.35 184.42 147.91 183.77 154.15 176.61 154.41 170.37 159.84 169.66 163.78 162.4 173.27 156.34 172.1 149.6 176.77 146.59 183.64 155.8 190.97 157.57 199.27 155.77 202.43 160.43 210.67 162.71 220.48 149.19 237.66 144.99 244.4 149.78 246.97 145.39 257.36 145.35 265.66 147.02 Z" id="화천군"/>
<path d="M 404.27 435.95 414.77 439.58 413.33 451.56 418.59 462.01 418.63 472.22 421.61 475.31 420.05 486.87 412.78 491.04 408.64 498.63 401.15 501.21 403.09 518.28 406.31 519.54 406.89 528.92 409.13 532.63 405.07 539.38 398.88 541.77 393.26 539.05 381.68 539.75 378.42 546.97 381.53 562.45 374.88 564.19 376.74 569.64 361.43 568.31 356.34 574.01 357.48 578.98 354.15 581.48 334.15 577.33 327.63 566.75 329.23 557.21 333.18 551.91 341.29 551.24 343.37 536.84 349.91 533.98 345.11 525.91 337.86 521 336.24 516.94 321.26 516.7 316.38 511.88 307.18 511.25 304.26 514.13 297.34 511.29 291.6 497.15 294.12 492.41 290.4 489.89 283.71 498.79 282.36 504.78 272.12 507.63 268.16 516.47 267.59 526.02 270.19 530.28 269.07 537.37 263.09 533.17 259.15 522.3 252.02 516.69 245.21 520.22 243.7 509.44 245.35 506.35 239.65 502.54 238 498.15 230.9 496.3 230.84 491.71 236.1 490.2 247.19 479.34 248.45 476.29 259.69 475.88 261.8 469.95 270.34 465.56 277.82 455.41 278.23 449.56 282.62 449.49 291.62 444.42 297.95 443.81 300.72 437.39 307.77 434.61 319.33 437.02 322.16 442.78 326.01 438.76 337.74 432.86 342.95 426.75 348.67 425.12 354.47 419.74 356.63 413.66 362.65 412.94 368.22 421.67 373.26 422.09 380.26 426.3 385.1 425.36 390.16 428.24 397.93 436.95 404.27 435.95 Z" id="횡성군"/>
</g>
</svg>