<?xml version="1.0"?>
<svg xmlns="http://www.w3.org/2000/svg" version="1.2" baseProfile="tiny" width="800" height="694" viewBox="0 0 800 694" stroke-linecap="round" stroke-linejoin="round">
<g id="강원도_시군구_경계">
<path d="M 621.92 338.89 685.57 411 692.93 442.04 683.58 467.92 657.75 474.03 618.93 456.29 614.08 482.7 553.96 459.54 566.97 448.98 572.64 421.82 583.64 413.38 575.75 383.49 563.36 371.9 537.35 366.38 518.83 348.89 520.48 330.92 539.54 316.19 597.89 305.42 621.92 338.89 Z" id="강릉시"/>
<path d="M 517.49 168.13 487.76 181.07 467.91 180.61 466.45 164.98 441.08 164.06 424.22 151.64 422.02 125.02 391.9 99.2 411.68 78.02 421.69 44.76 420.38 10.63 437.16 1 452.27 21.35 470.94 77.14 491.69 107.54 508.74 156.22 517.49 168.13 Z" id="고성군"/>
<path d="M 705.98 452.09 710.53 479.73 723.78 498.54 715.31 508.46 684.63 507.5 669.43 521.07 652.8 512.57 662.18 501.92 657.75 474.03 683.58 467.92 692.93 442.04 705.98 452.09 Z" id="동해시"/>
<path d="M 723.78 498.54 737.6 524.76 757.65 540.87 764.16 566.1 785.28 585.11 791.72 642.91 766.01 656.49 739.55 690.42 704.01 664.68 701.07 639.16 669.9 619.75 675.24 575.42 648.7 574.94 636.83 614.42 614.3 558.32 622.49 533.48 652.8 512.57 669.43 521.07 684.63 507.5 715.31 508.46 723.78 498.54 Z" id="삼척시"/>
<path d="M 517.49 168.13 526.15 198.71 476.16 217.85 460.64 192.62 467.91 180.61 487.76 181.07 517.49 168.13 Z" id="속초시"/>
<path d="M 324.49 265.24 280.05 249.59 261.99 179.76 265.66 146.93 274.61 135.62 343.83 131.33 372.84 131.98 369.65 155.73 356.9 165.14 343.94 204.38 345.04 230.67 355.33 250.51 324.49 265.24 Z" id="양구군"/>
<path d="M 567.67 258.91 597.89 305.42 539.54 316.19 520.48 330.92 503.43 318.27 482.99 317.66 476.54 298.89 493.46 268.22 486.46 248.92 458.95 243.01 455.1 228.28 476.16 217.85 526.15 198.71 550 239.44 567.67 258.91 Z" id="양양군"/>
<path d="M 519.28 593.11 520.52 614.34 544.62 630.99 580.6 617.23 634.65 645.13 626.27 675.54 638.63 679.84 626.51 690.43 609.91 675.78 590.11 672.06 564.47 693 538.72 678.16 498.22 666 471.14 663.01 452.1 642.48 421.73 653.28 410.88 620.82 389.33 602.93 354.15 581.12 381.53 562.1 381.68 539.41 409.13 532.3 431.01 546.39 430.26 570.57 450.94 584.69 461.75 562.32 475.48 563.82 492.68 584.12 519.28 593.11 Z" id="영월군"/>
<path d="M 354.15 581.12 389.33 602.93 370.67 617.7 329.23 629.61 322.74 605.31 310.79 599.31 288.3 614.03 292.65 635.75 241.76 650.24 229.87 638.16 226.56 607.66 233.83 579.86 230.86 551.44 245.21 519.9 267.59 525.7 272.12 507.32 336.24 516.62 349.91 533.65 327.63 566.4 354.15 581.12 Z" id="원주시"/>
<path d="M 467.91 180.61 460.64 192.62 476.16 217.85 455.1 228.28 458.95 243.01 486.46 248.92 493.46 268.22 476.54 298.89 482.99 317.66 462.07 322.35 436.64 347.41 417.24 328.55 389.76 354.12 373.63 337.07 375.47 322.19 346.38 316.48 312.61 297.73 308.49 276.64 324.49 265.24 355.33 250.51 345.04 230.67 343.94 204.38 356.9 165.14 369.65 155.73 372.84 131.98 343.83 131.33 391.9 99.2 422.02 125.02 424.22 151.64 441.08 164.06 466.45 164.98 467.91 180.61 Z" id="인제군"/>
<path d="M 657.75 474.03 662.18 501.92 652.8 512.57 622.49 533.48 614.3 558.32 636.83 614.42 634.65 645.13 580.6 617.23 544.62 630.99 520.52 614.34 519.28 593.11 526.38 586.7 505.53 535.25 499.9 507.09 518.46 485.9 522.58 464.14 553.96 459.54 614.08 482.7 618.93 456.29 657.75 474.03 Z" id="정선군"/>
<path d="M 274.61 135.62 265.66 146.93 237.66 144.9 199.27 155.68 173.27 156.24 147.91 183.65 133.31 217.21 115.12 221.29 76.75 230.37 64.78 221.53 63.73 191.39 43.88 206.58 31.51 201.53 22.03 166.72 3.65 165.29 1 145.08 48.92 125.27 79.64 131.64 98.07 123.35 138.45 139.95 166.48 123.7 180.92 128.75 234.07 123.19 250.46 136.15 274.61 135.62 Z" id="철원군"/>
<path d="M 280.05 249.59 324.49 265.24 308.49 276.64 312.61 297.73 294.56 339.08 272.74 333.46 252.22 340.18 260.33 382.62 225.83 386.06 201.79 406.76 173.12 403.25 160.39 392.06 147.17 365.41 149.68 342.99 180.37 313.55 178.58 298.43 155.94 287.04 153.31 271.98 173.19 236.94 192.06 260.26 233.58 259.63 240.14 274.59 280.05 249.59 Z" id="춘천시"/>
<path d="M 704.01 664.68 691.44 680.37 643.07 669.27 638.63 679.84 626.27 675.54 634.65 645.13 636.83 614.42 648.7 574.94 675.24 575.42 669.9 619.75 701.07 639.16 704.01 664.68 Z" id="태백시"/>
<path d="M 424.56 402.04 460.79 408.42 475.46 389.36 498.07 389.61 505.28 358.39 518.83 348.89 537.35 366.38 563.36 371.9 575.75 383.49 583.64 413.38 572.64 421.82 566.97 448.98 553.96 459.54 522.58 464.14 518.46 485.9 499.9 507.09 505.53 535.25 526.38 586.7 519.28 593.11 492.68 584.12 475.48 563.82 461.75 562.32 450.94 584.69 430.26 570.57 431.01 546.39 409.13 532.3 401.15 500.9 421.61 475.01 404.27 435.68 424.56 402.04 Z" id="평창군"/>
<path d="M 482.99 317.66 503.43 318.27 520.48 330.92 518.83 348.89 505.28 358.39 498.07 389.61 475.46 389.36 460.79 408.42 424.56 402.04 404.27 435.68 368.22 421.41 362.65 412.68 326.01 438.49 307.77 434.34 261.8 469.66 228.7 452.21 209.97 450.47 175.26 426.06 157.92 421.66 160.39 392.06 173.12 403.25 201.79 406.76 225.83 386.06 260.33 382.62 252.22 340.18 272.74 333.46 294.56 339.08 312.61 297.73 346.38 316.48 375.47 322.19 373.63 337.07 389.76 354.12 417.24 328.55 436.64 347.41 462.07 322.35 482.99 317.66 Z" id="홍천군"/>
<path d="M 265.66 146.93 261.99 179.76 280.05 249.59 240.14 274.59 233.58 259.63 192.06 260.26 173.19 236.94 153.31 271.98 124.52 264.73 115.12 221.29 133.31 217.21 147.91 183.65 173.27 156.24 199.27 155.68 237.66 144.9 265.66 146.93 Z" id="화천군"/>
<path d="M 404.27 435.68 421.61 475.01 401.15 500.9 409.13 532.3 381.68 539.41 381.53 562.1 354.15 581.12 327.63 566.4 349.91 533.65 336.24 516.62 272.12 507.32 267.59 525.7 245.21 519.9 238 497.84 261.8 469.66 307.77 434.34 326.01 438.49 362.65 412.68 368.22 421.41 404.27 435.68 Z" id="횡성군"/>
</g>
</svg>