<?xml version="1.0"?>
<svg xmlns="http://www.w3.org/2000/svg" version="1.2" baseProfile="tiny" width="800" height="943" viewBox="0 0 800 943" stroke-linecap="round" stroke-linejoin="round">
<g id="경기도_시군구_경계">
<path d="M 642.12 446.89 643.31 474.76 595.12 481.66 594.39 452.33 569.23 421.58 540.81 433.92 539.99 433.77 544.55 415.75 512.58 352.88 483.59 343.43 495.08 282.51 514.03 281.05 517.22 246.54 547.48 232.02 547.66 205.36 562.79 194.8 580.85 158.37 586.94 181.74 611.99 194.73 631.76 193.57 635.48 216.23 670.46 233.85 673.23 257.21 625.81 302.73 621.93 337.39 643.39 384.29 638.54 424.35 642.12 446.89 Z" id="가평군"/>
<path d="M 316.38 445.26 290.86 435.11 283.77 472.26 258.7 483.03 231.12 461.51 207.87 444.5 226.91 444.91 256.8 403.41 250.27 378.09 286 377.5 300.42 364.07 290.39 418.47 320.09 403 334.37 411.26 329.87 440.78 316.38 445.26 Z" id="고양시 덕양구"/>
<path d="M 250.27 378.09 256.8 403.41 226.91 444.91 207.87 444.5 193.28 432.22 217.87 411.13 215.8 393.93 226.22 379.75 250.27 378.09 Z" id="고양시 일산동구"/>
<path d="M 215.8 393.93 217.87 411.13 193.28 432.22 163.84 415.59 161.83 395.92 215.8 393.93 Z" id="고양시 일산서구"/>
<path d="M 363.49 581.31 360.56 591.65 327.99 601.62 318.04 574.19 339.32 556.33 363.49 581.31 Z" id="과천시"/>
<path d="M 282.75 575.4 270.57 600.42 253.99 593.2 243.18 560.95 247.05 548.85 268.16 543.71 282.75 575.4 Z" id="광명시"/>
<path d="M 555.58 588.21 578.54 631.27 522.89 678.76 521.88 691.13 490.77 692.35 481.71 641.9 461.58 631.32 414.9 645.74 412.51 643.62 432.47 598.62 444.32 572.84 435.11 551.5 470.98 550.29 493.35 524.65 504.81 521.18 535.92 513.62 549.36 551.05 540.42 572.12 555.58 588.21 Z" id="광주시"/>
<path d="M 430.93 478.99 429.86 480.37 395.18 495.65 402.44 462.79 398.86 437 414.01 434.66 430.93 478.99 Z" id="구리시"/>
<path d="M 305.76 616.52 316.78 628.21 299.22 665.24 270.8 656.63 280.98 629.46 305.76 616.52 Z" id="군포시"/>
<path d="M 156.18 340.99 165.46 374.53 161.83 395.92 163.84 415.59 193.28 432.22 207.87 444.5 231.12 461.51 226.05 475.48 189.16 470.17 172.49 450.6 149.27 438.83 136.2 459.79 107.32 471.83 84.31 425.99 79.31 385.49 84.48 361.26 156.18 340.99 Z" id="김포시"/>
<path d="M 539.99 433.77 540.13 433.78 540.12 433.88 504.81 521.18 493.35 524.65 467.55 502.85 448.09 473.53 430.93 478.99 414.01 434.66 398.86 437 382.66 400.23 405.87 382.16 418.11 359.86 439.34 353.79 460.89 361.4 483.59 343.43 512.58 352.88 544.55 415.75 539.99 433.77 Z" id="남양주시"/>
<path d="M 388.98 212.22 391.17 230.91 418.13 253.03 418.78 277.46 398.18 288.19 372.04 282.01 350.99 261.85 344.77 241.63 368.51 205.92 388.98 212.22 Z" id="동두천시"/>
<path d="M 247.05 548.85 243.18 560.95 217.18 552.35 197.79 541.88 213.94 500.07 241.41 505.52 247.05 548.85 Z" id="부천시"/>
<path d="M 432.47 598.62 412.51 643.62 396.84 646.26 352.7 621.35 361.15 599.6 383.06 604.36 402.55 591.75 432.47 598.62 Z" id="성남시 분당구"/>
<path d="M 433.4 553.44 402.55 591.75 383.06 604.36 361.15 599.6 360.56 591.65 363.49 581.31 415.94 552.03 433.4 553.44 Z" id="성남시 수정구"/>
<path d="M 432.47 598.62 402.55 591.75 433.4 553.44 435.11 551.5 444.32 572.84 432.47 598.62 Z" id="성남시 중원구"/>
<path d="M 315.87 668.67 325.4 679.44 357.08 700.16 357.44 712.44 348.27 721.27 319.6 715.04 297.49 684.62 300.67 668.1 315.87 668.67 Z" id="수원시 권선구"/>
<path d="M 386.1 671.81 374.46 686.91 374 688.06 373.53 711.39 362.47 716.33 360.9 713.64 357.44 712.44 357.08 700.16 355.79 675.01 358.95 656.2 386.1 671.81 Z" id="수원시 영통구"/>
<path d="M 358.95 656.2 355.79 675.01 325.4 679.44 315.87 668.67 347.33 635.66 358.95 656.2 Z" id="수원시 장안구"/>
<path d="M 357.08 700.16 325.4 679.44 355.79 675.01 357.08 700.16 Z" id="수원시 팔달구"/>
<path d="M 243.18 560.95 253.99 593.2 270.57 600.42 272.85 617.15 251.08 627 207.01 641.52 183.25 663.69 158.23 649.38 128.02 659.45 127.06 658.98 166.16 646.02 212.05 582.54 217.18 552.35 243.18 560.95 Z" id="시흥시"/>
<path d="M 111.19 674.86 124.32 682.89 139.01 698.7 124.61 713.91 88.28 732.64 97.45 707.97 91.9 685.57 127.06 658.98 128.02 659.45 111.19 674.86 Z M 251.08 627 251.02 665.3 237.32 671.09 210.49 674.66 183.25 663.69 207.01 641.52 251.08 627 Z" fill-rule="evenodd" id="안산시 단원구"/>
<path d="M 272.85 617.15 280.98 629.46 270.8 656.63 299.22 665.24 300.67 668.1 297.49 684.62 283.17 675.92 262.48 687.61 251.96 692.06 251.53 691.89 237.32 671.09 251.02 665.3 251.08 627 272.85 617.15 Z" id="안산시 상록구"/>
<path d="M 570.23 775.65 609.3 791.78 618.95 820.14 602.76 838.69 570.91 874.33 551.96 876.92 548.13 900.06 505.21 923.93 498.81 941.27 469.6 931.89 446.71 908.55 401.88 895.67 419.81 856.52 404.13 813.8 443.11 814.64 451.25 802.04 493.47 785.39 506.33 803.87 550.01 802.17 570.23 775.65 Z" id="안성시"/>
<path d="M 327.99 601.62 316.78 628.21 305.76 616.52 296.96 594.7 309.51 575.61 318.04 574.19 327.99 601.62 Z" id="안양시 동안구"/>
<path d="M 309.51 575.61 296.96 594.7 305.76 616.52 280.98 629.46 272.85 617.15 270.57 600.42 282.75 575.4 309.51 575.61 Z" id="안양시 만안구"/>
<path d="M 344.77 241.63 350.99 261.85 372.04 282.01 398.18 288.19 405.3 312.05 396.27 342.82 371.58 355.15 340.19 359.74 347.05 396.43 334.37 411.26 320.09 403 290.39 418.47 300.42 364.07 303.87 346.97 286.78 335.16 291.75 301.22 310.2 282.71 310.25 261.05 324.7 232.06 344.77 241.63 Z" id="양주시"/>
<path d="M 540.13 433.8 539.99 433.77 540.13 433.78 540.13 433.8 Z M 540.13 433.8 540.81 433.92 569.23 421.58 594.39 452.33 595.12 481.66 643.31 474.76 642.12 446.89 665.34 431.15 718.96 468.89 747.9 471.58 799 498.46 776.48 513.06 762.27 542.12 772.81 575.78 751.3 625.14 719.51 620.45 723.62 596.03 664.4 588.36 629.81 594.86 613.6 575.27 595.69 587.57 567.86 575.92 555.58 588.21 540.42 572.12 549.36 551.05 535.92 513.62 504.81 521.18 540.12 433.88 540.13 433.8 Z" fill-rule="evenodd" id="양평군"/>
<path d="M 751.3 625.14 755.83 668.92 745.9 724.2 712.93 783.24 679.98 769.82 662.12 746.23 626.19 757.87 625.62 688.76 635.05 664.29 593.8 629 578.54 631.27 555.58 588.21 567.86 575.92 595.69 587.57 613.6 575.27 629.81 594.86 664.4 588.36 723.62 596.03 719.51 620.45 751.3 625.14 Z" id="여주시"/>
<path d="M 437.75 65.99 433.58 110.98 442.55 147.02 414.61 147.6 400.37 158 419.36 195.14 388.98 212.22 368.51 205.92 344.77 241.63 324.7 232.06 348.97 201.56 324.8 187.39 306.3 205.48 283.37 195.76 260.19 201.68 242.73 221.04 226.34 199.97 253.9 169.61 269.33 137.49 263.35 125.95 288.9 98.19 322.22 97.59 329.24 40.66 391.95 1 400.18 28 427.3 44.02 437.75 65.99 Z" id="연천군"/>
<path d="M 392.97 777.21 376.51 789.79 356.15 782.08 341.09 743.61 372.03 739.44 375.7 760.5 392.97 777.21 Z" id="오산시"/>
<path d="M 419.2 725.35 385.1 727.53 373.53 711.39 374 688.06 374.46 686.91 386.1 671.81 412.29 654.21 428.62 669.23 432.77 699.05 419.2 725.35 Z" id="용인시 기흥구"/>
<path d="M 412.51 643.62 414.9 645.74 412.29 654.21 386.1 671.81 358.95 656.2 347.33 635.66 352.7 621.35 396.84 646.26 412.51 643.62 Z" id="용인시 수지구"/>
<path d="M 521.88 691.13 517.1 724.22 562.37 754.45 570.23 775.65 550.01 802.17 506.33 803.87 493.47 785.39 451.25 802.04 443.11 814.64 404.13 813.8 396.36 794.87 403.85 776.83 424.54 752.76 419.2 725.35 432.77 699.05 428.62 669.23 412.29 654.21 414.9 645.74 461.58 631.32 481.71 641.9 490.77 692.35 521.88 691.13 Z" id="용인시 처인구"/>
<path d="M 361.15 599.6 352.7 621.35 347.33 635.66 315.87 668.67 300.67 668.1 299.22 665.24 316.78 628.21 327.99 601.62 360.56 591.65 361.15 599.6 Z" id="의왕시"/>
<path d="M 418.11 359.86 405.87 382.16 382.66 400.23 347.05 396.43 340.19 359.74 371.58 355.15 396.27 342.82 418.11 359.86 Z" id="의정부시"/>
<path d="M 679.98 769.82 681.94 809.95 627.82 838.17 602.76 838.69 618.95 820.14 609.3 791.78 570.23 775.65 562.37 754.45 517.1 724.22 521.88 691.13 522.89 678.76 578.54 631.27 593.8 629 635.05 664.29 625.62 688.76 626.19 757.87 662.12 746.23 679.98 769.82 Z" id="이천시"/>
<path d="M 324.7 232.06 310.25 261.05 310.2 282.71 291.75 301.22 286.78 335.16 303.87 346.97 300.42 364.07 286 377.5 250.27 378.09 226.22 379.75 215.8 393.93 161.83 395.92 165.46 374.53 156.18 340.99 172.69 281.2 162.01 267.28 161.77 221.94 226.34 199.97 242.73 221.04 260.19 201.68 283.37 195.76 306.3 205.48 324.8 187.39 348.97 201.56 324.7 232.06 Z" id="파주시"/>
<path d="M 403.85 776.83 396.36 794.87 404.13 813.8 419.81 856.52 401.88 895.67 386.3 913.96 350.03 923.83 327.99 921.16 286.28 942 282.76 925.53 253.57 911.16 225.44 864.78 256.76 859.84 272.8 829.04 305.11 833.39 332.28 824.5 337.39 787.77 356.15 782.08 376.51 789.79 392.97 777.21 403.85 776.83 Z" id="평택시"/>
<path d="M 580.85 158.37 562.79 194.8 547.66 205.36 547.48 232.02 517.22 246.54 514.03 281.05 495.08 282.51 483.59 343.43 460.89 361.4 439.34 353.79 418.11 359.86 396.27 342.82 405.3 312.05 398.18 288.19 418.78 277.46 418.13 253.03 391.17 230.91 388.98 212.22 419.36 195.14 400.37 158 414.61 147.6 442.55 147.02 433.58 110.98 437.75 65.99 443.22 84.04 462.34 91.84 493.02 68.36 494.63 114.96 513.13 128.62 544.41 112.46 577.75 119.04 580.85 158.37 Z" id="포천시"/>
<path d="M 493.35 524.65 470.98 550.29 435.11 551.5 433.4 553.44 415.94 552.03 414.12 528.41 429.86 480.37 430.93 478.99 448.09 473.53 467.55 502.85 493.35 524.65 Z" id="하남시"/>
<path d="M 195.49 848.26 203.24 836.41 164.66 798.22 149.81 768.77 151.52 725.61 145.13 708.21 152.32 677.82 230.73 674.01 251.53 691.89 251.96 692.06 262.48 687.61 283.17 675.92 297.49 684.62 319.6 715.04 348.27 721.27 357.44 712.44 360.9 713.64 362.47 716.33 373.53 711.39 385.1 727.53 419.2 725.35 424.54 752.76 403.85 776.83 392.97 777.21 375.7 760.5 372.03 739.44 341.09 743.61 356.15 782.08 337.39 787.77 332.28 824.5 305.11 833.39 272.8 829.04 256.76 859.84 225.44 864.78 195.49 848.26 Z M 211.06 830.37 204.42 798.22 231.23 779.81 215.2 761.6 198.64 759.85 188.6 780.87 164.97 797.75 203.3 836.03 211.06 830.37 Z" fill-rule="evenodd" id="화성시"/>
</g>
</svg>