<?xml version="1.0"?>
<svg xmlns="http://www.w3.org/2000/svg" version="1.2" baseProfile="tiny" width="800" height="503" viewBox="0 0 800 503" stroke-linecap="round" stroke-linejoin="round">
<g id="경상북도_시군구_경계">
<path d="M 229.32 434.95 221.67 453.68 216.22 456.6 193.05 458.22 188.13 464.71 173.71 458.49 171.32 446.99 186.68 427.97 182.02 412.65 181.22 396.55 191.72 397.63 206.53 406.12 206.77 424.45 216.5 435.26 229.32 434.95 Z" id="경산시"/>
<path d="M 332.12 468.55 326.98 479 307.35 472.4 297.03 480.31 288.54 478.78 288.92 469.78 272.43 462 252.59 468.78 245.46 480.58 230.16 459.27 230.39 450.76 238.3 432.17 240.46 417.54 247.97 408.44 258.2 403.2 264.9 380 275.52 382.67 283.65 375.46 292.04 377.57 290.28 386.03 301.08 408.31 302.33 417.71 310.24 427.31 339.67 431.41 334.74 445.08 332.12 468.55 Z" id="경주시"/>
<path d="M 66.55 451.19 75.75 441.52 81.61 449.81 88.72 439.17 107.3 446.86 111.4 432.46 124.22 433.49 110.98 455.08 120.83 463.54 116.94 470.95 105.84 474.44 114.59 483.44 112.29 490.31 95.54 481.15 74.37 484.23 71.76 457.46 66.55 451.19 Z" id="고령군"/>
<path d="M 90.45 309.91 106.12 311.81 115.21 324.35 116.76 334.59 132.05 345.63 144.89 351.32 146.28 367.69 131.63 366.32 122.87 376.16 112.86 373.39 105.49 380.42 99.61 373.04 91.85 373.95 92.32 354.07 80.41 340.14 60.35 332.29 60.92 324.98 78.75 320.7 84.55 305.95 90.45 309.91 Z" id="구미시"/>
<path d="M 210.41 345.24 212.88 351.46 211.95 359.08 193.78 373.51 182.78 369.43 176.8 376.17 173.27 390.92 162.23 392.45 160.46 378.51 146.28 367.69 144.89 351.32 132.05 345.63 116.76 334.59 115.21 324.35 123.38 314.35 132.38 320.14 161.49 331.22 165.45 340.13 175.32 345.67 202.41 341.1 210.41 345.24 Z" id="군위군"/>
<path d="M 91.85 373.95 91.48 384.9 78.18 382.16 66.81 388.53 63.67 404.32 55.8 404.78 42.69 412.84 49.02 435.82 35.8 438.55 11.87 424.31 14.35 410.96 8.36 390.63 25.24 378.75 26.06 368.21 32.24 357.91 28.01 349.64 42.06 333.6 54.74 337.23 60.35 332.29 80.41 340.14 92.32 354.07 91.85 373.95 Z" id="김천시"/>
<path d="M 105.62 196.77 103.96 212.02 98.58 213.47 96.24 235.64 85.12 245.83 91.89 258.52 86.13 262.96 75.93 262.13 76.45 254.49 56.33 241.82 43.92 250.91 42.9 260.74 28.21 261.48 20.45 265.72 17.23 246.97 20.2 234.38 17.66 225.08 23.67 213.82 42.21 220.63 38.69 210.77 43.96 193.68 50.7 196.99 58.03 191.42 75.26 194.44 79.96 179.82 95.08 191.73 105.62 196.77 Z" id="문경시"/>
<path d="M 267.47 135.17 249.17 142.18 246.24 156.87 258.29 163.8 262.21 175.93 251.26 188.54 245.73 190.39 229.99 208.66 222.49 203.14 209.8 202.97 199.7 193.95 180.41 197.02 175.01 189.3 176.76 181.68 159.96 182.53 159.25 175.33 168.52 156.9 172.81 137.19 181.49 133.52 185.46 125.09 196.58 127.18 205.89 135.41 215.19 123.52 242.34 129.76 249.39 120.94 267.47 135.17 Z" id="봉화군"/>
<path d="M 17.23 246.97 20.45 265.72 28.21 261.48 42.9 260.74 43.92 250.91 56.33 241.82 76.45 254.49 75.93 262.13 86.13 262.96 86.14 277.4 95.41 283.02 100.63 295.29 90.45 309.91 84.55 305.95 78.75 320.7 60.92 324.98 60.35 332.29 54.74 337.23 42.06 333.6 35.02 328.69 22.5 332.37 1 319.43 8.96 310.71 7.03 286.97 12.7 266.08 2.95 254.68 7.18 233.86 17.23 246.97 Z" id="상주시"/>
<path d="M 91.48 384.9 96.3 397.4 113.8 420.64 111.4 432.46 107.3 446.86 88.72 439.17 81.61 449.81 75.75 441.52 66.55 451.19 58.58 440.77 49.02 435.82 42.69 412.84 55.8 404.78 63.67 404.32 66.81 388.53 78.18 382.16 91.48 384.9 Z" id="성주군"/>
<path d="M 229.99 208.66 232.32 246.81 227.2 262.23 231.58 270.17 226.66 279.41 229.86 293.18 225.77 310.19 211.33 320.68 207.66 300.93 198.95 282.43 182.18 273.59 174.22 283.82 152.34 293.47 143.02 274.23 132.2 267.88 123.31 273.73 118.28 266.5 130.98 254.18 137.28 239.49 153.08 233.38 150.25 221.38 157.97 216.66 176.18 220.69 180.47 208.87 180.41 197.02 199.7 193.95 209.8 202.97 222.49 203.14 229.99 208.66 Z" id="안동시"/>
<path d="M 316.73 233.02 315.63 249.26 320.6 255.57 320.4 286.84 309.45 310.54 309.11 326.27 291.98 323.82 283.93 313.51 278.25 307.39 278.8 295.08 267.15 285.44 263.18 269.56 277.41 268.43 281.76 253.64 278.6 248.75 278.59 229.26 285.79 226.13 301.84 230.02 308.68 226.89 316.73 233.02 Z" id="영덕군"/>
<path d="M 285.79 226.13 278.59 229.26 278.6 248.75 281.76 253.64 277.41 268.43 263.18 269.56 258.28 261.3 246.13 259.37 238.78 248.18 232.32 246.81 229.99 208.66 245.73 190.39 251.26 188.54 262.21 175.93 280.58 181.92 294.28 199.41 285.99 208.5 289.91 215.8 285.79 226.13 Z" id="영양군"/>
<path d="M 172.81 137.19 168.52 156.9 159.25 175.33 159.96 182.53 176.76 181.68 175.01 189.3 180.41 197.02 180.47 208.87 176.18 220.69 157.97 216.66 150.25 221.38 144.13 206.69 133.22 205.98 121.58 185.08 116.52 178.2 124.08 160.56 141.97 147.95 147.56 136.68 166.1 132.44 172.81 137.19 Z" id="영주시"/>
<path d="M 231.89 352.44 242.96 355.27 248.02 364.72 264.9 380 258.2 403.2 247.97 408.44 240.46 417.54 238.3 432.17 229.32 434.95 216.5 435.26 206.77 424.45 206.53 406.12 191.72 397.63 181.22 396.55 173.27 390.92 176.8 376.17 182.78 369.43 193.78 373.51 211.95 359.08 212.88 351.46 231.89 352.44 Z" id="영천시"/>
<path d="M 150.25 221.38 153.08 233.38 137.28 239.49 130.98 254.18 118.28 266.5 107.72 270.91 101.7 268.2 95.41 283.02 86.14 277.4 86.13 262.96 91.89 258.52 85.12 245.83 96.24 235.64 98.58 213.47 103.96 212.02 105.62 196.77 115.98 194.33 121.58 185.08 133.22 205.98 144.13 206.69 150.25 221.38 Z" id="예천군"/>
<path d="M 606.14 2.02 605.86 18.04 598.67 22.93 586.68 19.22 586.74 7.52 606.14 2.02 Z" id="울릉군"/>
<path d="M 315.06 131.23 312.22 137.03 314.68 171.28 320.76 187.22 327.05 211.89 326.81 219.33 316.73 233.02 308.68 226.89 301.84 230.02 285.79 226.13 289.91 215.8 285.99 208.5 294.28 199.41 280.58 181.92 262.21 175.93 258.29 163.8 246.24 156.87 249.17 142.18 267.47 135.17 284.19 116.34 298.62 108.71 315.06 131.23 Z" id="울진군"/>
<path d="M 118.28 266.5 123.31 273.73 132.2 267.88 143.02 274.23 152.34 293.47 174.22 283.82 182.18 273.59 198.95 282.43 207.66 300.93 211.33 320.68 208.96 326.48 210.41 345.24 202.41 341.1 175.32 345.67 165.45 340.13 161.49 331.22 132.38 320.14 123.38 314.35 115.21 324.35 106.12 311.81 90.45 309.91 100.63 295.29 95.41 283.02 101.7 268.2 107.72 270.91 118.28 266.5 Z" id="의성군"/>
<path d="M 245.46 480.58 232.62 491.15 218.82 483.44 206.63 494.38 187.3 502 167.15 494.82 155.81 499.26 142.42 488.62 140.29 466.53 150.86 459.99 158.89 468.78 171.67 464.02 173.71 458.49 188.13 464.71 193.05 458.22 216.22 456.6 221.67 453.68 229.32 434.95 238.3 432.17 230.39 450.76 230.16 459.27 245.46 480.58 Z" id="청도군"/>
<path d="M 263.18 269.56 267.15 285.44 278.8 295.08 278.25 307.39 283.93 313.51 269.53 337.08 260.31 328.68 242.24 338.91 239.46 348.18 231.89 352.44 212.88 351.46 210.41 345.24 208.96 326.48 211.33 320.68 225.77 310.19 229.86 293.18 226.66 279.41 231.58 270.17 227.2 262.23 232.32 246.81 238.78 248.18 246.13 259.37 258.28 261.3 263.18 269.56 Z" id="청송군"/>
<path d="M 146.28 367.69 160.46 378.51 162.23 392.45 143.34 403.62 135.13 422.85 129.33 411.68 118.96 413.37 113.8 420.64 96.3 397.4 91.48 384.9 91.85 373.95 99.61 373.04 105.49 380.42 112.86 373.39 122.87 376.16 131.63 366.32 146.28 367.69 Z" id="칠곡군"/>
<path d="M 315.28 383.01 324.53 394.58 335.94 385.72 344.48 371.01 349.13 372.68 352.29 387.82 339.51 411.88 339.67 431.41 310.24 427.31 302.33 417.71 301.08 408.31 290.28 386.03 292.04 377.57 300.86 382.38 309.47 380.42 315.28 383.01 Z" id="포항시 남구"/>
<path d="M 317.21 374.67 309.47 380.42 300.86 382.38 292.04 377.57 283.65 375.46 275.52 382.67 264.9 380 248.02 364.72 242.96 355.27 231.89 352.44 239.46 348.18 242.24 338.91 260.31 328.68 269.53 337.08 283.93 313.51 291.98 323.82 309.11 326.27 308.71 341.45 313.59 357.88 322.72 368.4 317.21 374.67 Z" id="포항시 북구"/>
</g>
</svg>