<?xml version="1.0"?>
<svg xmlns="http://www.w3.org/2000/svg" version="1.2" baseProfile="tiny" width="800" height="814" viewBox="0 0 800 814" stroke-linecap="round" stroke-linejoin="round">
<g id="경상남도_시군구_경계">
<path d="M 474.43 649.22 473.27 652.23 470.43 655.05 467 655.17 466.27 649.98 468.41 649.14 470.14 643.65 471.88 642.33 476.02 642.99 476.21 646.67 474.43 649.22 Z M 577.67 639.9 576.29 646.28 573.88 646.21 575.65 640.93 577.67 639.9 Z M 439.77 639.02 443.14 642.24 440.09 644.75 437.8 642.02 435.07 640.78 436.55 636.39 439.77 639.02 Z M 463.35 553.23 468.01 554.48 469.95 556.87 469.98 559.48 462.81 565.16 464.65 569.26 469.16 572.74 468.57 574.94 465.23 574.03 464.7 576.6 467.48 579.43 464.71 581.09 458.66 573.71 458.29 572 461.35 569.99 461.49 563.11 458.3 559.4 460.96 552.87 463.35 553.23 Z M 527.05 531.1 526.69 533.74 523.66 537.54 523.15 541.1 524.25 547.02 522.73 550.27 519.79 551.33 516.04 551.03 511.71 547.67 509.46 553.02 507.21 554.1 505.48 552.12 507.17 550.03 506.51 547.76 510.18 546.99 514.01 541.93 513.16 540.5 508.76 540.72 509.53 538.15 514.79 538.94 517.84 538.46 518.12 536.02 516.11 532.67 519.93 528.67 522.39 530.19 524.1 527.01 526.82 528.06 527.05 531.1 Z M 538.47 664.08 536.7 667.61 534.35 668.14 530.84 671.53 527.58 668.98 523.4 670.52 521.32 675.33 521.31 679.42 526.88 685.7 525.89 688.36 528.41 690.49 535.03 689.27 539.63 689.19 542.4 691.64 537.84 696.84 533.05 692.31 528.38 692.34 527.91 695.36 521.72 694.48 517.26 697.12 516.22 693.78 512.61 697.28 516.01 699.65 517.68 703.84 523.36 706.81 521.13 711.17 515.23 707.65 513.48 708.49 511.97 712.29 508 714.72 503.8 713.97 501.09 711.02 495.4 711.74 491.54 714.3 492.56 707.1 497 705.71 495.78 702.26 500.08 702.01 504.09 700.25 506.38 696.95 505.94 695.17 501.51 694.95 497.96 693.54 495.65 693.88 491.4 691.42 491.93 684.51 493.78 682.66 492.32 679.6 497.93 678.14 502.24 678.6 503.28 676.36 498.65 673.92 501.47 670.81 493.85 671.07 491.82 669.59 486.7 672.41 484.41 676.93 480.7 676.65 479.37 675 479.41 671.05 483.3 669.79 487.1 664.75 482.25 662.75 480.08 666.19 475.53 669.91 473.62 669.62 474.85 665.25 477.91 662.61 484.08 662.35 487.06 660.84 491.37 660.53 494.54 658 495.67 650.45 494.72 646.07 499.46 641.25 494.74 636.66 496.61 629.08 491.34 624.97 488.44 624.71 486.03 629.3 483.7 631.32 484.62 636.44 483.1 637.45 471.58 637.09 470.95 639.57 467.48 636.91 466.1 638.61 467.1 644.21 461.32 652.09 458.63 651.69 457.84 646.73 453.99 643.58 453.96 637.35 444.4 633.31 442.48 628.23 443.77 624.52 440.8 622.25 441.2 616.78 439.57 614.44 441.43 607.46 445.18 604.82 448.18 600.54 448.83 597.43 452.68 596.3 456.05 593.45 460.44 591.96 464.38 585.18 466.61 584.75 470.86 586.48 474.17 591.1 476.99 593.44 482.17 595.49 486.56 598.35 489.14 597.58 490.08 595.16 488.01 592.14 495.54 588.68 496.51 593.53 499.77 593.5 500.28 595.75 504.04 595.16 507.48 596.09 510.12 601.74 514.25 598 510.42 593.39 509.92 589.02 505.56 588.39 507.07 583.64 503.04 582.23 497.68 576.45 497.72 574.53 494.57 571.87 494.48 569.61 497.93 568.11 500.8 565.51 501.52 562.84 500.23 558.41 504.26 555.73 505.6 558.69 505.74 562.78 509.75 559.69 513.3 559.24 517.11 560.82 518.42 559.05 522.06 562.09 524.35 561.38 525.83 549.78 528.05 543.4 530.26 541.19 535.9 538.36 537.74 542.02 539.42 539.52 534.56 533.64 535.64 530.38 535.5 526.59 537.71 523.91 537.37 519.36 541.2 518.34 546.65 519.39 549.54 518.29 555.65 518.62 559.1 523.04 559.46 525.89 558.08 530.18 555.41 533.46 553.52 531.8 550.81 533.74 550.76 536.77 547.18 538.76 547.21 542.67 550.36 542.84 547.48 549.95 549.31 554.59 551.51 554.21 554.03 558.27 557.84 558.39 557.44 562.4 559.65 566.46 563.45 569.22 562.75 574.67 560.1 572.02 557.59 575.21 560 576.89 558.65 579.09 559.05 583.64 561.87 588.69 560.46 590.81 557.22 588.93 557.12 593.11 559.1 595.95 553.9 597.31 552 601.47 548.98 601.88 549.68 605.43 548.95 608.47 553.03 608.88 555.14 610.55 553.3 612.86 555.72 614.78 559.55 609.97 558.82 608.72 562.51 604.06 567.37 602.2 570.19 605.43 569.56 609.52 572.22 615.29 567.08 619 565.15 615.98 562.42 617.73 565.09 621.03 565.59 624.55 567.7 625.69 568.66 628.8 563.19 631.22 561.05 626.81 558.99 626.58 552.39 630.98 552.45 636.67 556.16 639.08 559.03 634.71 563.39 637.09 563.85 639.23 561.56 642.96 561.82 647.5 564.91 649.02 570.8 660.24 569.71 664.17 566.35 660.33 562.74 660.59 556.17 659.02 558.71 655.63 555.83 648.62 553.93 648.37 549.65 651.64 550.82 657.17 545.55 657.34 548.02 652.94 545.63 650.48 538.09 647.78 534.63 649.94 536.05 653.05 534.84 660.49 538.47 664.08 Z" fill-rule="evenodd" id="거제시"/>
<path d="M 249.45 47.47 246.16 52.4 246.57 55.29 241.63 57.7 239.03 62.03 231.55 62.32 229.45 64.71 228.87 68.58 224.1 71.21 222.66 74.06 225.03 77.36 229.19 78.49 231.03 81.02 229.34 84.68 230.5 88.83 227.24 94.16 230.36 96.53 233.05 101.27 235.75 109.15 235.76 110.96 240.24 112.32 241.19 113.94 242.54 121.95 241.95 124.29 246.19 128.18 252.1 130.42 251 134.17 246.03 134.15 243.75 135.88 242.36 140.5 240.96 141.19 238.12 135.3 232.63 136.78 228.1 140.17 227.1 148.48 218.07 153.2 216.29 153.21 214.7 158.7 208.85 162.02 205.99 165.71 207.09 167.96 204.68 171.31 206.68 177.94 198.69 179.29 197.93 183.28 199.99 189.62 197.01 196.36 196.33 199.99 197.25 204.85 194.22 206.14 193.97 209.44 189.63 211.3 184.91 215.12 184.11 217.53 183.95 226.21 187.68 230 186.99 233.2 181.76 232.19 178.05 235.38 170.76 234.55 167.72 232.14 168.35 229.94 162.34 226.99 158.67 223.28 155.07 226.15 151.98 225.43 148.7 228.07 146.36 222.03 147.02 214.15 144.4 213.04 143.07 208.8 145.71 204.21 143.92 200.35 140.47 198.89 136.77 202.94 133.6 197.81 127.89 198.16 126.47 194.85 130.06 192.39 132.28 188.03 135.23 187.12 140.49 179.83 143.92 172.25 143.56 164.6 146.2 161.66 145.14 154.12 146.49 143.61 142.66 142.73 139.32 147.32 139.03 149.56 133.83 150.04 131.93 151.31 128.97 149.19 125.31 148.4 125.19 143.36 121.8 143.32 118.46 140.56 114.7 135.4 110.74 133.68 109.81 128.15 106.99 123.08 101.63 122.5 98.63 118.49 91.58 112.92 90.26 107.37 87.49 105.79 84.06 107.21 80.82 110.99 79.13 110.98 77.08 114.01 68.61 107.22 67.02 104.5 65.43 97.62 62.39 94.8 60.44 91.51 58.78 91.48 52.62 87.68 50.77 85.11 53.36 79.66 60.83 72.85 65.24 71.5 70.05 67.98 72.37 62.89 72.01 60.03 75 58.66 76.34 53.97 79.72 48.74 79.02 45.5 82.1 40.01 86.01 41.79 88.54 44.54 95.79 42.85 98.87 38.3 102.92 35.08 105.08 35.21 111.02 31.47 113.42 33.59 118.3 30.88 118.28 29.17 121.72 25.71 124.7 25.36 129.06 26.93 130.39 25.09 130.55 21.37 133.54 20.15 134.79 17.95 133.36 12.79 136.41 9.85 137.73 2.94 142.96 4.28 147.2 1 149.88 1.13 148.51 4.95 149.78 10.92 154.02 14.64 158.24 12.99 166.08 12.47 168.2 17.09 171.06 18.23 171.09 24.33 173.25 27.85 171.88 32.61 177.63 33.67 181.41 29.43 186.01 30.22 186.82 32.62 192.97 35.07 196.7 31.1 200.88 37.6 203.88 43.57 208.44 45.74 211.3 48.7 214.06 46.56 217.82 46.12 219.98 44.67 224.17 45.59 226.59 47.22 230.57 48.03 231.35 45.97 235.35 45.16 239.29 41.27 246.36 43.71 249.45 47.47 Z" id="거창군"/>
<path d="M 317.68 584.97 314.81 582.71 316.57 579.49 319.55 581.04 317.68 584.97 Z M 377.48 463.79 380.16 468.92 379.07 473.01 382.06 474.52 386.22 474.48 389.09 473.15 393.3 477.14 396.01 477.94 397.94 480.45 399.26 486.91 402.71 489.39 402.77 485.31 408.28 483.95 411.17 484.6 416.71 488.64 415.31 493.67 416.18 496.68 414.36 505.44 408.48 502.44 404.44 504.57 401.18 507.72 390.13 509.68 391.71 515.9 394.26 518.27 390.92 521.25 389.35 524.84 386.9 526.14 387.7 529.28 391.37 529.9 394.74 527.95 397.87 528.93 397.41 524.32 398.46 518.41 401.63 515.95 407.7 513.28 412.09 513.52 416.91 512.3 419.1 510.71 421.36 511.72 425.52 506.62 423.8 503.08 424.71 499.59 428.37 496.49 430.26 497.49 432.43 501.21 436.52 497.99 437.83 494.83 441.39 499.37 441.48 503.57 440.18 506.77 443.15 507.48 441.91 510.65 433.03 509.28 431.96 510.94 439.76 516.66 441.72 513.94 445.32 516.14 443 521.8 447.41 524.68 452.28 526.16 452.2 530.91 447.86 535.31 445.79 531.69 442.73 536.23 443.46 538.92 441.38 542.83 439.02 542.15 437.82 544.42 434.52 545.8 430.36 543.96 421.43 541.87 416.74 542.9 410.46 540.75 406.97 542.43 407.1 545.64 408.73 547.71 412.14 546.7 420.15 547.62 423.69 549.44 424.83 551.99 423.73 555.44 419.16 552.8 414.76 553.42 411.19 558.32 403.7 556.45 403.5 560.29 398.26 562.1 399.25 567.44 394.39 570.43 391.08 571.52 388.47 570.91 383.21 572.81 376.48 576.29 375.22 574.57 374.62 569.85 371.33 571.94 369.51 570.17 368.72 565.72 365.33 564.17 362.54 568 364.21 570.76 361.76 573.1 359.07 573.85 357.01 577.6 354.64 577.5 355.33 583.56 353.71 590.4 350.39 592.8 345.97 589.95 345.22 593.44 340.94 591.5 336.26 585.45 335.78 582.55 339.53 580.97 339.86 577.86 334.64 574.99 328.37 573.17 325.06 572.94 319.14 574.64 317.15 571.5 312.8 573.73 306.16 575.46 304.52 576.97 305.71 580.39 307.9 582.84 304.3 592.12 306 597.89 307.81 599.24 307.14 602.64 298.39 601.96 295.24 598.92 294.54 601.84 291.11 600.99 289.54 597.49 284.21 593.98 281.11 598.75 277.23 597.75 277.38 602.13 273.07 606.04 269.84 601.03 268.07 601.39 265.23 598.7 262.63 597.95 257.66 590.77 259.13 587.79 263.01 585.68 266.77 585.84 264.63 582.66 264.15 579.28 268.06 576.43 268.39 570.14 272.71 564.3 274.15 558.48 274.02 551.51 278.16 546.11 282.6 545.06 289.32 549.59 291.4 547.98 288.91 542.33 285.12 535.72 287.39 523.7 291.7 521.72 295.83 516.95 297.87 509.58 300.66 507.66 302.82 502.16 310.65 494.87 301 494.31 299.68 491.29 299.53 484.83 300.68 482.03 303.85 483.06 305.74 480.32 304.52 478.28 306.74 474.82 309.83 472.43 314.69 471.51 318.77 472.06 319.22 470.39 325.65 467.91 326.72 464.84 329.07 463.7 333.77 463.32 336.18 464.11 341.13 460.92 347.09 462.03 348.67 461.49 353.97 464.92 357.05 465.22 361.8 462.46 365.65 463.11 368.15 465.7 372.67 463.34 377.48 463.79 Z" fill-rule="evenodd" id="고성군"/>
<path d="M 631.79 309.62 632.92 316.02 635.11 318.13 639.86 319.71 647.88 319.36 650.57 320.03 655.98 324.23 663.89 332.81 666.85 335.49 674.92 338.29 678.24 341 679.87 345.06 680.47 351.66 684.32 358.01 688.65 362.23 695.76 366.53 699.48 370.62 700.42 372.97 701.1 374.87 693.6 394.23 691.44 396.66 686.54 399.28 681 400.86 673.21 402.15 669.24 402.21 667 400.41 664.96 401.08 659.89 405.44 655.48 407.64 653.78 407.35 651.72 404.08 648.09 405.58 649.75 407.52 644.16 409.71 638.91 409.08 635.5 411.74 631.36 416.8 634.28 422.05 634.45 425.07 636.91 427.84 636.6 434.55 634.28 435.19 634.65 438.26 636.82 441.69 631.15 442.25 632.43 438.89 630.2 436.89 626.47 436.67 619.94 438.82 618.36 442.82 614.97 442.18 610.87 444.34 605.2 441.7 600.28 441.61 594.36 443.63 586.62 442.33 579.58 437.43 568.62 438.03 570.06 426.95 570.98 423.38 573.06 421.71 573.05 417.61 569.22 415.08 564.66 415.3 561.99 414.5 559.27 410.12 558.6 403.62 560.41 400.32 560.46 396.42 559.42 392.3 554.86 384.82 553.07 379.25 553.47 377.37 550.87 372.28 550.53 367.36 548.92 360.88 543.93 356.9 546.07 353.37 552.12 354.14 553.97 346.47 556.2 344.2 558.2 346.49 563.42 349.79 566.53 349.08 568.12 347.13 568.25 340.35 571.87 339.92 573.18 336.97 578.54 332.11 583.88 331.49 589.18 328.53 593.45 323.03 597 315.25 602.3 311.57 608.81 310.31 624.5 301.82 627.29 301.83 629.37 304 631.79 309.62 Z" id="김해시"/>
<path d="M 231.75 729.36 230.1 727.14 231.04 723.7 234.45 725.23 233.84 728.19 231.75 729.36 Z M 179.52 699.54 181.04 703.75 178.74 704.12 176.84 701.53 179.52 699.54 Z M 224.34 587.65 221.94 595.71 216.05 603.49 215.68 607.77 213.24 614.58 213.31 618.69 218.41 621.19 220.98 618.49 219.49 616.61 219.11 610.45 226.72 603.41 231.24 601.25 232.93 607.1 237.03 609.18 237.61 612.35 241.06 618.04 239.96 622.63 237.17 623.16 234.59 627.19 239.36 626.31 237.8 630.76 246.24 633.05 247.15 635.86 250.27 637.69 250.04 641.5 247.28 642.1 245.62 638.19 240.88 640.59 239.14 638.31 234.94 635.83 232.14 637.47 229.14 635.13 220.27 630.84 215.08 635.96 210.42 637.44 202.29 637.2 198.42 634.57 194.37 634 194.17 630.26 191.33 627.74 191.51 624.28 189.69 621.32 189.93 617.73 195.19 612.77 198 611.18 201.26 604.46 203.32 603.34 203.73 598.67 206.47 595.62 206.3 593.96 209.84 590.47 217.75 587.23 222.42 586.59 224.34 587.65 Z M 161.49 623.13 164.73 628.81 166.39 630.01 168.13 637.68 172.98 640.8 175.9 639.47 180.18 643.92 179.79 649.64 181.08 653.04 186.11 656.07 191.93 653.83 191.75 649.58 194.41 649.43 198 646.9 197.37 643.74 200.33 643.07 203.56 639.78 207.9 639.35 212.57 640.93 218.01 640.99 218.06 639.36 223.56 638.48 224.64 641.79 228.89 645.27 232.75 643.37 235.57 645.78 238.18 646.41 240.82 651.2 238.71 655.39 238.71 658.91 234.65 658.26 233.75 662.31 236.25 665.75 233.7 667.56 232.77 670.09 233.3 674.6 235.51 676.9 235.36 685.09 236.67 686.13 236.49 690.96 232.9 692.65 229.27 695.65 226.27 699.46 225.99 705.41 230.9 708.3 235.1 709.17 238.55 712.36 233.02 714.34 230.69 716.73 226.73 716.45 226.92 713.73 223.56 713.06 221.19 717.04 218.35 716.56 219.19 712.77 221.77 707.64 219.02 704.57 214.3 704.41 212.33 706.53 214.43 708.32 212.44 711.58 208.43 708.07 205.51 709.87 205.15 706.66 200.91 707.4 201.3 712.75 198.47 711.42 188.78 713.09 185.9 709.35 188.35 708.25 187.2 704.69 184.75 703.78 182.54 696.41 183.19 694.59 181.49 690.5 183.8 678.7 186.48 675.29 185.35 672.98 181.25 672.06 178.7 673.57 174.5 673.27 169.2 675.89 167.98 677.33 164.44 677.54 161.19 680.99 162.96 684.62 162.37 686.28 165.01 689.11 164.42 691.94 166.26 694.47 165.99 696.86 162.91 701.95 158.9 702.79 155.2 705.53 149.05 703.49 147.75 702.22 143.38 702.31 140.43 697.28 136.77 697.32 138.15 694.31 137.11 690.37 129.36 689.31 128.67 684.59 131.32 684.47 132.26 681.41 131.15 678.51 136.5 677.51 134.23 671.82 132.92 666.7 130.01 665.66 127.66 661.69 128.69 660.6 124.58 652.86 124.37 649.1 122.22 647.74 117.23 639.16 116.47 635.59 116.86 630.91 114.68 627.51 116.12 622.74 118 622.23 119.73 618.85 119.4 615.06 123.93 615.55 125.36 608.58 128.11 600.9 131.12 601.05 135.35 598.33 140.99 599.06 142.05 597.64 135.8 590.5 137.16 586.77 139.12 585.54 140.04 582.07 142.72 581.39 142.51 578.14 146.4 575.55 155.11 572.06 160.74 575.37 170.66 574.98 172 576.23 169.7 579.16 171.38 587.8 173.73 590.71 171.58 593.54 173.12 595.69 170.17 599.31 171.95 604.72 169.4 604.41 164.41 607.9 160.17 609.35 160.2 612.83 158.76 616.89 161.49 623.13 Z" fill-rule="evenodd" id="남해군"/>
<path d="M 688.94 222.24 686.2 226.08 686.65 229.09 684.32 230.15 680.77 234.54 673.27 233.61 671.66 235.94 671.43 239.84 676.16 245 674.08 248.35 674.81 252.85 676.74 255.79 676.13 258.86 672.28 263.64 668.01 266.38 664.25 265.19 660 267.45 652.69 268.07 646.93 275.19 647.69 277.88 654.73 283.36 654.91 287.19 649.85 290.11 645.69 287.15 639.6 290.35 640.27 292 638.24 296.47 634.16 300.18 634.01 307.07 631.79 309.62 629.37 304 627.29 301.83 624.5 301.82 608.81 310.31 602.3 311.57 597 315.25 593.45 323.03 589.18 328.53 583.88 331.49 578.54 332.11 573.16 330.57 568.39 330.62 565.1 328.14 560.03 322.95 553.87 318.66 548.89 317.29 541.97 313.56 532.79 313.74 527.47 315.83 523.21 315.35 521.61 311.92 522.59 309.06 520.06 307.34 519.9 304.55 522.46 301.69 520.62 292.98 522.92 287.39 520.16 281.13 515.73 279.92 513.11 271.68 510.72 269.78 506.29 271.43 505.59 273.27 500.91 270.68 495.21 269.09 489.89 269.06 486.98 265.41 487.87 261.95 485.23 257.91 484.07 252.24 484.73 248.38 483.8 246.09 486.78 237.8 490.84 237.64 493.63 232.67 489.16 227.42 489.67 224.35 488.74 221.1 490.24 218.57 493.18 219.54 492.46 215.23 490.39 208.74 492.07 207.57 491.85 203.97 489.35 202.02 490.32 198.55 489.82 194.3 493.87 191.4 498.58 193.94 504.32 192.93 505.33 191.58 512.05 189.43 514.88 191.01 518.48 186.01 525.73 183.33 528.33 185.48 533.07 184.03 539.56 184.59 542.3 187.02 543.2 191.43 547.27 194.57 551.69 193.89 552.94 194.77 557.6 192.41 561.2 195.64 563.83 194.89 568.94 198.4 573.95 200.5 578.48 199.02 585.86 200.61 590.51 198.52 593.57 193.83 594.44 188.29 599.05 187.3 606.76 182.7 610.32 182.3 614.75 187.2 616.22 186.81 620.22 182.27 622.71 176.88 625.32 175.16 629.62 167.64 630.26 161.28 633.18 159.37 636.03 163.11 638.29 162.96 642.98 160.58 649.4 156.09 662.09 159.2 667 162.05 668.48 165.02 671.96 167.66 671.82 170.62 677.56 171.78 682.43 174.54 684.42 174.26 689.38 170.7 692.06 167.54 694.61 169.91 698.85 169.79 701.95 171.43 701.87 177.66 702.85 179.44 702.03 184.59 700.23 189.03 694.94 191.27 689.18 198.65 680.54 201.42 677.63 203.36 678.18 205.83 682.15 211.52 686.19 208.36 690.65 214.15 688.94 222.24 Z" id="밀양시"/>
<path d="M 245.77 594.38 248.51 600.34 244.57 602.84 243.98 596.03 245.77 594.38 Z M 226.48 588.37 224.45 584.9 226.31 583.39 228.76 586.62 226.48 588.37 Z M 192.79 547.11 194.04 551.18 198.62 558.86 199.58 562.12 193.58 560.26 190.89 555.84 189.71 552.33 192.79 547.11 Z M 218.63 522.07 214.94 523.33 210.86 520.66 212.3 517.49 210.38 515.33 204.96 513.23 200.28 513.59 199.47 518.45 202.79 517.02 206.06 517.92 207.44 522.43 209.58 525.31 212.26 526.92 212.94 532.89 216.88 534.14 217.59 536.79 215.33 545.21 211.71 543.2 212.81 547.88 212.18 550.6 206.74 542.82 202.24 549.05 203.8 551.68 202.48 554.05 200.05 554.73 195.27 549.32 195.73 546.16 194.35 543.97 189.39 543.66 189.54 546.24 187 549.6 185.22 548.38 182.66 549.74 183.53 554.46 176.36 551.4 176.61 548.55 174.82 545.41 176.63 541.11 179.38 539.23 170.34 532.06 169.42 525.27 171.48 522.96 170.4 520.85 170.85 515.67 173.96 513.25 174.16 511.38 171.21 508.63 169.99 503.68 166.18 502.23 164.81 496.95 162.17 493.77 158.43 493.77 155.91 489.21 160.18 488.57 159.96 484.03 163.25 482.76 162.54 480.89 158.71 476.84 159.4 474.59 163.88 471.08 164.11 468.96 159.96 466.1 151.87 463.2 148.69 454.19 151.71 451.46 157.04 449.41 158.35 447.61 163.63 452.51 169.37 451.34 172.4 453.98 177.73 449.96 183.77 450.28 185.64 447.89 192.4 446.28 194.02 447.67 198.25 445.91 206.93 448.17 207.44 456.4 209.22 461.09 208.39 469.71 209.26 472.03 212.49 472.79 215.14 470.4 219.61 469.89 221.43 467.37 225.87 469.2 228.71 468.65 231.46 466.31 232.38 462.22 235.2 464.4 242.13 464.03 244.65 467.04 250.78 469.78 252.16 471.24 253.02 479.96 255.81 476.82 260.96 477.46 264.61 474.2 265.5 472.19 273.4 470.46 279.59 472.02 283.57 475.34 285.64 480.32 291.71 483.29 289.64 489.01 286.21 492.12 281.9 491.81 280.02 493.85 282.01 495.78 284.02 500.86 287.13 500.6 292.06 509 295.42 508.22 297.87 509.58 295.83 516.95 291.7 521.72 287.39 523.7 285.12 535.72 288.91 542.33 291.4 547.98 289.32 549.59 282.6 545.06 278.16 546.11 274.02 551.51 274.15 558.48 272.71 564.3 268.39 570.14 268.06 576.43 264.15 579.28 264.63 582.66 266.77 585.84 262.29 585.19 259.95 586.23 257.08 584.53 254.56 585.04 251.7 588.13 251.32 583.85 246.9 582.71 244.04 583.94 240.12 583.86 233.77 580.88 227.91 575.02 227.5 571.92 223.23 566.54 229.34 560.5 233.11 557.7 233.38 553.05 229.69 550.39 229.84 548.68 227.33 544.6 227.2 539.16 232.06 533.24 232.72 530.8 229.96 525.76 226.5 527.63 225.3 526.47 228.53 521.76 226.9 517.86 227.58 512.18 227.19 506.54 229.79 500.41 235.71 495.1 234.25 491.71 225.62 499.42 224.78 502.52 220.53 506.7 220.5 509.6 223.08 510.56 220.83 515.04 220.37 520.59 218.63 522.07 Z" fill-rule="evenodd" id="사천시"/>
<path d="M 186.99 233.2 188.45 243.88 194.28 246.86 195.26 251.56 194.23 258.52 196.5 262.82 196.18 266.14 199.39 269.63 200.48 276.27 204.98 281.53 207.66 280.58 210.44 281.66 212.49 287.54 218.06 287.4 219.39 290.58 223.71 293.72 227.03 291.54 228.83 293.63 233.32 293.28 235.65 299.77 238.99 301.58 239.09 305.11 247.28 310.43 250.34 314.27 247.16 320.89 249.84 322.93 256.54 322.37 255.61 325.59 253.37 326.66 255.22 330.41 251.82 333.51 254.38 337.43 262.62 341.4 262.89 343.61 259.78 343.81 256.52 341.37 246.22 340.23 239.79 343 235.6 342.35 231.9 349.83 232.61 354.74 229.23 358.66 226.91 359.88 223.46 357.98 214.58 360.52 212.99 363.21 210.1 363.93 209.32 366.49 205.24 370.74 201.45 370.7 199.63 373.22 200.6 376.01 198.96 379.93 194.42 380.24 193.43 392.07 191.19 394.2 181.81 397.12 178.72 393.63 175.46 392.05 171.11 392.59 168.08 391.54 164.21 398.02 163.75 406.96 161.45 408.52 158.44 406.17 153.8 405.62 152.78 399.64 155.35 392.09 146.25 391.77 146.9 388.39 143.65 386.38 141.71 387.25 137.66 392.99 138.16 396.82 134.74 400.65 133.01 400.98 131.1 405.68 127.24 404.47 125.8 406.96 122.99 408.72 112.08 409.88 98.41 410.58 94.63 408.3 93.23 405.82 90.62 404.69 87.07 400.29 85.14 392.85 79.62 389.29 77.79 389.67 73.06 387.38 70.06 386.9 63.66 383.75 62.6 380.05 59.19 376.53 56.55 372.27 57.75 370.19 55.92 367.2 55.39 357.23 55.8 351.54 61.56 353.39 64.36 350.84 64.98 347.76 70.23 342.52 76.14 341 78.32 334.94 77.31 330.53 77.79 326.6 80.18 323.93 80.38 319.43 83.56 317.54 86.73 313.51 85.1 308.95 85.11 304.8 89.13 302.48 90.29 300.34 89.95 294.51 95.12 291.28 94.59 288 99.91 283.01 96.7 277.02 99.56 275.79 102.78 277.26 104.48 276.23 104.52 272.8 101.35 270.01 101.36 268.05 109.89 263.31 115.62 262.51 116.65 261.04 113.32 257.16 114.21 254.42 112.17 252.72 112.54 249.39 117.48 249.71 120.61 244.33 120.66 240.22 119.37 238.42 120.83 234.29 117.26 231.33 117.69 229.08 121.28 226.88 125 220.51 129.42 216.39 132.73 209.6 134.8 208.19 136.77 202.94 140.47 198.89 143.92 200.35 145.71 204.21 143.07 208.8 144.4 213.04 147.02 214.15 146.36 222.03 148.7 228.07 151.98 225.43 155.07 226.15 158.67 223.28 162.34 226.99 168.35 229.94 167.72 232.14 170.76 234.55 178.05 235.38 181.76 232.19 186.99 233.2 Z" id="산청군"/>
<path d="M 700.42 372.97 699.48 370.62 695.76 366.53 688.65 362.23 684.32 358.01 680.47 351.66 679.87 345.06 678.24 341 674.92 338.29 666.85 335.49 663.89 332.81 655.98 324.23 650.57 320.03 647.88 319.36 639.86 319.71 635.11 318.13 632.92 316.02 631.79 309.62 634.01 307.07 634.16 300.18 638.24 296.47 640.27 292 639.6 290.35 645.69 287.15 649.85 290.11 654.91 287.19 654.73 283.36 647.69 277.88 646.93 275.19 652.69 268.07 660 267.45 664.25 265.19 668.01 266.38 672.28 263.64 676.13 258.86 676.74 255.79 674.81 252.85 674.08 248.35 676.16 245 671.43 239.84 671.66 235.94 673.27 233.61 680.77 234.54 684.32 230.15 686.65 229.09 686.2 226.08 688.94 222.24 693.63 221.55 696.27 222.17 695.99 224.59 701.47 224.42 704.84 222.6 707.34 223.41 718.5 219.38 719.02 222.38 716.88 224.02 717.23 229.91 721.63 232.71 730.49 236.51 733.75 237.14 735.73 239.16 741.63 239.48 743.66 240.96 743.75 244.31 745.22 250.21 748.99 252.49 750.96 255.68 751.27 259.63 753.53 260.64 755.96 263.76 759.3 266.22 761.83 270.01 766.18 272.19 767.69 273.94 773.69 277.9 776.36 276.91 779.06 277.67 784.93 275.89 788.03 273.58 790.6 277.58 789.73 282.3 790.72 283.82 794.67 284.82 799 292.33 794.24 296.88 786.97 307.3 789.74 310.88 789.64 316.5 787.07 319.67 783.38 321.31 779.78 325.41 777.92 325.47 772.26 322.55 771.4 321.02 765.35 318.25 756.72 317.37 754.22 319.05 757.91 323.1 758.16 326.76 756.16 327.81 753.59 333.97 754.57 336.71 752.33 339.4 751.12 342.9 748.03 346.36 748.21 350.63 740.65 354.71 737.64 354.79 729.52 362.38 727.81 360.33 721.96 360.24 719.13 365.5 719.99 367.26 717.18 370.93 713.76 372.14 708.76 370.99 702.18 371.93 700.42 372.97 Z" id="양산시"/>
<path d="M 390.84 234.43 394.72 235.66 406 241.68 410.32 246.17 411.3 252.35 410.99 255.7 406.71 260.34 397 264.85 393.77 265.37 389.26 270.08 388.71 274.82 389.35 278.28 395.38 286.44 400.03 288.97 412.43 292.19 415.76 297.76 419.4 305.86 415.03 308.2 411.29 313.78 411.99 317.23 415.23 321.46 413.37 323.63 409.12 323.8 407.28 326.19 404.59 324.94 396.57 325.46 393.91 326.29 392.51 330.36 399.45 338.81 396.82 341.66 388.78 340.71 379.5 337.7 375.08 330.62 371.47 326.4 364.46 324.08 360.84 324.99 358.94 327.56 358.73 333.01 359.74 339.41 361.5 346.37 356.81 348.21 351.94 352.35 348.48 360.25 349.04 364.97 354 371.57 352.57 373.05 344.7 375.99 343.12 378.15 340.7 386.81 333.34 387.68 327.26 389.19 323.28 389.17 319.97 387.69 314.37 382.86 309.35 382.54 307.53 383.77 305.4 389.29 301.68 387.66 302.55 382.21 300.6 381.23 298.71 376.75 294.92 374.3 294.59 370.34 291.96 365.28 293.51 363.09 292.37 360.97 291.11 353.61 294.21 350.27 293.34 347.54 287.05 340.48 286.61 336.76 281.81 331.84 277.95 333.17 273.15 337.1 271.27 339.65 267.53 342.43 262.89 343.61 262.62 341.4 254.38 337.43 251.82 333.51 255.22 330.41 253.37 326.66 255.61 325.59 256.54 322.37 249.84 322.93 247.16 320.89 255.12 321.71 260.02 314.62 266.69 316.16 268.34 314.47 269.49 310.05 274.89 311.1 279.83 310.59 288.07 306.17 294.19 305.11 299.16 303.15 299.59 295.69 296.8 291.21 300.43 287.74 304.9 281.02 305.34 277.22 307.33 273.77 307.58 266.83 311.07 264.11 307.23 261.83 304.09 257.82 306.78 255.7 308.37 252.86 312.58 252.09 316.69 248.38 322.03 246.23 327.63 246.94 333.68 244.62 333.15 241.75 335.85 237.1 343.22 236.84 347.37 235.57 348.51 232.56 353.68 233.59 355.88 232.68 359.54 233.5 362.48 237.8 367.02 238.23 370.56 236.99 374.96 241.5 380.97 240.71 383.65 242.47 387.27 241.21 386.08 236.37 390.84 234.43 Z" id="의령군"/>
<path d="M 340.7 386.81 346.71 390.19 350.21 389.08 352.7 391.17 350.37 396.58 354.25 397.99 357.4 403.3 357.12 407.97 361.4 407.21 363.31 408.44 364.59 412.79 368.07 416.64 372.13 415.34 373.58 416.07 379.33 414.88 381.41 416.52 382.8 419.82 386.37 423.88 386.86 425.84 385.67 432.33 385.39 437.65 383.98 440.57 384.13 448.85 382.56 452.54 384.78 455.26 382.21 456.33 378.53 460.77 377.48 463.79 372.67 463.34 368.15 465.7 365.65 463.11 361.8 462.46 357.05 465.22 353.97 464.92 348.67 461.49 347.09 462.03 341.13 460.92 336.18 464.11 333.77 463.32 329.07 463.7 326.72 464.84 325.65 467.91 319.22 470.39 318.77 472.06 314.69 471.51 309.83 472.43 306.74 474.82 304.52 478.28 305.74 480.32 303.85 483.06 300.68 482.03 299.53 484.83 299.68 491.29 301 494.31 310.65 494.87 302.82 502.16 300.66 507.66 297.87 509.58 295.42 508.22 292.06 509 287.13 500.6 284.02 500.86 282.01 495.78 280.02 493.85 281.9 491.81 286.21 492.12 289.64 489.01 291.71 483.29 285.64 480.32 283.57 475.34 279.59 472.02 273.4 470.46 265.5 472.19 264.61 474.2 260.96 477.46 255.81 476.82 253.02 479.96 252.16 471.24 250.78 469.78 244.65 467.04 242.13 464.03 235.2 464.4 232.38 462.22 231.46 466.31 228.71 468.65 225.87 469.2 221.43 467.37 219.61 469.89 215.14 470.4 212.49 472.79 209.26 472.03 208.39 469.71 209.22 461.09 207.44 456.4 206.93 448.17 198.25 445.91 194.02 447.67 192.4 446.28 185.64 447.89 183.77 450.28 177.73 449.96 177.01 444.28 178.01 442.04 170.99 434.72 167.37 433.79 162.51 430.83 157.42 425.43 155.74 422.27 156.12 417.26 153.7 414.31 152.82 411 153.8 405.62 158.44 406.17 161.45 408.52 163.75 406.96 164.21 398.02 168.08 391.54 171.11 392.59 175.46 392.05 178.72 393.63 181.81 397.12 191.19 394.2 193.43 392.07 194.42 380.24 198.96 379.93 200.6 376.01 199.63 373.22 201.45 370.7 205.24 370.74 209.32 366.49 210.1 363.93 212.99 363.21 214.58 360.52 223.46 357.98 226.91 359.88 229.23 358.66 232.61 354.74 231.9 349.83 235.6 342.35 239.79 343 246.22 340.23 256.52 341.37 259.78 343.81 262.89 343.61 267.53 342.43 271.27 339.65 273.15 337.1 277.95 333.17 281.81 331.84 286.61 336.76 287.05 340.48 293.34 347.54 294.21 350.27 291.11 353.61 292.37 360.97 293.51 363.09 291.96 365.28 294.59 370.34 294.92 374.3 298.71 376.75 300.6 381.23 302.55 382.21 301.68 387.66 305.4 389.29 307.53 383.77 309.35 382.54 314.37 382.86 319.97 387.69 323.28 389.17 327.26 389.19 333.34 387.68 340.7 386.81 Z" id="진주시"/>
<path d="M 493.87 191.4 489.82 194.3 490.32 198.55 489.35 202.02 491.85 203.97 492.07 207.57 490.39 208.74 492.46 215.23 493.18 219.54 490.24 218.57 488.74 221.1 489.67 224.35 489.16 227.42 493.63 232.67 490.84 237.64 486.78 237.8 483.8 246.09 484.73 248.38 484.07 252.24 485.23 257.91 487.87 261.95 486.98 265.41 489.89 269.06 495.21 269.09 500.91 270.68 505.59 273.27 506.29 271.43 510.72 269.78 513.11 271.68 515.73 279.92 520.16 281.13 522.92 287.39 520.62 292.98 522.46 301.69 519.9 304.55 520.06 307.34 522.59 309.06 521.61 311.92 523.21 315.35 515.31 319.2 503.26 309.39 499.17 304.67 495.23 305.72 491.25 309.61 487.04 312.26 481.97 313.59 469.27 313.08 457.99 304.81 455.62 300.31 450.62 300.92 447.06 303.87 440.25 312.53 433.83 313.18 426.06 311.2 421.58 308.53 419.4 305.86 415.76 297.76 412.43 292.19 400.03 288.97 395.38 286.44 389.35 278.28 388.71 274.82 389.26 270.08 393.77 265.37 397 264.85 406.71 260.34 410.99 255.7 411.3 252.35 410.32 246.17 406 241.68 394.72 235.66 390.84 234.43 387.65 232.91 382.54 227.87 376.92 220.79 376.5 212.1 379.66 204.39 380.48 194.39 376.7 180.92 378.27 177.41 382.93 175.35 386.89 178.23 391.58 179.32 392.78 177.21 401.74 172.78 403.45 174.44 412.5 168.24 415.03 170.15 417.94 165.08 422.4 160.21 427.3 160.67 429.15 158.77 432.04 161.02 434.19 161.08 436.83 158.92 439.35 161.83 442.68 161.4 446.28 159.52 451.39 159.16 453.46 154.98 451.6 152.88 452.73 138.29 455.32 137.85 456.92 135.46 461.62 133.2 462.14 136.41 461.14 138.92 463.46 145.62 466.37 147.02 466.62 152.34 465.18 156.56 466.9 163.54 466.52 168.49 472.94 172.09 476.97 173.58 477.02 177.99 478.62 180.75 482.04 180.84 484.23 186.5 489.77 190.24 493.87 191.4 Z" id="창녕군"/>
<path d="M 478.11 496.83 481.51 498.74 481.8 501.24 484.7 506.48 482.22 507.23 478.84 506.17 475.87 501.61 472.67 499.03 472.5 497.21 478.11 496.83 Z M 485.15 431.7 483.48 429.63 484.04 425.9 485.96 425.13 487.12 430.61 485.15 431.7 Z M 493.69 413.06 492.55 416.32 488.06 420.2 482.63 427.23 482.56 428.71 485.45 434.35 490.02 435.64 492.93 439.95 492.55 442.55 495.48 444.28 495.74 451.1 498.76 453.93 493.88 460.67 489.87 455.29 488.11 456.58 488.06 460.88 491.59 462.49 495.68 461.4 499.73 459.28 499.54 464.35 500.9 476.33 504.6 480.37 508.4 481.94 507.85 484.74 511.08 484.45 513.72 487.44 510.08 489.44 503.13 490.16 507.84 496.68 512.31 493.99 517.83 495.49 517.21 497.26 513.03 499.41 507.53 500.72 503.84 503.52 495.48 504.57 491.46 506.01 487.79 506.22 491.1 501.83 494.14 500.78 495.42 498.8 498.94 497.5 495.86 495.01 492.3 499.17 486.24 496.77 482.44 493.25 482.97 489.39 485.72 489.04 489.18 484.36 485.2 482.73 480.08 481.97 473.79 479.99 475.34 474.78 471.44 473.1 468.97 467.36 466.28 474.84 461.24 476.1 460.17 480.29 457.77 479.26 454.43 480.02 451.13 477.81 449.56 475.22 445.04 475.71 442.49 479.49 436.05 479.92 431.55 475.72 427.89 476.87 425.88 480.71 429.72 484.28 432.68 485.5 434.77 487.84 441.42 490.08 441.62 492.08 438.49 493.45 437.54 490.36 434.72 492.1 433.09 496.09 428.87 494.77 425.57 496.22 422.21 495.86 422.08 499.04 420.41 500.07 418.67 504.65 414.36 505.44 416.18 496.68 415.31 493.67 416.71 488.64 411.17 484.6 408.28 483.95 402.77 485.31 402.71 489.39 399.26 486.91 397.94 480.45 396.01 477.94 393.3 477.14 389.09 473.15 386.22 474.48 382.06 474.52 379.07 473.01 380.16 468.92 377.48 463.79 378.53 460.77 382.21 456.33 384.78 455.26 382.56 452.54 384.13 448.85 383.98 440.57 385.39 437.65 385.67 432.33 386.86 425.84 386.37 423.88 389.28 424.11 392.53 419.38 397.4 416.56 402.7 417.47 405.82 423.84 403.91 429.2 405.24 432.4 407.12 432.71 410.65 437.93 418.01 441.53 420.8 440.75 423.9 437.82 424.5 431.65 430.44 429.6 433.61 426.87 440.87 427.08 445.55 431.75 450.02 431.32 452.66 433.24 454.42 432.56 459.88 433.39 464.35 429.61 465.08 427.81 471.09 424.97 469.49 420.22 469.99 416.67 468.58 414 472.41 411.18 476 412.4 482.31 409.29 488.35 410.62 489.29 407.48 492.13 406.15 494.9 408.36 493.95 412.28 493.69 413.06 Z" fill-rule="evenodd" id="창원시 마산합포구"/>
<path d="M 492.46 376.68 492.2 381.51 497.57 384.37 500.63 388.09 500.39 392.28 507.15 398.27 505.33 406.06 508.05 407.89 510.37 407.32 512.71 409.07 507.83 411.8 503.61 411.56 500.65 412.91 493.68 413.06 493.95 412.28 494.9 408.36 492.13 406.15 489.29 407.48 488.35 410.62 482.31 409.29 476 412.4 472.41 411.18 468.58 414 469.99 416.67 469.49 420.22 471.09 424.97 465.08 427.81 464.35 429.61 459.88 433.39 454.42 432.56 452.66 433.24 450.02 431.32 445.55 431.75 440.87 427.08 443.85 421.35 446.12 418.64 446.08 415.82 440.56 410.21 438.3 406.75 439.02 397.53 438.32 395.67 440.44 388.32 444.14 385.54 446.18 380.86 446.06 376.29 449.18 375.07 454.03 376.33 455.55 379.17 461.21 378.22 466.89 380.31 468.91 377.13 472.88 377.22 478.65 373.88 483.75 375.61 488.4 378.52 492.46 376.68 Z" id="창원시 마산회원구"/>
<path d="M 560.46 396.42 560.41 400.32 558.6 403.62 559.27 410.12 561.99 414.5 564.66 415.3 569.22 415.08 573.05 417.61 573.06 421.71 570.98 423.38 570.06 426.95 568.62 438.03 567.46 444.32 564.8 443.84 552.7 437.84 543.31 436.77 538.44 434.62 533.83 430.41 526.4 430.76 522.63 433.06 518.48 433 509.33 443.88 508.84 446.08 504.82 448.37 504.2 444.21 499.25 440.14 500.21 438.22 496.93 435.67 495.99 432.92 496.06 424.54 494.51 419.77 503.73 412.28 507.83 412.63 511.9 411.48 515.7 407.78 521.07 406.59 524.33 407.56 530.57 397.63 524.93 394.68 526.42 393.28 533.21 391.71 534.93 394.48 538.02 395.8 535.11 400.18 544.23 406.81 547.06 402.91 545.39 399.72 549.61 398.96 553.85 396.97 556.59 397.81 560.46 396.42 Z" id="창원시 성산구"/>
<path d="M 523.21 315.35 527.47 315.83 532.79 313.74 541.97 313.56 548.89 317.29 553.87 318.66 560.03 322.95 565.1 328.14 568.39 330.62 573.16 330.57 578.54 332.11 573.18 336.97 571.87 339.92 568.25 340.35 568.12 347.13 566.53 349.08 563.42 349.79 558.2 346.49 556.2 344.2 553.97 346.47 552.12 354.14 546.07 353.37 543.93 356.9 548.92 360.88 550.53 367.36 550.87 372.28 553.47 377.37 553.07 379.25 554.86 384.82 559.42 392.3 560.46 396.42 556.59 397.81 553.85 396.97 549.61 398.96 545.39 399.72 547.06 402.91 544.23 406.81 535.11 400.18 538.02 395.8 534.93 394.48 533.21 391.71 526.42 393.28 524.93 394.68 530.57 397.63 524.33 407.56 521.07 406.59 515.7 407.78 512.71 409.07 510.37 407.32 508.05 407.89 505.33 406.06 507.15 398.27 500.39 392.28 500.63 388.09 497.57 384.37 492.2 381.51 492.46 376.68 495.16 375.97 494.06 373.22 491.1 372.94 490.09 367.69 487.88 365.74 485.86 360.02 490.15 354.6 485.34 350.89 483.77 345.65 481.76 343.92 484.3 338.91 481.6 335.87 478.91 329.02 479.86 326.47 484.79 325.69 484.79 323.73 487.54 321.07 485.97 317.44 487.04 312.26 491.25 309.61 495.23 305.72 499.17 304.67 503.26 309.39 515.31 319.2 523.21 315.35 Z" id="창원시 의창구"/>
<path d="M 526.07 475.12 526.02 478.59 522.85 478.94 523.81 475.37 526.07 475.12 Z M 584.2 499.69 581.73 497.33 580.34 491.1 576.49 490.9 574.24 488.34 568.98 487.37 566.68 483.15 562.78 481.7 561.23 479.63 556.01 480.55 556.51 475.88 550.97 474.51 549.26 476.12 549.67 478.91 546.68 479.73 543.49 476.6 545.38 473.14 549.26 468.78 548.74 462.88 545.66 458.59 542.78 452.87 542.98 450.21 538.86 450.49 534.61 453.07 535.83 454.75 536.24 459.03 537.9 463.48 535.6 464.3 532.61 467.3 531.04 460.24 528.99 457.23 521.8 457.29 520.6 451.49 514.53 449.57 510.94 455.59 507.89 454.99 505.5 456.34 503.8 454.47 507.36 452.08 504.82 448.37 508.84 446.08 509.33 443.88 518.48 433 522.63 433.06 526.4 430.76 533.83 430.41 538.44 434.62 543.31 436.77 552.7 437.84 564.8 443.84 567.46 444.32 568.62 438.03 579.58 437.43 586.62 442.33 594.36 443.63 598.39 449.84 598.6 452.62 601.15 454.03 605.12 458.03 609.46 458.93 611.01 460.59 613.73 459.52 616.11 463.02 615.29 466.06 618.73 469.4 618.17 473.66 615.2 475.99 609.26 476.3 607.98 479.03 611.96 483.25 610.89 485.49 607.06 487.45 603.63 487.5 603.68 490.7 591.09 490.89 589.45 486.29 593.03 481.09 598.14 481.16 599.16 478.48 596.4 477.25 594.32 478.53 592.49 474.46 592.29 469.59 588.64 471.59 588 475.42 584.38 478.28 583.25 475.82 579.78 474.66 581.12 479.13 590.16 479 590.24 482.15 588.16 485.28 587.89 488.22 585.52 488.22 585.25 495.22 584.2 499.69 Z" fill-rule="evenodd" id="창원시 진해구"/>
<path d="M 427.74 810.92 424.04 813 422.67 811.49 427.64 806.6 429.53 809.05 427.74 810.92 Z M 301.13 793.2 302.67 795.06 301.92 798.73 299.44 799.03 301.13 793.2 Z M 359.88 763.73 359.37 767.06 355.71 763.65 357.3 761.57 359.88 763.73 Z M 481.02 757.07 480.44 760.66 477.97 762.44 476.73 758.22 481.02 757.07 Z M 325.31 746.79 330.6 746.11 336.1 750.17 338.64 749.81 344.36 753.41 342.05 759.24 343.85 761.94 346.39 755.85 351.62 752.36 355.85 752.97 353.12 755.8 354.6 757.92 349.67 761.13 349.58 763.68 344.76 765.21 341.77 761.87 338.71 760.27 336.06 764.19 328.79 765.86 329.3 769.12 326.71 770.25 323.06 768.29 328.26 764.98 328.08 762.55 324.48 760.15 324.84 755.6 320.96 758.32 318.77 754.42 323.55 753.54 324.28 750.59 321.48 747.57 325.31 746.79 Z M 382.52 745.91 385.97 748.36 389.3 748.81 391.48 752.76 393.75 749.36 395.9 751.47 392.5 753.95 389.29 753.19 385.94 750.59 384.66 752.43 380.38 752.7 377.36 749.27 378.39 746.76 382.52 745.91 Z M 486.35 756 484.75 753.87 489.42 750.15 490.42 745.9 496.02 748.9 492.29 751.81 490.03 755.3 486.35 756 Z M 376.33 739.55 379.24 739.53 381.82 742.96 378.44 743.26 376.33 739.55 Z M 332.95 729.32 334.18 734.6 329.67 735.48 327.87 734.3 323.1 734.82 323.43 730.73 328.57 729.94 330.82 730.78 332.95 729.32 Z M 492.76 727.45 490.36 726.47 491.49 723.42 493.61 724.38 492.76 727.45 Z M 297.4 711.76 301.82 711.25 306.57 714.13 307.74 715.93 306.98 718.93 308.24 722.35 306.15 724.19 303.59 722.17 298.64 722.87 291.89 717.45 291.31 713.73 294.98 710.82 297.4 711.76 Z M 418.23 705.07 416.19 700.97 419.2 699.76 418.23 705.07 Z M 471.44 696.32 471.02 698.87 468.37 700.11 465.7 699.02 464.99 696.81 467.94 695.68 471.44 696.32 Z M 435.44 714.36 430.06 714.05 428.26 711.5 429.74 708.57 434.06 706.47 433.93 703.95 431.56 700.82 436.22 695.27 439.9 699.11 435.48 703.9 434.43 706.35 437.19 709.5 437.76 712.47 435.44 714.36 Z M 405.1 693.61 406.99 694.96 407.79 699.34 403.99 698.72 401.32 695.72 405.1 693.61 Z M 453.04 689.57 454.56 692.63 460.55 694.42 460.68 695.93 455.94 697.23 454.9 693.72 451.57 697.62 448.95 696.58 444.49 692.82 437.4 693.13 437.08 691.39 441.48 689.04 446.42 689.75 451.07 686.64 453.04 689.57 Z M 413.51 689.59 413.12 689.69 410.2 689.52 407.09 691.93 406.28 689.43 412.8 687.98 413.51 689.59 Z M 357.07 682.99 359.91 684.16 359.1 686.8 356.33 685.35 352.45 688.75 350.01 685.77 348.93 682.33 352.71 679.8 357.07 682.99 Z M 468.22 681.18 472.44 682.73 474.13 680.37 476.95 679.86 482.17 680.58 483.09 682.89 479.93 684.39 479.16 687.61 473.66 685.34 471.54 683.64 465.79 683.73 459.2 680.37 458.84 677.03 464.06 676.83 467.17 678.23 468.22 681.18 Z M 389.39 667.03 391.88 668.04 390.88 671.67 382.92 670.98 389.39 667.03 Z M 463.29 661.71 459.73 660.82 459.99 658.13 462.79 658.22 463.29 661.71 Z M 454.54 655.93 457.32 656.9 455.35 664.64 451.18 662.12 452.51 655.9 454.54 655.93 Z M 444.09 647.87 442.43 649.1 444.71 652.15 449.03 655.94 448.27 659.72 450.76 667.84 455.78 666.3 455.86 668.4 458.58 670.3 457.7 676.75 454.69 677.33 449.33 681.91 447.11 682.41 443.05 679.53 438.94 679.37 440.57 674.47 440.16 671.46 438.02 667.1 436.11 667.42 434.35 664.39 436.6 660.57 440.42 658.8 440.13 655.4 438.2 654.33 436.48 649.5 438.3 646.66 444.09 647.87 Z M 383.56 649.66 378.31 646.2 380.15 644.76 384.89 646.95 383.56 649.66 Z M 274.03 637.69 278.89 640.08 274.27 644.41 269.54 640.07 270.23 637.65 274.03 637.69 Z M 324.95 635.76 330.12 640.73 330.89 643.68 337.51 647.14 336 652.67 332.74 653.37 328.93 652.26 327.44 653.18 328.73 657.37 327.14 661.19 325.19 657.87 318.21 657.36 316.45 653.29 312.86 654.12 310.45 652.98 313.47 649.47 307.16 648.22 309.82 642.15 312.64 639.8 314.76 635.36 319.05 635.76 324.09 633.6 324.95 635.76 Z M 308.12 623.68 311.21 627.13 317.43 627.15 322.22 631.26 320.68 633.09 310.43 632.92 306.32 635.06 305.92 639.44 302.61 642.38 299.83 642.93 296.45 640.95 298.68 637.83 297.19 635.82 291.58 634.66 290.27 632.44 290.83 627.47 292.19 626.42 301.8 623.28 306.36 622.83 308.12 623.68 Z M 437.71 586.09 442.34 592.57 441.26 595.06 436.17 594.29 435.48 589.52 437.71 586.09 Z M 423.73 555.44 424.96 557.44 418.91 564.32 417.81 564.34 418.43 571.3 416.09 573.19 417.57 577.15 420.56 580.13 417.63 581.51 418.37 585.58 412.52 592.11 414.34 598.28 412.94 603.19 415.44 607.54 414.69 612.92 416.28 614.19 419.93 611.57 420.88 609.26 418.98 605.94 423.16 604.57 422.95 602.21 425.61 597.97 426.37 594.54 423.59 590.15 429.55 589.25 429.48 591.93 433.36 594.9 430.45 596.96 435.15 601.16 437.66 605.89 436.48 615.06 434.46 615 433.68 609.96 431.04 612.93 431.73 618.79 428.32 617 427.01 619.56 429.79 623.6 429 627.55 429.77 629.62 424.4 632.11 421.3 631.44 421.45 634.74 413.14 633.86 414.68 636.28 421.56 640.66 424.76 644.93 423.61 646.05 424.73 651.76 424.66 656.05 421.63 657.42 424.11 660.51 421.38 663.67 416.32 662.03 415.02 664.03 421.97 668.17 418.54 673.15 416.53 674.77 417.09 677.81 411.9 679.5 407.92 679.81 407.84 676.37 403.2 677.44 402.34 673.42 403.26 669.88 399.8 669.71 399.06 663.36 393.4 660.28 392.84 664.01 387.05 659.18 389.26 657.17 392.65 658.55 394.88 654.36 392.75 652.52 395.3 650.59 394.28 648.69 388.35 646.73 383.43 642.61 377.87 642.67 375.11 647.13 370.55 643.11 373.24 639.91 374.89 640.47 379.4 636.86 379.16 632.6 383.19 633.51 385.78 637.83 388.14 638.9 389.91 637.38 393.74 640.26 400.22 642.08 406.37 640.36 405.23 636.14 402.78 637.63 398.15 636.41 398.8 634.44 397.05 631.55 393.16 633.81 393.04 630.27 389.31 628.01 390.65 626.2 393.69 626.88 398.79 620.26 404.87 620.59 409.71 621.97 414.25 620.23 412.11 617.53 406.53 618.72 397.03 617.17 394.79 614.1 396.78 609.14 393.77 608.13 391.75 609.05 388.65 614.7 386.15 616.17 382.56 615.57 381.09 610.82 378.72 614.43 373.27 611.59 368.83 612.77 365.73 608.15 363.07 608.34 360.32 606.29 359.75 602.92 357.58 600.29 355.11 599.77 354.15 597.26 358.86 593.53 363.16 593.36 365.77 594.56 370.79 593.28 374.11 593.46 379.32 595.32 382.27 593.14 380.3 590.18 381.68 587.73 379.66 584.43 376.85 583.73 377.65 578.98 376.48 576.29 383.21 572.81 388.47 570.91 391.08 571.52 394.39 570.43 399.25 567.44 398.26 562.1 403.5 560.29 403.7 556.45 411.19 558.32 414.76 553.42 419.16 552.8 423.73 555.44 Z" fill-rule="evenodd" id="통영시"/>
<path d="M 55.8 351.54 55.39 357.23 55.92 367.2 57.75 370.19 56.55 372.27 59.19 376.53 62.6 380.05 63.66 383.75 70.06 386.9 73.06 387.38 77.79 389.67 79.62 389.29 85.14 392.85 87.07 400.29 90.62 404.69 93.23 405.82 94.63 408.3 98.41 410.58 112.08 409.88 122.99 408.72 125.8 406.96 127.24 404.47 131.1 405.68 133.01 400.98 134.74 400.65 138.16 396.82 137.66 392.99 141.71 387.25 143.65 386.38 146.9 388.39 146.25 391.77 155.35 392.09 152.78 399.64 153.8 405.62 152.82 411 153.7 414.31 156.12 417.26 155.74 422.27 157.42 425.43 162.51 430.83 167.37 433.79 170.99 434.72 178.01 442.04 177.01 444.28 177.73 449.96 172.4 453.98 169.37 451.34 163.63 452.51 158.35 447.61 157.04 449.41 151.71 451.46 148.69 454.19 151.87 463.2 159.96 466.1 164.11 468.96 163.88 471.08 159.4 474.59 158.71 476.84 162.54 480.89 163.25 482.76 159.96 484.03 160.18 488.57 155.91 489.21 158.43 493.77 162.17 493.77 164.81 496.95 166.18 502.23 169.99 503.68 171.21 508.63 174.16 511.38 173.96 513.25 170.85 515.67 170.4 520.85 171.48 522.96 169.42 525.27 170.34 532.06 168.36 534.3 168.84 537.95 166.36 544.9 166.2 549.42 163.73 549.95 164.58 555.3 160.12 557.08 159.47 561.39 156.58 565.47 150.46 570.56 145.28 571.98 141.51 572 139.17 570.61 135.61 571.65 132.05 567.25 132.84 565.14 130.31 562.8 129.72 569.74 121.32 572.83 118.59 576.69 115.83 576.39 111.97 579.31 113.31 585.67 109.91 586.51 108.23 581.88 106.67 576.14 105.6 574.71 101.54 574.05 100.39 570.32 97.52 566.5 95.91 560.26 90.68 560.45 92.67 554.93 97.65 550.99 101 546.31 101.47 542.14 103.98 534.24 103.02 528.3 100.06 526.06 96.55 520.74 94.79 510.86 92.53 508.23 86.72 507.13 81.05 503.2 80.42 499.28 77.42 495.56 69.4 491.31 64.76 484.24 60.18 480.47 59 477.79 59.17 469.24 58.49 464.96 55.96 460.68 49.62 453.47 43.03 448.33 41.64 446.59 36.29 445.75 30.98 438.21 24.71 432.61 21.54 427.68 23.17 427.15 21.51 421.27 21.01 416.6 22.79 414.78 22.98 407.67 22.02 401.27 18.92 397.61 19.16 393.59 17.61 385.5 10.57 381.89 10.5 379.59 8.34 377.58 4.9 368.28 1.64 365.88 1 359.4 2.69 357.32 5.67 357.58 14.96 352.1 16.36 348.14 19.77 345.06 22.71 343.67 27.92 347.16 32.16 348.38 40.92 345.89 43.46 350.34 52.84 349.45 55.8 351.54 Z M 108.24 581.74 112.09 580.83 110.48 574.52 106.74 575.48 108.24 581.74 Z M 108.81 581.75 109.56 584.08 113.04 584.55 112.18 580.89 108.81 581.75 Z" fill-rule="evenodd" id="하동군"/>
<path d="M 487.04 312.26 485.97 317.44 487.54 321.07 484.79 323.73 484.79 325.69 479.86 326.47 478.91 329.02 481.6 335.87 484.3 338.91 481.76 343.92 483.77 345.65 485.34 350.89 490.15 354.6 485.86 360.02 487.88 365.74 490.09 367.69 491.1 372.94 494.06 373.22 495.16 375.97 492.46 376.68 488.4 378.52 483.75 375.61 478.65 373.88 472.88 377.22 468.91 377.13 466.89 380.31 461.21 378.22 455.55 379.17 454.03 376.33 449.18 375.07 446.06 376.29 446.18 380.86 444.14 385.54 440.44 388.32 438.32 395.67 439.02 397.53 438.3 406.75 440.56 410.21 446.08 415.82 446.12 418.64 443.85 421.35 440.87 427.08 433.61 426.87 430.44 429.6 424.5 431.65 423.9 437.82 420.8 440.75 418.01 441.53 410.65 437.93 407.12 432.71 405.24 432.4 403.91 429.2 405.82 423.84 402.7 417.47 397.4 416.56 392.53 419.38 389.28 424.11 386.37 423.88 382.8 419.82 381.41 416.52 379.33 414.88 373.58 416.07 372.13 415.34 368.07 416.64 364.59 412.79 363.31 408.44 361.4 407.21 357.12 407.97 357.4 403.3 354.25 397.99 350.37 396.58 352.7 391.17 350.21 389.08 346.71 390.19 340.7 386.81 343.12 378.15 344.7 375.99 352.57 373.05 354 371.57 349.04 364.97 348.48 360.25 351.94 352.35 356.81 348.21 361.5 346.37 359.74 339.41 358.73 333.01 358.94 327.56 360.84 324.99 364.46 324.08 371.47 326.4 375.08 330.62 379.5 337.7 388.78 340.71 396.82 341.66 399.45 338.81 392.51 330.36 393.91 326.29 396.57 325.46 404.59 324.94 407.28 326.19 409.12 323.8 413.37 323.63 415.23 321.46 411.99 317.23 411.29 313.78 415.03 308.2 419.4 305.86 421.58 308.53 426.06 311.2 433.83 313.18 440.25 312.53 447.06 303.87 450.62 300.92 455.62 300.31 457.99 304.81 469.27 313.08 481.97 313.59 487.04 312.26 Z" id="함안군"/>
<path d="M 136.77 202.94 134.8 208.19 132.73 209.6 129.42 216.39 125 220.51 121.28 226.88 117.69 229.08 117.26 231.33 120.83 234.29 119.37 238.42 120.66 240.22 120.61 244.33 117.48 249.71 112.54 249.39 112.17 252.72 114.21 254.42 113.32 257.16 116.65 261.04 115.62 262.51 109.89 263.31 101.36 268.05 101.35 270.01 104.52 272.8 104.48 276.23 102.78 277.26 99.56 275.79 96.7 277.02 99.91 283.01 94.59 288 95.12 291.28 89.95 294.51 90.29 300.34 89.13 302.48 85.11 304.8 85.1 308.95 86.73 313.51 83.56 317.54 80.38 319.43 80.18 323.93 77.79 326.6 77.31 330.53 78.32 334.94 76.14 341 70.23 342.52 64.98 347.76 64.36 350.84 61.56 353.39 55.8 351.54 52.84 349.45 43.46 350.34 40.92 345.89 32.16 348.38 27.92 347.16 22.71 343.67 23.96 337.98 22.63 334.96 20.31 333.35 18.56 329.87 17.56 323.9 18.75 322.11 22.38 320.6 25.06 317.37 24.68 314.13 25.87 310.74 30.23 304.15 35.14 302.09 40.18 295.4 41.95 295.1 44.51 287.39 44.21 282.51 46.88 280.15 48.4 277.13 45.46 274.54 42.25 275.46 37.88 273.22 34.49 274.53 29.86 266.76 30.84 261.42 30.68 256.66 37.56 252.61 36.97 245.62 33.88 244.06 32.82 241.44 29.14 237.23 27.59 232.24 24.64 228.39 24.79 225.75 21.79 222.68 18.36 223.08 15.66 218.97 10.93 216.26 6.32 210.57 7.04 205.99 8.77 204.74 10.57 200.69 17.9 194.63 16.08 188.1 18.32 185.73 19.4 179.55 22.6 176.23 29.57 174.11 24.19 166.22 24.3 162.52 22.08 159.73 23.14 154.98 26.7 151.48 26.44 147.1 31.34 143.6 31.92 133.62 34.48 126.47 36.33 123.5 41.89 119.87 41.36 116.36 42.92 111 41.59 103.53 42.92 101.08 42.28 96.58 43.15 92.56 42.49 89.67 44.19 84.92 45.97 83.41 50.77 85.11 52.62 87.68 58.78 91.48 60.44 91.51 62.39 94.8 65.43 97.62 67.02 104.5 68.61 107.22 77.08 114.01 79.13 110.98 80.82 110.99 84.06 107.21 87.49 105.79 90.26 107.37 91.58 112.92 98.63 118.49 101.63 122.5 106.99 123.08 109.81 128.15 110.74 133.68 114.7 135.4 118.46 140.56 121.8 143.32 125.19 143.36 125.31 148.4 128.97 149.19 131.93 151.31 133.83 150.04 139.03 149.56 139.32 147.32 142.66 142.73 146.49 143.61 145.14 154.12 146.2 161.66 143.56 164.6 143.92 172.25 140.49 179.83 135.23 187.12 132.28 188.03 130.06 192.39 126.47 194.85 127.89 198.16 133.6 197.81 136.77 202.94 Z" id="함양군"/>
<path d="M 382.93 175.35 378.27 177.41 376.7 180.92 380.48 194.39 379.66 204.39 376.5 212.1 376.92 220.79 382.54 227.87 387.65 232.91 390.84 234.43 386.08 236.37 387.27 241.21 383.65 242.47 380.97 240.71 374.96 241.5 370.56 236.99 367.02 238.23 362.48 237.8 359.54 233.5 355.88 232.68 353.68 233.59 348.51 232.56 347.37 235.57 343.22 236.84 335.85 237.1 333.15 241.75 333.68 244.62 327.63 246.94 322.03 246.23 316.69 248.38 312.58 252.09 308.37 252.86 306.78 255.7 304.09 257.82 307.23 261.83 311.07 264.11 307.58 266.83 307.33 273.77 305.34 277.22 304.9 281.02 300.43 287.74 296.8 291.21 299.59 295.69 299.16 303.15 294.19 305.11 288.07 306.17 279.83 310.59 274.89 311.1 269.49 310.05 268.34 314.47 266.69 316.16 260.02 314.62 255.12 321.71 247.16 320.89 250.34 314.27 247.28 310.43 239.09 305.11 238.99 301.58 235.65 299.77 233.32 293.28 228.83 293.63 227.03 291.54 223.71 293.72 219.39 290.58 218.06 287.4 212.49 287.54 210.44 281.66 207.66 280.58 204.98 281.53 200.48 276.27 199.39 269.63 196.18 266.14 196.5 262.82 194.23 258.52 195.26 251.56 194.28 246.86 188.45 243.88 186.99 233.2 187.68 230 183.95 226.21 184.11 217.53 184.91 215.12 189.63 211.3 193.97 209.44 194.22 206.14 197.25 204.85 196.33 199.99 197.01 196.36 199.99 189.62 197.93 183.28 198.69 179.29 206.68 177.94 204.68 171.31 207.09 167.96 205.99 165.71 208.85 162.02 214.7 158.7 216.29 153.21 218.07 153.2 227.1 148.48 228.1 140.17 232.63 136.78 238.12 135.3 240.96 141.19 242.36 140.5 243.75 135.88 246.03 134.15 251 134.17 252.1 130.42 246.19 128.18 241.95 124.29 242.54 121.95 241.19 113.94 240.24 112.32 235.76 110.96 235.75 109.15 233.05 101.27 230.36 96.53 227.24 94.16 230.5 88.83 229.34 84.68 231.03 81.02 229.19 78.49 225.03 77.36 222.66 74.06 224.1 71.21 228.87 68.58 229.45 64.71 231.55 62.32 239.03 62.03 241.63 57.7 246.57 55.29 246.16 52.4 249.45 47.47 251.4 46.5 255.62 48.32 259.23 51.42 263.83 51.48 265.83 54.01 264.46 60.34 264.61 63.48 267.94 68.92 268.03 71.81 272.24 74.84 277.28 74.95 280.37 73.48 284.83 79.05 283.96 82.31 285.6 87.07 297.39 93.94 299.47 101.85 301.72 103.22 301.04 106.59 303.2 110.81 304 117.31 302.88 119.08 305.04 126.85 304.13 128.83 304.71 132.93 299.14 136.44 295.2 136.49 294.82 138.55 292.14 140.47 286.73 140.08 283.61 144.01 284.35 152.14 286.48 152.59 291.74 150.21 295.83 149.75 298.99 151.35 302.47 154.76 303.63 157.97 308.07 157.9 308.76 159.31 317.16 160.33 320.47 159.66 321.3 157.82 320.61 153.48 323.25 151.07 331.42 155.35 333.24 158.34 337.91 155.87 340.49 155.58 341.49 152.59 345.77 152.44 349.62 153.47 350.47 150.2 354.31 150.61 360.77 153.34 363.1 155.8 365.75 154.64 369.45 156.63 375.27 155.79 379.57 161.15 381.54 166.13 382.93 175.35 Z" id="합천군"/>
</g>
</svg>