<?xml version="1.0"?>
<svg xmlns="http://www.w3.org/2000/svg" version="1.2" baseProfile="tiny" width="800" height="498" viewBox="0 0 800 498" stroke-linecap="round" stroke-linejoin="round">
<g id="경상북도_시군구_경계">
<path d="M 235.72 430.69 233.99 432.02 232.5 436.52 233.05 438.14 230.56 442.83 230.99 443.78 228.16 449.19 225.31 449.83 222.77 452.09 221.5 448.87 219.16 451.64 217.18 452.41 215.37 450.11 213.04 453.47 209.11 453.14 207.41 454.81 205.1 453.78 199.86 453.69 198.78 456.62 194.99 460.1 195.24 464.14 192.87 464.23 189.42 462.06 188.77 459.81 185.04 459.42 182.51 453.92 180.73 453.95 180.96 450.61 179.21 447.87 178.36 442.59 181.34 441.52 185.3 438.41 183.47 433.6 186.57 430.22 186.76 425.92 189.37 427.46 193.56 423.79 193.8 418.53 192.51 411.81 188.95 408.65 190.18 404.75 189.11 401.5 190.51 397.66 187.44 394.63 188.16 392.73 192.5 393.38 195.47 395.11 198.54 393.8 203.6 397.34 203.77 399.21 208.45 398.66 213.18 402.19 213.74 408.19 212.13 409.86 212.7 415.49 216.4 417.93 213.41 420.3 216.11 423.52 216.69 426.95 223.04 431 228.01 430.49 231.08 431.75 233.44 429.16 235.72 430.69 Z" id="경산시"/>
<path d="M 337.36 463.89 335.3 470.3 333.05 470.88 332.28 474.22 327.98 473.2 324.45 471.24 318.59 469.55 316.76 470.07 314.82 467.8 312.87 467.7 307.84 472.78 304.5 472.43 302.67 475.52 300.72 476.31 298.89 474.69 294.27 474 293.19 471.19 294.16 469.74 294.65 465.11 293.46 462.78 288.88 462.09 283.06 457.97 281.46 459.22 278.34 457.42 276.74 459.64 274.1 459.66 271.44 457.29 268.88 460.41 262.72 461.91 258.73 464.12 256.15 467.91 256.18 476.97 251.68 475.79 249.24 469.75 249.6 464.92 246.51 466.45 242.86 464.79 241.55 459.59 236.55 454.72 236.05 450.5 236.78 446.31 239.87 446.03 241.4 444.01 239.8 439.37 241.07 437.82 244.67 429.65 244.6 427.94 245.27 425.37 247.97 421.89 246.57 416.81 246.73 413.48 250.64 410.16 252.21 409.74 254.16 404.48 255.62 404.16 262.25 406.09 264.36 410.26 266.67 409.06 268.37 406.28 266.85 402.63 264.27 399.3 264.39 393.48 263.17 390.89 265.44 388.32 269.81 386.87 267.58 381.44 270.9 376.37 273.56 376.25 275.9 378.02 276.96 382.96 281.4 379.02 285.36 378.83 288.21 376.66 289.44 371.89 295.64 369.97 297.74 373.97 297.41 377.77 295.99 382.34 299.78 386.68 301.69 391.78 301.07 392.82 305.01 400.57 304.34 402.37 306.67 404.36 308.29 409.32 307.91 413.65 309.96 416.55 314.28 418.1 312.34 420.28 315.73 423.14 319.55 422.43 322.74 423.72 324.2 419.15 326.68 417.35 328.56 418.39 332.41 426.22 337.39 424.58 339.4 426.92 343.67 427.93 344.83 427.19 343.38 431.92 344.05 433.3 339.95 440.7 341.05 444.5 338.7 451.32 339.2 454.79 336.77 460.61 337.36 463.89 Z" id="경주시"/>
<path d="M 74.78 446.74 77.78 444.23 74.46 439.81 75.07 437.98 79.53 436.38 83.87 437.18 85.41 443 89.66 445.37 94.4 442.04 96.08 443.12 96.7 434.86 99.54 434.57 101.66 436.86 106.18 437.9 109.56 441.59 112.03 441.11 115.06 442.45 115.65 436.71 117.65 435.15 119.12 428.23 124.99 428.06 131.79 429.25 138.04 433.23 138.16 436.69 135.97 439.19 130.08 439.21 126.06 438.44 123.54 440.95 121.35 446.25 118.71 450.58 120.29 453.44 128.45 458.94 128.92 463.48 127.24 465.42 124.59 466.27 118.69 464.93 113.91 463.22 112.46 465.98 113.62 469.71 116.72 473.5 122.28 478.61 122.55 481.75 120 485.4 116.69 487.16 115.18 486.18 113.87 480.7 112.1 478.49 109.69 478.83 103.44 476.35 101.5 477.52 98.14 477.16 94.73 479.54 90.61 476.53 88.09 480.36 82.5 479.39 79.28 475.99 74.54 476.98 74.24 473.62 77.76 472.16 79.02 470.51 82.95 469.04 82.32 459.9 79.93 452.93 75.06 450.09 74.78 446.74 Z" id="고령군"/>
<path d="M 98.41 307.1 100.98 307.38 102.46 310.91 107.72 306.32 113.9 308.98 116.87 315.3 121.03 320.95 122.89 321.37 126.06 324.75 124.98 326.5 124.42 331.49 127.69 334.28 128.48 337.11 131.08 337.34 136.52 334.1 138.68 337.62 139.53 342.41 142.33 346.09 144.06 342.61 148.17 343.73 150.06 347 152.23 348.03 151.38 351.05 148.95 352.02 150.83 354.88 150.72 359.38 153.61 364.21 150.5 364.8 145.15 363.45 142.81 364.33 139.13 362.86 136.93 365.85 136.09 369.66 133.96 371.7 133.82 374.56 130.46 372.58 126.05 371.17 123 371.31 120.56 369.85 116.73 375.9 113.27 376.8 108.52 371.66 107.46 369.5 99.79 370.4 99.68 368.72 96.34 366.32 96.93 363.99 100.52 359.5 98.13 357.59 100.25 350.74 95.88 349.73 95.46 344.07 93.06 342.61 89.79 343.73 88.2 342.78 88.48 336.98 80.57 332.13 75.7 331.95 74.75 330.01 68.65 329.22 67.82 326.57 69.21 322 75.07 318.65 82.53 318.78 84.94 316.79 86.83 317.77 87.51 310.45 91.11 304.53 92.57 303.19 96.41 304.4 98.41 307.1 Z" id="구미시"/>
<path d="M 217.02 342.02 217.45 345.54 219.46 348.17 220.53 350.8 218.98 352.56 218.54 355.7 212.31 355.19 210.8 356.9 210.89 361.77 208.3 363.06 207.3 365.79 200.57 369.97 198.97 369.66 193.75 366.3 189.69 365.93 186.26 368.2 186.83 371.21 183.79 372.59 181.63 377.51 181.91 380.23 180.49 382.25 180.3 387.17 171.44 389.45 169.38 388.68 165.49 385.13 165.72 381.95 167.63 374.9 165.85 372.18 160.68 372.99 160.03 375.97 157.83 374.76 155.05 377.16 153.92 374.35 154.89 369.74 153.61 364.21 150.72 359.38 150.83 354.88 148.95 352.02 151.38 351.05 152.23 348.03 150.06 347 148.17 343.73 144.06 342.61 142.33 346.09 139.53 342.41 138.68 337.62 136.52 334.1 131.08 337.34 128.48 337.11 127.69 334.28 124.42 331.49 124.98 326.5 126.06 324.75 122.89 321.37 124.31 318.4 126.32 318.47 128.3 314.74 130.97 311.49 134.83 313 135.28 315.13 139.87 317.21 145.77 318.18 149.68 319.94 150.98 324.07 153.95 324.24 155.73 322.82 159.15 323.48 160.08 324.88 165.54 326.02 168.65 328.16 167.53 338.92 172.56 336.97 174.21 339.36 176.9 338.54 180.57 339.95 182.33 342.44 187.57 341.85 190.48 342.98 191.43 341.35 195.51 343.18 199.81 344.12 201.44 339.33 205.7 337.32 209.11 337.93 217.02 342.02 Z" id="군위군"/>
<path d="M 99.79 370.4 99.06 373.69 101.53 376.46 101.33 379.39 99.42 381.22 98.13 380.5 89.84 380.14 86.27 378.51 82.74 381.03 80.4 381.12 80.51 384.27 75.03 384.81 75.17 394.93 73.22 395.24 71.93 400.41 68.05 401.99 64.14 400.87 59.84 404.54 59.96 409.98 58.81 411.64 56.22 408 53.06 406.54 51.18 408.83 51.61 411.9 54.02 414.97 56.11 421.8 57.92 423.33 56.68 429.4 57.44 431.54 55.93 431.17 52.32 433.97 47.95 432.58 44.37 434.24 41.3 432.12 38.34 426.97 36.79 428.61 32.02 426.28 30.46 428.03 28.65 425.63 27.74 421.65 25.69 419.27 20.7 420.17 18.43 416.17 19.61 413.31 18.6 409.59 23.16 406.97 22.72 403.68 20.54 395.67 17.02 393.21 17.24 386.89 18.83 383.65 22.38 382.85 25.17 379.13 27.84 380.29 31.75 377.75 33.93 375.14 33.42 370.29 35.5 366.8 34.74 364.73 39.42 359.85 39.13 356.24 40.85 354.54 38.2 350.73 36.66 346.37 38.39 343.23 43.47 341.03 46.32 341.68 49.23 344.72 52.72 342.76 51.52 339.38 47.43 333.5 50.56 330.51 56.66 332.98 60.67 330.42 63.09 334.1 68.65 329.22 74.75 330.01 75.7 331.95 80.57 332.13 88.48 336.98 88.2 342.78 89.79 343.73 93.06 342.61 95.46 344.07 95.88 349.73 100.25 350.74 98.13 357.59 100.52 359.5 96.93 363.99 96.34 366.32 99.68 368.72 99.79 370.4 Z" id="김천시"/>
<path d="M 113.41 195.28 114.14 196.7 112.7 202.07 112.5 205.28 113.68 207.54 111.77 210.36 107.76 210.33 106.45 211.78 107.17 217.13 106.79 223.35 104.21 225.7 107.3 230.58 109.91 231.45 109.63 233.49 106.92 234.55 104.13 233.69 99.17 237.59 96.76 240.93 93.13 243.77 95.45 245.79 97.53 250.4 99.56 250.23 99.83 256.31 93.51 256.75 94.13 260.7 87.77 262.16 84.05 259.88 84.56 252.33 81.93 250.33 78.48 249.09 75.73 245.86 70.86 245.22 69.75 243.26 64.66 239.81 61.84 243.57 57.67 242.98 52.4 248.79 53.54 254.7 51.39 258.51 49.07 257.98 44.48 258.86 42.04 257.4 36.86 259.23 37.39 263.22 36.59 266.65 29.19 263.43 29.24 257.35 27.94 254.95 27.35 250.91 27.77 247.55 26.01 244.9 26.22 241.36 27.65 240.79 28.94 232.45 27.47 231.81 27.04 228.53 24.7 228.77 23.76 226.37 17.61 224.41 19.97 222.29 26.43 223.26 27.79 219.29 30.94 218.89 30.86 215.99 32.38 212.13 34.97 213.19 36.96 215.86 41.27 216.58 43.8 213.4 50.71 218.86 54.79 218.85 54.3 215.29 50.87 211.76 47.23 209.12 47.23 207.26 51.63 198.05 52.44 192.23 54.92 192.66 59.11 195.5 62.09 193.63 62.4 190.96 66.35 189.99 68.68 187.97 70.6 190.43 74.52 190.69 77.19 192.01 83.39 192.98 82.59 183.86 86.07 184.9 87.75 183.71 86.93 180.61 88.04 178.53 96.36 182.22 98.99 187.25 102.98 190.3 104 192.04 106.47 191.68 110.38 192.76 113.41 195.28 Z" id="문경시"/>
<path d="M 273.44 134.4 270.67 138.67 268.43 139.88 263.34 136.4 257.96 139.01 255.34 141.33 254.75 145.14 255.96 150.42 255.14 154.36 252.45 155.85 258.61 159.09 262.12 162.03 264.36 162.69 266.49 166.26 266.02 169.64 268.24 172.27 268.24 174.68 264.96 175.73 261.08 183.05 258.26 185.19 257.41 187.15 253.67 189.57 251.94 188.98 247.15 194.75 242.32 198.25 238.14 199 235.01 201.01 234.87 203.23 236.38 207.03 233.64 207.33 231.01 206.1 228.97 201.58 226.65 200.9 222.16 202.56 219.19 200.34 216.42 201.41 215.18 198.77 213.46 198.42 210.89 194.81 207.11 194.02 206.43 192.5 202.72 192.27 201.92 194.74 199.82 194.55 199.33 191.51 195.73 191.8 193.71 193.66 188.28 192.67 187.35 195.53 184.93 197.4 183.14 194.61 184.19 192.15 182.24 190.4 182.02 187.9 185.77 185.64 183.74 180.37 179.65 178.63 179.14 179.89 175.31 179.98 174.3 183.03 171.51 184.85 170.45 182.83 167.14 181.21 169.32 176.6 166.43 174.09 168.84 167.96 170.31 168.37 171.8 164.86 170.28 163.13 171.43 160.08 173.1 160.23 175.6 155.88 176.71 144.97 178.53 142.99 178.2 139.01 179.84 136.4 181.7 135.3 184.85 136.12 187.46 138.6 190.28 137.05 188.42 132.77 190.69 130.33 192.35 124.43 197.43 124.5 199.12 127.16 203.34 126.5 206.87 133.03 212.55 134.63 213.09 132.54 216.75 131.91 219.3 129.29 221.74 122.89 226.13 122.41 228.86 126.34 233.73 124.52 238.64 125.9 241.64 125.95 248.59 129.05 250.11 126.77 250.65 123.39 255.56 120.34 259.98 122.13 261.68 123.98 264.78 125.08 271.46 130.49 273.44 134.4 Z" id="봉화군"/>
<path d="M 26.01 244.9 27.77 247.55 27.35 250.91 27.94 254.95 29.24 257.35 29.19 263.43 36.59 266.65 37.39 263.22 36.86 259.23 42.04 257.4 44.48 258.86 49.07 257.98 51.39 258.51 53.54 254.7 52.4 248.79 57.67 242.98 61.84 243.57 64.66 239.81 69.75 243.26 70.86 245.22 75.73 245.86 78.48 249.09 81.93 250.33 84.56 252.33 84.05 259.88 87.77 262.16 94.13 260.7 94.73 264.76 93.47 267.73 94.69 272.71 94.14 274.97 96.48 278.12 100.54 278.37 103.31 280.53 105.34 283 104.96 285.99 108.47 292.65 106.58 296.56 104.31 296.96 103.13 301.73 98.41 307.1 96.41 304.4 92.57 303.19 91.11 304.53 87.51 310.45 86.83 317.77 84.94 316.79 82.53 318.78 75.07 318.65 69.21 322 67.82 326.57 68.65 329.22 63.09 334.1 60.67 330.42 56.66 332.98 50.56 330.51 50.88 329.43 43.6 325.67 39.59 327.81 37.73 327.76 35.64 331.01 31.22 329.3 31.12 327.15 27.74 324.28 23.01 322.23 22.25 318.6 20.02 320.91 18.16 325.37 13.83 324.57 12.1 325.35 11.04 318.78 9.96 316.52 12.14 311.7 17.83 307.89 18.84 303.35 18.36 299.33 14.31 293.7 16.25 292.83 16.59 287.17 15.92 284.43 17.84 279.28 17.52 271.58 19.15 271.61 22.29 268.93 21.53 263.78 15.49 259.44 15.94 256.96 13.48 253.3 11.88 252.52 6.37 252.6 1.22 248.81 1 245.41 5.71 242.67 9.47 243.36 12.51 241.14 10.94 239.34 11.15 236.96 13.59 236.73 16.07 231.94 19.05 235.52 19.37 238.37 22.67 239.08 23.51 241.65 26.01 244.9 Z" id="상주시"/>
<path d="M 99.42 381.22 100.7 384.35 103.56 384.84 104.19 393.57 105.35 396.14 109.42 397.86 111.13 402.89 113.54 402.63 115.35 406.04 120.92 406.47 121.49 416.55 118.62 424.71 119.12 428.23 117.65 435.15 115.65 436.71 115.06 442.45 112.03 441.11 109.56 441.59 106.18 437.9 101.66 436.86 99.54 434.57 96.7 434.86 96.08 443.12 94.4 442.04 89.66 445.37 85.41 443 83.87 437.18 79.53 436.38 75.07 437.98 74.46 439.81 77.78 444.23 74.78 446.74 72.9 444.48 69.54 445.04 67.8 443.79 66.39 440.35 66.89 436.44 62.67 434.08 59.23 433.16 57.44 431.54 56.68 429.4 57.92 423.33 56.11 421.8 54.02 414.97 51.61 411.9 51.18 408.83 53.06 406.54 56.22 408 58.81 411.64 59.96 409.98 59.84 404.54 64.14 400.87 68.05 401.99 71.93 400.41 73.22 395.24 75.17 394.93 75.03 384.81 80.51 384.27 80.4 381.12 82.74 381.03 86.27 378.51 89.84 380.14 98.13 380.5 99.42 381.22 Z" id="성주군"/>
<path d="M 236.38 207.03 235.7 210.05 237.61 212.05 238.06 215.72 236.33 225.08 237.82 229.83 236.81 237.44 238.06 239.05 238.68 244.74 238.77 246.34 234.83 251.85 237.3 255.85 233.92 257.03 233.62 259.98 235.99 264.02 238.36 265.17 237.95 267.83 234.18 272.82 235.49 274.04 233.08 276.96 234.73 281.34 233.98 284.34 236.25 290.57 233.51 296.64 232.09 301.07 232.91 301.91 232.21 307.38 226.77 312.2 226.51 314.9 222.55 317.37 217.92 317.74 217.23 314.28 218.45 310.82 217.14 306.87 215.25 306.16 216.04 302.7 214.3 298.23 208.85 291.8 207.86 287.24 206.52 286.13 205.69 279.94 202.28 279.62 198.37 276.88 195.16 276.39 193.1 273.13 189.11 271.21 185.32 274.32 183.49 272.87 180.52 276.92 181.23 281.32 176.51 282.33 174.99 284.11 172.16 284.29 170.64 285.96 167.53 285.98 165.82 288.37 162.17 288.95 159.6 290.86 159.19 286.64 157.96 283.77 155.52 283.41 150.39 271.84 146.36 269.39 143.43 269.71 140.24 267.85 139.68 265.56 135.66 265.49 135.12 269.41 133.03 269.39 130.9 271.34 127.18 268.6 125.92 264.2 133 259.04 131.23 255.73 136.71 252.36 138.48 252.03 139.08 248.85 138.67 244.61 145.43 244.34 146.63 241 144.71 237.5 148.6 236.63 152.68 234.55 152.94 233.03 160.33 231.47 161.06 223.7 160.35 221.49 157.54 219.61 158.51 216.7 162.17 216.74 165.16 214.94 169.56 217.02 172.52 216.55 174.45 219.15 178.78 217.94 180.88 219.63 183.17 218.92 186.48 219.99 184.81 216.06 186.23 208.72 187.41 207.24 186.34 203.03 187.84 200.52 186.09 199.01 187.35 195.53 188.28 192.67 193.71 193.66 195.73 191.8 199.33 191.51 199.82 194.55 201.92 194.74 202.72 192.27 206.43 192.5 207.11 194.02 210.89 194.81 213.46 198.42 215.18 198.77 216.42 201.41 219.19 200.34 222.16 202.56 226.65 200.9 228.97 201.58 231.01 206.1 233.64 207.33 236.38 207.03 Z" id="안동시"/>
<path d="M 322.14 231.11 321.08 232.12 320.05 237.35 320.97 240.96 319.82 242.78 321.06 247.16 325.98 253.4 325.84 257.09 327.5 265.07 327.11 268.9 325.13 270.29 325.85 274.65 325.11 281.02 325.77 284.3 324.52 288.57 317.84 298.92 314.95 307.72 315.5 310.01 314.32 319.06 315.64 321.62 314.61 323.27 310.1 322.18 307.44 323.78 302.15 322.72 300.34 323.63 297.67 320.85 296.44 316.39 298.99 313.33 299.01 310.49 296.53 307.64 292.66 310.8 289.72 310.66 289.97 306.37 287.96 304.68 284.1 304.62 282.81 298.64 284.69 296.37 283.14 294.7 284.64 292.45 281.43 289.68 281.15 287.04 278.65 284.21 276.63 285.16 273.12 282.92 272.78 280.32 268.41 272.77 269.19 267.23 273.88 265.21 276.76 266.39 283.27 266.1 283.86 263.57 288.11 264.42 285.61 258.96 287.57 251.49 285.64 250.44 284.45 246.65 281.61 245.17 284.35 241.45 284.21 237.52 285.84 233.99 284.11 231.74 284.43 227.4 291.55 224.3 294.81 225.62 296.53 224.76 307.42 228.14 314.18 225.05 318.82 227.32 322.14 231.11 Z" id="영덕군"/>
<path d="M 291.55 224.3 284.43 227.4 284.11 231.74 285.84 233.99 284.21 237.52 284.35 241.45 281.61 245.17 284.45 246.65 285.64 250.44 287.57 251.49 285.61 258.96 288.11 264.42 283.86 263.57 283.27 266.1 276.76 266.39 273.88 265.21 269.19 267.23 265.33 267.13 264.26 264.22 264.35 259.06 260.2 256.55 252.34 257.15 249.02 253.55 247.66 249.22 245.07 246.09 241.9 246.09 238.68 244.74 238.06 239.05 236.81 237.44 237.82 229.83 236.33 225.08 238.06 215.72 237.61 212.05 235.7 210.05 236.38 207.03 234.87 203.23 235.01 201.01 238.14 199 242.32 198.25 247.15 194.75 251.94 188.98 253.67 189.57 257.41 187.15 258.26 185.19 261.08 183.05 264.96 175.73 268.24 174.68 271.3 173.7 275.49 174.18 278.22 179.88 286.4 180.6 287.98 178.66 288.29 175.38 292.69 175.21 291.54 185.15 294.65 185.18 295.8 187.12 294.59 191.16 299.95 197.89 296.55 201.09 296.81 203.91 291.75 206.87 291.58 211.04 295.63 214.09 294.59 217.75 292.9 219.86 293.39 222.34 291.55 224.3 Z" id="영양군"/>
<path d="M 179.84 136.4 178.2 139.01 178.53 142.99 176.71 144.97 175.6 155.88 173.1 160.23 171.43 160.08 170.28 163.13 171.8 164.86 170.31 168.37 168.84 167.96 166.43 174.09 169.32 176.6 167.14 181.21 170.45 182.83 171.51 184.85 174.3 183.03 175.31 179.98 179.14 179.89 179.65 178.63 183.74 180.37 185.77 185.64 182.02 187.9 182.24 190.4 184.19 192.15 183.14 194.61 184.93 197.4 187.35 195.53 186.09 199.01 187.84 200.52 186.34 203.03 187.41 207.24 186.23 208.72 184.81 216.06 186.48 219.99 183.17 218.92 180.88 219.63 178.78 217.94 174.45 219.15 172.52 216.55 169.56 217.02 165.16 214.94 162.17 216.74 158.51 216.7 157.54 219.61 156.05 217.57 156.28 214.23 151.48 205.09 146.87 202.08 142.97 202.48 140.7 204.39 135.9 201.22 133.66 194.73 135.64 187.08 131.9 184.1 129.18 183.73 129.17 180.23 126.74 177.63 124.19 176.93 124.71 173.81 127.31 170.44 128.19 167.78 127.56 164.44 131.15 162.28 131.65 159.49 134.44 157 140.24 153.8 142.2 149.69 145.86 148.84 149.35 147.03 150 144.99 153.12 141.27 151.62 138.85 154.87 135.89 159.78 135.54 160.28 133.53 164.84 136.01 167.4 131.23 173.2 131.71 175.86 133.09 178.12 136.06 179.84 136.4 Z" id="영주시"/>
<path d="M 238.26 349.13 249.2 351.94 253.05 355.14 252.32 358.21 254.2 361.27 260.01 360.11 261.47 362.02 259.4 364.21 259.37 366.28 261.58 369.02 264.36 370.6 266.08 370.08 268.78 375.48 270.9 376.37 267.58 381.44 269.81 386.87 265.44 388.32 263.17 390.89 264.39 393.48 264.27 399.3 266.85 402.63 268.37 406.28 266.67 409.06 264.36 410.26 262.25 406.09 255.62 404.16 254.16 404.48 252.21 409.74 250.64 410.16 246.73 413.48 246.57 416.81 247.97 421.89 245.27 425.37 244.6 427.94 237.8 431.25 235.72 430.69 233.44 429.16 231.08 431.75 228.01 430.49 223.04 431 216.69 426.95 216.11 423.52 213.41 420.3 216.4 417.93 212.7 415.49 212.13 409.86 213.74 408.19 213.18 402.19 208.45 398.66 203.77 399.21 203.6 397.34 198.54 393.8 195.47 395.11 192.5 393.38 188.16 392.73 186.46 390.16 182.07 388.64 180.3 387.17 180.49 382.25 181.91 380.23 181.63 377.51 183.79 372.59 186.83 371.21 186.26 368.2 189.69 365.93 193.75 366.3 198.97 369.66 200.57 369.97 207.3 365.79 208.3 363.06 210.89 361.77 210.8 356.9 212.31 355.19 218.54 355.7 218.98 352.56 220.53 350.8 219.46 348.17 224.16 345.79 227.84 346.53 230.38 349.04 234.2 350.87 238.26 349.13 Z" id="영천시"/>
<path d="M 157.54 219.61 160.35 221.49 161.06 223.7 160.33 231.47 152.94 233.03 152.68 234.55 148.6 236.63 144.71 237.5 146.63 241 145.43 244.34 138.67 244.61 139.08 248.85 138.48 252.03 136.71 252.36 131.23 255.73 133 259.04 125.92 264.2 124.11 263.59 120.31 266.78 115.48 268.56 114.31 267.11 113.93 262.69 112.92 261.59 108.73 263.2 109.53 265.88 107.66 269.52 108.07 272.11 104.65 276.4 102.32 278.28 103.31 280.53 100.54 278.37 96.48 278.12 94.14 274.97 94.69 272.71 93.47 267.73 94.73 264.76 94.13 260.7 93.51 256.75 99.83 256.31 99.56 250.23 97.53 250.4 95.45 245.79 93.13 243.77 96.76 240.93 99.17 237.59 104.13 233.69 106.92 234.55 109.63 233.49 109.91 231.45 107.3 230.58 104.21 225.7 106.79 223.35 107.17 217.13 106.45 211.78 107.76 210.33 111.77 210.36 113.68 207.54 112.5 205.28 112.7 202.07 114.14 196.7 113.41 195.28 116.33 192.39 123.65 192.87 125.9 189.77 126.28 187.3 129.18 183.73 131.9 184.1 135.64 187.08 133.66 194.73 135.9 201.22 140.7 204.39 142.97 202.48 146.87 202.08 151.48 205.09 156.28 214.23 156.05 217.57 157.54 219.61 Z" id="예천군"/>
<path d="M 608.31 2.8 607.76 6.01 609.76 9.6 608.44 13.66 608.02 18.63 603.58 20.35 600.91 23.47 595.62 22.53 592.58 20.55 589.06 19.8 587.52 17.69 587.65 12.4 585.1 9.3 589.12 8.24 595.45 4.71 599.78 4.13 601.02 2.72 604.04 3.04 606.53 1 608.31 2.8 Z" id="울릉군"/>
<path d="M 320.49 130.51 318.5 130.77 318.75 135.06 317.68 136.24 318.91 140.99 319.11 145.97 317.52 148.71 319.91 155.73 320.25 159.19 319.36 166.25 320.12 170.09 319.38 170.84 320.39 175.95 321.98 180.2 326.13 185.84 327.98 189.12 329.14 195.37 332.38 200.45 330.43 203.05 332.35 210.23 331.35 212.06 332.11 217.58 329.03 221.59 325.76 223.41 322.14 231.11 318.82 227.32 314.18 225.05 307.42 228.14 296.53 224.76 294.81 225.62 291.55 224.3 293.39 222.34 292.9 219.86 294.59 217.75 295.63 214.09 291.58 211.04 291.75 206.87 296.81 203.91 296.55 201.09 299.95 197.89 294.59 191.16 295.8 187.12 294.65 185.18 291.54 185.15 292.69 175.21 288.29 175.38 287.98 178.66 286.4 180.6 278.22 179.88 275.49 174.18 271.3 173.7 268.24 174.68 268.24 172.27 266.02 169.64 266.49 166.26 264.36 162.69 262.12 162.03 258.61 159.09 252.45 155.85 255.14 154.36 255.96 150.42 254.75 145.14 255.34 141.33 257.96 139.01 263.34 136.4 268.43 139.88 270.67 138.67 273.44 134.4 277.29 133.53 282.72 133.62 281.84 130.44 282.71 128.8 281.15 126.41 285.7 120.83 288.94 119.3 289.97 115.79 294.56 116.2 296.32 112.76 304.23 108.25 308.43 108.51 310.23 111.26 310.9 114.75 310.26 116.81 311.33 119.63 315.78 124.39 320.81 127.97 320.49 130.51 Z" id="울진군"/>
<path d="M 125.92 264.2 127.18 268.6 130.9 271.34 133.03 269.39 135.12 269.41 135.66 265.49 139.68 265.56 140.24 267.85 143.43 269.71 146.36 269.39 150.39 271.84 155.52 283.41 157.96 283.77 159.19 286.64 159.6 290.86 162.17 288.95 165.82 288.37 167.53 285.98 170.64 285.96 172.16 284.29 174.99 284.11 176.51 282.33 181.23 281.32 180.52 276.92 183.49 272.87 185.32 274.32 189.11 271.21 193.1 273.13 195.16 276.39 198.37 276.88 202.28 279.62 205.69 279.94 206.52 286.13 207.86 287.24 208.85 291.8 214.3 298.23 216.04 302.7 215.25 306.16 217.14 306.87 218.45 310.82 217.23 314.28 217.92 317.74 215.85 318.28 215.59 323.48 210.12 325.68 211.37 327.92 216.63 328.72 216.08 332.83 216.94 337.06 219.66 339.94 217.02 342.02 209.11 337.93 205.7 337.32 201.44 339.33 199.81 344.12 195.51 343.18 191.43 341.35 190.48 342.98 187.57 341.85 182.33 342.44 180.57 339.95 176.9 338.54 174.21 339.36 172.56 336.97 167.53 338.92 168.65 328.16 165.54 326.02 160.08 324.88 159.15 323.48 155.73 322.82 153.95 324.24 150.98 324.07 149.68 319.94 145.77 318.18 139.87 317.21 135.28 315.13 134.83 313 130.97 311.49 128.3 314.74 126.32 318.47 124.31 318.4 122.89 321.37 121.03 320.95 116.87 315.3 113.9 308.98 107.72 306.32 102.46 310.91 100.98 307.38 98.41 307.1 103.13 301.73 104.31 296.96 106.58 296.56 108.47 292.65 104.96 285.99 105.34 283 103.31 280.53 102.32 278.28 104.65 276.4 108.07 272.11 107.66 269.52 109.53 265.88 108.73 263.2 112.92 261.59 113.93 262.69 114.31 267.11 115.48 268.56 120.31 266.78 124.11 263.59 125.92 264.2 Z" id="의성군"/>
<path d="M 251.68 475.79 249.46 480.36 247.67 479.31 241.84 484.64 238.97 486.23 234.59 484.61 234.65 483.39 230.57 479.89 225.33 478.61 217.16 483.38 213.28 489.43 211.02 491.46 209.19 489.44 202.63 491.91 201.01 496.14 199.08 497 194.16 496.95 187.41 493.61 183.14 494.5 179.96 490.38 174.25 489.86 168.6 492.38 163.03 494.25 157.11 491.17 154.79 488.79 154.11 485.83 149.79 483.73 149.24 478.8 149.73 474.86 147.57 471.52 148.91 464.21 147.69 461.9 158.13 455.44 164.81 455.8 164.89 462.42 166.08 464.12 171.35 462.76 173.4 460.36 178.71 459.42 180.23 457.09 180.73 453.95 182.51 453.92 185.04 459.42 188.77 459.81 189.42 462.06 192.87 464.23 195.24 464.14 194.99 460.1 198.78 456.62 199.86 453.69 205.1 453.78 207.41 454.81 209.11 453.14 213.04 453.47 215.37 450.11 217.18 452.41 219.16 451.64 221.5 448.87 222.77 452.09 225.31 449.83 228.16 449.19 230.99 443.78 230.56 442.83 233.05 438.14 232.5 436.52 233.99 432.02 235.72 430.69 237.8 431.25 244.6 427.94 244.67 429.65 241.07 437.82 239.8 439.37 241.4 444.01 239.87 446.03 236.78 446.31 236.05 450.5 236.55 454.72 241.55 459.59 242.86 464.79 246.51 466.45 249.6 464.92 249.24 469.75 251.68 475.79 Z" id="청도군"/>
<path d="M 269.19 267.23 268.41 272.77 272.78 280.32 273.12 282.92 276.63 285.16 278.65 284.21 281.15 287.04 281.43 289.68 284.64 292.45 283.14 294.7 284.69 296.37 282.81 298.64 284.1 304.62 287.96 304.68 289.97 306.37 289.72 310.66 285.84 312.78 284.18 315.59 284.83 320.13 284.14 322.58 281.09 324.26 279.25 329.83 275.47 333.96 270.42 332.15 267.23 328.51 266.35 325.65 262.19 325.18 258.44 322.76 255.5 322.17 250.36 325.04 251.24 327.49 254.72 328.45 256.4 332.23 251.37 335.23 248.49 335.76 247.26 340.33 245.83 342.07 245.75 344.92 238.46 347.39 238.26 349.13 234.2 350.87 230.38 349.04 227.84 346.53 224.16 345.79 219.46 348.17 217.45 345.54 217.02 342.02 219.66 339.94 216.94 337.06 216.08 332.83 216.63 328.72 211.37 327.92 210.12 325.68 215.59 323.48 215.85 318.28 217.92 317.74 222.55 317.37 226.51 314.9 226.77 312.2 232.21 307.38 232.91 301.91 232.09 301.07 233.51 296.64 236.25 290.57 233.98 284.34 234.73 281.34 233.08 276.96 235.49 274.04 234.18 272.82 237.95 267.83 238.36 265.17 235.99 264.02 233.62 259.98 233.92 257.03 237.3 255.85 234.83 251.85 238.77 246.34 238.68 244.74 241.9 246.09 245.07 246.09 247.66 249.22 249.02 253.55 252.34 257.15 260.2 256.55 264.35 259.06 264.26 264.22 265.33 267.13 269.19 267.23 Z" id="청송군"/>
<path d="M 153.61 364.21 154.89 369.74 153.92 374.35 155.05 377.16 157.83 374.76 160.03 375.97 160.68 372.99 165.85 372.18 167.63 374.9 165.72 381.95 165.49 385.13 169.38 388.68 164.75 389.74 161.92 394.81 158.02 396.96 155.95 396.73 150.71 399.72 150.17 397.74 146.84 397.6 148.54 406.57 147.45 410.23 143.63 413.62 142.58 418.72 140.05 416.99 136.72 417.48 134.72 414.04 136.17 412.59 136.85 407.68 132.39 405.59 132.13 407.2 126.6 409.35 123.12 416.08 121.49 416.55 120.92 406.47 115.35 406.04 113.54 402.63 111.13 402.89 109.42 397.86 105.35 396.14 104.19 393.57 103.56 384.84 100.7 384.35 99.42 381.22 101.33 379.39 101.53 376.46 99.06 373.69 99.79 370.4 107.46 369.5 108.52 371.66 113.27 376.8 116.73 375.9 120.56 369.85 123 371.31 126.05 371.17 130.46 372.58 133.82 374.56 133.96 371.7 136.09 369.66 136.93 365.85 139.13 362.86 142.81 364.33 145.15 363.45 150.5 364.8 153.61 364.21 Z" id="칠곡군"/>
<path d="M 320.71 379.35 322.01 381.7 319.69 384.53 326.28 389.4 329.86 390.78 331.81 390.36 332.29 387.9 341.14 382.03 341.38 379.37 346.45 374.54 349.06 370.01 349.59 367.49 354.18 369.14 356 376.22 355.86 382.27 357.31 384.1 353.86 388.89 351 391.82 351.57 396.1 350.07 399.73 347.29 404 345.33 404.84 344.66 407.88 346.65 411.86 347 416.93 344.98 419.41 346.72 421.77 344.83 427.19 343.67 427.93 339.4 426.92 337.39 424.58 332.41 426.22 328.56 418.39 326.68 417.35 324.2 419.15 322.74 423.72 319.55 422.43 315.73 423.14 312.34 420.28 314.28 418.1 309.96 416.55 307.91 413.65 308.29 409.32 306.67 404.36 304.34 402.37 305.01 400.57 301.07 392.82 301.69 391.78 299.78 386.68 295.99 382.34 297.41 377.77 297.74 373.97 299.11 374.44 302.41 378.76 306.45 378.73 310.87 385.63 314.23 381.99 314.96 376.79 317.69 381.98 320.71 379.35 Z" id="포항시 남구"/>
<path d="M 322.62 371.11 319.45 373.48 316.95 373.58 314.96 376.79 314.23 381.99 310.87 385.63 306.45 378.73 302.41 378.76 299.11 374.44 297.74 373.97 295.64 369.97 289.44 371.89 288.21 376.66 285.36 378.83 281.4 379.02 276.96 382.96 275.9 378.02 273.56 376.25 270.9 376.37 268.78 375.48 266.08 370.08 264.36 370.6 261.58 369.02 259.37 366.28 259.4 364.21 261.47 362.02 260.01 360.11 254.2 361.27 252.32 358.21 253.05 355.14 249.2 351.94 238.26 349.13 238.46 347.39 245.75 344.92 245.83 342.07 247.26 340.33 248.49 335.76 251.37 335.23 256.4 332.23 254.72 328.45 251.24 327.49 250.36 325.04 255.5 322.17 258.44 322.76 262.19 325.18 266.35 325.65 267.23 328.51 270.42 332.15 275.47 333.96 279.25 329.83 281.09 324.26 284.14 322.58 284.83 320.13 284.18 315.59 285.84 312.78 289.72 310.66 292.66 310.8 296.53 307.64 299.01 310.49 298.99 313.33 296.44 316.39 297.67 320.85 300.34 323.63 302.15 322.72 307.44 323.78 310.1 322.18 314.61 323.27 314.06 326.49 315.97 329.83 316.81 334.59 316.18 337.34 314.21 338.28 315.18 342.49 318.03 343.76 319.88 348.59 319.03 354.51 319.67 356.02 324.81 360.62 328.03 361.63 328.07 364.91 324.12 367.08 324.22 370.15 322.62 371.11 Z" id="포항시 북구"/>
</g>
</svg>