<?xml version="1.0"?>
<svg xmlns="http://www.w3.org/2000/svg" version="1.2" baseProfile="tiny" width="800" height="812" viewBox="0 0 800 812" stroke-linecap="round" stroke-linejoin="round">
<g id="경상남도_시군구_경계">
<path d="M 527.05 531.15 522.73 550.33 510.18 547.04 527.05 531.15 Z M 538.47 664.14 521.31 679.48 528.41 690.56 516.01 699.71 508 714.79 492.56 707.16 505.94 695.24 491.4 691.49 496.61 629.14 488.44 624.77 483.1 637.52 467.48 636.97 461.32 652.15 453.96 637.41 444.4 633.37 439.57 614.5 448.83 597.49 464.38 585.23 476.99 593.5 495.54 588.74 500.28 595.81 510.42 593.45 507.07 583.69 494.48 569.66 513.3 559.29 524.35 561.44 528.05 543.45 535.9 538.41 537.37 519.41 555.65 518.67 558.08 530.24 550.81 533.79 547.48 550.01 563.45 569.28 557.59 575.27 561.87 588.74 548.95 608.53 555.72 614.84 567.37 602.26 572.22 615.35 552.39 631.04 563.39 637.16 561.82 647.57 548.02 653 538.09 647.85 538.47 664.14 Z" fill-rule="evenodd" id="거제시"/>
<path d="M 249.45 47.48 239.03 62.04 231.55 62.33 224.1 71.22 231.03 81.03 227.24 94.16 240.24 112.33 246.03 134.16 228.1 140.19 227.1 148.5 208.85 162.03 198.69 179.31 199.99 189.64 193.97 209.46 184.91 215.14 186.99 233.22 170.76 234.57 158.67 223.3 148.7 228.09 147.02 214.17 136.77 202.96 126.47 194.87 135.23 187.13 143.92 172.27 145.14 154.13 125.31 148.42 106.99 123.09 101.63 122.51 84.06 107.22 77.08 114.02 68.61 107.23 65.43 97.63 50.77 85.11 60.83 72.86 70.05 67.98 79.72 48.75 121.72 25.71 129.06 26.93 134.79 17.95 137.73 2.94 147.2 1 154.02 14.65 166.08 12.47 173.25 27.85 192.97 35.07 211.3 48.7 219.98 44.67 230.57 48.03 239.29 41.27 249.45 47.48 Z" id="거창군"/>
<path d="M 377.48 463.84 382.06 474.57 416.71 488.69 414.36 505.49 433.03 509.33 452.2 530.96 434.52 545.85 420.15 547.67 423.73 555.5 403.7 556.51 399.25 567.49 376.48 576.35 364.21 570.81 354.64 577.55 353.71 590.45 345.22 593.5 336.26 585.51 334.64 575.04 317.15 571.56 304.52 577.02 307.14 602.7 291.11 601.05 284.21 594.04 273.07 606.1 257.66 590.82 266.77 585.9 264.15 579.33 272.71 564.35 274.02 551.56 282.6 545.12 287.39 523.75 297.87 509.63 299.53 484.88 309.83 472.47 341.13 460.96 357.05 465.26 377.48 463.84 Z" id="고성군"/>
<path d="M 631.79 309.65 639.86 319.74 650.57 320.06 666.85 335.52 678.24 341.03 684.32 358.05 700.42 373 693.6 394.27 686.54 399.32 664.96 401.12 655.48 407.68 638.91 409.12 631.36 416.84 636.91 427.88 632.43 438.94 618.36 442.86 594.36 443.67 579.58 437.47 568.62 438.07 573.05 417.65 561.99 414.54 560.46 396.46 554.86 384.85 548.92 360.91 556.2 344.23 568.25 340.39 578.54 332.15 589.18 328.57 597 315.28 624.5 301.85 631.79 309.65 Z" id="김해시"/>
<path d="M 224.34 587.7 216.05 603.55 219.11 610.51 231.24 601.31 241.06 618.1 237.8 630.82 220.27 630.9 215.08 636.03 194.37 634.06 189.93 617.79 198 611.24 206.3 594.02 224.34 587.7 Z M 161.49 623.19 168.13 637.75 180.18 643.98 186.11 656.13 203.56 639.84 223.56 638.54 240.82 651.26 236.25 665.81 236.49 691.03 226.27 699.53 230.69 716.8 205.15 706.73 188.78 713.16 181.49 690.57 181.25 672.13 161.19 681.06 165.99 696.93 155.2 705.6 143.38 702.38 137.11 690.44 129.36 689.38 132.92 666.77 117.23 639.22 116.12 622.8 123.93 615.61 128.11 600.96 142.51 578.2 155.11 572.12 169.7 579.22 173.12 595.75 169.4 604.47 160.17 609.41 161.49 623.19 Z" fill-rule="evenodd" id="남해군"/>
<path d="M 688.94 222.26 680.77 234.56 671.43 239.86 676.74 255.82 668.01 266.4 652.69 268.1 646.93 275.22 654.73 283.38 649.85 290.14 639.6 290.38 631.79 309.65 624.5 301.85 597 315.28 589.18 328.57 578.54 332.15 568.39 330.65 553.87 318.69 541.97 313.59 523.21 315.38 519.9 304.58 522.92 287.42 513.11 271.71 489.89 269.08 483.8 246.11 493.18 219.57 489.35 202.04 493.87 191.41 498.58 193.96 525.73 183.35 539.56 184.61 547.27 194.59 557.6 192.43 573.95 200.52 590.51 198.54 594.44 188.31 610.32 182.32 620.22 182.29 629.62 167.65 649.4 156.11 662.09 159.22 682.43 174.56 701.95 171.45 700.23 189.05 680.54 201.44 690.65 214.17 688.94 222.26 Z" id="밀양시"/>
<path d="M 218.63 522.12 200.05 554.79 189.39 543.72 183.53 554.51 176.36 551.45 179.38 539.28 170.34 532.11 174.16 511.43 162.17 493.82 158.71 476.89 163.88 471.12 151.87 463.24 148.69 454.24 158.35 447.66 172.4 454.03 177.73 450.01 198.25 445.96 206.93 448.22 208.39 469.76 212.49 472.84 242.13 464.08 260.96 477.51 265.5 472.24 279.59 472.06 291.71 483.34 286.21 492.17 292.06 509.05 297.87 509.63 287.39 523.75 282.6 545.12 274.02 551.56 272.71 564.35 264.15 579.33 266.77 585.9 240.12 583.92 227.91 575.08 223.23 566.6 233.11 557.75 227.2 539.21 232.72 530.85 223.08 510.61 218.63 522.12 Z" id="사천시"/>
<path d="M 186.99 233.22 194.28 246.89 194.23 258.55 200.48 276.3 223.71 293.75 233.32 293.31 239.09 305.14 250.34 314.3 247.16 320.92 262.89 343.64 246.22 340.26 235.6 342.38 232.61 354.78 214.58 360.56 198.96 379.97 193.43 392.11 181.81 397.15 168.08 391.58 163.75 407 153.8 405.66 155.35 392.13 146.25 391.81 122.99 408.76 98.41 410.62 87.07 400.33 85.14 392.88 63.66 383.79 56.55 372.31 55.8 351.57 61.56 353.42 76.14 341.03 85.11 304.83 104.52 272.83 115.62 262.54 112.54 249.42 120.61 244.35 117.26 231.35 136.77 202.96 147.02 214.17 148.7 228.09 158.67 223.3 170.76 234.57 186.99 233.22 Z" id="산청군"/>
<path d="M 700.42 373 684.32 358.05 678.24 341.03 666.85 335.52 650.57 320.06 639.86 319.74 631.79 309.65 639.6 290.38 649.85 290.14 654.73 283.38 646.93 275.22 652.69 268.1 668.01 266.4 676.74 255.82 671.43 239.86 680.77 234.56 688.94 222.26 695.99 224.61 718.5 219.4 717.23 229.93 743.66 240.98 745.22 250.23 761.83 270.04 773.69 277.93 788.03 273.61 789.73 282.33 799 292.36 786.97 307.33 789.64 316.54 779.78 325.44 765.35 318.28 757.91 323.13 748.21 350.67 729.52 362.41 721.96 360.27 717.18 370.97 700.42 373 Z" id="양산시"/>
<path d="M 390.84 234.45 406 241.7 410.99 255.73 393.77 265.39 389.35 278.31 395.38 286.47 412.43 292.22 419.4 305.89 411.29 313.81 413.37 323.66 393.91 326.32 396.82 341.69 379.5 337.73 371.47 326.43 358.94 327.59 361.5 346.4 348.48 360.29 354 371.6 344.7 376.02 340.7 386.85 327.26 389.23 314.37 382.9 302.55 382.25 294.92 374.34 291.11 353.64 293.34 347.58 281.81 331.87 262.89 343.64 247.16 320.92 255.12 321.74 269.49 310.08 279.83 310.62 299.16 303.18 296.8 291.23 304.9 281.05 307.58 266.85 304.09 257.84 322.03 246.25 333.68 244.65 335.85 237.12 359.54 233.53 374.96 241.53 387.27 241.23 390.84 234.45 Z" id="의령군"/>
<path d="M 340.7 386.85 352.7 391.21 357.4 403.34 368.07 416.68 379.33 414.92 386.37 423.92 384.13 448.9 377.48 463.84 357.05 465.26 341.13 460.96 309.83 472.47 299.53 484.88 297.87 509.63 292.06 509.05 286.21 492.17 291.71 483.34 279.59 472.06 265.5 472.24 260.96 477.51 242.13 464.08 212.49 472.84 208.39 469.76 206.93 448.22 198.25 445.96 177.73 450.01 178.01 442.09 162.51 430.87 155.74 422.31 153.8 405.66 163.75 407 168.08 391.58 181.81 397.15 193.43 392.11 198.96 379.97 214.58 360.56 232.61 354.78 235.6 342.38 246.22 340.26 262.89 343.64 281.81 331.87 293.34 347.58 291.11 353.64 294.92 374.34 302.55 382.25 314.37 382.9 327.26 389.23 340.7 386.85 Z" id="진주시"/>
<path d="M 493.87 191.41 489.35 202.04 493.18 219.57 483.8 246.11 489.89 269.08 513.11 271.71 522.92 287.42 519.9 304.58 523.21 315.38 515.31 319.23 499.17 304.7 487.04 312.29 469.27 313.11 450.62 300.95 440.25 312.56 426.06 311.23 419.4 305.89 412.43 292.22 395.38 286.47 389.35 278.31 393.77 265.39 410.99 255.73 406 241.7 390.84 234.45 376.92 220.81 380.48 194.41 376.7 180.93 382.93 175.37 403.45 174.45 422.4 160.22 439.35 161.84 451.39 159.18 452.73 138.31 461.14 138.94 466.37 147.04 466.52 168.5 476.97 173.59 478.62 180.76 493.87 191.41 Z" id="창녕군"/>
<path d="M 493.69 413.1 482.63 427.27 490.02 435.68 498.76 453.98 500.9 476.38 513.72 487.49 503.84 503.56 482.44 493.3 489.18 484.41 473.79 480.04 471.44 473.14 454.43 480.07 449.56 475.27 432.68 485.55 433.09 496.14 422.21 495.91 414.36 505.49 416.71 488.69 382.06 474.57 377.48 463.84 384.13 448.9 386.37 423.92 397.4 416.6 403.91 429.24 418.01 441.58 424.5 431.69 440.87 427.12 459.88 433.43 471.09 425.01 468.58 414.04 482.31 409.33 493.95 412.32 493.69 413.1 Z" id="창원시 마산합포구"/>
<path d="M 492.46 376.71 512.71 409.11 493.68 413.1 493.95 412.32 482.31 409.33 468.58 414.04 471.09 425.01 459.88 433.43 440.87 427.12 446.08 415.87 438.3 406.79 438.32 395.7 446.06 376.32 466.89 380.34 478.65 373.92 492.46 376.71 Z" id="창원시 마산회원구"/>
<path d="M 560.46 396.46 561.99 414.54 573.05 417.65 568.62 438.07 567.46 444.37 543.31 436.81 533.83 430.45 518.48 433.05 504.82 448.42 495.99 432.97 494.51 419.81 515.7 407.82 524.33 407.6 535.11 400.22 560.46 396.46 Z" id="창원시 성산구"/>
<path d="M 523.21 315.38 541.97 313.59 553.87 318.69 568.39 330.65 578.54 332.15 568.25 340.39 556.2 344.23 548.92 360.91 554.86 384.85 560.46 396.46 535.11 400.22 524.33 407.6 515.7 407.82 512.71 409.11 492.46 376.71 485.86 360.06 490.15 354.64 481.76 343.95 478.91 329.05 487.54 321.1 487.04 312.29 499.17 304.7 515.31 319.23 523.21 315.38 Z" id="창원시 의창구"/>
<path d="M 584.2 499.74 580.34 491.14 568.98 487.41 549.26 468.82 542.78 452.91 521.8 457.34 514.53 449.62 504.82 448.42 518.48 433.05 533.83 430.45 543.31 436.81 567.46 444.37 568.62 438.07 579.58 437.47 594.36 443.67 605.12 458.08 613.73 459.56 618.73 469.45 611.96 483.3 603.68 490.75 591.09 490.94 584.2 499.74 Z" id="창원시 진해구"/>
<path d="M 325.31 746.86 330.6 746.18 354.6 757.99 344.76 765.28 320.96 758.39 325.31 746.86 Z M 444.09 647.93 450.76 667.9 457.7 676.82 447.11 682.48 438.02 667.17 444.09 647.93 Z M 324.95 635.83 336 652.74 318.21 657.43 307.16 648.28 314.76 635.42 324.95 635.83 Z M 308.12 623.74 317.43 627.21 299.83 642.99 292.19 626.48 308.12 623.74 Z M 423.73 555.5 418.91 564.38 418.37 585.64 412.52 592.17 415.44 607.59 430.45 597.02 437.66 605.95 429.77 629.68 421.45 634.8 424.66 656.11 417.09 677.87 403.2 677.5 394.28 648.75 383.43 642.67 383.19 633.57 400.22 642.14 393.69 626.94 398.79 620.32 365.73 608.21 358.86 593.58 374.11 593.52 376.48 576.35 399.25 567.49 403.7 556.51 423.73 555.5 Z" fill-rule="evenodd" id="통영시"/>
<path d="M 55.8 351.57 56.55 372.31 63.66 383.79 85.14 392.88 87.07 400.33 98.41 410.62 122.99 408.76 146.25 391.81 155.35 392.13 153.8 405.66 155.74 422.31 162.51 430.87 178.01 442.09 177.73 450.01 172.4 454.03 158.35 447.66 148.69 454.24 151.87 463.24 163.88 471.12 158.71 476.89 162.17 493.82 174.16 511.43 170.34 532.11 156.58 565.53 150.46 570.61 129.72 569.79 111.97 579.37 101.54 574.11 92.67 554.98 101 546.36 103.02 528.36 94.79 510.91 81.05 503.25 59 477.84 58.49 465.01 49.62 453.51 36.29 445.8 24.71 432.66 21.51 421.31 22.98 407.71 17.61 385.53 10.57 381.93 1 359.43 14.96 352.13 22.71 343.71 32.16 348.42 55.8 351.57 Z" id="하동군"/>
<path d="M 487.04 312.29 487.54 321.1 478.91 329.05 481.76 343.95 490.15 354.64 485.86 360.06 492.46 376.71 478.65 373.92 466.89 380.34 446.06 376.32 438.32 395.7 438.3 406.79 446.08 415.87 440.87 427.12 424.5 431.69 418.01 441.58 403.91 429.24 397.4 416.6 386.37 423.92 379.33 414.92 368.07 416.68 357.4 403.34 352.7 391.21 340.7 386.85 344.7 376.02 354 371.6 348.48 360.29 361.5 346.4 358.94 327.59 371.47 326.43 379.5 337.73 396.82 341.69 393.91 326.32 413.37 323.66 411.29 313.81 419.4 305.89 426.06 311.23 440.25 312.56 450.62 300.95 469.27 313.11 487.04 312.29 Z" id="함안군"/>
<path d="M 136.77 202.96 117.26 231.35 120.61 244.35 112.54 249.42 115.62 262.54 104.52 272.83 85.11 304.83 76.14 341.03 61.56 353.42 55.8 351.57 32.16 348.42 22.71 343.71 17.56 323.93 25.06 317.4 30.23 304.18 41.95 295.12 44.21 282.54 29.86 266.79 30.68 256.69 37.56 252.64 21.79 222.7 6.32 210.59 17.9 194.65 19.4 179.57 29.57 174.12 22.08 159.75 31.34 143.61 36.33 123.51 41.89 119.88 42.49 89.68 50.77 85.11 65.43 97.63 68.61 107.23 77.08 114.02 84.06 107.22 101.63 122.51 106.99 123.09 125.31 148.42 145.14 154.13 143.92 172.27 135.23 187.13 126.47 194.87 136.77 202.96 Z" id="함양군"/>
<path d="M 382.93 175.37 376.7 180.93 380.48 194.41 376.92 220.81 390.84 234.45 387.27 241.23 374.96 241.53 359.54 233.53 335.85 237.12 333.68 244.65 322.03 246.25 304.09 257.84 307.58 266.85 304.9 281.05 296.8 291.23 299.16 303.18 279.83 310.62 269.49 310.08 255.12 321.74 247.16 320.92 250.34 314.3 239.09 305.14 233.32 293.31 223.71 293.75 200.48 276.3 194.23 258.55 194.28 246.89 186.99 233.22 184.91 215.14 193.97 209.46 199.99 189.64 198.69 179.31 208.85 162.03 227.1 148.5 228.1 140.19 246.03 134.16 240.24 112.33 227.24 94.16 231.03 81.03 224.1 71.22 231.55 62.33 239.03 62.04 249.45 47.48 265.83 54.02 264.61 63.48 272.24 74.84 280.37 73.49 285.6 87.07 297.39 93.95 303.2 110.82 304.71 132.95 283.61 144.02 303.63 157.99 317.16 160.35 323.25 151.09 333.24 158.35 341.49 152.61 354.31 150.63 375.27 155.81 382.93 175.37 Z" id="합천군"/>
</g>
</svg>