<?xml version="1.0"?>
<svg xmlns="http://www.w3.org/2000/svg" version="1.2" baseProfile="tiny" width="800" height="545" viewBox="0 0 800 545" stroke-linecap="round" stroke-linejoin="round">
<g id="광주광역시_시군구_경계">
<path d="M 398.97 80.84 405.63 93.6 437.69 99.05 442.25 153.19 452.94 194.48 406.03 213.25 403 233.29 376.47 246.16 376.57 278.2 385.89 310.25 362.65 332.86 369.53 349.08 357.76 370.4 327.67 389.95 326.35 436.03 290.46 484.63 258.53 496.81 244.56 474.17 238.46 441.84 183.86 396.22 123.75 392.27 96.44 397.48 68.97 386.94 53.95 403.97 38.49 387.09 12.58 381.56 1 362.71 8.34 319.67 6.98 247.64 43.26 233.1 5.95 173.16 57.52 177.46 58.29 150.32 79.63 114.11 112.76 134.49 145.61 121.99 150.53 84.3 188.18 18.58 238.32 1 245.58 15.09 224.01 57.73 269.23 75.44 313.25 103.89 398.97 80.84 Z" id="광산구"/>
<path d="M 558.81 291.08 592.21 335.31 579.12 373.95 562.83 379.29 578.86 442.72 549.3 467.54 505.2 468.48 475.42 487.36 440.77 476.56 414.89 510.62 367.51 524.48 360.8 542.06 327.86 544 309.26 520.99 280.35 539.92 253.6 539.39 244.94 512.01 258.53 496.81 290.46 484.63 326.35 436.03 344.8 442.83 376.33 437.31 424.22 404.36 462.6 395.13 482.33 367.97 512.46 364.11 506.3 297.63 530.26 283.07 558.81 291.08 Z" id="남구"/>
<path d="M 762.57 366.02 753.1 384.52 723.66 405.68 726.3 437.23 680.57 448.99 648.72 491.49 606.79 487.9 578.86 442.72 562.83 379.29 579.12 373.95 592.21 335.31 558.81 291.08 553.3 285.11 573.3 248.31 621.9 258.33 657.96 287.12 649.22 307.22 683.93 324.02 717.91 324.05 737.4 361.82 762.57 366.02 Z" id="동구"/>
<path d="M 762.57 366.02 737.4 361.82 717.91 324.05 683.93 324.02 649.22 307.22 657.96 287.12 621.9 258.33 573.3 248.31 553.3 285.11 511.63 258.69 503.96 236.75 453.42 229.88 406.03 213.25 452.94 194.48 442.25 153.19 437.69 99.05 405.63 93.6 398.97 80.84 486.48 25.15 509.85 35.67 551.33 4.32 571.04 4.52 606.81 24.18 609.64 48.52 641.71 77.06 647.33 114.81 668.97 145.15 665.01 176.27 685.39 207.78 698.03 194.73 769.29 197.48 799 244.87 778.45 247.63 769.15 306.2 776.29 357.66 762.57 366.02 Z" id="북구"/>
<path d="M 553.3 285.11 558.81 291.08 530.26 283.07 506.3 297.63 512.46 364.11 482.33 367.97 462.6 395.13 424.22 404.36 376.33 437.31 344.8 442.83 326.35 436.03 327.67 389.95 357.76 370.4 369.53 349.08 362.65 332.86 385.89 310.25 376.57 278.2 376.47 246.16 403 233.29 406.03 213.25 453.42 229.88 503.96 236.75 511.63 258.69 553.3 285.11 Z" id="서구"/>
</g>
</svg>