<?xml version="1.0"?>
<svg xmlns="http://www.w3.org/2000/svg" version="1.2" baseProfile="tiny" width="800" height="567" viewBox="0 0 800 567" stroke-linecap="round" stroke-linejoin="round">
<g id="광주광역시_시군구_경계">
<path d="M 411.34 81.11 467.84 200.08 418.73 219.73 335.32 452.97 264.33 516.59 186.16 411.29 6.86 395.94 1 255.73 77.05 115.94 146.12 124.19 190.68 15.93 321.61 105.24 411.34 81.11 Z" id="광산구"/>
<path d="M 578.67 301.21 599.65 459.97 336.9 566 264.33 516.59 335.32 452.97 387.64 454.31 530.14 377.67 578.67 301.21 Z" id="남구"/>
<path d="M 791.97 379.67 672.79 511.02 599.65 459.97 578.67 301.21 572.89 294.96 644.7 266.92 791.97 379.67 Z" id="동구"/>
<path d="M 791.97 379.67 644.7 266.92 572.89 294.96 521.25 244.34 418.73 219.73 467.84 200.08 411.34 81.11 570.83 1 628.91 21.8 724.4 200.34 799 203.22 791.97 379.67 Z" id="북구"/>
<path d="M 572.89 294.96 578.67 301.21 530.14 377.67 387.64 454.31 335.32 452.97 418.73 219.73 521.25 244.34 572.89 294.96 Z" id="서구"/>
</g>
</svg>