<?xml version="1.0"?>
<svg xmlns="http://www.w3.org/2000/svg" version="1.2" baseProfile="tiny" width="800" height="974" viewBox="0 0 800 974" stroke-linecap="round" stroke-linejoin="round">
<g id="대구광역시_시군구_경계">
<path d="M 500.41 390.91 499.89 457.8 468.69 501.05 461.52 504.98 412.73 465.45 397.55 441.35 432.56 400.54 433.99 379.24 450.54 388.03 500.41 390.91 Z" id="남구"/>
<path d="M 255.47 488.23 255.53 487.27 255.83 482.85 255.87 482.29 256.02 474.75 251.92 453.16 227.79 430.64 235.48 386.21 252.3 361.39 290.26 372.72 325.45 357.9 342.21 376.43 382.53 393.66 433.38 373.15 433.99 379.24 432.56 400.54 397.55 441.35 412.73 465.45 461.52 504.98 456.73 526.02 425.65 530.1 427.9 572.16 397.13 589.23 377.3 557.07 355.06 556.71 322.31 526.36 315.67 501.21 289.32 482.04 257.68 486.33 255.47 488.23 Z" id="달서구"/>
<path d="M 461.52 504.98 468.69 501.05 542.65 516.39 586.05 515.21 647.55 545.02 655.93 596.89 673.03 623.75 665.86 687.31 650.99 710.19 598.87 719.46 578.75 743 527.04 756.4 515.35 739.72 514.57 674.66 449.08 671.11 346.58 734.58 361.35 779.48 347.36 805.74 311.33 826.42 305.88 911.05 257.11 921.87 215.76 909.48 188.38 915.29 158.55 955.6 148.26 947.86 111.58 973 74.97 965.3 99.93 929.47 97.26 898.65 42.78 848.46 12.38 811.27 1 774.65 15.14 747.49 62.06 764.36 120.02 777.47 162.49 750.06 157.82 705.54 77.76 651.55 62.26 623.46 88.21 580.9 109.71 528.92 134.38 504.28 173.84 511.88 231.64 511.6 255.43 488.27 257.68 486.33 289.32 482.04 315.67 501.21 322.31 526.36 355.06 556.71 377.3 557.07 397.13 589.23 427.9 572.16 425.65 530.1 456.73 526.02 461.52 504.98 Z M 296.9 305.2 339.13 312.24 319.65 325.11 325.45 357.9 290.26 372.72 252.3 361.39 235.48 386.21 227.79 430.64 180.29 411.07 123.93 402.38 60.33 400.37 61.42 369.52 89.96 295.5 105.5 284.76 139.66 218.73 193.98 197.58 240.27 202.36 233.59 250.54 219.34 264.75 238.99 298.55 271.69 293.72 296.9 305.2 Z" fill-rule="evenodd" id="달성군"/>
<path d="M 729.96 381.38 651.14 378.92 632.98 346.6 583.5 333.6 542.18 362.04 512.49 358.95 504.38 342.6 545.34 253.32 544.4 218.35 531.36 196.23 533.33 145.99 517.82 98.22 487.14 71.3 514.05 26.18 559.49 15.88 579.69 23.36 666.56 1 727.04 30.35 743.97 55.87 736.62 74.24 766.78 103.91 752.98 141.69 763.52 173.5 751.41 211.8 786.34 242.87 799 308.83 796.66 360.45 755.56 396.53 729.96 381.38 Z" id="동구"/>
<path d="M 504.38 342.6 444.33 333.26 436.14 312.99 367.41 299.49 339.13 312.24 296.9 305.2 306.8 260.63 344.3 227.31 354.98 191.44 338.28 103.37 370.91 104.77 376.21 124.22 427.7 94.84 448.02 97.1 487.14 71.3 517.82 98.22 533.33 145.99 531.36 196.23 544.4 218.35 545.34 253.32 504.38 342.6 Z" id="북구"/>
<path d="M 444.33 333.26 433.38 373.15 382.53 393.66 342.21 376.43 325.45 357.9 319.65 325.11 339.13 312.24 367.41 299.49 436.14 312.99 444.33 333.26 Z" id="서구"/>
<path d="M 729.96 381.38 728.11 423.55 697.68 456.75 715.67 503.97 676.76 534.51 647.55 545.02 586.05 515.21 542.65 516.39 468.69 501.05 499.89 457.8 500.41 390.91 512.49 358.95 542.18 362.04 583.5 333.6 632.98 346.6 651.14 378.92 729.96 381.38 Z" id="수성구"/>
<path d="M 504.38 342.6 512.49 358.95 500.41 390.91 450.54 388.03 433.99 379.24 433.38 373.15 444.33 333.26 504.38 342.6 Z" id="중구"/>
</g>
</svg>