<?xml version="1.0"?>
<svg xmlns="http://www.w3.org/2000/svg" version="1.2" baseProfile="tiny" width="800" height="988" viewBox="0 0 800 988" stroke-linecap="round" stroke-linejoin="round">
<g id="대구광역시_시군구_경계">
<path d="M 477.94 423.45 443.57 542.78 435.79 547.04 405.96 410.8 477.94 423.45 Z" id="남구"/>
<path d="M 212.48 528.9 212.55 527.85 212.88 523.07 212.92 522.46 213.08 514.29 208.63 490.89 182.49 466.49 288.32 387.69 405.29 404.2 405.96 410.8 435.79 547.04 366.01 638.32 214.87 526.83 212.48 528.9 Z" id="달서구"/>
<path d="M 435.79 547.04 443.57 542.78 637.41 590.42 641.13 769.38 506.8 819.44 422.31 727.04 311.22 795.8 267.11 987 41.03 973.56 106.65 764.34 3.09 675.41 81.25 546.29 212.44 528.93 214.87 526.83 366.01 638.32 435.79 547.04 Z M 257.38 330.59 303.15 338.21 288.32 387.69 182.49 466.49 1 433.7 86.97 236.9 196.02 219.16 257.38 330.59 Z" fill-rule="evenodd" id="달성군"/>
<path d="M 726.72 413.13 567.99 361.36 491.03 388.82 482.24 371.1 526.64 274.38 463.56 77.17 492.73 28.29 658 1 766.63 112.5 749.96 229.4 799 390.45 726.72 413.13 Z" id="동구"/>
<path d="M 482.24 371.1 417.17 360.99 303.15 338.21 257.38 330.59 343.34 134.5 463.56 77.17 526.64 274.38 482.24 371.1 Z" id="북구"/>
<path d="M 417.17 360.99 405.29 404.2 288.32 387.69 303.15 338.21 417.17 360.99 Z" id="서구"/>
<path d="M 726.72 413.13 711.23 545.94 637.41 590.42 443.57 542.78 477.94 423.45 491.03 388.82 567.99 361.36 726.72 413.13 Z" id="수성구"/>
<path d="M 482.24 371.1 491.03 388.82 477.94 423.45 405.96 410.8 405.29 404.2 417.17 360.99 482.24 371.1 Z" id="중구"/>
</g>
</svg>