<?xml version="1.0"?>
<svg xmlns="http://www.w3.org/2000/svg" version="1.2" baseProfile="tiny" width="800" height="919" viewBox="0 0 800 919" stroke-linecap="round" stroke-linejoin="round">
<g id="대전광역시_시군구_경계">
<path d="M 665.14 59.64 566.23 186.98 582.54 331.19 445.19 404.98 413.75 374.43 383.1 298.2 436.16 261.57 408.96 1 665.14 59.64 Z" id="대덕구"/>
<path d="M 465.69 871.25 524.29 763.57 480.03 588.34 516.85 504.15 445.19 404.98 582.54 331.19 566.23 186.98 665.14 59.64 799 125.44 741.6 372.02 690.42 408.11 658.08 782.14 526.41 918 465.69 871.25 Z" id="동구"/>
<path d="M 383.1 298.2 413.75 374.43 324.1 646.11 253.87 905.3 101.57 818.19 95.17 673.57 220.55 442.54 383.1 298.2 Z" id="서구"/>
<path d="M 408.96 1 436.16 261.57 383.1 298.2 220.55 442.54 95.17 673.57 1 631.91 4.27 452.26 59.38 390.71 68.47 145.83 193.84 119.82 285.71 1.36 408.96 1 Z" id="유성구"/>
<path d="M 465.69 871.25 324.1 646.11 413.75 374.43 445.19 404.98 516.85 504.15 480.03 588.34 524.29 763.57 465.69 871.25 Z" id="중구"/>
</g>
</svg>