<?xml version="1.0"?>
<svg xmlns="http://www.w3.org/2000/svg" version="1.2" baseProfile="tiny" width="800" height="979" viewBox="0 0 800 979" stroke-linecap="round" stroke-linejoin="round">
<g id="대전광역시_시군구_경계">
<path d="M 637.09 195.8 595.29 258.62 547.01 311.84 530.47 382.37 561.87 443.26 539.32 467.34 505.07 474.07 473.2 459.87 436.78 510.5 408.15 482.66 380.23 413.2 428.56 379.82 433.52 312.1 450.61 281.06 432.54 245.4 375.66 197.52 371.6 176.48 403.78 142.37 491.01 141.15 530.95 164.17 560.01 142.09 579.59 86.52 616.72 83.33 598.76 134.89 610.44 149.38 658.17 141.98 668.2 155.96 637.09 195.8 Z" id="대덕구"/>
<path d="M 455.45 935.4 464.04 880.34 508.81 837.27 473.61 764.42 499.57 734.44 468.51 677.59 507.4 654.57 548.36 661.5 523.19 611.32 502.05 600.87 473.22 545.3 436.78 510.5 473.2 459.87 505.07 474.07 539.32 467.34 561.87 443.26 530.47 382.37 547.01 311.84 595.29 258.62 637.09 195.8 630.61 218 660.66 294.03 685.11 288.75 694.13 249.85 759.01 255.76 799 337.06 757.85 330.67 722.99 362.24 725.36 417.42 706.73 480.46 660.12 513.35 664.3 559.57 634.93 643.73 653.56 696.44 620.53 765.4 636.75 819.35 630.67 854.2 571.95 889.79 542.32 957.77 510.75 978 455.45 935.4 Z" id="동구"/>
<path d="M 380.23 413.2 408.15 482.66 402.64 518.67 370.2 551.07 350.99 649.78 313.65 689.46 326.5 730.24 301.9 743.78 294.22 788.93 307.42 821.49 294.95 879.5 262.54 966.43 200.52 950.75 177.85 892.4 155.18 877.11 123.83 887.05 94.09 836.1 86.15 793.95 118 755.26 164.91 727.44 196.05 651.16 223.18 635.3 236.18 598.11 232.2 544.73 280.51 529.31 266.41 482.15 332.73 412.62 380.23 413.2 Z" id="서구"/>
<path d="M 403.78 142.37 371.6 176.48 375.66 197.52 432.54 245.4 450.61 281.06 433.52 312.1 428.56 379.82 380.23 413.2 332.73 412.62 266.41 482.15 280.51 529.31 232.2 544.73 236.18 598.11 223.18 635.3 196.05 651.16 164.91 727.44 118 755.26 92.53 753.01 32.24 717.3 1 669.54 33.72 649.87 35.22 553.58 50.74 519.1 85.41 497.5 64.75 457.16 90.59 401.45 82.98 363.53 93.69 274.34 130.68 246.93 207.87 250.65 245.91 222.33 256.03 179.35 291.54 142.69 286.13 118.86 304.87 84.26 289.93 52.47 356.88 1 406.28 48.21 403.78 142.37 Z" id="유성구"/>
<path d="M 455.45 935.4 418.32 919.92 398.31 855.99 362.92 793.18 373.02 766.17 326.5 730.24 313.65 689.46 350.99 649.78 370.2 551.07 402.64 518.67 408.15 482.66 436.78 510.5 473.22 545.3 502.05 600.87 523.19 611.32 548.36 661.5 507.4 654.57 468.51 677.59 499.57 734.44 473.61 764.42 508.81 837.27 464.04 880.34 455.45 935.4 Z" id="중구"/>
</g>
</svg>