<?xml version="1.0"?>
<svg xmlns="http://www.w3.org/2000/svg" version="1.2" baseProfile="tiny" width="800" height="757" viewBox="0 0 800 757" stroke-linecap="round" stroke-linejoin="round">
<g id="부산광역시_시군구_경계">
<path d="M 214.62 609.26 227.87 609.87 223.25 619.24 214.62 609.26 Z M 164.94 606.42 151.93 604.64 140.17 598.92 150.12 590.91 175.68 597.21 164.94 606.42 Z M 116.69 613.13 118.78 609.11 102.12 600.39 110.39 596.3 129.42 596.72 134.82 604.97 116.69 613.13 Z M 115.86 614.73 122.25 627.97 124.43 646.78 121.14 661.13 113.28 673.24 100.46 704.61 109.73 710.77 104.82 729.46 83.1 734.55 81.81 722.84 88.8 703.63 83.06 693.51 68.33 688.84 63.44 681.67 70.65 673.07 59.24 667.32 65.54 659.8 65.81 651.27 55.54 637.59 46.66 637.25 41.23 626.88 33.27 626.97 32.98 611.77 37.31 605.85 95.34 593.21 95.17 581.64 63.67 582.12 63.52 572.19 74.12 572.02 85.98 565.96 89.31 559.02 99.16 565.48 99.75 600.56 95.94 617.33 104.9 625.44 115.86 614.73 Z M 76.81 546.94 80.94 537.48 99.33 536.53 108.54 529.32 110.26 516.12 99.6 505.77 102.14 496.34 94.78 485.49 68.13 480.9 47.96 464.13 47.3 455.52 34.82 436.26 53.15 430 68.38 430.31 85.93 438.48 98.63 431.79 109.11 433.76 114 421.38 134.21 414.71 145.74 415.39 152.66 421.6 148.69 432.01 166.24 430.26 159.53 419.64 165.56 408.16 166.52 387.35 158.9 378.77 158.39 369.43 149.36 353.14 162.16 337.46 172.72 329.22 188.95 331.2 206.26 324.4 212.35 313.75 224.01 324.78 237.64 317.95 253.36 304.46 266.58 307.96 303 303.76 328.45 295.22 338.96 286.96 341.25 292.75 337.68 328.77 334.37 340.94 326.32 350.78 310.46 365.96 294.4 376.17 289.95 384.07 289.86 419.46 286.91 437.19 285.71 470.49 273.27 484.7 268.19 496.38 258.83 504.06 249.64 520.07 243.05 529.54 242.44 551.84 222.47 557.63 215.56 563.86 214.12 577.59 190.09 577.96 189.89 564.58 195.55 542.35 197.43 517.92 204.7 505.82 192.57 501.89 180.59 524.94 178.57 557.36 171.93 572 173.01 577.47 152.24 575 149.14 570.62 102.51 570.76 99.15 561.73 94.46 561.88 76.81 546.94 Z" fill-rule="evenodd" id="강서구"/>
<path d="M 561.28 256.13 554.18 275.45 541.3 285.14 535.5 300.31 526.03 302.65 520.73 311.8 524.03 321.29 510.73 331.94 503.02 331.81 473.91 316.29 475.76 310.97 461.91 303.97 437.22 304.26 410.77 295.77 419.61 276.23 412.21 265.21 416.44 250.54 398.29 241.26 406.89 234.7 407.62 226.02 414.32 215.73 423.67 199.68 421.02 194.22 429.78 177.92 447.88 178.21 453.16 184.55 478.31 161.03 487.61 160.79 500.8 154.96 505.39 158.47 526.81 163.85 537.15 169.54 539.5 178.33 529.68 200.92 532.46 205.97 524.83 226.74 527.86 236.94 553.49 240.3 551.71 250.14 561.28 256.13 Z" id="금정구"/>
<path d="M 659.61 381.22 656.91 353.93 644.78 349 628.81 368.28 624.56 357.06 604.29 344.95 600.59 347.3 586 337.57 586.27 327.47 592.98 321.37 598.83 298.06 586.34 284.05 578 283.54 579.22 268.1 567.5 265 561.28 256.13 551.71 250.14 553.49 240.3 527.86 236.94 524.83 226.74 532.46 205.97 529.68 200.92 539.5 178.33 537.15 169.54 526.81 163.85 505.39 158.47 511.01 148.16 510.45 134.92 520.02 124.2 530.69 105.04 527.67 96.54 535.62 77.45 541.82 74.19 541.05 62.88 529.61 50.33 537.37 45.12 564.08 47.83 582.81 56.43 585.45 61.16 602.97 70.22 608.75 70.02 619.88 57.34 631.3 52.23 639.25 42.43 639.58 25 630.98 13.92 639.44 1 648.2 9.48 668.6 19.03 686.07 14.7 693.92 16.19 701.04 8.63 711 11.31 720.03 3.64 728.49 8.33 735.77 5.55 764.86 42.38 762.58 59.15 769.41 69.12 761.79 86.46 780.34 94.5 793.05 95.71 799 106.39 796.82 122.98 791.94 128.22 777.43 128.2 775.23 119.34 763.73 113.73 745.18 123.04 736.02 134.58 730.18 153.4 734.94 178.18 732.86 191.91 727.54 199.2 724.05 215.57 712.77 214.18 709.26 229.3 698.29 228.24 699.19 241.27 709.8 237.54 723.76 237.97 723.81 263.95 712.22 265.74 710.03 276.93 713.13 289.44 707.49 293.59 704.9 308.39 692.16 309.89 679.18 324.88 691.54 340 691.97 350.78 684.25 355.11 682.03 375.21 668.68 372.53 659.61 381.22 Z" id="기장군"/>
<path d="M 515.54 467.55 528.51 471.81 534.42 490.48 541.74 500.49 534.51 535.43 517.06 529.46 498.25 550.78 491.49 545.93 483.88 528.15 460.7 528.51 449.08 520.3 452.16 509.57 458.51 504.39 457.22 494.46 445.56 493.34 445.7 482.11 443.83 459.32 441.71 445.78 452.98 446.76 464.88 442.21 470.95 428.1 489.83 422.02 498.86 439.28 500.54 456.08 515.54 467.55 Z" id="남구"/>
<path d="M 443.83 459.32 445.7 482.11 431.72 502.49 426.03 498.02 418.22 505.75 423.9 512.82 413.85 521.92 410.09 515.8 395.91 505.99 388.6 507.73 384.3 503.52 386.17 490.54 385.29 470.81 404.95 461.97 408.47 451.15 424.49 457.99 443.83 459.32 Z" id="동구"/>
<path d="M 510.73 331.94 511.83 343.26 517.87 354.73 519.43 376.14 518.84 380.5 512.74 370.87 486.96 363.75 476.75 362.77 466.3 352.5 436.78 367.12 417.73 362.14 411.38 353.19 420.04 339.88 421.87 327.94 437.22 304.26 461.91 303.97 475.76 310.97 473.91 316.29 503.02 331.81 510.73 331.94 Z" id="동래구"/>
<path d="M 411.38 353.19 417.73 362.14 416.87 369.6 422.58 379.75 438.06 382.1 438.23 388.91 451.47 396.02 458.66 391.54 468.99 402.92 463.62 416.81 470.95 428.1 464.88 442.21 452.98 446.76 441.71 445.78 443.83 459.32 424.49 457.99 408.47 451.15 404.95 461.97 385.29 470.81 364.94 467.78 370.91 456.92 371.29 439.51 361.97 428.73 365.23 414.4 361.52 401.5 374.45 388.64 376.96 375.72 390.87 359.25 399.63 353.91 411.38 353.19 Z" id="부산진구"/>
<path d="M 414.32 215.73 407.62 226.02 406.89 234.7 398.29 241.26 416.44 250.54 412.21 265.21 419.61 276.23 410.77 295.77 437.22 304.26 421.87 327.94 420.04 339.88 411.38 353.19 399.63 353.91 390.87 359.25 376.96 375.72 357.09 374.83 335.65 361.9 326.7 360.99 326.32 350.78 334.37 340.94 337.68 328.77 341.25 292.75 338.96 286.96 341.98 283.24 368.53 214.15 388.92 211.23 414.32 215.73 Z" id="북구"/>
<path d="M 376.96 375.72 374.45 388.64 361.52 401.5 365.23 414.4 361.97 428.73 371.29 439.51 370.91 456.92 364.94 467.78 353.13 469.91 351.02 490.32 346.59 494.18 327.25 492.71 317.06 505.94 310.75 506.13 282.75 493.22 289.65 472.33 285.71 470.49 286.91 437.19 289.86 419.46 289.95 384.07 294.4 376.17 310.46 365.96 326.32 350.78 326.7 360.99 335.65 361.9 357.09 374.83 376.96 375.72 Z" id="사상구"/>
<path d="M 278.4 607.79 274.79 618.74 283.49 630.29 255.76 633.3 243.71 614.12 264.69 585.01 278.4 607.79 Z M 287.51 629.44 284.81 624.46 273.13 571.51 280.13 545.61 281.6 527.19 270.17 524.96 268.42 540.05 262.07 563.22 246.84 586 240.3 578.17 245.16 566.47 246.49 541.37 251.17 526.8 249.64 520.07 258.83 504.06 268.19 496.38 273.27 484.7 285.71 470.49 289.65 472.33 282.75 493.22 310.75 506.13 317.06 505.94 327.25 492.71 346.59 494.18 352.65 516.16 363.28 526.22 358.64 534.61 369.23 548.09 365.12 579.31 354.94 576.42 355.95 565.39 337.58 566.57 340.67 581.58 341.61 604.29 351.16 631.75 346.99 639.07 337.8 637.72 331.21 614.41 325.44 611.16 314.65 616.98 318.36 632.45 308.25 630.8 300.41 642.41 287.51 629.44 Z" fill-rule="evenodd" id="사하구"/>
<path d="M 364.94 467.78 385.29 470.81 386.17 490.54 384.3 503.52 388.6 507.73 389.62 513.5 381.14 522.58 380.04 532.86 387.56 544.24 388.14 563.88 385.42 579.84 373.92 584.39 380.59 592.15 382.38 606.44 366.51 624 362.07 609.35 365.44 604.6 356.72 589.89 354.94 576.42 365.12 579.31 369.23 548.09 358.64 534.61 363.28 526.22 352.65 516.16 346.59 494.18 351.02 490.32 353.13 469.91 364.94 467.78 Z" id="서구"/>
<path d="M 519.43 376.14 535.87 413.87 543.39 421.23 548.26 433.44 533.63 436.65 520.69 443.55 524.17 459.82 515.54 467.55 500.54 456.08 498.86 439.28 489.83 422.02 483.91 414.44 492.12 403.03 491.83 390.25 502.11 386.46 513.47 394.88 518.84 380.5 519.43 376.14 Z" id="수영구"/>
<path d="M 518.84 380.5 513.47 394.88 502.11 386.46 491.83 390.25 492.12 403.03 483.91 414.44 489.83 422.02 470.95 428.1 463.62 416.81 468.99 402.92 458.66 391.54 451.47 396.02 438.23 388.91 438.06 382.1 422.58 379.75 416.87 369.6 417.73 362.14 436.78 367.12 466.3 352.5 476.75 362.77 486.96 363.75 512.74 370.87 518.84 380.5 Z" id="연제구"/>
<path d="M 442.18 529.82 436.85 534.81 451.07 542.86 467.83 563.09 474.25 580.61 487.9 570.99 491.17 577.97 477.91 582.49 478.48 599.32 493.11 611.78 486.28 625.4 473.88 625.98 465.52 608.02 446.1 605.4 447.43 594.55 434.43 591.69 399.96 563.65 394.91 547.73 406.38 545.55 442.18 529.82 Z" id="영도구"/>
<path d="M 413.85 521.92 413.3 529.56 404.53 541.88 387.56 544.24 380.04 532.86 381.14 522.58 389.62 513.5 388.6 507.73 395.91 505.99 410.09 515.8 413.85 521.92 Z" id="중구"/>
<path d="M 659.61 381.22 649.57 385.23 643.59 393.88 642.58 412.87 635.34 421.3 620.27 431.75 602.38 424.42 579.59 429.85 577.05 438.03 561.57 433.58 555.37 420.96 543.39 421.23 535.87 413.87 519.43 376.14 517.87 354.73 511.83 343.26 510.73 331.94 524.03 321.29 520.73 311.8 526.03 302.65 535.5 300.31 541.3 285.14 554.18 275.45 561.28 256.13 567.5 265 579.22 268.1 578 283.54 586.34 284.05 598.83 298.06 592.98 321.37 586.27 327.47 586 337.57 600.59 347.3 604.29 344.95 624.56 357.06 628.81 368.28 644.78 349 656.91 353.93 659.61 381.22 Z" id="해운대구"/>
</g>
</svg>