<?xml version="1.0"?>
<svg xmlns="http://www.w3.org/2000/svg" version="1.2" baseProfile="tiny" width="800" height="790" viewBox="0 0 800 790" stroke-linecap="round" stroke-linejoin="round">
<g id="부산광역시_시군구_경계">
<path d="M 120.99 641.56 129.94 675.01 104.91 735.37 71.34 718.91 68.7 679.7 34.71 654.33 38.93 632.29 99.55 619.1 120.99 641.56 Z M 80.2 570.8 115.15 538.64 98.97 506.67 71.13 501.87 36.33 455.29 113.94 452.67 159.44 439.99 173.92 404.24 155.99 368.54 180.4 343.57 233.97 338.93 264.64 317.72 316.5 316.99 354.06 299.46 352.72 343.09 340.85 366.07 302.86 400.81 298.43 491.01 260.75 542.76 253.23 575.92 223.64 602.79 107.04 595.66 80.2 570.8 Z" fill-rule="evenodd" id="강서구"/>
<path d="M 586.32 267.29 578.9 287.44 533.51 346.4 482.51 317.22 456.72 317.52 425.02 244.92 432.8 225.11 448.94 185.65 473.37 192.58 499.64 168.03 527.93 165.35 561.12 176.91 551.4 247.25 586.32 267.29 Z" id="금정구"/>
<path d="M 689.05 397.84 686.22 369.35 652.43 372.62 612.15 352.28 625.55 311.05 586.32 267.29 551.4 247.25 561.12 176.91 527.93 165.35 554.37 109.59 565.18 65.58 589.25 49.88 635.91 73.03 667.77 44.24 667.98 1 698.43 19.82 768.61 5.75 799 44.19 795.79 90.2 762.77 160.06 767.74 185.93 756.37 224.95 756.12 275.44 712.47 391.57 689.05 397.84 Z" id="기장군"/>
<path d="M 538.53 487.94 565.91 522.32 558.35 558.79 481.24 551.57 465.57 503.14 463.62 479.36 491.96 446.76 511.67 440.43 538.53 487.94 Z" id="남구"/>
<path d="M 463.62 479.36 465.57 503.14 432.31 544.69 405.92 529.88 402.47 491.34 426.68 470.83 463.62 479.36 Z" id="동구"/>
<path d="M 533.51 346.4 542.6 392.53 541.98 397.08 487.09 367.86 436.35 377.92 429.72 368.58 456.72 317.52 482.51 317.22 533.51 346.4 Z" id="동래구"/>
<path d="M 429.72 368.58 436.35 377.92 441.43 396.31 489.91 420.49 491.96 446.76 463.62 479.36 426.68 470.83 402.47 491.34 381.21 488.18 387.84 458.68 377.63 419.01 393.76 392.1 429.72 368.58 Z" id="부산진구"/>
<path d="M 432.8 225.11 425.02 244.92 456.72 317.52 429.72 368.58 393.76 392.1 340.85 366.07 352.72 343.09 354.06 299.46 384.96 223.46 432.8 225.11 Z" id="북구"/>
<path d="M 393.76 392.1 377.63 419.01 387.84 458.68 381.21 488.18 362.04 515.73 324.59 528.21 295.35 514.73 298.43 491.01 302.86 400.81 340.85 366.07 393.76 392.1 Z" id="사상구"/>
<path d="M 300.32 656.91 285.29 596.45 256.07 591.19 260.75 542.76 298.43 491.01 295.35 514.73 324.59 528.21 362.04 515.73 385.69 572 370.76 601.57 356.84 630.66 300.32 656.91 Z" id="사하구"/>
<path d="M 381.21 488.18 402.47 491.34 405.92 529.88 404.84 567.98 397.56 617.99 370.76 601.57 385.69 572 362.04 515.73 381.21 488.18 Z" id="서구"/>
<path d="M 542.6 392.53 567.63 439.6 538.53 487.94 511.67 440.43 513.77 407.26 541.98 397.08 542.6 392.53 Z" id="수영구"/>
<path d="M 541.98 397.08 513.77 407.26 511.67 440.43 491.96 446.76 489.91 420.49 441.43 396.31 436.35 377.92 487.09 367.86 541.98 397.08 Z" id="연제구"/>
<path d="M 461.9 552.93 488.69 587.66 499.82 625.47 465.99 631.82 417.79 588.24 412.51 571.63 461.9 552.93 Z" id="영도구"/>
<path d="M 432.31 544.69 404.84 567.98 405.92 529.88 432.31 544.69 Z" id="중구"/>
<path d="M 689.05 397.84 647.94 450.58 629.26 442.92 586.62 452.49 567.63 439.6 542.6 392.53 533.51 346.4 578.9 287.44 586.32 267.29 625.55 311.05 612.15 352.28 652.43 372.62 686.22 369.35 689.05 397.84 Z" id="해운대구"/>
</g>
</svg>