<?xml version="1.0"?>
<svg xmlns="http://www.w3.org/2000/svg" version="1.2" baseProfile="tiny" width="800" height="663" viewBox="0 0 800 663" stroke-linecap="round" stroke-linejoin="round">
<g id="서울특별시_시군구_경계">
<path d="M 553.2 423.58 575.01 432.82 579.3 486.11 653.08 519.83 684.54 574.89 628.14 599.35 592.77 553.29 542.27 571.67 460.71 429.79 478.01 409.38 553.2 423.58 Z" id="강남구"/>
<path d="M 725.57 452.35 656.25 387.86 668 354.76 784.37 297.87 799 380.54 760.89 383.82 725.57 452.35 Z" id="강동구"/>
<path d="M 527.92 174.13 541.75 189.55 488.27 220.72 414.88 159.47 432.34 55.97 462.9 42.4 469.82 121.19 527.92 174.13 Z" id="강북구"/>
<path d="M 160.76 315.32 212.55 353.52 212.81 373.21 180.12 417.89 99.09 390.76 1 371.3 62.34 233.54 160.76 315.32 Z" id="강서구"/>
<path d="M 407.87 549.16 421.11 594.02 326.73 648.24 303.98 612.74 247.29 541.82 255.55 527.6 284.1 515.78 290.24 514.08 354.63 513.71 407.87 549.16 Z" id="관악구"/>
<path d="M 668 354.76 656.25 387.86 575.01 432.82 553.2 423.58 584.92 346.59 596.34 317.6 640.36 313.18 668 354.76 Z" id="광진구"/>
<path d="M 200.68 464.52 209.36 447.18 255.55 527.6 247.29 541.82 199.94 526.35 143.05 554.14 92.68 539.03 103.52 469.7 200.68 464.52 Z" id="구로구"/>
<path d="M 199.94 526.35 247.29 541.82 303.98 612.74 266.81 652.39 222.32 597.41 199.94 526.35 Z" id="금천구"/>
<path d="M 649.89 199.56 581.03 211.3 541.75 189.55 527.92 174.13 553.9 135.17 546.45 39.49 632.08 31.94 628.85 140.45 649.89 199.56 Z" id="노원구"/>
<path d="M 546.45 39.49 553.9 135.17 527.92 174.13 469.82 121.19 462.9 42.4 476.19 1 546.45 39.49 Z" id="도봉구"/>
<path d="M 596.34 317.6 584.92 346.59 490.03 317.01 489.97 316.99 489.61 302.09 582.88 230.36 596.34 317.6 Z" id="동대문구"/>
<path d="M 407.87 549.16 354.63 513.71 290.24 514.08 284.1 515.78 255.55 527.6 301.97 453.41 346.68 448.85 405.78 475.98 407.87 549.16 Z" id="동작구"/>
<path d="M 254.8 305.66 321.95 357.06 370.15 347.77 371.46 365.91 336.64 409.13 259.6 390.05 212.55 353.52 160.76 315.32 216.2 269.35 254.8 305.66 Z" id="마포구"/>
<path d="M 379.98 331.26 370.15 347.77 321.95 357.06 254.8 305.66 348.93 221.82 379.98 331.26 Z" id="서대문구"/>
<path d="M 628.14 599.35 578.11 662 522.76 644.28 515.27 601.72 421.11 594.02 407.87 549.16 405.78 475.98 460.71 429.79 542.27 571.67 592.77 553.29 628.14 599.35 Z" id="서초구"/>
<path d="M 584.92 346.59 553.2 423.58 478.01 409.38 461.73 384.59 490.03 317.01 584.92 346.59 Z" id="성동구"/>
<path d="M 541.75 189.55 581.03 211.3 582.88 230.36 489.61 302.09 423.74 269.1 397.7 170.7 414.88 159.47 488.27 220.72 541.75 189.55 Z" id="성북구"/>
<path d="M 725.57 452.35 757.06 493.03 684.54 574.89 653.08 519.83 579.3 486.11 575.01 432.82 656.25 387.86 725.57 452.35 Z" id="송파구"/>
<path d="M 200.68 464.52 103.52 469.7 99.09 390.76 180.12 417.89 212.81 373.21 209.36 447.18 200.68 464.52 Z" id="양천구"/>
<path d="M 336.64 409.13 346.68 448.85 301.97 453.41 255.55 527.6 209.36 447.18 212.81 373.21 212.55 353.52 259.6 390.05 336.64 409.13 Z" id="영등포구"/>
<path d="M 461.73 384.59 478.01 409.38 460.71 429.79 405.78 475.98 346.68 448.85 336.64 409.13 371.46 365.91 461.73 384.59 Z" id="용산구"/>
<path d="M 364.82 175.95 348.93 221.82 254.8 305.66 216.2 269.35 251.9 219.83 275.62 139.2 344.79 108.38 364.82 175.95 Z" id="은평구"/>
<path d="M 489.61 302.09 489.97 316.99 379.98 331.26 348.93 221.82 364.82 175.95 397.7 170.7 423.74 269.1 489.61 302.09 Z" id="종로구"/>
<path d="M 490.03 317.01 461.73 384.59 371.46 365.91 370.15 347.77 379.98 331.26 489.97 316.99 490.03 317.01 Z" id="중구"/>
<path d="M 640.36 313.18 596.34 317.6 582.88 230.36 581.03 211.3 649.89 199.56 673.95 238.11 640.36 313.18 Z" id="중랑구"/>
</g>
</svg>