<?xml version="1.0"?>
<svg xmlns="http://www.w3.org/2000/svg" version="1.2" baseProfile="tiny" width="800" height="666" viewBox="0 0 800 666" stroke-linecap="round" stroke-linejoin="round">
<g id="서울특별시_시군구_경계">
<path d="M 553.63 422.79 575.4 432.01 579.68 485.2 630.11 501.1 653.33 518.85 684.74 573.81 671.65 584.27 646.18 584.23 628.44 598.22 619.26 572.01 593.13 552.25 570.96 566.01 542.71 570.6 524.8 527.54 510.22 529.58 485.81 464.39 479.15 438.29 461.29 428.99 478.56 408.61 523.04 404.4 553.63 422.79 Z" id="강남구"/>
<path d="M 725.7 451.5 675.81 424.44 683.96 398.25 656.49 387.14 668.22 354.09 683.26 337.77 711.79 325.88 733.64 325.93 768.2 300.4 784.39 297.32 797.57 344.28 799 379.82 760.96 383.1 742.27 410.6 725.7 451.5 Z" id="강동구"/>
<path d="M 528.39 173.8 542.19 189.2 517.75 217.23 488.8 220.3 462.48 202.66 455.99 189.41 415.54 159.17 413.21 110.21 435.15 84.58 432.97 55.86 463.48 42.33 477.95 68.02 470.39 120.96 509.68 147.33 528.39 173.8 Z" id="강북구"/>
<path d="M 161.86 314.73 186.23 336.16 213.56 352.86 213.82 372.51 177.84 381.31 181.18 417.11 135.69 424.82 121.59 387.33 100.29 390.03 61.07 384.78 2.37 370.6 1 349.04 33.99 304.62 45.54 282.9 60.13 274.14 53.51 256.84 63.61 233.11 161.86 314.73 Z" id="강서구"/>
<path d="M 408.55 548.13 419.3 569.89 421.76 592.9 394.45 601.89 374.38 621.6 373.36 634.94 327.55 647.02 304.83 611.59 292.88 595.91 277.08 592.7 266 556.65 269.19 537 248.24 540.8 256.49 526.61 284.99 514.81 291.11 513.11 304.55 502.38 322.62 510.2 341.46 504.92 355.4 512.74 386.87 550.82 408.55 548.13 Z" id="관악구"/>
<path d="M 668.22 354.09 656.49 387.14 618.69 426.7 593.73 437.13 575.4 432.01 553.63 422.79 585.29 345.95 596.69 317.01 620.46 322.4 640.63 312.59 640.96 343.54 648.28 354.83 668.22 354.09 Z" id="광진구"/>
<path d="M 201.71 463.65 210.37 446.34 230.76 460.92 241.79 510.97 256.49 526.61 248.24 540.8 230.59 540.1 214.16 524.97 200.98 525.36 191.32 503.48 158.55 533.71 144.18 553.1 93.89 538.02 94.76 490.93 104.72 468.82 125.18 482.37 148.49 466.2 169.72 465.57 199.38 481.07 201.71 463.65 Z" id="구로구"/>
<path d="M 200.98 525.36 214.16 524.97 230.59 540.1 248.24 540.8 269.19 537 266 556.65 277.08 592.7 292.88 595.91 304.83 611.59 289.77 632.66 267.73 651.16 247.92 639.34 238.12 605.08 223.31 596.29 220.08 573.48 207.49 553.49 200.98 525.36 Z" id="금천구"/>
<path d="M 650.15 199.18 612.45 199.21 581.41 210.91 564.17 212.3 542.19 189.2 528.39 173.8 543.86 139.18 554.32 134.92 541.21 83.97 546.89 39.42 569.39 17.36 603.66 14.56 611.47 28.58 632.37 31.88 624.44 55.9 631.7 76.79 622.8 104.22 629.14 140.19 652.38 138.32 661.72 146.37 662.02 172.14 650.15 199.18 Z" id="노원구"/>
<path d="M 546.89 39.42 541.21 83.97 554.32 134.92 543.86 139.18 528.39 173.8 509.68 147.33 470.39 120.96 477.95 68.02 463.48 42.33 462.4 27.24 476.74 1 503.53 6.4 509.48 24.57 540.86 19.32 546.89 39.42 Z" id="도봉구"/>
<path d="M 596.69 317.01 585.29 345.95 558.94 340.09 527.68 314.67 503.89 321.58 490.56 316.42 490.5 316.4 490.15 301.53 528.84 255.61 561.91 243.3 583.25 229.93 579.95 259.84 596.69 317.01 Z" id="동대문구"/>
<path d="M 408.55 548.13 386.87 550.82 355.4 512.74 341.46 504.92 322.62 510.2 304.55 502.38 291.11 513.11 284.99 514.81 256.49 526.61 275.47 498.94 288.1 496.14 302.83 452.56 347.46 448.01 394.15 472.73 406.45 475.08 411.21 498.34 408.55 548.13 Z" id="동작구"/>
<path d="M 255.73 305.09 306.28 336.25 322.77 356.39 370.89 347.11 372.19 365.22 350.43 402.35 337.43 408.36 309.93 389.75 260.52 389.32 249.22 373.2 213.56 352.86 186.23 336.16 161.86 314.73 185.55 301.03 205.78 299.46 217.2 268.85 255.73 305.09 Z" id="마포구"/>
<path d="M 380.7 330.63 370.89 347.11 322.77 356.39 306.28 336.25 255.73 305.09 274.4 281.92 292.2 288.44 329.49 239.6 349.71 221.4 364.83 252.73 362.52 296.34 380.7 330.63 Z" id="서대문구"/>
<path d="M 628.44 598.22 613.88 626.2 586.61 643.32 578.49 660.76 547.13 665 523.24 643.07 515.76 600.59 494.89 593.44 471.89 601.21 449.22 571.25 421.76 592.9 419.3 569.89 408.55 548.13 411.21 498.34 406.45 475.08 461.29 428.99 479.15 438.29 485.81 464.39 510.22 529.58 524.8 527.54 542.71 570.6 570.96 566.01 593.13 552.25 619.26 572.01 628.44 598.22 Z" id="서초구"/>
<path d="M 585.29 345.95 553.63 422.79 523.04 404.4 478.56 408.61 462.31 383.87 480.07 352.91 495.36 339.08 490.56 316.42 503.89 321.58 527.68 314.67 558.94 340.09 585.29 345.95 Z" id="성동구"/>
<path d="M 542.19 189.2 564.17 212.3 581.41 210.91 583.25 229.93 561.91 243.3 528.84 255.61 490.15 301.53 462.1 295.44 442.54 266.1 424.39 268.59 400.55 252.66 419.88 237.86 414.27 196.14 398.39 170.38 415.54 159.17 455.99 189.41 462.48 202.66 488.8 220.3 517.75 217.23 542.19 189.2 Z" id="성북구"/>
<path d="M 725.7 451.5 715.78 471.69 757.13 492.1 749.31 519.12 732.36 531.34 722.27 555.92 684.74 573.81 653.33 518.85 630.11 501.1 579.68 485.2 575.4 432.01 593.73 437.13 618.69 426.7 656.49 387.14 683.96 398.25 675.81 424.44 725.7 451.5 Z" id="송파구"/>
<path d="M 201.71 463.65 199.38 481.07 169.72 465.57 148.49 466.2 125.18 482.37 104.72 468.82 102.47 452.8 111.9 418.47 100.29 390.03 121.59 387.33 135.69 424.82 181.18 417.11 177.84 381.31 213.82 372.51 231.93 406.63 209.75 428.08 210.37 446.34 201.71 463.65 Z" id="양천구"/>
<path d="M 337.43 408.36 347.58 424.87 347.46 448.01 302.83 452.56 288.1 496.14 275.47 498.94 256.49 526.61 241.79 510.97 230.76 460.92 210.37 446.34 209.75 428.08 231.93 406.63 213.82 372.51 213.56 352.86 249.22 373.2 260.52 389.32 309.93 389.75 337.43 408.36 Z" id="영등포구"/>
<path d="M 462.31 383.87 478.56 408.61 461.29 428.99 406.45 475.08 394.15 472.73 347.46 448.01 347.58 424.87 337.43 408.36 350.43 402.35 372.19 365.22 385.38 355.39 416.78 360.33 435.7 376.19 453.36 369.04 462.31 383.87 Z" id="용산구"/>
<path d="M 365.56 175.62 347.05 190.62 349.71 221.4 329.49 239.6 292.2 288.44 274.4 281.92 255.73 305.09 217.2 268.85 251.23 271.44 256.22 237.58 252.84 219.42 265.63 193.83 276.52 138.94 299.46 134.73 345.57 108.18 363.36 118.72 375.12 166.48 365.56 175.62 Z" id="은평구"/>
<path d="M 490.15 301.53 490.5 316.4 426.15 325.25 398.11 322.07 380.7 330.63 362.52 296.34 364.83 252.73 349.71 221.4 347.05 190.62 365.56 175.62 398.39 170.38 414.27 196.14 419.88 237.86 400.55 252.66 424.39 268.59 442.54 266.1 462.1 295.44 490.15 301.53 Z" id="종로구"/>
<path d="M 490.56 316.42 495.36 339.08 480.07 352.91 462.31 383.87 453.36 369.04 435.7 376.19 416.78 360.33 385.38 355.39 372.19 365.22 370.89 347.11 380.7 330.63 398.11 322.07 426.15 325.25 490.5 316.4 490.56 316.42 Z" id="중구"/>
<path d="M 640.63 312.59 620.46 322.4 596.69 317.01 579.95 259.84 583.25 229.93 581.41 210.91 612.45 199.21 650.15 199.18 670.72 202.73 674.16 237.67 666.48 248.52 656.37 289.25 640.63 312.59 Z" id="중랑구"/>
</g>
</svg>