<?xml version="1.0"?>
<svg xmlns="http://www.w3.org/2000/svg" version="1.2" baseProfile="tiny" width="800" height="1151" viewBox="0 0 800 1151" stroke-linecap="round" stroke-linejoin="round">
<g id="세종특별자치시_시군구_경계">
<path d="M 122.54 1 211.13 17.83 215.88 36.53 269.54 54.96 332.37 125.4 420.65 139.78 509.01 174.96 501.67 226.16 417.37 324.37 454.57 335.14 504.97 458.39 498.08 524.64 547.8 523.17 590.92 572.12 659.31 599.55 706.92 579.78 710.84 643.81 727.56 674.26 777.45 674.24 796.77 736.44 799 837.38 760.94 849.69 725.87 819.5 651.64 876.53 668.22 911.76 653.43 976.51 614.06 1017.13 602.84 1064.76 560.66 1096.13 475.07 1092.02 459.74 1116.99 370.13 1119.02 344.23 1150 322.12 1112.23 272.32 1094.75 248.27 1054.03 200.45 1035.82 212.82 963.48 172.24 891.84 184.36 856.01 133.45 845.44 135.56 810.43 113.94 786.88 149.45 743.05 122.9 700.38 126.5 669.44 182.67 589.46 209.33 580.22 222.74 543 180.47 532.74 163.74 487.78 122.81 480.69 73.66 440.65 59.92 399.38 81.05 339.72 68.09 309.45 72.62 236.63 99.26 186.32 78.02 141.44 41.45 148.9 1 73.53 51.59 41.57 65.32 9.21 122.54 1 Z" id="세종시"/>
</g>
</svg>