<?xml version="1.0"?>
<svg xmlns="http://www.w3.org/2000/svg" version="1.2" baseProfile="tiny" width="800" height="780" viewBox="0 0 800 780" stroke-linecap="round" stroke-linejoin="round">
<g id="울산광역시_시군구_경계">
<path d="M 611.49 343.15 636.16 353.12 648.26 363.17 658.18 364.59 660.14 383.54 656.31 405.16 673.86 407.09 677 435.89 665.56 434.71 648.78 438.09 650.99 444.63 663.95 440.12 680.03 464.34 674.88 469.72 672.72 487.35 656.82 502.81 662.21 507.62 656.07 514.84 648.42 530.97 625.22 521.57 618.32 503.57 603.54 492.43 597.16 476.73 586.33 470 579.34 462.86 568.29 466.57 565.99 459.35 552.52 456.63 548.07 448.13 536.88 451.96 525 436.89 515.65 412.93 504.34 408.58 496.95 399.59 489.32 383.88 467.5 383.27 459.2 378.7 431 372.37 451.47 353.59 461.79 335.77 468.96 340.8 477.46 330.41 486.02 337.17 501.49 337.4 512.95 343.13 519.82 350.52 528.59 353.28 538.85 349.06 538.59 340.3 544.94 337.16 556.92 341.16 574.69 343.18 584.35 341.32 611.49 343.15 Z" id="남구"/>
<path d="M 676.39 385.28 683.46 393.92 702.18 399.14 710.49 407.14 713.41 391.18 698.35 380.87 706.83 364.73 704.98 356.43 709.46 348.73 709.03 336.13 714.67 333.38 716.85 322.18 727.63 312.12 742.83 305.41 767.59 303.91 780.55 295.53 789.51 320.81 790.22 331.74 785.32 336.19 783.29 353.72 779.42 366.13 781.57 376.4 759.27 381.31 761.86 393.79 771.2 393.42 773.5 401.98 771.08 414.74 750.94 415.87 749.27 427.59 765.62 423.92 766.21 435.82 754.17 439.07 748.32 447.78 753.38 453.66 761.18 450.85 762.58 463.15 750.65 476.77 743.64 467.99 723.21 478.5 724.42 486.86 713.61 495.77 705.31 484.31 704.88 464.22 711.46 452.34 702.74 439.49 690.58 436.89 692.37 415.76 676.39 385.28 Z" id="동구"/>
<path d="M 780.55 295.53 767.59 303.91 742.83 305.41 727.63 312.12 716.85 322.18 714.67 333.38 709.03 336.13 709.46 348.73 704.98 356.43 706.83 364.73 698.35 380.87 713.41 391.18 710.49 407.14 702.18 399.14 683.46 393.92 676.39 385.28 658.18 364.59 648.26 363.17 636.16 353.12 611.49 343.15 616.07 340.61 613.1 325.86 619.35 321.15 617.39 296.23 610.24 271.12 610.3 251.83 595.5 251.08 587.07 255.12 581.96 244.76 570.53 245.91 547.54 265.4 537.97 255.67 516.38 257.59 519.09 241.45 530.09 224.78 531.39 215.62 522.36 207.74 521.92 192.47 527.46 181.66 524.24 157.73 532.62 148.5 536.81 130.39 547.46 123.55 560.47 128.47 574.53 126.4 575.72 118.73 584.41 104.52 593.95 104.6 607.13 90.03 615.24 85.23 631.02 86.05 644.93 98.77 646.75 104.42 661.56 100.25 692.3 107.56 696.29 115.54 709 113.93 737.55 129.74 755.16 130.06 770.12 137.75 770.24 144.21 759.34 151.05 758.75 174.94 764.59 191.56 775.17 203.38 774.25 209.83 786.28 211.16 785.92 220.66 793.26 224.35 798.07 240.41 795.81 251.28 799 265.42 790.06 269.19 781.13 278.45 780.55 295.53 Z" id="북구"/>
<path d="M 524.24 157.73 527.46 181.66 521.92 192.47 522.36 207.74 531.39 215.62 530.09 224.78 519.09 241.45 516.38 257.59 522.2 273.01 518.74 287.79 507.37 287.48 504.45 276.36 485 269.94 475.27 273.36 462.39 266.11 457.69 268.71 464.14 296.86 462.89 310.69 466.35 321.44 477.46 330.41 468.96 340.8 461.79 335.77 451.47 353.59 431 372.37 459.2 378.7 467.5 383.27 489.32 383.88 496.95 399.59 504.34 408.58 515.65 412.93 525 436.89 536.88 451.96 548.07 448.13 552.52 456.63 565.99 459.35 568.29 466.57 579.34 462.86 586.33 470 599.14 482.43 596.24 493.92 613.45 511.67 618.13 543.44 634.2 543.78 632.81 553.91 642.95 556.55 645.5 565.12 653.6 568.47 641.97 589.25 640.33 625.81 636.09 632.62 626.44 634.13 629.24 651.03 614.83 659.8 616.88 668.56 612.11 682.7 613.12 688.9 629.81 694.98 629.97 705.64 638.3 708.86 641.98 719.22 636.48 726.91 621.85 728.65 615.89 734.07 606.34 725.48 595.12 730.11 593.36 743.22 581.61 743.69 574.67 751.81 574.58 761.43 567.61 761.73 562.28 777.95 548.11 779 541.68 767.47 527.95 766.16 507.91 757.49 514.6 748.02 516.14 738.77 508.77 728.01 511.23 709.91 503.07 698.07 479.8 670.15 471.94 673.15 462.79 668.09 453.04 676.37 442.28 673.48 434.59 681.64 426.11 680.04 407.23 684.7 389.9 678.06 378.71 667.68 381.22 658.06 389.22 651.62 390.9 644.36 406.83 629.13 392.35 604.03 379.13 600.69 375.82 595.59 378.73 579.81 370.16 566.44 359.79 574.15 340.14 580.1 331.12 577.56 322.2 580.89 302.14 567.62 297.09 561.77 282.53 554.5 274.09 541.83 262.91 533.59 254.78 523.17 247.22 519.79 246.2 506.59 239.61 495.91 227 488.27 222.07 468.55 221.78 457.33 215 452.41 195.28 451.32 188.65 444.57 177.76 442.45 148.12 429.77 133.4 420.38 132.25 400.7 139.39 395.22 137.65 385.17 100.32 398.67 91.99 395.95 80.71 402.05 62.38 402.6 63.33 394.51 54.5 392.43 40.14 395.34 40.77 380.6 44.51 367.7 29.62 348.32 16.11 358.9 2.84 339.88 1 331.63 10.71 325.11 39.62 315.87 58.89 291.17 76.55 283.7 82.57 268.83 85.34 251.63 82.04 245.65 82.32 224.85 71.96 219.36 57.77 219.77 49.26 211.83 61.27 200.14 73.73 192.83 78.24 181.97 87.43 179.23 101.95 187.68 114.4 169.74 119.86 150.7 156.3 160.25 166.58 170.12 175.08 164.24 173.13 152.64 167.26 149.16 153.6 133.74 155.13 113.37 153.47 105.19 161.32 96.76 156.06 86.93 167.61 65.79 176.93 56.3 193.95 45.46 209.24 38.39 229.39 33.95 243.18 34.13 248.09 22.45 259.16 26.26 267.61 13.95 270.32 2.27 279.86 1 295.67 11.24 301.39 20.19 322.71 20 330.62 14.93 335.73 2.03 346.86 10.61 360.98 16.6 373.89 6.48 405.22 28.81 417.24 30.83 421.03 39.82 432.94 39.62 441.77 43.56 458.11 45.45 467.75 64.28 467.28 74.6 461.64 80.29 465.65 88.24 463.77 101.74 455.92 113.53 457.36 125.32 464.64 136.25 480.67 143.38 489.11 139.37 502.04 141.82 524.24 157.73 Z" id="울주군"/>
<path d="M 611.49 343.15 584.35 341.32 574.69 343.18 556.92 341.16 544.94 337.16 538.59 340.3 538.85 349.06 528.59 353.28 519.82 350.52 512.95 343.13 501.49 337.4 486.02 337.17 477.46 330.41 466.35 321.44 462.89 310.69 464.14 296.86 457.69 268.71 462.39 266.11 475.27 273.36 485 269.94 504.45 276.36 507.37 287.48 518.74 287.79 522.2 273.01 516.38 257.59 537.97 255.67 547.54 265.4 570.53 245.91 581.96 244.76 587.07 255.12 595.5 251.08 610.3 251.83 610.24 271.12 617.39 296.23 619.35 321.15 613.1 325.86 616.07 340.61 611.49 343.15 Z" id="중구"/>
</g>
</svg>