<?xml version="1.0"?>
<svg xmlns="http://www.w3.org/2000/svg" version="1.2" baseProfile="tiny" width="800" height="788" viewBox="0 0 800 788" stroke-linecap="round" stroke-linejoin="round">
<g id="울산광역시_시군구_경계">
<path d="M 609.18 346.55 656.45 368.27 678.56 469.32 646.56 536.81 583.71 475.05 533.65 456.78 485.51 387.81 426.47 376.15 473.49 333.64 525.26 356.81 541.8 340.48 609.18 346.55 Z" id="남구"/>
<path d="M 674.88 389.22 697.11 384.76 726.75 315.12 780.32 298.31 789.39 323.92 770.85 397.47 762.14 468.11 704.15 489.54 674.88 389.22 Z" id="동구"/>
<path d="M 780.32 298.31 726.75 315.12 697.11 384.76 674.88 389.22 656.45 368.27 609.18 346.55 617.14 324.26 607.97 254.05 567.71 248.04 544.44 267.8 512.9 259.88 526.78 226.64 520.86 158.72 544.36 124.1 571.77 126.98 612.97 85.28 707.89 114.36 758.86 151.96 764.16 192.99 786.13 212.84 799 267.81 780.32 298.31 Z" id="북구"/>
<path d="M 520.86 158.72 526.78 226.64 512.9 259.88 500.82 278.89 453.48 271.15 473.49 333.64 426.47 376.15 485.51 387.81 533.65 456.78 583.71 475.05 615.9 549.44 651.81 574.8 638.38 632.88 610.83 696.79 640.05 727.51 592.61 738.53 559.36 787 504.32 766.27 507.68 718.07 475.87 677.8 402.4 692.54 373.53 675.3 402 636.24 370.61 602.26 364.87 572.74 316.33 587.37 276.16 560.64 219.95 493.55 214.67 462.21 125.2 424.79 91.71 402.79 30.79 399.42 35.22 371.42 1 328.28 67.65 286.32 73.49 226.71 40.02 213.52 111.49 151.6 148.38 161.28 148.14 87.01 169.26 55.98 330.02 1 368.65 5.5 463.67 64.06 460.52 136.96 520.86 158.72 Z" id="울주군"/>
<path d="M 609.18 346.55 541.8 340.48 525.26 356.81 473.49 333.64 453.48 271.15 500.82 278.89 512.9 259.88 544.44 267.8 567.71 248.04 607.97 254.05 617.14 324.26 609.18 346.55 Z" id="중구"/>
</g>
</svg>