<?xml version="1.0"?>
<svg xmlns="http://www.w3.org/2000/svg" version="1.2" baseProfile="tiny" width="800" height="501" viewBox="0 0 800 501" stroke-linecap="round" stroke-linejoin="round">
<g id="인천광역시_시군구_경계">
<path d="M 595.02 166.06 596 166.85 601.29 166.23 601.48 168.47 600.25 173.49 600.72 175.49 598.47 176.24 594.18 172.79 591.01 167.48 594.04 165.17 595.02 166.06 Z M 594.24 162.41 590.27 163.52 590.76 160.4 594.24 162.41 Z M 580.04 151.44 580.79 154.12 585.02 161.2 583.3 163.26 578.9 162.89 578.03 160.82 573.75 157.9 570.21 158.64 567.3 157.91 566.25 155.55 569.23 154.36 572.44 155.04 578.04 151.53 580.04 151.44 Z M 559.24 150.65 559.31 153.03 556.39 151.59 554.87 152.4 553.18 150.23 554.88 147.62 559.24 150.65 Z M 599.69 136.11 593.9 137.17 590.25 136.01 592.24 131.21 594.95 129.57 596.06 134.52 599.69 136.11 Z M 607.21 131.83 606.32 133.32 603.33 132.82 603.34 130 606.24 127.04 607.21 131.83 Z M 629.88 123.6 627.74 125.91 625.68 131.12 625.19 134.22 625.48 138.35 627.2 140.77 629.16 141.45 631.56 144.4 634.47 146.3 643.56 148 643.84 149.88 646.19 150.99 647.62 153.21 646.26 159.66 644.64 161.96 641.09 163.42 639.26 165.72 636.09 167.79 634.18 168.02 632.52 169.74 629.03 166.77 627.54 163.79 628.71 162.42 629.1 158.87 627.4 157.28 625.54 153.37 624.01 151.91 616.73 148.45 614.55 147.04 612.81 143.91 608.19 140.58 608.53 139.08 612.15 140.67 613.89 138.97 615.03 133.34 614.41 131.58 614.94 125.13 616.22 124.19 620.11 123.74 625.39 120.79 627.85 121.17 629.88 123.6 Z M 607.04 91.38 617.07 96.77 624.18 97.74 629.45 96.04 631.55 100.2 630.36 101.58 630.64 103.79 628.87 104.75 624.64 110.87 616.27 114.94 611.97 113.04 608.86 112.81 604.53 114.85 600.79 114.26 598.36 115.6 594.37 120.9 592.05 119.78 585.12 112.83 584.32 110.64 586.3 110.16 588.41 108.32 590.24 104.98 590.9 102.15 589.45 100.21 591.35 98.16 591.11 95.91 597.54 90.32 599.84 91.56 603.52 91.63 606.37 90.21 607.04 91.38 Z M 670.43 87.83 676.55 95.37 680.99 98.42 688.24 104.17 693.94 106.46 695.26 107.68 695.9 111.28 697.39 113.16 696.42 114.68 696.87 116.96 699.02 120.58 702.29 123.97 701.65 127.48 699.07 130.78 697.51 134.23 697.02 138.6 698.54 142.18 701.65 145.01 700.26 146.66 699.26 151.7 699.6 153.94 698.47 155.66 699.03 159.13 700.64 160.89 703.83 161.81 704.12 164.02 701.66 164.7 700.28 167.33 701.93 170.31 702.47 173.96 703.73 175.77 704.94 181.95 706.71 180.89 708.05 183.3 704.98 184.29 704.52 185.79 699.37 187.22 697.33 192.01 700.41 193.68 698.59 194.98 701.28 198.68 698.22 201.3 695.71 200.61 693.02 196.37 696.79 195.13 688.04 192.02 684.35 189.56 683.86 192.48 678.38 194.23 677.98 196.76 675.7 194.97 672.3 194.41 669.09 195.28 656.77 194.51 653.38 192.45 649.77 189.35 649.14 187.7 645.77 185.95 646.79 182.64 645.8 177.97 644.02 174.35 646.6 174.71 651.6 172.71 653.26 173.34 656.26 171.83 659.3 167.55 658.9 164.14 657.37 160.63 656.55 156.35 652.23 152.11 651.06 149.97 652.54 147.8 650.13 145.41 646.1 145.05 645.49 144.19 639.07 142 638.17 137.02 637.88 129.38 639.35 118.47 639.01 108.42 637.99 102.51 640.05 101.83 644.61 98.49 649.88 96.8 651.64 95.12 653.41 88.27 658.03 88.86 662.14 88.55 666.04 84.57 669.39 85.53 670.43 87.83 Z" fill-rule="evenodd" id="강화군"/>
<path d="M 787.48 228.13 761.24 228.15 759.55 222.56 762.2 222.35 762.6 220.03 765.17 220.31 767.98 219.3 769.77 214.78 767.5 212.81 766.56 209.12 764.82 207.17 765.1 205.18 760.24 203.86 758.47 201.98 759.9 200.07 766.52 201.79 770.42 203.2 771.74 201.98 772.21 198.64 774.83 196.63 774.89 196.63 774.88 196.64 778.41 197.22 780.02 196.19 782 197.26 783.73 201.68 785.99 202.08 786.84 199.77 788.84 199.9 790.42 198.45 792.37 199.94 795.71 200.53 797.56 199.73 799 201.97 797.71 204.37 795.8 205.26 795.07 207.88 789.88 214.71 787.72 221.2 787.48 228.13 Z" id="계양구"/>
<path d="M 790.03 252.39 793.89 252.4 794.47 255.16 793.79 259.24 794.13 262 792.17 262.23 790.52 266.09 791.18 268.73 790.41 272.88 786.52 273.63 784.5 275.05 785.15 277.14 782.69 282.12 774.45 291.79 771 294.2 759.22 291.51 758.96 291.95 755.23 290.56 752.67 288.89 756.66 284.59 759.32 282.55 759.95 280.49 764.32 276.37 766.33 273.89 767.33 269.76 765.79 267.18 766 265.41 762.42 263.78 763.95 257.02 761.91 254.93 760.13 254.72 759.77 252.21 759.94 251.9 764.11 253.85 766.21 254.09 767.98 252.75 769.42 249.61 771.57 250.67 773.12 253.01 776.45 251.7 780.46 253.41 782 255.57 785.03 255.24 786.08 253.59 789.4 253.32 790.03 252.39 Z" id="남동구"/>
<path d="M 742.99 240.95 751.88 246.82 755.57 250.31 748.45 246.35 747.07 250.96 747.58 252.7 743.84 253.6 741.6 251.98 738.32 248.31 735.7 247.76 734.37 246.45 732.47 246.45 731.81 244.65 741.62 240.79 742.99 240.95 Z" id="동구"/>
<path d="M 755.57 250.31 759.77 252.21 760.13 254.72 761.91 254.93 763.95 257.02 762.42 263.78 766 265.41 765.79 267.18 763.2 267.48 764.03 269.83 760.87 269.93 759.51 271.37 755.92 271.27 750.2 268.9 745.74 269.05 743.96 270.66 740.38 270.98 739.87 271.32 738.67 262.65 743.84 253.6 747.58 252.7 747.07 250.96 748.45 246.35 755.57 250.31 Z" id="미추홀구"/>
<path d="M 787.48 228.13 787.54 231.55 782.01 232.31 780.53 235.14 781.27 238.37 780.54 241.78 780.74 245.29 783.53 246.01 786.88 249.97 789.09 250.79 790.03 252.39 789.4 253.32 786.08 253.59 785.03 255.24 782 255.57 780.46 253.41 776.45 251.7 773.12 253.01 771.57 250.67 769.42 249.61 767.98 252.75 766.21 254.09 764.11 253.85 759.94 251.9 761.62 248.75 762.24 245.98 764.9 246.06 764.18 243.54 762.15 242.56 761.04 239.73 762.25 238.3 760.95 236.65 759.03 231.17 761.24 228.15 787.48 228.13 Z" id="부평구"/>
<path d="M 712.36 202.05 714.42 203.76 717.42 204.72 717.17 206.28 713.4 204.92 712.36 202.05 Z M 774.87 196.63 774.89 196.63 774.88 196.64 774.87 196.63 Z M 774.87 196.63 774.83 196.63 772.21 198.64 771.74 201.98 770.42 203.2 766.52 201.79 759.9 200.07 758.47 201.98 760.24 203.86 765.1 205.18 764.82 207.17 766.56 209.12 767.5 212.81 769.77 214.78 767.98 219.3 765.17 220.31 762.6 220.03 762.2 222.35 759.55 222.56 761.24 228.15 759.03 231.17 760.95 236.65 762.25 238.3 761.04 239.73 762.15 242.56 764.18 243.54 764.9 246.06 762.24 245.98 761.62 248.75 759.94 251.9 759.77 252.21 755.57 250.31 751.88 246.82 742.99 240.95 742.82 236.95 739.61 236.91 739.59 238.67 736.62 240.58 729.89 240.69 730 233.39 729.31 232.41 729.35 223.36 728.12 223.36 727.21 216.26 730.88 214.08 728.91 210.3 725.65 210.54 723.6 207.85 724.39 206.39 719.35 197.77 725.03 196.05 730.69 192.36 732.18 190.39 737.26 191.4 738.94 189.6 740.61 184.41 742.24 183.1 742.49 180.23 746.32 179.23 747.81 175.38 749.99 175.09 755.5 177.04 757.96 179.03 759.13 181.06 763.57 183.36 767.32 187.41 768.65 190.55 770.73 191.06 771.53 193.09 774.87 196.63 Z" fill-rule="evenodd" id="서구"/>
<path d="M 758.96 291.95 763.51 293.99 763.52 297.04 755.84 307.14 752.42 306.97 750.85 310.29 747.69 311.56 743.81 311.04 742.52 312.05 735.97 312.1 732.53 311.26 725.68 311.3 726.17 309.48 721.25 309.46 721.27 305.93 735.29 306.77 735.29 309.38 743.12 309.41 745.64 308.32 747.72 305.61 733.71 294.68 731.39 291.06 731.46 277.6 728.25 276.45 730.87 272.68 740.02 272.72 740.38 270.98 743.96 270.66 745.74 269.05 750.2 268.9 755.92 271.27 759.51 271.37 760.87 269.93 764.03 269.83 763.2 267.48 765.79 267.18 767.33 269.76 766.33 273.89 764.32 276.37 759.95 280.49 759.32 282.55 756.66 284.59 752.67 288.89 755.23 290.56 758.96 291.95 Z M 747.02 306.79 749.33 308.92 750.8 308.05 747.86 305.73 747.02 306.79 Z" fill-rule="evenodd" id="연수구"/>
<path d="M 498.46 448.67 501.22 450.15 499.87 453.27 501.35 455.05 505.28 456.64 503.76 459.29 500.51 458.63 500.39 455.76 495.49 451.7 496.29 448.71 498.46 448.67 Z M 501.72 436.84 503.69 439.82 500.77 439.84 501.72 436.84 Z M 488.55 426 491.46 426.65 491.86 428.26 489.08 429.13 487.05 427 485.85 429.54 486.66 432.16 484.82 432.42 485.94 435.83 483.67 435.23 483.83 431.78 482.01 429.32 484.05 428.81 483.75 426.12 486.24 424.53 488.55 426 Z M 535.8 418.81 537.34 421.72 535.39 425.68 531.88 428.96 528.82 429.32 526.93 426.65 528.64 424.64 527.74 422.64 528.83 418.27 530.97 419.18 533.09 417.9 535.8 418.81 Z M 606.74 402.57 604.81 400.05 606.91 399.21 606.74 402.57 Z M 615.02 389.21 620.82 391.35 624.29 394 619.96 395.56 618.04 393.88 612.26 390.16 613.26 387.87 615.02 389.21 Z M 599.89 385.27 601.47 385.05 603.42 387.8 604.83 387.55 605.56 392.5 609.28 393.9 607.77 396.05 605.66 395.05 605.39 393.04 601.76 390.48 598.92 389.37 596.51 389.97 594.86 387.23 598.32 385.07 599.89 385.27 Z M 587.07 384.58 589.03 381.97 592.82 382.38 596.73 383.72 590.79 385.24 589.31 386.16 587.07 384.58 Z M 543.4 383.91 544.58 386.28 544.31 388.31 546.16 389.51 544.54 391.32 538.96 390.38 536.67 387.75 536.03 385 538.26 383.2 539.8 380.75 543.4 383.91 Z M 501.33 376 498.85 378.47 499.26 380.64 495.72 380.96 492.57 382.72 489.83 381.67 494.55 379.75 493.92 377.24 497.14 377.83 501.33 376 Z M 569.09 364.19 568.36 365.31 571.43 367.91 572.06 371.99 574.38 371.16 575.33 372.4 574.21 374.89 571.43 376.74 570.55 370.89 567.89 371.27 564.52 370.12 563.92 367.17 564.58 365.63 567.8 362.52 569.09 364.19 Z M 698.85 360.41 699.78 358.2 697.97 354.09 695.25 352.8 695.35 351.15 698.19 350.09 700.85 353.24 699.9 354.72 701.62 356.41 703.84 362.42 698.85 360.41 Z M 612.52 345.33 616.5 345.84 617.87 347.1 621.77 347.67 625.47 350.16 628.54 350.98 628.75 348.01 631.07 347.3 634.17 348.91 631.53 353.46 627.2 355.38 625.48 354.16 623.14 355.75 617.91 351.74 616.05 352.02 613.06 350.45 611.05 348.46 608.55 347.76 610.16 345.8 612.52 345.33 Z M 545.1 341.99 546.39 348.61 548.86 348.61 547.96 351.84 549.55 353.89 551.58 351.46 555.86 354.09 557.02 358.27 559.98 357.47 566.24 360.7 566.19 361.61 560.07 363.91 557.83 365.47 558.09 368.66 551.27 369.81 548.14 371.27 546.06 370.07 547.72 368.1 546.01 364.57 543.05 366.15 542.25 364.6 543.69 363.01 540.68 361.28 538.57 365.17 536.46 364.08 538.34 362.4 539.28 357.6 538.06 357.34 538.62 352.49 540.36 350.78 540.81 347.65 543.07 345.01 542.23 342.14 545.1 341.99 Z M 683.44 356.77 683.61 357.21 683.63 357.26 679.21 359.17 678.33 362.14 675.25 364.46 672.52 362.77 666.08 362.75 664.59 360.95 664.57 352.15 665.18 349.02 666.53 346.63 665.75 342.78 670.46 343.94 672.49 342.42 673.42 338.58 677.77 338.3 678.94 337.19 680.97 338.9 683.34 339.61 685.75 338.74 688.17 341.26 688.05 343.41 689.23 348.4 690.72 350.72 688.88 352.45 687.37 350.03 684.92 349.76 685.21 352.11 682.65 351.79 681.87 353.52 683.59 355.08 683.44 356.77 Z M 683.63 357.26 683.61 357.21 683.44 356.77 683.63 357.26 Z M 535.01 333.7 541.45 339.03 537.59 340.37 537.15 337.84 533.23 336.19 535.01 333.7 Z M 660.59 221.29 659.32 222.47 658.84 225.46 655.6 223.72 656.23 221.45 659.38 220.05 660.59 221.29 Z M 681.17 220.93 681.6 225.11 679.24 225.03 680.54 228.05 678.05 233.04 676.34 230.44 671.5 228.98 668.63 231.5 665.81 230.93 665.5 229.16 667.11 225.86 669.62 223.65 672.34 222.78 674.39 221.1 675.6 218.61 677.38 217.69 679.29 220.44 681.17 220.93 Z M 666.53 217.3 667.44 219.72 665.95 224.05 664.38 225.88 664.11 228.06 660.66 227.63 662.76 222.76 660.85 221.26 661.89 221.03 664.81 215.73 666.53 217.3 Z M 621.82 209.95 627.06 212.71 628.46 214.22 631.61 213.65 632.43 217.12 633.73 219.48 637.14 221.41 641.53 221.78 648.78 219.83 648.79 223.72 647.67 225.32 642.76 223.78 639.89 223.57 633.58 224.86 631.08 223.56 628.6 225.68 628.02 223.1 628.8 221.14 628.21 217.98 625.45 216.62 624.31 214.37 621.33 211.57 621.82 209.95 Z M 404.68 182.89 404.03 185.99 400.4 184.07 399.97 181.79 401.71 180.85 404.74 181.5 404.68 182.89 Z M 400.96 151.32 403.08 151.18 403.73 153.35 401.25 155.9 400.03 158.45 394.96 162.56 392.69 163.48 390.73 158.63 392.3 157.84 391.92 154.86 389.88 152.95 389.62 150.8 394.86 152.32 400.18 150.28 400.96 151.32 Z M 56.8 96.76 55.36 100.8 51.31 101.13 49.83 100.08 46.45 101.21 41.57 105.21 40.65 103.91 43.09 102.3 44.48 99.72 49.87 96.96 56.8 96.76 Z M 34.7 65.11 38.65 65.2 42.03 68.05 38.83 69.1 36.58 72.51 38.79 76.95 37.91 79.82 32.23 83.87 29.68 81.78 27.77 82.13 25.93 80.91 23.95 78.1 22.31 78.42 20.84 76.46 23.62 75.89 26.86 69.51 30.1 68.09 34.7 65.11 Z M 28.97 2.29 35.46 1 40.42 1.6 44.56 3.86 44.77 7.3 46.52 11.34 44.37 11.88 44.48 14.92 41.8 15.14 38.2 18.39 36.06 19.16 34.13 22.16 34.5 24.54 32.19 28.11 32.88 30.24 29.57 31.93 26.04 28.96 22.09 29.61 19.81 28.32 17.75 28.96 15.84 27.74 13.18 28.48 9.77 26.93 6.91 19.81 6.08 13.7 5.09 12.46 1 10.28 1.37 5.77 3.42 3.19 4.89 2.79 10.9 7.16 13.61 6.6 15.98 4.8 18.63 4.98 21.88 3.59 22.98 1.85 25.81 2.71 28.97 2.29 Z" fill-rule="evenodd" id="옹진군"/>
<path d="M 650.19 286.23 649.85 282.79 652.73 281.75 650.19 286.23 Z M 659.11 280.03 659.94 282.63 664.87 288.53 669.22 291.4 668.43 295.54 666.2 296.45 666.2 298.63 659.82 300.66 656.23 296.98 657.18 296 656.85 290.37 653.96 286.28 654.4 283.34 656.81 278.56 659.11 280.03 Z M 734.37 246.45 735.7 247.76 738.32 248.31 741.6 251.98 743.84 253.6 738.67 262.65 739.87 271.32 732.27 271.27 733.05 267.5 730.87 266.09 731.65 264.58 734.12 265.87 734.88 264.45 731.92 262.9 728.35 267.32 725.84 267.31 725.49 262.18 726.37 260.58 729.23 258.81 726.49 255.31 729.83 255.11 736.99 258.45 737.93 256.59 733.34 254.3 733.87 252.61 732.71 249.39 730.69 250.11 731.76 253.09 729.46 254.69 726.26 252.29 728.4 247.21 730.51 245.14 731.77 246.71 734.37 246.45 Z M 660.97 274.22 660.68 271.12 659.29 268.44 656.1 266.76 654.49 264.43 652.3 262.94 648.55 265.49 646.84 265.87 643.22 263.75 642.97 259.5 639.21 256.61 639.16 256.54 638.06 254.82 638.03 251.9 639.68 249.9 641.63 249.52 644.9 250.62 659.6 240.46 661.48 239.38 673.77 238.29 680.72 238.84 682.38 238.43 689.24 234.73 690.22 226.3 691.23 224.08 693.07 224.16 695.92 222.72 699.79 224.38 700.62 226.94 703.24 227.15 706.93 228.87 708.76 230.44 711.38 230.23 715.36 232.02 716.91 235.02 719.77 237.03 721.78 242.73 717.27 245.86 715.03 248.2 708.65 249.68 702.48 250.51 697.85 252.84 693.62 254.24 688.32 259.42 685.32 264.02 669.96 274.67 664.12 273.87 660.97 274.22 Z M 719.95 221.24 719.24 221.4 719.2 228.88 712.82 228.81 710.32 225.59 714.59 220.98 719.67 218.5 719.95 221.24 Z" fill-rule="evenodd" id="중구"/>
</g>
</svg>