<?xml version="1.0"?>
<svg xmlns="http://www.w3.org/2000/svg" version="1.2" baseProfile="tiny" width="800" height="501" viewBox="0 0 800 501" stroke-linecap="round" stroke-linejoin="round">
<g id="인천광역시_시군구_경계">
<path d="M 580.04 151.44 585.02 161.2 578.9 162.89 572.44 155.04 580.04 151.44 Z M 629.88 123.6 625.68 131.12 625.48 138.35 634.47 146.3 643.56 148 647.62 153.21 644.64 161.96 632.52 169.74 627.54 163.79 629.1 158.87 624.01 151.91 614.55 147.04 612.15 140.67 614.94 125.13 625.39 120.79 629.88 123.6 Z M 607.04 91.38 617.07 96.77 629.45 96.04 631.55 100.2 624.64 110.87 616.27 114.94 608.86 112.81 598.36 115.6 594.37 120.9 585.12 112.83 590.9 102.15 591.11 95.91 597.54 90.32 607.04 91.38 Z M 670.43 87.83 676.55 95.37 693.94 106.46 696.87 116.96 702.29 123.97 697.02 138.6 700.26 146.66 699.03 159.13 703.73 175.77 704.52 185.79 697.33 192.01 675.7 194.97 656.77 194.51 645.77 185.95 646.6 174.71 656.26 171.83 659.3 167.55 656.55 156.35 650.13 145.41 639.07 142 637.88 129.38 639.35 118.47 637.99 102.51 651.64 95.12 653.41 88.27 670.43 87.83 Z" fill-rule="evenodd" id="강화군"/>
<path d="M 787.48 228.13 761.24 228.15 759.55 222.56 767.98 219.3 765.1 205.18 774.83 196.63 774.89 196.63 774.88 196.64 790.42 198.45 799 201.97 789.88 214.71 787.48 228.13 Z" id="계양구"/>
<path d="M 790.03 252.39 793.79 259.24 782.69 282.12 771 294.2 758.96 291.95 752.67 288.89 766.33 273.89 765.79 267.18 763.95 257.02 759.77 252.21 759.94 251.9 764.11 253.85 776.45 251.7 782 255.57 790.03 252.39 Z" id="남동구"/>
<path d="M 742.99 240.95 755.57 250.31 748.45 246.35 743.84 253.6 734.37 246.45 742.99 240.95 Z" id="동구"/>
<path d="M 755.57 250.31 759.77 252.21 763.95 257.02 765.79 267.18 755.92 271.27 750.2 268.9 740.38 270.98 739.87 271.32 738.67 262.65 743.84 253.6 748.45 246.35 755.57 250.31 Z" id="미추홀구"/>
<path d="M 787.48 228.13 782.01 232.31 780.74 245.29 790.03 252.39 782 255.57 776.45 251.7 764.11 253.85 759.94 251.9 762.24 245.98 759.03 231.17 761.24 228.15 787.48 228.13 Z" id="부평구"/>
<path d="M 774.87 196.63 774.89 196.63 774.88 196.64 774.87 196.63 Z M 774.87 196.63 774.83 196.63 765.1 205.18 767.98 219.3 759.55 222.56 761.24 228.15 759.03 231.17 762.24 245.98 759.94 251.9 759.77 252.21 755.57 250.31 742.99 240.95 729.89 240.69 729.35 223.36 730.88 214.08 719.35 197.77 732.18 190.39 738.94 189.6 742.49 180.23 747.81 175.38 755.5 177.04 763.57 183.36 774.87 196.63 Z" fill-rule="evenodd" id="서구"/>
<path d="M 758.96 291.95 763.52 297.04 755.84 307.14 747.72 305.61 731.39 291.06 730.87 272.68 740.02 272.72 740.38 270.98 750.2 268.9 755.92 271.27 765.79 267.18 766.33 273.89 752.67 288.89 758.96 291.95 Z" id="연수구"/>
<path d="M 535.8 418.81 531.88 428.96 526.93 426.65 528.83 418.27 535.8 418.81 Z M 612.52 345.33 621.77 347.67 623.14 355.75 611.05 348.46 612.52 345.33 Z M 545.1 341.99 546.39 348.61 566.24 360.7 558.09 368.66 548.14 371.27 546.01 364.57 538.06 357.34 545.1 341.99 Z M 683.44 356.77 683.61 357.21 683.63 357.26 675.25 364.46 664.59 360.95 666.53 346.63 673.42 338.58 678.94 337.19 688.17 341.26 689.23 348.4 683.44 356.77 Z M 683.63 357.26 683.61 357.21 683.44 356.77 683.63 357.26 Z M 681.17 220.93 676.34 230.44 667.11 225.86 677.38 217.69 681.17 220.93 Z M 621.82 209.95 639.89 223.57 628.6 225.68 628.21 217.98 621.82 209.95 Z M 34.7 65.11 37.91 79.82 32.23 83.87 22.31 78.42 26.86 69.51 34.7 65.11 Z M 28.97 2.29 35.46 1 44.56 3.86 46.52 11.34 36.06 19.16 29.57 31.93 9.77 26.93 6.08 13.7 1 10.28 4.89 2.79 10.9 7.16 22.98 1.85 28.97 2.29 Z" fill-rule="evenodd" id="옹진군"/>
<path d="M 659.11 280.03 669.22 291.4 666.2 298.63 659.82 300.66 653.96 286.28 659.11 280.03 Z M 734.37 246.45 743.84 253.6 738.67 262.65 739.87 271.32 732.27 271.27 725.49 262.18 729.83 255.11 728.4 247.21 734.37 246.45 Z M 660.97 274.22 659.29 268.44 652.3 262.94 646.84 265.87 639.21 256.61 639.16 256.54 644.9 250.62 661.48 239.38 680.72 238.84 689.24 234.73 691.23 224.08 695.92 222.72 708.76 230.44 715.36 232.02 721.78 242.73 715.03 248.2 693.62 254.24 685.32 264.02 669.96 274.67 660.97 274.22 Z" fill-rule="evenodd" id="중구"/>
</g>
</svg>