<?xml version="1.0"?>
<svg xmlns="http://www.w3.org/2000/svg" version="1.2" baseProfile="tiny" width="800" height="760" viewBox="0 0 800 760" stroke-linecap="round" stroke-linejoin="round">
<g id="전국_시도_경계">
<path d="M 249.98 163.97 249.8 163.66 246.53 156.92 243.61 158.45 240.75 157.59 241.77 150.8 241.11 149.18 234.97 147.26 238.02 143.5 239.03 140.27 244.61 144.63 249.69 142.45 251.13 134.92 255.05 133.17 256.3 136.98 259.03 136.07 258.9 133.29 262.51 127.09 266.5 129.09 269.73 127.86 271.36 128.84 271.17 134.99 273.03 135.34 273.73 140.53 271.86 144.47 272.26 147.18 280 143.92 280.83 148.6 278.67 148.79 276.1 153.82 278.45 154.98 276.47 158.61 270.95 161.08 268.29 164.56 265.15 163.56 264.73 161.14 260.95 159.48 256.63 163.1 254.03 163.78 252.72 161.89 249.98 163.97 Z" id="서울특별시"/>
<path d="M 468.71 491.41 469.36 493.82 467.56 498.17 465.14 496.98 464.95 494.16 462.5 492.33 464.79 488.95 466.72 487.21 467.21 491.6 468.71 491.41 Z M 481.64 492.51 480.55 488.15 478.24 486.67 476.11 488.61 467.71 488.1 467.1 487.43 466.22 486.59 465.91 486.15 465.79 486.25 465.78 486.29 465.77 486.31 465.79 486.23 468.29 483.99 465.12 481.34 462.61 477.98 468.21 477.79 471.48 476.88 472.53 474.3 471.24 471.73 472.99 469.93 476.85 469.59 479.06 468.06 484.09 467.64 485.74 466.47 487.73 461.27 491.23 461.04 498.46 456.31 500.72 449.89 502.45 448.76 505.82 450.43 508.11 448.35 508.33 445.41 510.32 446.59 515.38 445.58 517.57 448.35 517.33 451.66 520.21 453.2 517.48 453.72 514.96 456.7 514.48 465.02 511.33 473.39 508.67 474.33 506.68 477.64 499.19 478.53 500.77 482.81 500.23 485.44 494.67 484.92 492.49 482.96 489.17 486.1 488.64 489.71 481.64 492.51 Z" fill-rule="evenodd" id="부산광역시"/>
<path d="M 431.91 405.65 429.62 406.82 429.3 411.68 422.55 411.92 418.14 415.24 414.16 415.79 417.47 412.74 417.31 410.97 412.43 405.95 412.59 402.28 418.62 404 421.06 402.43 420.79 399.87 416.19 396.77 415.3 395.15 419.45 388.31 425.04 388.73 426.41 387.38 426.41 387.33 426.2 385.37 422.68 383.12 415.19 382.33 416.89 376.31 419.75 371.9 422.87 370.68 425.53 370.95 425.46 376.48 428.77 377.18 429.36 374.3 432.13 370.33 433.35 366.46 439.67 363.69 441.27 360.83 445.05 360.67 450.04 359.38 453.52 361.07 455.8 365.3 454.92 371.5 456.92 373.28 457.52 380.04 451.83 385.57 452.86 388.29 448.95 390.64 450.41 395.17 449.14 400.14 446.15 400.67 442.02 402.79 441.3 398.1 437.54 397.89 431.64 401.54 431.91 405.65 Z" id="대구광역시"/>
<path d="M 203.28 189.99 203.28 189.97 203.23 189.84 203.28 189.99 Z M 161.93 185.43 162.31 187.4 168.24 191.01 165.8 193.39 162.83 194.17 159.82 190.01 161.93 185.43 Z M 203.23 189.84 203.28 189.97 203.28 189.99 200.78 192.13 197.6 191.09 198.18 186.81 201.88 183.99 204.64 185.21 204.96 187.34 203.23 189.84 Z M 196.52 165.19 193.93 161.82 192.3 162.7 190.02 159.93 190.01 159.91 196.67 154.79 202.42 154.62 204.96 153.4 206.95 149.81 212.76 152.59 214.67 155.78 212.66 157.42 206.27 159.22 203.79 162.14 199.2 165.32 196.52 165.19 Z M 230.4 141.83 230.53 142.02 238.02 143.5 234.97 147.26 234.36 149.36 234.34 149.55 232.66 152.68 232.27 156.55 236.17 160.72 235.16 164.79 233.52 166.16 229.37 171.16 227.14 172 224.84 175.02 222.42 174.56 217.54 170.22 217.8 164.31 215.78 161.59 217.28 156.5 216.93 150 217.39 147.23 213.95 142.36 219.8 139.92 222.45 135.67 224.74 136.17 230.4 141.83 Z M 187.24 120.21 185.92 124.62 192.53 129.06 191.64 131.67 188.03 133.99 185.48 128.67 182.66 127.21 181.94 125.31 182.78 120.67 187.24 120.21 Z M 180.42 110.59 183.41 112.2 187.73 113.22 185.67 116.41 183.17 117.63 180.96 116.99 176.64 119.41 173.87 117 175.66 111.94 177.58 110.27 180.42 110.59 Z M 199.34 109.53 201.17 111.78 206.36 115.09 208.85 120.32 207.28 124.69 208.25 127.1 207.88 130.82 209.52 138.78 207.37 140.64 200.92 141.53 195.27 141.39 191.98 138.83 192.23 135.48 196.02 133.34 193.28 126.72 189.98 125.71 189.66 113.92 193.73 111.71 194.26 109.66 199.34 109.53 Z M 9.55 102.75 10.5 107.14 8.81 108.35 5.84 106.72 7.2 104.06 9.55 102.75 Z M 7.83 83.99 12.49 84.46 13.07 86.69 9.95 89.03 8.01 92.84 2.1 91.35 1 87.4 2.44 85.44 7.83 83.99 Z" fill-rule="evenodd" id="인천광역시"/>
<path d="M 232.23 464.89 231.13 467.57 235.83 470 240.59 468.62 244.94 465.86 248.35 464.76 251.26 465.81 256.06 474.77 259.81 474.92 261.37 477.41 259.87 478.97 260.32 482.85 253.47 490.37 248.24 489.11 236.59 493.13 232.95 490.65 231.89 487.76 229.02 485.37 220.02 484.59 219.72 477.55 221.63 476.79 223.54 470.53 227.01 470.95 229.25 465.51 232.23 464.89 Z" id="광주광역시"/>
<path d="M 314.92 329.55 312.09 331.71 309.44 335.52 305.45 333.01 302.05 324.91 300.41 325.39 300.65 328.75 298.71 335.02 296.03 334.34 295.05 331.82 292.71 331.59 291.42 329.39 291.36 325.79 288.75 324.25 288.88 317.17 291.05 314.75 291.41 305.1 293.01 303.92 296.35 304.08 299.96 299.41 299.89 295.51 302.79 293.29 304.16 294.46 304.58 299 310.32 300.34 313.25 299.07 316.14 300.33 314.63 302.67 320.18 304.3 320.13 307.54 318.62 308.9 317.92 314.01 315.9 315.43 314.81 321.07 315.62 323.35 314.19 326.33 314.92 329.55 Z" id="대전광역시"/>
<path d="M 535.76 408.49 535.22 412.22 536.73 413.59 537.62 417.37 535.08 431.15 531.09 432.62 529.33 431.23 526.13 436.77 527.49 438.49 526.56 442.49 523.41 449.76 520.21 453.2 517.33 451.66 517.57 448.35 515.38 445.58 510.32 446.59 508.33 445.41 510.29 442.72 507.74 438.35 504.4 439.36 501.63 437.52 497.76 432.9 497.4 430.74 488.94 426.66 484.74 426.42 485.05 424.5 482.69 421.53 487.28 418.64 487.68 414.54 485.38 413.63 490.3 409.37 492.84 410.04 492.82 404.93 494.27 402.79 505.34 399.01 508 399.32 514.54 403.35 514.32 408.37 519.06 409.22 521.98 407.68 524.81 404.81 535.76 408.49 Z" id="울산광역시"/>
<path d="M 291.85 266.94 294.33 268.14 292.21 274.39 294.17 279.2 297.53 283.64 302.05 283.93 302.86 287.62 304.8 287.62 305.64 293.98 304.16 294.46 302.79 293.29 299.89 295.51 299.96 299.41 296.35 304.08 293.01 303.92 291.41 305.1 285.1 304.02 282.3 301.72 282.78 298.9 278.92 292.01 280.31 290.3 279.41 287.43 283.17 282.5 277.35 278.51 277.31 270.55 274.52 264.18 277.88 261.07 282.71 262.01 287.44 266.21 291.85 266.94 Z" id="세종특별자치시"/>
<path d="M 231.81 218.62 233.38 216.22 225.56 208.48 224.5 204.69 222.55 202.51 221.94 197.28 222.9 193.77 221.61 190.24 223.06 184.09 225.61 184.97 231.42 183.49 225.27 179.62 224.26 178.33 217.96 180.45 214.73 183.49 217.39 185.12 220.37 188.32 222.28 192.67 221.39 194.61 217.45 191.4 216.26 193.64 213.63 193.25 211.85 196.27 210.09 195.19 209.78 192.62 211.95 190.2 210.82 185.66 217.52 180.46 225.87 177.65 227.52 174.78 233.39 167.43 233.52 166.16 235.16 164.79 236.17 160.72 232.27 156.55 232.66 152.68 234.34 149.55 234.36 149.36 234.97 147.26 241.11 149.18 241.77 150.8 240.75 157.59 243.61 158.45 246.53 156.92 249.8 163.66 249.98 163.97 252.72 161.89 254.03 163.78 256.63 163.1 260.95 159.48 264.73 161.14 265.15 163.56 268.29 164.56 270.95 161.08 276.47 158.61 278.45 154.98 276.1 153.82 278.67 148.79 280.83 148.6 280 143.92 272.26 147.18 271.86 144.47 273.73 140.53 273.03 135.34 271.17 134.99 271.36 128.84 269.73 127.86 266.5 129.09 262.51 127.09 258.9 133.29 259.03 136.07 256.3 136.98 255.05 133.17 251.13 134.92 249.69 142.45 244.61 144.63 239.03 140.27 238.02 143.5 230.53 142.02 230.4 141.83 224.74 136.17 222.45 135.67 219.8 139.92 213.95 142.36 211.74 139.44 209.29 133.07 210.2 131.13 208.27 124.87 209.32 119.96 207.98 118.18 208.51 114.41 214.24 118.25 216.26 118.49 220.49 115.79 223.85 115.85 224.87 109.14 223.65 107.81 227.19 103.74 225.03 100.92 224.39 96.73 224.98 91.74 228.45 89.12 230.29 90.43 238.07 85.79 240.38 85.74 243.64 81.14 246.77 74.63 245.56 72.29 250.73 66.67 252.96 67.92 257.48 66.55 255.64 63.7 257.42 62.08 257.53 58.27 258.9 55.01 262.73 53.04 271.62 46.94 273.2 48.29 273.27 52.45 275.52 53.68 279.03 52.9 278.77 55.7 280.3 57.47 281.99 63.8 285.87 65.38 292.08 60.63 292.43 64.81 291.16 67.01 292.41 70.07 295.14 69.89 296.15 72.83 301.11 71.15 302.49 69.56 306.4 71.81 309.25 70.89 309.69 78.02 311.11 83.59 316.18 86.23 320.19 85.99 320.94 90.58 325.14 91.26 328.03 94.15 328.59 98.88 327.07 103.33 325.09 103.06 323.08 105.41 318.98 108.1 319.85 112.14 318.2 115.13 320.25 117.62 320.37 119.87 316.54 123.09 320.17 124.73 322.54 124.63 321.32 129.21 321.56 132.74 319.93 135.51 321.97 137.1 324.62 136.63 326.99 134.12 329.79 135.36 332.2 137.83 337.85 141.76 338.72 143.09 343.71 142.31 354.07 147.75 353.42 149.63 349.5 150.71 344.41 156.02 346.63 156.6 348.41 160.14 348.76 163.42 346.28 171.16 344.39 173.39 344.22 176.27 345.32 182.29 343.05 190.99 342.82 194.63 339.75 198.82 336.63 205.44 331.01 204.71 330.35 210.86 324.39 213.78 322.06 218.5 319.39 216.57 314.26 216.63 311.05 218.17 311.29 220.74 307.86 223.9 304.02 224.42 303.25 229.11 301.97 231.12 299.55 230.73 294.55 233.94 292.19 238.86 290.25 236.16 284.77 233.81 282.7 230.83 272.7 227.97 270.46 231.93 267.48 232.15 263.12 233.92 258.65 233.38 253.54 235.45 250.2 237.61 249.49 234.27 245.54 233.2 243.57 231.36 239.09 224.46 237 219.81 232.67 219.77 231.81 218.62 Z M 233.39 216.14 235 209.88 235.09 206.04 239.05 204.75 235.8 201.06 232.45 200.71 230.41 204.97 225.63 208.38 233.39 216.14 Z" fill-rule="evenodd" id="경기도"/>
<path d="M 449.82 81.77 450.41 84.07 453.72 87.86 454.05 89.66 457.8 94.98 461.97 98.8 461.56 100.92 466.79 106.82 467.34 108.77 479.23 120.6 482.52 125.54 486.72 129.4 485.61 134.52 486.71 136.88 493.1 142.27 493.26 146.73 494.53 150.93 498.68 156.82 501.64 159.3 503 165.03 509.28 170.08 509 172.18 510.84 174.91 511.32 177.98 514.65 181.79 517.93 183.93 517.76 185.84 520.11 188.07 519.34 191.58 520.18 197.8 522.02 201.99 519.94 202.03 515.48 204.58 514.49 206.52 511.89 206.29 506.92 212.28 507.81 216.34 503.61 216.91 499.89 213.08 492.49 208.85 489.72 210.57 488.55 213.77 484.64 212.02 480.17 211.21 477.43 212.24 475.89 210.02 473.41 210.29 472.04 213.9 468.23 216.92 465.03 216.01 463.04 212.33 456.84 211.16 454.62 215.86 455.67 218.28 448.81 217.72 447.53 216.05 443.42 214.38 440.75 213.07 432 211.6 428.08 209.26 426.09 206.23 424.04 208.42 419.6 208.33 414.96 205.96 415.47 203.43 413.64 201.9 408.22 202.06 404.14 205.28 401.35 203.45 401.04 200.86 407.83 194.18 405.77 193.03 400.74 195.11 398.78 192.13 396.3 192.37 393.99 189.51 390.28 191.78 388.15 194.14 384.81 191.65 383.4 195.27 379.28 197.32 375.18 197.87 373.15 190.26 369.41 188.38 364.27 190.81 362.37 192.99 363.59 195.48 363.73 199.79 360.97 201 360.21 203.12 356.93 201.4 354.15 203.01 347.8 204.33 345.04 202.04 343.56 198.95 342.82 194.63 343.05 190.99 345.32 182.29 344.22 176.27 344.39 173.39 346.28 171.16 348.76 163.42 348.41 160.14 346.63 156.6 344.41 156.02 349.5 150.71 353.42 149.63 354.07 147.75 343.71 142.31 338.72 143.09 337.85 141.76 332.2 137.83 329.79 135.36 326.99 134.12 324.62 136.63 321.97 137.1 319.93 135.51 321.56 132.74 321.32 129.21 322.54 124.63 320.17 124.73 316.54 123.09 320.37 119.87 320.25 117.62 318.2 115.13 319.85 112.14 318.98 108.1 323.08 105.41 325.09 103.06 327.07 103.33 328.59 98.88 328.03 94.15 325.14 91.26 320.94 90.58 320.19 85.99 316.18 86.23 311.11 83.59 309.69 78.02 309.25 70.89 306.4 71.81 302.49 69.56 301.11 71.15 296.15 72.83 295.14 69.89 292.41 70.07 291.16 67.01 292.43 64.81 292.08 60.63 285.87 65.38 281.99 63.8 280.3 57.47 278.77 55.7 279.03 52.9 275.52 53.68 273.27 52.45 273.2 48.29 271.62 46.94 275.2 44.45 284.95 41.48 287.45 39.92 297.06 41.91 300.71 41.12 302.83 39.32 307.86 40.75 309.67 42.11 313.16 42.29 315.47 44.52 324.24 39.43 327.63 39.37 328.76 41.01 336.61 40.92 341.22 39.1 345.4 39.27 350.53 43.33 356.6 42.04 363.95 43.46 368.38 47.05 370.94 47.38 372.22 42.34 375.6 43.31 378.97 42.41 382.85 39.18 384.17 39.77 387.54 37.63 389.25 35.31 392.79 33.84 396.9 28.3 400.99 25.12 404.12 14.7 403.71 4.01 408.96 1 410.17 3.45 413.69 7.37 415.57 14.68 417.99 19.65 420.92 23.16 419.54 24.85 421.99 29.36 426.03 34.37 426.06 37.32 429.84 42.98 431.37 49.61 434.52 53.88 436.14 58.65 436.85 64.46 439.85 69.1 444.17 73.95 444.28 75.67 449.82 81.77 Z" id="강원도"/>
<path d="M 292.19 238.86 294.55 233.94 299.55 230.73 301.97 231.12 303.25 229.11 304.02 224.42 307.86 223.9 311.29 220.74 311.05 218.17 314.26 216.63 319.39 216.57 322.06 218.5 324.39 213.78 330.35 210.86 331.01 204.71 336.63 205.44 339.75 198.82 342.82 194.63 343.56 198.95 345.04 202.04 347.8 204.33 354.15 203.01 356.93 201.4 360.21 203.12 360.97 201 363.73 199.79 363.59 195.48 362.37 192.99 364.27 190.81 369.41 188.38 373.15 190.26 375.18 197.87 379.28 197.32 383.4 195.27 384.81 191.65 388.15 194.14 390.28 191.78 393.99 189.51 396.3 192.37 398.78 192.13 400.74 195.11 405.77 193.03 407.83 194.18 401.04 200.86 401.35 203.45 404.14 205.28 408.22 202.06 413.64 201.9 415.47 203.43 414.96 205.96 419.6 208.33 424.04 208.42 426.09 206.23 428.08 209.26 432 211.6 440.75 213.07 443.42 214.38 441.32 217.69 435.7 217.63 432.58 223.91 428.55 225.41 427.44 227.73 422.6 230.94 420.3 233.73 420.65 235.62 418.39 240.78 421.2 242.64 421.21 244.72 418.09 249.77 410.61 249.71 406.43 248.32 402.7 243.76 398 241.68 396.89 245.27 394.93 244.68 395.38 249.83 385.77 248.15 383.54 248.69 381.68 251.25 377.92 249.41 377.47 252.69 374.98 258.94 378.97 262.42 376.95 264.43 373.05 261.35 371.63 263.15 369.19 262.74 366.61 260.64 365.8 264.45 363.25 266.91 364.67 272.1 363.94 276.8 361.61 277.29 359.27 275.44 357.41 271.81 355.4 277 348.91 279.41 349.03 281.32 351.94 283.46 355.05 283.42 357.08 287.33 360.49 289.77 360.92 292.68 358.23 294.17 358.41 298.52 357.33 301.42 357.51 306.16 358.7 309.83 358.4 314.66 355.19 316.8 353.96 319.52 355.17 324.51 358.59 324.52 359.64 322 363.99 323.9 365.96 326.73 368.45 327.7 369.63 325.86 372.94 324.68 377.04 326.81 375.1 329.1 378.08 334.33 376.11 335.44 372.87 333.35 369.02 336.36 371.39 340.97 370.58 343.97 367.94 346.72 367.48 352.6 364.05 355.5 362.54 354.84 358.07 359.25 355.37 356.96 349.14 358.93 345.64 360.71 343.53 358.3 338.62 357.66 336.97 353.76 334.81 355.32 331.27 353 328.87 347.94 325.79 343.87 327.15 340.32 326.18 337.92 326.71 332.37 325.25 330.61 321.34 329.48 319.4 327.76 314.92 329.55 314.19 326.33 315.62 323.35 314.81 321.07 315.9 315.43 317.92 314.01 318.62 308.9 320.13 307.54 320.18 304.3 314.63 302.67 316.14 300.33 313.25 299.07 310.32 300.34 304.58 299 304.16 294.46 305.64 293.98 304.8 287.62 302.86 287.62 302.05 283.93 297.53 283.64 294.17 279.2 292.21 274.39 294.33 268.14 291.85 266.94 293.63 265.66 294.68 262.36 297.46 258.38 303.11 257.47 305.12 259.31 306.87 257.61 304.07 254.05 304.83 252.52 302.58 249.9 297.32 247.36 297.59 244.28 294.95 243.89 294.42 240.03 292.19 238.86 Z" id="충청북도"/>
<path d="M 190.31 279.24 190.24 286.78 193.17 291.87 192.9 293.1 196.63 303.99 194.84 305.65 191.73 303.41 189.67 304.88 185.1 300.67 185.44 293.51 184.99 284.95 183.51 282.69 184.45 278.97 188.59 277.03 190.31 279.24 Z M 226.46 223.77 227.08 224.35 232.56 225.66 236.19 227.34 237.23 232.84 239.48 234.6 239.94 238.25 244.88 240.55 249.51 239.47 250.2 237.61 253.54 235.45 258.65 233.38 263.12 233.92 267.48 232.15 270.46 231.93 272.7 227.97 282.7 230.83 284.77 233.81 290.25 236.16 292.19 238.86 294.42 240.03 294.95 243.89 297.59 244.28 297.32 247.36 302.58 249.9 304.83 252.52 304.07 254.05 306.87 257.61 305.12 259.31 303.11 257.47 297.46 258.38 294.68 262.36 293.63 265.66 291.85 266.94 287.44 266.21 282.71 262.01 277.88 261.07 274.52 264.18 277.31 270.55 277.35 278.51 283.17 282.5 279.41 287.43 280.31 290.3 278.92 292.01 282.78 298.9 282.3 301.72 285.1 304.02 291.41 305.1 291.05 314.75 288.88 317.17 288.75 324.25 291.36 325.79 291.42 329.39 292.71 331.59 295.05 331.82 296.03 334.34 298.71 335.02 300.65 328.75 300.41 325.39 302.05 324.91 305.45 333.01 309.44 335.52 312.09 331.71 314.92 329.55 319.4 327.76 321.34 329.48 325.25 330.61 326.71 332.37 326.18 337.92 327.15 340.32 325.79 343.87 328.87 347.94 331.27 353 329.08 361.33 326 358.96 319.28 356.8 320.12 358.86 319.53 363.55 316.51 365.26 310.89 364.75 308.72 361.18 308.41 358.36 304.66 361.23 301.88 359.26 301.57 356.75 298.67 348.83 297.82 344.6 293.93 345.03 290.46 347.56 287.95 346.77 285 348.69 282.64 348.54 277.41 350.83 276.01 349.89 273.4 353.57 269.78 352.42 266.42 349.19 265.97 344.8 261.52 341.84 252.84 341.42 250.68 343.41 248.56 342.55 246.47 344.07 245.51 346.95 245.13 352.9 239.54 355.28 237.46 357.53 231.31 358.56 230.58 360.42 229.98 362.05 221.52 360.47 222.41 357.73 219.89 354.75 218.3 354.2 218.26 348.2 215.63 348.08 213.83 344.19 205.91 340.84 206.35 336.24 207.79 334.02 207.14 328.74 209.16 325.05 204.26 316.98 208.67 315.08 209.02 312.82 205.04 309.2 201.94 308.93 202.83 304.49 204.71 302.73 202.58 298.98 202.15 290.5 200.73 287.25 201.03 284.47 199.28 279.51 194.73 276.75 189.35 275.04 186.46 276.54 181.08 280.76 180.75 276.55 182.15 274.99 181.46 270.67 178.15 268.43 179.15 264.34 178.85 260.62 175.37 264.35 170.36 267.97 166.03 267.7 165.48 265.51 167.4 262.27 170.42 263.8 173.56 261.63 169.44 257.31 166.55 256.95 164.6 261.43 161.57 254.35 163.99 254.09 166.76 246.68 169.44 249.06 171.14 243.17 170.02 241.19 171.74 236.99 176.23 235.55 179.88 237.46 181.9 233.14 181.03 227.6 183.73 229.44 182.65 234.09 184.65 236.76 183.76 240.88 181.66 245.06 181.83 247.65 185.05 248.61 184.39 245.08 186.04 242.29 190.25 243.15 189.62 240.65 193.05 239.04 196.03 237.49 194.63 232.37 191.69 232.25 190.42 228.95 190.46 225.87 186.03 225.42 188.46 222.8 196.65 221.43 199.55 222.62 203.73 215.38 207.04 215.41 209.55 218.82 214.16 220.58 219.77 223.59 226.46 223.77 Z M 216.98 294.49 213.85 296.26 212.05 295.05 208.47 297.33 206.98 300.06 211.38 299.44 211.58 296.92 215.57 296.55 216.98 294.49 Z" fill-rule="evenodd" id="충청남도"/>
<path d="M 194.66 437.86 195.76 437.78 200.78 428.42 205.77 426.2 213.46 425.42 217.22 419.22 211.33 418.56 203.81 420.04 198.88 415.8 199.2 412.36 204.97 407.48 206.84 404.68 210.77 404.4 213.99 401.42 216.49 397.73 211.44 392.92 214.37 389.22 218.37 387.37 220.42 387.56 226.42 390.21 223.84 383.89 222.11 378.13 216.17 377.11 216.38 369.94 213.24 369.18 213.21 375.41 210.72 375.19 206.84 371.32 205.8 369.07 206.28 365.54 219.3 364.92 223.79 364.28 226.28 362.89 229.17 364.14 231.18 363.24 230.58 360.42 231.31 358.56 237.46 357.53 239.54 355.28 245.13 352.9 245.51 346.95 246.47 344.07 248.56 342.55 250.68 343.41 252.84 341.42 261.52 341.84 265.97 344.8 266.42 349.19 269.78 352.42 273.4 353.57 276.01 349.89 277.41 350.83 282.64 348.54 285 348.69 287.95 346.77 290.46 347.56 293.93 345.03 297.82 344.6 298.67 348.83 301.57 356.75 301.88 359.26 304.66 361.23 308.41 358.36 308.72 361.18 310.89 364.75 316.51 365.26 319.53 363.55 320.12 358.86 319.28 356.8 326 358.96 329.08 361.33 331.27 353 334.81 355.32 336.97 353.76 338.62 357.66 343.53 358.3 345.64 360.71 349.14 358.93 355.37 356.96 358.07 359.25 357.95 362.79 359.93 364.18 361.41 370.55 358.84 372.03 359.06 374.85 356.23 375.27 355.54 378.77 342.71 385.95 340.46 390.43 334.85 394.03 334.04 395.48 333.9 402.52 332.6 403.37 331.44 408.05 329.29 411.81 331.03 415.16 328.66 416.43 328.31 419.95 325.61 423.66 329.22 426.48 332.89 433.46 331.1 436.76 334.44 440.43 333.91 443.36 331.18 445.47 328.23 450.08 329.72 453.36 327.63 456.65 324.53 457.96 315.44 450.92 312.44 450.16 308.61 450.52 307.06 452.09 303.6 458.17 299.24 456.09 294.21 458.55 291.59 457.23 288.24 457.44 284.13 454.34 283.21 456.75 278.15 454.71 275.73 457.62 271.02 459.21 263.99 456.05 267.08 453.61 267.14 450.07 262.6 446.62 265.1 441.59 263.41 440.57 263.14 436.05 255.94 441.39 256.5 445.11 251.84 445.94 248.08 441.99 247.52 438.53 244.43 436.63 244.38 436.65 241.14 435.59 232.62 435.79 230.7 438.06 231.31 442.43 228.56 445.78 228.72 448.23 225.69 449.83 225.08 451.9 221.35 451.68 218.79 455.97 214.67 454.3 211.91 454.75 210.68 457.3 206.1 457.73 204.06 454.89 204.82 452.02 199.99 446.68 201.77 443.68 200.38 441.87 196.71 440.65 194.66 437.86 Z" id="전라북도"/>
<path d="M 206.67 613.86 207.29 615.18 211.74 616.11 206.1 620.85 202.18 621.43 201.88 616.74 202.78 614.77 206.67 613.86 Z M 218.64 611.03 222.11 613.38 220.23 616.16 220.3 621.73 219.02 622.61 216.18 618.76 218.33 615.07 217.08 612.88 218.64 611.03 Z M 246.51 609.33 249.68 614.47 248.58 617.36 244.68 617.41 240.79 614.42 244.09 609.21 246.51 609.33 Z M 208.76 606.05 213.19 607.38 214.92 610.78 210.96 614.51 207.93 613.63 207.12 611.63 208.76 606.05 Z M 239.98 595.43 239.27 593.88 235.69 592.47 239.34 589.07 244.16 590.59 245.03 592.67 240.53 597.29 239.98 595.43 Z M 261.87 586.09 263.51 590.13 259.36 589.28 261.87 586.09 Z M 223.47 583.42 227.2 585.6 227.69 589.96 229.57 594.13 232.22 595.54 227.56 598.81 225.98 597.45 222.67 597.47 221.28 594.78 218.2 592.29 217.09 585.62 218.21 583.98 223.47 583.42 Z M 251.96 584.37 250.36 587.47 247.67 589.74 242.84 587.02 245 582.4 248.42 584.49 251.96 584.37 Z M 239.4 578.2 242.14 582.31 241.85 584.37 238.96 586.34 236.21 585.33 230.46 585.6 232.71 580.15 239.4 578.2 Z M 313.29 574.71 316.55 573.87 319.85 576.84 320.13 578.97 314.73 581.94 315.04 579.38 313.29 574.71 Z M 283.41 570.37 285.42 573.06 283.41 578.46 282.2 579.47 277.83 578.66 274.94 579.58 269.87 577.51 269.58 574.03 274.15 573.43 278.99 570.95 283.41 570.37 Z M 311.9 563.72 313.28 564.87 311.35 568.37 314.76 568.65 315.4 571.82 309.39 570.21 310.69 568.18 308.48 566.52 311.9 563.72 Z M 346.6 565.5 348.85 571.53 342.62 569.28 340.09 565.63 341.49 563.23 345.24 562.59 346.6 565.5 Z M 173.12 557.23 176.1 557.3 179.59 559.99 180.19 562.93 182.73 562.94 187.24 567.24 187.82 568.77 185.87 576.86 182.35 580.85 179.35 581.82 176.44 584.35 173.73 583.8 167.12 588.43 161.75 588.53 160.13 585.53 157.03 585.1 154.19 579.82 157.34 574.41 162.31 571.17 164.53 568.51 171.18 563.8 172.91 560.42 173.12 557.23 Z M 151.02 550.82 153.82 552.25 157.03 556.42 155.25 558.35 155.92 560.77 150.62 564.34 147.86 564.04 154.04 557.54 152.84 556.98 151.02 550.82 Z M 146.29 549.83 148.9 550.58 148.08 553 150.72 554.39 151.65 557.09 147.83 558.58 147.29 555.38 145.59 553.59 146.29 549.83 Z M 162.77 545.38 165.88 547.93 165.66 549.76 160.12 552.32 158.31 550.81 158.97 547.67 162.77 545.38 Z M 78.88 540.14 81.78 541.74 80.74 544.52 78.48 545.45 76.14 549.99 74.1 547.41 75.66 543.15 78.88 540.14 Z M 347.46 539.18 347.52 545.05 349.5 546.57 350.04 551.72 348.42 557.91 344.33 556.9 342.92 554.47 340.14 552.96 341.06 548.46 344.75 544.59 344.97 537.74 347.46 539.18 Z M 141.15 537.25 143.5 538.16 145.71 542.17 142.02 544.73 137.37 545.15 134.81 543.32 134.97 539.14 141.15 537.25 Z M 161.14 540.87 160.02 537.14 154.01 538.73 152.63 536.04 154.16 532.19 158.93 531.24 160.07 533.37 164.24 534 165.06 537.62 164.45 541 161.14 540.87 Z M 143.99 526.05 144.46 532.31 141.44 532.63 138.15 535.59 137.78 537.59 133.75 537.73 131.64 535.09 133.06 529.87 137.55 530.09 143.99 526.05 Z M 158.1 515.88 162.77 518.1 160.63 523.06 155.09 525.09 151.8 521.04 154.25 518.95 157.21 520.28 158.1 515.88 Z M 184.02 522.31 182.94 520.84 178.39 520.56 176.36 519.75 174.8 521.89 172.72 519.3 176.23 518.42 176.9 512.27 179.07 510.65 181.99 515.03 181.64 519 185.53 518.75 187.14 521.04 184.02 522.31 Z M 152.18 508.77 155.79 512.53 155.42 516.37 154.17 518.33 149.31 520.21 146.86 518.23 142.85 517.72 145.89 513.52 149.12 511.43 151.18 511.6 152.18 508.77 Z M 342.84 508.9 342.99 510 345.94 510.06 348.15 512.28 348.12 516.29 342.76 513.54 339.05 512.61 338.97 510.38 341.96 507.3 342.84 508.9 Z M 163.67 504.76 160.65 503.42 160.59 495.97 164.08 497.5 165.34 502.69 163.67 504.76 Z M 151.62 489.07 150.11 487.75 155.72 483.61 158.55 480.33 158.85 488.52 156.17 492.55 151.62 489.07 Z M 334.44 512.4 334.43 512.41 335.23 514.03 331.62 516.7 328.65 515.56 326.05 517.61 331.28 524.4 335.17 523.15 338.39 520.09 346.83 519.74 346.28 528.03 343.77 531.74 344.91 533.66 342.32 537.88 339.1 539.26 335.59 536.22 335.6 536.21 333.04 536.16 331.66 540.07 328.71 541.27 331.07 547.21 330.07 551.16 326 548.77 321.87 547.83 322.01 539.54 324.69 537.6 324.78 533.7 321.92 527.06 318.44 526.2 318.94 522.27 317.23 518.17 314.61 518.1 314.87 521.74 303.9 524.8 305.8 527.94 303.81 528.74 302.71 531.79 304.31 533.83 301.26 536.36 303.3 540.6 310.43 546.88 313.57 548.85 315.37 551.54 316.41 556.63 314.16 558.98 310.84 558.1 309.41 559.11 305.98 557.4 303.9 561.51 308.12 562.53 304.84 568.88 302.03 569.51 292.97 573.78 289.3 572.24 289.95 569.43 286.93 566.64 280.85 565.23 275.24 566.78 272.46 565.47 271.67 561.42 275.81 556.67 278.28 556.46 278.38 552.13 280.31 549.85 284.66 548.33 286.02 542.34 288.68 539.93 290.43 540.02 291.23 543.33 290.32 545.11 293.55 546.59 296.93 540.92 296 534.93 293.37 535.22 292.31 537.57 288.32 537.46 286.31 533.78 282.63 536.81 282.23 539.41 278.96 543.19 271.73 542.94 271.03 544.95 266.33 547.04 263.9 550.99 258.07 552.9 256.88 564.14 255.75 568.24 255.92 571.18 253.65 573.81 250.05 576.13 245.97 575.6 245.05 578 238.99 576.72 234.66 574.09 235.35 572.22 234.14 567.68 235.04 562.95 234.61 558.2 232.23 557.57 231.76 565.28 230.89 570.69 226.96 577.25 224.33 577.67 221.11 580.56 219.21 580.34 216.72 581.48 215.16 584.13 214.91 588.82 212.4 595.24 207.77 593.89 206.19 596.43 203 597.34 202.49 594.2 204.19 592.1 202.54 587.91 199.21 587.86 198.24 585.81 203.13 581.06 202.2 579.07 198.46 578.93 196.21 576.33 198.08 573.52 196.22 572.28 196.37 564.97 193.3 561.45 188.81 564.56 187.67 560.34 182.47 558.85 180.02 556.82 176.33 555.72 176.98 551.99 174.17 549.44 173.65 545.75 174.09 541.15 177.6 533 181.07 534.47 182.61 538.71 186.64 541.55 188.98 537.07 188.16 531.9 195.92 530.09 195.01 527.76 190.49 529.91 187.25 530.36 184.63 528.05 186.79 525.9 191.04 519.74 190.87 513.14 189.18 507.2 186.68 507.89 186.82 510.97 182.51 511.43 181.55 507.68 178.65 504.59 179.93 501.72 182.32 504.44 185.99 501.76 184.66 499.5 189.57 496.6 188.67 493.25 185.21 494.42 184.46 490.12 181.39 487.71 181 492.33 177.73 491.24 174.21 498.03 171.69 497.38 171.71 492.42 166.02 491.68 163.43 489.68 163.47 485.98 167 484.12 169.18 485.48 173.02 484.35 175.41 479.63 177.36 481.18 180.48 480.92 184.36 487.21 184.46 489.3 190.28 489.51 191.74 491.34 191.06 496.23 193.7 495.86 193.34 493.34 195.78 491.85 198.18 486.23 193.27 485.19 185.96 474.67 180.3 470.56 179.53 469.05 180.6 465.17 184.03 460.43 186.68 460.56 188.62 457.66 188.7 454.65 190.89 448.93 191.47 445.21 193.29 441.42 196.71 440.65 200.38 441.87 201.77 443.68 199.99 446.68 204.82 452.02 204.06 454.89 206.1 457.73 210.68 457.3 211.91 454.75 214.67 454.3 218.79 455.97 221.35 451.68 225.08 451.9 225.69 449.83 228.72 448.23 228.56 445.78 231.31 442.43 230.7 438.06 232.62 435.79 241.14 435.59 244.38 436.65 244.43 436.63 247.52 438.53 248.08 441.99 251.84 445.94 256.5 445.11 255.94 441.39 263.14 436.05 263.41 440.57 265.1 441.59 262.6 446.62 267.14 450.07 267.08 453.61 263.99 456.05 271.02 459.21 275.73 457.62 278.15 454.71 283.21 456.75 284.13 454.34 288.24 457.44 291.59 457.23 294.21 458.55 299.24 456.09 303.6 458.17 307.06 452.09 308.61 450.52 312.44 450.16 315.44 450.92 324.53 457.96 326.6 463.59 328.24 464.43 329.49 469.6 329.9 475.41 332.6 478.48 335.7 480.27 337.77 482.95 337.89 485.94 343.02 491.87 346.23 493.65 348.14 497.72 347.67 501.91 345.27 505.21 346.32 509.76 343.94 509.81 342.05 506.86 339.74 509.54 338.61 510.09 338.05 511.83 335.27 510.23 334.44 512.4 Z M 232.23 464.89 229.25 465.51 227.01 470.95 223.54 470.53 221.63 476.79 219.72 477.55 220.02 484.59 229.02 485.37 231.89 487.76 232.95 490.65 236.59 493.13 248.24 489.11 253.47 490.37 260.32 482.85 259.87 478.97 261.37 477.41 259.81 474.92 256.06 474.77 251.26 465.81 248.35 464.76 244.94 465.86 240.59 468.62 235.83 470 231.13 467.57 232.23 464.89 Z" fill-rule="evenodd" id="전라남도"/>
<path d="M 529.11 214.59 527.53 217.82 528.33 223.31 527.43 224.85 528.78 228.82 528.9 236.92 529.95 242.62 532.29 245.8 533.99 251.18 535.82 254.05 534.72 255.51 535.8 259.56 535.66 263.71 532.08 267 529.44 271.91 528.73 277.92 529.43 280.4 532.2 283.92 533.06 290.5 531.73 293.44 532.09 301.35 531.38 303.76 527.62 309.6 526.29 315.85 525.48 325.15 527.03 329.72 525.57 331.8 528.76 337.62 528.29 340.96 533.38 346.83 530.31 350.32 527.11 351.71 526.4 353.51 529.23 354.97 528.66 357.89 534.39 361.42 540.76 356.48 543.75 352.25 545.52 348.28 548.11 349.21 549.88 357.65 546.32 362.01 546.64 364.42 542.75 371.07 543.86 373.31 543.91 378.9 540.09 389.58 540.71 391.73 539.38 395.57 538.62 402.66 535.76 408.49 524.81 404.81 521.98 407.68 519.06 409.22 514.32 408.37 514.54 403.35 508 399.32 505.34 399.01 494.27 402.79 492.82 404.93 492.84 410.04 490.3 409.37 485.38 413.63 483.13 415.27 478.4 411.69 475.44 410.97 470.83 413.66 468.64 417.07 462.63 418.47 461.72 420.85 457.86 421.31 454.05 419.43 451.64 419.93 449.85 417.61 446.63 417.31 440.3 419.79 436.96 418.05 435.27 415.04 432.83 413.85 432.8 408.85 431.91 405.65 431.64 401.54 437.54 397.89 441.3 398.1 442.02 402.79 446.15 400.67 449.14 400.14 450.41 395.17 448.95 390.64 452.86 388.29 451.83 385.57 457.52 380.04 456.92 373.28 454.92 371.5 455.8 365.3 453.52 361.07 450.04 359.38 445.05 360.67 441.27 360.83 439.67 363.69 433.35 366.46 432.13 370.33 429.36 374.3 428.77 377.18 425.46 376.48 425.53 370.95 422.87 370.68 419.75 371.9 416.89 376.31 415.19 382.33 422.68 383.12 426.2 385.37 426.41 387.33 426.41 387.38 425.04 388.73 419.45 388.31 415.3 395.15 416.19 396.77 420.79 399.87 421.06 402.43 418.62 404 412.59 402.28 412.43 405.95 417.31 410.97 417.47 412.74 414.16 415.79 412.57 412.14 406.69 409.69 401.78 411.49 399.45 409.8 398.03 411.95 394.88 411.4 390.22 408.15 395.13 405.57 394.78 400.41 393.43 396.48 390.68 394.88 389.46 391.71 387.57 392.03 385.79 389.38 386.07 387.17 379.89 384.2 377.86 385.78 373.37 385.94 369.1 382.76 364.5 381.08 362.83 377.49 360.02 378 359.06 374.85 358.84 372.03 361.41 370.55 359.93 364.18 357.95 362.79 358.07 359.25 362.54 354.84 364.05 355.5 367.48 352.6 367.94 346.72 370.58 343.97 371.39 340.97 369.02 336.36 372.87 333.35 376.11 335.44 378.08 334.33 375.1 329.1 377.04 326.81 372.94 324.68 369.63 325.86 368.45 327.7 365.96 326.73 363.99 323.9 359.64 322 358.59 324.52 355.17 324.51 353.96 319.52 355.19 316.8 358.4 314.66 358.7 309.83 357.51 306.16 357.33 301.42 358.41 298.52 358.23 294.17 360.92 292.68 360.49 289.77 357.08 287.33 355.05 283.42 351.94 283.46 349.03 281.32 348.91 279.41 355.4 277 357.41 271.81 359.27 275.44 361.61 277.29 363.94 276.8 364.67 272.1 363.25 266.91 365.8 264.45 366.61 260.64 369.19 262.74 371.63 263.15 373.05 261.35 376.95 264.43 378.97 262.42 374.98 258.94 377.47 252.69 377.92 249.41 381.68 251.25 383.54 248.69 385.77 248.15 395.38 249.83 394.93 244.68 396.89 245.27 398 241.68 402.7 243.76 406.43 248.32 410.61 249.71 418.09 249.77 421.21 244.72 421.2 242.64 418.39 240.78 420.65 235.62 420.3 233.73 422.6 230.94 427.44 227.73 428.55 225.41 432.58 223.91 435.7 217.63 441.32 217.69 443.42 214.38 447.53 216.05 448.81 217.72 455.67 218.28 454.62 215.86 456.84 211.16 463.04 212.33 465.03 216.01 468.23 216.92 472.04 213.9 473.41 210.29 475.89 210.02 477.43 212.24 480.17 211.21 484.64 212.02 488.55 213.77 489.72 210.57 492.49 208.85 499.89 213.08 503.61 216.91 507.81 216.34 506.92 212.28 511.89 206.29 514.49 206.52 515.48 204.58 519.94 202.03 522.02 201.99 523.32 203.73 523.94 208.45 529.29 213.16 529.11 214.59 Z M 691.44 142.54 692.26 146.38 691.29 151.47 687.28 154.2 680.59 152.13 679.72 150.94 680.63 145.61 684.19 143.62 691.44 142.54 Z" fill-rule="evenodd" id="경상북도"/>
<path d="M 376.41 511.55 374.48 515.24 378.02 514.72 380.3 518.63 379.54 521.59 375.46 521.61 374.25 522.81 369.43 522.35 368.39 518.56 370.27 517.03 372.2 513.02 376.41 511.55 Z M 361.76 519.81 363.31 523.21 366.12 524.66 367.5 527.49 371.57 523.7 376.22 523.39 380.25 526.36 379.18 529.75 379.24 535.62 376.86 537.61 377.89 541.63 371.94 539.28 368.12 540.78 366.43 535.52 366.37 531.22 361.7 533.3 362.81 537 360.3 539.02 357.55 538.27 356.09 535.49 354.28 535.24 355.11 529.97 351.45 523.55 351.19 519.72 353.01 518.05 353.99 514.63 357.34 509.33 360.28 507.91 363.68 509.57 364.48 513.42 361.46 516.6 361.76 519.81 Z M 449.59 529.36 445.6 532.93 447.25 535.52 444.36 537.65 442.49 541.16 438.9 539.39 442.01 536.61 438.63 535.73 439.84 521.2 437.94 520.18 436.69 523.15 429.9 523.13 427.68 522.19 426.55 517.79 428.71 513.83 432.33 510.97 435.27 512.9 442.28 510.61 439.35 507.34 443.73 504.92 446.3 505.42 447.17 501.23 448.99 500.06 449.34 495.63 453.6 495.46 451.69 502.76 455.41 507.25 454.05 508.65 455.04 511.79 452.04 516.4 453.61 517.87 456.33 514.94 457.46 517.99 452.84 521.65 455.4 523.07 455.03 525.5 451.82 526.76 449.59 529.36 Z M 460.25 491.05 459.35 489.04 456.7 488.17 452.11 483.84 450.6 480.13 445.71 481.17 443.18 480.77 439.7 475.49 439.15 470.99 436.58 474.16 440.34 480.38 440.84 485.6 443.83 488.19 441.52 491.94 436.54 489.55 438.11 487.47 434.52 486.46 433.98 484.85 430.01 486.46 428.88 485.34 424.95 487.74 421.14 492.55 425.03 493.28 429.5 498.32 425.38 501.79 422.85 502.64 421.74 506.11 421.61 511.06 420.25 512.59 420.93 516.18 424.43 513.72 426.11 515.8 424.27 521.33 422.33 522.52 423.08 527.49 421.31 532.56 418.08 532.47 416 525.77 413.47 524.36 413.42 522.24 417.05 519.15 409.35 516.33 407.75 512.92 411.3 512.9 413.07 511.56 410.65 507.89 406.76 509.18 406.55 512.19 404.57 512.9 402.48 511.03 402.11 508.6 398.03 507.78 395.09 509.06 395.7 515.04 391.96 514.66 390.36 513.02 387.76 515.83 385.33 513.95 384.7 511.22 380.08 510.66 376.15 506.63 378.45 504.57 377.07 500.25 378.36 498.3 375.08 496.26 370.75 503.88 368.27 501.3 363.83 498.59 360.62 506.38 359.19 507.56 354.36 507.37 350.23 509.6 347.8 508.38 345.27 505.21 347.67 501.91 348.14 497.72 346.23 493.65 343.02 491.87 337.89 485.94 337.77 482.95 335.7 480.27 332.6 478.48 329.9 475.41 329.49 469.6 328.24 464.43 326.6 463.59 324.53 457.96 327.63 456.65 329.72 453.36 328.23 450.08 331.18 445.47 333.91 443.36 334.44 440.43 331.1 436.76 332.89 433.46 329.22 426.48 325.61 423.66 328.31 419.95 328.66 416.43 331.03 415.16 329.29 411.81 331.44 408.05 332.6 403.37 333.9 402.52 334.04 395.48 334.85 394.03 340.46 390.43 342.71 385.95 355.54 378.77 356.23 375.27 359.06 374.85 360.02 378 362.83 377.49 364.5 381.08 369.1 382.76 373.37 385.94 377.86 385.78 379.89 384.2 386.07 387.17 385.79 389.38 387.57 392.03 389.46 391.71 390.68 394.88 393.43 396.48 394.78 400.41 395.13 405.57 390.22 408.15 394.88 411.4 398.03 411.95 399.45 409.8 401.78 411.49 406.69 409.69 412.57 412.14 414.16 415.79 418.14 415.24 422.55 411.92 429.3 411.68 429.62 406.82 431.91 405.65 432.8 408.85 432.83 413.85 435.27 415.04 436.96 418.05 440.3 419.79 446.63 417.31 449.85 417.61 451.64 419.93 454.05 419.43 457.86 421.31 461.72 420.85 462.63 418.47 468.64 417.07 470.83 413.66 475.44 410.97 478.4 411.69 483.13 415.27 485.38 413.63 487.68 414.54 487.28 418.64 482.69 421.53 485.05 424.5 484.74 426.42 488.94 426.66 497.4 430.74 497.76 432.9 501.63 437.52 504.4 439.36 507.74 438.35 510.29 442.72 508.33 445.41 508.11 448.35 505.82 450.43 502.45 448.76 500.72 449.89 498.46 456.31 491.23 461.04 487.73 461.27 485.74 466.47 484.09 467.64 479.06 468.06 476.85 469.59 472.99 469.93 471.24 471.73 472.53 474.3 471.48 476.88 468.21 477.79 462.61 477.98 465.12 481.34 468.29 483.99 465.79 486.23 465.77 486.34 466.72 487.21 464.79 488.95 461.85 489 460.25 491.05 Z" fill-rule="evenodd" id="경상남도"/>
<path d="M 246.5 705.62 247.82 706.86 246.7 710.55 248.62 711.97 246.76 722.9 244.28 723.81 242.53 727.82 239.66 730.8 238.45 734.1 233.58 734.91 222.82 739.24 216.87 739.52 215.93 741.1 211.1 744.18 202.11 743.2 196.46 745.62 194.06 743.04 191.98 743.92 188.95 742.59 184.86 744.57 178.81 743.25 173.1 749.37 168.71 743.69 162.77 740.16 160.36 735.58 160.5 729.85 162.92 726.7 166.52 724.25 167.74 722.23 170.9 720.73 174.29 715.08 175.93 714.89 179.56 711.76 184.77 710.2 186.73 708.71 189.26 709.31 199.33 704.48 203.67 704.47 205.09 703.5 205.14 703.53 209.84 703.95 211.29 702.28 215.59 702.54 218.8 701.06 219.37 701.63 226.66 699.21 230.31 699.54 232.89 698.68 234.56 700.02 237.65 699.56 239.45 703.04 244.14 703.61 246.5 705.62 Z" id="제주특별자치도"/>
</g>
</svg>