<?xml version="1.0"?>
<svg xmlns="http://www.w3.org/2000/svg" version="1.2" baseProfile="tiny" width="800" height="436" viewBox="0 0 800 436" stroke-linecap="round" stroke-linejoin="round">
<g id="전라북도_시군구_경계">
<path d="M 187.08 356.84 191.08 356.55 201.03 339.35 205.81 328.25 209.46 322.32 215.59 323.05 216.79 319.77 221.92 316.29 227.69 314.17 233.72 314.66 239.61 313.4 242.35 310.87 248.06 310.33 250.28 309.44 255.84 311.34 260.94 304.37 262.59 303 263.96 296.55 268.07 297.63 268.95 295 271.91 294.39 278.49 296.39 286.19 305.67 284.69 298.95 288.4 296.95 290.31 295.95 293.96 297.23 298.99 296.52 301.63 294.59 306.99 295.42 315.88 297.98 321.08 296.31 324.7 296.59 328.1 301.91 325.31 304.79 326.76 307.78 325.23 309.7 324.6 315.94 329.59 321.18 323.91 324.73 323.98 326.96 328.13 328.18 327.47 334.6 326.08 336.55 328.19 341.65 329.1 348.9 325.91 349.3 322.94 351.69 321.91 354.73 318.88 357.58 315.97 356.35 314.59 358.1 317.08 362.58 320.4 365.44 320.2 371.67 321.12 373.6 319 375.29 317.23 378.52 313.79 381.41 308.09 383.12 311.03 385.84 312.05 391.62 311.64 394.81 306.66 400.79 300.56 400.67 298.31 408.26 295.2 407.55 291.25 409.7 284.69 407.44 283.82 410.36 282.02 411.08 281.58 415.06 278.49 419.86 276.56 419.02 275.33 423.13 267.98 422.54 260.24 417.05 258.85 415.23 255.23 418.34 251.72 417.61 250.16 418.66 249.38 424.79 252.65 424.35 252.89 427.46 250.69 432.79 248.11 431.54 245.68 428.01 242.06 428.29 240.82 427.09 235.51 426.23 228.92 429.57 227.96 426.74 225.66 425.89 224.36 420.53 221.43 419.19 224.23 408.7 221.53 404.36 221.1 401.52 217.35 403.19 214.29 407.6 212.51 405.44 214.14 403.43 214.48 395.39 212.43 394.92 206.57 389.16 212.1 384.64 213.07 378.17 212.21 375.88 208 371.53 206.24 367.32 203.12 369.4 195.55 367.94 194.38 364.83 191.88 363.98 189.31 365.6 186.73 364.7 190 357.81 187.08 356.84 Z" id="고창군"/>
<path d="M 197.08 205.76 199.04 207.55 200.91 212.7 199.37 215.16 196.96 215.47 197.56 210.98 194.01 209.24 197.08 205.76 Z M 192.4 176.61 192.48 176.58 192.4 176.61 191.93 179.14 184.8 182.75 182.81 180.99 183.05 178.53 185.86 176.18 189.96 178.51 192.4 176.61 Z M 227.8 214.08 227.29 214.73 225.24 212.06 211.21 174.78 211.98 174.23 224.26 206.96 225.79 211.33 227.8 214.08 Z M 164.04 168.46 164.89 170.95 167.42 173.82 168.91 177.28 166.75 178.69 163.83 174.99 163.31 171.75 164.04 168.46 Z M 179.01 163.32 183.27 164.58 183.84 167.36 181.85 171.26 183.89 173.5 183.48 175.4 180.89 176.16 178.18 173.57 180.78 172.08 182.11 168.04 177.98 164.67 179.01 163.32 Z M 171.91 151.07 168.97 155.36 164.08 156.19 162.29 155.27 163.66 152.36 168.46 152.37 171.91 151.07 Z M 301.17 81.63 301.33 82.85 296.83 85.74 293.17 86.73 284.02 86.31 283.94 84.12 292.9 83.73 301.17 81.63 Z M 238.73 56.57 241.55 55.51 243.17 59.78 240.44 61.91 237.29 60.5 238.73 56.57 Z M 363.18 121.98 359.81 121.57 357.54 124.36 351.69 127.98 338 132.53 337.95 141.6 328.83 142.46 324.29 140.61 307.59 143.28 296.93 144.76 291.05 145.24 290.33 135.47 287.45 138.25 283.75 137.61 276.42 137.77 273.11 136.58 269.14 136.63 265.75 134.53 264.56 128.28 264.16 121.28 264.66 115.08 266.57 111.77 266.5 108.26 257.3 105.24 255.02 105.48 254.9 128.29 245.82 127.49 241.68 123.88 241.14 121.84 236.15 121.84 236.7 118.5 234.79 116.63 235.2 113.02 232.9 112.26 218.4 154.11 218.67 158.1 216.43 163.48 213.1 166.75 207.14 174.1 202.47 172.72 199.54 173.66 196.73 172.9 198.91 170.35 194.38 165.03 197.59 163.46 200.77 164.76 202.95 166.82 208 168.51 214.45 160.56 212.66 156.37 216.88 156.07 231.61 113.31 232.2 110.59 227.8 105.1 228.31 103.92 228.44 95.85 229.58 92.17 259.35 90.52 265.53 89.88 267.41 91.11 267.56 94.02 270.06 93.88 269.25 90.37 277.18 89.89 284.02 87.57 293.61 87.58 298.52 85.99 302.7 82.48 305.56 82.97 308.64 85.08 313.28 87.03 316.01 86.92 320.62 83.76 323.06 78.72 324.28 74.33 321.42 73 318.42 73.45 321.1 66.61 326.69 66.52 330.01 64.71 343.6 62.85 345.9 61.73 351.19 54.61 359.18 53.12 369.27 49.27 369.11 51.6 370.65 56.79 372.46 58 371.39 63.26 377.05 66.93 379.63 71.22 383.91 76.1 389.18 77.57 389.75 79.85 388.81 84.72 386.76 86.64 386.98 89.51 384.3 91.02 384.56 94.18 377.18 99.86 379.6 100.59 380.68 102.76 376.27 106.34 375.71 110.8 373.99 113.75 367.96 119.88 363.18 121.98 Z M 193.88 34.57 195.62 38.03 193.71 39.68 191.14 37.81 190.34 35.15 193.88 34.57 Z M 9.16 14.2 12.79 16.08 10.26 18.36 3.11 18.81 1 11.96 5.97 12.14 9.16 14.2 Z" fill-rule="evenodd" id="군산시"/>
<path d="M 363.18 121.98 363.86 125.69 367.01 127.7 372.97 124.6 376.4 123.95 381.32 124.48 386.79 128.98 396.24 124.81 397.46 123.43 404.1 126.46 404.51 124.19 408.64 129.8 419.45 132.57 421.43 136.84 423.32 138.89 427.24 143.35 426.8 148.11 428.04 157.87 424.81 161.72 424.62 163.8 422.07 167.28 423.33 173.89 426.34 177.31 428.02 177.91 432 181.67 435.28 180.76 441.22 183.86 443.77 184.13 446.83 185.91 450.78 186.18 450.91 188.61 453.13 190.41 454.19 194.9 450.34 196.98 449.11 199.1 445.94 199.93 444.81 204.28 450.36 206.27 452.91 208.31 452.84 210.88 457.17 215.1 458.9 217.78 457.41 221.43 454.54 222.16 452.58 225.94 448.61 231.14 451.97 234.96 452.17 237.32 449.99 243.61 448.86 246.95 444.64 247.14 441.04 248.84 437.99 248.25 436.31 249.25 432.64 247.58 430.4 244.1 427.95 243.4 424.71 239.45 421.79 238.74 420.2 236.92 420.86 232.38 414.81 223.83 410.45 221.27 404.28 219.5 400.18 220.68 395.94 220.59 393.04 213.39 389.11 209.16 387.64 209 381.34 204.86 375.85 205.08 375.3 202.39 371.49 202.6 372.36 205.26 375.31 207.33 375.12 210.89 371.63 215.3 368.96 217.59 362.91 218.44 358.93 218.21 352.83 222.05 352.64 224.18 346.7 223.7 348.83 218.79 345.88 219.65 343.8 216.84 344.59 212.14 344.18 208.61 340.04 209.06 339.71 204.53 334.46 205.34 333.08 202.66 330.31 193.53 326.35 182.57 312.7 178.45 299.75 174.15 297.06 167.83 296.49 159.66 293.79 159.35 292.88 153.22 291.05 145.24 296.93 144.76 307.59 143.28 324.29 140.61 328.83 142.46 337.95 141.6 338 132.53 351.69 127.98 357.54 124.36 359.81 121.57 363.18 121.98 Z" id="김제시"/>
<path d="M 664.97 306.49 667.19 306.43 669.89 309.75 673.93 312.07 676.22 315.57 679.14 315.22 681.7 317.85 681.57 320.1 684.08 323.38 685.41 327.64 688.54 331.23 689.45 333.46 692.08 334.79 692.58 340.76 686.72 344.22 686.86 348.28 686.02 352.83 689.97 359.46 692.86 358.34 696.57 360.25 699.31 359.47 701.82 361.68 698.25 366.26 698.5 370.42 696.32 377 694.81 377.26 690.52 382.96 686.34 384.72 682.62 390.34 681.61 393.23 681.93 396 679.65 398.75 675.54 401.57 676.39 406.66 680.99 413.58 679.93 418.44 674.52 422.24 673.32 425.62 665.41 430.3 662.02 430.42 658.01 425.56 652.64 423.81 651.58 422.38 647.43 420.52 647.11 417.91 643.37 417.08 640.88 413.13 636.81 411.02 635.7 409.07 628.74 404.66 623.99 405.42 620.95 402.58 617.81 401.89 612.62 402.79 610.91 404.2 603.79 403.21 598.12 408.96 595.01 416.06 591 422.57 588.96 423.42 588.11 426.39 585.48 428.48 585.45 431.2 582.08 433.67 580.22 433.05 578.8 429.18 573.28 426.61 569.53 423.58 566.24 425.59 561.65 427.19 556.76 431.12 551.13 432.58 548.94 432.19 546.54 430 541.54 427.75 529.29 428.51 520.04 419.65 519.02 417.79 514.26 417.17 512.69 419.03 510.88 425.99 509.65 426.88 505.22 426.32 500.54 423.31 498.97 419.62 500.16 416.41 500.72 410.05 502.81 406.21 506.58 405.75 509.33 401.54 512.57 398.55 510.95 397.46 513.97 391.61 516.14 385.36 520.56 384.69 524.73 385.09 526.55 379.63 527.16 375.47 529.53 373.51 530.67 370.59 536.98 373.68 538.19 371.73 540.75 372.11 543.68 370.86 545.72 367.37 546.68 361.36 549.86 357.36 553.1 350.78 551.82 349.21 550.79 344.87 550.32 340.49 551.99 335.9 555.67 336.84 557.53 335.88 561.13 337.81 564.04 335.9 569.08 335.04 570.8 333.24 569.46 327.13 562.96 320.98 566.03 319.94 567.18 312.41 564.13 311.63 561.51 309.68 563.32 306.13 565.2 307.87 568.99 307.07 571.59 303.96 573.59 304.27 579.18 309.18 582.02 310.42 586.86 309.65 590.68 303.66 594.16 303.26 598.57 308.23 605.21 307.64 605.64 309.89 610.66 313.27 611.42 310.59 616.29 310.21 617.91 313.12 622.32 314.2 626.78 316.51 626.32 320.07 632.47 327.56 635.32 329.11 636.56 334.64 641.18 335.91 640.96 340.96 636.25 343.35 640.72 347.33 647.56 349.69 654.17 348.24 655.69 345.83 654.59 344.37 656.18 338.37 663.04 332.74 663.12 328.02 662.35 325.65 659.3 324.21 658.22 321.22 658.27 316.92 659.45 316.2 659.99 310.42 662.35 309.71 664.97 306.49 Z" id="남원시"/>
<path d="M 712.18 187.88 707.43 184.2 706.83 179.96 702.92 176.75 700.23 177 697.24 172.81 693.7 176.02 690.57 175.86 685.19 172.6 683.24 174.48 679.69 169.48 680.43 166.13 679.29 162.28 681.18 158.39 678.34 152 676.34 152.41 670.74 145.42 669.91 141.25 664.24 143.48 660.95 142.23 662.24 136.95 664.81 132.93 661.47 127.1 658.05 125 655.87 119.85 652.09 119.52 649.88 114.69 651.7 112.45 651.72 107.43 649.06 100.97 645.99 98.26 644.94 95.61 645.09 91.88 641.36 92.21 639.95 88.38 643.73 84.87 644.75 80.57 643.12 77.03 645.81 75.49 644.76 70 645.86 67.74 645.06 64.34 643.05 63.34 642.81 60.17 646.74 61.54 649.53 61.5 651.64 64.2 654.15 63.91 657.74 65.41 660.52 69.03 663.82 67.05 667.38 68.09 671.01 74.77 673.69 74.78 675.33 80.28 676.81 80.4 678.65 76.77 677.74 71.16 675.49 69.53 676.37 67.49 680.07 68.4 682.03 67.18 683.33 64.39 685.34 65.86 687.3 64.48 684.08 62.41 683.51 59.47 679.04 58.4 678.62 54.16 679.39 48.32 680.78 46.77 689.24 46.99 691.1 51.45 693.31 52.5 695.37 60.73 697.42 61.8 700.84 59.71 699.61 54.78 707.5 49.05 709.97 51.45 710.58 59.96 713.52 63.34 717.16 62.58 719.92 64.61 726.34 64.37 728.25 67.69 731.47 65.68 734.17 68.53 736.59 67.74 737.78 69.77 736.41 72.64 739.2 74.5 746.4 72.36 748.05 73.32 751.99 68 760.89 65.97 765.58 62.78 774.78 60.79 775.96 63.91 777.99 64.64 780.94 68.52 784.65 69.15 784.23 76.01 785.46 79.27 784.22 82.1 791.48 87.19 790.01 90.8 792.78 91.8 795.96 103.72 799 106.13 796.87 110.52 792.6 113.8 787.48 115.93 787.22 121.38 789.54 123.61 788.28 126.25 786 126.14 782.39 128.93 777.93 127.79 776.8 133.69 774.2 136.2 775.42 140.6 771.81 143.51 770.54 148.25 766.83 146.91 764.29 147.21 761.36 150.16 761.37 151.63 757.21 153.93 755.17 152.13 750.11 155.32 748.27 155.21 744.82 157.95 742.19 161.83 736.02 163.27 733.86 160.93 730.53 159.41 727.91 164.09 728.5 166.86 725.62 171.32 724.48 175.32 721.93 176.49 722.24 178.92 720.27 183.27 716.17 186.28 712.18 187.88 Z" id="무주군"/>
<path d="M 136.18 269.1 140.2 273.1 140.92 275.21 136.33 281.81 130.87 283.53 125.69 290.46 120.39 291.86 117.56 294.52 116.34 292.85 114.93 287.72 122.27 285.05 119.67 282.4 123.22 280.5 124.43 277.87 127.39 276.15 124.57 273.6 128.18 272.55 129.16 275.05 132.54 277.56 133.03 274.29 135.73 274.12 134.76 271.33 136.18 269.1 Z M 60.54 255.87 64.34 259.55 61.97 261.57 60.88 258.84 57.63 259.98 57.36 256.73 60.54 255.87 Z M 56.9 245.29 57.36 246.57 54.92 249.59 53.81 246.7 56.9 245.29 Z M 299.75 174.15 312.7 178.45 326.35 182.57 330.31 193.53 333.08 202.66 334.46 205.34 339.71 204.53 340.04 209.06 344.18 208.61 344.59 212.14 343.8 216.84 345.88 219.65 348.83 218.79 346.7 223.7 352.64 224.18 352.16 225.57 356.9 233.16 355.48 238.23 353.08 239.55 352.36 241.77 347.01 240.33 344.83 241.33 343.56 243.83 340.58 239.29 336.31 244.14 334.35 243.76 330.05 239.79 326.67 245.19 325.95 250.69 321.16 247.74 318.17 248.82 315.43 256.51 311.55 256.98 309.36 264.89 308.82 273.36 307.89 276.65 308.84 281.4 308.5 284.51 309.66 286.06 309.56 290.2 307.06 290.14 305.94 292.32 306.99 295.42 301.63 294.59 298.99 296.52 293.96 297.23 290.31 295.95 288.4 296.95 286.33 295.57 283.34 289.15 282.02 288.33 279.37 291.48 269.56 288.64 259.93 288.35 255.62 286.47 252.42 287.55 248.05 286.24 240.72 288.95 235.99 288.33 228.99 291.67 223.82 290.93 220.52 291.64 216.35 288.18 213.6 288.19 212.03 283.95 208.53 280.18 204.32 279.62 202.52 276.11 200.53 275.61 202.2 271.82 204.61 271.54 203.69 263.53 199.7 262.8 205.08 259.36 209.44 258.04 214.06 253.04 217.06 252.25 224.79 245.66 225.28 243.55 227.63 241.51 231.62 235.41 234.28 235.22 240.78 231.83 231.46 218.11 227.29 214.73 227.8 214.08 230.33 214.72 241.37 231.42 245.98 234.42 252.94 226.7 257.78 223.48 259.83 220.61 263.82 212.37 266.92 210 248.44 192.37 252.53 187.57 259.16 178.85 264.8 174.71 273.78 172.07 278.13 171.73 281.29 172.76 297.47 181.96 303.2 182.45 299.75 174.15 Z" fill-rule="evenodd" id="부안군"/>
<path d="M 368.98 352.4 368.98 352.42 368.9 352.44 368.98 352.4 Z M 368.98 352.4 368.98 352.34 367.58 351.23 365.59 345.95 366.04 342.79 370.7 343.23 373.97 341.22 377.25 343.9 379.5 342.65 386.54 344.7 391.19 341.73 393.35 343.5 396.65 342.23 396.68 339.16 398.35 336.62 395.88 333.51 395.81 329.47 394.41 328.62 393.64 323.53 394.81 320.56 401.36 318.51 403.93 313.73 407.95 308.23 413.06 304.8 415.59 306.08 415.97 308.86 418.34 312.55 421.65 312.98 426.72 312.03 429.6 310.27 434.38 316.63 439.46 318.79 439.85 320.42 444.69 324.22 444.27 327.41 445.68 328.58 448.59 327.66 450.87 325.12 457.51 329.97 461.07 330.42 468.5 328.75 471.15 331.35 476.6 331.64 478.75 337.43 478.66 340.36 481.42 345.19 481.06 348.73 482.75 352.77 488 352.97 491.37 352.26 494.61 353.89 496.7 351.04 495.74 347.21 504.03 339.6 507.12 338.75 512.78 338.85 517.55 344.53 520.98 345.25 524.33 341.49 530.31 343.79 532.17 346.46 535.4 347.2 540.72 344.33 544.1 345.9 546.56 344.71 550.79 344.87 551.82 349.21 553.1 350.78 549.86 357.36 546.68 361.36 545.72 367.37 543.68 370.86 540.75 372.11 538.19 371.73 536.98 373.68 530.67 370.59 529.53 373.51 527.16 375.47 526.55 379.63 524.73 385.09 520.56 384.69 516.14 385.36 513.97 391.61 510.95 397.46 512.57 398.55 509.33 401.54 506.58 405.75 502.81 406.21 500.72 410.05 500.16 416.41 494.43 419.3 492.4 418.51 489.16 420.91 485.6 425.65 483.56 426.88 483.53 429.18 476.64 430.37 474.97 432.95 471.13 434.65 466.32 435 462.81 433.68 459.72 431.2 452.51 428.27 450.93 428.77 447.96 425.78 443.84 426.06 440.62 423.43 443.91 419.58 444.49 414.15 448.64 416.2 451.91 414.5 450.76 411.55 451.79 408.55 449.86 406.26 452.12 401.56 449.22 399.18 449.53 396.09 446.77 392.72 442.5 395.46 439.1 393.95 438.96 391.58 435.55 388.9 434.14 383.96 440.22 384.56 442.39 382.81 441.66 380.27 442.96 374.55 444.68 370.52 441.5 366.95 438.5 366.78 438.3 361 437.56 359.8 437.49 350.22 433.03 351.39 429.02 354.61 424.38 351.23 422.29 354.84 423.33 356.53 420.81 363.68 416.98 365.22 415.43 370.31 411.19 369.77 411.19 376.36 413.04 380.1 413.23 383.4 407.68 386.3 404.02 385.43 398.83 386.6 396.19 386.44 393.99 383.58 394.02 380.64 388.79 382.56 389.78 378.62 388.39 375.74 382.42 371.96 383.45 368.59 380.69 366.92 381.76 362.21 380.38 359.32 375.43 357.73 373.93 355.27 368.98 352.4 Z" fill-rule="evenodd" id="순창군"/>
<path d="M 461.11 273.21 460.99 273.6 461.03 273.42 461.11 273.21 Z M 461.11 273.21 461.37 272.35 461.87 271.86 461.39 272.57 461.16 273.07 461.11 273.21 Z M 451.91 169.1 451.03 170.68 452.1 177.97 450.82 180.59 450.78 186.18 446.83 185.91 443.77 184.13 441.22 183.86 435.28 180.76 432 181.67 428.02 177.91 426.34 177.31 423.33 173.89 422.07 167.28 424.62 163.8 424.81 161.72 428.04 157.87 426.8 148.11 431.05 150.9 434.06 147.71 435.78 150.41 435.34 152.28 438.26 156.1 442.7 154.68 444.51 155.09 448.2 164.88 445.38 164.89 445.14 167.9 451.91 169.1 Z M 461.87 271.86 461.9 271.83 460.73 269.7 462.18 265.92 460.52 263.61 459.99 259.51 460.58 255.85 456.24 251.31 457.46 248.36 451.71 244.06 449.99 243.61 452.17 237.32 451.97 234.96 448.61 231.14 452.58 225.94 454.54 222.16 457.41 221.43 458.9 217.78 461.54 213.81 463.28 213.29 463.44 209.24 466.14 205.71 472 207.26 477.81 204.05 480.17 201.47 484.22 202.23 485.73 198.44 485.21 195.31 487.56 192.06 490.62 190.16 494.39 191.65 497.57 194.35 501.43 192.43 504.05 194.73 505.83 194.58 507.09 189.35 510.97 184.96 513.37 181.01 517.93 177.56 519.13 171.86 517.5 170.63 512.83 171.16 509.61 167.07 510.59 161.16 508.43 159.01 505.66 152.48 504.04 151.08 501.32 153.76 497.36 154.81 493.44 154.64 492.82 151.72 490.24 146.03 486.44 141.73 485.71 137.37 484.16 133.61 479.52 129.98 475.7 130.4 474.13 129.55 469.69 132.12 465.31 133.59 459.91 134.42 457.18 132.23 448.89 131.21 446.31 134.83 443.88 134.57 441.75 131.86 440 132.08 437.67 127.92 437.94 125.67 436.1 122.17 439.04 121.59 441.08 118.03 446.7 119.8 451.75 123.09 455.9 119.83 457.43 120.21 462.03 115.74 463.26 110.64 468.15 100.38 467.21 96.42 469.49 87.54 468.64 82.84 476.05 77.83 476.09 74.63 474.32 70.22 472.13 68.33 472.35 65.1 478.67 57.62 480.22 53.79 482.01 51.74 478.46 47.27 479.67 44.99 479.62 39.32 480.79 37.05 484.56 34.89 489.7 38.34 494.9 36.55 499.61 32.72 502.97 36.23 506 37.24 507.72 35.89 508.82 29.97 511.76 29.74 512.9 31.3 517.46 30.52 521.25 33.13 524.17 37.55 526.78 38.68 529.26 36.47 525.71 31.92 525.78 27.68 527.49 26.39 528.23 23.47 531.33 23.61 533.44 25.73 537.41 26.38 541.83 23.99 545.57 23.22 546.67 18.66 550.1 17.11 552.35 19.83 555.48 20.19 557.39 15.04 564.33 15.53 566.09 21.15 568.59 21.9 570.39 25.98 567.45 31.03 568.15 32.66 572.49 35.57 571.21 39.54 573.16 42.26 572.14 44.68 574.18 47.69 572.67 49.68 572.78 53.66 576.76 57.71 578.03 60.01 577.98 63.34 579.9 65.31 579.19 69.2 575.5 70.09 572.62 75.04 572.55 78.03 573.8 80.76 573.8 85.04 569.39 86.31 567.94 89.37 565.71 90.46 564.98 95.15 566.44 96.71 565.92 101.46 569.41 106.33 567.17 111.17 568.92 114.61 567.78 117.72 568.62 120.23 567.83 125.03 563.72 127.24 561.23 127.07 560.92 132.02 561.85 137.63 560.91 139.95 561.32 144.8 557.71 146.06 555.42 150.06 557.89 153.15 556.15 157.94 552.3 160.53 551.11 166.57 551.81 169.62 546.4 173.15 546.91 175.45 545.47 177.23 548.81 181.54 544.01 183.39 541.86 185.5 537.03 187.49 537.47 190.41 535.77 193.21 533.1 193.62 532.46 196.21 528.68 198.87 524.78 204.11 525.36 208.09 528.35 211.42 527.47 214.59 529.6 217.32 527.14 223.35 529.29 228.24 529.93 236.53 525.44 238.07 523.48 235.97 523.12 233.26 516.09 226.26 510.64 227.34 508.56 224.87 508.54 220.42 504.98 217.56 501.38 216.67 500.57 214.43 496.97 213.34 494.31 215.19 489.21 220.21 485.88 220 481.22 222.61 480.35 231.23 475.36 236.77 474.94 242.58 476.08 246.47 477.79 247.91 476.5 252.93 479.24 258.34 478.08 262.48 475.83 264.99 472.9 266.06 470.99 269.47 467.24 272.96 461.95 271.79 461.87 271.86 Z" fill-rule="evenodd" id="완주군"/>
<path d="M 478.46 47.27 482.01 51.74 480.22 53.79 478.67 57.62 472.35 65.1 472.13 68.33 474.32 70.22 476.09 74.63 476.05 77.83 468.64 82.84 469.49 87.54 467.21 96.42 468.15 100.38 463.26 110.64 462.03 115.74 457.43 120.21 455.9 119.83 451.75 123.09 446.7 119.8 441.08 118.03 439.04 121.59 436.1 122.17 437.94 125.67 437.67 127.92 440 132.08 435.56 131.99 424.52 134.33 423.32 138.89 421.43 136.84 419.45 132.57 408.64 129.8 404.51 124.19 404.1 126.46 397.46 123.43 396.24 124.81 386.79 128.98 381.32 124.48 376.4 123.95 372.97 124.6 367.01 127.7 363.86 125.69 363.18 121.98 367.96 119.88 373.99 113.75 375.71 110.8 376.27 106.34 380.68 102.76 379.6 100.59 377.18 99.86 384.56 94.18 384.3 91.02 386.98 89.51 386.76 86.64 388.81 84.72 389.75 79.85 389.18 77.57 383.91 76.1 379.63 71.22 377.05 66.93 371.39 63.26 372.46 58 370.65 56.79 369.11 51.6 369.27 49.27 371.66 45.9 372.74 36.67 373.03 24.13 376.54 13.61 379.63 9.41 384.2 8.03 388.4 11.01 391.93 11.17 396.82 8.01 399.85 3.89 407.13 1 409.75 1.16 415.54 5.12 424.08 6.01 427.09 4.12 429.51 6.54 431.58 5.43 432.95 9.67 434.73 11.3 439.38 10.06 443.54 10.25 443.45 11.97 447.85 16.28 450.68 17.08 449.86 21.14 448.29 21.72 449.69 29.69 449.49 32.33 454.15 37.63 455.44 37.54 461.79 44.16 466.58 42.16 475.03 48.37 478.46 47.27 Z" id="익산시"/>
<path d="M 603.61 271.98 599.27 275.77 592.81 275.59 588.71 276.66 583.24 275.72 581.06 276.48 577.35 280.02 578.28 284.11 576.96 289.92 579.11 291.44 579.75 295.3 573.53 299.93 573.59 304.27 571.59 303.96 568.99 307.07 565.2 307.87 563.32 306.13 561.51 309.68 564.13 311.63 567.18 312.41 566.03 319.94 562.96 320.98 569.46 327.13 570.8 333.24 569.08 335.04 564.04 335.9 561.13 337.81 557.53 335.88 555.67 336.84 551.99 335.9 550.32 340.49 550.79 344.87 546.56 344.71 544.1 345.9 540.72 344.33 535.4 347.2 532.17 346.46 530.31 343.79 524.33 341.49 520.98 345.25 517.55 344.53 512.78 338.85 507.12 338.75 504.03 339.6 495.74 347.21 496.7 351.04 494.61 353.89 491.37 352.26 488 352.97 482.75 352.77 481.06 348.73 481.42 345.19 478.66 340.36 478.75 337.43 476.6 331.64 471.15 331.35 468.5 328.75 468.57 323.63 465.21 322.95 463.75 319.66 466.92 316.45 471.34 317.16 471.06 314.24 468.33 312.26 464.67 311.11 458.03 307.83 461.38 298.23 458.28 293.5 457.77 290.67 465.81 287.81 466.5 285.41 465.01 280.96 461.17 276.26 460.99 273.6 461.37 272.35 461.95 271.79 467.24 272.96 470.99 269.47 472.9 266.06 475.83 264.99 478.08 262.48 479.24 258.34 476.5 252.93 477.79 247.91 476.08 246.47 474.94 242.58 475.36 236.77 480.35 231.23 481.22 222.61 485.88 220 489.21 220.21 494.31 215.19 496.97 213.34 500.57 214.43 501.38 216.67 504.98 217.56 508.54 220.42 508.56 224.87 510.64 227.34 516.09 226.26 523.12 233.26 523.48 235.97 525.44 238.07 529.93 236.53 529.29 228.24 527.14 223.35 529.6 217.32 527.47 214.59 528.35 211.42 525.36 208.09 524.78 204.11 528.68 198.87 532.46 196.21 533.1 193.62 535.77 193.21 536.17 195 533.54 197.42 533.21 199.81 534.57 202.74 536.89 204.57 539.71 210.79 539.73 213.69 542.34 215.68 542.06 217.41 544.76 223.5 543.72 230.36 545.07 232.38 542.51 239.03 546.6 241.22 549.99 240.19 555.01 244.33 557 250.87 558.92 252.29 562.12 250.21 566.64 250.03 570.46 248.24 575.31 251.45 579.05 251 579.66 255.76 584.01 255.29 585.76 257.28 588.82 257.83 597.33 262.71 600.32 261.91 602.13 265.7 601.23 267.99 603.61 271.98 Z" id="임실군"/>
<path d="M 712.18 187.88 706.05 193.23 703.84 197.88 699.75 196.43 698.23 197.72 696.78 201.77 697.35 204.24 696.6 207.66 697.15 211.51 696.02 213.59 697.15 219.96 695.82 224.54 696.28 227.53 691.53 230.63 689.96 233.16 687.78 239.26 687.28 247.77 683.11 250.76 683.33 254.5 680.3 257.48 679.4 261.53 681.28 263.91 681.19 267.07 685.77 273.79 679.84 275.61 677.11 278.44 676.19 283.71 674.28 285.73 675.83 291.31 669.59 296.47 666.58 300.99 664.97 306.49 662.35 309.71 659.99 310.42 659.45 316.2 658.27 316.92 658.22 321.22 659.3 324.21 662.35 325.65 663.12 328.02 663.04 332.74 656.18 338.37 654.59 344.37 655.69 345.83 654.17 348.24 647.56 349.69 640.72 347.33 636.25 343.35 640.96 340.96 641.18 335.91 636.56 334.64 635.32 329.11 632.47 327.56 626.32 320.07 626.78 316.51 622.32 314.2 617.91 313.12 616.29 310.21 611.42 310.59 610.66 313.27 605.64 309.89 605.21 307.64 598.57 308.23 594.16 303.26 590.68 303.66 586.86 309.65 582.02 310.42 579.18 309.18 573.59 304.27 573.53 299.93 579.75 295.3 579.11 291.44 576.96 289.92 578.28 284.11 577.35 280.02 581.06 276.48 583.24 275.72 588.71 276.66 592.81 275.59 599.27 275.77 603.61 271.98 606.5 273.6 610.86 273.72 614.26 271.95 617 272.37 617.58 268.59 616.05 264.2 619.14 259.35 619.21 255.53 620.26 252.25 615.14 248.99 613.22 246.09 616.25 240.26 615.43 236.11 620.38 232.23 621.03 229.46 620.04 223.26 623.09 221.32 626.61 215.16 630.78 212.09 633.61 208.85 637.61 207.01 639.29 204.06 637.9 202.53 635.36 197.08 634.53 192.41 635.37 189.58 634.46 186.61 635.58 181.93 637.48 180.5 637.9 177.15 639.27 175.4 644.84 175.12 647.59 178.58 651.68 177.86 654.24 181.86 658.72 184.56 662.2 185.08 667.76 180.55 670.67 179.32 672.12 176.06 672.09 173.33 674.17 166.25 679.29 162.28 680.43 166.13 679.69 169.48 683.24 174.48 685.19 172.6 690.57 175.86 693.7 176.02 697.24 172.81 700.23 177 702.92 176.75 706.83 179.96 707.43 184.2 712.18 187.88 Z" id="장수군"/>
<path d="M 513.37 181.01 506.33 176.46 502.89 176.84 501.18 179.03 498.21 179.21 496.38 177.7 493.78 172.83 488.33 166.94 485.05 166.49 481.18 167.92 476.4 171.13 477.08 167.33 476.3 165.49 472.86 162.35 470.85 162.55 467.08 159.78 465.95 162.19 461.18 162.33 459.61 164.81 453.79 168.78 451.91 169.1 445.14 167.9 445.38 164.89 448.2 164.88 444.51 155.09 442.7 154.68 438.26 156.1 435.34 152.28 435.78 150.41 434.06 147.71 431.05 150.9 426.8 148.11 427.24 143.35 423.32 138.89 424.52 134.33 435.56 131.99 440 132.08 441.75 131.86 443.88 134.57 446.31 134.83 448.89 131.21 457.18 132.23 459.91 134.42 465.31 133.59 469.69 132.12 474.13 129.55 475.7 130.4 479.52 129.98 484.16 133.61 485.71 137.37 486.44 141.73 490.24 146.03 492.82 151.72 493.44 154.64 497.36 154.81 501.32 153.76 504.04 151.08 505.66 152.48 508.43 159.01 510.59 161.16 509.61 167.07 512.83 171.16 517.5 170.63 519.13 171.86 517.93 177.56 513.37 181.01 Z" id="전주시 덕진구"/>
<path d="M 513.37 181.01 510.97 184.96 507.09 189.35 505.83 194.58 504.05 194.73 501.43 192.43 497.57 194.35 494.39 191.65 490.62 190.16 487.56 192.06 485.21 195.31 485.73 198.44 484.22 202.23 480.17 201.47 477.81 204.05 472 207.26 466.14 205.71 463.44 209.24 463.28 213.29 461.54 213.81 458.9 217.78 457.17 215.1 452.84 210.88 452.91 208.31 450.36 206.27 444.81 204.28 445.94 199.93 449.11 199.1 450.34 196.98 454.19 194.9 453.13 190.41 450.91 188.61 450.78 186.18 450.82 180.59 452.1 177.97 451.03 170.68 451.91 169.1 453.79 168.78 459.61 164.81 461.18 162.33 465.95 162.19 467.08 159.78 470.85 162.55 472.86 162.35 476.3 165.49 477.08 167.33 476.4 171.13 481.18 167.92 485.05 166.49 488.33 166.94 493.78 172.83 496.38 177.7 498.21 179.21 501.18 179.03 502.89 176.84 506.33 176.46 513.37 181.01 Z" id="전주시 완산구"/>
<path d="M 449.99 243.61 451.71 244.06 457.46 248.36 456.24 251.31 460.58 255.85 459.99 259.51 460.52 263.61 462.18 265.92 460.73 269.7 461.9 271.83 461.39 272.57 461.16 273.07 461.03 273.42 460.99 273.6 461.17 276.26 465.01 280.96 466.5 285.41 465.81 287.81 457.77 290.67 458.28 293.5 461.38 298.23 458.03 307.83 464.67 311.11 468.33 312.26 471.06 314.24 471.34 317.16 466.92 316.45 463.75 319.66 465.21 322.95 468.57 323.63 468.5 328.75 461.07 330.42 457.51 329.97 450.87 325.12 448.59 327.66 445.68 328.58 444.27 327.41 444.69 324.22 439.85 320.42 439.46 318.79 434.38 316.63 429.6 310.27 426.72 312.03 421.65 312.98 418.34 312.55 415.97 308.86 415.59 306.08 413.06 304.8 407.95 308.23 403.93 313.73 401.36 318.51 394.81 320.56 393.64 323.53 394.41 328.62 395.81 329.47 395.88 333.51 398.35 336.62 396.68 339.16 396.65 342.23 393.35 343.5 391.19 341.73 386.54 344.7 379.5 342.65 377.25 343.9 373.97 341.22 370.7 343.23 366.04 342.79 365.59 345.95 367.58 351.23 368.98 352.34 368.98 352.42 368.9 352.44 366.56 352.54 361.23 350.22 358.02 351.12 357.06 348.56 357.86 343.46 353.07 342.54 351.61 339.58 347.9 339.83 346.39 341.33 345.76 344.85 346.21 348.57 341.94 348.96 335.68 348.7 332.95 347.55 329.1 348.9 328.19 341.65 326.08 336.55 327.47 334.6 328.13 328.18 323.98 326.96 323.91 324.73 329.59 321.18 324.6 315.94 325.23 309.7 326.76 307.78 325.31 304.79 328.1 301.91 324.7 296.59 321.08 296.31 315.88 297.98 306.99 295.42 305.94 292.32 307.06 290.14 309.56 290.2 309.66 286.06 308.5 284.51 308.84 281.4 307.89 276.65 308.82 273.36 309.36 264.89 311.55 256.98 315.43 256.51 318.17 248.82 321.16 247.74 325.95 250.69 326.67 245.19 330.05 239.79 334.35 243.76 336.31 244.14 340.58 239.29 343.56 243.83 344.83 241.33 347.01 240.33 352.36 241.77 353.08 239.55 355.48 238.23 356.9 233.16 352.16 225.57 352.64 224.18 352.83 222.05 358.93 218.21 362.91 218.44 368.96 217.59 371.63 215.3 375.12 210.89 375.31 207.33 372.36 205.26 371.49 202.6 375.3 202.39 375.85 205.08 381.34 204.86 387.64 209 389.11 209.16 393.04 213.39 395.94 220.59 400.18 220.68 404.28 219.5 410.45 221.27 414.81 223.83 420.86 232.38 420.2 236.92 421.79 238.74 424.71 239.45 427.95 243.4 430.4 244.1 432.64 247.58 436.31 249.25 437.99 248.25 441.04 248.84 444.64 247.14 448.86 246.95 449.99 243.61 Z" id="정읍시"/>
<path d="M 639.95 88.38 641.36 92.21 645.09 91.88 644.94 95.61 645.99 98.26 649.06 100.97 651.72 107.43 651.7 112.45 649.88 114.69 652.09 119.52 655.87 119.85 658.05 125 661.47 127.1 664.81 132.93 662.24 136.95 660.95 142.23 664.24 143.48 669.91 141.25 670.74 145.42 676.34 152.41 678.34 152 681.18 158.39 679.29 162.28 674.17 166.25 672.09 173.33 672.12 176.06 670.67 179.32 667.76 180.55 662.2 185.08 658.72 184.56 654.24 181.86 651.68 177.86 647.59 178.58 644.84 175.12 639.27 175.4 637.9 177.15 637.48 180.5 635.58 181.93 634.46 186.61 635.37 189.58 634.53 192.41 635.36 197.08 637.9 202.53 639.29 204.06 637.61 207.01 633.61 208.85 630.78 212.09 626.61 215.16 623.09 221.32 620.04 223.26 621.03 229.46 620.38 232.23 615.43 236.11 616.25 240.26 613.22 246.09 615.14 248.99 620.26 252.25 619.21 255.53 619.14 259.35 616.05 264.2 617.58 268.59 617 272.37 614.26 271.95 610.86 273.72 606.5 273.6 603.61 271.98 601.23 267.99 602.13 265.7 600.32 261.91 597.33 262.71 588.82 257.83 585.76 257.28 584.01 255.29 579.66 255.76 579.05 251 575.31 251.45 570.46 248.24 566.64 250.03 562.12 250.21 558.92 252.29 557 250.87 555.01 244.33 549.99 240.19 546.6 241.22 542.51 239.03 545.07 232.38 543.72 230.36 544.76 223.5 542.06 217.41 542.34 215.68 539.73 213.69 539.71 210.79 536.89 204.57 534.57 202.74 533.21 199.81 533.54 197.42 536.17 195 535.77 193.21 537.47 190.41 537.03 187.49 541.86 185.5 544.01 183.39 548.81 181.54 545.47 177.23 546.91 175.45 546.4 173.15 551.81 169.62 551.11 166.57 552.3 160.53 556.15 157.94 557.89 153.15 555.42 150.06 557.71 146.06 561.32 144.8 560.91 139.95 561.85 137.63 560.92 132.02 561.23 127.07 563.72 127.24 567.83 125.03 568.62 120.23 567.78 117.72 568.92 114.61 567.17 111.17 569.41 106.33 565.92 101.46 566.44 96.71 564.98 95.15 565.71 90.46 567.94 89.37 569.39 86.31 573.8 85.04 573.8 80.76 572.55 78.03 572.62 75.04 575.5 70.09 579.19 69.2 582.22 70.04 586.09 72.75 589.34 76.39 591.85 73.62 594.34 73.15 596.89 69.33 603.04 65.9 604.07 71.07 603.29 73.42 604.2 76.21 606.74 76.75 608.6 81.37 608.8 84.29 612.14 89.29 615.09 88.96 616.92 86.86 620.02 90.65 624.87 91.83 627.61 87.82 629.64 87.22 632.67 91.15 635.41 89.32 639.95 88.38 Z" id="진안군"/>
</g>
</svg>