<?xml version="1.0"?>
<svg xmlns="http://www.w3.org/2000/svg" version="1.2" baseProfile="tiny" width="800" height="438" viewBox="0 0 800 438" stroke-linecap="round" stroke-linejoin="round">
<g id="전라북도_시군구_경계">
<path d="M 181.25 357.96 185.3 357.66 203.92 323.04 222.38 314.8 250.9 311.94 259.13 296.98 283.89 297.38 302.72 295.84 320.67 297.02 320.56 316.58 325.62 321.89 322.06 337.44 325.12 349.92 314.77 358.7 317.03 374.9 306.82 387.28 307.43 396.35 296.2 402.28 293.93 409.96 280.13 409.13 270.65 425 255.36 418.84 245.15 420.48 240.61 429.93 223.64 431.51 216.05 421.01 218.88 410.4 200.99 390.64 207.57 379.52 202.43 372.81 180.89 365.9 181.25 357.96 Z" id="고창군"/>
<path d="M 359.65 120.43 334.13 131.09 334.08 140.27 320.24 139.27 286.57 143.95 282.93 136.88 260.95 133.12 261.7 106.55 250.07 103.74 249.95 126.81 240.75 125.99 226.35 111.66 222.49 103.36 224.3 90.28 272.52 87.97 289.17 85.63 298.38 80.48 309.09 85.08 320.24 72.24 317.02 64.43 339.81 60.62 347.49 52.29 365.81 46.89 367.96 61.03 385.61 82.74 373.82 98.05 370.6 112.1 359.65 120.43 Z" id="군산시"/>
<path d="M 359.65 120.43 363.53 126.21 378.03 122.96 383.56 127.51 394.37 121.89 416.65 131.14 420.57 137.53 424.09 146.85 425.35 156.72 420.58 172.93 448.39 185.35 451.85 194.17 443.49 199.26 456.62 217.31 446.19 230.83 447.59 243.44 433.74 249.14 417.41 236.67 411.95 223.44 389.9 212.87 378.04 204.25 365.5 217.12 348.96 223.79 342.95 223.3 340.4 208.04 330.55 204.73 322.33 181.7 295.38 173.19 286.57 143.95 320.24 139.27 334.08 140.27 334.13 131.09 359.65 120.43 Z" id="김제시"/>
<path d="M 665.38 307.03 679.74 315.87 693.35 341.69 686.71 353.9 699.09 367.48 697.14 378.34 687.03 386.15 676.09 403.19 681.61 415.33 673.84 427.51 662.39 432.37 628.68 406.31 603.4 404.85 584.82 433.16 568.69 425.46 550.05 434.55 540.33 429.67 527.93 430.44 512.69 418.96 498.42 418.21 514.61 386.8 523.31 386.53 529.32 371.86 542.5 372.13 552.05 351.83 549.7 345.84 569.98 334.09 565.15 320.64 572.8 304.79 581.35 311 590.11 304.16 598.11 308.8 616.06 310.79 641.28 336.79 640.81 348.34 654.43 349.26 663.42 333.58 658.54 321.93 665.38 307.03 Z" id="남원시"/>
<path d="M 713.21 187.07 698.07 171.83 691.32 174.91 680.29 168.46 679.89 161.18 665.22 131.5 650.09 113.06 651.95 105.71 640.03 86.45 646.02 65.57 667.82 65.93 679.24 74.7 689.97 44.58 700.47 52.46 708.46 46.67 714.57 61.12 732.75 63.48 740.58 72.41 776.62 58.54 786.62 66.99 786.18 80.09 793.54 85.24 799 108.83 791.58 122.07 779.81 126.3 777.27 139.25 729.74 165.82 721.4 182.41 713.21 187.07 Z" id="무주군"/>
<path d="M 129.68 269.21 134.48 275.4 119.05 290.82 108.15 288.05 129.68 269.21 Z M 295.38 173.19 322.33 181.7 330.55 204.73 340.4 208.04 342.95 223.3 348.96 223.79 353.28 232.87 348.69 241.57 326.09 239.58 321.92 250.6 307.34 256.96 302.72 295.84 283.89 297.38 264.8 288.98 243.01 286.55 215.12 292.01 196.89 276.31 198.07 263.58 219.44 245.51 226.36 235.14 235.64 231.52 221.98 214.23 222.49 213.57 240.91 234.14 262.12 209.44 243.4 191.61 254.27 177.94 269.08 171.09 293.08 181.09 295.38 173.19 Z" fill-rule="evenodd" id="부안군"/>
<path d="M 365.52 353.46 365.52 353.49 365.44 353.51 365.52 353.46 Z M 365.52 353.46 365.52 353.41 370.57 342.16 383.31 345.68 393.55 343.18 390.5 324.26 410.18 305.32 415.53 313.16 426.94 310.85 446.17 328.44 466.34 329.54 474.55 332.47 480.78 353.84 502.33 340.52 522.9 342.43 534.11 348.21 549.7 345.84 552.05 351.83 542.5 372.13 529.32 371.86 523.31 386.53 514.61 386.8 498.42 418.21 487.28 422.75 481.57 431.11 464.13 437 438.09 425.3 449.53 416.27 449.75 403.19 432.96 390.38 442.21 371.79 435.95 368.01 434.93 351.26 408.28 371.03 410.34 384.82 393.09 387.89 379.13 373.25 377.07 360.46 365.52 353.46 Z" fill-rule="evenodd" id="순창군"/>
<path d="M 458.85 273.37 458.74 273.76 458.78 273.59 458.85 273.37 Z M 458.85 273.37 459.11 272.5 459.63 272.01 459.13 272.73 458.9 273.23 458.85 273.37 Z M 449.53 168.08 448.39 185.35 420.58 172.93 425.35 156.72 424.09 146.85 442.03 153.91 449.53 168.08 Z M 459.63 272.01 459.65 271.97 458.31 255.82 447.59 243.44 446.19 230.83 456.62 217.31 488.75 189.38 495.79 193.62 511.79 180.12 508.98 160.05 503.98 151.27 491.6 153.46 482.21 132.19 477.51 128.52 457.64 133 437.47 130.64 438.56 116.43 449.37 121.55 459.78 114.12 465.99 98.58 466.49 80.84 473.98 75.77 470.24 62.9 480.03 49.38 476.43 44.87 487.81 35.83 507.19 27.37 515.94 27.93 526.85 20.8 536.15 23.74 549 14.37 563.42 12.77 566.58 28.45 577.3 57.75 578.47 67.05 571.82 72.95 573.02 83.06 564.82 88.55 568.57 104.59 566.97 123.51 560.28 125.57 560.37 143.51 551.23 159.42 547.7 180.66 534.49 192.46 523.36 203.49 528.24 216.84 528.57 236.27 495.19 212.83 479.22 222.2 473.29 236.52 476.04 262.52 459.7 271.94 459.63 272.01 Z" fill-rule="evenodd" id="완주군"/>
<path d="M 476.43 44.87 480.03 49.38 470.24 62.9 473.98 75.77 466.49 80.84 465.99 98.58 459.78 114.12 449.37 121.55 438.56 116.43 437.47 130.64 420.57 137.53 416.65 131.14 394.37 121.89 383.56 127.51 378.03 122.96 363.53 126.21 359.65 120.43 370.6 112.1 373.82 98.05 385.61 82.74 367.96 61.03 365.81 46.89 373.18 10.82 388.77 8.36 396.8 1 428.94 2.55 445.42 13.52 447.09 29.75 459.54 41.72 476.43 44.87 Z" id="익산시"/>
<path d="M 603.22 272.13 582.58 275.92 576.61 280.26 579.04 295.71 572.8 304.79 565.15 320.64 569.98 334.09 549.7 345.84 534.11 348.21 522.9 342.43 502.33 340.52 480.78 353.84 474.55 332.47 466.34 329.54 455.73 308.39 463.61 288.14 458.74 273.76 459.11 272.5 459.7 271.94 476.04 262.52 473.29 236.52 479.22 222.2 495.19 212.83 528.57 236.27 528.24 216.84 523.36 203.49 534.49 192.46 532.23 196.72 543.6 223.09 541.32 238.8 548.89 239.98 556 250.78 569.63 248.12 596.86 262.75 603.22 272.13 Z" id="임실군"/>
<path d="M 713.21 187.07 697.61 201.12 697.09 227.18 692.29 230.31 687.98 247.65 679.99 261.56 686.46 273.96 677.68 278.66 676.38 291.67 665.38 307.03 658.54 321.93 663.42 333.58 654.43 349.26 640.81 348.34 641.28 336.79 616.06 310.79 598.11 308.8 590.11 304.16 581.35 311 572.8 304.79 579.04 295.71 576.61 280.26 582.58 275.92 603.22 272.13 616.78 272.53 620.08 252.18 612.95 245.95 620.21 231.93 619.86 222.86 639.36 203.44 634.47 185.79 639.34 174.45 651.92 176.94 662.57 184.24 671.15 178.42 679.89 161.18 680.29 168.46 691.32 174.91 698.07 171.83 713.21 187.07 Z" id="장수군"/>
<path d="M 511.79 180.12 494.58 176.78 486.43 165.9 475.03 166.29 464.9 158.65 449.53 168.08 442.03 153.91 424.09 146.85 420.57 137.53 437.47 130.64 457.64 133 477.51 128.52 482.21 132.19 491.6 153.46 503.98 151.27 508.98 160.05 511.79 180.12 Z" id="전주시 덕진구"/>
<path d="M 511.79 180.12 495.79 193.62 488.75 189.38 456.62 217.31 443.49 199.26 451.85 194.17 448.39 185.35 449.53 168.08 464.9 158.65 475.03 166.29 486.43 165.9 494.58 176.78 511.79 180.12 Z" id="전주시 완산구"/>
<path d="M 447.59 243.44 458.31 255.82 459.65 271.97 459.13 272.73 458.9 273.23 458.78 273.59 458.74 273.76 463.61 288.14 455.73 308.39 466.34 329.54 446.17 328.44 426.94 310.85 415.53 313.16 410.18 305.32 390.5 324.26 393.55 343.18 383.31 345.68 370.57 342.16 365.52 353.41 365.52 353.49 365.44 353.51 353.45 349.58 325.12 349.92 322.06 337.44 325.62 321.89 320.56 316.58 320.67 297.02 302.72 295.84 307.34 256.96 321.92 250.6 326.09 239.58 348.69 241.57 353.28 232.87 348.96 223.79 365.5 217.12 378.04 204.25 389.9 212.87 411.95 223.44 417.41 236.67 433.74 249.14 447.59 243.44 Z" id="정읍시"/>
<path d="M 640.03 86.45 651.95 105.71 650.09 113.06 665.22 131.5 679.89 161.18 671.15 178.42 662.57 184.24 651.92 176.94 639.34 174.45 634.47 185.79 639.36 203.44 619.86 222.86 620.21 231.93 612.95 245.95 620.08 252.18 616.78 272.53 603.22 272.13 596.86 262.75 569.63 248.12 556 250.78 548.89 239.98 541.32 238.8 543.6 223.09 532.23 196.72 534.49 192.46 547.7 180.66 551.23 159.42 560.37 143.51 560.28 125.57 566.97 123.51 568.57 104.59 564.82 88.55 573.02 83.06 571.82 72.95 578.47 67.05 588.76 74.32 603.82 74.14 611.86 87.36 624.75 89.93 640.03 86.45 Z" id="진안군"/>
</g>
</svg>