<?xml version="1.0"?>
<svg xmlns="http://www.w3.org/2000/svg" version="1.2" baseProfile="tiny" width="800" height="519" viewBox="0 0 800 519" stroke-linecap="round" stroke-linejoin="round">
<g id="전라남도_시군구_경계">
<path d="M 486.19 320.77 485.07 316.23 485.13 309.08 481.96 304.04 479.26 307.53 478.1 315.32 478.1 326.52 476.04 327.98 476.84 335.81 475.96 339.84 470.75 340.84 473.2 345.8 469.22 351.84 463.78 346.67 456.08 347.4 454.72 340.28 456.53 333.02 454.03 331.19 455.42 326.89 452.3 325.85 458.3 314.87 451.8 305.09 456.45 299.94 458 292.93 455.02 291.51 460.43 281.5 459.81 277.86 461.6 274.76 451.64 271.57 454.89 264.09 454.29 261.45 450.39 260.9 448 257.16 451.51 254.8 454.73 250.18 458.44 249.21 460.91 246.12 463.95 247.96 470.87 249.49 477.66 244.67 479.09 240.29 483.55 239.44 487.07 241.08 492.32 241.71 496.48 255.44 502.14 261.14 503.82 276.13 507.21 279.45 506.51 282.41 508.85 285.08 508.14 291.42 508.89 296.21 502.62 295.64 503.02 301.36 506.08 303.96 507.53 308.5 510.08 311.29 509.35 319.51 511.99 321.89 504.2 327.48 501.64 332.64 498.89 333.27 501.92 338.68 502.88 345.81 500.27 353.54 495.91 354.7 488.97 351.82 489.95 347.84 485.25 348.22 486.94 343.62 483.96 332.42 486.19 320.77 Z" id="강진군"/>
<path d="M 613.08 366.66 616.42 369.13 617.04 373.02 619.68 374.33 620.57 378.06 614.6 376.79 615.6 370.63 613.08 366.66 Z M 678.98 349.75 687 347.69 695.14 354.98 695.82 360.25 693.51 363.99 690.15 363.61 682.53 367.55 683.28 361.26 679.64 359.1 680.91 355.34 677.42 353.65 673.1 354.07 671.54 348.16 672.25 345.82 678.98 349.75 Z M 605.36 339.06 609.28 342.57 610.32 345.7 606.65 352.66 605.36 358.98 602.38 361.46 591.6 359.49 584.48 361.74 579.16 360.72 576.94 358.34 571.99 356.66 574.01 352.96 571.28 348.07 575.93 345.57 578.22 340.67 582.53 346.6 588.39 344.8 594.45 340.48 600.24 341.49 605.36 339.06 Z M 675.54 322.68 678.94 325.52 674.2 334.13 682.6 334.82 685.6 339.35 684.18 342.62 678.57 343.28 676.47 342.11 671.68 344.81 669.37 338.66 673.27 336.78 672.58 333.66 667.12 329.57 670.51 324.51 675.54 322.68 Z M 630.33 280.47 634.3 279.66 634.19 275.96 638.67 266.5 636.85 259.88 636.38 251.76 629.89 252.47 627.28 258.26 621 255.18 617.46 258 615.46 253.13 612.17 249 611.98 245.39 614.39 238.82 619.51 239.76 623.09 237.32 626.4 231.7 634.1 231.68 636.65 227.77 640.27 225.93 643.64 226.74 649.11 232.86 651.67 233.87 654.25 238.92 652.91 244.03 657.05 245.26 656.84 249.05 651.31 252.11 649.33 255.28 650.97 260.17 654.36 265.71 662.94 272.15 671.92 281.18 676.88 281.51 679.66 286.05 676.35 289.44 677.82 291.51 684.09 292.67 684.3 298.44 686.65 305.21 681.11 311 677.42 311.98 672.93 308.84 669.42 311.32 660.95 307.1 657.19 307.01 655.18 309.72 657.96 312.68 655.84 317.23 661.87 319.75 666.24 319.74 663.47 327.73 664.6 330.6 658.46 331.39 658.16 335.39 651.22 336.95 648.97 344.32 645.34 340.21 639.42 343.33 634.45 349.61 639.17 352.17 639.81 355.31 634.72 357.41 629.85 353.32 628.9 347.46 619.86 343.67 621.46 336.75 620.04 334.1 614.03 329.88 611.21 331.66 607.61 328.49 599.04 326.39 585.22 330.21 578.37 326.98 578.61 323.87 576 321.14 576.44 317.01 582.15 312.63 586.63 305.32 590.92 306.43 592.71 304.8 592.97 294.13 597.72 288.5 608.45 284.77 609.83 276.23 612.9 273.89 611.78 270.01 618.33 264.07 622.65 264.29 624.62 272.44 622.37 276.83 626.34 280.35 630.33 280.47 Z" fill-rule="evenodd" id="고흥군"/>
<path d="M 652.82 64.33 651.56 70.74 654.1 72.48 657.88 85.09 654.39 86.53 650.85 90.51 649.29 97.18 650.56 101.44 653.73 103.13 659.76 103.25 660.31 109.89 659.86 117.78 653.29 125.78 650.32 132.92 645.13 134.39 641.57 133.8 639.66 139.61 635.36 143.63 626.58 137.84 622.19 137.31 618.5 139.42 617.88 134.24 614.26 129.83 607.28 127.3 606.62 123.37 600.51 122.37 600.34 113.8 597.98 111.14 601.46 103.59 600.09 97.72 597.27 94.27 585.76 101.14 578.25 100.74 574.79 99.28 574.33 95.71 571.36 90.6 571.44 88.14 568.05 82.75 572.64 77.75 573.07 75.2 570.85 70.3 572.46 64.34 578.07 64.99 581.78 62.11 586.42 61.3 592.4 54.13 597.01 53.78 597.88 57.36 601.04 59.38 604.85 59.16 607.12 53.22 611.02 54.89 617.26 60.86 625.51 60.34 631.97 63.59 635.76 62.61 644.36 57.54 650.61 61.31 652.82 64.33 Z" id="곡성군"/>
<path d="M 716.56 203.7 713.09 201.81 711.33 204.72 709.06 194.99 710.48 194.99 716.56 203.7 Z M 731.07 196.29 731.08 196.26 733.39 191.07 739.28 195.62 733.63 199.82 731.07 196.29 Z M 751.77 187.63 752.14 190.34 759.42 190.48 764.85 195.97 764.8 205.84 758.53 203.68 758.26 198.38 751.57 199.07 742.45 196.78 742.24 191.28 749.6 183.7 751.77 187.63 Z M 760.32 197.23 760.02 202.47 764.07 202.49 764.23 198.21 760.32 197.23 Z M 731.08 196.26 731.07 196.29 733.02 200.27 724.14 206.86 717.58 198.31 715.25 193.71 712.84 192.42 707.09 194.94 707.09 194.95 706.95 187.43 703.61 187.31 698.69 181.37 698 177.09 701.15 174.79 699.04 172.12 703.74 166.73 701.21 160.8 701.15 155.2 695.34 150.26 692.18 143.08 693.96 138.79 693.17 135.04 694.77 131.51 699.69 135.08 702.89 130.45 711.34 125.8 714.16 126.95 715.11 112.51 719.89 105.14 726.54 112.68 729.61 113.16 734.19 117.11 739.28 123.71 739.58 131.08 745.54 138.84 750.15 141.28 752.23 145.67 760.12 150.06 761.13 155.73 764.84 160.08 765.39 163.48 763.68 170.42 758.9 175.36 757.76 178.54 760.11 182.94 760.36 189.76 754.48 189.88 752.28 184.65 749.84 182.62 744.13 189.2 741.35 190.57 739.98 194.86 735.9 191.15 733.12 190.91 731.08 196.26 Z" fill-rule="evenodd" id="광양시"/>
<path d="M 719.89 105.14 715.11 112.51 714.16 126.95 711.34 125.8 702.89 130.45 699.69 135.08 694.77 131.51 690.64 124.95 685.95 124.97 679.82 115.49 672.69 111.72 663.26 103.84 659.76 103.25 653.73 103.13 650.56 101.44 649.29 97.18 650.85 90.51 654.39 86.53 657.88 85.09 654.1 72.48 651.56 70.74 652.82 64.33 655.09 62.66 661.53 52.48 663.63 47.69 667.45 43.82 672.24 44.49 676.89 42.93 681.06 45.31 684.26 44.8 692.44 50.51 694.11 53.16 700.35 57.69 703.98 58.87 711.77 76.02 715.81 78.09 716.57 85.04 718.9 90.82 718.05 98.62 719.89 105.14 Z" id="구례군"/>
<path d="M 514.83 140.26 514.88 152.49 511.96 155.93 507.99 163.48 512.52 165.69 515.41 169.26 514.45 172.82 510.52 177.58 510.74 183.87 507.39 187.31 508.04 193.52 510.07 199.61 508.24 204.02 502.65 205.37 495.28 210.57 490.12 211.6 479.15 200.78 472.84 201.85 468.08 204.22 463.91 197.57 465.07 194.47 462.47 191.91 459.87 186.3 452.24 184.91 450.28 191.07 454.06 194.67 454.21 200.14 450.39 202.92 441.3 204.08 442.03 197.3 440.61 193.05 437.82 191.42 430.62 192.33 425.44 195.02 426.94 201.31 424.53 203.44 424.29 207.41 420.37 210.66 417.18 204.5 412.28 199.42 408.46 193.67 411.53 190.26 416.24 190.81 412.83 183.2 416.27 174.53 420.47 169.96 426.7 174.72 430.87 168.39 432.48 161.8 428.9 160.97 431.42 156.65 429.54 147.44 432.36 134.74 434.84 133.94 439.6 136.65 446.5 132.42 448.64 127.21 460.03 129.82 471.36 129.65 478.43 135.56 481.03 142.68 480.39 148.2 483.86 148.26 487.6 145.81 490.01 148.79 501.29 144.47 504.64 140.06 509.13 141.46 514.83 140.26 Z" id="나주시"/>
<path d="M 572.46 64.34 570.85 70.3 573.07 75.2 572.64 77.75 568.05 82.75 571.44 88.14 571.36 90.6 574.33 95.71 574.79 99.28 578.25 100.74 569.21 105.62 563.83 104.26 564.23 110.89 567.99 116.8 570.14 122.84 565.04 127.58 560.14 123.62 550.62 119.84 547.6 121.44 547.36 113.89 551.05 110.05 547.21 103.92 537.97 103.56 533.69 101.17 534.21 97.14 531.4 93.21 530.68 88.32 526.52 84.63 526.15 81.47 518.97 78.9 513.59 82.96 511.72 81.14 506.34 67.97 507.18 56.97 512.08 57.34 514.16 55.79 510.86 50.2 513.24 43.49 516.44 42.16 518.48 38.19 524.35 37.67 524.59 30.89 523.16 30 527.58 32.54 535.32 32.45 539.06 30.49 537.69 21.32 540.54 21.68 544.16 17.22 546.57 8.84 549.7 11.11 555.41 8.16 556.09 19.3 560.25 21.82 557.25 31.27 554.1 34.2 558.78 38.61 561.66 36.76 565.26 42.72 563.74 45.88 565.12 51.43 557.51 57.44 570.38 62.66 572.46 64.34 Z" id="담양군"/>
<path d="M 364.11 240.51 368.98 243.52 363.64 251.39 361.95 246.56 364.27 245.24 364.11 240.51 Z M 355.89 239.63 352.77 247.37 350.12 246.11 350.24 239.48 355.89 239.63 Z M 355.69 227.89 356.97 234.91 352.34 235.01 352.71 230.57 355.69 227.89 Z M 392.41 236.15 388.78 236.8 387.56 234.09 376.42 239.38 368.43 240.51 364.84 236.1 361.98 234.8 367.31 229.51 372.91 221.17 379.67 218.83 387.13 222.23 386.91 226.62 391.05 227.63 392.41 236.15 Z" fill-rule="evenodd" id="목포시"/>
<path d="M 393.19 140.61 399.07 143.79 394.72 151.53 395.48 157.37 404.99 160.85 402.3 165.37 404.74 170.83 407.64 169.28 416.27 174.53 412.83 183.2 416.24 190.81 411.53 190.26 408.46 193.67 412.28 199.42 417.18 204.5 420.37 210.66 419.36 212.63 417.75 224.57 416.14 229.98 409.43 235.94 408.69 241.99 406.42 244.49 401.9 244.16 395.23 237.37 392.41 236.15 391.05 227.63 386.91 226.62 387.13 222.23 379.67 218.83 375.16 210.75 376.71 206.3 373.88 202.71 377.35 198.08 377.52 194.87 374.08 192.24 373.18 183.44 375.03 178.77 370.85 175.14 371.28 169.81 367.78 167.08 368.31 174.11 365.27 176.39 369.12 180 367.04 185.14 367.39 192.74 363.32 191.93 360.39 194.41 356.76 193.86 354.4 184.62 350.92 182.49 347.24 177 350.4 169.95 353.79 171.72 356.28 176.65 360.66 175.02 365.32 170.04 362.05 164.47 374.15 157.32 371.93 149.08 363.42 151.95 361.57 141.36 358.54 135.6 354 135.44 353.66 141.35 350.48 142.71 353.05 146.82 350.3 149.83 344.97 144.12 341.51 147 338.3 146.91 338.24 143.27 333.57 138.85 334.69 132.06 337.97 129.62 333.37 127.16 336.18 119.43 339.26 115.54 342.03 115.59 344.07 119.35 351.77 118.71 355.05 121.96 358.88 114.59 361.83 117.5 357.51 128.58 357.89 133.15 361.31 134.2 361.55 139.34 367.95 141.13 369.11 144.37 372.83 143.09 375.89 139.85 379.5 144.37 374.33 150.99 377.2 151.35 377.83 156.41 384.32 155.5 382.06 152.16 383.45 149.31 389.46 145.62 393.19 140.61 Z" id="무안군"/>
<path d="M 660.23 222.29 662.02 225.54 655.84 226.81 657.12 229.73 662.16 231.56 660.53 234.53 655.61 236.5 654.25 238.92 651.67 233.87 649.11 232.86 643.64 226.74 640.27 225.93 636.65 227.77 634.1 231.68 626.4 231.7 623.09 237.32 619.51 239.76 614.39 238.82 611.98 245.39 612.17 249 608.97 249.74 603.42 256.38 602.44 262.78 594.4 272.11 584.98 271.64 582.49 268.72 579.37 268.79 576.58 271.48 574.86 276.43 567.74 281 563.27 281.59 561.39 285.97 557.3 291.3 556.28 285.04 552.86 281.93 549.67 275.36 545.11 275.96 538.92 274.98 536.52 266.32 541.31 262.04 548.2 257.4 550.25 252.63 547.89 245.11 551.22 244.26 549.02 239.26 550.76 227.49 555.17 222.12 561.72 219.16 562.39 214.36 569.95 210.07 568.63 202 567.21 199.3 567.91 192.29 570.02 189.01 573.09 188.31 577.63 183.55 580.62 177.95 585.39 179.66 593.18 176.35 594.02 174.79 600.07 171.52 604.02 181.41 606.89 182.39 607.59 187.67 609.76 188.8 612.24 194.08 609.13 198.12 608.56 202.97 615.59 206.68 621.6 204.67 626.59 200.82 630.76 200.28 635.56 205.61 638.98 206.5 639.56 211.89 647.83 214.14 654.65 221.81 660.23 222.29 Z" id="보성군"/>
<path d="M 707.09 194.95 709.06 194.99 711.33 204.72 708.03 206.4 698.9 204.94 695.01 208.84 699.31 213.94 697.11 220.57 694.59 221.43 691.56 218.52 688.69 210.47 682.24 210.29 683.48 213.86 682.86 219.25 680.7 221.48 677.33 220.14 670.24 222.92 661.74 224.28 660.23 222.29 654.65 221.81 647.83 214.14 639.56 211.89 638.98 206.5 635.56 205.61 630.76 200.28 626.59 200.82 621.6 204.67 615.59 206.68 608.56 202.97 609.13 198.12 612.24 194.08 609.76 188.8 607.59 187.67 606.89 182.39 604.02 181.41 600.07 171.52 594.02 174.79 594.78 164.96 597.54 162.97 596.21 155.01 597.03 143.62 595.95 134.84 598.53 128.95 597.77 125.4 600.51 122.37 606.62 123.37 607.28 127.3 614.26 129.83 617.88 134.24 618.5 139.42 622.19 137.31 626.58 137.84 635.36 143.63 639.66 139.61 641.57 133.8 645.13 134.39 650.32 132.92 653.29 125.78 659.86 117.78 660.31 109.89 659.76 103.25 663.26 103.84 672.69 111.72 679.82 115.49 685.95 124.97 690.64 124.95 694.77 131.51 693.17 135.04 693.96 138.79 692.18 143.08 695.34 150.26 701.15 155.2 701.21 160.8 703.74 166.73 699.04 172.12 701.15 174.79 698 177.09 698.69 181.37 703.61 187.31 706.95 187.43 707.09 194.95 Z" id="순천시"/>
<path d="M 5 467.21 7.62 467.3 10.79 474.66 15.49 479.66 16.9 482.92 9.72 482.56 8.83 478.86 3.49 475.92 3.81 468.83 5 467.21 Z M 255.92 299.49 256.48 307.12 254.02 307.79 255.92 299.49 Z M 279.18 290.9 282.36 291.12 286.09 294.43 287.39 297.85 291.61 298.75 290.37 301.82 293.98 304.68 289.59 309.45 291.25 315.4 286.06 315.63 286.72 318.96 278.2 324.21 271.4 323.45 271.81 319.86 274.96 319.84 278.8 316.65 286.61 307.44 283.65 306.08 281.74 299.71 279.54 296.46 276.03 297.11 276.77 291.01 279.18 290.9 Z M 261.3 290.85 263.85 290.13 265.29 296.53 258.89 297.08 261.3 290.85 Z M 222.21 289.58 223.46 298.34 218.11 300.63 212.93 298.62 212.54 294.77 222.21 289.58 Z M 267.53 288.45 273.94 290.32 271.94 296.27 275.5 299.9 278.44 299.69 280.72 306.34 277.31 310.49 271.31 310.02 266.71 305.83 269.99 302.12 265.79 297.72 267.3 295.13 265.9 289.31 267.53 288.45 Z M 254.05 287.57 257 291.69 250.35 291.48 247.75 288.3 251.54 284.92 254.05 287.57 Z M 112.42 278.6 115.86 280.94 113.72 283.47 110.21 283.27 112.42 278.6 Z M 308.13 277.49 315.78 283.78 315.25 288.28 310.52 293.63 308.95 291.39 301.59 294.59 297.14 290.88 300.08 286.69 298.77 283.13 306.21 276.16 308.13 277.49 Z M 318.04 266.03 318.32 272.17 311.87 274.05 314.1 267.54 318.04 266.03 Z M 101.44 264.58 102.5 268.59 105.81 269.13 106.03 275.37 100.44 277.67 101.81 281.79 97.21 282.7 97.14 288.94 94.69 288.85 89.66 282.5 90.4 278.24 93.36 276.26 93.51 272 96.98 268.43 98.44 263.91 101.44 264.58 Z M 294.69 262.56 291.97 267.72 289.73 264.58 294.69 262.56 Z M 41.17 259.56 41.36 263.47 39.07 268.15 35.43 266.98 38.6 260.33 41.17 259.56 Z M 254.86 257.48 260.64 259.72 266.09 269.59 256.99 275.88 257.32 278.38 253.03 280.86 250.99 276.78 245.54 276.92 244.16 273.09 239.24 272.42 239.63 262.11 245.52 260.65 253.37 253.87 254.86 257.48 Z M 111.47 249.98 115.26 253.87 113.21 257.86 110.03 256.52 111.47 249.98 Z M 268.98 244.01 271.67 247.07 268.61 250.55 271.78 256.96 268.5 258.23 267.25 249.71 269.64 248.3 268.98 244.01 Z M 304.11 266.39 305.36 262.1 301.35 257.2 298.17 258.55 286.55 261.11 283.13 254.5 286.4 249.7 286.91 245 290.38 242.69 293.73 244.18 298.66 242.67 301.46 247.91 309.25 247.48 311.74 249.47 313.78 258.38 312.27 266.71 304.11 266.39 Z M 261.86 229.87 263.84 235.83 262.72 238.31 263.01 245.3 255.57 246.1 251.78 249.37 249.04 246.52 245.42 249.81 247.47 253.38 246.55 258.31 241.6 260.1 236.64 258.64 231.44 252.16 232.55 249.89 232.46 243.14 234.91 239.3 246 239.82 253.7 236.3 257.04 231.23 261.86 229.87 Z M 308.37 225.47 306.52 232.44 309.09 236.05 309.89 243.25 303.09 246.11 299.38 239.43 292.89 240.05 291.71 235.41 296.91 235.15 302.79 233.08 307.35 228.55 308.37 225.47 Z M 296.61 204.82 304.8 207.2 308.12 210.3 301.77 214.8 305.17 216.28 305.31 219.77 302.84 222.51 298.77 220.55 295.99 223.84 298.18 228.23 297.04 232.59 290.55 231.76 289.21 227.51 281.11 217.54 287.12 212.39 294.43 215.65 296.6 212.91 294.64 209.43 296.61 204.82 Z M 360.47 220.66 357.83 217.05 348.87 215.02 346.6 216.37 341.61 214.35 337.75 219.64 331.58 216.89 327.58 216.97 329.45 211.13 332.64 213.26 338.36 212.74 341.28 211.08 343.01 203.67 346.24 205.67 349.12 202.54 347 198.83 342.94 195.93 348.29 191.94 353.47 197.21 358.59 196.4 361.32 201.46 355.49 202.73 351.98 207 355.39 208.45 354.62 212.52 364.2 211.9 368.16 217.53 366.52 222.89 363.37 228.45 359.11 227.98 358.19 224.44 360.47 220.66 Z M 334.19 185.27 334.78 192.31 329.45 195.68 325.85 191.11 328.06 186.45 331.28 187.95 334.19 185.27 Z M 282.04 187.31 287.91 194.7 290.93 196.57 287.7 200.55 291.4 201.86 290.01 206.03 286.02 206.85 286.94 210.85 274.95 215.48 272.85 212.35 268.92 210.62 266.23 212.15 263.53 210.02 259.05 209.36 266.54 199.01 274.5 193.86 279.56 194.29 282.04 187.31 Z M 341.41 175.62 345.42 178.03 347.29 184.38 341.97 182.91 338.42 178.13 341.41 175.62 Z M 319.46 191.77 320.26 188.04 317.34 183.12 321.9 182.86 320.31 177.18 324.63 173.45 324.62 180.3 321.92 182.87 319.46 191.77 Z M 335.23 163.05 337.99 163.21 340.4 168.53 340.42 173.33 336.04 174.3 334.52 171.82 335.23 163.05 Z M 310.35 177.44 302.89 174.13 301.93 164.16 294.4 165.73 294.55 162.9 302.75 155.79 308.01 157.01 311.36 159.54 311.14 163.61 314.57 166.06 314.46 172.32 310.35 177.44 Z M 305.62 144.51 315.58 147.38 317.69 150.7 321.19 151.87 319 159.33 311.9 153.66 306.52 153.34 302.41 147.15 305.62 144.51 Z M 271.26 130.1 273.43 133.97 268.57 134.73 268.06 131.07 271.26 130.1 Z M 334.69 132.06 333.57 138.85 338.24 143.27 338.3 146.91 338.9 150.73 341.65 152.22 336.32 160.85 330.09 159.25 328.67 152.12 330.15 147.03 327.32 145.33 322.71 146.15 320.69 143.51 316.13 145.21 309.74 140.28 311.43 136.51 309.85 131.17 318.55 126.58 323.92 129.93 326.25 128.74 330.01 131.29 334.69 132.06 Z M 280.65 138.79 276.94 135.54 280.38 132.09 278.91 129.47 285.82 129.05 290.76 125.34 297.72 117.24 300.55 118.28 298.09 125.25 298.47 137.42 295.55 140.91 296.24 143.9 291.85 147.35 285.75 144.21 280.65 138.79 Z M 321.7 114.64 318.57 119.97 316.69 116.33 321.7 114.64 Z" fill-rule="evenodd" id="신안군"/>
<path d="M 630.07 486.33 635.81 489.7 632.28 493.38 630.07 486.33 Z M 628.03 488.63 626.5 490.21 627.59 496.97 631.26 501.44 626.68 502.61 625.18 496.43 622.96 495.61 622.67 491.17 624.58 487.77 628.03 488.63 Z M 617.13 423.73 616.27 435.78 611.75 433.08 607.95 433.57 609.16 428.43 617.13 423.73 Z M 770.33 354.15 772.24 354.57 771.82 365.94 765.75 365.33 767.24 359.36 770.33 354.15 Z M 777.1 338.4 774.2 344.41 770.87 343.24 772.81 338.18 777.1 338.4 Z M 761.04 327.07 763.94 330.52 764.27 334.83 767.66 337.1 766.57 341.92 762.16 341.54 758.99 337.71 751.22 336.38 744.99 327.38 748.45 321.48 752.78 319.37 757.69 319.9 761.04 327.07 Z M 731.15 309.22 734.33 317.13 730.07 319.54 727.2 318.36 724.32 311.96 729.39 308.34 731.15 309.22 Z M 694.85 304.28 694.82 299.06 697.94 297.24 703.09 298.86 703.4 302.18 694.85 304.28 Z M 725.37 297.3 722.56 300.96 720.3 298.13 721.83 295.3 725.37 297.3 Z M 763.17 262.22 765.74 263.98 757.93 268.06 759.74 271.22 763.56 270.37 763.31 276.69 768.18 280.43 769.51 293.11 767.23 294.65 766.22 301.42 770.18 302.8 771.06 306.9 765.52 308.36 760.04 305.9 755.44 305.88 751.98 299.89 746.79 298.74 745.11 296.17 748.26 290.65 747.38 285.09 753.21 281.52 756.5 275.54 757.11 266.67 751.65 259.28 757.03 258.68 763.17 262.22 Z M 728.21 218.35 729.62 220.18 722.98 225.12 724.02 220 719.1 218.82 717.03 215.72 722.48 211.36 728.21 218.35 Z M 733.93 254.93 733.95 254.91 730.69 252 727.62 254.79 724.45 261.19 724.24 264.42 716.96 267.37 720.16 269.78 719.3 272.82 722.78 281.99 721.96 286.83 726.2 293.62 720.31 291.73 717.45 288.78 710.28 285.85 706.98 286.3 700.12 283.54 699.24 275.59 701.47 269.62 700.45 263.12 707.07 258.33 710.22 252.04 707.29 248.72 703.49 238.46 700.24 232.36 694.36 233 691.66 230.25 695.54 224.92 697.11 220.57 699.31 213.94 695.01 208.84 698.9 204.94 708.03 206.4 711.33 204.72 713.09 201.81 716.56 203.7 710.42 209.1 714.88 217.77 716.99 216.99 723.29 225.82 730.42 220.19 732.88 222.72 740.8 215.19 748.36 214.27 761.6 214.34 762.22 222.54 760.22 224.63 760.25 234.75 757.89 235.03 757.21 239.81 754.07 243.9 756.87 248.62 750.49 259.02 742.57 262.43 733.93 254.93 Z M 748.35 203.42 753.25 203.86 755.41 208.76 742.35 211.42 738.85 206.42 745.48 201.62 748.35 203.42 Z" fill-rule="evenodd" id="여수시"/>
<path d="M 306.85 64.1 308.75 65.95 308.03 72.28 303.02 68.51 306.85 64.1 Z M 272.92 40.52 278.03 46.4 275.22 49.31 272.58 46.93 271.23 42.81 272.92 40.52 Z M 446.33 57.42 442.58 63.28 438.88 62.47 436.84 64.96 438.11 71.27 429.4 78.34 428.91 84.63 431.33 87.16 430.98 92.42 428 99.36 413.74 103.71 409.45 102.07 404.39 103.17 398.01 100.2 396.53 102.11 391.49 102.33 387.3 106.88 381.18 102.03 377.49 105.57 375.3 104.41 369.1 109.8 366.37 108.19 365.25 103.31 371.59 94.68 359.86 98.56 351.32 93.17 349.41 89.45 352.05 79.9 357.01 82.68 356.09 75.81 357.95 70.35 360.51 68.22 367.03 68.55 371.82 61.41 372.02 54 377.4 39.9 381.29 37.88 378.84 30.75 379.2 27.98 383.33 21.41 389.48 19.37 400.79 22.5 404.21 26.97 403.55 31.33 399.83 34.37 405.16 38.56 407.09 43.81 411.73 47.52 409.84 54.58 414.89 61.57 419.32 59.32 426.18 60.51 429.55 63.73 431.04 60.15 428.67 58.35 429.2 54.23 435.99 53.14 441.2 56.84 446.33 57.42 Z" fill-rule="evenodd" id="영광군"/>
<path d="M 495.28 210.57 496.64 211.69 504.84 211.41 503.25 218.5 500.46 221.4 494.97 222.43 490.52 225.14 486.41 236.7 487.07 241.08 483.55 239.44 479.09 240.29 477.66 244.67 470.87 249.49 463.95 247.96 460.91 246.12 458.44 249.21 454.73 250.18 451.51 254.8 448 257.16 450.39 260.9 454.29 261.45 454.89 264.09 451.64 271.57 446.21 271.83 442.14 277.31 438.86 275.18 433.34 273.92 423.23 275.9 421.36 279.49 416.01 282.53 403.63 272.35 393.38 264.73 395.42 262.08 382.08 259.02 376.81 254.79 372.47 258.95 372.34 258.92 371.28 256.72 364.74 253.34 366.27 250.56 370.37 249.78 370.68 244.29 377.37 243.33 389.79 239.84 388.78 236.8 392.41 236.15 395.23 237.37 401.9 244.16 406.42 244.49 408.69 241.99 409.43 235.94 416.14 229.98 417.75 224.57 419.36 212.63 420.37 210.66 424.29 207.41 424.53 203.44 426.94 201.31 425.44 195.02 430.62 192.33 437.82 191.42 440.61 193.05 442.03 197.3 441.3 204.08 450.39 202.92 454.21 200.14 454.06 194.67 450.28 191.07 452.24 184.91 459.87 186.3 462.47 191.91 465.07 194.47 463.91 197.57 468.08 204.22 472.84 201.85 479.15 200.78 490.12 211.6 495.28 210.57 Z" id="영암군"/>
<path d="M 521.83 511.06 524.26 512.55 524.63 518 518.99 517.6 517.47 514.12 521.83 511.06 Z M 416.29 446.19 417.82 449.44 428.91 449.21 428.77 451.73 420.73 457.31 414.88 463.4 405.22 464.84 404.49 453.28 406.71 448.43 413.35 444.48 416.29 446.19 Z M 445.79 439.23 449.63 440.77 454.33 445.01 452.7 447.05 446.53 447.83 449.69 451.86 450.62 457.37 449.87 465.59 446.7 467.75 439.7 458.25 441.64 452.2 445 449.17 441.93 443.79 445.79 439.23 Z M 476.73 435 478.96 439.72 476.58 443.24 472.73 442.92 473.61 437.07 476.73 435 Z M 514.44 435.04 516.89 438.04 522.26 447.69 519.53 454.81 509.94 454.95 505.18 450.82 502.75 455.82 500.34 447.57 504.64 438.82 508.48 434.73 512.62 433.22 514.44 435.04 Z M 421.44 426.95 427.92 430.66 432.36 430.23 436.6 438.61 433.63 441.27 433.94 445 429.51 444.24 426.84 447.8 419.38 445.63 417.38 440.69 420.21 433.96 421.44 426.95 Z M 435.47 421.67 437.75 424.95 428.96 427.12 431.27 422.19 435.47 421.67 Z M 541.51 393.06 545.11 392.64 548.31 396.13 540.07 402.6 535.24 404.03 531.82 400.43 531.74 395.95 534.95 392.55 538.93 391.3 541.51 393.06 Z M 498.36 400.8 496.6 396.97 491.85 395.74 484.6 397.52 481.33 393.76 483.67 389.22 487.79 393.5 491.72 392.58 492.61 388.76 496.79 385.13 500.87 389.95 503.17 387.59 508.65 388.88 509.85 392.6 514.56 389.84 514.75 394.02 510.8 393.99 511.54 398.49 510.2 401.62 506.09 400.14 499.7 405.36 498.36 400.8 Z M 552.29 377.79 556.61 382.11 556.33 387.74 565.31 385.64 567.29 390.32 562.59 389.56 560.66 394.49 554.76 401.56 554.18 396.69 558.11 395.64 558.17 391.4 553.17 390.86 546.11 385.64 549.83 379.21 552.29 377.79 Z M 570.36 374.11 567.14 379.82 564.4 376.3 570.36 374.11 Z M 457.66 371.2 462.02 372.69 466.86 376.57 468.47 382.41 468.07 387.32 472.71 397.58 477.01 398.69 479.25 401.07 476.37 404.12 477.68 407.91 470.62 406.34 467.76 409.11 463.86 405.77 455.71 405.82 452.29 399.19 444.68 393.07 442.59 383.65 443.83 381.68 441.96 376.63 444.71 372.59 450.19 372.12 454.2 370.09 457.66 371.2 Z M 527.86 373.55 526.03 376.3 529.12 378.85 529.15 382.12 523.94 381.17 522.39 384.57 517.3 386.77 510.93 382.39 505.39 380.08 506.04 376.09 510.71 368.7 513.45 372.22 517.51 371.29 519.14 373.84 527.86 373.55 Z M 496.92 358.34 500.24 360.56 503.68 368.48 502.95 373.55 496.86 376.33 495.84 378.41 489.07 375.91 485.58 376.89 480.76 385.05 477.74 384.76 481.58 376.99 474.89 376.57 474.93 374.09 478.59 370.79 477.17 368.51 480.44 363.15 485.2 359.58 487.72 360.21 495.32 357.32 496.92 358.34 Z M 556.24 350.91 558.07 353.4 562.55 354.22 565.36 363.23 562.59 367.5 558.07 366.12 554.39 363.13 553.54 354.23 556.24 350.91 Z" fill-rule="evenodd" id="완도군"/>
<path d="M 523.16 30 524.59 30.89 524.35 37.67 518.48 38.19 516.44 42.16 513.24 43.49 510.86 50.2 514.16 55.79 512.08 57.34 507.18 56.97 506.34 67.97 511.72 81.14 499.85 88.41 488.12 91.8 482.42 88.11 476.56 85.82 479.35 80.3 478.41 78.47 471.92 80.75 467.04 89.26 466.4 94.14 462.14 95.76 457.85 93.12 455.09 97.81 454.99 101.32 448.32 100.79 445.4 95.84 434.11 86.06 431.33 87.16 428.91 84.63 429.4 78.34 438.11 71.27 436.84 64.96 438.88 62.47 442.58 63.28 446.33 57.42 450.37 51.8 452.46 46.67 456.88 48.19 461.64 47.22 463.15 42.11 467.26 42.2 470.61 38.17 470.21 32.13 477 23.9 475.5 13.11 480.23 7.54 493.9 7.05 494.03 2.17 497.55 1 501.76 3.61 501.22 7.04 509.53 9.64 513.6 13.21 516.93 14.28 518.3 22.79 522.32 25.33 523.16 30 Z" id="장성군"/>
<path d="M 513.1 351.95 509.16 351.72 510.83 357.85 503.33 356.59 500.27 353.54 502.88 345.81 501.92 338.68 498.89 333.27 501.64 332.64 504.2 327.48 511.99 321.89 509.35 319.51 510.08 311.29 507.53 308.5 506.08 303.96 503.02 301.36 502.62 295.64 508.89 296.21 508.14 291.42 508.85 285.08 506.51 282.41 507.21 279.45 503.82 276.13 502.14 261.14 496.48 255.44 492.32 241.71 487.07 241.08 486.41 236.7 490.52 225.14 494.97 222.43 500.46 221.4 503.25 218.5 504.84 211.41 512.31 208.56 516.42 210.14 518.6 214.5 518.09 218.75 522.62 219.78 523.16 222.65 528.99 226.87 530.53 221.38 533.77 221.19 536.74 218.01 542.29 222.59 547.03 221.04 555.17 222.12 550.76 227.49 549.02 239.26 551.22 244.26 547.89 245.11 550.25 252.63 548.2 257.4 541.31 262.04 536.52 266.32 538.92 274.98 545.11 275.96 549.67 275.36 552.86 281.93 556.28 285.04 557.3 291.3 552.05 293.73 542.92 296.02 545.27 301.25 542.26 305.21 542.14 309 538.37 312.42 541.11 314.25 540 323.71 537.21 333.8 534.07 337.81 537.63 341.06 532.04 347.54 527.52 343.18 527.48 349.94 523.17 353.24 513.1 351.95 Z" id="장흥군"/>
<path d="M 243.57 420.34 248.31 422.25 242.54 426.43 240.06 423.83 243.57 420.34 Z M 273.95 399.2 276.33 401.29 284.2 400.15 287.33 407.26 285.81 409.24 279.7 407.26 275.89 407.7 275.86 410.67 268.86 406.07 269.28 399.25 273.95 399.2 Z M 268.9 388.02 276.39 391.91 267.94 392.21 267.08 394.83 260.41 394.09 268.9 388.02 Z M 278.64 336.89 279.44 341.23 274.03 348.49 272.25 342.41 274.79 337.44 278.64 336.89 Z M 333.61 306.7 340.96 306.86 349.56 313.49 347.6 316.81 351.03 320.74 357.3 320.74 368.42 331.34 369.84 335.12 367.45 340.8 363.56 341.45 363.13 344.28 366.98 345.84 363 350.73 365.03 355.05 360.02 361.93 356.37 364.87 356.97 368.46 354.04 370.79 348.98 367.25 345.46 370.08 345.83 380.17 340.44 379.91 341.81 373.5 339.83 370.9 335.14 372.14 335.59 376.65 330.41 376.61 329.07 379.42 325.36 379.4 318.84 383.55 310.55 385.35 305.6 383.8 305.28 380.7 298.81 381.31 301.62 376.4 293.97 375.35 292.48 370.54 289.08 367.27 286.97 362.34 290.59 354.79 295.04 352.16 294.76 349 299.8 346.62 307 341.02 310.7 340.27 312.47 334.48 315.23 336.41 319.9 336.66 319.52 330.51 326.42 322.94 328.84 322.87 333.1 314.55 330.12 309.56 333.61 306.7 Z" fill-rule="evenodd" id="진도군"/>
<path d="M 448.32 100.79 453.14 108.53 448.44 110.41 448.64 127.21 446.5 132.42 439.6 136.65 434.84 133.94 432.36 134.74 429.54 147.44 431.42 156.65 428.9 160.97 432.48 161.8 430.87 168.39 426.7 174.72 420.47 169.96 416.27 174.53 407.64 169.28 404.74 170.83 402.3 165.37 404.99 160.85 395.48 157.37 394.72 151.53 399.07 143.79 393.19 140.61 387.76 136.07 393.35 135.1 395.37 131.78 390.06 129.62 383.26 129.23 378.28 119.44 376.25 119.79 372.67 114.44 372.53 111.46 369.1 109.8 375.3 104.41 377.49 105.57 381.18 102.03 387.3 106.88 391.49 102.33 396.53 102.11 398.01 100.2 404.39 103.17 409.45 102.07 413.74 103.71 428 99.36 430.98 92.42 431.33 87.16 434.11 86.06 445.4 95.84 448.32 100.79 Z" id="함평군"/>
<path d="M 459.79 357.04 456.07 359 451.86 364.15 447.19 363.62 441.05 366.44 437.2 372.97 436.59 384.5 431.38 387.98 433.31 390.31 430.4 400.32 427.25 397.89 418.99 397.01 415.09 403.25 407.24 405.51 405.99 397.77 410.17 392.58 408.75 384.84 406.12 382.26 397.91 382.14 395.51 377.09 399.68 371.3 399.64 366.94 404.21 368.39 407.57 365.38 405.26 360.5 398.58 358.46 396.06 360.15 390.5 353.75 393.9 350.74 395.13 346.81 390.54 343.77 391.88 339.36 390.92 335.35 395.03 333.72 390.9 325.76 384.66 320.97 383.34 317.09 372.28 324.76 369.39 323.06 372.03 317.95 369.48 314.36 364.04 313.89 356.67 310.68 350.83 312.55 348.85 310.45 350.63 305.67 341.53 302.98 343.71 299.55 341.94 297.07 343.12 293.77 336.2 287.51 337.56 284.82 334.94 278.4 336.31 275.55 336.02 267.07 339.54 266.27 340.52 258.07 344.67 247.01 347.46 246.29 353.22 250.63 355.83 255.41 357 261.08 361.03 264.08 362.97 269.83 366.93 268.06 368.35 263.96 372.34 258.92 372.47 258.95 382.29 261.26 393.38 264.73 403.63 272.35 416.01 282.53 421.36 279.49 423.23 275.9 433.34 273.92 438.86 275.18 442.14 277.31 446.21 271.83 451.64 271.57 461.6 274.76 459.81 277.86 460.43 281.5 455.02 291.51 458 292.93 456.45 299.94 451.8 305.09 458.3 314.87 452.3 325.85 455.42 326.89 454.03 331.19 456.53 333.02 454.72 340.28 456.08 347.4 463.78 346.67 469.22 351.84 466.29 356.01 459.79 357.04 Z" id="해남군"/>
<path d="M 600.51 122.37 597.77 125.4 598.53 128.95 595.95 134.84 597.03 143.62 596.21 155.01 597.54 162.97 594.78 164.96 594.02 174.79 593.18 176.35 585.39 179.66 580.62 177.95 577.63 183.55 573.09 188.31 570.02 189.01 567.91 192.29 567.21 199.3 568.63 202 569.95 210.07 562.39 214.36 561.72 219.16 555.17 222.12 547.03 221.04 542.29 222.59 536.74 218.01 533.77 221.19 530.53 221.38 528.99 226.87 523.16 222.65 522.62 219.78 518.09 218.75 518.6 214.5 516.42 210.14 512.31 208.56 504.84 211.41 496.64 211.69 495.28 210.57 502.65 205.37 508.24 204.02 510.07 199.61 508.04 193.52 507.39 187.31 510.74 183.87 510.52 177.58 514.45 172.82 515.41 169.26 512.52 165.69 507.99 163.48 511.96 155.93 514.88 152.49 514.83 140.26 522.86 135.63 526.15 141.53 531.58 141.99 535.71 136.49 541.64 134.96 541.29 130.88 545.11 128.14 548.46 123.47 547.6 121.44 550.62 119.84 560.14 123.62 565.04 127.58 570.14 122.84 567.99 116.8 564.23 110.89 563.83 104.26 569.21 105.62 578.25 100.74 585.76 101.14 597.27 94.27 600.09 97.72 601.46 103.59 597.98 111.14 600.34 113.8 600.51 122.37 Z" id="화순군"/>
</g>
</svg>