<?xml version="1.0"?>
<svg xmlns="http://www.w3.org/2000/svg" version="1.2" baseProfile="tiny" width="800" height="1036" viewBox="0 0 800 1036" stroke-linecap="round" stroke-linejoin="round">
<g id="제주특별자치도_시군구_경계">
<path d="M 115 1022 116.5 1023.17 117.17 1032.02 113.24 1035 111.84 1029.21 115 1022 Z M 118.27 962.45 122.38 963.95 125.93 968.71 125.09 972.39 119.79 978.76 114.88 973.16 110.51 971.57 112.04 968.08 118.27 962.45 Z M 21.15 838.43 24.26 835.44 23.52 831.68 26.76 829.6 32.17 829.81 43.54 825.98 43.91 820.6 55.13 824.58 72.82 833.88 80.6 837.08 88.46 846.09 94.49 850.47 92.8 838.7 96.76 832.76 102.87 827.71 123 822.35 128.66 819.73 129.05 817.54 134.51 815.33 136.29 811.64 141.21 807.78 145.18 794.63 148.88 794.01 154.52 789.31 166.51 788.56 171.83 789.58 177.18 782.56 189.26 770.15 199.22 773.65 205.79 772.77 214.21 773.28 222.45 766.75 227.6 767.28 237.61 770.76 242.27 769.48 252.6 770.9 254.48 772.59 262.7 771.97 273.47 773.43 280.94 767.65 282.32 763.27 281.57 758.47 283.82 756.07 292.34 753.24 304.09 753.98 309.37 752.55 317.53 756.11 326.81 753.37 333.28 758.6 341.69 753.04 350.93 754.48 353.31 751.78 361.59 752.27 368.61 749.62 376.18 749.47 394.64 737.61 405.45 739.93 414.97 739.69 422.06 737.75 429.07 737.14 446.17 728.2 456.51 727.19 463.57 725.12 465 719.2 472.04 714.96 473.99 716.44 491.22 713.81 492.76 708.79 498.09 705.91 506.74 707.79 524.54 693.07 536.24 686.31 545.22 683.31 553.17 683.38 567.25 677.92 568.73 680.59 576.55 685.43 583.95 686.27 595.67 684.18 603 679.54 611.86 670.94 617.2 668.85 622.18 661.45 626.33 661.45 632.5 663.57 639.87 658.14 649.96 655.42 654.18 655.55 657.9 648.09 661.81 647.56 669.13 642.18 678.44 637.9 686.21 636.57 689.43 632.21 694.82 630.79 702.1 626.2 703.55 623.29 712.15 620.89 715.13 616.76 719.27 617.36 728.36 614.18 731.92 614.71 733.66 618.06 739.56 618.75 741.23 624.69 749.67 629.89 751.32 635.64 750.65 641.31 752.36 645.92 757.64 642.68 760.55 636.32 756.89 632.36 758.69 627.05 764.05 625.2 765.18 635.74 768.07 638.98 773.72 641.36 771.75 646.49 766.09 643.68 763.15 639.91 758.99 642.16 759.01 645.46 751.53 653.57 751.35 664.28 756.13 670.57 760.23 671.43 765.01 675.77 758.06 683.9 752.07 679.46 754.29 674.6 753.04 670.7 749.22 669.28 744.55 672.26 747.08 678.47 743.47 682.23 743.77 685.78 740.65 689.43 739.91 696.74 737.63 702.41 732.2 707.56 736.58 711.88 736.51 716.73 734.09 721.05 727.08 723.59 722.54 723.84 718.07 727.62 713.48 728.64 711.6 733.43 703.25 741.97 702 749.14 697.8 751.29 699.36 758.75 698.88 762.08 693.43 769.87 690.78 770.32 687.01 777.81 681.33 783.62 679.09 783.14 674.96 786.86 674.12 791.64 675.66 795.26 679.75 795.16 677.17 801.59 673.92 803.94 664.86 814.38 661.26 816.97 653.93 818.34 647.53 815.81 638.92 822.17 637.33 819.71 624.2 821.14 617.95 817.44 609.62 817.11 605.49 823.65 599.45 825.85 597.91 833.48 593.17 834.38 590.41 838.2 584.16 841.28 582.22 846.28 579.03 848.7 573.74 849.93 569.61 845.59 565.5 848.6 560.86 847.52 554.22 850.5 548.11 851.22 534.56 857.28 518.99 858.61 514.3 857.29 510.32 858.89 505.25 856.87 501.13 857.76 498.37 853.21 494.7 853.43 497.12 859.24 484.91 859.57 479.21 862.45 480.44 867.1 477.08 872.74 466.12 875.72 465.22 879.17 457.29 880.97 457.39 888.24 451.84 892.2 441.14 894.42 436.8 898.45 429.72 893.8 429.64 890.78 424.34 887.75 421.21 889.26 416.77 886.27 407.88 888.3 404.73 894.44 398.61 890.5 393.92 892.81 389.88 890.2 388 892.33 378.74 889.81 373.33 892.41 361.86 890.25 359.47 894.61 356.1 895.66 353.99 899.45 349.48 903.02 339.75 903.59 337.66 900.11 327.28 902.43 319.64 905.3 319.6 909.55 314.79 910.48 309.08 904.09 303.87 900.82 304.4 893.67 299.6 889.89 294.76 888.92 285.47 893.8 281.31 891.71 277.42 896.31 267.71 893.87 262.03 886.15 252.16 885.21 227.46 897.43 221.07 897.13 218.08 901.71 210.45 901.46 205.96 896.36 201.64 894.14 195.6 895.86 181.87 895.44 180.39 890.22 177.3 888.32 167.63 890.72 163.33 893.52 162.01 897.36 158.43 898.56 154.2 902.74 148.73 905.28 145.34 909.12 142.43 919.29 140.42 921.14 137.8 928.5 140.38 931.86 141.74 938.89 137.32 940.63 134.07 938.79 132.46 934.38 124.94 935.84 124.02 939.79 120.04 941.67 112.46 938.76 109.42 934.14 112.89 928.76 109.93 922.2 103.76 922.86 96.79 914.08 90.26 909.73 88.96 904.44 85.38 900.79 83.42 894.38 76.81 891.69 75.93 889.14 69.55 884.78 60.6 884.56 53.33 881.57 45.44 875.3 43.25 871.46 33.92 864.95 30.77 855.43 21.3 847.2 21.15 838.43 Z" fill-rule="evenodd" id="서귀포시"/>
<path d="M 1 806.89 4.57 802.42 6.84 805.28 1 806.89 Z M 81.17 689.97 84.29 692.36 82.95 697.09 78.54 699.05 74.97 697.07 75.3 690.34 81.17 689.97 Z M 790.61 572.61 787.27 574.84 787.63 580.23 793.16 581.16 795 583.89 799 596.52 794.9 605.6 792.15 607.37 788.33 603.71 785.06 605.03 775.81 602.9 771.99 600.83 772.78 596.64 769.72 587.22 773.2 579.61 779.46 574.5 776.22 571.58 776.8 568.21 782.96 564.98 786.26 569.59 790.61 572.61 Z M 731.99 577 729.12 580.33 729.94 583.41 736.42 582.06 742.95 587.34 743.11 591.92 739.26 599.83 741.11 605.6 737.1 609.26 732.31 610.84 731.92 614.71 728.36 614.18 719.27 617.36 715.13 616.76 712.15 620.89 703.55 623.29 702.1 626.2 694.82 630.79 689.43 632.21 686.21 636.57 678.44 637.9 669.13 642.18 661.81 647.56 657.9 648.09 654.18 655.55 649.96 655.42 639.87 658.14 632.5 663.57 626.33 661.45 622.18 661.45 617.2 668.85 611.86 670.94 603 679.54 595.67 684.18 583.95 686.27 576.55 685.43 568.73 680.59 567.25 677.92 553.17 683.38 545.22 683.31 536.24 686.31 524.54 693.07 506.74 707.79 498.09 705.91 492.76 708.79 491.22 713.81 473.99 716.44 472.04 714.96 465 719.2 463.57 725.12 456.51 727.19 446.17 728.2 429.07 737.14 422.06 737.75 414.97 739.69 405.45 739.93 394.64 737.61 376.18 749.47 368.61 749.62 361.59 752.27 353.31 751.78 350.93 754.48 341.69 753.04 333.28 758.6 326.81 753.37 317.53 756.11 309.37 752.55 304.09 753.98 292.34 753.24 283.82 756.07 281.57 758.47 282.32 763.27 280.94 767.65 273.47 773.43 262.7 771.97 254.48 772.59 252.6 770.9 242.27 769.48 237.61 770.76 227.6 767.28 222.45 766.75 214.21 773.28 205.79 772.77 199.22 773.65 189.26 770.15 177.18 782.56 171.83 789.58 166.51 788.56 154.52 789.31 148.88 794.01 145.18 794.63 141.21 807.78 136.29 811.64 134.51 815.33 129.05 817.54 128.66 819.73 123 822.35 102.87 827.71 96.76 832.76 92.8 838.7 94.49 850.47 88.46 846.09 80.6 837.08 72.82 833.88 55.13 824.58 43.91 820.6 43.54 825.98 32.17 829.81 26.76 829.6 23.52 831.68 24.26 835.44 21.15 838.43 14.98 833.77 13.83 826.71 20.14 818.18 16.47 811.18 20.25 799.92 19.81 791.46 16.21 790.8 15.71 785.27 18.59 782.73 14.97 778.98 20.62 772.65 32.76 765.22 35.16 752.71 39.92 750.88 42.9 746.47 48.71 742.41 53.39 743.43 58.19 739.32 58.04 736.34 65.17 732.25 67.53 728.99 66.91 724.44 71.52 721.47 75.4 715.42 84.73 716.47 88.78 709.5 93.54 709.44 94.48 705.89 101.7 702.9 104.07 693.41 110.89 685.58 113.52 685.48 113.21 679.24 115.49 677.06 112.91 664.92 115.47 662.71 124.25 664.05 129.97 655.81 136.33 652.93 140.41 655.11 143.67 654.22 152.38 648.49 156.54 643.8 160.58 635.81 158.33 628.65 162.64 624.69 166.08 624.95 173.93 628.14 181.03 624.99 182.35 627.31 187.4 627.95 189.73 623.79 195.46 621.1 200.12 621.31 202.75 615.62 208.27 613.49 217.31 615.18 225.92 608.5 229.46 607.59 233.7 602.75 239.07 602.71 242.08 608.82 248.02 609.79 251.36 606.82 254.76 607.76 258.08 602.04 263.55 602.53 271.69 596.23 274.62 597.97 286.86 595.44 291.1 592.44 298.01 593.88 300.04 590.33 299.42 586.05 305.61 586.35 311.56 581.38 319.53 580.22 322.96 580.85 328.24 578.69 330.17 572.17 338.74 567.45 343.3 568.39 345.13 571.46 358.35 573.49 361.55 569.29 375.07 571.79 374.91 567.36 378.39 569.1 386.03 564.52 386.73 559.29 387.15 559.58 388.99 563.79 395.95 564.18 397.64 567.75 401.37 565.63 404.01 560.47 407.41 564.29 411.16 561.07 415.14 563.07 416.65 559.86 421.3 563.47 426.37 563.06 430.49 558.96 431.5 554.13 438.42 549.08 443.96 552.15 452.5 551.4 454.7 548.91 468.04 549.46 474.28 551.24 476.36 546.2 473.82 544.36 474.97 540.55 478.31 540.62 484.27 528.76 488.21 531.6 492.55 532.41 500.02 540.75 500.99 538.97 502.79 542.96 505.81 543.69 512.85 541.08 514.99 533.3 519.15 533.13 522.2 537.63 528.15 537.09 535.51 532.54 542.5 532.15 550.78 530.38 553.59 531.6 556.47 526.64 562.72 526.58 566.52 523.51 572.31 526.69 575.35 530.47 578.34 526.25 583.48 527.16 589.96 525.29 593.75 527.83 596.98 526.27 597.56 518.45 600.85 517.74 605.68 519.6 618.5 519.08 619 521.7 627.83 525.13 632.38 530.26 642.63 527.6 647.26 523.36 658.19 526.46 658.88 531.44 662.66 535.91 660.29 539.27 661.77 544.57 669.15 548.86 673.19 555.42 676.09 555 683.79 557.15 690.51 564.95 695.65 565.29 697.92 560.48 712.31 560.18 714.69 563.69 719.56 562.38 723.44 563.56 730.91 569.05 732.65 572.68 731.99 577 Z M 197.03 67.21 197.45 75.38 188.08 78.02 183.23 77.3 180.07 84.17 181.38 88.7 186.48 90.8 184.7 94.36 177.44 94.33 176.13 88.66 173.4 85.68 172.21 80.7 167.39 77.1 167.57 74.82 161.98 73.27 160.69 68.06 167.65 68.46 172.65 66.23 181.85 69.65 186.9 67.38 188.69 64.56 192.88 63.57 197.03 67.21 Z M 140.03 46.7 142.14 50.56 152.28 52.92 157.31 56.49 157.73 63.03 159.79 66 154.45 68.4 148.98 64.28 143.34 57.68 139.45 48.61 140.03 46.7 Z M 194.9 1 200.79 1.74 208.47 6.26 204.29 9.29 194.9 1 Z" fill-rule="evenodd" id="제주시"/>
</g>
</svg>