<?xml version="1.0"?>
<svg xmlns="http://www.w3.org/2000/svg" version="1.2" baseProfile="tiny" width="800" height="517" viewBox="0 0 800 517" stroke-linecap="round" stroke-linejoin="round">
<g id="충청남도_시군구_경계">
<path d="M 654.22 351.16 653.7 355.69 654 365.37 650.9 366.14 649.17 368.27 653.78 375.32 656.3 376.13 662.69 380.59 663.63 382.97 661.75 386.64 662.4 389.73 659.38 389.89 656.47 391.37 655.68 393.4 649.02 396.19 646.19 394.27 645.18 384.99 642.82 384.82 639.41 381.82 631.89 387.04 630.22 381.86 631.18 377.96 630.12 375.06 632.06 370.75 632.21 366.48 633.49 363.19 632.16 355.57 632.41 353.21 630 347.59 633.63 343.56 634.44 341.14 638.1 340.25 645.62 341.16 647.33 345.56 651.95 346.62 652.2 349.34 654.22 351.16 Z" id="계룡시"/>
<path d="M 559.29 195.47 563.47 198.39 565.34 195.59 570.91 196.27 572.14 197.74 576.3 197.94 578.03 200.7 580.27 200.33 583.39 202.08 589.16 202.39 591.17 199.19 591.48 196.65 593.99 196.59 597.16 194.54 604.3 197.05 605.6 200.7 609.49 202.84 612.15 208.84 612.92 212.95 615.03 215.13 614.83 219.12 618.86 221.09 621.38 224.45 623.54 223.78 626.83 225.4 629.06 231.38 631.9 230.57 634.7 232.75 632.91 237.71 629.36 238.94 626.41 244.83 628.58 247.81 623.58 248.08 621.87 249.6 621.39 253.72 624.93 259.4 621.73 262.19 620.2 265.24 623.08 268.38 621.42 270.72 622.8 273.04 627.16 273.01 629.58 274.45 629.65 276.74 627.97 279.22 629.81 284.37 632.83 286.08 633.38 288.77 630.95 292.1 632.07 293.57 631.73 298.4 638.1 300.83 641.31 306.25 647.94 308.58 650.89 313.61 653.34 313.03 654.34 309.49 656.52 308.71 660.41 310.24 662.86 309.75 661.57 317.45 661.28 323.1 662.41 328.7 661.11 333.21 658.59 335.07 658.59 336.92 661.64 342.88 656.52 346.07 656.65 350.56 654.22 351.16 652.2 349.34 651.95 346.62 647.33 345.56 645.62 341.16 638.1 340.25 634.44 341.14 633.63 343.56 630 347.59 623.46 349.46 617.99 353.3 615.55 353.11 615.44 356.1 608.71 360.44 604.54 353.84 601.26 354.93 598.96 349.65 596.06 344.98 586.93 358.28 584.6 365.51 580.38 366.37 579.72 370.25 580 374.55 575.05 373.76 570.11 371.56 565.41 372.26 561.37 367.89 560.4 365.16 553.18 364.75 549.83 360.3 550.25 355.68 552.16 354.6 553.05 350.01 549.54 345.93 546.25 347 548.25 345.68 550.31 341.08 550.53 332.25 552.23 327.84 556.65 324.86 564.93 317.85 565.88 314.82 565.02 312.58 560.99 307.81 564.21 303.96 560.43 298.69 557.77 298.25 558.58 294.4 556.21 292.32 554.62 288.41 547.63 286.32 546.15 285.04 538.36 284.64 532.57 287.02 528.73 290.55 522.96 289.98 521.92 285.15 519 284.04 516.88 279.97 514.65 278.83 514.05 271.77 514.89 267.29 510.96 263.02 514.63 256.05 512.86 253.01 513.39 249.43 517.1 245.36 517 240.86 521.76 234.97 525.21 232.48 526.9 227.69 528.98 226.07 527.94 221.41 529.79 215.71 531.82 214.42 531.53 210.6 534.85 208.63 534.28 206.47 536.03 202.56 538.62 200.48 538.62 197.12 539.92 195.95 539.54 187.93 543.47 184.54 544.52 188.57 547.59 193.22 547.37 196.66 553.12 199.03 556.74 197.83 559.29 195.47 Z" id="공주시"/>
<path d="M 678.15 444.02 678.31 436.87 676.54 429.32 681.61 418.81 683.07 419.13 685.62 414.39 687.82 412.1 687.43 409.34 689.77 405.71 692.25 404.72 694.08 402.38 692.61 399.27 694.45 390.7 694.08 386.96 692.5 385.9 692.58 381.93 693.64 379.23 699.25 377.56 704.15 382.54 702.66 386.52 704.31 391.04 702.95 395.19 707.89 395.8 709.53 400.73 711.85 403.04 710.84 405.23 715.22 407.92 719.02 408.87 720.61 412 724.5 413.81 729.17 410.82 728.49 408.22 730.86 405.23 734.17 404.46 733.55 400.79 737.2 399.06 737.59 397.33 742.23 395.53 743.23 393.42 746.96 393.52 753.01 392.15 755.19 389.39 758.53 387.31 760.58 391.14 765.15 393.19 763.42 399.29 766.88 398.97 772.96 395.5 778.53 397.04 780.95 401.1 783.5 403.06 784.23 408.91 781.48 413.51 783.49 418.46 781.71 422 784.94 425.93 785.02 430.19 782.48 433.68 780.72 438.07 780.36 442.33 786.52 449.93 788.26 449.75 790.89 456.21 791.04 461.54 793.36 462.9 797.05 467.3 799 474.23 793.6 473.96 792.31 475.41 791.58 480.85 791.98 484.81 796.15 485.81 795.99 490.4 792.94 494.14 789.48 493.3 790.76 496.72 791.62 501.95 788.51 505.22 786.98 500.1 784.48 500.09 781.08 493.85 777.75 492.88 774.67 494.73 772.07 491.35 768.72 489.95 766.37 490.23 764.4 487.7 758.12 486.46 758.35 489.42 760.22 490.36 760.97 493.52 759.95 495.63 760.92 500.76 758.41 502.19 759.93 505.5 758.98 509.51 755.42 512.76 751.21 513.66 748.65 515.36 745.81 511.7 743.92 512.26 741.35 516 736.82 514.9 733.92 511.36 732.22 513.32 729.46 513.63 726.34 508.97 726.15 506.24 724.41 501.93 722.04 501.43 721.92 496.63 720.95 491.81 715.21 495.01 712.83 498.57 710.5 499.01 708.15 501.6 705.11 498.2 701.5 495.67 698.66 494.89 699.33 491.26 697.54 489.42 697.58 486.32 692.68 480.39 692.58 476.67 693.99 474.82 692.08 472.01 693.04 469.75 691.21 467.21 692.4 463.51 688.35 460.8 687.7 459.28 690.45 454.56 688.76 450.76 686.42 450.06 684.78 444.81 678.15 444.02 Z" id="금산군"/>
<path d="M 630 347.59 632.41 353.21 632.16 355.57 633.49 363.19 632.21 366.48 632.06 370.75 630.12 375.06 631.18 377.96 630.22 381.86 631.89 387.04 639.41 381.82 642.82 384.82 645.18 384.99 646.19 394.27 649.02 396.19 655.68 393.4 656.47 391.37 659.38 389.89 662.4 389.73 662.92 392.86 666.56 397.19 667.32 400.38 669.92 401.18 671.95 398.91 675.3 401.17 677.74 405.16 678.65 409.78 682.33 410.96 681.58 413.17 681.61 418.81 676.54 429.32 678.31 436.87 678.15 444.02 676.51 449.16 673.59 448.82 671.48 446.29 668.28 447.73 667.25 451.98 663.75 452.71 659.62 454.93 655.91 454.33 653.95 452.35 651.05 452.22 648.76 456.15 648.7 460.11 652.01 464.35 649.7 466.41 647.26 465.36 644.53 461.23 640.98 458.8 636.72 459.53 632.91 458.29 631.88 463.81 630.27 465.07 627.44 464.12 624.3 460.85 619.9 464.42 615.04 466.09 610.24 462.88 606.72 464.89 605.62 467.01 604.96 473.91 601.34 475.45 593.43 469.66 588.96 471.52 583.03 465.34 581.82 465.43 577.47 460.48 577.65 458.02 576.34 450.58 577.81 450.04 578.57 446.26 575.93 445.51 571.82 441.49 568.02 439.71 563.67 440.86 562 439.34 560.72 435.39 558.79 436.42 556.92 434.4 554.59 433.78 553.68 430.05 555.45 426.94 553.42 421.59 550.38 419.03 548.54 409.85 548.52 407.1 552.57 403.93 556.27 403.38 557.34 406.29 560.21 405.41 563.9 401.81 567.54 392.99 569.54 391.91 569.98 389.01 576.33 384.96 579.33 384.51 581.2 380.87 581.67 377.71 580 374.55 579.72 370.25 580.38 366.37 584.6 365.51 586.93 358.28 596.06 344.98 598.96 349.65 601.26 354.93 604.54 353.84 608.71 360.44 615.44 356.1 615.55 353.11 617.99 353.3 623.46 349.46 630 347.59 Z" id="논산시"/>
<path d="M 492.77 56.11 491.64 57.56 488.61 52.02 489.84 49.44 492.77 56.11 Z M 350.26 14.63 349.77 16.06 344.99 14.57 344.9 13.2 349.56 11.77 350.26 14.63 Z M 440.91 32.19 443.03 34.2 444.65 32.73 451.02 36.5 456.98 38 458.66 39.62 461.77 38.65 474.15 44.4 472.96 48.35 478.03 58.72 477.7 63.16 481.24 68.14 482.95 65.18 485.4 69.18 486.03 77.66 486.97 81.63 490.55 85.41 497.42 87.43 494.1 107.25 494.33 112.91 498.47 119.27 502.08 127.02 502.5 130.1 501.51 132.26 495.16 132.72 493.42 133.75 488.9 134.82 489.45 137.9 485.2 139.71 483.92 141.3 477.76 142.35 473.71 145.42 469.9 150.38 464.34 144.29 459.93 142.59 458.35 137.32 451.54 127.61 447.23 125.21 440.65 126.57 441.08 130.11 439.75 133.94 435.87 135.22 432.89 134.37 430.21 135.87 428.66 140.44 424.35 138.52 420.71 129.52 416.27 120.79 414.21 119.78 410.73 120.79 406.64 118.48 403.99 115.9 403.71 112.1 400.81 108.55 397.91 110.51 396.41 113.68 394.44 114.47 391.53 112.74 387.13 114.65 382.66 114.37 379.85 113.19 376.1 113.63 375.17 109.88 373.17 108.97 372.14 102.02 370.15 98.94 369.96 92.8 365.82 92.63 360.32 90.42 356.64 87.8 356.78 81.26 362.8 61.95 363.05 58.55 359.69 41.77 353.19 29.93 355.89 27.66 353.52 23.48 353.61 21.2 356.25 18.12 357.06 15.04 363.22 3.55 365.49 3.48 366.75 1.04 374.54 3.66 377.74 8.91 377.91 11.43 383.13 15.31 389.38 15.45 390.34 17.82 394.2 19.1 395.46 20.74 398.88 21.3 418.04 31.6 422.8 32.5 435.63 33.09 440.91 32.19 Z M 340.23 1.1 341.56 4.12 344.24 4.2 346.07 2.32 348.37 5.7 348.33 10.71 342.1 10.9 337.71 12.03 337.91 5.44 336.02 3.37 337.5 1 340.23 1.1 Z" fill-rule="evenodd" id="당진시"/>
<path d="M 207.2 391.37 208.8 394.92 203.11 395.94 201.38 397.56 198.35 397.25 199.07 393.8 207.2 391.37 Z M 159.78 388.77 158.79 392.86 155.77 392.55 156.02 390.06 159.78 388.77 Z M 276.23 370.91 274.04 375.75 271.91 376.7 271.99 372.32 276.23 370.91 Z M 273.65 359.34 274.71 364.5 270.55 367.55 268.2 363.83 271.42 359.16 273.65 359.34 Z M 308.83 335.49 310.97 337.17 310.62 341.67 314.12 344.6 309 348.27 303.71 346.09 302.84 343.88 306.04 341.97 308.83 335.49 Z M 347.85 336.22 343.01 335.78 340.67 333.54 324.32 329.37 321.93 330.59 319.68 329.62 319.68 325.64 320.97 323.86 323.95 323.58 324.98 325.33 328.06 325.56 329.23 327.5 332.49 327.83 330.54 324.08 333.77 321.72 339.27 322.04 337.76 325.05 340.59 327.71 337.81 329.78 340.71 331.93 345.76 333.35 348.92 333.5 347.85 336.22 Z M 344.98 325.1 340.87 324.04 340.83 320.73 342.94 319.38 344.98 325.1 Z M 313.86 318.43 313.03 323.86 310.93 320.95 311.85 317.47 313.86 318.43 Z M 388.7 264.67 391.95 267.11 398.97 263.89 400.23 265.08 401.85 271.49 403.42 273.52 402.13 277.01 403.23 277.98 402.4 279.13 397.82 279.75 396.8 277.87 391.68 275.63 387.97 275.51 387.8 278.31 384.34 280.75 382.12 280.96 379.43 283.4 376.84 288.12 374.68 288.45 374.33 292.71 376.96 296.02 379.15 294.57 378.84 292.14 383.07 291.53 384.14 289.32 383.48 284.22 386.48 285.57 384.6 290.39 389.38 290.62 390.75 286.31 390.06 281.98 392.5 280.01 398.21 282.85 403.71 280.74 406.92 277.84 408.28 275.36 411.36 278.67 414.76 279.48 415.66 284 417.25 284.63 423.14 283.92 424.84 287.33 430.03 286.49 431.15 287.25 431.86 291.59 436.4 294.17 434.52 298.52 437.42 302.13 436.34 303.64 437.89 306.21 437.22 310.7 442.91 313.62 444.23 317.42 446.47 318.69 444.8 321.27 449.89 327.59 449.73 329.35 442.29 331.49 441.35 333.82 441.88 339.01 438.59 346.62 436.36 346.15 432.09 349.7 434.15 352.28 432.56 355.45 433.48 358.92 437.35 362.07 435.22 367.01 438.79 370.69 437.1 372.05 438.72 374.4 437.77 377.54 441.46 378.74 447.04 382.48 454.75 384.7 453.5 389.85 451.94 392.69 449.59 392.29 446.82 393.81 445.59 396.49 445.75 401.38 444.82 403.31 441.19 405.94 436.64 414.73 433.3 415.99 432.31 418.32 426.96 421.29 423 418.79 412.36 422.4 408.78 421.6 406.78 422.88 401.21 421.36 399.08 421.74 392.81 419.57 390.26 414.95 387.6 413.45 372.85 415.44 377.1 408.69 377.01 404.56 374.9 400.35 374.88 390.65 378.59 386.83 377.62 385.2 378.76 380.81 381.65 380.13 381.79 378.06 374.4 364.13 370.6 361.91 368.42 356.41 365.05 350.51 365.61 348.62 369.52 349.22 371.26 345.66 380.11 344 383.14 340.2 386.73 337.29 381.3 336.3 374.34 330.59 367.71 323.93 364.6 323.02 357.13 322.99 356.56 320.98 358.03 318.35 360.14 307.84 363.36 305.68 363.05 302.35 366.59 301.84 370.81 296.91 376.38 295.74 374.52 293.55 370.04 295.11 364.55 299.57 362.91 296.71 364.42 293.78 361.48 292.1 359.3 289.03 360.2 286.69 359.23 283.73 360.15 281.22 357.26 278.22 356.67 271.65 358.23 264.3 358.18 261.01 358.42 260.9 361.51 261.68 364.48 256.95 366.83 256.44 368.97 258.65 373.86 258.59 381.13 266.31 387.4 265.62 388.7 264.67 Z" fill-rule="evenodd" id="보령시"/>
<path d="M 546.25 347 549.54 345.93 553.05 350.01 552.16 354.6 550.25 355.68 549.83 360.3 553.18 364.75 560.4 365.16 561.37 367.89 565.41 372.26 570.11 371.56 575.05 373.76 580 374.55 581.67 377.71 581.2 380.87 579.33 384.51 576.33 384.96 569.98 389.01 569.54 391.91 567.54 392.99 563.9 401.81 560.21 405.41 557.34 406.29 556.27 403.38 552.57 403.93 548.52 407.1 548.54 409.85 550.38 419.03 553.42 421.59 555.45 426.94 553.68 430.05 554.59 433.78 556.92 434.4 553.72 435.93 545.74 435.1 540.33 431.41 537.88 431.25 531.08 433.95 528.25 437.8 523.67 440.74 520.37 440.59 516.45 437.82 512.18 439.1 509.29 443.02 506.01 452.84 505.74 464.54 504.84 471.18 493.51 466.74 491.71 457.88 493.24 455.01 493.1 449.69 489.46 447.48 484.98 442.27 478.85 438.72 475.57 440.15 474.54 437.65 476.14 433.75 476.12 427.95 474.97 425.81 476.92 423.99 475.34 419.42 469.63 418.19 464.54 417.98 457.19 419 452.84 418.74 447.64 421.96 443.78 421.44 439.83 419.77 436.64 414.73 441.19 405.94 444.82 403.31 445.75 401.38 445.59 396.49 446.82 393.81 449.59 392.29 451.94 392.69 453.5 389.85 454.75 384.7 447.04 382.48 441.46 378.74 437.77 377.54 438.72 374.4 437.1 372.05 438.79 370.69 435.22 367.01 437.35 362.07 433.48 358.92 432.56 355.45 434.15 352.28 432.09 349.7 436.36 346.15 438.59 346.62 441.88 339.01 441.35 333.82 442.29 331.49 449.73 329.35 449.89 327.59 453.88 325.91 455.16 327.6 455.09 331.61 460.8 336.78 465.72 338.24 472.82 336.27 476.19 338.38 477.54 335.4 479.95 333.06 482.06 327.25 486.32 326.65 490.06 323.22 492.27 323.67 497.24 322.21 497.85 323.22 495.55 328.06 490.84 327.09 492.07 333.22 495.28 332.62 494.22 335.9 496.92 337.14 498.91 341.12 501.2 342.57 501.3 346.45 499.68 348.57 502.19 353.19 503.86 352.18 510.81 351.36 514.02 352.77 521.07 350.5 522.36 353.89 526.9 356.64 537.07 351.26 541.02 347.73 546.25 347 Z" id="부여군"/>
<path d="M 301.46 71.44 304.3 71.18 305.28 73.93 308.21 76.2 307.05 77.92 303.4 76.29 301.46 71.44 Z M 317.81 65.42 320.28 64.69 324.37 67.12 323.66 69.17 318.59 70.23 317.81 65.42 Z M 326.74 84.35 327.08 81.82 330.7 82.58 331.53 80.26 334.13 81.48 336.9 79.06 340.41 79.24 338.84 75.38 334.84 75.3 332.34 70.28 336.38 65.9 332.15 61.56 330.9 63.15 327.32 61.72 325.07 64.28 322.09 61.16 321.3 57.08 314.46 54.83 313.25 53.3 310.35 53.5 309.68 49.07 305.33 49.58 305.24 45.94 309.15 46.71 310.49 45.83 315.36 46.22 317.74 49.9 320.28 46.02 323.86 46.58 323.89 43.66 319.91 43.42 321.39 40.56 317.9 39.36 310.27 40.01 306.28 37.92 302.76 37.84 301.64 34.56 303.56 32.51 311.05 28.89 312.63 25.87 314.61 28.02 325.44 25.75 335.95 25.58 339.04 24.21 343.45 26.49 343.02 27.74 348.95 28.28 349.78 32 353.19 29.93 359.69 41.77 363.05 58.55 362.8 61.95 356.78 81.26 356.64 87.8 360.32 90.42 365.82 92.63 369.96 92.8 370.15 98.94 372.14 102.02 373.17 108.97 375.17 109.88 376.1 113.63 379.85 113.19 382.66 114.37 387.13 114.65 391.53 112.74 394.44 114.47 396.41 113.68 397.91 110.51 400.81 108.55 403.71 112.1 403.99 115.9 406.64 118.48 410.73 120.79 414.21 119.78 416.27 120.79 420.71 129.52 424.35 138.52 422.63 140.8 423.43 142.5 422.05 145.86 423.94 147.16 424.07 150.04 420.1 148.45 416.52 148.39 416.42 154.63 412.64 158.04 407.13 158.17 407.22 159.99 404.59 164.26 407.3 171.71 403.69 175.19 403.72 178.21 402.14 180.59 403.19 183.76 401.6 188.7 399.27 190.89 396.41 190.48 395.67 194.94 392.3 197.84 390.21 197.4 388.7 199.85 382.66 201.73 381 199.57 378.37 198.99 369.58 206.09 367.42 204.1 364.21 205.76 347.32 208.17 347.16 213.09 342.49 220.13 333.13 216.24 332.49 213.11 326.39 211.13 321.73 210.9 314.08 207.29 311.97 208.19 308.86 191.74 307.37 182 306.76 166.72 307.39 159.9 306.25 150.66 309.09 140.41 308.75 134.71 311.49 130.81 309.58 127.01 303.45 118.32 304.41 116.96 301.65 114.55 300.02 111.13 301.03 108.73 297.76 106.91 297.14 104.97 299.77 102.72 300.05 98.66 302.79 95.44 304.63 96.84 308.55 96.74 306.39 102.41 308.64 104.62 311.13 110.13 314.17 110.77 315.29 109.41 312.82 106.3 312.52 102.32 317.15 98.39 317.78 93.48 315.01 89.86 319.19 86.96 327.25 87.69 326.74 84.35 Z" fill-rule="evenodd" id="서산시"/>
<path d="M 418.47 479.47 417.92 477.5 413.04 477.6 413.12 469.23 412.61 465.72 418.49 462.32 413.2 459.62 412.9 457.09 407.42 456.04 405.6 458.66 403.91 456.7 403.27 452.86 400.9 448.01 397.75 443.41 394.35 441.49 392.04 438.79 388.79 438.25 385.68 442.88 380.44 436.13 377.83 434.12 370.67 431.96 365.62 432.81 363.24 437.27 364.33 442.75 360.6 440.81 360.12 439.26 360.16 428.72 366.02 428.14 369.29 428.85 373.02 423.87 373.17 420.66 372.08 417.95 372.85 415.44 387.6 413.45 390.26 414.95 392.81 419.57 399.08 421.74 401.21 421.36 406.78 422.88 408.78 421.6 412.36 422.4 423 418.79 426.96 421.29 432.31 418.32 433.3 415.99 436.64 414.73 439.83 419.77 443.78 421.44 447.64 421.96 452.84 418.74 457.19 419 464.54 417.98 469.63 418.19 475.34 419.42 476.92 423.99 474.97 425.81 476.12 427.95 476.14 433.75 474.54 437.65 475.57 440.15 478.85 438.72 484.98 442.27 489.46 447.48 493.1 449.69 493.24 455.01 491.71 457.88 493.51 466.74 504.84 471.18 503.65 475.5 502.04 476.53 493.07 479.89 485.6 481.27 480.66 487.91 478.51 488.96 465.81 490.7 462.71 492.38 457.48 492.47 455.85 495.74 452.95 504.39 450.55 503.06 447.83 504.45 441.93 501.96 429.49 500.17 426.69 502.38 424.02 499.01 425.3 494.5 424.36 490.72 427.06 489.65 423.21 483.37 419.8 481.83 418.47 479.47 Z" id="서천군"/>
<path d="M 584.52 62.3 590.24 70.76 591.95 74.17 591.57 76.45 588.46 78.89 591.14 83.23 589.75 85.41 590.83 88.94 589.03 91.96 590.76 99.03 593.89 98.49 596.92 99.39 598.17 102.26 596.35 105.75 593.45 108.81 596.28 110.57 594.47 112.84 594.94 115.89 592.83 120.95 593.47 122.14 592.39 129.71 596.06 128.18 597.98 131.1 599.11 134.92 601.28 138.98 600.84 145.01 593.37 148.73 592.5 150.7 588.74 153.91 586.5 160.63 588.09 164.41 586.14 166.73 585.69 170.13 583.35 171.1 578.1 170.98 575.56 172.63 572.25 176.75 567.02 179.83 561.72 187.86 561.62 190.68 559.29 195.47 556.74 197.83 553.12 199.03 547.37 196.66 547.59 193.22 544.52 188.57 543.47 184.54 543.55 181.08 545.28 179.07 543.15 176.91 538.59 175.24 536.81 172.93 530.44 173.37 528.59 172.52 526.15 174.29 522.85 172.8 518.62 173.53 519.5 170.19 517.46 166.55 517.2 163.91 514.84 163.02 512.79 159.72 508.53 161.2 505.24 160.61 501.81 154.26 502.32 152.29 498.93 151.31 498.08 149.49 494.34 148.97 493.72 146.1 491.68 145.11 491.04 140.24 493.42 133.75 495.16 132.72 501.51 132.26 502.5 130.1 502.08 127.02 498.47 119.27 494.33 112.91 494.1 107.25 497.42 87.43 503.84 89.49 511.75 86.37 519.69 85.8 522.68 83.23 522.04 79.45 524.74 77.29 533.46 72.09 546.42 68.13 550.92 65.03 554.58 63.69 556.29 64.45 562.31 63.72 566.18 66.87 568.45 67.09 570.52 65.24 574.45 64.8 581.09 60.81 584.52 62.3 Z" id="아산시"/>
<path d="M 493.42 133.75 491.04 140.24 491.68 145.11 493.72 146.1 494.34 148.97 498.08 149.49 498.93 151.31 502.32 152.29 501.81 154.26 505.24 160.61 508.53 161.2 512.79 159.72 514.84 163.02 517.2 163.91 517.46 166.55 519.5 170.19 518.62 173.53 522.85 172.8 526.15 174.29 528.59 172.52 530.44 173.37 536.81 172.93 538.59 175.24 543.15 176.91 545.28 179.07 543.55 181.08 543.47 184.54 539.54 187.93 539.92 195.95 538.62 197.12 538.62 200.48 536.03 202.56 534.28 206.47 534.85 208.63 531.53 210.6 531.82 214.42 529.79 215.71 527.94 221.41 528.98 226.07 526.9 227.69 525.21 232.48 521.76 234.97 517 240.86 514.42 240.39 509.21 237.95 506.81 235.99 502.55 236.56 498.33 235.64 494.88 239.02 493.64 243.16 491.3 245.87 491.11 248.57 488.77 255.12 483.89 253.92 478.88 254.69 473.43 252.28 471.74 253.51 468.94 252.46 466.14 251.94 463.54 255.71 458.78 253.6 456.71 251.09 455.25 244.27 459.55 241.46 459.92 237.56 459.1 233 463.03 228.46 465.4 227.77 468.53 224.78 468.76 218.92 468.32 213.67 464.33 212.62 463.74 208.85 460.39 204.74 461.43 200.39 459.73 198.67 455.24 198.5 455.63 193.61 458.59 189.54 456.57 187.12 451.14 189.46 444.85 187.06 443.44 190.22 438.57 192.95 434.32 192.07 426.06 194.34 423.2 197.58 419.22 198.41 414.14 197.62 410.68 203.18 412.73 206.25 413.42 214.14 411.77 216.01 409.71 213.03 409.18 209.87 405.68 208.99 404.23 211.84 402.11 210.79 398.09 212.48 397.78 208.47 398.43 203.16 399.73 199.31 401.83 196 399.27 190.89 401.6 188.7 403.19 183.76 402.14 180.59 403.72 178.21 403.69 175.19 407.3 171.71 404.59 164.26 407.22 159.99 407.13 158.17 412.64 158.04 416.42 154.63 416.52 148.39 420.1 148.45 424.07 150.04 423.94 147.16 422.05 145.86 423.43 142.5 422.63 140.8 424.35 138.52 428.66 140.44 430.21 135.87 432.89 134.37 435.87 135.22 439.75 133.94 441.08 130.11 440.65 126.57 447.23 125.21 451.54 127.61 458.35 137.32 459.93 142.59 464.34 144.29 469.9 150.38 473.71 145.42 477.76 142.35 483.92 141.3 485.2 139.71 489.45 137.9 488.9 134.82 493.42 133.75 Z" id="예산군"/>
<path d="M 612.92 212.95 612.15 208.84 609.49 202.84 605.6 200.7 604.3 197.05 597.16 194.54 593.99 196.59 591.48 196.65 591.17 199.19 589.16 202.39 583.39 202.08 580.27 200.33 578.03 200.7 576.3 197.94 572.14 197.74 570.91 196.27 565.34 195.59 563.47 198.39 559.29 195.47 561.62 190.68 561.72 187.86 567.02 179.83 572.25 176.75 575.56 172.63 578.1 170.98 583.35 171.1 585.69 170.13 586.14 166.73 588.09 164.41 586.5 160.63 588.74 153.91 592.5 150.7 593.37 148.73 600.84 145.01 601.28 138.98 599.11 134.92 601.77 132.29 603.48 133 606 127.87 606.72 123.21 604.05 122.07 604.79 118.96 608.74 122.53 611.46 126.17 613.22 119.49 613.21 116.26 615.89 112.56 618.29 110.89 621.18 106.19 623.4 108.41 631.51 102.77 634.45 103.1 637.26 105.25 642.25 103.93 645.91 96.63 650.29 94.44 651.57 91.1 654.78 91.17 659.8 86.76 663.1 86.53 666.59 84.49 673.15 87.72 674.17 95.98 672.33 98.11 674.96 100.9 676.43 100.09 680.81 100.58 683.98 102.23 684.09 106.5 683.05 112.77 684 114.01 689.3 113.52 691.39 114.53 692.17 117.46 695.39 120.05 701.04 121.42 704.88 124.97 708.72 130.37 706.77 132.82 706.15 135.59 709.32 140.13 713.34 142.1 715.71 147.75 712.33 148.85 709.73 153.57 706.53 152.66 703.75 149.75 702.87 147.3 697.52 147.93 694.62 146.3 692.39 146.67 690.48 149.46 683.54 150.4 682.72 153.19 686.42 158.41 684.03 161.4 680.77 158.94 676.85 163.48 674.06 164 672.3 171.33 673.17 172.97 670.47 175.24 666.93 176.51 664.35 179.65 661.08 179.04 659.87 177.44 656.73 178.88 653.69 178.34 651.41 176.6 649.31 177.12 645.78 171.65 642.83 171.29 640.94 167.74 638.06 167.55 633.78 165.28 633.15 162.79 626.1 161.1 621.92 161.55 621.03 159.88 616.62 159.57 613.71 161.64 611.88 165.95 605.14 170.21 607.64 172.67 610.53 180.25 615.41 179.26 616.99 180.82 618.24 185.24 616.11 187.81 614.69 191.94 616.85 195.8 614.61 197.33 614.08 201.64 615.81 205.67 614.41 211 612.92 212.95 Z" id="천안시 동남구"/>
<path d="M 613.22 119.49 611.46 126.17 608.74 122.53 604.79 118.96 604.05 122.07 606.72 123.21 606 127.87 603.48 133 601.77 132.29 599.11 134.92 597.98 131.1 596.06 128.18 592.39 129.71 593.47 122.14 592.83 120.95 594.94 115.89 594.47 112.84 596.28 110.57 593.45 108.81 596.35 105.75 598.17 102.26 596.92 99.39 593.89 98.49 590.76 99.03 589.03 91.96 590.83 88.94 589.75 85.41 591.14 83.23 588.46 78.89 591.57 76.45 591.95 74.17 590.24 70.76 584.52 62.3 589.14 58.02 591.29 60.05 595.48 55.68 593.06 52.55 596.92 49.43 598.93 46.54 605.65 49.26 610.97 47.1 616.85 47.73 615.36 50.18 619.24 51.56 624.08 51.3 624.87 53.9 628.79 55.92 633.11 56.3 636.54 62.52 636.67 66.49 640.18 66.5 643.12 69.22 646.04 69.55 648.96 72.45 652.41 70.18 654.48 73.28 658.91 74.52 662.15 77.84 662.26 80.6 666.59 84.49 663.1 86.53 659.8 86.76 654.78 91.17 651.57 91.1 650.29 94.44 645.91 96.63 642.25 103.93 637.26 105.25 634.45 103.1 631.51 102.77 623.4 108.41 621.18 106.19 618.29 110.89 615.89 112.56 613.21 116.26 613.22 119.49 Z" id="천안시 서북구"/>
<path d="M 517 240.86 517.1 245.36 513.39 249.43 512.86 253.01 514.63 256.05 510.96 263.02 514.89 267.29 514.05 271.77 514.65 278.83 516.88 279.97 519 284.04 521.92 285.15 522.96 289.98 528.73 290.55 532.57 287.02 538.36 284.64 546.15 285.04 547.63 286.32 554.62 288.41 556.21 292.32 558.58 294.4 557.77 298.25 560.43 298.69 564.21 303.96 560.99 307.81 565.02 312.58 565.88 314.82 564.93 317.85 556.65 324.86 552.23 327.84 550.53 332.25 550.31 341.08 548.25 345.68 546.25 347 541.02 347.73 537.07 351.26 526.9 356.64 522.36 353.89 521.07 350.5 514.02 352.77 510.81 351.36 503.86 352.18 502.19 353.19 499.68 348.57 501.3 346.45 501.2 342.57 498.91 341.12 496.92 337.14 494.22 335.9 495.28 332.62 492.07 333.22 490.84 327.09 495.55 328.06 497.85 323.22 497.24 322.21 492.27 323.67 490.06 323.22 486.32 326.65 482.06 327.25 479.95 333.06 477.54 335.4 476.19 338.38 472.82 336.27 465.72 338.24 460.8 336.78 455.09 331.61 455.16 327.6 453.88 325.91 449.89 327.59 444.8 321.27 446.47 318.69 444.23 317.42 442.91 313.62 437.22 310.7 437.89 306.21 436.34 303.64 437.42 302.13 434.52 298.52 436.4 294.17 431.86 291.59 431.15 287.25 430.03 286.49 432.76 285.46 437.15 282.43 441.42 278.45 443.86 278.81 447.77 277 452.05 278.19 454.05 281.19 456.29 278.92 457.34 273.26 459.59 267.95 462.47 266.63 465.76 263.26 466.69 258.02 468.94 252.46 471.74 253.51 473.43 252.28 478.88 254.69 483.89 253.92 488.77 255.12 491.11 248.57 491.3 245.87 493.64 243.16 494.88 239.02 498.33 235.64 502.55 236.56 506.81 235.99 509.21 237.95 514.42 240.39 517 240.86 Z" id="청양군"/>
<path d="M 317.49 221.58 318.55 217.97 321.5 218.49 320.01 223.54 317.49 221.58 Z M 267.5 215.79 268.17 218.83 266.24 222.03 263.78 220.88 267.5 215.79 Z M 317.39 221.63 316.08 224.57 317.69 226.03 317.4 230.02 312.87 230.76 311.22 232.88 312.61 235.31 317.14 236.47 316.95 239.82 318.71 243.92 317.12 247.38 319.29 253.09 321.41 254.7 321.24 257.26 318.2 258.17 319.42 260.44 324.4 260.43 327.15 264.76 327.73 268.02 326.21 268.96 329.62 275.15 329.64 279.37 332 282.58 332.66 285.29 328.68 288.99 334.46 292.9 334.29 295.53 337.58 296.84 336.74 299.6 338.96 306.14 336.52 307.03 334.46 309.88 336.08 315.04 334.05 314.65 332.84 311.79 328.45 307.84 326.15 308.7 324.94 305.5 322.21 304.15 318.87 304.43 318.48 307.27 315.2 309.16 308.77 302.34 309.99 295.7 308.53 294.6 305.09 295.9 299.55 294.79 300.57 292.16 299.14 286.9 299.64 283.04 297.33 282.15 299.1 279.02 300.73 270.36 299.83 267.04 300.79 262.59 299.13 261.51 299.06 256.88 300.11 254.91 299.2 241.11 294.15 233.39 294.46 230.86 293.23 226.6 297.73 227.47 297.34 220.71 304.85 215.99 309.29 215.39 311.51 214.06 314.06 215.4 314.82 219.95 317.39 221.63 Z M 226.68 177.56 227.06 179.78 231.6 178.19 232.22 183.09 226.75 184.58 226.68 177.56 Z M 206.8 175.11 207.23 178.63 208.58 180.69 204.35 184.37 197.29 184.2 194.42 186.3 193.46 184.5 198.73 180.6 203.68 180.85 207.08 177.99 206.8 175.11 Z M 287.13 192.34 283.33 185.73 275.83 184.69 276.63 181.1 275.52 179.57 275.14 173.63 279.23 170.73 278.52 165.56 279.56 163.49 278.21 158.03 273.86 162.75 271.75 163.66 264.89 163.58 264.25 167.14 266.32 170.78 263.15 172 262.5 174.04 259.54 175.42 256.84 174.77 254.42 177.7 250.84 179.23 249.18 183.15 241.42 181.82 234.38 182.21 232.52 174.74 232.66 169.36 235.53 169.21 239.08 163.67 242.73 165.11 249.4 168.9 254.27 169.52 258.24 166.94 260.32 163.7 260.12 161.5 255.41 157.41 253.91 154.71 250.03 153.69 246.21 150.59 246.06 146.74 242.29 146.15 241.29 144.76 236.16 145.52 235.04 145.01 229.28 146.13 232.7 149.03 233.27 155.95 232.36 158.02 229.52 158.87 229.5 160.81 224.65 164 222.43 167.96 220.95 166.82 222.64 162.15 223.46 156.67 226.69 152.47 224.9 146.67 221.71 140.67 218.87 138.87 219.17 136.62 227.43 135.75 228.14 132.26 231.54 128.37 232.99 122.76 230.49 120.31 234.68 119.34 236.88 110.44 232.09 107.38 235.19 106.56 236.25 102.2 239.99 106.96 239.48 110.14 241.1 113.02 241.64 119.16 246.07 118.57 247.84 113.1 246.42 110.6 243.41 109.12 248.04 105.64 251.43 100.5 251.87 98.44 248.02 91.67 249.35 88.25 245.54 83.12 251.69 82.92 253.92 77.34 258.78 77.19 261.06 74.91 265.9 74.06 269.24 72.44 281.74 78.96 284.98 76.09 284.67 73.78 288.63 64.18 287.36 53.27 285.24 48.09 285.67 45.29 289.1 45.16 291.11 41.6 292.72 41.4 292.91 45.53 288.07 48.65 293 48.74 294.88 51.57 291.58 58.53 294.48 64.1 291.21 67.44 291.65 70.07 293.9 73.58 298.02 76.56 297.97 81.91 300.7 82.76 300.43 85.21 297.43 84.24 295.58 85.88 295 90.64 291.26 95.51 292.03 97.12 288.72 100.28 287.8 104.91 296.75 107.69 296.09 109.8 291.85 111.06 288.4 113.74 283.69 113.33 282.87 116.72 285.92 118.63 285.24 125.41 287.47 126.05 288.21 122.31 291.93 118.38 294.9 119.08 299.39 117.02 303.45 118.32 309.58 127.01 311.49 130.81 308.75 134.71 309.09 140.41 306.25 150.66 307.39 159.9 306.76 166.72 307.37 182 308.86 191.74 311.97 208.19 309.82 210.82 304.23 212.39 297.11 219.54 296.29 222.5 294.15 225.21 292.85 222.43 290.05 222.76 289.97 224.83 285.83 226.8 284.71 224.19 282.43 222.49 284.36 220.28 284.69 212.43 288.19 210.04 289.49 207.1 289.49 201.52 287.13 192.34 Z" fill-rule="evenodd" id="태안군"/>
<path d="M 468.94 252.46 466.69 258.02 465.76 263.26 462.47 266.63 459.59 267.95 457.34 273.26 456.29 278.92 454.05 281.19 452.05 278.19 447.77 277 443.86 278.81 441.42 278.45 437.15 282.43 432.76 285.46 430.03 286.49 424.84 287.33 423.14 283.92 417.25 284.63 415.66 284 414.76 279.48 411.36 278.67 408.28 275.36 403.23 277.98 402.13 277.01 403.42 273.52 401.85 271.49 400.23 265.08 398.97 263.89 391.95 267.11 388.7 264.67 382.61 264.47 378.84 261.81 375.76 258.06 371.4 256.49 365.31 252.76 358.4 259.72 358.42 260.9 358.18 261.01 358.75 257.43 360.19 255.19 356.7 250.61 352.99 248.99 351.26 244.75 354 239.49 352.51 237.14 351.17 231.44 351.4 228.37 348.99 225.5 348.03 222.53 342.49 220.13 347.16 213.09 347.32 208.17 364.21 205.76 367.42 204.1 369.58 206.09 378.37 198.99 381 199.57 382.66 201.73 388.7 199.85 390.21 197.4 392.3 197.84 395.67 194.94 396.41 190.48 399.27 190.89 401.83 196 399.73 199.31 398.43 203.16 397.78 208.47 398.09 212.48 402.11 210.79 404.23 211.84 405.68 208.99 409.18 209.87 409.71 213.03 411.77 216.01 413.42 214.14 412.73 206.25 410.68 203.18 414.14 197.62 419.22 198.41 423.2 197.58 426.06 194.34 434.32 192.07 438.57 192.95 443.44 190.22 444.85 187.06 451.14 189.46 456.57 187.12 458.59 189.54 455.63 193.61 455.24 198.5 459.73 198.67 461.43 200.39 460.39 204.74 463.74 208.85 464.33 212.62 468.32 213.67 468.76 218.92 468.53 224.78 465.4 227.77 463.03 228.46 459.1 233 459.92 237.56 459.55 241.46 455.25 244.27 456.71 251.09 458.78 253.6 463.54 255.71 466.14 251.94 468.94 252.46 Z" id="홍성군"/>
</g>
</svg>