<?xml version="1.0"?>
<svg xmlns="http://www.w3.org/2000/svg" version="1.2" baseProfile="tiny" width="800" height="903" viewBox="0 0 800 903" stroke-linecap="round" stroke-linejoin="round">
<g id="충청북도_시군구_경계">
<path d="M 456.74 320.07 454.36 337.23 441.37 364.41 441.37 369.89 462.23 388.09 463.68 398.59 451.64 398.62 431.27 382.52 423.81 391.9 411.08 389.77 405.24 381.89 397.58 378.78 393.1 390.16 393.34 398.71 384.06 399.88 380.03 411.6 361 408.73 354.02 414.99 372.15 420.76 381.85 427.16 387.44 438.71 383.65 463.3 371.42 465.83 368.94 458.26 359.21 456.16 358.28 447.75 349.49 437.21 342.18 451.32 334.97 452.02 338.99 464.33 330.01 470.87 318.94 468.84 305.67 475.64 298.52 467.21 288.76 474.31 270.44 450.1 255.57 440.9 254.16 431.92 263.46 418.52 255.83 412.18 249.73 398.63 236.19 392.7 227.42 383.38 213.94 382.13 210.54 367.44 203.63 361.19 206.54 352.7 202.01 341.59 214.21 332.27 207.31 321.08 211.6 298.88 214.2 292.51 225.45 289.57 235.01 295.94 240.04 289.48 243.23 275.82 252.34 277.86 268.31 274.92 277.2 279.68 298.8 274.33 298.4 264.32 303.91 258.17 302.56 248.59 295.86 244.29 298.84 233.45 302.83 227.14 311.26 231.68 324.9 231.45 330.86 241 328.57 251.13 339.73 256.64 343.03 262.91 353.21 263.15 374.14 273.72 382.62 268.97 393.74 269.92 390.4 277.61 404.35 289.3 402.95 295.38 408.96 306.05 405.75 311.91 412.48 319.24 429.08 327.16 434.61 324.61 436.24 313.25 456.74 320.07 Z" id="괴산군"/>
<path d="M 562.55 278.92 567.76 269.91 563.59 265.43 564.95 255.77 559.34 246.93 559.22 234.36 575.25 221 568.82 179.8 559.76 168.51 553.71 168.99 548.94 156.66 551.94 141.64 560.02 133.44 575.63 122.93 569.68 113.23 575.98 104.45 591.46 115.5 597.17 113.82 599.72 103.55 593.78 89.37 601.37 81.22 612.4 77.53 615.15 72.52 643.49 71.68 653.05 79.67 650.35 92.91 663.42 99.13 665.91 110.01 674.64 105.3 697.84 105.77 708.58 94.36 718.95 110.2 730.56 114.13 739.45 122.39 746.58 119.65 754.01 126.01 772.41 129.13 781.9 121.29 785.23 130.1 799 138.08 788.18 154.25 774.74 146.94 773.28 152.88 758.81 153.92 749.22 162.65 753.64 169.77 742.51 186.76 721.45 194.62 715.65 206.72 698.54 216.16 690.34 223.52 688.85 231.73 678.27 238.11 680.11 247.97 669.86 265.75 668.31 274.95 675.86 277.03 683.02 284.68 683.07 295.55 674.5 305.53 666.74 321.97 645.13 320.55 636.53 329.07 627.61 321.65 605.79 314.39 594.02 305.4 586.26 290.55 562.55 278.92 Z" id="단양군"/>
<path d="M 305.67 475.64 305.69 486.95 320.89 498.13 337.15 497.89 349.12 510.98 347.79 518.33 365.59 531.13 367.82 546.29 353.76 554.12 354.72 576.83 349.05 592.01 351.02 600.1 350.03 616.79 344.31 619.37 356.24 635.97 353.77 642.16 341.83 640.16 328.69 641.45 317.89 634.92 307.4 634.38 301.09 629.98 289.96 630.79 285.04 626.48 276.61 631.87 259.7 624.81 248.62 611.85 237.63 608.46 237.02 595.63 227.46 589.71 223.78 594.43 213.01 595.87 200.24 609.46 197.95 618.88 183.14 612.62 170.03 623.52 163.07 625.6 154.84 607.06 140.17 605.72 143.24 596.64 157.88 588.53 168.57 564.02 176.52 556.56 172.67 550.17 174.09 538.19 169.63 527.58 178.86 519.35 197.57 511.87 196.54 499.02 208.54 485.37 215.73 473.31 229.98 481.28 245.14 485.62 256.31 475.82 269.53 477.23 275.02 487.9 288.36 481.51 288.76 474.31 298.52 467.21 305.67 475.64 Z" id="보은군"/>
<path d="M 188.95 777.41 195.13 776.82 216 786.56 222.1 772.17 218.66 761.31 219.96 748.26 232.75 750.36 243.77 738.71 249.81 722.46 265.82 711.25 281.44 717.22 286.29 705.61 292.22 699.98 300.09 701.92 312.07 687.58 327.71 685.82 333.63 682 337.79 712.71 355.65 712.77 361.14 699.61 383.89 709.57 393.86 718.01 394.16 724.36 407.2 729.42 413.37 719.81 430.66 713.65 452.13 724.74 441.98 736.74 454.02 754.1 457.58 764.07 447.28 769.86 438.68 760.88 430.3 758.96 415.3 765.44 410.21 774.71 414.74 787.57 422.56 798.81 417.48 803.82 418.34 814.46 404.54 828.86 406.78 834.97 400.67 845.27 402.14 859.58 395.73 867.28 384.2 874.76 376.32 871.33 368.1 882.3 357.62 884.67 347.62 893.46 338.81 882.41 325.66 885.26 306.24 892.71 287.94 902 276.89 889.4 251.23 886.05 247.02 881.23 242.62 865.65 231.35 873.83 222.33 870.58 210.44 857.79 209.69 852.19 200.49 843.38 200.28 835.21 184.16 813.97 191.29 795.37 186.23 782.83 188.95 777.41 Z" id="영동군"/>
<path d="M 353.77 642.16 360.45 650.66 354.69 661.23 337.9 672.45 333.63 682 327.71 685.82 312.07 687.58 300.09 701.92 292.22 699.98 286.29 705.61 281.44 717.22 265.82 711.25 249.81 722.46 243.77 738.71 232.75 750.36 219.96 748.26 218.66 761.31 222.1 772.17 216 786.56 195.13 776.82 188.95 777.41 185.87 769.85 190.08 762.8 188.97 753.83 181.36 744.63 172.85 742.27 163.54 747.58 160.89 738.73 150.77 729.73 142.31 737.14 127.35 739.08 123.53 722.24 131 706.66 126.79 694.75 133.43 675.73 132.48 665.28 143.02 657.85 147.23 643.6 146.7 631.13 154.58 623.99 163.07 625.6 170.03 623.52 183.14 612.62 197.95 618.88 200.24 609.46 213.01 595.87 223.78 594.43 227.46 589.71 237.02 595.63 237.63 608.46 248.62 611.85 259.7 624.81 276.61 631.87 285.04 626.48 289.96 630.79 301.09 629.98 307.4 634.38 317.89 634.92 328.69 641.45 341.83 640.16 353.77 642.16 Z" id="옥천군"/>
<path d="M 244.83 86.69 253.07 90.47 260.3 100.83 259.71 107.87 246.44 116.34 247.14 121.96 239.72 135.25 242.46 149.83 231.36 159.16 222.3 176.73 226.25 185.1 220.55 190.05 219.18 200.22 225.53 204.58 231.53 198.44 248 207.11 257.18 218.22 270.52 222.55 277.33 219.44 291.66 236.26 298.84 233.45 295.86 244.29 302.56 248.59 303.91 258.17 298.4 264.32 298.8 274.33 277.2 279.68 268.31 274.92 252.34 277.86 243.23 275.82 240.04 289.48 235.01 295.94 225.45 289.57 214.2 292.51 211.6 298.88 197.75 307.02 193.7 294.37 177.17 293.99 180.16 277.73 171.87 271.3 164.01 270.58 152.41 252.6 146.02 251.06 138.33 238.44 127.52 232.57 119.6 235.19 110.51 225.58 101.11 224.5 106.82 213.19 102.35 205.17 101.02 180.43 108.36 170.19 107.12 156.76 123.86 148.71 129.76 153.53 138.95 147.58 150.7 148.41 164.68 158.47 170.41 154.09 169.19 145.47 176.86 133.83 188.29 135.45 189.35 126.24 208.03 118.52 211.44 86.39 217.39 79.38 224.27 87.1 240.85 90.23 244.83 86.69 Z" id="음성군"/>
<path d="M 593.78 89.37 599.72 103.55 597.17 113.82 591.46 115.5 575.98 104.45 569.68 113.23 575.63 122.93 560.02 133.44 551.94 141.64 548.94 156.66 553.71 168.99 559.76 168.51 568.82 179.8 575.25 221 559.22 234.36 559.34 246.93 564.95 255.77 563.59 265.43 567.76 269.91 562.55 278.92 558.44 285.81 560.87 294.93 555.91 298.45 545.66 295.38 548 322.3 510.29 314.78 499.86 307.94 484.52 309.61 477.29 306.25 472.79 294.57 455.98 300.27 443.58 294.59 460.51 264.04 460.42 252.8 455.63 236.38 447.41 231.84 446.45 220.32 455.41 216.17 465.39 223.42 472.04 222.7 473.88 194.83 467.37 189.93 473.94 170.39 468.23 152.28 471.06 139.76 467.12 127.78 455.41 122.69 444.14 106.12 432.69 102.26 420.72 109.33 413.75 107.37 412.98 92.5 404.27 85.15 402.68 74.73 394.6 70.49 378.36 68.11 384.03 51.28 381.78 38.12 375.42 25.1 385.37 13.71 403.15 2.81 412.22 1 425.25 5.28 431.78 10.83 434.06 24.38 443.2 31.27 437.24 40.69 442.41 50.61 463.86 47.74 485.35 37 492.74 18.11 502.85 21.81 510.22 31.11 520.84 28.58 521.37 18.79 532.23 9.77 540.76 6.92 552.84 21.87 565.8 20.64 576.02 36.21 602.32 25.32 613.08 31.33 609.62 43.62 602.11 44.06 598.86 51.87 591.92 53.89 577.61 66.25 579.21 79.77 593.78 89.37 Z" id="제천시"/>
<path d="M 211.6 298.88 207.31 321.08 214.21 332.27 202.01 341.59 206.54 352.7 203.63 361.19 210.54 367.44 213.94 382.13 227.42 383.38 226.36 394.23 217.7 404.15 212.16 399.33 200.34 399.72 200.72 392.92 192.39 372.28 184.53 370.71 183.34 361.23 170.88 352.19 169.38 347.12 164.59 334.95 153.39 326.65 164.05 320.26 173.6 318.4 171.6 304.99 177.17 293.99 193.7 294.37 197.75 307.02 211.6 298.88 Z" id="증평군"/>
<path d="M 101.02 180.43 102.35 205.17 106.82 213.19 101.11 224.5 110.51 225.58 119.6 235.19 127.52 232.57 138.33 238.44 146.02 251.06 152.41 252.6 164.01 270.58 171.87 271.3 180.16 277.73 177.17 293.99 171.6 304.99 173.6 318.4 164.05 320.26 153.39 326.65 164.59 334.95 169.38 347.12 137.1 356.83 134.59 347.69 109.45 354.36 102.08 365.12 89.29 368.4 84.99 363.45 79.85 352.48 70.63 344.33 74.56 336.34 62.81 322.64 54.17 320.55 44.84 310.54 35.29 309.39 36.71 293.26 22.91 291.22 20.13 271.04 10.1 266.09 20.84 239.23 31.19 234.52 46.99 222.45 59.63 224.48 66.3 213.95 74.58 211.64 65.02 199.7 70.36 189.45 90.43 186.71 101.02 180.43 Z" id="진천군"/>
<path d="M 288.76 474.31 288.36 481.51 275.02 487.9 269.53 477.23 256.31 475.82 245.14 485.62 229.98 481.28 215.73 473.31 208.54 485.37 196.54 499.02 197.57 511.87 178.86 519.35 169.63 527.58 174.09 538.19 172.67 550.17 176.52 556.56 168.57 564.02 157.88 588.53 143.24 596.64 140.17 605.72 132.6 615.71 125.81 598.53 133.73 586.29 132.04 581.35 118.61 579.75 120.28 566.19 117.49 556.75 107.53 553.09 99.82 538.91 105.52 526.57 100.99 514.62 114.55 518.78 123.73 515.41 113.35 496.57 116.58 491.1 131.06 485.82 130.21 466.68 122.09 456.32 121.66 445.01 132.25 443.27 145.8 435.59 152.65 427.43 170.7 423.66 181.7 417.09 190.23 406.22 200.34 399.72 212.16 399.33 217.7 404.15 226.36 394.23 227.42 383.38 236.19 392.7 249.73 398.63 255.83 412.18 263.46 418.52 254.16 431.92 255.57 440.9 270.44 450.1 288.76 474.31 Z" id="청주시 상당구"/>
<path d="M 120.28 566.19 114.27 568.81 109.85 581.37 103.27 586.36 94.24 581.16 82.81 582.33 73.27 579.36 75.08 560.16 78.83 553.13 78.37 532.54 74.43 519.86 64.26 519.86 60.05 500.59 67.34 488.25 81.95 472.56 92.83 475.37 106.44 449.96 121.13 443.83 121.66 445.01 122.09 456.32 130.21 466.68 131.06 485.82 116.58 491.1 113.35 496.57 123.73 515.41 114.55 518.78 100.99 514.62 105.52 526.57 99.82 538.91 107.53 553.09 117.49 556.75 120.28 566.19 Z" id="청주시 서원구"/>
<path d="M 200.34 399.72 190.23 406.22 181.7 417.09 170.7 423.66 152.65 427.43 145.8 435.59 132.25 443.27 121.66 445.01 121.13 443.83 106.99 423.95 101.47 423.18 70.39 392.62 61.02 395.46 37.6 391.24 25.8 387.04 31.8 380.08 36.03 367.01 49.58 361.3 65.6 362.25 76.1 371.85 84.99 363.45 89.29 368.4 102.08 365.12 109.45 354.36 134.59 347.69 137.1 356.83 169.38 347.12 170.88 352.19 183.34 361.23 184.53 370.71 192.39 372.28 200.72 392.92 200.34 399.72 Z" id="청주시 청원구"/>
<path d="M 25.8 387.04 37.6 391.24 61.02 395.46 70.39 392.62 101.47 423.18 106.99 423.95 121.13 443.83 106.44 449.96 92.83 475.37 81.95 472.56 67.34 488.25 60.05 500.59 50.34 504.62 36.39 499.03 27.6 489.04 17.46 489.34 18.86 475.83 8.59 450.69 1 448.5 18.19 428.47 19.69 418.02 6.78 411.49 16.04 405.04 21.53 387.82 25.8 387.04 Z" id="청주시 흥덕구"/>
<path d="M 378.36 68.11 394.6 70.49 402.68 74.73 404.27 85.15 412.98 92.5 413.75 107.37 420.72 109.33 432.69 102.26 444.14 106.12 455.41 122.69 467.12 127.78 471.06 139.76 468.23 152.28 473.94 170.39 467.37 189.93 473.88 194.83 472.04 222.7 465.39 223.42 455.41 216.17 446.45 220.32 447.41 231.84 455.63 236.38 460.42 252.8 460.51 264.04 443.58 294.59 455.98 300.27 472.79 294.57 477.29 306.25 484.52 309.61 499.86 307.94 497.75 313.48 486.12 316.33 485.21 324.19 476.4 329.73 464.04 321.35 456.74 320.07 436.24 313.25 434.61 324.61 429.08 327.16 412.48 319.24 405.75 311.91 408.96 306.05 402.95 295.38 404.35 289.3 390.4 277.61 393.74 269.92 382.62 268.97 374.14 273.72 353.21 263.15 343.03 262.91 339.73 256.64 328.57 251.13 330.86 241 324.9 231.45 311.26 231.68 302.83 227.14 298.84 233.45 291.66 236.26 277.33 219.44 270.52 222.55 257.18 218.22 248 207.11 231.53 198.44 225.53 204.58 219.18 200.22 220.55 190.05 226.25 185.1 222.3 176.73 231.36 159.16 242.46 149.83 239.72 135.25 247.14 121.96 246.44 116.34 259.71 107.87 260.3 100.83 253.07 90.47 244.83 86.69 244.66 78.87 257.16 55.58 262.66 56.21 268.59 36.2 272.94 38.11 279.8 64.61 284.83 72.43 299.25 84.39 315.37 81.59 319.98 77.93 332.42 77.49 346.96 69.09 364.11 78.09 368.11 67 378.36 68.11 Z" id="충주시"/>
</g>
</svg>