<?xml version="1.0"?>
<svg xmlns="http://www.w3.org/2000/svg" version="1.2" baseProfile="tiny" width="800" height="518" viewBox="0 0 800 518" stroke-linecap="round" stroke-linejoin="round">
<g id="충청남도_시군구_경계">
<path d="M 655.83 352.24 655.39 376.49 664.32 381.78 664.03 390.94 650.61 397.42 646.76 386.18 631.67 376.22 635.04 364.32 631.54 348.66 635.99 342.19 647.21 342.21 655.83 352.24 Z" id="계룡시"/>
<path d="M 560.66 196.03 590.6 202.97 598.62 195.1 610.98 203.43 614.43 213.57 616.33 219.75 636.25 233.43 623.39 250.34 626.46 260.18 621.72 266.03 634.93 289.64 633.27 299.31 642.88 307.19 664.48 310.7 663.26 343.93 655.83 352.24 647.21 342.21 635.99 342.19 631.54 348.66 610.2 361.55 597.52 346.04 581.81 367.51 581.43 375.71 566.79 373.42 551.18 361.41 554.41 351.09 547.59 348.07 553.58 328.84 566.31 318.82 565.59 304.88 555.98 289.29 539.68 285.5 530.02 291.43 515.91 279.67 512.21 263.81 518.26 241.57 530.28 226.73 532.84 211.2 544.8 185.06 554.48 199.6 560.66 196.03 Z" id="공주시"/>
<path d="M 679.82 445.41 678.2 430.67 683.28 420.12 689.51 413.39 700.96 378.73 712.59 406.5 726.28 415.1 735.35 402.04 745.05 394.65 760.39 388.52 767.03 394.42 780.44 398.28 785.42 404.31 783.63 423.32 786.94 431.53 782.27 443.72 799 468.77 794.25 476.91 798.11 487.35 793.56 503.54 783 495.42 762.84 495.09 760.84 511.13 750.48 517 731.25 515.26 723.81 503.02 722.72 493.37 709.89 503.19 700.38 496.46 699.29 487.85 689.38 460.72 686.46 446.21 679.82 445.41 Z" id="금산군"/>
<path d="M 631.54 348.66 635.04 364.32 631.67 376.22 646.76 386.18 650.61 397.42 664.03 390.94 668.96 401.63 676.96 402.42 683.28 420.12 678.2 430.67 679.82 445.41 661.24 456.37 652.64 453.64 642.55 460.24 634.46 459.73 616.54 467.56 611.73 464.33 602.81 476.95 590.4 473.01 578.88 461.93 577.34 446.91 558.29 435.76 551.73 420.35 549.86 408.37 561.58 406.68 571.38 390.22 580.75 385.7 581.43 375.71 581.81 367.51 597.52 346.04 610.2 361.55 631.54 348.66 Z" id="논산시"/>
<path d="M 441.99 32.19 444.11 34.21 462.9 38.68 475.32 44.45 478.87 63.27 486.59 69.31 488.16 81.8 498.64 87.62 495.54 113.19 503.31 127.34 494.63 134.1 478.93 142.72 471.05 150.78 461.05 142.97 452.64 127.94 441.73 126.9 440.83 134.29 425.39 138.89 417.29 121.1 404.98 116.19 377.03 113.91 366.72 92.84 357.51 87.99 363.94 58.65 360.57 41.81 354.05 29.93 354.38 23.46 364.11 3.46 375.46 3.57 384.07 15.26 419.06 31.6 441.99 32.19 Z" id="당진시"/>
<path d="M 348.71 337.25 325.11 330.38 334.59 322.71 348.71 337.25 Z M 389.65 265.46 399.95 264.67 404.22 278.82 392.64 276.46 380.35 284.26 390.34 291.5 409.28 276.19 416.67 284.85 431.08 287.36 437.47 295.06 438.29 311.64 444 314.58 450.99 328.59 435.22 353.36 438.85 378.71 455.86 385.89 453.05 393.91 437.71 416.02 407.78 424.2 393.77 420.88 388.54 414.74 373.77 416.74 378.02 409.96 375.8 391.87 382.73 379.23 365.94 351.59 381.04 345.06 382.24 337.33 368.61 324.92 358 323.98 361.03 308.77 367.49 302.76 360.18 289.9 357.54 272.46 359.06 261.79 359.3 261.67 374.77 259.36 382.07 267.1 389.65 265.46 Z" fill-rule="evenodd" id="보령시"/>
<path d="M 547.59 348.07 554.41 351.09 551.18 361.41 566.79 373.42 581.43 375.71 580.75 385.7 571.38 390.22 561.58 406.68 549.86 408.37 551.73 420.35 558.29 435.76 532.38 435.32 524.95 442.13 510.54 444.41 506.08 472.67 494.72 468.21 494.31 451.11 475.7 439.02 476.5 420.73 453.95 420.05 448.73 423.29 437.71 416.02 453.05 393.91 455.86 385.89 438.85 378.71 435.22 353.36 450.99 328.59 461.93 337.82 477.35 339.42 483.24 328.26 502.43 343.63 503.42 354.28 522.34 351.58 528.19 357.74 547.59 348.07 Z" id="부여군"/>
<path d="M 327.54 84.53 337.73 79.22 332.96 61.66 322.88 61.26 318.68 39.4 303.5 37.86 311.81 28.89 339.87 24.19 354.05 29.93 360.57 41.81 363.94 58.65 357.51 87.99 366.72 92.84 377.03 113.91 404.98 116.19 417.29 121.1 425.39 138.89 417.44 155.05 408.12 158.61 408.3 172.18 400.25 191.43 389.65 200.42 379.3 199.55 370.48 206.69 348.17 208.77 343.33 220.77 333.3 213.73 312.73 208.79 308.12 182.51 307 151.07 312.25 131.14 304.2 118.62 297.87 105.23 303.53 95.66 327.54 84.53 Z" id="서산시"/>
<path d="M 419.5 480.98 414.05 479.11 413.91 458.53 404.9 458.13 398.73 444.8 371.57 433.32 373.77 416.74 388.54 414.74 393.77 420.88 407.78 424.2 437.71 416.02 448.73 423.29 453.95 420.05 476.5 420.73 475.7 439.02 494.31 451.11 494.72 468.21 506.08 472.67 504.88 477 486.79 482.79 479.68 490.51 458.6 494.03 454.06 505.99 425.06 500.59 428.11 491.2 419.5 480.98 Z" id="서천군"/>
<path d="M 585.95 62.41 593.02 76.6 590.47 92.17 600.58 135.27 602.31 145.4 590.18 154.33 587.13 170.6 579.52 171.45 568.41 180.33 560.66 196.03 554.48 199.6 544.8 185.06 538.12 173.41 527.44 174.78 514.04 160.16 506.48 161.05 492.24 140.61 494.63 134.1 503.31 127.34 495.54 113.19 498.64 87.62 505.08 89.69 520.96 85.98 523.32 79.61 552.27 65.15 567.57 67 585.95 62.41 Z" id="아산시"/>
<path d="M 494.63 134.1 492.24 140.61 506.48 161.05 514.04 160.16 527.44 174.78 538.12 173.41 544.8 185.06 532.84 211.2 530.28 226.73 518.26 241.57 499.55 236.34 489.96 255.88 470.09 253.21 457.83 251.84 460.22 233.68 469.68 225.44 465.47 213.24 452.25 189.99 415.15 198.18 406.67 209.6 399.41 203.74 400.25 191.43 408.3 172.18 408.12 158.61 417.44 155.05 425.39 138.89 440.83 134.29 441.73 126.9 452.64 127.94 461.05 142.97 471.05 150.78 478.93 142.72 494.63 134.1 Z" id="예산군"/>
<path d="M 614.43 213.57 610.98 203.43 598.62 195.1 590.6 202.97 560.66 196.03 568.41 180.33 579.52 171.45 587.13 170.6 590.18 154.33 602.31 145.4 600.58 135.27 614.73 119.79 622.7 106.45 643.83 104.18 647.49 96.86 668.22 84.67 674.8 87.91 676.62 101.14 685.66 102.47 684.73 113.05 702.76 121.73 707.89 135.94 717.46 148.14 704.59 147.69 685.22 150.81 675.71 164.45 672.12 175.73 665.98 180.16 650.9 177.62 634.7 163.24 618.14 160.01 606.62 170.68 616.19 192.48 614.43 213.57 Z" id="천안시 동남구"/>
<path d="M 614.73 119.79 600.58 135.27 590.47 92.17 593.02 76.6 585.95 62.41 600.4 46.6 634.66 56.39 641.75 66.62 660.53 74.67 668.22 84.67 647.49 96.86 643.83 104.18 622.7 106.45 614.73 119.79 Z" id="천안시 서북구"/>
<path d="M 518.26 241.57 512.21 263.81 515.91 279.67 530.02 291.43 539.68 285.5 555.98 289.29 565.59 304.88 566.31 318.82 553.58 328.84 547.59 348.07 528.19 357.74 522.34 351.58 503.42 354.28 502.43 343.63 483.24 328.26 477.35 339.42 461.93 337.82 450.99 328.59 444 314.58 438.29 311.64 437.47 295.06 431.08 287.36 442.5 279.29 457.41 279.75 460.72 268.75 470.09 253.21 489.96 255.88 499.55 236.34 518.26 241.57 Z" id="청양군"/>
<path d="M 318.16 222.28 317.9 248.12 327.95 265.55 327.01 269.77 339.79 307.07 333.66 312.74 323 305.07 315.97 310.1 300.29 295.68 301.47 271.17 299.93 241.82 294.86 234.08 298.06 221.35 312.27 214.68 318.16 222.28 Z M 287.83 192.89 276.5 185.21 279.91 171.21 278.89 158.46 266.97 171.25 249.79 183.66 234.96 182.72 233.09 175.22 239.66 164.12 250.01 169.37 260.76 161.95 246.67 147.14 236.74 145.91 230.06 161.25 219.71 136.97 227.98 136.11 237.46 110.71 246.67 118.86 252.49 98.67 248.63 91.88 254.55 77.5 269.9 72.58 282.43 79.12 291.92 67.57 298.75 76.72 295.72 90.84 288.5 105.16 289.11 114.02 304.2 118.62 312.25 131.14 307 151.07 308.12 182.51 312.73 208.79 286.53 227.46 285.38 213.04 290.2 207.7 287.83 192.89 Z" fill-rule="evenodd" id="태안군"/>
<path d="M 470.09 253.21 460.72 268.75 457.41 279.75 442.5 279.29 431.08 287.36 416.67 284.85 409.28 276.19 404.22 278.82 399.95 264.67 389.65 265.46 383.55 265.26 366.21 253.51 359.3 261.67 359.06 261.79 353.85 249.72 354.86 240.19 348.88 223.18 343.33 220.77 348.17 208.77 370.48 206.69 379.3 199.55 389.65 200.42 400.25 191.43 399.41 203.74 406.67 209.6 415.15 198.18 452.25 189.99 465.47 213.24 469.68 225.44 460.22 233.68 457.83 251.84 470.09 253.21 Z" id="홍성군"/>
</g>
</svg>