<?xml version="1.0"?>
<svg xmlns="http://www.w3.org/2000/svg" version="1.2" baseProfile="tiny" width="800" height="928" viewBox="0 0 800 928" stroke-linecap="round" stroke-linejoin="round">
<g id="충청북도_시군구_경계">
<path d="M 461.47 328.92 445.68 380.13 456.24 409.65 400.69 389.27 382.66 422.99 386.37 476.13 361.26 468.79 306.25 488.81 288.88 487.45 254.78 453.11 262.88 430.1 225.85 393.99 199.75 351.04 209.6 307.14 242.09 283.45 299.19 281.92 299.23 239.9 326.01 237.84 344.64 270.18 407.65 297.3 416 328.07 461.47 328.92 Z" id="괴산군"/>
<path d="M 570.19 286.63 566.77 240.83 583.25 227.11 576.64 184.76 559.3 145.55 599.9 118.68 602.29 91.82 653.35 73.64 685.36 108.19 730.89 113.23 799 133.69 771.85 158.16 755.1 191.92 701.49 229.69 678.86 282.56 694.03 303.72 677.25 330.87 614.62 323.09 570.19 286.63 Z" id="단양군"/>
<path d="M 306.25 488.81 367.82 545.84 350.82 608.41 355.68 659.95 276.39 649.37 236.34 625.32 225.89 606.05 159.73 642.93 136.2 622.5 173.55 571.97 166.47 542.19 195.18 526.04 213.84 486.41 244.06 499.07 288.88 487.45 306.25 488.81 Z" id="보은군"/>
<path d="M 186.32 798.95 214.12 808.36 248.86 742.48 334.98 700.89 397.18 744.43 434.68 733.42 434.3 779.99 413.67 796.18 426.35 820.95 407.83 851.83 405.38 883.4 349.35 918.23 340.3 906.87 288.04 927 220.62 894.7 181.4 836.53 186.32 798.95 Z" id="영동군"/>
<path d="M 355.68 659.95 334.98 700.89 248.86 742.48 214.12 808.36 186.32 798.95 186.34 774.72 119.1 742.26 128.3 683.71 159.73 642.93 225.89 606.05 236.34 625.32 276.39 649.37 355.68 659.95 Z" id="옥천군"/>
<path d="M 243.74 89.07 241.3 153.96 220.59 181.61 256.43 224.25 299.23 239.9 299.19 281.92 242.09 283.45 209.6 307.14 174.22 302.12 134.31 245.03 115.06 241.69 95.98 185.41 102.24 161.08 147.02 152.5 205.93 121.78 209.43 88.76 243.74 89.07 Z" id="음성군"/>
<path d="M 602.29 91.82 599.9 118.68 559.3 145.55 576.64 184.76 583.25 227.11 566.77 240.83 570.19 286.63 555.24 331.21 505.78 316.46 447.95 302.74 477.2 228.85 479.15 175.09 472.14 131.3 448.53 109.03 417.3 110.32 405.93 76.78 380.94 69.97 377.92 25.77 415.73 1 435.83 11.1 446.75 51.99 516.42 31.95 547.8 7.09 584.03 37.19 602.29 91.82 Z" id="제천시"/>
<path d="M 209.6 307.14 199.75 351.04 225.85 393.99 198.02 410.78 166.21 356.72 174.22 302.12 209.6 307.14 Z" id="증평군"/>
<path d="M 95.98 185.41 115.06 241.69 134.31 245.03 174.22 302.12 166.21 356.72 79.5 373.5 56.72 331.57 28.44 317.95 2.56 273.45 13.59 245.84 60.3 219.86 64.47 194.68 95.98 185.41 Z" id="진천군"/>
<path d="M 288.88 487.45 244.06 499.07 213.84 486.41 195.18 526.04 166.47 542.19 173.55 571.97 136.2 622.5 115.77 581.87 94.74 553.84 119.31 529.68 126.85 499.27 117.19 457.33 167.57 435.38 198.02 410.78 225.85 393.99 262.88 430.1 254.78 453.11 288.88 487.45 Z" id="청주시 상당구"/>
<path d="M 115.77 581.87 98.29 602.6 67.46 595.41 68.65 534.25 53.88 514.45 76.38 485.64 116.63 456.12 117.19 457.33 126.85 499.27 119.31 529.68 94.74 553.84 115.77 581.87 Z" id="청주시 서원구"/>
<path d="M 198.02 410.78 167.57 435.38 117.19 457.33 116.63 456.12 64.5 403.49 18.68 397.75 29.2 377.16 79.5 373.5 166.21 356.72 198.02 410.78 Z" id="청주시 청원구"/>
<path d="M 18.68 397.75 64.5 403.49 116.63 456.12 76.38 485.64 53.88 514.45 29.57 512.85 1 463.17 18.68 397.75 Z" id="청주시 흥덕구"/>
<path d="M 380.94 69.97 405.93 76.78 417.3 110.32 448.53 109.03 472.14 131.3 479.15 175.09 477.2 228.85 447.95 302.74 505.78 316.46 481.67 338.85 461.47 328.92 416 328.07 407.65 297.3 344.64 270.18 326.01 237.84 299.23 239.9 256.43 224.25 220.59 181.61 241.3 153.96 243.74 89.07 256.41 57.09 299.66 86.71 380.94 69.97 Z" id="충주시"/>
</g>
</svg>